G75*
G70*
%OFA0B0*%
%FSLAX24Y24*%
%IPPOS*%
%LPD*%
%AMOC8*
5,1,8,0,0,1.08239X$1,22.5*
%
%ADD10C,0.0050*%
%ADD11C,0.0060*%
%ADD12R,0.1000X0.0200*%
%ADD13R,0.0300X0.0750*%
%ADD14C,0.0120*%
%ADD15C,0.0200*%
%ADD16R,0.0300X0.4200*%
%ADD17R,0.0200X0.0750*%
%ADD18R,0.0200X0.0300*%
%ADD19R,0.0200X0.1000*%
%ADD20R,0.0750X0.0300*%
%ADD21R,0.0500X0.0250*%
%ADD22R,0.0200X0.0100*%
%ADD23R,0.4200X0.0300*%
%ADD24R,0.0750X0.0200*%
%ADD25R,0.0300X0.0200*%
%ADD26C,0.0080*%
%ADD27C,0.0010*%
%ADD28C,0.0030*%
D10*
X005529Y002689D02*
X005604Y002613D01*
X005529Y002689D02*
X005529Y002839D01*
X005604Y002914D01*
X005679Y002914D01*
X005979Y002613D01*
X005979Y002914D01*
X005979Y003074D02*
X005529Y003074D01*
X005979Y003374D01*
X005529Y003374D01*
X005604Y003534D02*
X005529Y003609D01*
X005529Y003759D01*
X005604Y003834D01*
X005679Y003834D01*
X005754Y003759D01*
X005829Y003834D01*
X005904Y003834D01*
X005979Y003759D01*
X005979Y003609D01*
X005904Y003534D01*
X005754Y003684D02*
X005754Y003759D01*
X005679Y003995D02*
X005754Y004070D01*
X005754Y004295D01*
X005904Y004295D02*
X005604Y004295D01*
X005529Y004220D01*
X005529Y004070D01*
X005604Y003995D01*
X005679Y003995D01*
X005904Y003995D02*
X005979Y004070D01*
X005979Y004220D01*
X005904Y004295D01*
X005904Y004455D02*
X005604Y004755D01*
X005904Y004755D01*
X005979Y004680D01*
X005979Y004530D01*
X005904Y004455D01*
X005604Y004455D01*
X005529Y004530D01*
X005529Y004680D01*
X005604Y004755D01*
X005754Y004915D02*
X005754Y005140D01*
X005829Y005215D01*
X005904Y005215D01*
X005979Y005140D01*
X005979Y004990D01*
X005904Y004915D01*
X005754Y004915D01*
X005604Y005065D01*
X005529Y005215D01*
X008529Y005245D02*
X008754Y005245D01*
X008679Y005395D01*
X008679Y005470D01*
X008754Y005545D01*
X008904Y005545D01*
X008979Y005470D01*
X008979Y005320D01*
X008904Y005245D01*
X008529Y005245D02*
X008529Y005545D01*
X008754Y005705D02*
X008754Y006005D01*
X008904Y006165D02*
X008604Y006165D01*
X008529Y006240D01*
X008529Y006390D01*
X008604Y006465D01*
X008904Y006165D01*
X008979Y006240D01*
X008979Y006390D01*
X008904Y006465D01*
X008604Y006465D01*
X008529Y005930D02*
X008754Y005705D01*
X008979Y005930D02*
X008529Y005930D01*
X008529Y005084D02*
X008529Y004784D01*
X008979Y004784D01*
X008979Y004624D02*
X008829Y004474D01*
X008829Y004549D02*
X008829Y004324D01*
X008979Y004324D02*
X008529Y004324D01*
X008529Y004549D01*
X008604Y004624D01*
X008754Y004624D01*
X008829Y004549D01*
X008754Y004784D02*
X008754Y004934D01*
X008979Y004167D02*
X008979Y004017D01*
X008979Y004092D02*
X008529Y004092D01*
X008529Y004017D02*
X008529Y004167D01*
X013167Y005876D02*
X013467Y005876D01*
X013627Y005876D02*
X013627Y006326D01*
X013777Y006176D01*
X013927Y006326D01*
X013927Y005876D01*
X014087Y005951D02*
X014162Y005876D01*
X014312Y005876D01*
X014388Y005951D01*
X014388Y006026D01*
X014312Y006101D01*
X014237Y006101D01*
X014312Y006101D02*
X014388Y006176D01*
X014388Y006251D01*
X014312Y006326D01*
X014162Y006326D01*
X014087Y006251D01*
X014548Y006251D02*
X014548Y006176D01*
X014623Y006101D01*
X014848Y006101D01*
X014848Y006251D02*
X014773Y006326D01*
X014623Y006326D01*
X014548Y006251D01*
X014848Y006251D02*
X014848Y005951D01*
X014773Y005876D01*
X014623Y005876D01*
X014548Y005951D01*
X015008Y005951D02*
X015083Y005876D01*
X015233Y005876D01*
X015308Y005951D01*
X015308Y006026D01*
X015233Y006101D01*
X015158Y006101D01*
X015233Y006101D02*
X015308Y006176D01*
X015308Y006251D01*
X015233Y006326D01*
X015083Y006326D01*
X015008Y006251D01*
X015468Y006326D02*
X015769Y005876D01*
X015769Y006326D01*
X015468Y006326D02*
X015468Y005876D01*
X017567Y006726D02*
X017867Y006726D01*
X017717Y006726D02*
X017717Y007176D01*
X017567Y007026D01*
X018027Y007176D02*
X018327Y006726D01*
X018327Y007176D01*
X018487Y006951D02*
X018788Y006951D01*
X018948Y006801D02*
X018948Y007101D01*
X019023Y007176D01*
X019173Y007176D01*
X019248Y007101D01*
X018948Y006801D01*
X019023Y006726D01*
X019173Y006726D01*
X019248Y006801D01*
X019248Y007101D01*
X019408Y007101D02*
X019483Y007176D01*
X019633Y007176D01*
X019708Y007101D01*
X019408Y006801D01*
X019483Y006726D01*
X019633Y006726D01*
X019708Y006801D01*
X019708Y007101D01*
X019868Y006951D02*
X020169Y006951D01*
X020094Y006726D02*
X020094Y007176D01*
X019868Y006951D01*
X019408Y006801D02*
X019408Y007101D01*
X018712Y007176D02*
X018712Y006726D01*
X018487Y006951D02*
X018712Y007176D01*
X018027Y007176D02*
X018027Y006726D01*
X018027Y008226D02*
X018027Y008676D01*
X018327Y008226D01*
X018327Y008676D01*
X018487Y008451D02*
X018788Y008451D01*
X018948Y008301D02*
X018948Y008601D01*
X019023Y008676D01*
X019173Y008676D01*
X019248Y008601D01*
X018948Y008301D01*
X019023Y008226D01*
X019173Y008226D01*
X019248Y008301D01*
X019248Y008601D01*
X019408Y008601D02*
X019483Y008676D01*
X019633Y008676D01*
X019708Y008601D01*
X019408Y008301D01*
X019483Y008226D01*
X019633Y008226D01*
X019708Y008301D01*
X019708Y008601D01*
X019868Y008451D02*
X020169Y008451D01*
X020094Y008226D02*
X020094Y008676D01*
X019868Y008451D01*
X019408Y008301D02*
X019408Y008601D01*
X018712Y008676D02*
X018712Y008226D01*
X018487Y008451D02*
X018712Y008676D01*
X017867Y008226D02*
X017567Y008226D01*
X017717Y008226D02*
X017717Y008676D01*
X017567Y008526D01*
X019167Y010376D02*
X019467Y010376D01*
X019627Y010376D02*
X019627Y010826D01*
X019777Y010676D01*
X019927Y010826D01*
X019927Y010376D01*
X020087Y010451D02*
X020162Y010376D01*
X020312Y010376D01*
X020388Y010451D01*
X020388Y010526D01*
X020312Y010601D01*
X020237Y010601D01*
X020312Y010601D02*
X020388Y010676D01*
X020388Y010751D01*
X020312Y010826D01*
X020162Y010826D01*
X020087Y010751D01*
X020548Y010751D02*
X020623Y010826D01*
X020773Y010826D01*
X020848Y010751D01*
X020848Y010451D01*
X020773Y010376D01*
X020623Y010376D01*
X020548Y010451D01*
X020623Y010601D02*
X020848Y010601D01*
X021008Y010751D02*
X021083Y010826D01*
X021233Y010826D01*
X021308Y010751D01*
X021308Y010676D01*
X021233Y010601D01*
X021308Y010526D01*
X021308Y010451D01*
X021233Y010376D01*
X021083Y010376D01*
X021008Y010451D01*
X021158Y010601D02*
X021233Y010601D01*
X021468Y010376D02*
X021468Y010826D01*
X021769Y010376D01*
X021769Y010826D01*
X020623Y010601D02*
X020548Y010676D01*
X020548Y010751D01*
X019167Y010826D02*
X019167Y010376D01*
X015769Y010376D02*
X015769Y010826D01*
X015468Y010826D02*
X015769Y010376D01*
X015468Y010376D02*
X015468Y010826D01*
X015308Y010751D02*
X015233Y010826D01*
X015083Y010826D01*
X015008Y010751D01*
X015008Y010676D01*
X015083Y010601D01*
X015233Y010601D01*
X015308Y010526D01*
X015308Y010451D01*
X015233Y010376D01*
X015083Y010376D01*
X015008Y010451D01*
X015008Y010526D01*
X015083Y010601D01*
X015233Y010601D02*
X015308Y010676D01*
X015308Y010751D01*
X014848Y010826D02*
X014548Y010826D01*
X014548Y010601D01*
X014698Y010676D01*
X014773Y010676D01*
X014848Y010601D01*
X014848Y010451D01*
X014773Y010376D01*
X014623Y010376D01*
X014548Y010451D01*
X014388Y010451D02*
X014312Y010376D01*
X014162Y010376D01*
X014087Y010451D01*
X013927Y010376D02*
X013927Y010826D01*
X013777Y010676D01*
X013627Y010826D01*
X013627Y010376D01*
X013467Y010376D02*
X013167Y010376D01*
X013167Y010826D01*
X014087Y010751D02*
X014162Y010826D01*
X014312Y010826D01*
X014388Y010751D01*
X014388Y010676D01*
X014312Y010601D01*
X014388Y010526D01*
X014388Y010451D01*
X014312Y010601D02*
X014237Y010601D01*
X014295Y012726D02*
X014070Y012876D01*
X014295Y013026D01*
X014070Y013176D02*
X014070Y012726D01*
X013910Y012801D02*
X013835Y012726D01*
X013685Y012726D01*
X013610Y012801D01*
X013910Y013101D01*
X013910Y012801D01*
X013610Y012801D02*
X013610Y013101D01*
X013685Y013176D01*
X013835Y013176D01*
X013910Y013101D01*
X013450Y013101D02*
X013149Y012801D01*
X013224Y012726D01*
X013374Y012726D01*
X013450Y012801D01*
X013450Y013101D01*
X013374Y013176D01*
X013224Y013176D01*
X013149Y013101D01*
X013149Y012801D01*
X012989Y012726D02*
X012689Y012726D01*
X012839Y012726D02*
X012839Y013176D01*
X012689Y013026D01*
X012904Y013826D02*
X012829Y013901D01*
X012904Y013826D02*
X013054Y013826D01*
X013129Y013901D01*
X013129Y013976D01*
X013054Y014051D01*
X012979Y014051D01*
X013054Y014051D02*
X013129Y014126D01*
X013129Y014201D01*
X013054Y014276D01*
X012904Y014276D01*
X012829Y014201D01*
X011454Y014501D02*
X011354Y014401D01*
X007654Y014401D01*
X007554Y014501D01*
X007504Y015651D01*
X007634Y014641D02*
X007636Y014661D01*
X007642Y014679D01*
X007651Y014697D01*
X007663Y014712D01*
X007678Y014724D01*
X007696Y014733D01*
X007714Y014739D01*
X007734Y014741D01*
X007754Y014739D01*
X007772Y014733D01*
X007790Y014724D01*
X007805Y014712D01*
X007817Y014697D01*
X007826Y014679D01*
X007832Y014661D01*
X007834Y014641D01*
X007832Y014621D01*
X007826Y014603D01*
X007817Y014585D01*
X007805Y014570D01*
X007790Y014558D01*
X007772Y014549D01*
X007754Y014543D01*
X007734Y014541D01*
X007714Y014543D01*
X007696Y014549D01*
X007678Y014558D01*
X007663Y014570D01*
X007651Y014585D01*
X007642Y014603D01*
X007636Y014621D01*
X007634Y014641D01*
X007529Y013576D02*
X007829Y013576D01*
X007829Y013501D01*
X007529Y013201D01*
X007529Y013126D01*
X007989Y013201D02*
X007989Y013276D01*
X008064Y013351D01*
X008214Y013351D01*
X008290Y013276D01*
X008290Y013201D01*
X008214Y013126D01*
X008064Y013126D01*
X007989Y013201D01*
X008064Y013351D02*
X007989Y013426D01*
X007989Y013501D01*
X008064Y013576D01*
X008214Y013576D01*
X008290Y013501D01*
X008290Y013426D01*
X008214Y013351D01*
X008450Y013201D02*
X008525Y013126D01*
X008675Y013126D01*
X008750Y013201D01*
X008750Y013501D01*
X008450Y013201D01*
X008450Y013501D01*
X008525Y013576D01*
X008675Y013576D01*
X008750Y013501D01*
X008910Y013576D02*
X008910Y013351D01*
X009060Y013426D01*
X009135Y013426D01*
X009210Y013351D01*
X009210Y013201D01*
X009135Y013126D01*
X008985Y013126D01*
X008910Y013201D01*
X009520Y013126D02*
X009520Y013576D01*
X009370Y013576D02*
X009671Y013576D01*
X009831Y013576D02*
X009831Y013276D01*
X009981Y013126D01*
X010131Y013276D01*
X010131Y013576D01*
X009210Y013576D02*
X008910Y013576D01*
X011454Y014501D02*
X011504Y015651D01*
X014339Y015701D02*
X014414Y015776D01*
X014564Y015776D01*
X014640Y015701D01*
X014640Y015626D01*
X014564Y015551D01*
X014640Y015476D01*
X014640Y015401D01*
X014564Y015326D01*
X014414Y015326D01*
X014339Y015401D01*
X014489Y015551D02*
X014564Y015551D01*
X016749Y014872D02*
X016749Y014722D01*
X016824Y014646D01*
X017124Y014646D01*
X016824Y014947D01*
X017124Y014947D01*
X017199Y014872D01*
X017199Y014722D01*
X017124Y014646D01*
X017124Y014486D02*
X017199Y014411D01*
X017199Y014261D01*
X017124Y014186D01*
X016824Y014486D01*
X017124Y014486D01*
X016824Y014486D02*
X016749Y014411D01*
X016749Y014261D01*
X016824Y014186D01*
X017124Y014186D01*
X017199Y014026D02*
X017199Y013726D01*
X016899Y014026D01*
X016824Y014026D01*
X016749Y013951D01*
X016749Y013801D01*
X016824Y013726D01*
X018329Y013901D02*
X018404Y013826D01*
X018554Y013826D01*
X018629Y013901D01*
X018629Y013976D01*
X018554Y014051D01*
X018479Y014051D01*
X018554Y014051D02*
X018629Y014126D01*
X018629Y014201D01*
X018554Y014276D01*
X018404Y014276D01*
X018329Y014201D01*
X016824Y014947D02*
X016749Y014872D01*
X015029Y014326D02*
X014879Y014176D01*
X015029Y014326D02*
X015029Y013876D01*
X014879Y013876D02*
X015179Y013876D01*
X019839Y015401D02*
X019914Y015326D01*
X020064Y015326D01*
X020140Y015401D01*
X020140Y015476D01*
X020064Y015551D01*
X019989Y015551D01*
X020064Y015551D02*
X020140Y015626D01*
X020140Y015701D01*
X020064Y015776D01*
X019914Y015776D01*
X019839Y015701D01*
X020529Y014326D02*
X020529Y013876D01*
X020379Y013876D02*
X020679Y013876D01*
X020379Y014176D02*
X020529Y014326D01*
X025667Y010826D02*
X025667Y010376D01*
X025967Y010376D01*
X026127Y010376D02*
X026127Y010826D01*
X026277Y010676D01*
X026427Y010826D01*
X026427Y010376D01*
X026587Y010451D02*
X026662Y010376D01*
X026812Y010376D01*
X026888Y010451D01*
X026888Y010526D01*
X026812Y010601D01*
X026737Y010601D01*
X026812Y010601D02*
X026888Y010676D01*
X026888Y010751D01*
X026812Y010826D01*
X026662Y010826D01*
X026587Y010751D01*
X027048Y010826D02*
X027048Y010601D01*
X027198Y010676D01*
X027273Y010676D01*
X027348Y010601D01*
X027348Y010451D01*
X027273Y010376D01*
X027123Y010376D01*
X027048Y010451D01*
X027508Y010451D02*
X027583Y010376D01*
X027733Y010376D01*
X027808Y010451D01*
X027808Y010526D01*
X027733Y010601D01*
X027583Y010601D01*
X027508Y010676D01*
X027508Y010751D01*
X027583Y010826D01*
X027733Y010826D01*
X027808Y010751D01*
X027808Y010676D01*
X027733Y010601D01*
X027583Y010601D02*
X027508Y010526D01*
X027508Y010451D01*
X027968Y010376D02*
X027968Y010826D01*
X028269Y010376D01*
X028269Y010826D01*
X027348Y010826D02*
X027048Y010826D01*
X030167Y010826D02*
X030167Y010376D01*
X030467Y010376D01*
X030627Y010376D02*
X030627Y010826D01*
X030777Y010676D01*
X030927Y010826D01*
X030927Y010376D01*
X031087Y010451D02*
X031162Y010376D01*
X031312Y010376D01*
X031388Y010451D01*
X031388Y010526D01*
X031312Y010601D01*
X031237Y010601D01*
X031312Y010601D02*
X031388Y010676D01*
X031388Y010751D01*
X031312Y010826D01*
X031162Y010826D01*
X031087Y010751D01*
X031548Y010826D02*
X031548Y010601D01*
X031698Y010676D01*
X031773Y010676D01*
X031848Y010601D01*
X031848Y010451D01*
X031773Y010376D01*
X031623Y010376D01*
X031548Y010451D01*
X031548Y010826D02*
X031848Y010826D01*
X032008Y010751D02*
X032008Y010676D01*
X032083Y010601D01*
X032233Y010601D01*
X032308Y010526D01*
X032308Y010451D01*
X032233Y010376D01*
X032083Y010376D01*
X032008Y010451D01*
X032008Y010526D01*
X032083Y010601D01*
X032233Y010601D02*
X032308Y010676D01*
X032308Y010751D01*
X032233Y010826D01*
X032083Y010826D01*
X032008Y010751D01*
X032468Y010826D02*
X032769Y010376D01*
X032769Y010826D01*
X032468Y010826D02*
X032468Y010376D01*
X024729Y007116D02*
X024279Y007116D01*
X024279Y006815D02*
X024729Y007116D01*
X024729Y006815D02*
X024279Y006815D01*
X024279Y006580D02*
X024504Y006355D01*
X024504Y006655D01*
X024729Y006580D02*
X024279Y006580D01*
X024279Y006195D02*
X024354Y006195D01*
X024654Y005895D01*
X024729Y005895D01*
X024729Y005659D02*
X024279Y005659D01*
X024504Y005434D01*
X024504Y005734D01*
X024279Y005895D02*
X024279Y006195D01*
X024279Y005274D02*
X024354Y005274D01*
X024654Y004974D01*
X024729Y004974D01*
X024279Y004974D02*
X024279Y005274D01*
X019314Y004706D02*
X019089Y004556D01*
X019314Y004406D01*
X019089Y004406D02*
X019089Y004856D01*
X018779Y004856D02*
X018629Y004706D01*
X018779Y004856D02*
X018779Y004406D01*
X018629Y004406D02*
X018929Y004406D01*
X013167Y005876D02*
X013167Y006326D01*
X005079Y008326D02*
X005079Y008626D01*
X005079Y008476D02*
X004629Y008476D01*
X004779Y008326D01*
X004629Y008786D02*
X005079Y009086D01*
X004629Y009086D01*
X004854Y009246D02*
X004854Y009547D01*
X005004Y009707D02*
X004704Y009707D01*
X004629Y009782D01*
X004629Y009932D01*
X004704Y010007D01*
X005004Y009707D01*
X005079Y009782D01*
X005079Y009932D01*
X005004Y010007D01*
X004704Y010007D01*
X004704Y010167D02*
X004629Y010242D01*
X004629Y010392D01*
X004704Y010467D01*
X005004Y010167D01*
X005079Y010242D01*
X005079Y010392D01*
X005004Y010467D01*
X004704Y010467D01*
X004854Y010628D02*
X004854Y010928D01*
X005079Y010853D02*
X004629Y010853D01*
X004854Y010628D01*
X005004Y010167D02*
X004704Y010167D01*
X003579Y010086D02*
X003129Y010086D01*
X003354Y010246D02*
X003354Y010547D01*
X003504Y010707D02*
X003204Y011007D01*
X003504Y011007D01*
X003579Y010932D01*
X003579Y010782D01*
X003504Y010707D01*
X003204Y010707D01*
X003129Y010782D01*
X003129Y010932D01*
X003204Y011007D01*
X003204Y011167D02*
X003129Y011242D01*
X003129Y011392D01*
X003204Y011467D01*
X003504Y011167D01*
X003579Y011242D01*
X003579Y011392D01*
X003504Y011467D01*
X003204Y011467D01*
X003354Y011628D02*
X003354Y011928D01*
X003579Y011853D02*
X003129Y011853D01*
X003354Y011628D01*
X003504Y011167D02*
X003204Y011167D01*
X003129Y010472D02*
X003354Y010246D01*
X003579Y010086D02*
X003129Y009786D01*
X003579Y009786D01*
X003579Y009626D02*
X003579Y009326D01*
X003579Y009476D02*
X003129Y009476D01*
X003279Y009326D01*
X004629Y009472D02*
X004854Y009246D01*
X005079Y009472D02*
X004629Y009472D01*
X004629Y008786D02*
X005079Y008786D01*
X003579Y010472D02*
X003129Y010472D01*
D11*
X005504Y002651D02*
X006504Y002651D01*
X006521Y002653D01*
X006538Y002657D01*
X006554Y002664D01*
X006568Y002674D01*
X006581Y002687D01*
X006591Y002701D01*
X006598Y002717D01*
X006602Y002734D01*
X006604Y002751D01*
X006604Y005451D01*
X006602Y005468D01*
X006598Y005485D01*
X006591Y005501D01*
X006581Y005515D01*
X006568Y005528D01*
X006554Y005538D01*
X006538Y005545D01*
X006521Y005549D01*
X006504Y005551D01*
X005504Y005551D01*
X005487Y005549D01*
X005470Y005545D01*
X005454Y005538D01*
X005440Y005528D01*
X005427Y005515D01*
X005417Y005501D01*
X005410Y005485D01*
X005406Y005468D01*
X005404Y005451D01*
X005404Y002751D01*
X005406Y002734D01*
X005410Y002717D01*
X005417Y002701D01*
X005427Y002687D01*
X005440Y002674D01*
X005454Y002664D01*
X005470Y002657D01*
X005487Y002653D01*
X005504Y002651D01*
X004454Y002951D02*
X004454Y003101D01*
X004404Y003151D01*
X004404Y005051D01*
X004454Y005101D01*
X004454Y005251D01*
X004452Y005268D01*
X004448Y005285D01*
X004441Y005301D01*
X004431Y005315D01*
X004418Y005328D01*
X004404Y005338D01*
X004388Y005345D01*
X004371Y005349D01*
X004354Y005351D01*
X003654Y005351D02*
X003637Y005349D01*
X003620Y005345D01*
X003604Y005338D01*
X003590Y005328D01*
X003577Y005315D01*
X003567Y005301D01*
X003560Y005285D01*
X003556Y005268D01*
X003554Y005251D01*
X003554Y005101D01*
X003604Y005051D01*
X003604Y003151D01*
X003554Y003101D01*
X003554Y002951D01*
X003556Y002934D01*
X003560Y002917D01*
X003567Y002901D01*
X003577Y002887D01*
X003590Y002874D01*
X003604Y002864D01*
X003620Y002857D01*
X003637Y002853D01*
X003654Y002851D01*
X004354Y002851D02*
X004371Y002853D01*
X004388Y002857D01*
X004404Y002864D01*
X004418Y002874D01*
X004431Y002887D01*
X004441Y002901D01*
X004448Y002917D01*
X004452Y002934D01*
X004454Y002951D01*
X006004Y003501D02*
X006004Y003971D01*
X006004Y004221D02*
X006004Y004701D01*
X007504Y004701D02*
X007504Y004221D01*
X007504Y003971D02*
X007504Y003501D01*
X008104Y002751D02*
X008102Y002734D01*
X008098Y002717D01*
X008091Y002701D01*
X008081Y002687D01*
X008068Y002674D01*
X008054Y002664D01*
X008038Y002657D01*
X008021Y002653D01*
X008004Y002651D01*
X007004Y002651D01*
X006987Y002653D01*
X006970Y002657D01*
X006954Y002664D01*
X006940Y002674D01*
X006927Y002687D01*
X006917Y002701D01*
X006910Y002717D01*
X006906Y002734D01*
X006904Y002751D01*
X006904Y005451D01*
X006906Y005468D01*
X006910Y005485D01*
X006917Y005501D01*
X006927Y005515D01*
X006940Y005528D01*
X006954Y005538D01*
X006970Y005545D01*
X006987Y005549D01*
X007004Y005551D01*
X008004Y005551D01*
X008021Y005549D01*
X008038Y005545D01*
X008054Y005538D01*
X008068Y005528D01*
X008081Y005515D01*
X008091Y005501D01*
X008098Y005485D01*
X008102Y005468D01*
X008104Y005451D01*
X008104Y002751D01*
X009804Y002751D02*
X009904Y002651D01*
X011054Y002601D01*
X009804Y002751D02*
X009804Y006451D01*
X009904Y006551D01*
X011054Y006601D01*
X012504Y007251D02*
X012504Y004951D01*
X016504Y004951D01*
X016504Y005701D01*
X016465Y005703D01*
X016426Y005709D01*
X016388Y005718D01*
X016351Y005731D01*
X016315Y005748D01*
X016282Y005768D01*
X016250Y005792D01*
X016221Y005818D01*
X016195Y005847D01*
X016171Y005879D01*
X016151Y005912D01*
X016134Y005948D01*
X016121Y005985D01*
X016112Y006023D01*
X016106Y006062D01*
X016104Y006101D01*
X016106Y006140D01*
X016112Y006179D01*
X016121Y006217D01*
X016134Y006254D01*
X016151Y006290D01*
X016171Y006323D01*
X016195Y006355D01*
X016221Y006384D01*
X016250Y006410D01*
X016282Y006434D01*
X016315Y006454D01*
X016351Y006471D01*
X016388Y006484D01*
X016426Y006493D01*
X016465Y006499D01*
X016504Y006501D01*
X016504Y007251D01*
X012504Y007251D01*
X007954Y008451D02*
X007954Y008601D01*
X007904Y008651D01*
X007904Y010551D01*
X007954Y010601D01*
X007954Y010751D01*
X007952Y010768D01*
X007948Y010785D01*
X007941Y010801D01*
X007931Y010815D01*
X007918Y010828D01*
X007904Y010838D01*
X007888Y010845D01*
X007871Y010849D01*
X007854Y010851D01*
X007154Y010851D02*
X007137Y010849D01*
X007120Y010845D01*
X007104Y010838D01*
X007090Y010828D01*
X007077Y010815D01*
X007067Y010801D01*
X007060Y010785D01*
X007056Y010768D01*
X007054Y010751D01*
X007054Y010601D01*
X007104Y010551D01*
X007104Y008651D01*
X007054Y008601D01*
X007054Y008451D01*
X007056Y008434D01*
X007060Y008417D01*
X007067Y008401D01*
X007077Y008387D01*
X007090Y008374D01*
X007104Y008364D01*
X007120Y008357D01*
X007137Y008353D01*
X007154Y008351D01*
X007854Y008351D02*
X007871Y008353D01*
X007888Y008357D01*
X007904Y008364D01*
X007918Y008374D01*
X007931Y008387D01*
X007941Y008401D01*
X007948Y008417D01*
X007952Y008434D01*
X007954Y008451D01*
X005904Y007646D02*
X005904Y007488D01*
X005354Y007426D02*
X005354Y005776D01*
X005904Y005713D02*
X005904Y005556D01*
X005904Y006488D02*
X005904Y006713D01*
X005354Y007426D02*
X005405Y007463D01*
X005458Y007498D01*
X005514Y007530D01*
X005571Y007558D01*
X005630Y007582D01*
X005690Y007603D01*
X005751Y007620D01*
X005813Y007634D01*
X005876Y007643D01*
X005939Y007649D01*
X006003Y007651D01*
X006067Y007649D01*
X006130Y007643D01*
X006193Y007634D01*
X006255Y007621D01*
X006316Y007603D01*
X006376Y007583D01*
X006435Y007558D01*
X006492Y007530D01*
X006548Y007499D01*
X006601Y007465D01*
X006652Y007427D01*
X006701Y007386D01*
X006747Y007342D01*
X006791Y007296D01*
X006832Y007247D01*
X006869Y007196D01*
X006904Y007142D01*
X006935Y007087D01*
X006963Y007030D01*
X006987Y006971D01*
X007007Y006911D01*
X007007Y006291D02*
X006987Y006231D01*
X006963Y006172D01*
X006935Y006115D01*
X006904Y006060D01*
X006869Y006006D01*
X006832Y005955D01*
X006791Y005906D01*
X006747Y005860D01*
X006701Y005816D01*
X006652Y005775D01*
X006601Y005737D01*
X006548Y005703D01*
X006492Y005671D01*
X006435Y005644D01*
X006376Y005619D01*
X006316Y005599D01*
X006255Y005581D01*
X006193Y005568D01*
X006130Y005559D01*
X006067Y005553D01*
X006003Y005551D01*
X005939Y005553D01*
X005876Y005559D01*
X005813Y005568D01*
X005751Y005582D01*
X005690Y005599D01*
X005630Y005620D01*
X005571Y005644D01*
X005514Y005672D01*
X005458Y005704D01*
X005405Y005739D01*
X005354Y005776D01*
X004504Y008301D02*
X003504Y008301D01*
X003504Y009901D01*
X004504Y009901D01*
X004504Y008301D01*
X004004Y008851D02*
X004004Y009101D01*
X004254Y009101D01*
X004004Y009101D02*
X003754Y009101D01*
X004004Y009101D02*
X003754Y009501D01*
X004254Y009501D01*
X004004Y009101D01*
X004004Y009701D01*
X003004Y009301D02*
X002004Y009301D01*
X002004Y010901D01*
X003004Y010901D01*
X003004Y009301D01*
X002504Y009851D02*
X002504Y010101D01*
X002754Y010101D01*
X002504Y010101D02*
X002254Y010101D01*
X002504Y010101D02*
X002254Y010501D01*
X002754Y010501D01*
X002504Y010101D01*
X002504Y010701D01*
X012504Y011751D02*
X012504Y009451D01*
X016504Y009451D01*
X016504Y010201D01*
X016465Y010203D01*
X016426Y010209D01*
X016388Y010218D01*
X016351Y010231D01*
X016315Y010248D01*
X016282Y010268D01*
X016250Y010292D01*
X016221Y010318D01*
X016195Y010347D01*
X016171Y010379D01*
X016151Y010412D01*
X016134Y010448D01*
X016121Y010485D01*
X016112Y010523D01*
X016106Y010562D01*
X016104Y010601D01*
X016106Y010640D01*
X016112Y010679D01*
X016121Y010717D01*
X016134Y010754D01*
X016151Y010790D01*
X016171Y010823D01*
X016195Y010855D01*
X016221Y010884D01*
X016250Y010910D01*
X016282Y010934D01*
X016315Y010954D01*
X016351Y010971D01*
X016388Y010984D01*
X016426Y010993D01*
X016465Y010999D01*
X016504Y011001D01*
X016504Y011751D01*
X012504Y011751D01*
X012654Y013401D02*
X012654Y014601D01*
X012654Y015101D02*
X012654Y016001D01*
X013004Y016001D01*
X013004Y015301D01*
X013204Y015551D02*
X014054Y015551D01*
X014054Y015401D01*
X014004Y015351D01*
X014004Y015751D01*
X014054Y015701D01*
X014054Y015551D01*
X014204Y015551D01*
X014154Y015601D01*
X014104Y015651D01*
X014054Y015701D01*
X014104Y015651D02*
X014104Y015451D01*
X014154Y015501D01*
X014154Y015601D01*
X014204Y015551D02*
X014154Y015501D01*
X014104Y015451D02*
X014054Y015401D01*
X015004Y015301D02*
X015004Y016001D01*
X013004Y016001D01*
X015004Y016001D02*
X015354Y016001D01*
X015354Y015101D01*
X015354Y014601D02*
X015354Y013401D01*
X012654Y013401D01*
X016554Y013451D02*
X016554Y013601D01*
X016604Y013651D01*
X016604Y015551D01*
X016554Y015601D01*
X016554Y015751D01*
X016556Y015768D01*
X016560Y015785D01*
X016567Y015801D01*
X016577Y015815D01*
X016590Y015828D01*
X016604Y015838D01*
X016620Y015845D01*
X016637Y015849D01*
X016654Y015851D01*
X017354Y015851D02*
X017371Y015849D01*
X017388Y015845D01*
X017404Y015838D01*
X017418Y015828D01*
X017431Y015815D01*
X017441Y015801D01*
X017448Y015785D01*
X017452Y015768D01*
X017454Y015751D01*
X017454Y015601D01*
X017404Y015551D01*
X017404Y013651D01*
X017454Y013601D01*
X017454Y013451D01*
X017452Y013434D01*
X017448Y013417D01*
X017441Y013401D01*
X017431Y013387D01*
X017418Y013374D01*
X017404Y013364D01*
X017388Y013357D01*
X017371Y013353D01*
X017354Y013351D01*
X016654Y013351D02*
X016637Y013353D01*
X016620Y013357D01*
X016604Y013364D01*
X016590Y013374D01*
X016577Y013387D01*
X016567Y013401D01*
X016560Y013417D01*
X016556Y013434D01*
X016554Y013451D01*
X018154Y013401D02*
X018154Y014601D01*
X018154Y015101D02*
X018154Y016001D01*
X018504Y016001D01*
X018504Y015301D01*
X018704Y015551D02*
X019554Y015551D01*
X019554Y015401D01*
X019504Y015351D01*
X019504Y015751D01*
X019554Y015701D01*
X019554Y015551D01*
X019704Y015551D01*
X019654Y015601D01*
X019604Y015651D01*
X019554Y015701D01*
X019604Y015651D02*
X019604Y015451D01*
X019654Y015501D01*
X019654Y015601D01*
X019704Y015551D02*
X019654Y015501D01*
X019604Y015451D02*
X019554Y015401D01*
X020504Y015301D02*
X020504Y016001D01*
X018504Y016001D01*
X020504Y016001D02*
X020854Y016001D01*
X020854Y015101D01*
X021554Y015601D02*
X021604Y015551D01*
X021604Y013651D01*
X021554Y013601D01*
X021554Y013451D01*
X021556Y013434D01*
X021560Y013417D01*
X021567Y013401D01*
X021577Y013387D01*
X021590Y013374D01*
X021604Y013364D01*
X021620Y013357D01*
X021637Y013353D01*
X021654Y013351D01*
X022354Y013351D02*
X022371Y013353D01*
X022388Y013357D01*
X022404Y013364D01*
X022418Y013374D01*
X022431Y013387D01*
X022441Y013401D01*
X022448Y013417D01*
X022452Y013434D01*
X022454Y013451D01*
X022454Y013601D01*
X022404Y013651D01*
X022404Y015551D01*
X022454Y015601D01*
X022454Y015751D01*
X022452Y015768D01*
X022448Y015785D01*
X022441Y015801D01*
X022431Y015815D01*
X022418Y015828D01*
X022404Y015838D01*
X022388Y015845D01*
X022371Y015849D01*
X022354Y015851D01*
X021654Y015851D02*
X021637Y015849D01*
X021620Y015845D01*
X021604Y015838D01*
X021590Y015828D01*
X021577Y015815D01*
X021567Y015801D01*
X021560Y015785D01*
X021556Y015768D01*
X021554Y015751D01*
X021554Y015601D01*
X023054Y015601D02*
X023104Y015551D01*
X023104Y013651D01*
X023054Y013601D01*
X023054Y013451D01*
X023056Y013434D01*
X023060Y013417D01*
X023067Y013401D01*
X023077Y013387D01*
X023090Y013374D01*
X023104Y013364D01*
X023120Y013357D01*
X023137Y013353D01*
X023154Y013351D01*
X023854Y013351D02*
X023871Y013353D01*
X023888Y013357D01*
X023904Y013364D01*
X023918Y013374D01*
X023931Y013387D01*
X023941Y013401D01*
X023948Y013417D01*
X023952Y013434D01*
X023954Y013451D01*
X023954Y013601D01*
X023904Y013651D01*
X023904Y015551D01*
X023954Y015601D01*
X023954Y015751D01*
X023952Y015768D01*
X023948Y015785D01*
X023941Y015801D01*
X023931Y015815D01*
X023918Y015828D01*
X023904Y015838D01*
X023888Y015845D01*
X023871Y015849D01*
X023854Y015851D01*
X023154Y015851D02*
X023137Y015849D01*
X023120Y015845D01*
X023104Y015838D01*
X023090Y015828D01*
X023077Y015815D01*
X023067Y015801D01*
X023060Y015785D01*
X023056Y015768D01*
X023054Y015751D01*
X023054Y015601D01*
X020854Y014601D02*
X020854Y013401D01*
X018154Y013401D01*
X018504Y011751D02*
X018504Y009451D01*
X022504Y009451D01*
X022504Y010201D01*
X022465Y010203D01*
X022426Y010209D01*
X022388Y010218D01*
X022351Y010231D01*
X022315Y010248D01*
X022282Y010268D01*
X022250Y010292D01*
X022221Y010318D01*
X022195Y010347D01*
X022171Y010379D01*
X022151Y010412D01*
X022134Y010448D01*
X022121Y010485D01*
X022112Y010523D01*
X022106Y010562D01*
X022104Y010601D01*
X022106Y010640D01*
X022112Y010679D01*
X022121Y010717D01*
X022134Y010754D01*
X022151Y010790D01*
X022171Y010823D01*
X022195Y010855D01*
X022221Y010884D01*
X022250Y010910D01*
X022282Y010934D01*
X022315Y010954D01*
X022351Y010971D01*
X022388Y010984D01*
X022426Y010993D01*
X022465Y010999D01*
X022504Y011001D01*
X022504Y011751D01*
X018504Y011751D01*
X025004Y011751D02*
X025004Y009451D01*
X029004Y009451D01*
X029004Y010201D01*
X028965Y010203D01*
X028926Y010209D01*
X028888Y010218D01*
X028851Y010231D01*
X028815Y010248D01*
X028782Y010268D01*
X028750Y010292D01*
X028721Y010318D01*
X028695Y010347D01*
X028671Y010379D01*
X028651Y010412D01*
X028634Y010448D01*
X028621Y010485D01*
X028612Y010523D01*
X028606Y010562D01*
X028604Y010601D01*
X028606Y010640D01*
X028612Y010679D01*
X028621Y010717D01*
X028634Y010754D01*
X028651Y010790D01*
X028671Y010823D01*
X028695Y010855D01*
X028721Y010884D01*
X028750Y010910D01*
X028782Y010934D01*
X028815Y010954D01*
X028851Y010971D01*
X028888Y010984D01*
X028926Y010993D01*
X028965Y010999D01*
X029004Y011001D01*
X029004Y011751D01*
X025004Y011751D01*
X029504Y011751D02*
X029504Y009451D01*
X033504Y009451D01*
X033504Y010201D01*
X033465Y010203D01*
X033426Y010209D01*
X033388Y010218D01*
X033351Y010231D01*
X033315Y010248D01*
X033282Y010268D01*
X033250Y010292D01*
X033221Y010318D01*
X033195Y010347D01*
X033171Y010379D01*
X033151Y010412D01*
X033134Y010448D01*
X033121Y010485D01*
X033112Y010523D01*
X033106Y010562D01*
X033104Y010601D01*
X033106Y010640D01*
X033112Y010679D01*
X033121Y010717D01*
X033134Y010754D01*
X033151Y010790D01*
X033171Y010823D01*
X033195Y010855D01*
X033221Y010884D01*
X033250Y010910D01*
X033282Y010934D01*
X033315Y010954D01*
X033351Y010971D01*
X033388Y010984D01*
X033426Y010993D01*
X033465Y010999D01*
X033504Y011001D01*
X033504Y011751D01*
X029504Y011751D01*
X037504Y011851D02*
X037504Y012351D01*
X037754Y012601D01*
X039254Y012601D01*
X039504Y012851D01*
X039504Y013351D01*
X039254Y013601D01*
X039504Y013851D01*
X039504Y014351D01*
X039254Y014601D01*
X037754Y014601D01*
X037504Y014351D01*
X037504Y013851D01*
X037754Y013601D01*
X039254Y013601D01*
X037754Y013601D02*
X037504Y013351D01*
X037504Y012851D01*
X037754Y012601D01*
X037504Y011851D02*
X037754Y011601D01*
X039254Y011601D01*
X039504Y011851D01*
X039504Y012351D01*
X039254Y012601D01*
X039254Y011601D02*
X039504Y011351D01*
X039504Y010851D01*
X039254Y010601D01*
X037754Y010601D01*
X037504Y010851D01*
X037504Y011351D01*
X037754Y011601D01*
X037754Y010601D02*
X037504Y010351D01*
X037504Y009851D01*
X037754Y009601D01*
X039254Y009601D01*
X039504Y009851D01*
X039504Y010351D01*
X039254Y010601D01*
X033654Y007551D02*
X033504Y007551D01*
X033454Y007501D01*
X031554Y007501D01*
X031504Y007551D01*
X031354Y007551D01*
X031337Y007549D01*
X031320Y007545D01*
X031304Y007538D01*
X031290Y007528D01*
X031277Y007515D01*
X031267Y007501D01*
X031260Y007485D01*
X031256Y007468D01*
X031254Y007451D01*
X031254Y006751D02*
X031256Y006734D01*
X031260Y006717D01*
X031267Y006701D01*
X031277Y006687D01*
X031290Y006674D01*
X031304Y006664D01*
X031320Y006657D01*
X031337Y006653D01*
X031354Y006651D01*
X031504Y006651D01*
X031554Y006701D01*
X033454Y006701D01*
X033504Y006651D01*
X033654Y006651D01*
X033671Y006653D01*
X033688Y006657D01*
X033704Y006664D01*
X033718Y006674D01*
X033731Y006687D01*
X033741Y006701D01*
X033748Y006717D01*
X033752Y006734D01*
X033754Y006751D01*
X033754Y007451D02*
X033752Y007468D01*
X033748Y007485D01*
X033741Y007501D01*
X033731Y007515D01*
X033718Y007528D01*
X033704Y007538D01*
X033688Y007545D01*
X033671Y007549D01*
X033654Y007551D01*
X029654Y007551D02*
X029504Y007551D01*
X029454Y007501D01*
X027554Y007501D01*
X027504Y007551D01*
X027354Y007551D01*
X027337Y007549D01*
X027320Y007545D01*
X027304Y007538D01*
X027290Y007528D01*
X027277Y007515D01*
X027267Y007501D01*
X027260Y007485D01*
X027256Y007468D01*
X027254Y007451D01*
X027254Y006751D02*
X027256Y006734D01*
X027260Y006717D01*
X027267Y006701D01*
X027277Y006687D01*
X027290Y006674D01*
X027304Y006664D01*
X027320Y006657D01*
X027337Y006653D01*
X027354Y006651D01*
X027504Y006651D01*
X027554Y006701D01*
X029454Y006701D01*
X029504Y006651D01*
X029654Y006651D01*
X029671Y006653D01*
X029688Y006657D01*
X029704Y006664D01*
X029718Y006674D01*
X029731Y006687D01*
X029741Y006701D01*
X029748Y006717D01*
X029752Y006734D01*
X029754Y006751D01*
X029754Y007451D02*
X029752Y007468D01*
X029748Y007485D01*
X029741Y007501D01*
X029731Y007515D01*
X029718Y007528D01*
X029704Y007538D01*
X029688Y007545D01*
X029671Y007549D01*
X029654Y007551D01*
X025654Y008101D02*
X024904Y008101D01*
X024902Y008062D01*
X024896Y008023D01*
X024887Y007985D01*
X024874Y007948D01*
X024857Y007912D01*
X024837Y007879D01*
X024813Y007847D01*
X024787Y007818D01*
X024758Y007792D01*
X024726Y007768D01*
X024693Y007748D01*
X024657Y007731D01*
X024620Y007718D01*
X024582Y007709D01*
X024543Y007703D01*
X024504Y007701D01*
X024465Y007703D01*
X024426Y007709D01*
X024388Y007718D01*
X024351Y007731D01*
X024315Y007748D01*
X024282Y007768D01*
X024250Y007792D01*
X024221Y007818D01*
X024195Y007847D01*
X024171Y007879D01*
X024151Y007912D01*
X024134Y007948D01*
X024121Y007985D01*
X024112Y008023D01*
X024106Y008062D01*
X024104Y008101D01*
X023354Y008101D01*
X023354Y001101D01*
X025654Y001101D01*
X025654Y008101D01*
X027154Y005701D02*
X029854Y005701D01*
X029871Y005699D01*
X029888Y005695D01*
X029904Y005688D01*
X029918Y005678D01*
X029931Y005665D01*
X029941Y005651D01*
X029948Y005635D01*
X029952Y005618D01*
X029954Y005601D01*
X029954Y004601D01*
X029952Y004584D01*
X029948Y004567D01*
X029941Y004551D01*
X029931Y004537D01*
X029918Y004524D01*
X029904Y004514D01*
X029888Y004507D01*
X029871Y004503D01*
X029854Y004501D01*
X027154Y004501D01*
X027137Y004503D01*
X027120Y004507D01*
X027104Y004514D01*
X027090Y004524D01*
X027077Y004537D01*
X027067Y004551D01*
X027060Y004567D01*
X027056Y004584D01*
X027054Y004601D01*
X027054Y005601D01*
X027056Y005618D01*
X027060Y005635D01*
X027067Y005651D01*
X027077Y005665D01*
X027090Y005678D01*
X027104Y005688D01*
X027120Y005695D01*
X027137Y005699D01*
X027154Y005701D01*
X027904Y005101D02*
X028384Y005101D01*
X028634Y005101D02*
X029104Y005101D01*
X030554Y005601D02*
X030554Y004601D01*
X030556Y004584D01*
X030560Y004567D01*
X030567Y004551D01*
X030577Y004537D01*
X030590Y004524D01*
X030604Y004514D01*
X030620Y004507D01*
X030637Y004503D01*
X030654Y004501D01*
X033354Y004501D01*
X033371Y004503D01*
X033388Y004507D01*
X033404Y004514D01*
X033418Y004524D01*
X033431Y004537D01*
X033441Y004551D01*
X033448Y004567D01*
X033452Y004584D01*
X033454Y004601D01*
X033454Y005601D01*
X033452Y005618D01*
X033448Y005635D01*
X033441Y005651D01*
X033431Y005665D01*
X033418Y005678D01*
X033404Y005688D01*
X033388Y005695D01*
X033371Y005699D01*
X033354Y005701D01*
X030654Y005701D01*
X030637Y005699D01*
X030620Y005695D01*
X030604Y005688D01*
X030590Y005678D01*
X030577Y005665D01*
X030567Y005651D01*
X030560Y005635D01*
X030556Y005618D01*
X030554Y005601D01*
X031404Y005101D02*
X031884Y005101D01*
X032134Y005101D02*
X032604Y005101D01*
X020654Y005051D02*
X020504Y005051D01*
X020454Y005001D01*
X018554Y005001D01*
X018504Y005051D01*
X018354Y005051D01*
X018337Y005049D01*
X018320Y005045D01*
X018304Y005038D01*
X018290Y005028D01*
X018277Y005015D01*
X018267Y005001D01*
X018260Y004985D01*
X018256Y004968D01*
X018254Y004951D01*
X018254Y004251D02*
X018256Y004234D01*
X018260Y004217D01*
X018267Y004201D01*
X018277Y004187D01*
X018290Y004174D01*
X018304Y004164D01*
X018320Y004157D01*
X018337Y004153D01*
X018354Y004151D01*
X018504Y004151D01*
X018554Y004201D01*
X020454Y004201D01*
X020504Y004151D01*
X020654Y004151D01*
X020671Y004153D01*
X020688Y004157D01*
X020704Y004164D01*
X020718Y004174D01*
X020731Y004187D01*
X020741Y004201D01*
X020748Y004217D01*
X020752Y004234D01*
X020754Y004251D01*
X020754Y004951D02*
X020752Y004968D01*
X020748Y004985D01*
X020741Y005001D01*
X020731Y005015D01*
X020718Y005028D01*
X020704Y005038D01*
X020688Y005045D01*
X020671Y005049D01*
X020654Y005051D01*
X020304Y005601D02*
X020304Y006601D01*
X018704Y006601D01*
X018704Y005601D01*
X020304Y005601D01*
X019504Y005851D02*
X019504Y006101D01*
X019504Y006351D01*
X019504Y006101D02*
X019104Y006351D01*
X019104Y005851D01*
X019504Y006101D01*
X018904Y006101D01*
X019504Y006101D02*
X019754Y006101D01*
X020304Y007101D02*
X018704Y007101D01*
X018704Y008101D01*
X020304Y008101D01*
X020304Y007101D01*
X019504Y007351D02*
X019504Y007601D01*
X019504Y007851D01*
X019504Y007601D02*
X018904Y007601D01*
X019104Y007851D02*
X019504Y007601D01*
X019104Y007351D01*
X019104Y007851D01*
X019504Y007601D02*
X019754Y007601D01*
D12*
X004004Y008551D03*
X002504Y009551D03*
D13*
X002504Y008926D03*
X004004Y007926D03*
X004004Y010276D03*
X002504Y011276D03*
D14*
X005754Y004221D02*
X006004Y004221D01*
X006254Y004221D01*
X006254Y003971D02*
X006004Y003971D01*
X005754Y003971D01*
X007254Y003971D02*
X007504Y003971D01*
X007754Y003971D01*
X007754Y004221D02*
X007504Y004221D01*
X007254Y004221D01*
X028384Y004851D02*
X028384Y005101D01*
X028384Y005351D01*
X028634Y005351D02*
X028634Y005101D01*
X028634Y004851D01*
X031884Y004851D02*
X031884Y005101D01*
X031884Y005351D01*
X032134Y005351D02*
X032134Y005101D01*
X032134Y004851D01*
D15*
X010044Y006371D03*
D16*
X011354Y004601D03*
D17*
X011104Y006326D03*
X011104Y002876D03*
D18*
X011104Y004101D03*
X011104Y005101D03*
D19*
X020054Y006101D03*
X020054Y007601D03*
D20*
X020679Y007601D03*
X018329Y007601D03*
X018329Y006101D03*
X020679Y006101D03*
D21*
X019854Y016126D03*
X019154Y016126D03*
X014354Y016126D03*
X013654Y016126D03*
D22*
X014004Y016051D03*
X019504Y016051D03*
D23*
X009504Y015951D03*
D24*
X007779Y015701D03*
X011229Y015701D03*
D25*
X010004Y015701D03*
X009004Y015701D03*
D26*
X006118Y015546D02*
X006118Y016312D01*
X001785Y016312D01*
X001785Y012889D01*
X003772Y012889D01*
X005622Y012889D02*
X006118Y012889D01*
X006118Y013656D01*
X007020Y013101D02*
X007022Y013163D01*
X007028Y013226D01*
X007038Y013287D01*
X007052Y013348D01*
X007069Y013408D01*
X007090Y013467D01*
X007116Y013524D01*
X007144Y013579D01*
X007176Y013633D01*
X007212Y013684D01*
X007250Y013734D01*
X007292Y013780D01*
X007336Y013824D01*
X007384Y013865D01*
X007433Y013903D01*
X007485Y013937D01*
X007539Y013968D01*
X007595Y013996D01*
X007653Y014020D01*
X007712Y014041D01*
X007772Y014057D01*
X007833Y014070D01*
X007895Y014079D01*
X007957Y014084D01*
X008020Y014085D01*
X008082Y014082D01*
X008144Y014075D01*
X008206Y014064D01*
X008266Y014049D01*
X008326Y014031D01*
X008384Y014009D01*
X008441Y013983D01*
X008496Y013953D01*
X008549Y013920D01*
X008600Y013884D01*
X008648Y013845D01*
X008694Y013802D01*
X008737Y013757D01*
X008777Y013709D01*
X008814Y013659D01*
X008848Y013606D01*
X008879Y013552D01*
X008905Y013496D01*
X008929Y013438D01*
X008948Y013378D01*
X008964Y013318D01*
X008976Y013256D01*
X008984Y013195D01*
X008988Y013132D01*
X008988Y013070D01*
X008984Y013007D01*
X008976Y012946D01*
X008964Y012884D01*
X008948Y012824D01*
X008929Y012764D01*
X008905Y012706D01*
X008879Y012650D01*
X008848Y012596D01*
X008814Y012543D01*
X008777Y012493D01*
X008737Y012445D01*
X008694Y012400D01*
X008648Y012357D01*
X008600Y012318D01*
X008549Y012282D01*
X008496Y012249D01*
X008441Y012219D01*
X008384Y012193D01*
X008326Y012171D01*
X008266Y012153D01*
X008206Y012138D01*
X008144Y012127D01*
X008082Y012120D01*
X008020Y012117D01*
X007957Y012118D01*
X007895Y012123D01*
X007833Y012132D01*
X007772Y012145D01*
X007712Y012161D01*
X007653Y012182D01*
X007595Y012206D01*
X007539Y012234D01*
X007485Y012265D01*
X007433Y012299D01*
X007384Y012337D01*
X007336Y012378D01*
X007292Y012422D01*
X007250Y012468D01*
X007212Y012518D01*
X007176Y012569D01*
X007144Y012623D01*
X007116Y012678D01*
X007090Y012735D01*
X007069Y012794D01*
X007052Y012854D01*
X007038Y012915D01*
X007028Y012976D01*
X007022Y013039D01*
X007020Y013101D01*
X008258Y012739D02*
X008758Y012739D01*
X009750Y013463D02*
X010250Y013463D01*
X009520Y013101D02*
X009522Y013163D01*
X009528Y013226D01*
X009538Y013287D01*
X009552Y013348D01*
X009569Y013408D01*
X009590Y013467D01*
X009616Y013524D01*
X009644Y013579D01*
X009676Y013633D01*
X009712Y013684D01*
X009750Y013734D01*
X009792Y013780D01*
X009836Y013824D01*
X009884Y013865D01*
X009933Y013903D01*
X009985Y013937D01*
X010039Y013968D01*
X010095Y013996D01*
X010153Y014020D01*
X010212Y014041D01*
X010272Y014057D01*
X010333Y014070D01*
X010395Y014079D01*
X010457Y014084D01*
X010520Y014085D01*
X010582Y014082D01*
X010644Y014075D01*
X010706Y014064D01*
X010766Y014049D01*
X010826Y014031D01*
X010884Y014009D01*
X010941Y013983D01*
X010996Y013953D01*
X011049Y013920D01*
X011100Y013884D01*
X011148Y013845D01*
X011194Y013802D01*
X011237Y013757D01*
X011277Y013709D01*
X011314Y013659D01*
X011348Y013606D01*
X011379Y013552D01*
X011405Y013496D01*
X011429Y013438D01*
X011448Y013378D01*
X011464Y013318D01*
X011476Y013256D01*
X011484Y013195D01*
X011488Y013132D01*
X011488Y013070D01*
X011484Y013007D01*
X011476Y012946D01*
X011464Y012884D01*
X011448Y012824D01*
X011429Y012764D01*
X011405Y012706D01*
X011379Y012650D01*
X011348Y012596D01*
X011314Y012543D01*
X011277Y012493D01*
X011237Y012445D01*
X011194Y012400D01*
X011148Y012357D01*
X011100Y012318D01*
X011049Y012282D01*
X010996Y012249D01*
X010941Y012219D01*
X010884Y012193D01*
X010826Y012171D01*
X010766Y012153D01*
X010706Y012138D01*
X010644Y012127D01*
X010582Y012120D01*
X010520Y012117D01*
X010457Y012118D01*
X010395Y012123D01*
X010333Y012132D01*
X010272Y012145D01*
X010212Y012161D01*
X010153Y012182D01*
X010095Y012206D01*
X010039Y012234D01*
X009985Y012265D01*
X009933Y012299D01*
X009884Y012337D01*
X009836Y012378D01*
X009792Y012422D01*
X009750Y012468D01*
X009712Y012518D01*
X009676Y012569D01*
X009644Y012623D01*
X009616Y012678D01*
X009590Y012735D01*
X009569Y012794D01*
X009552Y012854D01*
X009538Y012915D01*
X009528Y012976D01*
X009522Y013039D01*
X009520Y013101D01*
X010360Y011890D02*
X008648Y011890D01*
X008648Y007311D01*
X010360Y007311D01*
X010360Y011890D01*
X036504Y011851D02*
X036754Y011601D01*
X036504Y011351D01*
X036504Y010851D01*
X036754Y010601D01*
X036504Y010351D01*
X036504Y009851D01*
X036754Y009601D01*
X037254Y009601D01*
X037504Y009851D01*
X037504Y010351D01*
X037254Y010601D01*
X037504Y010851D01*
X037504Y011351D01*
X037254Y011601D01*
X037504Y011851D01*
X037504Y012351D01*
X037254Y012601D01*
X037504Y012851D01*
X037504Y013351D01*
X037254Y013601D01*
X037504Y013851D01*
X037504Y014351D01*
X037254Y014601D01*
X036754Y014601D01*
X036504Y014351D01*
X036504Y013851D01*
X036754Y013601D01*
X036504Y013351D01*
X036504Y012851D01*
X036754Y012601D01*
X036504Y012351D01*
X036504Y011851D01*
D27*
X002159Y013454D02*
X002009Y013454D01*
X002009Y013529D01*
X002034Y013554D01*
X002084Y013554D01*
X002109Y013529D01*
X002109Y013454D01*
X002134Y013601D02*
X002159Y013626D01*
X002159Y013676D01*
X002134Y013701D01*
X002034Y013701D01*
X002009Y013676D01*
X002009Y013626D01*
X002034Y013601D01*
X002134Y013601D01*
X002159Y013749D02*
X002109Y013799D01*
X002159Y013849D01*
X002009Y013849D01*
X002009Y013896D02*
X002159Y013896D01*
X002159Y013996D01*
X002159Y014043D02*
X002009Y014043D01*
X002009Y014118D01*
X002034Y014143D01*
X002084Y014143D01*
X002109Y014118D01*
X002109Y014043D01*
X002109Y014093D02*
X002159Y014143D01*
X002184Y014191D02*
X002184Y014291D01*
X002134Y014338D02*
X002159Y014363D01*
X002159Y014388D01*
X002134Y014413D01*
X002009Y014413D01*
X002009Y014388D02*
X002009Y014438D01*
X002059Y014485D02*
X002009Y014535D01*
X002059Y014585D01*
X002159Y014585D01*
X002134Y014633D02*
X002159Y014658D01*
X002159Y014708D01*
X002134Y014733D01*
X002159Y014780D02*
X002009Y014780D01*
X002034Y014733D02*
X002009Y014708D01*
X002009Y014658D01*
X002034Y014633D01*
X002134Y014633D01*
X002084Y014585D02*
X002084Y014485D01*
X002059Y014485D02*
X002159Y014485D01*
X002109Y014780D02*
X002009Y014880D01*
X002009Y014927D02*
X002009Y015002D01*
X002034Y015027D01*
X002084Y015027D01*
X002109Y015002D01*
X002109Y014927D01*
X002159Y014927D02*
X002009Y014927D01*
X002084Y014805D02*
X002159Y014880D01*
X002159Y015125D02*
X002009Y015125D01*
X002009Y015175D02*
X002009Y015074D01*
X002009Y015222D02*
X002159Y015222D01*
X002084Y015222D02*
X002084Y015322D01*
X002009Y015322D02*
X002159Y015322D01*
X002184Y015369D02*
X002184Y015469D01*
X002159Y015516D02*
X002159Y015617D01*
X002134Y015664D02*
X002159Y015689D01*
X002159Y015739D01*
X002134Y015764D01*
X002034Y015764D01*
X002009Y015739D01*
X002009Y015689D01*
X002034Y015664D01*
X002134Y015664D01*
X002134Y015811D02*
X002159Y015836D01*
X002159Y015886D01*
X002134Y015911D01*
X002159Y015958D02*
X002009Y015958D01*
X002034Y015911D02*
X002009Y015886D01*
X002009Y015836D01*
X002034Y015811D01*
X002134Y015811D01*
X002109Y015958D02*
X002009Y016059D01*
X002084Y015983D02*
X002159Y016059D01*
X002159Y015516D02*
X002009Y015516D01*
X002009Y013996D02*
X002009Y013896D01*
X002084Y013896D02*
X002084Y013946D01*
X002009Y013749D02*
X002159Y013749D01*
D28*
X007590Y014246D02*
X007784Y014246D01*
X007687Y014246D02*
X007687Y014536D01*
X007590Y014439D01*
X007885Y014488D02*
X007885Y014294D01*
X008078Y014488D01*
X008078Y014294D01*
X008030Y014246D01*
X007933Y014246D01*
X007885Y014294D01*
X007885Y014488D02*
X007933Y014536D01*
X008030Y014536D01*
X008078Y014488D01*
X008180Y014439D02*
X008180Y014294D01*
X008228Y014246D01*
X008373Y014246D01*
X008373Y014439D01*
X008474Y014391D02*
X008571Y014391D01*
X008474Y014536D02*
X008668Y014536D01*
X008474Y014536D02*
X008474Y014246D01*
X009866Y011956D02*
X009866Y011666D01*
X009962Y011666D02*
X009769Y011666D01*
X009769Y011859D02*
X009866Y011956D01*
X010064Y011859D02*
X010064Y011714D01*
X010112Y011666D01*
X010257Y011666D01*
X010257Y011859D01*
X010358Y011811D02*
X010455Y011811D01*
X010358Y011956D02*
X010552Y011956D01*
X010358Y011956D02*
X010358Y011666D01*
M02*
