%
M48
M72
T01C0.0236
T02C0.0276
T03C0.0320
T04C0.0400
T05C0.0440
T06C0.1180
T07C0.1260
%
T01
X12004Y2601
X12004Y8351
T02
X11004Y13101
X10004Y13101
X8504Y13101
X7504Y13101
T03
X4004Y2601
X6004Y3101
X7504Y3101
X7504Y5101
X6004Y5101
X4004Y5601
X6004Y6101
X6754Y6601
X6004Y7101
X7504Y8101
X13004Y7601
X14004Y7601
X15004Y7601
X16004Y7601
X16004Y9101
X15004Y9101
X14004Y9101
X13004Y9101
X7504Y11101
X13004Y12101
X14004Y12101
X15004Y12101
X16004Y12101
X17004Y13101
X19004Y12101
X20004Y12101
X21004Y12101
X22004Y12101
X22004Y13101
X23504Y13101
X25504Y12101
X26504Y12101
X27504Y12101
X28504Y12101
X30004Y12101
X31004Y12101
X32004Y12101
X33004Y12101
X33004Y9101
X32004Y9101
X31004Y9101
X30004Y9101
X28504Y9101
X27504Y9101
X26504Y9101
X25504Y9101
X22004Y9101
X21004Y9101
X20004Y9101
X19004Y9101
X23004Y7601
X23004Y6601
X23004Y5601
X23004Y4601
X23004Y3601
X21004Y4601
X18004Y4601
X16004Y4601
X15004Y4601
X14004Y4601
X13004Y4601
X23004Y2601
X23004Y1601
X26004Y1601
X26004Y2601
X26004Y3601
X26004Y4601
X27504Y5101
X26004Y5601
X26004Y6601
X27004Y7101
X26004Y7601
X30004Y7101
X31004Y7101
X34004Y7101
X33004Y5101
X31004Y5101
X29504Y5101
X20504Y14851
X19504Y14851
X18504Y14851
X17004Y16101
X15004Y14851
X14004Y14851
X13004Y14851
X22004Y16101
X23504Y16101
T04
X10504Y15101
X9504Y15101
X8504Y15101
X9504Y10601
X9504Y9601
X9504Y8601
X10504Y5601
X10504Y4601
X10504Y3601
X37004Y10101
X38004Y10101
X39004Y10101
X39004Y11101
X38004Y11101
X37004Y11101
X37004Y12101
X38004Y12101
X39004Y12101
X39004Y13101
X38004Y13101
X37004Y13101
X37004Y14101
X38004Y14101
X39004Y14101
T05
X21504Y7601
X21504Y6101
X17504Y6101
X17504Y7601
X4004Y7101
X2504Y8101
X4004Y11101
X2504Y12101
T06
X4717Y13100
X3105Y14591
T07
X5968Y14601
M30
