G75*
G70*
%OFA0B0*%
%FSLAX24Y24*%
%IPPOS*%
%LPD*%
%AMOC8*
5,1,8,0,0,1.08239X$1,22.5*
%
%ADD10C,0.0000*%
D10*
X000101Y000101D02*
X000101Y022597D01*
X036471Y022597D01*
X036471Y000101D01*
X000101Y000101D01*
X001286Y002101D02*
X001288Y002136D01*
X001294Y002171D01*
X001304Y002205D01*
X001317Y002238D01*
X001334Y002269D01*
X001355Y002297D01*
X001378Y002324D01*
X001405Y002347D01*
X001433Y002368D01*
X001464Y002385D01*
X001497Y002398D01*
X001531Y002408D01*
X001566Y002414D01*
X001601Y002416D01*
X001636Y002414D01*
X001671Y002408D01*
X001705Y002398D01*
X001738Y002385D01*
X001769Y002368D01*
X001797Y002347D01*
X001824Y002324D01*
X001847Y002297D01*
X001868Y002269D01*
X001885Y002238D01*
X001898Y002205D01*
X001908Y002171D01*
X001914Y002136D01*
X001916Y002101D01*
X001914Y002066D01*
X001908Y002031D01*
X001898Y001997D01*
X001885Y001964D01*
X001868Y001933D01*
X001847Y001905D01*
X001824Y001878D01*
X001797Y001855D01*
X001769Y001834D01*
X001738Y001817D01*
X001705Y001804D01*
X001671Y001794D01*
X001636Y001788D01*
X001601Y001786D01*
X001566Y001788D01*
X001531Y001794D01*
X001497Y001804D01*
X001464Y001817D01*
X001433Y001834D01*
X001405Y001855D01*
X001378Y001878D01*
X001355Y001905D01*
X001334Y001933D01*
X001317Y001964D01*
X001304Y001997D01*
X001294Y002031D01*
X001288Y002066D01*
X001286Y002101D01*
X001286Y003101D02*
X001288Y003136D01*
X001294Y003171D01*
X001304Y003205D01*
X001317Y003238D01*
X001334Y003269D01*
X001355Y003297D01*
X001378Y003324D01*
X001405Y003347D01*
X001433Y003368D01*
X001464Y003385D01*
X001497Y003398D01*
X001531Y003408D01*
X001566Y003414D01*
X001601Y003416D01*
X001636Y003414D01*
X001671Y003408D01*
X001705Y003398D01*
X001738Y003385D01*
X001769Y003368D01*
X001797Y003347D01*
X001824Y003324D01*
X001847Y003297D01*
X001868Y003269D01*
X001885Y003238D01*
X001898Y003205D01*
X001908Y003171D01*
X001914Y003136D01*
X001916Y003101D01*
X001914Y003066D01*
X001908Y003031D01*
X001898Y002997D01*
X001885Y002964D01*
X001868Y002933D01*
X001847Y002905D01*
X001824Y002878D01*
X001797Y002855D01*
X001769Y002834D01*
X001738Y002817D01*
X001705Y002804D01*
X001671Y002794D01*
X001636Y002788D01*
X001601Y002786D01*
X001566Y002788D01*
X001531Y002794D01*
X001497Y002804D01*
X001464Y002817D01*
X001433Y002834D01*
X001405Y002855D01*
X001378Y002878D01*
X001355Y002905D01*
X001334Y002933D01*
X001317Y002964D01*
X001304Y002997D01*
X001294Y003031D01*
X001288Y003066D01*
X001286Y003101D01*
M02*
