G75*
G70*
%OFA0B0*%
%FSLAX24Y24*%
%IPPOS*%
%LPD*%
%AMOC8*
5,1,8,0,0,1.08239X$1,22.5*
%
%ADD10C,0.0710*%
%ADD11C,0.0680*%
%ADD12OC8,0.0680*%
%ADD13C,0.0600*%
%ADD14C,0.0680*%
%ADD15R,0.0674X0.0674*%
%ADD16OC8,0.1261*%
%ADD17OC8,0.0600*%
%ADD18C,0.0480*%
D10*
X001601Y002101D03*
X001601Y003101D03*
D11*
X001601Y005101D03*
X001601Y006101D03*
X001601Y007101D03*
X001601Y008101D03*
X001601Y009101D03*
X001601Y010101D03*
X019321Y009711D03*
X021881Y009711D03*
X023321Y009711D03*
X023321Y007991D03*
X025881Y007991D03*
X025881Y009711D03*
X027321Y009711D03*
X029881Y009711D03*
X029881Y011491D03*
X027321Y011491D03*
X025881Y011491D03*
X023321Y011491D03*
X021881Y011491D03*
X019321Y011491D03*
X023321Y013211D03*
X025881Y013211D03*
X025881Y014991D03*
X023321Y014991D03*
X023321Y006211D03*
X025881Y006211D03*
X025821Y003991D03*
X023381Y003991D03*
X020821Y003991D03*
X020821Y002211D03*
X023381Y002211D03*
X025821Y002211D03*
X028381Y002211D03*
X028381Y003991D03*
D12*
X018001Y010501D03*
X017001Y010501D03*
X017001Y011501D03*
X018001Y011501D03*
X018001Y012501D03*
X017001Y012501D03*
D13*
X017101Y007861D02*
X017101Y007341D01*
X016101Y007341D02*
X016101Y007861D01*
X015101Y007861D02*
X015101Y007341D01*
X014101Y007341D02*
X014101Y007861D01*
X013101Y007861D02*
X013101Y007341D01*
X012101Y007341D02*
X012101Y007861D01*
X011101Y007861D02*
X011101Y007341D01*
X010101Y007341D02*
X010101Y007861D01*
X009101Y007861D02*
X009101Y007341D01*
X008101Y007341D02*
X008101Y007861D01*
X007101Y007861D02*
X007101Y007341D01*
X006101Y007341D02*
X006101Y007861D01*
X005101Y007861D02*
X005101Y007341D01*
X004101Y007341D02*
X004101Y007861D01*
X004101Y004861D02*
X004101Y004341D01*
X005101Y004341D02*
X005101Y004861D01*
X006101Y004861D02*
X006101Y004341D01*
X007101Y004341D02*
X007101Y004861D01*
X008101Y004861D02*
X008101Y004341D01*
X009101Y004341D02*
X009101Y004861D01*
X010101Y004861D02*
X010101Y004341D01*
X011101Y004341D02*
X011101Y004861D01*
X012101Y004861D02*
X012101Y004341D01*
X013101Y004341D02*
X013101Y004861D01*
X014101Y004861D02*
X014101Y004341D01*
X015101Y004341D02*
X015101Y004861D01*
X016101Y004861D02*
X016101Y004341D01*
X017101Y004341D02*
X017101Y004861D01*
X030101Y014341D02*
X030101Y014861D01*
X031101Y014861D02*
X031101Y014341D01*
X032101Y014341D02*
X032101Y014861D01*
X033101Y014861D02*
X033101Y014341D01*
X034101Y014341D02*
X034101Y014861D01*
X034101Y020341D02*
X034101Y020861D01*
X033101Y020861D02*
X033101Y020341D01*
X032101Y020341D02*
X032101Y020861D01*
X031101Y020861D02*
X031101Y020341D01*
X030101Y020341D02*
X030101Y020861D01*
D14*
X017101Y020801D02*
X017101Y021401D01*
X016101Y021401D02*
X016101Y020801D01*
X015101Y020801D02*
X015101Y021401D01*
X014101Y021401D02*
X014101Y020801D01*
X013101Y020801D02*
X013101Y021401D01*
X012101Y021401D02*
X012101Y020801D01*
X011101Y020801D02*
X011101Y021401D01*
X010101Y021401D02*
X010101Y020801D01*
X008501Y020801D02*
X008501Y021401D01*
X007501Y021401D02*
X007501Y020801D01*
X006501Y020801D02*
X006501Y021401D01*
X005501Y021401D02*
X005501Y020801D01*
X004501Y020801D02*
X004501Y021401D01*
X003501Y021401D02*
X003501Y020801D01*
X002501Y020801D02*
X002501Y021401D01*
X001501Y021401D02*
X001501Y020801D01*
X001301Y018101D02*
X001901Y018101D01*
X001901Y017101D02*
X001301Y017101D01*
X001301Y016101D02*
X001901Y016101D01*
X001901Y015101D02*
X001301Y015101D01*
X001301Y014101D02*
X001901Y014101D01*
X001901Y013101D02*
X001301Y013101D01*
X002801Y003101D02*
X003401Y003101D01*
X003401Y002101D02*
X002801Y002101D01*
X005601Y001801D02*
X005601Y002401D01*
X006601Y002401D02*
X006601Y001801D01*
X007601Y001801D02*
X007601Y002401D01*
X008601Y002401D02*
X008601Y001801D01*
X009601Y001801D02*
X009601Y002401D01*
X010601Y002401D02*
X010601Y001801D01*
X012101Y001801D02*
X012101Y002401D01*
X013101Y002401D02*
X013101Y001801D01*
X014101Y001801D02*
X014101Y002401D01*
X015101Y002401D02*
X015101Y001801D01*
X016101Y001801D02*
X016101Y002401D01*
X017101Y002401D02*
X017101Y001801D01*
D15*
X032117Y001845D03*
X033101Y001845D03*
X034085Y001845D03*
D16*
X034833Y004601D03*
X031369Y004601D03*
D17*
X022601Y017601D03*
X022601Y018601D03*
X022601Y019601D03*
X022601Y020601D03*
X024601Y020101D03*
X024601Y019101D03*
X024601Y018101D03*
X028601Y018101D03*
X028601Y019101D03*
X028601Y020101D03*
X018601Y019601D03*
X018601Y020601D03*
X018601Y018601D03*
X018601Y017601D03*
D18*
X012101Y017101D03*
X010101Y019601D03*
X009351Y021351D03*
X004101Y016601D03*
X006101Y016101D03*
X007101Y014101D03*
X005601Y013101D03*
X004601Y012351D03*
X003601Y011101D03*
X003601Y009101D03*
X003601Y008351D03*
X008601Y011601D03*
X015101Y011101D03*
X018601Y006601D03*
M02*
