G75*
G70*
%OFA0B0*%
%FSLAX24Y24*%
%IPPOS*%
%LPD*%
%AMOC8*
5,1,8,0,0,1.08239X$1,22.5*
%
%ADD10C,0.0080*%
%ADD11C,0.0040*%
%ADD12C,0.0020*%
%ADD13C,0.0060*%
%ADD14C,0.0050*%
%ADD15C,0.0100*%
%ADD16C,0.0300*%
%ADD17C,0.0400*%
%ADD18R,0.0250X0.0200*%
%ADD19R,0.0200X0.0200*%
%ADD20R,0.0150X0.0200*%
%ADD21R,0.0150X0.0100*%
%ADD22C,0.0200*%
%ADD23C,0.0260*%
%ADD24C,0.0160*%
%ADD25R,0.0200X0.0100*%
%ADD26R,0.0340X0.0240*%
D10*
X001351Y004601D02*
X001851Y004601D01*
X002101Y004851D01*
X002101Y005351D01*
X001851Y005601D01*
X002101Y005851D01*
X002101Y006351D01*
X001851Y006601D01*
X002101Y006851D01*
X002101Y007351D01*
X001851Y007601D01*
X002101Y007851D01*
X002101Y008351D01*
X001851Y008601D01*
X002101Y008851D01*
X002101Y009351D01*
X001851Y009601D01*
X002101Y009851D01*
X002101Y010351D01*
X001851Y010601D01*
X001351Y010601D01*
X001101Y010351D01*
X001101Y009851D01*
X001351Y009601D01*
X001101Y009351D01*
X001101Y008851D01*
X001351Y008601D01*
X001101Y008351D01*
X001101Y007851D01*
X001351Y007601D01*
X001101Y007351D01*
X001101Y006851D01*
X001351Y006601D01*
X001101Y006351D01*
X001101Y005851D01*
X001351Y005601D01*
X001101Y005351D01*
X001101Y004851D01*
X001351Y004601D01*
X003601Y005101D02*
X017601Y005101D01*
X017601Y005601D01*
X017557Y005603D01*
X017514Y005609D01*
X017472Y005618D01*
X017430Y005631D01*
X017390Y005648D01*
X017351Y005668D01*
X017314Y005691D01*
X017280Y005718D01*
X017247Y005747D01*
X017218Y005780D01*
X017191Y005814D01*
X017168Y005851D01*
X017148Y005890D01*
X017131Y005930D01*
X017118Y005972D01*
X017109Y006014D01*
X017103Y006057D01*
X017101Y006101D01*
X017103Y006145D01*
X017109Y006188D01*
X017118Y006230D01*
X017131Y006272D01*
X017148Y006312D01*
X017168Y006351D01*
X017191Y006388D01*
X017218Y006422D01*
X017247Y006455D01*
X017280Y006484D01*
X017314Y006511D01*
X017351Y006534D01*
X017390Y006554D01*
X017430Y006571D01*
X017472Y006584D01*
X017514Y006593D01*
X017557Y006599D01*
X017601Y006601D01*
X017601Y007101D01*
X003601Y007101D01*
X003601Y005101D01*
X016369Y012251D02*
X016369Y012751D01*
X016501Y012751D02*
X016751Y013001D01*
X018251Y013001D01*
X018501Y012751D01*
X018501Y012251D01*
X018251Y012001D01*
X016751Y012001D01*
X016501Y011751D01*
X016501Y011251D01*
X016751Y011001D01*
X018251Y011001D01*
X018501Y010751D01*
X018501Y010251D01*
X018251Y010001D01*
X016751Y010001D01*
X016501Y010251D01*
X016501Y010751D01*
X016751Y011001D01*
X016751Y012001D02*
X016501Y012251D01*
X016501Y012751D01*
X018251Y012001D02*
X018501Y011751D01*
X018501Y011251D01*
X018251Y011001D01*
X019401Y011006D02*
X019401Y010201D01*
X019751Y009401D02*
X021451Y009401D01*
X021801Y010201D02*
X021801Y010994D01*
X021451Y011801D02*
X019751Y011801D01*
X019901Y010601D02*
X019903Y010653D01*
X019909Y010705D01*
X019919Y010757D01*
X019932Y010807D01*
X019949Y010857D01*
X019970Y010905D01*
X019995Y010951D01*
X020023Y010995D01*
X020054Y011037D01*
X020088Y011077D01*
X020125Y011114D01*
X020165Y011148D01*
X020207Y011179D01*
X020251Y011207D01*
X020297Y011232D01*
X020345Y011253D01*
X020395Y011270D01*
X020445Y011283D01*
X020497Y011293D01*
X020549Y011299D01*
X020601Y011301D01*
X020653Y011299D01*
X020705Y011293D01*
X020757Y011283D01*
X020807Y011270D01*
X020857Y011253D01*
X020905Y011232D01*
X020951Y011207D01*
X020995Y011179D01*
X021037Y011148D01*
X021077Y011114D01*
X021114Y011077D01*
X021148Y011037D01*
X021179Y010995D01*
X021207Y010951D01*
X021232Y010905D01*
X021253Y010857D01*
X021270Y010807D01*
X021283Y010757D01*
X021293Y010705D01*
X021299Y010653D01*
X021301Y010601D01*
X021299Y010549D01*
X021293Y010497D01*
X021283Y010445D01*
X021270Y010395D01*
X021253Y010345D01*
X021232Y010297D01*
X021207Y010251D01*
X021179Y010207D01*
X021148Y010165D01*
X021114Y010125D01*
X021077Y010088D01*
X021037Y010054D01*
X020995Y010023D01*
X020951Y009995D01*
X020905Y009970D01*
X020857Y009949D01*
X020807Y009932D01*
X020757Y009919D01*
X020705Y009909D01*
X020653Y009903D01*
X020601Y009901D01*
X020549Y009903D01*
X020497Y009909D01*
X020445Y009919D01*
X020395Y009932D01*
X020345Y009949D01*
X020297Y009970D01*
X020251Y009995D01*
X020207Y010023D01*
X020165Y010054D01*
X020125Y010088D01*
X020088Y010125D01*
X020054Y010165D01*
X020023Y010207D01*
X019995Y010251D01*
X019970Y010297D01*
X019949Y010345D01*
X019932Y010395D01*
X019919Y010445D01*
X019909Y010497D01*
X019903Y010549D01*
X019901Y010601D01*
X023401Y010201D02*
X023401Y011006D01*
X023751Y011801D02*
X025451Y011801D01*
X025801Y010994D02*
X025801Y010201D01*
X025451Y009401D02*
X023751Y009401D01*
X023751Y008301D02*
X025451Y008301D01*
X025801Y007494D02*
X025801Y006701D01*
X023901Y007101D02*
X023903Y007153D01*
X023909Y007205D01*
X023919Y007257D01*
X023932Y007307D01*
X023949Y007357D01*
X023970Y007405D01*
X023995Y007451D01*
X024023Y007495D01*
X024054Y007537D01*
X024088Y007577D01*
X024125Y007614D01*
X024165Y007648D01*
X024207Y007679D01*
X024251Y007707D01*
X024297Y007732D01*
X024345Y007753D01*
X024395Y007770D01*
X024445Y007783D01*
X024497Y007793D01*
X024549Y007799D01*
X024601Y007801D01*
X024653Y007799D01*
X024705Y007793D01*
X024757Y007783D01*
X024807Y007770D01*
X024857Y007753D01*
X024905Y007732D01*
X024951Y007707D01*
X024995Y007679D01*
X025037Y007648D01*
X025077Y007614D01*
X025114Y007577D01*
X025148Y007537D01*
X025179Y007495D01*
X025207Y007451D01*
X025232Y007405D01*
X025253Y007357D01*
X025270Y007307D01*
X025283Y007257D01*
X025293Y007205D01*
X025299Y007153D01*
X025301Y007101D01*
X025299Y007049D01*
X025293Y006997D01*
X025283Y006945D01*
X025270Y006895D01*
X025253Y006845D01*
X025232Y006797D01*
X025207Y006751D01*
X025179Y006707D01*
X025148Y006665D01*
X025114Y006625D01*
X025077Y006588D01*
X025037Y006554D01*
X024995Y006523D01*
X024951Y006495D01*
X024905Y006470D01*
X024857Y006449D01*
X024807Y006432D01*
X024757Y006419D01*
X024705Y006409D01*
X024653Y006403D01*
X024601Y006401D01*
X024549Y006403D01*
X024497Y006409D01*
X024445Y006419D01*
X024395Y006432D01*
X024345Y006449D01*
X024297Y006470D01*
X024251Y006495D01*
X024207Y006523D01*
X024165Y006554D01*
X024125Y006588D01*
X024088Y006625D01*
X024054Y006665D01*
X024023Y006707D01*
X023995Y006751D01*
X023970Y006797D01*
X023949Y006845D01*
X023932Y006895D01*
X023919Y006945D01*
X023909Y006997D01*
X023903Y007049D01*
X023901Y007101D01*
X023401Y006701D02*
X023401Y007506D01*
X023751Y005901D02*
X025451Y005901D01*
X026251Y004301D02*
X027951Y004301D01*
X028301Y003494D02*
X028301Y002701D01*
X027951Y001901D02*
X026251Y001901D01*
X025901Y002701D02*
X025901Y003506D01*
X026401Y003101D02*
X026403Y003153D01*
X026409Y003205D01*
X026419Y003257D01*
X026432Y003307D01*
X026449Y003357D01*
X026470Y003405D01*
X026495Y003451D01*
X026523Y003495D01*
X026554Y003537D01*
X026588Y003577D01*
X026625Y003614D01*
X026665Y003648D01*
X026707Y003679D01*
X026751Y003707D01*
X026797Y003732D01*
X026845Y003753D01*
X026895Y003770D01*
X026945Y003783D01*
X026997Y003793D01*
X027049Y003799D01*
X027101Y003801D01*
X027153Y003799D01*
X027205Y003793D01*
X027257Y003783D01*
X027307Y003770D01*
X027357Y003753D01*
X027405Y003732D01*
X027451Y003707D01*
X027495Y003679D01*
X027537Y003648D01*
X027577Y003614D01*
X027614Y003577D01*
X027648Y003537D01*
X027679Y003495D01*
X027707Y003451D01*
X027732Y003405D01*
X027753Y003357D01*
X027770Y003307D01*
X027783Y003257D01*
X027793Y003205D01*
X027799Y003153D01*
X027801Y003101D01*
X027799Y003049D01*
X027793Y002997D01*
X027783Y002945D01*
X027770Y002895D01*
X027753Y002845D01*
X027732Y002797D01*
X027707Y002751D01*
X027679Y002707D01*
X027648Y002665D01*
X027614Y002625D01*
X027577Y002588D01*
X027537Y002554D01*
X027495Y002523D01*
X027451Y002495D01*
X027405Y002470D01*
X027357Y002449D01*
X027307Y002432D01*
X027257Y002419D01*
X027205Y002409D01*
X027153Y002403D01*
X027101Y002401D01*
X027049Y002403D01*
X026997Y002409D01*
X026945Y002419D01*
X026895Y002432D01*
X026845Y002449D01*
X026797Y002470D01*
X026751Y002495D01*
X026707Y002523D01*
X026665Y002554D01*
X026625Y002588D01*
X026588Y002625D01*
X026554Y002665D01*
X026523Y002707D01*
X026495Y002751D01*
X026470Y002797D01*
X026449Y002845D01*
X026432Y002895D01*
X026419Y002945D01*
X026409Y002997D01*
X026403Y003049D01*
X026401Y003101D01*
X023301Y003494D02*
X023301Y002701D01*
X022951Y001901D02*
X021251Y001901D01*
X020901Y002701D02*
X020901Y003506D01*
X021251Y004301D02*
X022951Y004301D01*
X021401Y003101D02*
X021403Y003153D01*
X021409Y003205D01*
X021419Y003257D01*
X021432Y003307D01*
X021449Y003357D01*
X021470Y003405D01*
X021495Y003451D01*
X021523Y003495D01*
X021554Y003537D01*
X021588Y003577D01*
X021625Y003614D01*
X021665Y003648D01*
X021707Y003679D01*
X021751Y003707D01*
X021797Y003732D01*
X021845Y003753D01*
X021895Y003770D01*
X021945Y003783D01*
X021997Y003793D01*
X022049Y003799D01*
X022101Y003801D01*
X022153Y003799D01*
X022205Y003793D01*
X022257Y003783D01*
X022307Y003770D01*
X022357Y003753D01*
X022405Y003732D01*
X022451Y003707D01*
X022495Y003679D01*
X022537Y003648D01*
X022577Y003614D01*
X022614Y003577D01*
X022648Y003537D01*
X022679Y003495D01*
X022707Y003451D01*
X022732Y003405D01*
X022753Y003357D01*
X022770Y003307D01*
X022783Y003257D01*
X022793Y003205D01*
X022799Y003153D01*
X022801Y003101D01*
X022799Y003049D01*
X022793Y002997D01*
X022783Y002945D01*
X022770Y002895D01*
X022753Y002845D01*
X022732Y002797D01*
X022707Y002751D01*
X022679Y002707D01*
X022648Y002665D01*
X022614Y002625D01*
X022577Y002588D01*
X022537Y002554D01*
X022495Y002523D01*
X022451Y002495D01*
X022405Y002470D01*
X022357Y002449D01*
X022307Y002432D01*
X022257Y002419D01*
X022205Y002409D01*
X022153Y002403D01*
X022101Y002401D01*
X022049Y002403D01*
X021997Y002409D01*
X021945Y002419D01*
X021895Y002432D01*
X021845Y002449D01*
X021797Y002470D01*
X021751Y002495D01*
X021707Y002523D01*
X021665Y002554D01*
X021625Y002588D01*
X021588Y002625D01*
X021554Y002665D01*
X021523Y002707D01*
X021495Y002751D01*
X021470Y002797D01*
X021449Y002845D01*
X021432Y002895D01*
X021419Y002945D01*
X021409Y002997D01*
X021403Y003049D01*
X021401Y003101D01*
X027751Y009401D02*
X029451Y009401D01*
X029801Y010201D02*
X029801Y010994D01*
X029451Y011801D02*
X027751Y011801D01*
X027401Y011006D02*
X027401Y010201D01*
X027901Y010601D02*
X027903Y010653D01*
X027909Y010705D01*
X027919Y010757D01*
X027932Y010807D01*
X027949Y010857D01*
X027970Y010905D01*
X027995Y010951D01*
X028023Y010995D01*
X028054Y011037D01*
X028088Y011077D01*
X028125Y011114D01*
X028165Y011148D01*
X028207Y011179D01*
X028251Y011207D01*
X028297Y011232D01*
X028345Y011253D01*
X028395Y011270D01*
X028445Y011283D01*
X028497Y011293D01*
X028549Y011299D01*
X028601Y011301D01*
X028653Y011299D01*
X028705Y011293D01*
X028757Y011283D01*
X028807Y011270D01*
X028857Y011253D01*
X028905Y011232D01*
X028951Y011207D01*
X028995Y011179D01*
X029037Y011148D01*
X029077Y011114D01*
X029114Y011077D01*
X029148Y011037D01*
X029179Y010995D01*
X029207Y010951D01*
X029232Y010905D01*
X029253Y010857D01*
X029270Y010807D01*
X029283Y010757D01*
X029293Y010705D01*
X029299Y010653D01*
X029301Y010601D01*
X029299Y010549D01*
X029293Y010497D01*
X029283Y010445D01*
X029270Y010395D01*
X029253Y010345D01*
X029232Y010297D01*
X029207Y010251D01*
X029179Y010207D01*
X029148Y010165D01*
X029114Y010125D01*
X029077Y010088D01*
X029037Y010054D01*
X028995Y010023D01*
X028951Y009995D01*
X028905Y009970D01*
X028857Y009949D01*
X028807Y009932D01*
X028757Y009919D01*
X028705Y009909D01*
X028653Y009903D01*
X028601Y009901D01*
X028549Y009903D01*
X028497Y009909D01*
X028445Y009919D01*
X028395Y009932D01*
X028345Y009949D01*
X028297Y009970D01*
X028251Y009995D01*
X028207Y010023D01*
X028165Y010054D01*
X028125Y010088D01*
X028088Y010125D01*
X028054Y010165D01*
X028023Y010207D01*
X027995Y010251D01*
X027970Y010297D01*
X027949Y010345D01*
X027932Y010395D01*
X027919Y010445D01*
X027909Y010497D01*
X027903Y010549D01*
X027901Y010601D01*
X023901Y010601D02*
X023903Y010653D01*
X023909Y010705D01*
X023919Y010757D01*
X023932Y010807D01*
X023949Y010857D01*
X023970Y010905D01*
X023995Y010951D01*
X024023Y010995D01*
X024054Y011037D01*
X024088Y011077D01*
X024125Y011114D01*
X024165Y011148D01*
X024207Y011179D01*
X024251Y011207D01*
X024297Y011232D01*
X024345Y011253D01*
X024395Y011270D01*
X024445Y011283D01*
X024497Y011293D01*
X024549Y011299D01*
X024601Y011301D01*
X024653Y011299D01*
X024705Y011293D01*
X024757Y011283D01*
X024807Y011270D01*
X024857Y011253D01*
X024905Y011232D01*
X024951Y011207D01*
X024995Y011179D01*
X025037Y011148D01*
X025077Y011114D01*
X025114Y011077D01*
X025148Y011037D01*
X025179Y010995D01*
X025207Y010951D01*
X025232Y010905D01*
X025253Y010857D01*
X025270Y010807D01*
X025283Y010757D01*
X025293Y010705D01*
X025299Y010653D01*
X025301Y010601D01*
X025299Y010549D01*
X025293Y010497D01*
X025283Y010445D01*
X025270Y010395D01*
X025253Y010345D01*
X025232Y010297D01*
X025207Y010251D01*
X025179Y010207D01*
X025148Y010165D01*
X025114Y010125D01*
X025077Y010088D01*
X025037Y010054D01*
X024995Y010023D01*
X024951Y009995D01*
X024905Y009970D01*
X024857Y009949D01*
X024807Y009932D01*
X024757Y009919D01*
X024705Y009909D01*
X024653Y009903D01*
X024601Y009901D01*
X024549Y009903D01*
X024497Y009909D01*
X024445Y009919D01*
X024395Y009932D01*
X024345Y009949D01*
X024297Y009970D01*
X024251Y009995D01*
X024207Y010023D01*
X024165Y010054D01*
X024125Y010088D01*
X024088Y010125D01*
X024054Y010165D01*
X024023Y010207D01*
X023995Y010251D01*
X023970Y010297D01*
X023949Y010345D01*
X023932Y010395D01*
X023919Y010445D01*
X023909Y010497D01*
X023903Y010549D01*
X023901Y010601D01*
X023751Y012901D02*
X025451Y012901D01*
X025801Y013701D02*
X025801Y014494D01*
X023901Y014101D02*
X023903Y014153D01*
X023909Y014205D01*
X023919Y014257D01*
X023932Y014307D01*
X023949Y014357D01*
X023970Y014405D01*
X023995Y014451D01*
X024023Y014495D01*
X024054Y014537D01*
X024088Y014577D01*
X024125Y014614D01*
X024165Y014648D01*
X024207Y014679D01*
X024251Y014707D01*
X024297Y014732D01*
X024345Y014753D01*
X024395Y014770D01*
X024445Y014783D01*
X024497Y014793D01*
X024549Y014799D01*
X024601Y014801D01*
X024653Y014799D01*
X024705Y014793D01*
X024757Y014783D01*
X024807Y014770D01*
X024857Y014753D01*
X024905Y014732D01*
X024951Y014707D01*
X024995Y014679D01*
X025037Y014648D01*
X025077Y014614D01*
X025114Y014577D01*
X025148Y014537D01*
X025179Y014495D01*
X025207Y014451D01*
X025232Y014405D01*
X025253Y014357D01*
X025270Y014307D01*
X025283Y014257D01*
X025293Y014205D01*
X025299Y014153D01*
X025301Y014101D01*
X025299Y014049D01*
X025293Y013997D01*
X025283Y013945D01*
X025270Y013895D01*
X025253Y013845D01*
X025232Y013797D01*
X025207Y013751D01*
X025179Y013707D01*
X025148Y013665D01*
X025114Y013625D01*
X025077Y013588D01*
X025037Y013554D01*
X024995Y013523D01*
X024951Y013495D01*
X024905Y013470D01*
X024857Y013449D01*
X024807Y013432D01*
X024757Y013419D01*
X024705Y013409D01*
X024653Y013403D01*
X024601Y013401D01*
X024549Y013403D01*
X024497Y013409D01*
X024445Y013419D01*
X024395Y013432D01*
X024345Y013449D01*
X024297Y013470D01*
X024251Y013495D01*
X024207Y013523D01*
X024165Y013554D01*
X024125Y013588D01*
X024088Y013625D01*
X024054Y013665D01*
X024023Y013707D01*
X023995Y013751D01*
X023970Y013797D01*
X023949Y013845D01*
X023932Y013895D01*
X023919Y013945D01*
X023909Y013997D01*
X023903Y014049D01*
X023901Y014101D01*
X023401Y013701D02*
X023401Y014506D01*
X023751Y015301D02*
X025451Y015301D01*
D11*
X016231Y012560D02*
X015770Y012560D01*
X015770Y012790D01*
X015847Y012867D01*
X016001Y012867D01*
X016077Y012790D01*
X016077Y012560D01*
X016077Y012407D02*
X016154Y012407D01*
X016231Y012330D01*
X016231Y012177D01*
X016154Y012100D01*
X016154Y011946D02*
X016231Y011870D01*
X016231Y011716D01*
X016154Y011640D01*
X015847Y011640D01*
X015770Y011716D01*
X015770Y011870D01*
X015847Y011946D01*
X015847Y012100D02*
X015924Y012100D01*
X016001Y012177D01*
X016001Y012330D01*
X016077Y012407D01*
X015847Y012407D02*
X015770Y012330D01*
X015770Y012177D01*
X015847Y012100D01*
X015770Y011486D02*
X015770Y011333D01*
X015770Y011409D02*
X016231Y011409D01*
X016231Y011333D02*
X016231Y011486D01*
X002831Y012697D02*
X002831Y012851D01*
X002754Y012928D01*
X002447Y012928D01*
X002370Y012851D01*
X002370Y012697D01*
X002447Y012621D01*
X002754Y012621D01*
X002831Y012697D01*
X002754Y013081D02*
X002370Y013081D01*
X002370Y013388D02*
X002754Y013388D01*
X002831Y013311D01*
X002831Y013158D01*
X002754Y013081D01*
X002370Y013541D02*
X002370Y013848D01*
X002370Y013695D02*
X002831Y013695D01*
X000831Y010467D02*
X000831Y010314D01*
X000831Y010390D02*
X000370Y010390D01*
X000370Y010314D02*
X000370Y010467D01*
X000447Y010160D02*
X000370Y010084D01*
X000370Y009853D01*
X000831Y009853D01*
X000831Y010084D01*
X000754Y010160D01*
X000447Y010160D01*
X000370Y009700D02*
X000370Y009393D01*
X000370Y009240D02*
X000370Y008933D01*
X000831Y008933D01*
X000601Y008933D02*
X000601Y009086D01*
X000831Y009546D02*
X000370Y009546D01*
X003947Y002848D02*
X004101Y002848D01*
X004177Y002772D01*
X004177Y002541D01*
X004331Y002541D02*
X003870Y002541D01*
X003870Y002772D01*
X003947Y002848D01*
X004177Y002695D02*
X004331Y002848D01*
X004331Y002388D02*
X003870Y002388D01*
X003870Y002081D02*
X004331Y002081D01*
X004177Y002235D01*
X004331Y002388D01*
X004101Y001928D02*
X003947Y001928D01*
X003870Y001851D01*
X003870Y001621D01*
X004331Y001621D01*
X004177Y001621D02*
X004177Y001851D01*
X004101Y001928D01*
D12*
X014180Y006371D02*
X014180Y006518D01*
X014253Y006591D01*
X014327Y006518D01*
X014327Y006371D01*
X014401Y006444D02*
X014474Y006371D01*
X014548Y006444D01*
X014548Y006591D01*
X014622Y006591D02*
X014732Y006591D01*
X014769Y006554D01*
X014769Y006481D01*
X014732Y006444D01*
X014622Y006444D01*
X014622Y006371D02*
X014622Y006591D01*
X014695Y006444D02*
X014769Y006371D01*
X014843Y006481D02*
X014990Y006481D01*
X015064Y006591D02*
X015137Y006518D01*
X015211Y006591D01*
X015211Y006371D01*
X015285Y006371D02*
X015432Y006371D01*
X015506Y006407D02*
X015543Y006371D01*
X015616Y006371D01*
X015653Y006407D01*
X015653Y006481D01*
X015579Y006481D01*
X015506Y006554D02*
X015506Y006407D01*
X015506Y006554D02*
X015543Y006591D01*
X015616Y006591D01*
X015653Y006554D01*
X015727Y006518D02*
X015800Y006591D01*
X015874Y006518D01*
X015874Y006371D01*
X015948Y006407D02*
X015948Y006444D01*
X015984Y006481D01*
X016058Y006481D01*
X016095Y006444D01*
X016095Y006407D01*
X016058Y006371D01*
X015984Y006371D01*
X015948Y006407D01*
X015984Y006481D02*
X015948Y006518D01*
X015948Y006554D01*
X015984Y006591D01*
X016058Y006591D01*
X016095Y006554D01*
X016095Y006518D01*
X016058Y006481D01*
X016169Y006481D02*
X016316Y006481D01*
X016390Y006444D02*
X016500Y006444D01*
X016537Y006481D01*
X016537Y006554D01*
X016500Y006591D01*
X016390Y006591D01*
X016390Y006371D01*
X015874Y006481D02*
X015727Y006481D01*
X015727Y006518D02*
X015727Y006371D01*
X015432Y006591D02*
X015285Y006591D01*
X015285Y006371D01*
X015285Y006481D02*
X015358Y006481D01*
X015064Y006371D02*
X015064Y006591D01*
X014401Y006591D02*
X014401Y006444D01*
X014327Y006481D02*
X014180Y006481D01*
D13*
X002851Y001601D02*
X002601Y001851D01*
X002601Y002351D01*
X002851Y002601D01*
X002601Y002851D01*
X002601Y003351D01*
X002851Y003601D01*
X003351Y003601D01*
X003601Y003351D01*
X003601Y002851D01*
X003351Y002601D01*
X003601Y002351D01*
X003601Y001851D01*
X003351Y001601D01*
X002851Y001601D01*
X002851Y002601D02*
X003351Y002601D01*
X005101Y002351D02*
X005101Y001851D01*
X005351Y001601D01*
X005851Y001601D01*
X006101Y001851D01*
X006351Y001601D01*
X006851Y001601D01*
X007101Y001851D01*
X007101Y002351D01*
X006851Y002601D01*
X006351Y002601D01*
X006101Y002351D01*
X006101Y001851D01*
X006101Y002351D02*
X005851Y002601D01*
X005351Y002601D01*
X005101Y002351D01*
X007101Y002351D02*
X007351Y002601D01*
X007851Y002601D01*
X008101Y002351D01*
X008351Y002601D01*
X008851Y002601D01*
X009101Y002351D01*
X009351Y002601D01*
X009851Y002601D01*
X010101Y002351D01*
X010351Y002601D01*
X010851Y002601D01*
X011101Y002351D01*
X011101Y001851D01*
X010851Y001601D01*
X010351Y001601D01*
X010101Y001851D01*
X009851Y001601D01*
X009351Y001601D01*
X009101Y001851D01*
X008851Y001601D01*
X008351Y001601D01*
X008101Y001851D01*
X007851Y001601D01*
X007351Y001601D01*
X007101Y001851D01*
X008101Y001851D02*
X008101Y002351D01*
X009101Y002351D02*
X009101Y001851D01*
X010101Y001851D02*
X010101Y002351D01*
X011601Y002351D02*
X011601Y001851D01*
X011851Y001601D01*
X012351Y001601D01*
X012601Y001851D01*
X012851Y001601D01*
X013351Y001601D01*
X013601Y001851D01*
X013601Y002351D01*
X013351Y002601D01*
X012851Y002601D01*
X012601Y002351D01*
X012601Y001851D01*
X012601Y002351D02*
X012351Y002601D01*
X011851Y002601D01*
X011601Y002351D01*
X013601Y002351D02*
X013851Y002601D01*
X014351Y002601D01*
X014601Y002351D01*
X014851Y002601D01*
X015351Y002601D01*
X015601Y002351D01*
X015851Y002601D01*
X016351Y002601D01*
X016601Y002351D01*
X016851Y002601D01*
X017351Y002601D01*
X017601Y002351D01*
X017601Y001851D01*
X017351Y001601D01*
X016851Y001601D01*
X016601Y001851D01*
X016351Y001601D01*
X015851Y001601D01*
X015601Y001851D01*
X015351Y001601D01*
X014851Y001601D01*
X014601Y001851D01*
X014351Y001601D01*
X013851Y001601D01*
X013601Y001851D01*
X014601Y001851D02*
X014601Y002351D01*
X015601Y002351D02*
X015601Y001851D01*
X016601Y001851D02*
X016601Y002351D01*
X002101Y012851D02*
X001851Y012601D01*
X001351Y012601D01*
X001101Y012851D01*
X001101Y013351D01*
X001351Y013601D01*
X001101Y013851D01*
X001101Y014351D01*
X001351Y014601D01*
X001851Y014601D01*
X002101Y014351D01*
X002101Y013851D01*
X001851Y013601D01*
X002101Y013351D01*
X002101Y012851D01*
X001851Y013601D02*
X001351Y013601D01*
X001351Y014601D02*
X001101Y014851D01*
X001101Y015351D01*
X001351Y015601D01*
X001101Y015851D01*
X001101Y016351D01*
X001351Y016601D01*
X001101Y016851D01*
X001101Y017351D01*
X001351Y017601D01*
X001101Y017851D01*
X001101Y018351D01*
X001351Y018601D01*
X001851Y018601D01*
X002101Y018351D01*
X002101Y017851D01*
X001851Y017601D01*
X002101Y017351D01*
X002101Y016851D01*
X001851Y016601D01*
X002101Y016351D01*
X002101Y015851D01*
X001851Y015601D01*
X002101Y015351D01*
X002101Y014851D01*
X001851Y014601D01*
X001851Y015601D02*
X001351Y015601D01*
X001351Y016601D02*
X001851Y016601D01*
X001851Y017601D02*
X001351Y017601D01*
X001251Y020601D02*
X001001Y020851D01*
X001001Y021351D01*
X001251Y021601D01*
X001751Y021601D01*
X002001Y021351D01*
X002251Y021601D01*
X002751Y021601D01*
X003001Y021351D01*
X003251Y021601D01*
X003751Y021601D01*
X004001Y021351D01*
X004251Y021601D01*
X004751Y021601D01*
X005001Y021351D01*
X005251Y021601D01*
X005751Y021601D01*
X006001Y021351D01*
X006251Y021601D01*
X006751Y021601D01*
X007001Y021351D01*
X007251Y021601D01*
X007751Y021601D01*
X008001Y021351D01*
X008251Y021601D01*
X008751Y021601D01*
X009001Y021351D01*
X009001Y020851D01*
X008751Y020601D01*
X008251Y020601D01*
X008001Y020851D01*
X007751Y020601D01*
X007251Y020601D01*
X007001Y020851D01*
X007001Y021351D01*
X008001Y021351D02*
X008001Y020851D01*
X007001Y020851D02*
X006751Y020601D01*
X006251Y020601D01*
X006001Y020851D01*
X005751Y020601D01*
X005251Y020601D01*
X005001Y020851D01*
X004751Y020601D01*
X004251Y020601D01*
X004001Y020851D01*
X004001Y021351D01*
X003001Y021351D02*
X003001Y020851D01*
X002751Y020601D01*
X002251Y020601D01*
X002001Y020851D01*
X001751Y020601D01*
X001251Y020601D01*
X002001Y020851D02*
X002001Y021351D01*
X003001Y020851D02*
X003251Y020601D01*
X003751Y020601D01*
X004001Y020851D01*
X005001Y020851D02*
X005001Y021351D01*
X006001Y021351D02*
X006001Y020851D01*
X009601Y020851D02*
X009851Y020601D01*
X010351Y020601D01*
X010601Y020851D01*
X010601Y021351D01*
X010351Y021601D01*
X009851Y021601D01*
X009601Y021351D01*
X009601Y020851D01*
X010601Y020851D02*
X010851Y020601D01*
X011351Y020601D01*
X011601Y020851D01*
X011601Y021351D01*
X011351Y021601D01*
X010851Y021601D01*
X010601Y021351D01*
X011601Y021351D02*
X011851Y021601D01*
X012351Y021601D01*
X012601Y021351D01*
X012851Y021601D01*
X013351Y021601D01*
X013601Y021351D01*
X013851Y021601D01*
X014351Y021601D01*
X014601Y021351D01*
X014851Y021601D01*
X015351Y021601D01*
X015601Y021351D01*
X015851Y021601D01*
X016351Y021601D01*
X016601Y021351D01*
X016851Y021601D01*
X017351Y021601D01*
X017601Y021351D01*
X017601Y020851D01*
X017351Y020601D01*
X016851Y020601D01*
X016601Y020851D01*
X016351Y020601D01*
X015851Y020601D01*
X015601Y020851D01*
X015601Y021351D01*
X015601Y020851D02*
X015351Y020601D01*
X014851Y020601D01*
X014601Y020851D01*
X014351Y020601D01*
X013851Y020601D01*
X013601Y020851D01*
X013351Y020601D01*
X012851Y020601D01*
X012601Y020851D01*
X012601Y021351D01*
X012601Y020851D02*
X012351Y020601D01*
X011851Y020601D01*
X011601Y020851D01*
X013601Y020851D02*
X013601Y021351D01*
X014601Y021351D02*
X014601Y020851D01*
X016601Y020851D02*
X016601Y021351D01*
X019351Y020951D02*
X019351Y020251D01*
X019353Y020234D01*
X019357Y020217D01*
X019364Y020201D01*
X019374Y020187D01*
X019387Y020174D01*
X019401Y020164D01*
X019417Y020157D01*
X019434Y020153D01*
X019451Y020151D01*
X019601Y020151D01*
X019651Y020201D01*
X021551Y020201D01*
X021601Y020151D01*
X021751Y020151D01*
X021768Y020153D01*
X021785Y020157D01*
X021801Y020164D01*
X021815Y020174D01*
X021828Y020187D01*
X021838Y020201D01*
X021845Y020217D01*
X021849Y020234D01*
X021851Y020251D01*
X021851Y020951D01*
X021849Y020968D01*
X021845Y020985D01*
X021838Y021001D01*
X021828Y021015D01*
X021815Y021028D01*
X021801Y021038D01*
X021785Y021045D01*
X021768Y021049D01*
X021751Y021051D01*
X021601Y021051D01*
X021551Y021001D01*
X019651Y021001D01*
X019601Y021051D01*
X019451Y021051D01*
X019434Y021049D01*
X019417Y021045D01*
X019401Y021038D01*
X019387Y021028D01*
X019374Y021015D01*
X019364Y021001D01*
X019357Y020985D01*
X019353Y020968D01*
X019351Y020951D01*
X019451Y020051D02*
X019601Y020051D01*
X019651Y020001D01*
X021551Y020001D01*
X021601Y020051D01*
X021751Y020051D01*
X021768Y020049D01*
X021785Y020045D01*
X021801Y020038D01*
X021815Y020028D01*
X021828Y020015D01*
X021838Y020001D01*
X021845Y019985D01*
X021849Y019968D01*
X021851Y019951D01*
X021851Y019251D01*
X021849Y019234D01*
X021845Y019217D01*
X021838Y019201D01*
X021828Y019187D01*
X021815Y019174D01*
X021801Y019164D01*
X021785Y019157D01*
X021768Y019153D01*
X021751Y019151D01*
X021601Y019151D01*
X021551Y019201D01*
X019651Y019201D01*
X019601Y019151D01*
X019451Y019151D01*
X019434Y019153D01*
X019417Y019157D01*
X019401Y019164D01*
X019387Y019174D01*
X019374Y019187D01*
X019364Y019201D01*
X019357Y019217D01*
X019353Y019234D01*
X019351Y019251D01*
X019351Y019951D01*
X019353Y019968D01*
X019357Y019985D01*
X019364Y020001D01*
X019374Y020015D01*
X019387Y020028D01*
X019401Y020038D01*
X019417Y020045D01*
X019434Y020049D01*
X019451Y020051D01*
X019451Y019051D02*
X019601Y019051D01*
X019651Y019001D01*
X021551Y019001D01*
X021601Y019051D01*
X021751Y019051D01*
X021768Y019049D01*
X021785Y019045D01*
X021801Y019038D01*
X021815Y019028D01*
X021828Y019015D01*
X021838Y019001D01*
X021845Y018985D01*
X021849Y018968D01*
X021851Y018951D01*
X021851Y018251D01*
X021849Y018234D01*
X021845Y018217D01*
X021838Y018201D01*
X021828Y018187D01*
X021815Y018174D01*
X021801Y018164D01*
X021785Y018157D01*
X021768Y018153D01*
X021751Y018151D01*
X021601Y018151D01*
X021551Y018201D01*
X019651Y018201D01*
X019601Y018151D01*
X019451Y018151D01*
X019434Y018153D01*
X019417Y018157D01*
X019401Y018164D01*
X019387Y018174D01*
X019374Y018187D01*
X019364Y018201D01*
X019357Y018217D01*
X019353Y018234D01*
X019351Y018251D01*
X019351Y018951D01*
X019353Y018968D01*
X019357Y018985D01*
X019364Y019001D01*
X019374Y019015D01*
X019387Y019028D01*
X019401Y019038D01*
X019417Y019045D01*
X019434Y019049D01*
X019451Y019051D01*
X019451Y018051D02*
X019601Y018051D01*
X019651Y018001D01*
X021551Y018001D01*
X021601Y018051D01*
X021751Y018051D01*
X021768Y018049D01*
X021785Y018045D01*
X021801Y018038D01*
X021815Y018028D01*
X021828Y018015D01*
X021838Y018001D01*
X021845Y017985D01*
X021849Y017968D01*
X021851Y017951D01*
X021851Y017251D01*
X021849Y017234D01*
X021845Y017217D01*
X021838Y017201D01*
X021828Y017187D01*
X021815Y017174D01*
X021801Y017164D01*
X021785Y017157D01*
X021768Y017153D01*
X021751Y017151D01*
X021601Y017151D01*
X021551Y017201D01*
X019651Y017201D01*
X019601Y017151D01*
X019451Y017151D01*
X019434Y017153D01*
X019417Y017157D01*
X019401Y017164D01*
X019387Y017174D01*
X019374Y017187D01*
X019364Y017201D01*
X019357Y017217D01*
X019353Y017234D01*
X019351Y017251D01*
X019351Y017951D01*
X019353Y017968D01*
X019357Y017985D01*
X019364Y018001D01*
X019374Y018015D01*
X019387Y018028D01*
X019401Y018038D01*
X019417Y018045D01*
X019434Y018049D01*
X019451Y018051D01*
X025351Y017751D02*
X025351Y018451D01*
X025353Y018468D01*
X025357Y018485D01*
X025364Y018501D01*
X025374Y018515D01*
X025387Y018528D01*
X025401Y018538D01*
X025417Y018545D01*
X025434Y018549D01*
X025451Y018551D01*
X025601Y018551D01*
X025651Y018501D01*
X027551Y018501D01*
X027601Y018551D01*
X027751Y018551D01*
X027751Y018651D02*
X027601Y018651D01*
X027551Y018701D01*
X025651Y018701D01*
X025601Y018651D01*
X025451Y018651D01*
X025434Y018653D01*
X025417Y018657D01*
X025401Y018664D01*
X025387Y018674D01*
X025374Y018687D01*
X025364Y018701D01*
X025357Y018717D01*
X025353Y018734D01*
X025351Y018751D01*
X025351Y019451D01*
X025353Y019468D01*
X025357Y019485D01*
X025364Y019501D01*
X025374Y019515D01*
X025387Y019528D01*
X025401Y019538D01*
X025417Y019545D01*
X025434Y019549D01*
X025451Y019551D01*
X025601Y019551D01*
X025651Y019501D01*
X027551Y019501D01*
X027601Y019551D01*
X027751Y019551D01*
X027751Y019651D02*
X027601Y019651D01*
X027551Y019701D01*
X025651Y019701D01*
X025601Y019651D01*
X025451Y019651D01*
X025434Y019653D01*
X025417Y019657D01*
X025401Y019664D01*
X025387Y019674D01*
X025374Y019687D01*
X025364Y019701D01*
X025357Y019717D01*
X025353Y019734D01*
X025351Y019751D01*
X025351Y020451D01*
X025353Y020468D01*
X025357Y020485D01*
X025364Y020501D01*
X025374Y020515D01*
X025387Y020528D01*
X025401Y020538D01*
X025417Y020545D01*
X025434Y020549D01*
X025451Y020551D01*
X025601Y020551D01*
X025651Y020501D01*
X027551Y020501D01*
X027601Y020551D01*
X027751Y020551D01*
X027768Y020549D01*
X027785Y020545D01*
X027801Y020538D01*
X027815Y020528D01*
X027828Y020515D01*
X027838Y020501D01*
X027845Y020485D01*
X027849Y020468D01*
X027851Y020451D01*
X027851Y019751D01*
X027849Y019734D01*
X027845Y019717D01*
X027838Y019701D01*
X027828Y019687D01*
X027815Y019674D01*
X027801Y019664D01*
X027785Y019657D01*
X027768Y019653D01*
X027751Y019651D01*
X027751Y019551D02*
X027768Y019549D01*
X027785Y019545D01*
X027801Y019538D01*
X027815Y019528D01*
X027828Y019515D01*
X027838Y019501D01*
X027845Y019485D01*
X027849Y019468D01*
X027851Y019451D01*
X027851Y018751D01*
X027849Y018734D01*
X027845Y018717D01*
X027838Y018701D01*
X027828Y018687D01*
X027815Y018674D01*
X027801Y018664D01*
X027785Y018657D01*
X027768Y018653D01*
X027751Y018651D01*
X027751Y018551D02*
X027768Y018549D01*
X027785Y018545D01*
X027801Y018538D01*
X027815Y018528D01*
X027828Y018515D01*
X027838Y018501D01*
X027845Y018485D01*
X027849Y018468D01*
X027851Y018451D01*
X027851Y017751D01*
X027849Y017734D01*
X027845Y017717D01*
X027838Y017701D01*
X027828Y017687D01*
X027815Y017674D01*
X027801Y017664D01*
X027785Y017657D01*
X027768Y017653D01*
X027751Y017651D01*
X027601Y017651D01*
X027551Y017701D01*
X025651Y017701D01*
X025601Y017651D01*
X025451Y017651D01*
X025434Y017653D01*
X025417Y017657D01*
X025401Y017664D01*
X025387Y017674D01*
X025374Y017687D01*
X025364Y017701D01*
X025357Y017717D01*
X025353Y017734D01*
X025351Y017751D01*
X029701Y021001D02*
X029701Y014201D01*
X034501Y014201D01*
X034501Y021001D01*
X029701Y021001D01*
D14*
X026957Y020251D02*
X026957Y019951D01*
X026882Y019876D01*
X026732Y019876D01*
X026656Y019951D01*
X026957Y020251D01*
X026882Y020326D01*
X026732Y020326D01*
X026656Y020251D01*
X026656Y019951D01*
X026496Y019951D02*
X026421Y019876D01*
X026271Y019876D01*
X026196Y019951D01*
X026496Y020251D01*
X026496Y019951D01*
X026196Y019951D02*
X026196Y020251D01*
X026271Y020326D01*
X026421Y020326D01*
X026496Y020251D01*
X026036Y019876D02*
X025736Y019876D01*
X025886Y019876D02*
X025886Y020326D01*
X025736Y020176D01*
X025886Y019326D02*
X025886Y018876D01*
X025736Y018876D02*
X026036Y018876D01*
X026196Y018951D02*
X026496Y019251D01*
X026496Y018951D01*
X026421Y018876D01*
X026271Y018876D01*
X026196Y018951D01*
X026196Y019251D01*
X026271Y019326D01*
X026421Y019326D01*
X026496Y019251D01*
X026656Y019251D02*
X026732Y019326D01*
X026882Y019326D01*
X026957Y019251D01*
X026656Y018951D01*
X026732Y018876D01*
X026882Y018876D01*
X026957Y018951D01*
X026957Y019251D01*
X026656Y019251D02*
X026656Y018951D01*
X025886Y019326D02*
X025736Y019176D01*
X025886Y018326D02*
X025886Y017876D01*
X025736Y017876D02*
X026036Y017876D01*
X026196Y017951D02*
X026271Y017876D01*
X026421Y017876D01*
X026496Y017951D01*
X026496Y018251D01*
X026196Y017951D01*
X026196Y018251D01*
X026271Y018326D01*
X026421Y018326D01*
X026496Y018251D01*
X026656Y018251D02*
X026732Y018326D01*
X026882Y018326D01*
X026957Y018251D01*
X026656Y017951D01*
X026732Y017876D01*
X026882Y017876D01*
X026957Y017951D01*
X026957Y018251D01*
X026656Y018251D02*
X026656Y017951D01*
X025886Y018326D02*
X025736Y018176D01*
X020957Y018451D02*
X020882Y018376D01*
X020732Y018376D01*
X020656Y018451D01*
X020957Y018751D01*
X020957Y018451D01*
X020957Y018751D02*
X020882Y018826D01*
X020732Y018826D01*
X020656Y018751D01*
X020656Y018451D01*
X020496Y018451D02*
X020421Y018376D01*
X020271Y018376D01*
X020196Y018451D01*
X020496Y018751D01*
X020496Y018451D01*
X020196Y018451D02*
X020196Y018751D01*
X020271Y018826D01*
X020421Y018826D01*
X020496Y018751D01*
X020036Y018376D02*
X019736Y018376D01*
X019886Y018376D02*
X019886Y018826D01*
X019736Y018676D01*
X019736Y019376D02*
X020036Y019376D01*
X019886Y019376D02*
X019886Y019826D01*
X019736Y019676D01*
X020196Y019751D02*
X020196Y019451D01*
X020496Y019751D01*
X020496Y019451D01*
X020421Y019376D01*
X020271Y019376D01*
X020196Y019451D01*
X020196Y019751D02*
X020271Y019826D01*
X020421Y019826D01*
X020496Y019751D01*
X020656Y019751D02*
X020732Y019826D01*
X020882Y019826D01*
X020957Y019751D01*
X020656Y019451D01*
X020732Y019376D01*
X020882Y019376D01*
X020957Y019451D01*
X020957Y019751D01*
X020656Y019751D02*
X020656Y019451D01*
X020732Y020376D02*
X020656Y020451D01*
X020957Y020751D01*
X020957Y020451D01*
X020882Y020376D01*
X020732Y020376D01*
X020656Y020451D02*
X020656Y020751D01*
X020732Y020826D01*
X020882Y020826D01*
X020957Y020751D01*
X020496Y020751D02*
X020496Y020451D01*
X020421Y020376D01*
X020271Y020376D01*
X020196Y020451D01*
X020496Y020751D01*
X020421Y020826D01*
X020271Y020826D01*
X020196Y020751D01*
X020196Y020451D01*
X020036Y020376D02*
X019736Y020376D01*
X019886Y020376D02*
X019886Y020826D01*
X019736Y020676D01*
X019886Y017826D02*
X019886Y017376D01*
X019736Y017376D02*
X020036Y017376D01*
X020196Y017451D02*
X020496Y017751D01*
X020496Y017451D01*
X020421Y017376D01*
X020271Y017376D01*
X020196Y017451D01*
X020196Y017751D01*
X020271Y017826D01*
X020421Y017826D01*
X020496Y017751D01*
X020656Y017751D02*
X020732Y017826D01*
X020882Y017826D01*
X020957Y017751D01*
X020656Y017451D01*
X020732Y017376D01*
X020882Y017376D01*
X020957Y017451D01*
X020957Y017751D01*
X020656Y017751D02*
X020656Y017451D01*
X019886Y017826D02*
X019736Y017676D01*
X030660Y006806D02*
X035542Y006806D01*
X035542Y001451D01*
X030660Y001451D01*
X030660Y006806D01*
D15*
X030811Y015101D02*
X032821Y015101D01*
X032981Y015241D01*
X032681Y015601D01*
X030851Y015601D01*
X030511Y015331D01*
X030811Y015101D01*
X030361Y015451D02*
X030181Y015581D01*
X030531Y017441D01*
X030981Y017191D01*
X030711Y015731D01*
X030361Y015451D01*
X032811Y015731D02*
X033121Y015361D01*
X033251Y015471D01*
X033601Y017401D01*
X033071Y017131D01*
X032811Y015731D01*
X033051Y017351D02*
X031101Y017351D01*
X030651Y017601D01*
X031151Y017851D01*
X033101Y017851D01*
X033551Y017601D01*
X033051Y017351D01*
X033221Y018011D02*
X033671Y017761D01*
X034021Y019621D01*
X033841Y019751D01*
X033491Y019471D01*
X033221Y018011D01*
X031131Y018071D02*
X031391Y019471D01*
X031081Y019841D01*
X030951Y019731D01*
X030601Y017801D01*
X031131Y018071D01*
X031521Y019601D02*
X033351Y019601D01*
X033691Y019871D01*
X033391Y020101D01*
X031381Y020101D01*
X031221Y019961D01*
X031521Y019601D01*
D16*
X031101Y019651D02*
X031051Y019601D01*
X033151Y015601D02*
X033101Y015551D01*
X033751Y015351D02*
X033753Y015375D01*
X033759Y015399D01*
X033768Y015421D01*
X033781Y015441D01*
X033797Y015459D01*
X033816Y015474D01*
X033837Y015487D01*
X033859Y015495D01*
X033883Y015500D01*
X033907Y015501D01*
X033931Y015498D01*
X033954Y015491D01*
X033976Y015481D01*
X033996Y015467D01*
X034013Y015450D01*
X034028Y015431D01*
X034039Y015410D01*
X034047Y015387D01*
X034051Y015363D01*
X034051Y015339D01*
X034047Y015315D01*
X034039Y015292D01*
X034028Y015271D01*
X034013Y015252D01*
X033996Y015235D01*
X033976Y015221D01*
X033954Y015211D01*
X033931Y015204D01*
X033907Y015201D01*
X033883Y015202D01*
X033859Y015207D01*
X033837Y015215D01*
X033816Y015228D01*
X033797Y015243D01*
X033781Y015261D01*
X033768Y015281D01*
X033759Y015303D01*
X033753Y015327D01*
X033751Y015351D01*
D17*
X033051Y015751D02*
X033301Y017001D01*
X033151Y017601D02*
X031051Y017601D01*
X030701Y017051D02*
X030451Y015751D01*
X030801Y015351D02*
X032651Y015351D01*
X033501Y018151D02*
X033751Y019451D01*
X033401Y019851D02*
X031551Y019851D01*
X031151Y019451D02*
X030901Y018201D01*
D18*
X032826Y015251D03*
D19*
X033451Y017201D03*
X030751Y018001D03*
D20*
X033376Y017601D03*
D21*
X030826Y017601D03*
D22*
X030301Y015651D02*
X030351Y015601D01*
X033901Y019551D02*
X033851Y019601D01*
D23*
X033351Y018101D02*
X033601Y017951D01*
X030851Y017101D02*
X030601Y017251D01*
D24*
X031301Y019901D02*
X031451Y020051D01*
D25*
X033901Y015351D03*
D26*
X028021Y018101D03*
X028021Y019101D03*
X028021Y020101D03*
X025181Y020101D03*
X025181Y019101D03*
X025181Y018101D03*
X022021Y018601D03*
X022021Y017601D03*
X019181Y017601D03*
X019181Y018601D03*
X019181Y019601D03*
X019181Y020601D03*
X022021Y020601D03*
X022021Y019601D03*
M02*
