%
M48
M72
T01C0.0240
T02C0.0320
T03C0.0394
T04C0.0400
T05C0.0630
T06C0.0787
%
T01
X3601Y8351
X3601Y9101
X3601Y11101
X4601Y12351
X5601Y13101
X7101Y14101
X6101Y16101
X4101Y16601
X10101Y19601
X9351Y21351
X12101Y17101
X8601Y11601
X15101Y11101
X18601Y6601
T02
X17101Y7601
X16101Y7601
X15101Y7601
X14101Y7601
X13101Y7601
X12101Y7601
X11101Y7601
X10101Y7601
X9101Y7601
X8101Y7601
X7101Y7601
X6101Y7601
X5101Y7601
X4101Y7601
X4101Y4601
X5101Y4601
X6101Y4601
X7101Y4601
X8101Y4601
X9101Y4601
X10101Y4601
X11101Y4601
X12101Y4601
X13101Y4601
X14101Y4601
X15101Y4601
X16101Y4601
X17101Y4601
X30101Y14601
X31101Y14601
X32101Y14601
X33101Y14601
X34101Y14601
X28601Y18101
X28601Y19101
X28601Y20101
X30101Y20601
X31101Y20601
X32101Y20601
X33101Y20601
X34101Y20601
X24601Y20101
X24601Y19101
X24601Y18101
X22601Y18601
X22601Y17601
X22601Y19601
X22601Y20601
X18601Y20601
X18601Y19601
X18601Y18601
X18601Y17601
T03
X32117Y1845
X33101Y1845
X34085Y1845
T04
X28381Y2211
X25821Y2211
X23381Y2211
X20821Y2211
X20821Y3991
X23381Y3991
X25821Y3991
X28381Y3991
X25881Y6211
X23321Y6211
X23321Y7991
X23321Y9711
X21881Y9711
X19321Y9711
X18001Y10501
X17001Y10501
X17001Y11501
X18001Y11501
X19321Y11491
X18001Y12501
X17001Y12501
X21881Y11491
X23321Y11491
X25881Y11491
X27321Y11491
X29881Y11491
X29881Y9711
X27321Y9711
X25881Y9711
X25881Y7991
X25881Y13211
X23321Y13211
X23321Y14991
X25881Y14991
X17101Y21101
X16101Y21101
X15101Y21101
X14101Y21101
X13101Y21101
X12101Y21101
X11101Y21101
X10101Y21101
X8501Y21101
X7501Y21101
X6501Y21101
X5501Y21101
X4501Y21101
X3501Y21101
X2501Y21101
X1501Y21101
X1601Y18101
X1601Y17101
X1601Y16101
X1601Y15101
X1601Y14101
X1601Y13101
X1601Y10101
X1601Y9101
X1601Y8101
X1601Y7101
X1601Y6101
X1601Y5101
X3101Y3101
X3101Y2101
X5601Y2101
X6601Y2101
X7601Y2101
X8601Y2101
X9601Y2101
X10601Y2101
X12101Y2101
X13101Y2101
X14101Y2101
X15101Y2101
X16101Y2101
X17101Y2101
T05
X1601Y2101
X1601Y3101
T06
X31369Y4601
X34833Y4601
M30
