G75*
G70*
%OFA0B0*%
%FSLAX24Y24*%
%IPPOS*%
%LPD*%
%AMOC8*
5,1,8,0,0,1.08239X$1,22.5*
%
%ADD10C,0.0600*%
%ADD11OC8,0.0600*%
%ADD12C,0.0520*%
%ADD13C,0.0600*%
%ADD14R,0.0594X0.0594*%
%ADD15OC8,0.1181*%
%ADD16OC8,0.0520*%
%ADD17C,0.0100*%
%ADD18C,0.0400*%
%ADD19C,0.0160*%
%ADD20C,0.0120*%
D10*
X001601Y005101D03*
X001601Y006101D03*
X001601Y007101D03*
X001601Y008101D03*
X001601Y009101D03*
X001601Y010101D03*
X019321Y009711D03*
X021881Y009711D03*
X023321Y009711D03*
X023321Y007991D03*
X025881Y007991D03*
X025881Y009711D03*
X027321Y009711D03*
X029881Y009711D03*
X029881Y011491D03*
X027321Y011491D03*
X025881Y011491D03*
X023321Y011491D03*
X021881Y011491D03*
X019321Y011491D03*
X023321Y013211D03*
X025881Y013211D03*
X025881Y014991D03*
X023321Y014991D03*
X023321Y006211D03*
X025881Y006211D03*
X025821Y003991D03*
X023381Y003991D03*
X020821Y003991D03*
X020821Y002211D03*
X023381Y002211D03*
X025821Y002211D03*
X028381Y002211D03*
X028381Y003991D03*
D11*
X018001Y010501D03*
X017001Y010501D03*
X017001Y011501D03*
X018001Y011501D03*
X018001Y012501D03*
X017001Y012501D03*
D12*
X017101Y007861D02*
X017101Y007341D01*
X016101Y007341D02*
X016101Y007861D01*
X015101Y007861D02*
X015101Y007341D01*
X014101Y007341D02*
X014101Y007861D01*
X013101Y007861D02*
X013101Y007341D01*
X012101Y007341D02*
X012101Y007861D01*
X011101Y007861D02*
X011101Y007341D01*
X010101Y007341D02*
X010101Y007861D01*
X009101Y007861D02*
X009101Y007341D01*
X008101Y007341D02*
X008101Y007861D01*
X007101Y007861D02*
X007101Y007341D01*
X006101Y007341D02*
X006101Y007861D01*
X005101Y007861D02*
X005101Y007341D01*
X004101Y007341D02*
X004101Y007861D01*
X004101Y004861D02*
X004101Y004341D01*
X005101Y004341D02*
X005101Y004861D01*
X006101Y004861D02*
X006101Y004341D01*
X007101Y004341D02*
X007101Y004861D01*
X008101Y004861D02*
X008101Y004341D01*
X009101Y004341D02*
X009101Y004861D01*
X010101Y004861D02*
X010101Y004341D01*
X011101Y004341D02*
X011101Y004861D01*
X012101Y004861D02*
X012101Y004341D01*
X013101Y004341D02*
X013101Y004861D01*
X014101Y004861D02*
X014101Y004341D01*
X015101Y004341D02*
X015101Y004861D01*
X016101Y004861D02*
X016101Y004341D01*
X017101Y004341D02*
X017101Y004861D01*
X030101Y014341D02*
X030101Y014861D01*
X031101Y014861D02*
X031101Y014341D01*
X032101Y014341D02*
X032101Y014861D01*
X033101Y014861D02*
X033101Y014341D01*
X034101Y014341D02*
X034101Y014861D01*
X034101Y020341D02*
X034101Y020861D01*
X033101Y020861D02*
X033101Y020341D01*
X032101Y020341D02*
X032101Y020861D01*
X031101Y020861D02*
X031101Y020341D01*
X030101Y020341D02*
X030101Y020861D01*
D13*
X017101Y020801D02*
X017101Y021401D01*
X016101Y021401D02*
X016101Y020801D01*
X015101Y020801D02*
X015101Y021401D01*
X014101Y021401D02*
X014101Y020801D01*
X013101Y020801D02*
X013101Y021401D01*
X012101Y021401D02*
X012101Y020801D01*
X011101Y020801D02*
X011101Y021401D01*
X010101Y021401D02*
X010101Y020801D01*
X008501Y020801D02*
X008501Y021401D01*
X007501Y021401D02*
X007501Y020801D01*
X006501Y020801D02*
X006501Y021401D01*
X005501Y021401D02*
X005501Y020801D01*
X004501Y020801D02*
X004501Y021401D01*
X003501Y021401D02*
X003501Y020801D01*
X002501Y020801D02*
X002501Y021401D01*
X001501Y021401D02*
X001501Y020801D01*
X001301Y018101D02*
X001901Y018101D01*
X001901Y017101D02*
X001301Y017101D01*
X001301Y016101D02*
X001901Y016101D01*
X001901Y015101D02*
X001301Y015101D01*
X001301Y014101D02*
X001901Y014101D01*
X001901Y013101D02*
X001301Y013101D01*
X002801Y003101D02*
X003401Y003101D01*
X003401Y002101D02*
X002801Y002101D01*
X005601Y001801D02*
X005601Y002401D01*
X006601Y002401D02*
X006601Y001801D01*
X007601Y001801D02*
X007601Y002401D01*
X008601Y002401D02*
X008601Y001801D01*
X009601Y001801D02*
X009601Y002401D01*
X010601Y002401D02*
X010601Y001801D01*
X012101Y001801D02*
X012101Y002401D01*
X013101Y002401D02*
X013101Y001801D01*
X014101Y001801D02*
X014101Y002401D01*
X015101Y002401D02*
X015101Y001801D01*
X016101Y001801D02*
X016101Y002401D01*
X017101Y002401D02*
X017101Y001801D01*
D14*
X032117Y001845D03*
X033101Y001845D03*
X034085Y001845D03*
D15*
X034833Y004601D03*
X031369Y004601D03*
D16*
X022601Y017601D03*
X022601Y018601D03*
X022601Y019601D03*
X022601Y020601D03*
X024601Y020101D03*
X024601Y019101D03*
X024601Y018101D03*
X028601Y018101D03*
X028601Y019101D03*
X028601Y020101D03*
X018601Y019601D03*
X018601Y020601D03*
X018601Y018601D03*
X018601Y017601D03*
D17*
X016351Y015351D01*
X016351Y010351D01*
X016601Y010101D01*
X016601Y005101D01*
X016101Y004601D01*
X018601Y006601D02*
X018601Y001601D01*
X032101Y001601D01*
X032117Y001845D01*
X025821Y002211D02*
X025601Y002351D01*
X023851Y004101D01*
X023851Y004351D01*
X023101Y005101D01*
X023101Y004601D01*
X020851Y002351D01*
X020821Y002211D01*
X020821Y003991D02*
X020601Y004101D01*
X020601Y016601D01*
X018601Y018601D01*
X018601Y019601D02*
X022851Y015351D01*
X022851Y014351D01*
X023851Y013351D01*
X023851Y012101D01*
X023351Y011601D01*
X023321Y011491D01*
X022851Y012851D02*
X022851Y010101D01*
X023101Y009851D01*
X023321Y009711D01*
X024101Y009601D02*
X022851Y008351D01*
X022851Y007351D01*
X025601Y004601D01*
X025601Y004101D01*
X025821Y003991D01*
X023101Y005101D02*
X023101Y006101D01*
X023321Y006211D01*
X023321Y007991D02*
X023351Y008101D01*
X026101Y010851D01*
X028101Y010851D01*
X028101Y018601D01*
X028601Y019101D01*
X029101Y019601D02*
X028601Y020101D01*
X029101Y019601D02*
X029101Y015601D01*
X030101Y014601D01*
X032101Y014601D02*
X032101Y020601D01*
X030101Y020601D02*
X030101Y021101D01*
X027601Y021101D01*
X024601Y018101D01*
X024101Y019601D02*
X024101Y015851D01*
X027101Y012851D01*
X027101Y011601D01*
X027321Y011491D01*
X024101Y009601D02*
X024101Y015101D01*
X018601Y020601D01*
X017101Y021101D02*
X016101Y020101D01*
X016101Y007601D01*
X015851Y008351D02*
X015851Y020851D01*
X016101Y021101D01*
X015101Y021101D02*
X015101Y011101D01*
X015101Y008601D01*
X014101Y007601D01*
X014101Y008601D02*
X013101Y007601D01*
X012851Y008351D02*
X012101Y007601D01*
X012851Y008351D02*
X012851Y020851D01*
X013101Y021101D01*
X012101Y021101D02*
X012101Y021851D01*
X001101Y021851D01*
X000851Y021601D01*
X000851Y017851D01*
X001601Y017101D01*
X000601Y016101D02*
X000601Y021851D01*
X000851Y022101D01*
X014101Y022101D01*
X014101Y021101D01*
X014101Y008601D01*
X015101Y007601D02*
X015851Y008351D01*
X018601Y006601D02*
X018601Y011851D01*
X018101Y012351D01*
X018001Y012501D01*
X022851Y012851D02*
X023101Y013101D01*
X023321Y013211D01*
X022601Y019601D02*
X024351Y021351D01*
X034101Y021351D01*
X034101Y020601D01*
X024601Y020101D02*
X024101Y019601D01*
X012101Y021101D02*
X012101Y017101D01*
X011601Y018601D02*
X009351Y020851D01*
X009351Y021351D01*
X008601Y021101D02*
X008501Y021101D01*
X008601Y021101D02*
X010101Y019601D01*
X011601Y018601D02*
X011601Y006101D01*
X010101Y004601D01*
X008601Y005101D02*
X008601Y011601D01*
X005601Y013101D02*
X005601Y005101D01*
X006101Y004601D01*
X006851Y004351D02*
X006851Y003601D01*
X004601Y003601D01*
X004601Y012351D01*
X004601Y021101D01*
X004501Y021101D01*
X005501Y021101D02*
X005601Y021101D01*
X005601Y013101D01*
X007101Y014101D02*
X007101Y007601D01*
X006101Y007601D02*
X006101Y016101D01*
X004101Y016601D02*
X004101Y007601D01*
X003601Y008101D02*
X003601Y008351D01*
X003601Y008101D02*
X001601Y008101D01*
X001601Y009101D02*
X003601Y009101D01*
X003601Y011101D02*
X003601Y012101D01*
X001601Y014101D01*
X001601Y015101D02*
X000601Y016101D01*
X006501Y021101D02*
X006601Y021101D01*
X006601Y003851D01*
X005851Y003851D01*
X005101Y004601D01*
X004101Y004601D02*
X004101Y003351D01*
X007101Y003351D01*
X007601Y003851D01*
X007601Y021101D01*
X007501Y021101D01*
X008601Y005101D02*
X008101Y004601D01*
X007101Y004601D02*
X006851Y004351D01*
D18*
X003601Y008351D03*
X003601Y009101D03*
X003601Y011101D03*
X004601Y012351D03*
X005601Y013101D03*
X007101Y014101D03*
X006101Y016101D03*
X004101Y016601D03*
X010101Y019601D03*
X009351Y021351D03*
X012101Y017101D03*
X008601Y011601D03*
X015101Y011101D03*
X018601Y006601D03*
D19*
X000601Y010101D02*
X000601Y001101D01*
X004601Y001101D01*
X004601Y002101D01*
X005601Y002101D01*
X006601Y002101D02*
X006601Y003101D01*
X009101Y003101D01*
X009101Y004601D01*
X009101Y006601D01*
X011101Y006601D01*
X011101Y007601D01*
X006601Y003101D02*
X003101Y003101D01*
X003101Y007101D01*
X001601Y007101D01*
X001601Y010101D02*
X000601Y010101D01*
D20*
X012101Y004601D02*
X012101Y002101D01*
X013101Y002101D02*
X013101Y004601D01*
X014101Y004601D02*
X014101Y002101D01*
X015101Y002101D02*
X015101Y004601D01*
X016101Y004601D02*
X016101Y002101D01*
X017101Y002101D02*
X017101Y004601D01*
X017101Y007601D02*
X018101Y007601D01*
X018101Y001101D01*
X005601Y001101D01*
X005601Y002101D01*
X017001Y007601D02*
X017001Y010501D01*
X017001Y007601D02*
X017101Y007601D01*
M02*
