G75*
G70*
%OFA0B0*%
%FSLAX24Y24*%
%IPPOS*%
%LPD*%
%AMOC8*
5,1,8,0,0,1.08239X$1,22.5*
%
%ADD10C,0.0520*%
%ADD11OC8,0.0600*%
%ADD12OC8,0.0520*%
%ADD13C,0.0440*%
%ADD14C,0.0600*%
%ADD15C,0.0660*%
%ADD16OC8,0.0630*%
%ADD17C,0.0630*%
%ADD18OC8,0.1900*%
%ADD19OC8,0.0574*%
%ADD20R,0.0600X0.0600*%
%ADD21R,0.0945X0.0945*%
%ADD22C,0.0600*%
%ADD23R,0.0500X0.0250*%
%ADD24C,0.0100*%
%ADD25C,0.0396*%
%ADD26C,0.0160*%
%ADD27C,0.0320*%
%ADD28C,0.0500*%
%ADD29C,0.0240*%
%ADD30C,0.0475*%
D10*
X012101Y008676D02*
X012621Y008676D01*
X012621Y009676D02*
X012101Y009676D01*
X012101Y010676D02*
X012621Y010676D01*
X012621Y011676D02*
X012101Y011676D01*
X012101Y012676D02*
X012621Y012676D01*
X012621Y013676D02*
X012101Y013676D01*
X012101Y014676D02*
X012621Y014676D01*
X012621Y015676D02*
X012101Y015676D01*
X012101Y016676D02*
X012621Y016676D01*
X012621Y017676D02*
X012101Y017676D01*
X015101Y017676D02*
X015621Y017676D01*
X015621Y016676D02*
X015101Y016676D01*
X015101Y015676D02*
X015621Y015676D01*
X015621Y014676D02*
X015101Y014676D01*
X015101Y013676D02*
X015621Y013676D01*
X015621Y012676D02*
X015101Y012676D01*
X015101Y011676D02*
X015621Y011676D01*
X015621Y010676D02*
X015101Y010676D01*
X015101Y009676D02*
X015621Y009676D01*
X015621Y008676D02*
X015101Y008676D01*
X023165Y008469D02*
X023165Y008989D01*
X024165Y008989D02*
X024165Y008469D01*
X025165Y008469D02*
X025165Y008989D01*
X026165Y008989D02*
X026165Y008469D01*
X027165Y008469D02*
X027165Y008989D01*
X028165Y008989D02*
X028165Y008469D01*
X029165Y008469D02*
X029165Y008989D01*
X030165Y008989D02*
X030165Y008469D01*
X031165Y008469D02*
X031165Y008989D01*
X032165Y008989D02*
X032165Y008469D01*
X033165Y008469D02*
X033165Y008989D01*
X034165Y008989D02*
X034165Y008469D01*
X035165Y008469D02*
X035165Y008989D01*
X036165Y008989D02*
X036165Y008469D01*
X036165Y005989D02*
X036165Y005469D01*
X035165Y005469D02*
X035165Y005989D01*
X034165Y005989D02*
X034165Y005469D01*
X033165Y005469D02*
X033165Y005989D01*
X032165Y005989D02*
X032165Y005469D01*
X031165Y005469D02*
X031165Y005989D01*
X030165Y005989D02*
X030165Y005469D01*
X029165Y005469D02*
X029165Y005989D01*
X028165Y005989D02*
X028165Y005469D01*
X027165Y005469D02*
X027165Y005989D01*
X026165Y005989D02*
X026165Y005469D01*
X025165Y005469D02*
X025165Y005989D01*
X024165Y005989D02*
X024165Y005469D01*
X023165Y005469D02*
X023165Y005989D01*
D11*
X036216Y010756D03*
X037216Y010756D03*
X037216Y011756D03*
X036216Y011756D03*
X036216Y012756D03*
X037216Y012756D03*
X014761Y019876D03*
X013761Y019876D03*
X013761Y020876D03*
X012761Y020876D03*
X014761Y020876D03*
D12*
X010061Y017576D03*
X008961Y017576D03*
X007861Y017576D03*
X007861Y013576D03*
X008961Y013576D03*
X010061Y013576D03*
X008161Y012076D03*
X007061Y012076D03*
X005931Y012076D03*
X004761Y012076D03*
X003511Y012866D03*
X004761Y010076D03*
X005931Y010076D03*
X007061Y010076D03*
X008161Y010076D03*
X008261Y008076D03*
X007261Y008076D03*
X005661Y008076D03*
X004661Y008076D03*
X003511Y008866D03*
X015361Y005576D03*
X016261Y005576D03*
X016261Y004576D03*
X015361Y004576D03*
X016697Y003337D03*
X016697Y001337D03*
X016761Y007876D03*
X017761Y007876D03*
X019961Y008776D03*
X019961Y010776D03*
X017761Y011876D03*
X016761Y011876D03*
X023931Y016916D03*
X023931Y017916D03*
X025761Y017916D03*
X025761Y016916D03*
X027625Y016546D03*
X028728Y016566D03*
X029800Y016565D03*
X031185Y016546D03*
X031191Y015576D03*
X031161Y014576D03*
X029800Y014565D03*
X028728Y014566D03*
X027625Y014546D03*
X031191Y017546D03*
X031201Y018536D03*
X035201Y018536D03*
X035191Y017546D03*
X035185Y016546D03*
X035191Y015576D03*
X035161Y014576D03*
D13*
X029162Y013099D02*
X029162Y012659D01*
X027162Y012659D02*
X027162Y013099D01*
X010481Y011676D02*
X010041Y011676D01*
X010041Y009676D02*
X010481Y009676D01*
D14*
X004661Y013776D02*
X004661Y014376D01*
X003661Y014376D02*
X003661Y013776D01*
X017661Y013476D02*
X018261Y013476D01*
X018261Y014476D02*
X017661Y014476D01*
X017661Y015476D02*
X018261Y015476D01*
X018261Y016476D02*
X017661Y016476D01*
X017661Y017476D02*
X018261Y017476D01*
X018261Y018476D02*
X017661Y018476D01*
X019661Y018476D02*
X020261Y018476D01*
X020261Y017476D02*
X019661Y017476D01*
X019661Y016476D02*
X020261Y016476D01*
X020261Y015476D02*
X019661Y015476D01*
X019661Y014476D02*
X020261Y014476D01*
X020261Y013476D02*
X019661Y013476D01*
X031311Y012341D02*
X031911Y012341D01*
X033871Y012341D02*
X034471Y012341D01*
X034471Y010561D02*
X033871Y010561D01*
X031911Y010561D02*
X031311Y010561D01*
X020261Y004776D02*
X019661Y004776D01*
X018261Y004776D02*
X017661Y004776D01*
X017661Y003776D02*
X018261Y003776D01*
X018261Y002776D02*
X017661Y002776D01*
X017661Y001776D02*
X018261Y001776D01*
X019661Y001776D02*
X020261Y001776D01*
X020261Y002776D02*
X019661Y002776D01*
X019661Y003776D02*
X020261Y003776D01*
X024161Y002076D02*
X024161Y001476D01*
X025161Y001476D02*
X025161Y002076D01*
X026161Y002076D02*
X026161Y001476D01*
X027161Y001476D02*
X027161Y002076D01*
X028161Y002076D02*
X028161Y001476D01*
X029161Y001476D02*
X029161Y002076D01*
X031173Y002087D02*
X031173Y001487D01*
X032173Y001487D02*
X032173Y002087D01*
X033173Y002087D02*
X033173Y001487D01*
X034173Y001487D02*
X034173Y002087D01*
X035173Y002087D02*
X035173Y001487D01*
X036173Y001487D02*
X036173Y002087D01*
X012831Y004726D02*
X012831Y005326D01*
X011831Y005326D02*
X011831Y004726D01*
X010831Y004726D02*
X010831Y005326D01*
X020533Y020483D02*
X020533Y021083D01*
X021533Y021083D02*
X021533Y020483D01*
X022533Y020483D02*
X022533Y021083D01*
X023533Y021083D02*
X023533Y020483D01*
X024533Y020483D02*
X024533Y021083D01*
X025533Y021083D02*
X025533Y020483D01*
X026533Y020483D02*
X026533Y021083D01*
X027533Y021083D02*
X027533Y020483D01*
X029132Y020467D02*
X029132Y021067D01*
X030132Y021067D02*
X030132Y020467D01*
X031132Y020467D02*
X031132Y021067D01*
X032132Y021067D02*
X032132Y020467D01*
X033132Y020467D02*
X033132Y021067D01*
X034132Y021067D02*
X034132Y020467D01*
X035132Y020467D02*
X035132Y021067D01*
X036132Y021067D02*
X036132Y020467D01*
D15*
X008830Y005162D03*
X008830Y001162D03*
D16*
X011102Y003081D03*
X014400Y003083D03*
D17*
X014400Y001683D03*
X011102Y001681D03*
D18*
X007261Y003746D03*
X004901Y003746D03*
X006081Y001776D03*
D19*
X006015Y017284D03*
X005228Y017284D03*
X005228Y018268D03*
X006015Y018268D03*
D20*
X012761Y019876D03*
D21*
X010161Y019010D03*
X007861Y019010D03*
X007861Y020742D03*
X010161Y020742D03*
D22*
X016761Y020876D03*
X016761Y019876D03*
D23*
X014361Y004553D03*
X014361Y004199D03*
D24*
X015338Y004553D02*
X015361Y004576D01*
X017261Y007376D02*
X017761Y007876D01*
X017261Y007376D02*
X006161Y007376D01*
X005661Y007876D01*
X005661Y008076D01*
X007561Y009476D02*
X010061Y009476D01*
X010261Y009676D01*
X010261Y010276D01*
X010561Y010576D01*
X012261Y010576D01*
X012361Y010676D01*
X012361Y011676D02*
X010261Y011676D01*
X008661Y010076D01*
X008161Y010076D01*
X007561Y009476D02*
X007061Y009976D01*
X007061Y010076D01*
X008261Y008076D02*
X008461Y007876D01*
X016761Y007876D01*
X019961Y008776D02*
X019961Y005976D01*
X022361Y003576D01*
X030261Y003576D01*
X026961Y004976D02*
X026818Y004834D01*
X026499Y004834D01*
X027161Y005476D01*
X027165Y005480D01*
X027165Y005729D01*
X026165Y005729D02*
X026165Y005080D01*
X025261Y004176D01*
X022761Y004176D01*
X021261Y005676D01*
X021261Y010276D01*
X024861Y013876D01*
X024861Y019476D01*
X023661Y020176D01*
X023561Y020276D01*
X023561Y020755D01*
X023533Y020783D01*
X022961Y019976D02*
X022433Y020304D01*
X022533Y020783D01*
X022961Y019976D02*
X024461Y019076D01*
X024461Y013976D01*
X020861Y010376D01*
X020861Y005576D01*
X022561Y003876D01*
X025512Y003876D01*
X026499Y004834D01*
X026961Y004976D02*
X037161Y004976D01*
X037161Y005676D01*
X037861Y006176D02*
X037461Y006576D01*
X030012Y006576D01*
X029165Y005729D01*
X025761Y007176D02*
X036761Y007176D01*
X036761Y012211D01*
X036216Y012756D01*
X037216Y011756D02*
X037741Y011756D01*
X037761Y011776D01*
X037761Y006876D01*
X023761Y006876D01*
X023661Y006976D01*
X022461Y005976D02*
X022708Y005729D01*
X023165Y005729D01*
X022461Y005976D02*
X022461Y009976D01*
X026661Y014176D01*
X026661Y020755D01*
X026533Y020783D01*
X027533Y020783D02*
X027061Y019511D01*
X027061Y014076D01*
X023165Y010180D01*
X023165Y008729D01*
X022061Y010076D02*
X022061Y005876D01*
X023161Y004776D01*
X023961Y004776D01*
X024165Y004980D01*
X024165Y005729D01*
X025165Y005729D02*
X025165Y004580D01*
X025061Y004476D01*
X022961Y004476D01*
X021661Y005776D01*
X021661Y010176D01*
X025261Y013776D01*
X025261Y019455D01*
X024533Y020783D01*
X025533Y020783D02*
X025561Y020755D01*
X025561Y020276D01*
X026261Y019476D01*
X026261Y014276D01*
X022061Y010076D01*
X025461Y007476D02*
X025761Y007176D01*
X031165Y008729D02*
X031214Y008729D01*
X032461Y009876D01*
X032461Y013376D01*
X033561Y014976D01*
X033561Y019138D01*
X032132Y020767D01*
X033132Y020767D02*
X033132Y020305D01*
X033861Y019276D01*
X033861Y014876D01*
X032761Y013276D01*
X032761Y009324D01*
X032165Y008729D01*
X033061Y008933D02*
X033165Y008729D01*
X033061Y008933D02*
X033061Y013176D01*
X034161Y014676D01*
X034161Y019576D01*
X034132Y020005D01*
X034132Y020767D01*
X036132Y020767D02*
X036161Y020767D01*
X036161Y017276D01*
X035761Y016876D01*
X035761Y015676D01*
X035191Y015476D01*
X035191Y015576D02*
X035861Y014706D01*
X035861Y014576D01*
X035461Y013776D01*
X035461Y008876D01*
X035314Y008729D01*
X035165Y008729D01*
X034165Y008729D02*
X034165Y009180D01*
X035061Y010076D01*
X035061Y014476D01*
X035161Y014576D01*
X034461Y014576D02*
X033361Y013076D01*
X033361Y010876D01*
X033776Y010561D01*
X034171Y010561D01*
X034461Y014576D02*
X034461Y015822D01*
X035185Y016546D01*
X021061Y015576D02*
X021061Y014576D01*
X020661Y014176D01*
X020661Y013976D01*
X019961Y014476D02*
X018961Y014476D01*
X017961Y014476D01*
X017961Y016476D02*
X018961Y016476D01*
X019961Y016476D01*
X019961Y017476D02*
X018961Y017476D01*
X017961Y017476D01*
X017961Y018476D02*
X018961Y018476D01*
X019961Y018476D01*
X015361Y017676D02*
X014761Y018276D01*
X014761Y019876D01*
X013761Y019876D02*
X013761Y016576D01*
X012761Y015576D01*
X012461Y015576D01*
X012361Y015676D01*
X012361Y014676D02*
X012261Y014576D01*
X008261Y014576D01*
X007861Y014176D01*
X007861Y013576D01*
X011461Y017276D02*
X012061Y016676D01*
X012361Y016676D01*
X011461Y017276D02*
X011461Y018376D01*
X012761Y019676D01*
X012761Y019876D01*
X013261Y020376D02*
X013261Y018576D01*
X012361Y017676D01*
X010161Y017676D02*
X010161Y019010D01*
X010161Y017676D02*
X010061Y017576D01*
X008961Y017576D02*
X007861Y017576D01*
X007861Y018676D01*
X007761Y018776D01*
X007761Y018910D01*
X007861Y019010D01*
X007695Y019176D01*
X005361Y019176D01*
X005228Y019043D01*
X005228Y018268D01*
X013261Y020376D02*
X013761Y020876D01*
X016761Y011876D02*
X016561Y011676D01*
X015361Y011676D01*
X015361Y010676D02*
X017061Y010676D01*
X017761Y011376D01*
X017761Y011876D01*
X034461Y002776D02*
X036261Y004676D01*
X037561Y004676D01*
X037861Y004876D01*
X037861Y006176D01*
D25*
X037161Y005676D03*
X030261Y003576D03*
X025461Y007476D03*
X023661Y006976D03*
X020661Y013976D03*
X021061Y015576D03*
X023061Y015076D03*
X023061Y016076D03*
X027661Y015876D03*
X028661Y015176D03*
X036261Y016376D03*
D26*
X036261Y013776D01*
X037216Y012821D01*
X037216Y012756D01*
X031961Y014276D02*
X031261Y013576D01*
X030161Y013576D01*
X029800Y013937D01*
X029800Y014565D01*
X030661Y015176D02*
X028661Y015176D01*
X027661Y015876D02*
X030861Y015876D01*
X031161Y015576D01*
X031191Y015576D01*
X030661Y015176D02*
X031161Y014776D01*
X031161Y014576D01*
X031961Y014276D02*
X031961Y016476D01*
X031861Y016576D01*
X031261Y016576D01*
X031185Y016500D01*
X031185Y016546D01*
X030161Y013576D02*
X030161Y008733D01*
X030165Y008729D01*
X030165Y007980D01*
X023061Y007976D01*
X023061Y006476D01*
X028161Y006476D01*
X028161Y005733D01*
X028165Y005729D01*
X029161Y001776D02*
X029261Y001676D01*
X029261Y001276D01*
X028861Y000876D01*
X023661Y000876D01*
X022761Y001776D01*
X019961Y001776D01*
X018961Y001776D01*
X017961Y001776D01*
X016861Y002676D02*
X017761Y003776D01*
X017961Y003776D01*
X016697Y004012D02*
X016261Y004448D01*
X016261Y004576D01*
X014638Y004199D02*
X014361Y004199D01*
X014184Y004199D01*
X017961Y004776D02*
X018961Y004776D01*
X019961Y004776D01*
X019961Y002776D02*
X018961Y002776D01*
X017961Y002776D01*
X008261Y012076D02*
X008861Y012676D01*
X012361Y012676D01*
X011661Y012976D02*
X012361Y013676D01*
X015361Y013676D01*
X015861Y013676D01*
X017961Y013476D02*
X018961Y013476D01*
X019961Y013476D01*
X020061Y013576D01*
X023461Y013576D01*
X023931Y014046D01*
X023931Y016916D01*
X023931Y017006D01*
X021561Y019376D01*
X021561Y020755D01*
X021533Y020783D01*
X022261Y017476D02*
X019961Y017476D01*
X019961Y016476D02*
X021861Y016476D01*
X021861Y015876D01*
X022661Y015076D01*
X023061Y015076D01*
X023061Y016076D02*
X022561Y016076D01*
X022261Y016376D01*
X022261Y017476D01*
X016761Y015476D02*
X016661Y015376D01*
X011661Y012976D02*
X009261Y012976D01*
X008961Y013276D01*
X008961Y013576D01*
X008261Y012076D02*
X008161Y012076D01*
X005961Y012106D02*
X005931Y012076D01*
X003761Y018276D02*
X003761Y018476D01*
X011527Y020742D02*
X012161Y021376D01*
X014261Y021376D01*
X014761Y020876D01*
D27*
X011527Y020742D02*
X010161Y020742D01*
X007861Y020742D01*
X007595Y020476D01*
X005761Y020476D01*
X003761Y018476D01*
X003761Y018276D02*
X004753Y017284D01*
X005228Y017284D01*
X005228Y016009D01*
X005961Y015276D01*
X005961Y012106D01*
X005931Y012076D02*
X004761Y012076D01*
X005931Y012076D02*
X007061Y012076D01*
X008161Y012076D01*
X012361Y012676D02*
X015361Y012676D01*
X017161Y012676D01*
X017961Y013476D01*
X016661Y014476D02*
X016661Y015376D01*
X016761Y015476D02*
X017961Y015476D01*
X016661Y014476D02*
X015861Y013676D01*
X017561Y004776D02*
X017961Y004776D01*
X017561Y004776D02*
X016697Y004012D01*
X016697Y003337D01*
X012831Y003410D02*
X011102Y001681D01*
X010582Y001162D01*
X008830Y001162D01*
X008061Y001776D02*
X008361Y002076D01*
X009661Y002076D01*
X027161Y001776D02*
X028161Y001776D01*
D28*
X006081Y001776D02*
X004901Y002956D01*
X004901Y003746D01*
X007261Y003746D02*
X007414Y003746D01*
X008830Y005162D01*
X011102Y003081D02*
X010697Y002676D01*
X010261Y002676D01*
X009661Y002076D01*
X008061Y001776D02*
X006081Y001776D01*
X012831Y003410D02*
X012831Y005026D01*
D29*
X013661Y003676D02*
X014184Y004199D01*
X014638Y004199D02*
X016161Y002676D01*
X016861Y002676D01*
X014400Y001683D02*
X013661Y002423D01*
X013661Y003676D01*
X014361Y004553D02*
X015338Y004553D01*
X015361Y005576D02*
X016261Y005576D01*
X019961Y004776D02*
X020661Y004776D01*
X022161Y003276D01*
X027161Y003276D01*
X027161Y001776D01*
X025161Y001776D02*
X025161Y002476D01*
X024861Y002776D01*
X019961Y002776D01*
D30*
X018961Y002776D03*
X018961Y003776D03*
X018961Y004776D03*
X018961Y001776D03*
X018961Y013476D03*
X018961Y014476D03*
X018961Y015476D03*
X018961Y016476D03*
X018961Y017476D03*
X018961Y018476D03*
M02*
