G75*
G70*
%OFA0B0*%
%FSLAX24Y24*%
%IPPOS*%
%LPD*%
%AMOC8*
5,1,8,0,0,1.08239X$1,22.5*
%
%ADD10C,0.0520*%
%ADD11OC8,0.0600*%
%ADD12OC8,0.0520*%
%ADD13C,0.0440*%
%ADD14C,0.0600*%
%ADD15C,0.0660*%
%ADD16OC8,0.0630*%
%ADD17C,0.0630*%
%ADD18OC8,0.1900*%
%ADD19OC8,0.0574*%
%ADD20R,0.0600X0.0600*%
%ADD21C,0.0600*%
%ADD22C,0.0100*%
%ADD23C,0.0396*%
%ADD24C,0.0320*%
%ADD25C,0.0160*%
%ADD26C,0.0240*%
%ADD27C,0.0500*%
%ADD28C,0.0475*%
%ADD29C,0.0120*%
D10*
X012101Y008676D02*
X012621Y008676D01*
X012621Y009676D02*
X012101Y009676D01*
X012101Y010676D02*
X012621Y010676D01*
X012621Y011676D02*
X012101Y011676D01*
X012101Y012676D02*
X012621Y012676D01*
X012621Y013676D02*
X012101Y013676D01*
X012101Y014676D02*
X012621Y014676D01*
X012621Y015676D02*
X012101Y015676D01*
X012101Y016676D02*
X012621Y016676D01*
X012621Y017676D02*
X012101Y017676D01*
X015101Y017676D02*
X015621Y017676D01*
X015621Y016676D02*
X015101Y016676D01*
X015101Y015676D02*
X015621Y015676D01*
X015621Y014676D02*
X015101Y014676D01*
X015101Y013676D02*
X015621Y013676D01*
X015621Y012676D02*
X015101Y012676D01*
X015101Y011676D02*
X015621Y011676D01*
X015621Y010676D02*
X015101Y010676D01*
X015101Y009676D02*
X015621Y009676D01*
X015621Y008676D02*
X015101Y008676D01*
X023165Y008469D02*
X023165Y008989D01*
X024165Y008989D02*
X024165Y008469D01*
X025165Y008469D02*
X025165Y008989D01*
X026165Y008989D02*
X026165Y008469D01*
X027165Y008469D02*
X027165Y008989D01*
X028165Y008989D02*
X028165Y008469D01*
X029165Y008469D02*
X029165Y008989D01*
X030165Y008989D02*
X030165Y008469D01*
X031165Y008469D02*
X031165Y008989D01*
X032165Y008989D02*
X032165Y008469D01*
X033165Y008469D02*
X033165Y008989D01*
X034165Y008989D02*
X034165Y008469D01*
X035165Y008469D02*
X035165Y008989D01*
X036165Y008989D02*
X036165Y008469D01*
X036165Y005989D02*
X036165Y005469D01*
X035165Y005469D02*
X035165Y005989D01*
X034165Y005989D02*
X034165Y005469D01*
X033165Y005469D02*
X033165Y005989D01*
X032165Y005989D02*
X032165Y005469D01*
X031165Y005469D02*
X031165Y005989D01*
X030165Y005989D02*
X030165Y005469D01*
X029165Y005469D02*
X029165Y005989D01*
X028165Y005989D02*
X028165Y005469D01*
X027165Y005469D02*
X027165Y005989D01*
X026165Y005989D02*
X026165Y005469D01*
X025165Y005469D02*
X025165Y005989D01*
X024165Y005989D02*
X024165Y005469D01*
X023165Y005469D02*
X023165Y005989D01*
D11*
X036216Y010756D03*
X037216Y010756D03*
X037216Y011756D03*
X036216Y011756D03*
X036216Y012756D03*
X037216Y012756D03*
X014761Y019876D03*
X013761Y019876D03*
X013761Y020876D03*
X012761Y020876D03*
X014761Y020876D03*
D12*
X010061Y017576D03*
X008961Y017576D03*
X007861Y017576D03*
X007861Y013576D03*
X008961Y013576D03*
X010061Y013576D03*
X008161Y012076D03*
X007061Y012076D03*
X005931Y012076D03*
X004761Y012076D03*
X003511Y012866D03*
X004761Y010076D03*
X005931Y010076D03*
X007061Y010076D03*
X008161Y010076D03*
X008261Y008076D03*
X007261Y008076D03*
X005661Y008076D03*
X004661Y008076D03*
X003511Y008866D03*
X015361Y005576D03*
X016261Y005576D03*
X016261Y004576D03*
X015361Y004576D03*
X016697Y003337D03*
X016697Y001337D03*
X016761Y007876D03*
X017761Y007876D03*
X019961Y008776D03*
X019961Y010776D03*
X017761Y011876D03*
X016761Y011876D03*
X023931Y016916D03*
X023931Y017916D03*
X025761Y017916D03*
X025761Y016916D03*
X027625Y016546D03*
X028728Y016566D03*
X029800Y016565D03*
X031185Y016546D03*
X031191Y015576D03*
X031161Y014576D03*
X029800Y014565D03*
X028728Y014566D03*
X027625Y014546D03*
X031191Y017546D03*
X031201Y018536D03*
X035201Y018536D03*
X035191Y017546D03*
X035185Y016546D03*
X035191Y015576D03*
X035161Y014576D03*
D13*
X029162Y013099D02*
X029162Y012659D01*
X027162Y012659D02*
X027162Y013099D01*
X010481Y011676D02*
X010041Y011676D01*
X010041Y009676D02*
X010481Y009676D01*
D14*
X004661Y013776D02*
X004661Y014376D01*
X003661Y014376D02*
X003661Y013776D01*
X017661Y013476D02*
X018261Y013476D01*
X018261Y014476D02*
X017661Y014476D01*
X017661Y015476D02*
X018261Y015476D01*
X018261Y016476D02*
X017661Y016476D01*
X017661Y017476D02*
X018261Y017476D01*
X018261Y018476D02*
X017661Y018476D01*
X019661Y018476D02*
X020261Y018476D01*
X020261Y017476D02*
X019661Y017476D01*
X019661Y016476D02*
X020261Y016476D01*
X020261Y015476D02*
X019661Y015476D01*
X019661Y014476D02*
X020261Y014476D01*
X020261Y013476D02*
X019661Y013476D01*
X031311Y012341D02*
X031911Y012341D01*
X033871Y012341D02*
X034471Y012341D01*
X034471Y010561D02*
X033871Y010561D01*
X031911Y010561D02*
X031311Y010561D01*
X020261Y004776D02*
X019661Y004776D01*
X018261Y004776D02*
X017661Y004776D01*
X017661Y003776D02*
X018261Y003776D01*
X018261Y002776D02*
X017661Y002776D01*
X017661Y001776D02*
X018261Y001776D01*
X019661Y001776D02*
X020261Y001776D01*
X020261Y002776D02*
X019661Y002776D01*
X019661Y003776D02*
X020261Y003776D01*
X024161Y002076D02*
X024161Y001476D01*
X025161Y001476D02*
X025161Y002076D01*
X026161Y002076D02*
X026161Y001476D01*
X027161Y001476D02*
X027161Y002076D01*
X028161Y002076D02*
X028161Y001476D01*
X029161Y001476D02*
X029161Y002076D01*
X031173Y002087D02*
X031173Y001487D01*
X032173Y001487D02*
X032173Y002087D01*
X033173Y002087D02*
X033173Y001487D01*
X034173Y001487D02*
X034173Y002087D01*
X035173Y002087D02*
X035173Y001487D01*
X036173Y001487D02*
X036173Y002087D01*
X012831Y004726D02*
X012831Y005326D01*
X011831Y005326D02*
X011831Y004726D01*
X010831Y004726D02*
X010831Y005326D01*
X020533Y020483D02*
X020533Y021083D01*
X021533Y021083D02*
X021533Y020483D01*
X022533Y020483D02*
X022533Y021083D01*
X023533Y021083D02*
X023533Y020483D01*
X024533Y020483D02*
X024533Y021083D01*
X025533Y021083D02*
X025533Y020483D01*
X026533Y020483D02*
X026533Y021083D01*
X027533Y021083D02*
X027533Y020483D01*
X029132Y020467D02*
X029132Y021067D01*
X030132Y021067D02*
X030132Y020467D01*
X031132Y020467D02*
X031132Y021067D01*
X032132Y021067D02*
X032132Y020467D01*
X033132Y020467D02*
X033132Y021067D01*
X034132Y021067D02*
X034132Y020467D01*
X035132Y020467D02*
X035132Y021067D01*
X036132Y021067D02*
X036132Y020467D01*
D15*
X008830Y005162D03*
X008830Y001162D03*
D16*
X011102Y003081D03*
X014400Y003083D03*
D17*
X014400Y001683D03*
X011102Y001681D03*
D18*
X006081Y001776D03*
X007261Y003746D03*
X004901Y003746D03*
D19*
X005228Y017284D03*
X006015Y017284D03*
X006015Y018268D03*
X005228Y018268D03*
D20*
X012761Y019876D03*
D21*
X016761Y019876D03*
X016761Y020876D03*
D22*
X016761Y019876D02*
X016761Y017576D01*
X015861Y016676D01*
X015361Y016676D01*
X016261Y016276D02*
X017461Y017476D01*
X017961Y017476D01*
X017961Y016476D02*
X017861Y016376D01*
X017461Y016376D01*
X016961Y015876D01*
X016961Y012976D01*
X017261Y012676D01*
X017261Y009076D01*
X016861Y008676D01*
X015361Y008676D01*
X015861Y007876D02*
X016361Y008376D01*
X019961Y008376D01*
X019961Y008776D01*
X019961Y010776D02*
X020761Y010776D01*
X020761Y013876D01*
X020661Y013976D01*
X021761Y012776D02*
X024165Y010372D01*
X024165Y008729D01*
X025165Y008729D02*
X025165Y009772D01*
X022061Y012876D01*
X022061Y018976D01*
X022561Y019476D01*
X028841Y019476D01*
X030132Y020767D01*
X029132Y020767D02*
X028141Y019776D01*
X022561Y019776D01*
X021761Y018976D01*
X021761Y012776D01*
X022361Y012976D02*
X026165Y009172D01*
X026165Y008729D01*
X026161Y007476D02*
X025461Y007476D01*
X026161Y007476D02*
X026161Y005733D01*
X026165Y005729D01*
X025165Y005729D02*
X025161Y005733D01*
X025161Y006576D01*
X024761Y006976D01*
X023661Y006976D01*
X030261Y003576D02*
X030461Y003576D01*
X030561Y003476D01*
X030561Y004076D01*
X030661Y004176D01*
X030661Y010276D01*
X030946Y010561D01*
X031611Y010561D01*
X034171Y010561D01*
X034171Y010756D01*
X036216Y010756D01*
X036161Y010756D02*
X036161Y008776D01*
X037761Y006876D02*
X037161Y006276D01*
X037161Y005676D01*
X037761Y006876D02*
X037761Y012276D01*
X035696Y012276D01*
X034661Y013311D01*
X034661Y014876D01*
X034861Y015076D01*
X035461Y015076D01*
X035761Y015476D01*
X035761Y017576D01*
X035731Y017546D01*
X035191Y017546D01*
X036761Y018376D02*
X036761Y015976D01*
X035361Y014576D01*
X035161Y014576D01*
X035696Y012276D02*
X036216Y011756D01*
X031191Y017546D02*
X026661Y017546D01*
X026661Y017976D01*
X025761Y017976D01*
X025761Y017916D01*
X023931Y017916D02*
X023931Y018536D01*
X031201Y018536D01*
X029541Y019176D02*
X022561Y019176D01*
X022361Y018976D01*
X022361Y012976D01*
X021061Y015576D02*
X021161Y015776D01*
X021161Y018376D01*
X021061Y018476D01*
X016261Y016276D02*
X016261Y010176D01*
X015761Y009676D01*
X015361Y009676D01*
X015861Y007876D02*
X014361Y007876D01*
X014361Y017676D01*
X015361Y017676D01*
X010061Y017576D02*
X010061Y018276D01*
X009561Y018776D01*
X006523Y018776D01*
X006015Y018268D01*
X010061Y013576D02*
X010961Y013576D01*
X011361Y013176D01*
X011361Y010376D01*
X012061Y009676D01*
X012361Y009676D01*
X016261Y005576D02*
X016461Y005576D01*
X024161Y001776D02*
X024261Y001676D01*
X024261Y000976D01*
X024361Y000876D01*
X030061Y000876D01*
X030561Y001476D01*
X030561Y003476D01*
X036761Y018376D02*
X035161Y019976D01*
X035161Y020767D01*
X035132Y020767D01*
X031132Y020767D02*
X029541Y019176D01*
X004761Y010076D02*
X004561Y009876D01*
X003561Y009876D01*
X003511Y009826D01*
X003511Y008866D01*
D23*
X020661Y013976D03*
X021061Y015576D03*
X023061Y015076D03*
X023061Y016076D03*
X027661Y015876D03*
X028661Y015176D03*
X036261Y016376D03*
X025461Y007476D03*
X023661Y006976D03*
X030261Y003576D03*
X037161Y005676D03*
D24*
X030165Y005729D02*
X030165Y004780D01*
X027161Y001776D01*
X028161Y001776D01*
X026161Y001776D02*
X026161Y002776D01*
X026261Y002876D01*
X028165Y004780D01*
X028165Y005729D01*
X030061Y005833D02*
X030061Y007076D01*
X029165Y007972D01*
X029165Y008729D01*
X017961Y001776D02*
X017521Y001337D01*
X016697Y001337D01*
X015421Y001337D01*
X015061Y000976D01*
X012007Y000976D01*
X011102Y001681D01*
X010161Y002876D02*
X010161Y003676D01*
X011779Y003758D02*
X012453Y003083D01*
X014400Y003083D01*
X014608Y002876D02*
X015861Y002876D01*
X016321Y003337D01*
X016697Y003337D01*
X014400Y001683D02*
X013608Y002476D01*
X005931Y010076D02*
X005931Y011006D01*
X005261Y011676D01*
X004861Y011076D02*
X003861Y011076D01*
X003461Y011476D01*
X003461Y012816D01*
X003511Y012866D01*
X003661Y013016D01*
X003661Y014076D01*
X004661Y014076D02*
X004961Y014076D01*
X005961Y015076D01*
X005961Y017230D01*
X008961Y013576D02*
X008361Y012976D01*
X005661Y012976D01*
X005261Y012576D01*
X004861Y011076D02*
X005861Y010076D01*
X027644Y016565D02*
X029800Y016565D01*
X029799Y016566D02*
X028728Y016566D01*
D25*
X029799Y016566D02*
X029800Y016565D01*
X030561Y015804D01*
X030561Y012276D01*
X029165Y010880D01*
X029165Y008729D01*
X030061Y005833D02*
X030165Y005729D01*
X026261Y002876D02*
X024461Y002876D01*
X022561Y004776D01*
X022561Y010976D01*
X021061Y012476D01*
X021061Y014376D01*
X019961Y015476D01*
X023061Y015076D02*
X023161Y015176D01*
X028661Y015176D01*
X027661Y015876D02*
X023461Y015876D01*
X023061Y016076D01*
X023931Y016916D02*
X025761Y016916D01*
X026131Y016546D01*
X027625Y016546D01*
X027644Y016565D01*
X031185Y016546D02*
X031215Y016576D01*
X034661Y016576D01*
X034661Y018576D01*
X034761Y018476D01*
X035261Y018476D01*
X035661Y018476D01*
X036261Y017876D01*
X036261Y016376D01*
X035261Y018476D02*
X035201Y018536D01*
X034171Y012341D02*
X031611Y012341D01*
X030626Y012341D01*
X030561Y012276D01*
X034171Y012341D02*
X034171Y011286D01*
X034161Y011276D01*
X036696Y011276D01*
X037216Y010756D01*
X017961Y002776D02*
X017761Y002776D01*
X017161Y003376D01*
X017161Y004876D01*
X016461Y005576D01*
X014400Y003083D02*
X014608Y002876D01*
X013608Y002476D02*
X010561Y002476D01*
X010161Y002876D01*
X011779Y003758D02*
X011831Y003810D01*
X007261Y008076D02*
X005931Y009406D01*
X005931Y010076D01*
X005861Y010076D01*
X005931Y010076D02*
X004661Y008806D01*
X004661Y008076D01*
X005261Y011676D02*
X005261Y012576D01*
X012361Y013676D02*
X013261Y013676D01*
X013261Y020376D01*
X012761Y020876D01*
X014761Y020876D02*
X016761Y020876D01*
X006015Y017284D02*
X005961Y017230D01*
D26*
X021661Y003876D02*
X022561Y004776D01*
X021661Y003876D02*
X019961Y003776D01*
D27*
X011831Y003810D02*
X011831Y005026D01*
X010831Y005026D02*
X010831Y004346D01*
X010161Y003676D01*
X011102Y003081D02*
X011779Y003758D01*
D28*
X018961Y003776D03*
X018961Y002776D03*
X018961Y001776D03*
X018961Y004776D03*
X018961Y013476D03*
X018961Y014476D03*
X018961Y015476D03*
X018961Y016476D03*
X018961Y017476D03*
X018961Y018476D03*
D29*
X020561Y019876D02*
X021461Y018976D01*
X021461Y012576D01*
X023661Y010376D01*
X023661Y008076D01*
X023761Y007976D01*
X028161Y007976D01*
X029161Y006976D01*
X029161Y005733D01*
X029165Y005729D01*
X031165Y005729D02*
X031165Y001787D01*
X031173Y001787D01*
X032173Y001787D02*
X032173Y005729D01*
X032165Y005729D01*
X033165Y005729D02*
X033165Y001787D01*
X033173Y001787D01*
X034161Y001776D02*
X034161Y005729D01*
X034165Y005729D01*
X035165Y005729D02*
X035165Y001787D01*
X035173Y001787D01*
X036173Y001787D02*
X036173Y005729D01*
X036165Y005729D01*
X036165Y008729D02*
X036165Y008776D01*
X036161Y008776D01*
X036216Y010756D02*
X036161Y010756D01*
X029162Y012776D02*
X029162Y012879D01*
X029161Y012879D01*
X029161Y013776D01*
X028728Y013776D01*
X028728Y014566D01*
X027625Y014546D02*
X027162Y014546D01*
X027162Y012879D01*
X027165Y012879D01*
X027165Y008729D01*
X028161Y008729D02*
X028161Y012776D01*
X029162Y012776D01*
X028165Y008729D02*
X028161Y008729D01*
X020561Y019876D02*
X020561Y020755D01*
X020533Y020783D01*
M02*
