G75*
G70*
%OFA0B0*%
%FSLAX24Y24*%
%IPPOS*%
%LPD*%
%AMOC8*
5,1,8,0,0,1.08239X$1,22.5*
%
%ADD10C,0.0000*%
D10*
X002610Y000592D02*
X036161Y000576D01*
X037171Y000572D01*
X037167Y000592D01*
X037161Y001776D01*
X038176Y002782D01*
X038186Y015732D01*
X037161Y016732D01*
X037161Y021282D01*
X036481Y021796D01*
X002610Y021812D01*
X002610Y000592D01*
X003708Y015406D02*
X003710Y015448D01*
X003716Y015490D01*
X003726Y015532D01*
X003739Y015572D01*
X003757Y015611D01*
X003778Y015648D01*
X003802Y015682D01*
X003830Y015715D01*
X003860Y015745D01*
X003893Y015771D01*
X003928Y015795D01*
X003966Y015815D01*
X004005Y015831D01*
X004045Y015844D01*
X004087Y015853D01*
X004129Y015858D01*
X004172Y015859D01*
X004214Y015856D01*
X004256Y015849D01*
X004297Y015838D01*
X004337Y015823D01*
X004375Y015805D01*
X004412Y015783D01*
X004446Y015758D01*
X004478Y015730D01*
X004506Y015699D01*
X004532Y015665D01*
X004555Y015629D01*
X004574Y015592D01*
X004590Y015552D01*
X004602Y015511D01*
X004610Y015470D01*
X004614Y015427D01*
X004614Y015385D01*
X004610Y015342D01*
X004602Y015301D01*
X004590Y015260D01*
X004574Y015220D01*
X004555Y015183D01*
X004532Y015147D01*
X004506Y015113D01*
X004478Y015082D01*
X004446Y015054D01*
X004412Y015029D01*
X004375Y015007D01*
X004337Y014989D01*
X004297Y014974D01*
X004256Y014963D01*
X004214Y014956D01*
X004172Y014953D01*
X004129Y014954D01*
X004087Y014959D01*
X004045Y014968D01*
X004005Y014981D01*
X003966Y014997D01*
X003928Y015017D01*
X003893Y015041D01*
X003860Y015067D01*
X003830Y015097D01*
X003802Y015130D01*
X003778Y015164D01*
X003757Y015201D01*
X003739Y015240D01*
X003726Y015280D01*
X003716Y015322D01*
X003710Y015364D01*
X003708Y015406D01*
X003708Y020146D02*
X003710Y020188D01*
X003716Y020230D01*
X003726Y020272D01*
X003739Y020312D01*
X003757Y020351D01*
X003778Y020388D01*
X003802Y020422D01*
X003830Y020455D01*
X003860Y020485D01*
X003893Y020511D01*
X003928Y020535D01*
X003966Y020555D01*
X004005Y020571D01*
X004045Y020584D01*
X004087Y020593D01*
X004129Y020598D01*
X004172Y020599D01*
X004214Y020596D01*
X004256Y020589D01*
X004297Y020578D01*
X004337Y020563D01*
X004375Y020545D01*
X004412Y020523D01*
X004446Y020498D01*
X004478Y020470D01*
X004506Y020439D01*
X004532Y020405D01*
X004555Y020369D01*
X004574Y020332D01*
X004590Y020292D01*
X004602Y020251D01*
X004610Y020210D01*
X004614Y020167D01*
X004614Y020125D01*
X004610Y020082D01*
X004602Y020041D01*
X004590Y020000D01*
X004574Y019960D01*
X004555Y019923D01*
X004532Y019887D01*
X004506Y019853D01*
X004478Y019822D01*
X004446Y019794D01*
X004412Y019769D01*
X004375Y019747D01*
X004337Y019729D01*
X004297Y019714D01*
X004256Y019703D01*
X004214Y019696D01*
X004172Y019693D01*
X004129Y019694D01*
X004087Y019699D01*
X004045Y019708D01*
X004005Y019721D01*
X003966Y019737D01*
X003928Y019757D01*
X003893Y019781D01*
X003860Y019807D01*
X003830Y019837D01*
X003802Y019870D01*
X003778Y019904D01*
X003757Y019941D01*
X003739Y019980D01*
X003726Y020020D01*
X003716Y020062D01*
X003710Y020104D01*
X003708Y020146D01*
X036631Y014776D02*
X036633Y014826D01*
X036639Y014876D01*
X036649Y014925D01*
X036663Y014973D01*
X036680Y015020D01*
X036701Y015065D01*
X036726Y015109D01*
X036754Y015150D01*
X036786Y015189D01*
X036820Y015226D01*
X036857Y015260D01*
X036897Y015290D01*
X036939Y015317D01*
X036983Y015341D01*
X037029Y015362D01*
X037076Y015378D01*
X037124Y015391D01*
X037174Y015400D01*
X037223Y015405D01*
X037274Y015406D01*
X037324Y015403D01*
X037373Y015396D01*
X037422Y015385D01*
X037470Y015370D01*
X037516Y015352D01*
X037561Y015330D01*
X037604Y015304D01*
X037645Y015275D01*
X037684Y015243D01*
X037720Y015208D01*
X037752Y015170D01*
X037782Y015130D01*
X037809Y015087D01*
X037832Y015043D01*
X037851Y014997D01*
X037867Y014949D01*
X037879Y014900D01*
X037887Y014851D01*
X037891Y014801D01*
X037891Y014751D01*
X037887Y014701D01*
X037879Y014652D01*
X037867Y014603D01*
X037851Y014555D01*
X037832Y014509D01*
X037809Y014465D01*
X037782Y014422D01*
X037752Y014382D01*
X037720Y014344D01*
X037684Y014309D01*
X037645Y014277D01*
X037604Y014248D01*
X037561Y014222D01*
X037516Y014200D01*
X037470Y014182D01*
X037422Y014167D01*
X037373Y014156D01*
X037324Y014149D01*
X037274Y014146D01*
X037223Y014147D01*
X037174Y014152D01*
X037124Y014161D01*
X037076Y014174D01*
X037029Y014190D01*
X036983Y014211D01*
X036939Y014235D01*
X036897Y014262D01*
X036857Y014292D01*
X036820Y014326D01*
X036786Y014363D01*
X036754Y014402D01*
X036726Y014443D01*
X036701Y014487D01*
X036680Y014532D01*
X036663Y014579D01*
X036649Y014627D01*
X036639Y014676D01*
X036633Y014726D01*
X036631Y014776D01*
X036631Y003776D02*
X036633Y003826D01*
X036639Y003876D01*
X036649Y003925D01*
X036663Y003973D01*
X036680Y004020D01*
X036701Y004065D01*
X036726Y004109D01*
X036754Y004150D01*
X036786Y004189D01*
X036820Y004226D01*
X036857Y004260D01*
X036897Y004290D01*
X036939Y004317D01*
X036983Y004341D01*
X037029Y004362D01*
X037076Y004378D01*
X037124Y004391D01*
X037174Y004400D01*
X037223Y004405D01*
X037274Y004406D01*
X037324Y004403D01*
X037373Y004396D01*
X037422Y004385D01*
X037470Y004370D01*
X037516Y004352D01*
X037561Y004330D01*
X037604Y004304D01*
X037645Y004275D01*
X037684Y004243D01*
X037720Y004208D01*
X037752Y004170D01*
X037782Y004130D01*
X037809Y004087D01*
X037832Y004043D01*
X037851Y003997D01*
X037867Y003949D01*
X037879Y003900D01*
X037887Y003851D01*
X037891Y003801D01*
X037891Y003751D01*
X037887Y003701D01*
X037879Y003652D01*
X037867Y003603D01*
X037851Y003555D01*
X037832Y003509D01*
X037809Y003465D01*
X037782Y003422D01*
X037752Y003382D01*
X037720Y003344D01*
X037684Y003309D01*
X037645Y003277D01*
X037604Y003248D01*
X037561Y003222D01*
X037516Y003200D01*
X037470Y003182D01*
X037422Y003167D01*
X037373Y003156D01*
X037324Y003149D01*
X037274Y003146D01*
X037223Y003147D01*
X037174Y003152D01*
X037124Y003161D01*
X037076Y003174D01*
X037029Y003190D01*
X036983Y003211D01*
X036939Y003235D01*
X036897Y003262D01*
X036857Y003292D01*
X036820Y003326D01*
X036786Y003363D01*
X036754Y003402D01*
X036726Y003443D01*
X036701Y003487D01*
X036680Y003532D01*
X036663Y003579D01*
X036649Y003627D01*
X036639Y003676D01*
X036633Y003726D01*
X036631Y003776D01*
M02*
