%
M48
M72
T01C0.0236
T02C0.0240
T03C0.0315
T04C0.0320
T05C0.0374
T06C0.0400
T07C0.0440
T08C0.0906
T09C0.1260
T10C0.1300
%
T01
X23661Y6976
X25461Y7476
X30261Y3576
X37161Y5676
X28661Y15176
X27661Y15876
X23061Y16076
X23061Y15076
X21061Y15576
X20661Y13976
X36261Y16376
T02
X29162Y12879
X27162Y12879
X10261Y11676
X10261Y9676
T03
X18961Y13476
X18961Y14476
X18961Y15476
X18961Y16476
X18961Y17476
X18961Y18476
X18961Y4776
X18961Y3776
X18961Y2776
X18961Y1776
T04
X16697Y1337
X14400Y1683
X14400Y3083
X16697Y3337
X16261Y4576
X15361Y4576
X15361Y5576
X16261Y5576
X16761Y7876
X17761Y7876
X19961Y8776
X23165Y8729
X24165Y8729
X25165Y8729
X26165Y8729
X27165Y8729
X28165Y8729
X29165Y8729
X30165Y8729
X31165Y8729
X32165Y8729
X33165Y8729
X34165Y8729
X35165Y8729
X36165Y8729
X36165Y5729
X35165Y5729
X34165Y5729
X33165Y5729
X32165Y5729
X31165Y5729
X30165Y5729
X29165Y5729
X28165Y5729
X27165Y5729
X26165Y5729
X25165Y5729
X24165Y5729
X23165Y5729
X15361Y8676
X15361Y9676
X15361Y10676
X15361Y11676
X16761Y11876
X17761Y11876
X19961Y10776
X15361Y12676
X15361Y13676
X15361Y14676
X15361Y15676
X15361Y16676
X15361Y17676
X12361Y17676
X12361Y16676
X12361Y15676
X12361Y14676
X12361Y13676
X12361Y12676
X12361Y11676
X12361Y10676
X12361Y9676
X12361Y8676
X8261Y8076
X7261Y8076
X5661Y8076
X4661Y8076
X3511Y8866
X4761Y10076
X5931Y10076
X7061Y10076
X8161Y10076
X8161Y12076
X7061Y12076
X5931Y12076
X4761Y12076
X3511Y12866
X7861Y13576
X8961Y13576
X10061Y13576
X10061Y17576
X8961Y17576
X7861Y17576
X23931Y17916
X23931Y16916
X25761Y16916
X25761Y17916
X27625Y16546
X28728Y16566
X29800Y16565
X31185Y16546
X31191Y15576
X31161Y14576
X29800Y14565
X28728Y14566
X27625Y14546
X31191Y17546
X31201Y18536
X35201Y18536
X35191Y17546
X35185Y16546
X35191Y15576
X35161Y14576
X11102Y3081
X11102Y1681
T05
X6015Y17284
X5228Y17284
X5228Y18268
X6015Y18268
T06
X12761Y19876
X13761Y19876
X14761Y19876
X14761Y20876
X13761Y20876
X12761Y20876
X16761Y20876
X16761Y19876
X17961Y18476
X17961Y17476
X17961Y16476
X17961Y15476
X17961Y14476
X17961Y13476
X19961Y13476
X19961Y14476
X19961Y15476
X19961Y16476
X19961Y17476
X19961Y18476
X20533Y20783
X21533Y20783
X22533Y20783
X23533Y20783
X24533Y20783
X25533Y20783
X26533Y20783
X27533Y20783
X29132Y20767
X30132Y20767
X31132Y20767
X32132Y20767
X33132Y20767
X34132Y20767
X35132Y20767
X36132Y20767
X36216Y12756
X37216Y12756
X37216Y11756
X36216Y11756
X36216Y10756
X37216Y10756
X34171Y10561
X31611Y10561
X31611Y12341
X34171Y12341
X19961Y4776
X19961Y3776
X19961Y2776
X19961Y1776
X17961Y1776
X17961Y2776
X17961Y3776
X17961Y4776
X12831Y5026
X11831Y5026
X10831Y5026
X24161Y1776
X25161Y1776
X26161Y1776
X27161Y1776
X28161Y1776
X29161Y1776
X31173Y1787
X32173Y1787
X33173Y1787
X34173Y1787
X35173Y1787
X36173Y1787
X4661Y14076
X3661Y14076
T07
X8830Y5162
X8830Y1162
T08
X4161Y15406
X4161Y20146
T09
X37261Y14776
X37261Y3776
T10
X6081Y1776
X7261Y3746
X4901Y3746
M30
