%
M48
M72
T01C0.0240
T02C0.0320
T03C0.0394
T04C0.0400
T05C0.0787
T06C0.1250
%
T01
X3693Y7774
X2013Y10974
X6813Y10974
X8013Y11614
X9373Y10414
X7373Y14334
X11693Y14894
X12733Y16094
X17133Y18334
X15933Y10174
X23453Y9614
T02
X20053Y14494
X20053Y15494
X20053Y16494
X20053Y17494
X20053Y18494
X14053Y18494
X14053Y17494
X14053Y16494
X14053Y15494
X14053Y14494
X14553Y8494
X15553Y8494
X16553Y8494
X17553Y8494
X17553Y5494
X16553Y5494
X15553Y5494
X14553Y5494
X13553Y5494
X12553Y5494
X11553Y5494
X10553Y5494
X9553Y5494
X8553Y5494
X7553Y5494
X6553Y5494
X5553Y5494
X4553Y5494
X4553Y8494
X5553Y8494
X6553Y8494
X7553Y8494
X8553Y8494
X9553Y8494
X10553Y8494
X11553Y8494
X12553Y8494
X13553Y8494
T03
X24309Y8510
X24309Y9494
X24309Y10478
X24309Y4978
X24309Y3994
X24309Y3010
T04
X2053Y1494
X3053Y1494
X5553Y1494
X6553Y1494
X7553Y1494
X8553Y1494
X9553Y1494
X10553Y1494
X12553Y1494
X13553Y1494
X14553Y1494
X15553Y1494
X16553Y1494
X17553Y1494
X8443Y9714
X6663Y9714
X6663Y12274
X6663Y13214
X5443Y13214
X3663Y13214
X1553Y13494
X1553Y14494
X1553Y15494
X1553Y16494
X1553Y17494
X3663Y15774
X5443Y15774
X6663Y15774
X6663Y16714
X8443Y16714
X8443Y15774
X9663Y15774
X11443Y15774
X11443Y13214
X13163Y12774
X14943Y12774
X17608Y12474
X18608Y12474
X18608Y11474
X18608Y10474
X17608Y10474
X17608Y11474
X14943Y10214
X13163Y10214
X9663Y13214
X8443Y13214
X8443Y12274
X1553Y12494
X6663Y19274
X6953Y20494
X7953Y20494
X8953Y20494
X8443Y19274
X10553Y20494
X11553Y20494
X12553Y20494
X13553Y20494
X14553Y20494
X15553Y20494
X16553Y20494
X17553Y20494
X24053Y18994
X24053Y17994
X24053Y16994
X24053Y15994
X24053Y14994
X24053Y13994
X5953Y20494
X4953Y20494
X3953Y20494
X2953Y20494
X1953Y20494
T05
X21553Y11226
X21553Y7762
X21553Y5726
X21553Y2262
T06
X2553Y3994
M30
