G75*
G70*
%OFA0B0*%
%FSLAX24Y24*%
%IPPOS*%
%LPD*%
%AMOC8*
5,1,8,0,0,1.08239X$1,22.5*
%
%ADD10C,0.0000*%
D10*
X000553Y000494D02*
X000553Y021990D01*
X025423Y021990D01*
X025423Y000494D01*
X000553Y000494D01*
X001928Y003994D02*
X001930Y004044D01*
X001936Y004093D01*
X001946Y004142D01*
X001959Y004189D01*
X001977Y004236D01*
X001998Y004281D01*
X002022Y004324D01*
X002050Y004365D01*
X002081Y004404D01*
X002115Y004440D01*
X002152Y004474D01*
X002192Y004504D01*
X002233Y004531D01*
X002277Y004555D01*
X002322Y004575D01*
X002369Y004591D01*
X002417Y004604D01*
X002466Y004613D01*
X002516Y004618D01*
X002565Y004619D01*
X002615Y004616D01*
X002664Y004609D01*
X002713Y004598D01*
X002760Y004584D01*
X002806Y004565D01*
X002851Y004543D01*
X002894Y004518D01*
X002934Y004489D01*
X002972Y004457D01*
X003008Y004423D01*
X003041Y004385D01*
X003070Y004345D01*
X003096Y004303D01*
X003119Y004259D01*
X003138Y004213D01*
X003154Y004166D01*
X003166Y004117D01*
X003174Y004068D01*
X003178Y004019D01*
X003178Y003969D01*
X003174Y003920D01*
X003166Y003871D01*
X003154Y003822D01*
X003138Y003775D01*
X003119Y003729D01*
X003096Y003685D01*
X003070Y003643D01*
X003041Y003603D01*
X003008Y003565D01*
X002972Y003531D01*
X002934Y003499D01*
X002894Y003470D01*
X002851Y003445D01*
X002806Y003423D01*
X002760Y003404D01*
X002713Y003390D01*
X002664Y003379D01*
X002615Y003372D01*
X002565Y003369D01*
X002516Y003370D01*
X002466Y003375D01*
X002417Y003384D01*
X002369Y003397D01*
X002322Y003413D01*
X002277Y003433D01*
X002233Y003457D01*
X002192Y003484D01*
X002152Y003514D01*
X002115Y003548D01*
X002081Y003584D01*
X002050Y003623D01*
X002022Y003664D01*
X001998Y003707D01*
X001977Y003752D01*
X001959Y003799D01*
X001946Y003846D01*
X001936Y003895D01*
X001930Y003944D01*
X001928Y003994D01*
M02*
