G75*
G70*
%OFA0B0*%
%FSLAX24Y24*%
%IPPOS*%
%LPD*%
%AMOC8*
5,1,8,0,0,1.08239X$1,22.5*
%
%ADD10C,0.1340*%
%ADD11O,0.0600X0.1120*%
%ADD12OC8,0.0680*%
%ADD13OC8,0.0600*%
%ADD14O,0.0520X0.0960*%
%ADD15O,0.0680X0.1280*%
%ADD16C,0.0740*%
%ADD17OC8,0.0710*%
%ADD18C,0.0710*%
%ADD19O,0.1280X0.0680*%
%ADD20OC8,0.1980*%
%ADD21OC8,0.0654*%
%ADD22C,0.0986*%
%ADD23C,0.0480*%
D10*
X008661Y021703D03*
X028661Y015703D03*
X028661Y004703D03*
D11*
X027665Y006656D03*
X026665Y006656D03*
X025665Y006656D03*
X024665Y006656D03*
X023665Y006656D03*
X022665Y006656D03*
X021665Y006656D03*
X020665Y006656D03*
X019665Y006656D03*
X018665Y006656D03*
X017665Y006656D03*
X016665Y006656D03*
X015665Y006656D03*
X014665Y006656D03*
X014665Y009656D03*
X015665Y009656D03*
X016665Y009656D03*
X017665Y009656D03*
X018665Y009656D03*
X019665Y009656D03*
X020665Y009656D03*
X021665Y009656D03*
X022665Y009656D03*
X023665Y009656D03*
X024665Y009656D03*
X025665Y009656D03*
X026665Y009656D03*
X027665Y009656D03*
D12*
X027716Y011684D03*
X028716Y011684D03*
X028716Y012684D03*
X027716Y012684D03*
X027716Y013684D03*
X028716Y013684D03*
D13*
X026661Y015503D03*
X026691Y016503D03*
X026685Y017473D03*
X026691Y018473D03*
X026701Y019463D03*
X022701Y019463D03*
X022691Y018473D03*
X022685Y017473D03*
X022691Y016503D03*
X021300Y017493D03*
X020228Y017494D03*
X019125Y017474D03*
X017261Y017843D03*
X017241Y017163D03*
X017241Y016163D03*
X016471Y015333D03*
X015501Y015353D03*
X015441Y016173D03*
X015441Y017173D03*
X015431Y017843D03*
X015431Y018843D03*
X017261Y018843D03*
X019125Y015474D03*
X020228Y015494D03*
X021300Y015493D03*
X022661Y015503D03*
X022661Y014403D03*
X024661Y014403D03*
X016471Y011333D03*
X015501Y011353D03*
X014221Y011793D03*
X013091Y011803D03*
X011991Y011803D03*
X010861Y011803D03*
X009631Y011343D03*
X009641Y012313D03*
X009621Y013293D03*
X009651Y014253D03*
X009681Y015233D03*
X010861Y013803D03*
X011991Y013803D03*
X013091Y013803D03*
X014221Y013793D03*
X011297Y009264D03*
X011297Y007264D03*
X005631Y011343D03*
X005641Y012313D03*
X005621Y013293D03*
X005651Y014253D03*
X005681Y015233D03*
D14*
X018662Y013806D03*
X020662Y013806D03*
D15*
X020632Y021694D03*
X021632Y021694D03*
X022632Y021694D03*
X023632Y021694D03*
X024632Y021694D03*
X025632Y021694D03*
X026632Y021694D03*
X027632Y021694D03*
X019033Y021710D03*
X018033Y021710D03*
X017033Y021710D03*
X016033Y021710D03*
X015033Y021710D03*
X014033Y021710D03*
X013033Y021710D03*
X012033Y021710D03*
X004661Y015003D03*
X003661Y015003D03*
X015661Y002703D03*
X016661Y002703D03*
X017661Y002703D03*
X018661Y002703D03*
X019661Y002703D03*
X020661Y002703D03*
X022673Y002714D03*
X023673Y002714D03*
X024673Y002714D03*
X025673Y002714D03*
X026673Y002714D03*
X027673Y002714D03*
D16*
X012692Y006118D03*
X012692Y010118D03*
D17*
X013420Y002698D03*
X010121Y002696D03*
D18*
X010121Y004096D03*
X013420Y004098D03*
D19*
X009711Y007933D03*
X009711Y008933D03*
X009711Y009933D03*
X003661Y011203D03*
X003661Y012203D03*
X003661Y013203D03*
X008751Y016413D03*
X008751Y017413D03*
X008751Y018413D03*
X023111Y013268D03*
X023111Y011488D03*
X025671Y011488D03*
X025671Y013268D03*
D20*
X006781Y003403D03*
X007961Y005373D03*
X005601Y005373D03*
D21*
X005228Y018211D03*
X006015Y018211D03*
X006015Y019195D03*
X005228Y019195D03*
D22*
X004161Y021073D03*
X004161Y016333D03*
D23*
X006461Y015503D03*
X006311Y014303D03*
X006661Y013953D03*
X007011Y012903D03*
X011061Y016853D03*
X011761Y016753D03*
X012311Y016253D03*
X013011Y016253D03*
X014411Y016153D03*
X014761Y015703D03*
X015061Y015003D03*
X016561Y014553D03*
X017061Y013903D03*
X016561Y013403D03*
X015461Y013053D03*
X013711Y013203D03*
X013661Y013753D03*
X012611Y014603D03*
X013561Y012253D03*
X017761Y014603D03*
X017811Y012703D03*
X018311Y012203D03*
X022161Y015203D03*
X021761Y015803D03*
X020161Y016553D03*
X018461Y018253D03*
X018561Y019153D03*
X018061Y019153D03*
X018761Y020353D03*
X020011Y019553D03*
X020861Y019203D03*
X022311Y019053D03*
X023461Y020453D03*
X024111Y019703D03*
X025211Y018453D03*
X025711Y018453D03*
X022211Y013353D03*
X026911Y011453D03*
X020161Y007753D03*
X018761Y008853D03*
X016711Y008853D03*
X019561Y004103D03*
X010711Y018853D03*
X012111Y019553D03*
X012911Y020303D03*
X013711Y019053D03*
M02*
