G75*
G70*
%OFA0B0*%
%FSLAX24Y24*%
%IPPOS*%
%LPD*%
%AMOC8*
5,1,8,0,0,1.08239X$1,22.5*
%
%ADD10O,0.0520X0.1040*%
%ADD11OC8,0.0600*%
%ADD12OC8,0.0520*%
%ADD13O,0.0440X0.0880*%
%ADD14O,0.0600X0.1200*%
%ADD15C,0.0660*%
%ADD16OC8,0.0630*%
%ADD17C,0.0630*%
%ADD18O,0.1200X0.0600*%
%ADD19OC8,0.1900*%
%ADD20OC8,0.0574*%
%ADD21C,0.0100*%
%ADD22C,0.0400*%
%ADD23C,0.0240*%
%ADD24C,0.0160*%
D10*
X014665Y006656D03*
X015665Y006656D03*
X016665Y006656D03*
X017665Y006656D03*
X018665Y006656D03*
X019665Y006656D03*
X020665Y006656D03*
X021665Y006656D03*
X022665Y006656D03*
X023665Y006656D03*
X024665Y006656D03*
X025665Y006656D03*
X026665Y006656D03*
X027665Y006656D03*
X027665Y009656D03*
X026665Y009656D03*
X025665Y009656D03*
X024665Y009656D03*
X023665Y009656D03*
X022665Y009656D03*
X021665Y009656D03*
X020665Y009656D03*
X019665Y009656D03*
X018665Y009656D03*
X017665Y009656D03*
X016665Y009656D03*
X015665Y009656D03*
X014665Y009656D03*
D11*
X027716Y011684D03*
X028716Y011684D03*
X028716Y012684D03*
X027716Y012684D03*
X027716Y013684D03*
X028716Y013684D03*
D12*
X026661Y015503D03*
X026691Y016503D03*
X026685Y017473D03*
X026691Y018473D03*
X026701Y019463D03*
X022701Y019463D03*
X022691Y018473D03*
X022685Y017473D03*
X022691Y016503D03*
X021300Y017493D03*
X020228Y017494D03*
X019125Y017474D03*
X017261Y017843D03*
X017241Y017163D03*
X017241Y016163D03*
X016471Y015333D03*
X015501Y015353D03*
X015441Y016173D03*
X015441Y017173D03*
X015431Y017843D03*
X015431Y018843D03*
X017261Y018843D03*
X019125Y015474D03*
X020228Y015494D03*
X021300Y015493D03*
X022661Y015503D03*
X022661Y014403D03*
X024661Y014403D03*
X016471Y011333D03*
X015501Y011353D03*
X014221Y011793D03*
X013091Y011803D03*
X011991Y011803D03*
X010861Y011803D03*
X009631Y011343D03*
X009641Y012313D03*
X009621Y013293D03*
X009651Y014253D03*
X009681Y015233D03*
X010861Y013803D03*
X011991Y013803D03*
X013091Y013803D03*
X014221Y013793D03*
X011297Y009264D03*
X011297Y007264D03*
X005631Y011343D03*
X005641Y012313D03*
X005621Y013293D03*
X005651Y014253D03*
X005681Y015233D03*
D13*
X018662Y013806D03*
X020662Y013806D03*
D14*
X020632Y021694D03*
X021632Y021694D03*
X022632Y021694D03*
X023632Y021694D03*
X024632Y021694D03*
X025632Y021694D03*
X026632Y021694D03*
X027632Y021694D03*
X019033Y021710D03*
X018033Y021710D03*
X017033Y021710D03*
X016033Y021710D03*
X015033Y021710D03*
X014033Y021710D03*
X013033Y021710D03*
X012033Y021710D03*
X004661Y015003D03*
X003661Y015003D03*
X015661Y002703D03*
X016661Y002703D03*
X017661Y002703D03*
X018661Y002703D03*
X019661Y002703D03*
X020661Y002703D03*
X022673Y002714D03*
X023673Y002714D03*
X024673Y002714D03*
X025673Y002714D03*
X026673Y002714D03*
X027673Y002714D03*
D15*
X012692Y006118D03*
X012692Y010118D03*
D16*
X013420Y002698D03*
X010121Y002696D03*
D17*
X010121Y004096D03*
X013420Y004098D03*
D18*
X009711Y007933D03*
X009711Y008933D03*
X009711Y009933D03*
X003661Y011203D03*
X003661Y012203D03*
X003661Y013203D03*
X008751Y016413D03*
X008751Y017413D03*
X008751Y018413D03*
X023111Y013268D03*
X023111Y011488D03*
X025671Y011488D03*
X025671Y013268D03*
D19*
X007961Y005373D03*
X006781Y003403D03*
X005601Y005373D03*
D20*
X005228Y018211D03*
X006015Y018211D03*
X006015Y019195D03*
X005228Y019195D03*
D21*
X006461Y016853D02*
X006461Y015503D01*
X006461Y014653D02*
X005761Y014653D01*
X005761Y014503D01*
X005651Y014253D01*
X006311Y014303D02*
X006311Y013103D01*
X005761Y012553D01*
X005641Y012313D01*
X005761Y011553D02*
X005631Y011343D01*
X005761Y011553D02*
X006661Y012453D01*
X006661Y013953D01*
X007011Y013853D02*
X007011Y014103D01*
X006461Y014653D01*
X007011Y013853D02*
X010611Y013853D01*
X010861Y013803D01*
X011261Y013603D02*
X010561Y012903D01*
X007011Y012903D01*
X009631Y011343D02*
X009761Y011553D01*
X009761Y011803D01*
X011461Y013503D01*
X011461Y014703D01*
X013011Y016253D01*
X012311Y016253D02*
X011261Y015203D01*
X011261Y013603D01*
X011991Y013803D02*
X012061Y014053D01*
X012611Y014603D01*
X013661Y013753D02*
X013661Y016603D01*
X013061Y017203D01*
X013061Y018603D01*
X012111Y019553D01*
X012161Y020303D02*
X012911Y020303D01*
X012961Y020653D02*
X013261Y020653D01*
X013261Y017303D01*
X014061Y016503D01*
X014061Y013953D01*
X014221Y013793D01*
X014061Y013603D01*
X014061Y013553D01*
X013711Y013203D01*
X013561Y012253D02*
X013561Y006203D01*
X016511Y003253D01*
X016661Y002703D01*
X014711Y005753D02*
X018761Y005753D01*
X018761Y005903D01*
X019261Y006403D01*
X019261Y015003D01*
X019811Y015553D01*
X019811Y015703D01*
X020411Y016303D01*
X022261Y016303D01*
X022261Y016653D01*
X022661Y017053D01*
X023811Y017053D01*
X023811Y018453D01*
X023911Y018553D01*
X023911Y019403D01*
X023461Y019853D01*
X023461Y020453D01*
X023111Y020753D02*
X022761Y021103D01*
X022632Y021694D01*
X023111Y020753D02*
X023111Y018053D01*
X020161Y018053D01*
X019811Y017703D01*
X019811Y017553D01*
X018711Y016453D01*
X018711Y015553D01*
X017761Y014603D01*
X017061Y014553D02*
X017061Y015753D01*
X016811Y016003D01*
X016811Y016653D01*
X017111Y016953D01*
X017241Y017163D01*
X018461Y016753D02*
X018461Y018253D01*
X018911Y018803D02*
X017911Y018803D01*
X017711Y019003D01*
X017711Y019253D01*
X016361Y019253D01*
X014311Y021303D01*
X014033Y021710D01*
X015033Y021710D02*
X015311Y021303D01*
X017161Y019453D01*
X017961Y019453D01*
X017961Y019253D01*
X018061Y019153D01*
X018561Y019153D02*
X017161Y020553D01*
X017161Y021153D01*
X017033Y021710D01*
X018033Y021710D02*
X018311Y021303D01*
X019111Y020503D01*
X019111Y019203D01*
X020861Y019203D01*
X020011Y019553D02*
X019311Y020253D01*
X019311Y021303D01*
X019033Y021710D01*
X018761Y020353D02*
X018911Y020203D01*
X018911Y018803D01*
X017811Y018603D02*
X022461Y018603D01*
X022691Y018473D01*
X022311Y019053D02*
X020761Y020603D01*
X020761Y021103D01*
X020632Y021694D01*
X024111Y019703D02*
X024511Y020103D01*
X024511Y021103D01*
X024632Y021694D01*
X025061Y018803D02*
X026561Y018803D01*
X026561Y018703D01*
X026691Y018473D01*
X025711Y018453D02*
X025711Y016253D01*
X024261Y014803D01*
X024261Y010453D01*
X024561Y010153D01*
X024665Y009656D01*
X025665Y009656D02*
X025561Y010153D01*
X024911Y010803D01*
X024911Y013603D01*
X026561Y015253D01*
X026661Y015503D01*
X025911Y015803D02*
X024761Y014653D01*
X024661Y014403D01*
X024061Y014903D02*
X025211Y016053D01*
X025211Y018453D01*
X024861Y018603D02*
X025061Y018803D01*
X024861Y018603D02*
X024861Y016003D01*
X022211Y013353D01*
X020662Y013806D02*
X020561Y013403D01*
X020561Y010953D01*
X019761Y010153D01*
X019665Y009656D01*
X018665Y009656D02*
X018661Y010153D01*
X018661Y013403D01*
X018662Y013806D01*
X018761Y014203D01*
X019011Y014453D01*
X019011Y015253D01*
X019125Y015474D01*
X020228Y015494D02*
X020311Y015253D01*
X020311Y014453D01*
X020561Y014203D01*
X020662Y013806D01*
X018311Y012203D02*
X017811Y012703D01*
X017411Y012603D02*
X017411Y015703D01*
X018461Y016753D01*
X016861Y015653D02*
X016861Y014853D01*
X016561Y014553D01*
X017061Y014553D02*
X016161Y013653D01*
X016161Y012153D01*
X015611Y011603D01*
X015501Y011353D01*
X015111Y011153D02*
X015111Y011553D01*
X015311Y011753D01*
X015311Y012903D01*
X015461Y013053D01*
X016561Y013403D02*
X016561Y011553D01*
X016471Y011333D01*
X015911Y010353D02*
X017161Y010353D01*
X017161Y007553D01*
X017561Y007153D01*
X017665Y006656D01*
X018061Y005953D02*
X018061Y011953D01*
X017411Y012603D01*
X017361Y012353D02*
X017061Y012653D01*
X017061Y013903D01*
X015061Y015003D02*
X015061Y015403D01*
X014761Y015703D01*
X015561Y016953D02*
X015441Y017173D01*
X015561Y016953D02*
X016861Y015653D01*
X017811Y018603D02*
X017661Y018753D01*
X017511Y018753D01*
X017261Y018843D01*
X012961Y020653D02*
X012311Y021303D01*
X012033Y021710D01*
X012161Y020303D02*
X010711Y018853D01*
X011061Y016853D02*
X006461Y016853D01*
X015111Y011153D02*
X015911Y010353D01*
X016665Y009656D02*
X016411Y009303D01*
X014261Y007153D01*
X014261Y006203D01*
X014711Y005753D01*
X015665Y006656D02*
X015911Y006303D01*
X016261Y005953D01*
X018061Y005953D01*
X018665Y006656D02*
X018761Y007153D01*
X018761Y008853D01*
X017665Y009656D02*
X017561Y010153D01*
X017361Y010353D01*
X017361Y012353D01*
X016711Y008853D02*
X016711Y008803D01*
X014911Y007003D01*
X014665Y006656D01*
X022665Y006656D02*
X022661Y006153D01*
X022661Y003303D01*
X022673Y002714D01*
X023673Y002714D02*
X023661Y003303D01*
X023661Y006153D01*
X023665Y006656D01*
X024665Y006656D02*
X024661Y006153D01*
X024661Y003303D01*
X024673Y002714D01*
X022665Y009656D02*
X022761Y010153D01*
X024061Y011453D01*
X024061Y014903D01*
X025911Y015803D02*
X025911Y016603D01*
X026561Y017253D01*
X026685Y017473D01*
X027716Y013684D02*
X027611Y013403D01*
X027261Y013053D01*
X027261Y011803D01*
X026911Y011453D01*
X026611Y010803D02*
X026061Y010803D01*
X026061Y011203D01*
X025671Y011488D01*
X026611Y010803D02*
X027411Y010003D01*
X027665Y009656D01*
D22*
X026911Y011453D03*
X022211Y013353D03*
X022161Y015203D03*
X021761Y015803D03*
X020161Y016553D03*
X018461Y018253D03*
X018561Y019153D03*
X018061Y019153D03*
X018761Y020353D03*
X020011Y019553D03*
X020861Y019203D03*
X022311Y019053D03*
X023461Y020453D03*
X024111Y019703D03*
X025211Y018453D03*
X025711Y018453D03*
X017811Y012703D03*
X018311Y012203D03*
X016561Y013403D03*
X017061Y013903D03*
X016561Y014553D03*
X017761Y014603D03*
X015461Y013053D03*
X013711Y013203D03*
X013661Y013753D03*
X012611Y014603D03*
X014411Y016153D03*
X014761Y015703D03*
X015061Y015003D03*
X013011Y016253D03*
X012311Y016253D03*
X011761Y016753D03*
X011061Y016853D03*
X010711Y018853D03*
X012111Y019553D03*
X012911Y020303D03*
X013711Y019053D03*
X006661Y013953D03*
X006311Y014303D03*
X006461Y015503D03*
X007011Y012903D03*
X013561Y012253D03*
X016711Y008853D03*
X018761Y008853D03*
X020161Y007753D03*
X019561Y004103D03*
D23*
X020461Y003203D01*
X020661Y002703D01*
X019161Y003603D02*
X019161Y004303D01*
X020761Y005903D01*
X021411Y005903D01*
X021411Y006303D01*
X021665Y006656D01*
X021561Y007153D01*
X021561Y008353D01*
X021661Y008403D01*
X027361Y008403D01*
X028161Y009203D01*
X028161Y011053D01*
X026711Y011053D01*
X026511Y011253D01*
X026511Y012603D01*
X026111Y013003D01*
X025671Y013268D01*
X023111Y013268D02*
X022661Y013003D01*
X022286Y012628D01*
X021761Y013153D01*
X021761Y015803D01*
X022161Y016003D02*
X022161Y015203D01*
X021300Y015493D02*
X021211Y015253D01*
X021211Y011203D01*
X020161Y010153D01*
X020161Y007753D01*
X019761Y007353D01*
X019761Y007153D01*
X019665Y006656D01*
X019561Y006153D01*
X017811Y004403D01*
X017811Y003253D01*
X017661Y002703D01*
X018661Y002703D02*
X018811Y003253D01*
X019161Y003603D01*
X013420Y004098D02*
X013311Y004403D01*
X013311Y007153D01*
X011511Y007153D01*
X011297Y007264D01*
X011411Y007503D01*
X011411Y008653D01*
X012561Y009803D01*
X012692Y010118D01*
X011211Y009503D02*
X011297Y009264D01*
X011211Y009503D02*
X010961Y009753D01*
X010961Y011553D01*
X010861Y011803D01*
X010361Y012003D02*
X011161Y012803D01*
X015061Y012803D01*
X015061Y014403D01*
X015461Y014803D01*
X015461Y015103D01*
X015501Y015353D01*
X016261Y015353D01*
X016471Y015333D01*
X014961Y016703D02*
X014961Y017453D01*
X015136Y017628D01*
X013711Y019053D01*
X013611Y019203D01*
X013611Y020703D01*
X013161Y021153D01*
X013033Y021710D01*
X015431Y017843D02*
X015211Y017703D01*
X015136Y017628D01*
X015431Y017843D02*
X015661Y017853D01*
X017011Y017853D01*
X017261Y017843D01*
X014961Y016703D02*
X014411Y016153D01*
X013411Y016453D02*
X013211Y016653D01*
X011761Y016653D01*
X011761Y016753D01*
X011761Y016653D02*
X011461Y016653D01*
X011461Y016203D01*
X009761Y014503D01*
X009651Y014253D01*
X009411Y014353D01*
X007161Y014353D01*
X006411Y015103D01*
X005911Y015103D01*
X005681Y015233D01*
X005561Y015003D01*
X005161Y014603D01*
X005161Y014403D01*
X004586Y013828D01*
X004511Y013903D01*
X004511Y013953D01*
X003911Y014553D01*
X003661Y015003D01*
X004661Y015003D02*
X004811Y015553D01*
X005161Y015903D01*
X005161Y017203D01*
X005911Y017953D01*
X006015Y018211D01*
X005711Y018703D02*
X007911Y018703D01*
X007911Y018153D01*
X008361Y017703D01*
X008751Y017413D01*
X005711Y018703D02*
X005411Y018403D01*
X005228Y018211D01*
X004586Y013828D02*
X004161Y013403D01*
X003661Y013203D01*
X003661Y012203D02*
X004211Y012053D01*
X005411Y010853D01*
X010361Y010853D01*
X010361Y012003D01*
X013091Y013803D02*
X013161Y014053D01*
X013411Y014303D01*
X013411Y016453D01*
X020161Y016553D02*
X021661Y016553D01*
X022461Y017353D01*
X022685Y017473D01*
X021300Y017493D02*
X021061Y017503D01*
X020461Y017503D01*
X020228Y017494D01*
X022161Y016003D02*
X023161Y016003D01*
X024361Y017203D01*
X024361Y019353D01*
X026461Y019353D01*
X026701Y019463D01*
X026811Y019253D01*
X027511Y018553D01*
X027511Y015053D01*
X028611Y013953D01*
X028716Y013684D01*
X028716Y011684D02*
X028461Y011553D01*
X028461Y011053D01*
X028161Y011053D01*
X022286Y012628D02*
X021561Y011903D01*
X021561Y010953D01*
X020761Y010153D01*
X020665Y009656D01*
X020761Y009153D01*
X021561Y008353D01*
X012692Y006118D02*
X012411Y005953D01*
X008711Y005953D01*
X007961Y005373D01*
X006361Y005953D02*
X005601Y005373D01*
X006361Y005953D02*
X006361Y006003D01*
X009161Y008803D01*
X009711Y008933D01*
D24*
X003090Y010824D02*
X003090Y002199D01*
X015223Y002191D01*
X015201Y002213D01*
X015201Y003194D01*
X015470Y003463D01*
X015851Y003463D01*
X016121Y003194D01*
X016121Y002213D01*
X016098Y002191D01*
X016223Y002190D01*
X016201Y002213D01*
X016201Y003194D01*
X016237Y003230D01*
X013591Y005876D01*
X013591Y004542D01*
X013689Y004501D01*
X013823Y004367D01*
X013895Y004193D01*
X013895Y004004D01*
X013823Y003829D01*
X013689Y003696D01*
X013514Y003623D01*
X013325Y003623D01*
X013151Y003696D01*
X013017Y003829D01*
X012945Y004004D01*
X012945Y004193D01*
X013017Y004367D01*
X013031Y004381D01*
X013031Y004519D01*
X013031Y005764D01*
X012969Y005702D01*
X012789Y005628D01*
X012594Y005628D01*
X012484Y005673D01*
X012295Y005673D01*
X009071Y005673D01*
X009071Y004914D01*
X008421Y004263D01*
X007501Y004263D01*
X006851Y004914D01*
X006851Y005833D01*
X007501Y006483D01*
X008421Y006483D01*
X008670Y006233D01*
X008827Y006233D01*
X012209Y006233D01*
X012276Y006395D01*
X012414Y006533D01*
X012594Y006608D01*
X012789Y006608D01*
X012969Y006533D01*
X013031Y006471D01*
X013031Y006873D01*
X011627Y006873D01*
X011500Y006873D01*
X011471Y006844D01*
X011123Y006844D01*
X010877Y007090D01*
X010877Y007438D01*
X011123Y007684D01*
X011131Y007684D01*
X011131Y008769D01*
X011206Y008844D01*
X011123Y008844D01*
X010877Y009090D01*
X010877Y009438D01*
X010878Y009440D01*
X010845Y009473D01*
X010681Y009637D01*
X010681Y011389D01*
X010641Y011429D01*
X010641Y010737D01*
X010477Y010573D01*
X010245Y010573D01*
X005295Y010573D01*
X005131Y010737D01*
X004125Y011743D01*
X003170Y011743D01*
X003090Y011824D01*
X003090Y011583D01*
X003170Y011663D01*
X004151Y011663D01*
X004421Y011394D01*
X004421Y011013D01*
X004151Y010743D01*
X003170Y010743D01*
X003090Y010824D01*
X003161Y010753D02*
X003161Y002199D01*
X003090Y002203D02*
X015210Y002203D01*
X015161Y002191D02*
X015161Y004306D01*
X015264Y004203D02*
X013891Y004203D01*
X013661Y004513D02*
X013661Y005806D01*
X013591Y005703D02*
X013764Y005703D01*
X014161Y005900D02*
X014161Y006006D01*
X014051Y006116D02*
X014501Y005666D01*
X014624Y005543D01*
X018555Y005543D01*
X017695Y004683D01*
X017531Y004519D01*
X017531Y003463D01*
X017470Y003463D01*
X017201Y003194D01*
X017201Y002213D01*
X017224Y002190D01*
X017098Y002190D01*
X017121Y002213D01*
X017121Y003194D01*
X016851Y003463D01*
X016598Y003463D01*
X013771Y006290D01*
X013771Y011954D01*
X013866Y012049D01*
X013921Y012182D01*
X013921Y012325D01*
X013866Y012457D01*
X013800Y012523D01*
X014945Y012523D01*
X015101Y012523D01*
X015101Y011840D01*
X015024Y011763D01*
X014901Y011640D01*
X014901Y011240D01*
X014901Y011066D01*
X015631Y010336D01*
X015491Y010336D01*
X015245Y010090D01*
X015245Y009222D01*
X015491Y008976D01*
X015787Y008976D01*
X014174Y007363D01*
X014051Y007240D01*
X014051Y006290D01*
X014051Y006116D01*
X014051Y006203D02*
X013858Y006203D01*
X013771Y006703D02*
X014051Y006703D01*
X014051Y007203D02*
X013771Y007203D01*
X014161Y007350D02*
X014161Y011373D01*
X014047Y011373D02*
X013801Y011619D01*
X013801Y011967D01*
X014047Y012213D01*
X014395Y012213D01*
X014641Y011967D01*
X014641Y011619D01*
X014395Y011373D01*
X014047Y011373D01*
X013771Y011203D02*
X014901Y011203D01*
X015161Y010806D02*
X015161Y008350D01*
X015014Y008203D02*
X013771Y008203D01*
X013351Y008203D02*
X011691Y008203D01*
X011691Y008537D02*
X011691Y007619D01*
X011691Y007464D01*
X011717Y007438D01*
X011717Y007433D01*
X013195Y007433D01*
X013351Y007433D01*
X013351Y011469D01*
X013265Y011383D01*
X012917Y011383D01*
X012671Y011629D01*
X012671Y011977D01*
X012917Y012223D01*
X013201Y012223D01*
X013201Y012325D01*
X013256Y012457D01*
X013322Y012523D01*
X011277Y012523D01*
X010977Y012223D01*
X011035Y012223D01*
X011281Y011977D01*
X011281Y011629D01*
X011241Y011589D01*
X011241Y011437D01*
X011241Y009869D01*
X011327Y009783D01*
X011327Y009783D01*
X011426Y009684D01*
X011471Y009684D01*
X011717Y009438D01*
X011717Y009355D01*
X012254Y009893D01*
X012202Y010020D01*
X012202Y010215D01*
X012276Y010395D01*
X012414Y010533D01*
X012594Y010608D01*
X012789Y010608D01*
X012969Y010533D01*
X013107Y010395D01*
X013182Y010215D01*
X013182Y010020D01*
X013107Y009840D01*
X012969Y009702D01*
X012789Y009628D01*
X012781Y009628D01*
X012677Y009523D01*
X011691Y008537D01*
X011857Y008703D02*
X013351Y008703D01*
X013771Y008703D02*
X015514Y008703D01*
X015661Y008850D02*
X015661Y008976D01*
X016085Y009275D02*
X016085Y010090D01*
X016032Y010143D01*
X016298Y010143D01*
X016245Y010090D01*
X016245Y009435D01*
X016085Y009275D01*
X016161Y009350D02*
X016161Y010143D01*
X016085Y009703D02*
X016245Y009703D01*
X016161Y010563D02*
X016161Y011049D01*
X016051Y011159D02*
X016297Y010913D01*
X016645Y010913D01*
X016891Y011159D01*
X016891Y011507D01*
X016771Y011627D01*
X016771Y011640D01*
X016771Y013104D01*
X016851Y013184D01*
X016851Y012566D01*
X016974Y012443D01*
X017151Y012266D01*
X017151Y010563D01*
X017074Y010563D01*
X015998Y010563D01*
X015628Y010933D01*
X015675Y010933D01*
X015921Y011179D01*
X015921Y011527D01*
X015876Y011572D01*
X016248Y011943D01*
X016351Y012046D01*
X016351Y011753D01*
X016297Y011753D01*
X016051Y011507D01*
X016051Y011159D01*
X016051Y011203D02*
X015921Y011203D01*
X015661Y010933D02*
X015661Y010900D01*
X015858Y010703D02*
X017151Y010703D01*
X016661Y010563D02*
X016661Y010929D01*
X016891Y011203D02*
X017151Y011203D01*
X017571Y011203D02*
X017851Y011203D01*
X018271Y011203D02*
X018451Y011203D01*
X018871Y011203D02*
X019051Y011203D01*
X019471Y011203D02*
X020351Y011203D01*
X020351Y011040D02*
X019647Y010336D01*
X019491Y010336D01*
X019471Y010316D01*
X019471Y014916D01*
X019841Y015286D01*
X020054Y015074D01*
X020101Y015074D01*
X020101Y014366D01*
X020224Y014243D01*
X020283Y014184D01*
X020282Y014184D01*
X020282Y013429D01*
X020351Y013360D01*
X020351Y011040D01*
X020161Y010850D02*
X020161Y014306D01*
X020264Y014203D02*
X019471Y014203D01*
X019051Y014196D02*
X019051Y010124D01*
X018871Y010304D01*
X018871Y013257D01*
X019042Y013429D01*
X019042Y014184D01*
X019040Y014186D01*
X019051Y014196D01*
X018801Y014540D02*
X018674Y014413D01*
X018674Y014413D01*
X018667Y014406D01*
X018505Y014406D01*
X018282Y014184D01*
X018282Y013429D01*
X018451Y013260D01*
X018451Y012535D01*
X018382Y012563D01*
X018248Y012563D01*
X018171Y012640D01*
X018171Y012775D01*
X018116Y012907D01*
X018015Y013008D01*
X017882Y013063D01*
X017739Y013063D01*
X017621Y013014D01*
X017621Y014272D01*
X017689Y014243D01*
X017832Y014243D01*
X017965Y014298D01*
X018066Y014399D01*
X018121Y014532D01*
X018121Y014666D01*
X018730Y015275D01*
X018801Y015204D01*
X018801Y015166D01*
X018801Y014540D01*
X018801Y014703D02*
X018158Y014703D01*
X018161Y014706D02*
X018161Y012799D01*
X018171Y012703D02*
X018451Y012703D01*
X018871Y012703D02*
X019051Y012703D01*
X019471Y012703D02*
X020351Y012703D01*
X020771Y012703D02*
X020931Y012703D01*
X021491Y012703D02*
X021815Y012703D01*
X021890Y012628D02*
X021491Y013027D01*
X021491Y012229D01*
X021890Y012628D01*
X021661Y012399D02*
X021661Y012857D01*
X020931Y013203D02*
X020771Y013203D01*
X020771Y013206D02*
X020819Y013206D01*
X020931Y013318D01*
X020931Y011319D01*
X020771Y011159D01*
X020771Y013206D01*
X020351Y013203D02*
X019471Y013203D01*
X019051Y013203D02*
X018871Y013203D01*
X018451Y013203D02*
X017621Y013203D01*
X017661Y013031D02*
X017661Y014255D01*
X017621Y014203D02*
X018302Y014203D01*
X018661Y014406D02*
X018661Y015206D01*
X018658Y015203D02*
X018801Y015203D01*
X018501Y015640D02*
X017824Y014963D01*
X017689Y014963D01*
X017621Y014935D01*
X017621Y015616D01*
X018501Y016496D01*
X018501Y016366D01*
X018501Y015640D01*
X018501Y015703D02*
X017708Y015703D01*
X017661Y015656D02*
X017661Y014952D01*
X017621Y015203D02*
X018064Y015203D01*
X018161Y015300D02*
X018161Y016156D01*
X018208Y016203D02*
X018501Y016203D01*
X018921Y016203D02*
X020014Y016203D01*
X020029Y016218D02*
X019601Y015790D01*
X019601Y015640D01*
X019545Y015585D01*
X019545Y015647D01*
X019299Y015894D01*
X018951Y015894D01*
X018921Y015863D01*
X018921Y016366D01*
X019841Y017286D01*
X020054Y017074D01*
X020402Y017074D01*
X020551Y017223D01*
X020975Y017223D01*
X021126Y017073D01*
X021474Y017073D01*
X021720Y017319D01*
X021720Y017667D01*
X021543Y017843D01*
X022461Y017843D01*
X022265Y017647D01*
X022265Y017553D01*
X022181Y017469D01*
X021545Y016833D01*
X020390Y016833D01*
X020365Y016858D01*
X020232Y016913D01*
X020089Y016913D01*
X019957Y016858D01*
X019856Y016757D01*
X019801Y016625D01*
X019801Y016482D01*
X019856Y016349D01*
X019957Y016248D01*
X020029Y016218D01*
X020318Y015914D02*
X020498Y016093D01*
X021542Y016093D01*
X021456Y016007D01*
X021416Y015913D01*
X021126Y015913D01*
X020880Y015667D01*
X020880Y015319D01*
X020931Y015268D01*
X020931Y015137D01*
X020931Y014295D01*
X020819Y014406D01*
X020655Y014406D01*
X020648Y014413D01*
X020521Y014540D01*
X020521Y015166D01*
X020521Y015193D01*
X020648Y015320D01*
X020648Y015667D01*
X020402Y015914D01*
X020318Y015914D01*
X020612Y015703D02*
X020917Y015703D01*
X021161Y015913D02*
X021161Y016093D01*
X020661Y016093D02*
X020661Y014406D01*
X020521Y014703D02*
X020931Y014703D01*
X020931Y015203D02*
X020531Y015203D01*
X019924Y015203D02*
X019758Y015203D01*
X019661Y015106D02*
X019661Y010350D01*
X019051Y010203D02*
X018972Y010203D01*
X018451Y010296D02*
X018451Y011872D01*
X018382Y011843D01*
X018271Y011843D01*
X018271Y010116D01*
X018451Y010296D01*
X018358Y010203D02*
X018271Y010203D01*
X017851Y010324D02*
X017839Y010336D01*
X017675Y010336D01*
X017571Y010440D01*
X017571Y012146D01*
X017851Y011866D01*
X017851Y010324D01*
X017661Y010350D02*
X017661Y012056D01*
X017571Y011703D02*
X017851Y011703D01*
X018271Y011703D02*
X018451Y011703D01*
X018871Y011703D02*
X019051Y011703D01*
X019471Y011703D02*
X020351Y011703D01*
X020771Y011703D02*
X020931Y011703D01*
X020931Y012203D02*
X020771Y012203D01*
X020351Y012203D02*
X019471Y012203D01*
X019051Y012203D02*
X018871Y012203D01*
X018871Y010703D02*
X019051Y010703D01*
X019471Y010703D02*
X020014Y010703D01*
X020771Y011203D02*
X020815Y011203D01*
X021661Y010657D02*
X021661Y010336D01*
X021491Y010336D02*
X021839Y010336D01*
X022085Y010090D01*
X022085Y009222D01*
X021839Y008976D01*
X021491Y008976D01*
X021245Y009222D01*
X021245Y010090D01*
X021491Y010336D01*
X021358Y010203D02*
X021207Y010203D01*
X021161Y010157D02*
X021161Y009149D01*
X021107Y009203D02*
X021264Y009203D01*
X021085Y009225D02*
X021085Y010082D01*
X021841Y010837D01*
X021841Y011069D01*
X021841Y011787D01*
X022402Y012348D01*
X022566Y012512D01*
X022833Y012780D01*
X022881Y012808D01*
X023602Y012808D01*
X023851Y013057D01*
X023851Y011699D01*
X023602Y011948D01*
X022621Y011948D01*
X022351Y011679D01*
X022351Y011297D01*
X022621Y011028D01*
X023339Y011028D01*
X022674Y010363D01*
X022647Y010336D01*
X022491Y010336D01*
X022245Y010090D01*
X022245Y009222D01*
X022491Y008976D01*
X022839Y008976D01*
X023085Y009222D01*
X023085Y010090D01*
X023040Y010135D01*
X024051Y011146D01*
X024051Y010366D01*
X024174Y010243D01*
X024286Y010131D01*
X024245Y010090D01*
X024245Y009222D01*
X024491Y008976D01*
X024839Y008976D01*
X025085Y009222D01*
X025085Y010090D01*
X024839Y010336D01*
X024675Y010336D01*
X024648Y010363D01*
X024471Y010540D01*
X024471Y013999D01*
X024487Y013983D01*
X024835Y013983D01*
X025081Y014229D01*
X025081Y014577D01*
X025031Y014627D01*
X026121Y015716D01*
X026121Y015890D01*
X026121Y016516D01*
X026271Y016666D01*
X026271Y016329D01*
X026517Y016083D01*
X026865Y016083D01*
X027111Y016329D01*
X027111Y016677D01*
X026865Y016923D01*
X026528Y016923D01*
X026648Y017043D01*
X026657Y017053D01*
X026859Y017053D01*
X027105Y017299D01*
X027105Y017647D01*
X026859Y017893D01*
X026511Y017893D01*
X026265Y017647D01*
X026265Y017299D01*
X026287Y017277D01*
X025921Y016910D01*
X025921Y018154D01*
X026016Y018249D01*
X026071Y018382D01*
X026071Y018525D01*
X026042Y018593D01*
X026271Y018593D01*
X026271Y018299D01*
X026517Y018053D01*
X026865Y018053D01*
X027111Y018299D01*
X027111Y018557D01*
X027231Y018437D01*
X027231Y015169D01*
X027231Y014937D01*
X028275Y013893D01*
X028256Y013874D01*
X028256Y013493D01*
X028525Y013224D01*
X028906Y013224D01*
X029176Y013493D01*
X029176Y013874D01*
X028906Y014144D01*
X028816Y014144D01*
X028727Y014233D01*
X028315Y014645D01*
X028440Y014593D01*
X028882Y014593D01*
X029204Y014727D01*
X029197Y005682D01*
X028882Y005813D01*
X028440Y005813D01*
X028032Y005644D01*
X027720Y005332D01*
X027551Y004924D01*
X027551Y004482D01*
X027720Y004075D01*
X028032Y003762D01*
X028440Y003593D01*
X028877Y003593D01*
X028463Y003183D01*
X028462Y003183D01*
X028322Y003044D01*
X028322Y003043D01*
X028181Y002902D01*
X028181Y002504D01*
X028182Y002503D01*
X028184Y002181D01*
X028091Y002181D01*
X028133Y002224D01*
X028133Y003205D01*
X027863Y003474D01*
X027482Y003474D01*
X027213Y003205D01*
X027213Y002224D01*
X027253Y002183D01*
X027093Y002184D01*
X027133Y002224D01*
X027133Y003205D01*
X026863Y003474D01*
X026482Y003474D01*
X026213Y003205D01*
X026213Y002224D01*
X026252Y002184D01*
X026093Y002184D01*
X026133Y002224D01*
X026133Y003205D01*
X025863Y003474D01*
X025482Y003474D01*
X025213Y003205D01*
X025213Y002224D01*
X025252Y002185D01*
X025094Y002185D01*
X025133Y002224D01*
X025133Y003205D01*
X024871Y003467D01*
X024871Y006008D01*
X025085Y006222D01*
X025085Y007090D01*
X024839Y007336D01*
X024491Y007336D01*
X024245Y007090D01*
X024245Y006222D01*
X024451Y006017D01*
X024451Y003443D01*
X024213Y003205D01*
X024213Y002224D01*
X024251Y002185D01*
X024095Y002185D01*
X024133Y002224D01*
X024133Y003205D01*
X023871Y003467D01*
X023871Y006008D01*
X024085Y006222D01*
X024085Y007090D01*
X023839Y007336D01*
X023491Y007336D01*
X023245Y007090D01*
X023245Y006222D01*
X023451Y006017D01*
X023451Y003443D01*
X023213Y003205D01*
X023213Y002224D01*
X023250Y002186D01*
X023095Y002186D01*
X023133Y002224D01*
X023133Y003205D01*
X022871Y003467D01*
X022871Y006008D01*
X023085Y006222D01*
X023085Y007090D01*
X022839Y007336D01*
X022491Y007336D01*
X022245Y007090D01*
X022245Y006222D01*
X022451Y006017D01*
X022451Y003443D01*
X022213Y003205D01*
X022213Y002224D01*
X022250Y002187D01*
X021095Y002187D01*
X021121Y002213D01*
X021121Y003194D01*
X020851Y003463D01*
X020597Y003463D01*
X020577Y003483D01*
X019921Y004139D01*
X019921Y004175D01*
X019866Y004307D01*
X019765Y004408D01*
X019692Y004439D01*
X020877Y005623D01*
X021295Y005623D01*
X021527Y005623D01*
X021691Y005787D01*
X021691Y005976D01*
X021839Y005976D01*
X022085Y006222D01*
X022085Y007090D01*
X021841Y007334D01*
X021841Y008123D01*
X027245Y008123D01*
X027477Y008123D01*
X028441Y009087D01*
X028441Y009319D01*
X028441Y010773D01*
X028577Y010773D01*
X028741Y010937D01*
X028741Y011224D01*
X028906Y011224D01*
X029176Y011493D01*
X029176Y011874D01*
X028906Y012144D01*
X028525Y012144D01*
X028256Y011874D01*
X028256Y011744D01*
X028181Y011669D01*
X028181Y011437D01*
X028181Y011333D01*
X028016Y011333D01*
X028176Y011493D01*
X028176Y011874D01*
X027906Y012144D01*
X027525Y012144D01*
X027471Y012089D01*
X027471Y012278D01*
X027525Y012224D01*
X027906Y012224D01*
X028176Y012493D01*
X028176Y012874D01*
X027906Y013144D01*
X027648Y013144D01*
X027698Y013193D01*
X027728Y013224D01*
X027906Y013224D01*
X028176Y013493D01*
X028176Y013874D01*
X027906Y014144D01*
X027525Y014144D01*
X027256Y013874D01*
X027256Y013493D01*
X027330Y013419D01*
X027051Y013140D01*
X027051Y012966D01*
X027051Y011890D01*
X026974Y011813D01*
X026839Y011813D01*
X026791Y011793D01*
X026791Y012719D01*
X026627Y012883D01*
X026431Y013079D01*
X026431Y013459D01*
X026162Y013728D01*
X025332Y013728D01*
X026648Y015043D01*
X026688Y015083D01*
X026835Y015083D01*
X027081Y015329D01*
X027081Y015677D01*
X026835Y015923D01*
X026487Y015923D01*
X026241Y015677D01*
X026241Y015329D01*
X026290Y015280D01*
X024701Y013690D01*
X024701Y013516D01*
X024701Y010716D01*
X024824Y010593D01*
X025286Y010131D01*
X025245Y010090D01*
X025245Y009222D01*
X025491Y008976D01*
X025839Y008976D01*
X026085Y009222D01*
X026085Y010090D01*
X025839Y010336D01*
X025675Y010336D01*
X025648Y010363D01*
X025121Y010890D01*
X025121Y011088D01*
X025181Y011028D01*
X025851Y011028D01*
X025851Y010716D01*
X025974Y010593D01*
X026148Y010593D01*
X026524Y010593D01*
X026781Y010336D01*
X026491Y010336D01*
X026245Y010090D01*
X026245Y009222D01*
X026491Y008976D01*
X026839Y008976D01*
X027085Y009222D01*
X027085Y010032D01*
X027245Y009872D01*
X027245Y009222D01*
X027491Y008976D01*
X027538Y008976D01*
X027245Y008683D01*
X021777Y008683D01*
X021627Y008683D01*
X021085Y009225D01*
X021085Y009703D02*
X021245Y009703D01*
X022085Y009703D02*
X022245Y009703D01*
X022358Y010203D02*
X021972Y010203D01*
X021707Y010703D02*
X023014Y010703D01*
X023161Y010850D02*
X023161Y011028D01*
X023608Y010703D02*
X024051Y010703D01*
X024471Y010703D02*
X024714Y010703D01*
X024824Y010593D02*
X024824Y010593D01*
X024661Y010350D02*
X024661Y013983D01*
X024714Y013703D02*
X024471Y013703D01*
X024471Y013203D02*
X024701Y013203D01*
X025121Y012868D02*
X025181Y012808D01*
X025892Y012808D01*
X025937Y012781D01*
X026231Y012487D01*
X026231Y011879D01*
X026162Y011948D01*
X025181Y011948D01*
X025121Y011888D01*
X025121Y012868D01*
X025161Y012828D02*
X025161Y011928D01*
X025121Y012203D02*
X026231Y012203D01*
X026161Y011948D02*
X026161Y012557D01*
X026015Y012703D02*
X025121Y012703D01*
X024701Y012703D02*
X024471Y012703D01*
X024471Y012203D02*
X024701Y012203D01*
X024701Y011703D02*
X024471Y011703D01*
X024471Y011203D02*
X024701Y011203D01*
X025161Y011048D02*
X025161Y010850D01*
X025308Y010703D02*
X025864Y010703D01*
X026161Y010593D02*
X026161Y008683D01*
X025661Y008683D02*
X025661Y008976D01*
X026066Y009203D02*
X026264Y009203D01*
X026661Y008976D02*
X026661Y008683D01*
X027161Y008683D02*
X027161Y009956D01*
X027085Y009703D02*
X027245Y009703D01*
X027433Y010278D02*
X026938Y010773D01*
X027881Y010773D01*
X027881Y010294D01*
X027839Y010336D01*
X027491Y010336D01*
X027433Y010278D01*
X027661Y010336D02*
X027661Y010773D01*
X027881Y010703D02*
X027008Y010703D01*
X027161Y010773D02*
X027161Y010550D01*
X026661Y010456D02*
X026661Y010336D01*
X026358Y010203D02*
X025972Y010203D01*
X025661Y010350D02*
X025661Y011028D01*
X026271Y011013D02*
X026271Y011097D01*
X026355Y011013D01*
X026271Y011013D01*
X025648Y010363D02*
X025648Y010363D01*
X025214Y010203D02*
X024972Y010203D01*
X025161Y010256D02*
X025161Y008683D01*
X024661Y008683D02*
X024661Y008976D01*
X024264Y009203D02*
X024066Y009203D01*
X024085Y009222D02*
X024085Y010090D01*
X023839Y010336D01*
X023491Y010336D01*
X023245Y010090D01*
X023245Y009222D01*
X023491Y008976D01*
X023839Y008976D01*
X024085Y009222D01*
X024085Y009703D02*
X024245Y009703D01*
X024214Y010203D02*
X023972Y010203D01*
X024161Y010256D02*
X024161Y008683D01*
X023661Y008683D02*
X023661Y008976D01*
X023264Y009203D02*
X023066Y009203D01*
X022661Y008976D02*
X022661Y008683D01*
X023161Y008683D02*
X023161Y010256D01*
X023108Y010203D02*
X023358Y010203D01*
X023661Y010336D02*
X023661Y010756D01*
X022661Y011028D02*
X022661Y010350D01*
X023085Y009703D02*
X023245Y009703D01*
X022264Y009203D02*
X022066Y009203D01*
X021661Y008976D02*
X021661Y008683D01*
X021607Y008703D02*
X027265Y008703D01*
X027661Y008307D02*
X027661Y007336D01*
X027491Y007336D02*
X027245Y007090D01*
X027245Y006222D01*
X027491Y005976D01*
X027839Y005976D01*
X028085Y006222D01*
X028085Y007090D01*
X027839Y007336D01*
X027491Y007336D01*
X027358Y007203D02*
X026972Y007203D01*
X027085Y007090D02*
X026839Y007336D01*
X026491Y007336D01*
X026245Y007090D01*
X026245Y006222D01*
X026491Y005976D01*
X026839Y005976D01*
X027085Y006222D01*
X027085Y007090D01*
X026661Y007336D02*
X026661Y008123D01*
X027161Y008123D02*
X027161Y002184D01*
X027112Y002203D02*
X027233Y002203D01*
X027213Y002703D02*
X027133Y002703D01*
X027133Y003203D02*
X027213Y003203D01*
X027661Y003474D02*
X027661Y004217D01*
X027666Y004203D02*
X024871Y004203D01*
X024451Y004203D02*
X023871Y004203D01*
X023451Y004203D02*
X022871Y004203D01*
X022451Y004203D02*
X019909Y004203D01*
X020161Y003899D02*
X020161Y004907D01*
X019957Y004703D02*
X022451Y004703D01*
X022871Y004703D02*
X023451Y004703D01*
X023871Y004703D02*
X024451Y004703D01*
X024871Y004703D02*
X027551Y004703D01*
X027661Y005189D02*
X027661Y005976D01*
X027264Y006203D02*
X027066Y006203D01*
X026661Y005976D02*
X026661Y003474D01*
X026213Y003203D02*
X026133Y003203D01*
X025661Y003474D02*
X025661Y005976D01*
X025491Y005976D02*
X025839Y005976D01*
X026085Y006222D01*
X026085Y007090D01*
X025839Y007336D01*
X025491Y007336D01*
X025245Y007090D01*
X025245Y006222D01*
X025491Y005976D01*
X025264Y006203D02*
X025066Y006203D01*
X025085Y006703D02*
X025245Y006703D01*
X025358Y007203D02*
X024972Y007203D01*
X024661Y007336D02*
X024661Y008123D01*
X024161Y008123D02*
X024161Y002185D01*
X024112Y002203D02*
X024233Y002203D01*
X024213Y002703D02*
X024133Y002703D01*
X024133Y003203D02*
X024213Y003203D01*
X024451Y003703D02*
X023871Y003703D01*
X023451Y003703D02*
X022871Y003703D01*
X022451Y003703D02*
X020357Y003703D01*
X020661Y003463D02*
X020661Y005407D01*
X020457Y005203D02*
X022451Y005203D01*
X022871Y005203D02*
X023451Y005203D01*
X023871Y005203D02*
X024451Y005203D01*
X024871Y005203D02*
X027667Y005203D01*
X028161Y005698D02*
X028161Y008807D01*
X028057Y008703D02*
X029200Y008703D01*
X029199Y008203D02*
X027557Y008203D01*
X027264Y009203D02*
X027066Y009203D01*
X026245Y009703D02*
X026085Y009703D01*
X025245Y009703D02*
X025085Y009703D01*
X025066Y009203D02*
X025264Y009203D01*
X025161Y008123D02*
X025161Y002185D01*
X025112Y002203D02*
X025233Y002203D01*
X025213Y002703D02*
X025133Y002703D01*
X025133Y003203D02*
X025213Y003203D01*
X024871Y003703D02*
X028175Y003703D01*
X028161Y003709D02*
X028161Y002181D01*
X028184Y002203D02*
X028112Y002203D01*
X028133Y002703D02*
X028181Y002703D01*
X028133Y003203D02*
X028484Y003203D01*
X028661Y003379D02*
X028661Y003593D01*
X026233Y002203D02*
X026112Y002203D01*
X026161Y002184D02*
X026161Y008123D01*
X025661Y008123D02*
X025661Y007336D01*
X025972Y007203D02*
X026358Y007203D01*
X026245Y006703D02*
X026085Y006703D01*
X026066Y006203D02*
X026264Y006203D01*
X027085Y006703D02*
X027245Y006703D01*
X028085Y006703D02*
X029198Y006703D01*
X029198Y006203D02*
X028066Y006203D01*
X028175Y005703D02*
X024871Y005703D01*
X024451Y005703D02*
X023871Y005703D01*
X023451Y005703D02*
X022871Y005703D01*
X022451Y005703D02*
X021607Y005703D01*
X021661Y005757D02*
X021661Y002187D01*
X022161Y002187D02*
X022161Y008123D01*
X022661Y008123D02*
X022661Y007336D01*
X022358Y007203D02*
X021972Y007203D01*
X022085Y006703D02*
X022245Y006703D01*
X022264Y006203D02*
X022066Y006203D01*
X021245Y006552D02*
X021197Y006485D01*
X021131Y006419D01*
X021131Y006394D01*
X021131Y006187D01*
X021131Y006183D01*
X021046Y006183D01*
X021085Y006222D01*
X021085Y007090D01*
X020839Y007336D01*
X020491Y007336D01*
X020245Y007090D01*
X020245Y006222D01*
X020464Y006003D01*
X018881Y004419D01*
X018881Y004187D01*
X018881Y003719D01*
X018695Y003533D01*
X018625Y003463D01*
X018470Y003463D01*
X018201Y003194D01*
X018201Y002213D01*
X018224Y002189D01*
X018097Y002189D01*
X018121Y002213D01*
X018121Y003194D01*
X018091Y003224D01*
X018091Y004287D01*
X019780Y005976D01*
X019839Y005976D01*
X020085Y006222D01*
X020085Y007090D01*
X020041Y007134D01*
X020041Y007237D01*
X020197Y007393D01*
X020232Y007393D01*
X020365Y007448D01*
X020466Y007549D01*
X020521Y007682D01*
X020521Y007825D01*
X020466Y007957D01*
X020441Y007982D01*
X020441Y009027D01*
X020491Y008976D01*
X020542Y008976D01*
X020645Y008873D01*
X021281Y008237D01*
X021281Y007269D01*
X021281Y007126D01*
X021245Y007090D01*
X021245Y006552D01*
X021161Y006449D02*
X021161Y008357D01*
X021281Y008203D02*
X020441Y008203D01*
X020441Y008703D02*
X020815Y008703D01*
X020661Y008857D02*
X020661Y007336D01*
X020358Y007203D02*
X020041Y007203D01*
X020161Y007357D02*
X020161Y005699D01*
X020165Y005703D02*
X019507Y005703D01*
X019661Y005857D02*
X019661Y005199D01*
X019665Y005203D02*
X019007Y005203D01*
X019161Y005357D02*
X019161Y004699D01*
X019165Y004703D02*
X018507Y004703D01*
X018661Y004857D02*
X018661Y003499D01*
X018865Y003703D02*
X018091Y003703D01*
X017531Y003703D02*
X016358Y003703D01*
X016161Y003900D02*
X016161Y005543D01*
X015661Y005543D02*
X015661Y004400D01*
X015858Y004203D02*
X017531Y004203D01*
X018091Y004203D02*
X018881Y004203D01*
X019441Y003763D02*
X019489Y003743D01*
X019525Y003743D01*
X019805Y003463D01*
X019470Y003463D01*
X019201Y003194D01*
X019201Y002213D01*
X019225Y002189D01*
X019097Y002189D01*
X019121Y002213D01*
X019121Y003167D01*
X019277Y003323D01*
X019441Y003487D01*
X019441Y003763D01*
X019441Y003703D02*
X019565Y003703D01*
X019661Y003607D02*
X019661Y003463D01*
X019210Y003203D02*
X019157Y003203D01*
X019161Y003207D02*
X019161Y002189D01*
X019210Y002203D02*
X019111Y002203D01*
X019121Y002703D02*
X019201Y002703D01*
X020121Y002703D02*
X020201Y002703D01*
X020201Y003067D02*
X020201Y002213D01*
X020226Y002188D01*
X020096Y002188D01*
X020121Y002213D01*
X020121Y003147D01*
X020201Y003067D01*
X020161Y003107D02*
X020161Y002188D01*
X020210Y002203D02*
X020111Y002203D01*
X021111Y002203D02*
X022233Y002203D01*
X022213Y002703D02*
X021121Y002703D01*
X021111Y003203D02*
X022213Y003203D01*
X023133Y003203D02*
X023213Y003203D01*
X023213Y002703D02*
X023133Y002703D01*
X023112Y002203D02*
X023233Y002203D01*
X023161Y002186D02*
X023161Y008123D01*
X023661Y008123D02*
X023661Y007336D01*
X023358Y007203D02*
X022972Y007203D01*
X023085Y006703D02*
X023245Y006703D01*
X023264Y006203D02*
X023066Y006203D01*
X024066Y006203D02*
X024264Y006203D01*
X024245Y006703D02*
X024085Y006703D01*
X023972Y007203D02*
X024358Y007203D01*
X022161Y008683D02*
X022161Y012107D01*
X022257Y012203D02*
X023851Y012203D01*
X023661Y011889D02*
X023661Y012867D01*
X023851Y012703D02*
X022757Y012703D01*
X022661Y012607D02*
X022661Y011948D01*
X022376Y011703D02*
X021841Y011703D01*
X021841Y011203D02*
X022445Y011203D01*
X023161Y011948D02*
X023161Y012808D01*
X023851Y013479D02*
X023851Y014696D01*
X022882Y013728D01*
X023602Y013728D01*
X023851Y013479D01*
X023851Y013703D02*
X023626Y013703D01*
X023661Y013669D02*
X023661Y014506D01*
X023851Y014203D02*
X023358Y014203D01*
X023161Y014006D02*
X023161Y013728D01*
X022544Y013983D02*
X022274Y013713D01*
X022139Y013713D01*
X022041Y013672D01*
X022041Y014863D01*
X022089Y014843D01*
X022232Y014843D01*
X022365Y014898D01*
X022466Y014999D01*
X022501Y015083D01*
X022835Y015083D01*
X023081Y015329D01*
X023081Y015677D01*
X023035Y015723D01*
X023277Y015723D01*
X023441Y015887D01*
X024641Y017087D01*
X024641Y017319D01*
X024641Y019073D01*
X026345Y019073D01*
X026497Y019073D01*
X026527Y019043D01*
X026625Y019043D01*
X026695Y018973D01*
X026775Y018893D01*
X026768Y018893D01*
X026648Y019013D01*
X026474Y019013D01*
X025148Y019013D01*
X024974Y019013D01*
X024651Y018690D01*
X024651Y018516D01*
X024651Y016090D01*
X023081Y014520D01*
X023081Y014577D01*
X022835Y014823D01*
X022487Y014823D01*
X022241Y014577D01*
X022241Y014229D01*
X022487Y013983D01*
X022544Y013983D01*
X022267Y014203D02*
X022041Y014203D01*
X022041Y013703D02*
X022115Y013703D01*
X022161Y013713D02*
X022161Y014843D01*
X022041Y014703D02*
X022367Y014703D01*
X022661Y014823D02*
X022661Y015083D01*
X022955Y015203D02*
X023764Y015203D01*
X023661Y015100D02*
X023661Y016107D01*
X023757Y016203D02*
X024651Y016203D01*
X024651Y016703D02*
X024257Y016703D01*
X024161Y016607D02*
X024161Y015600D01*
X024264Y015703D02*
X023055Y015703D01*
X023161Y015723D02*
X023161Y014600D01*
X023264Y014703D02*
X022955Y014703D01*
X024578Y014823D02*
X024634Y014823D01*
X024674Y014863D01*
X025701Y015890D01*
X025701Y015946D01*
X024578Y014823D01*
X024661Y014850D02*
X024661Y014906D01*
X024958Y015203D02*
X025014Y015203D01*
X025161Y015350D02*
X025161Y015406D01*
X025458Y015703D02*
X025514Y015703D01*
X025661Y015850D02*
X025661Y015906D01*
X026108Y015703D02*
X026267Y015703D01*
X026661Y015923D02*
X026661Y016083D01*
X026397Y016203D02*
X026121Y016203D01*
X026161Y016556D02*
X026161Y015150D01*
X026214Y015203D02*
X025608Y015203D01*
X025661Y015256D02*
X025661Y014650D01*
X025714Y014703D02*
X025108Y014703D01*
X025161Y014756D02*
X025161Y014150D01*
X025214Y014203D02*
X025055Y014203D01*
X025661Y014056D02*
X025661Y013728D01*
X026161Y013728D02*
X026161Y014556D01*
X026308Y014703D02*
X027465Y014703D01*
X027661Y014507D02*
X027661Y014144D01*
X027965Y014203D02*
X025808Y014203D01*
X026186Y013703D02*
X027256Y013703D01*
X027161Y013250D02*
X027161Y018507D01*
X027231Y018203D02*
X027015Y018203D01*
X026661Y018053D02*
X026661Y017893D01*
X026321Y017703D02*
X025921Y017703D01*
X025501Y017703D02*
X025421Y017703D01*
X025421Y018154D02*
X025461Y018194D01*
X025501Y018154D01*
X025501Y016340D01*
X025421Y016260D01*
X025421Y018154D01*
X025970Y018203D02*
X026367Y018203D01*
X026161Y018593D02*
X026161Y017150D01*
X026214Y017203D02*
X025921Y017203D01*
X025501Y017203D02*
X025421Y017203D01*
X025421Y016703D02*
X025501Y016703D01*
X024651Y017203D02*
X024641Y017203D01*
X024081Y017319D02*
X024081Y018426D01*
X024021Y018366D01*
X024021Y017259D01*
X024081Y017319D01*
X024081Y017703D02*
X024021Y017703D01*
X023601Y017703D02*
X023048Y017703D01*
X023105Y017647D02*
X022908Y017843D01*
X023024Y017843D01*
X023198Y017843D01*
X023321Y017966D01*
X023321Y019696D01*
X023374Y019643D01*
X023701Y019316D01*
X023701Y018640D01*
X023601Y018540D01*
X023601Y018366D01*
X023601Y017263D01*
X023069Y017263D01*
X023105Y017299D01*
X023105Y017647D01*
X023161Y017843D02*
X023161Y017263D01*
X023161Y016843D02*
X023161Y016399D01*
X023111Y016349D02*
X023605Y016843D01*
X022945Y016843D01*
X023111Y016677D01*
X023111Y016349D01*
X023085Y016703D02*
X023465Y016703D01*
X022051Y016547D02*
X022051Y016513D01*
X022017Y016513D01*
X022051Y016547D01*
X021661Y016949D02*
X021661Y017260D01*
X021604Y017203D02*
X021915Y017203D01*
X022161Y017449D02*
X022161Y017843D01*
X022321Y017703D02*
X021683Y017703D01*
X021661Y017726D02*
X021661Y017843D01*
X021661Y018263D02*
X021661Y018393D01*
X022161Y018393D02*
X022161Y018263D01*
X022271Y018299D02*
X022271Y018393D01*
X018792Y018393D01*
X018821Y018325D01*
X018821Y018182D01*
X018766Y018049D01*
X018671Y017954D01*
X018671Y016710D01*
X019014Y017054D01*
X018951Y017054D01*
X018705Y017300D01*
X018705Y017647D01*
X018951Y017894D01*
X019299Y017894D01*
X019545Y017647D01*
X019545Y017585D01*
X019601Y017640D01*
X019601Y017790D01*
X019951Y018140D01*
X020074Y018263D01*
X022307Y018263D01*
X022271Y018299D01*
X022042Y018813D02*
X019121Y018813D01*
X019121Y018993D01*
X019198Y018993D01*
X020562Y018993D01*
X020657Y018898D01*
X020789Y018843D01*
X020932Y018843D01*
X021065Y018898D01*
X021166Y018999D01*
X021221Y019132D01*
X021221Y019275D01*
X021166Y019407D01*
X021065Y019508D01*
X020932Y019563D01*
X020789Y019563D01*
X020657Y019508D01*
X020562Y019413D01*
X020342Y019413D01*
X020371Y019482D01*
X020371Y019625D01*
X020316Y019757D01*
X020215Y019858D01*
X020082Y019913D01*
X019948Y019913D01*
X019521Y020340D01*
X019521Y021216D01*
X019521Y021368D01*
X019521Y021390D01*
X019493Y021418D01*
X019493Y022201D01*
X019445Y022249D01*
X020235Y022248D01*
X020172Y022185D01*
X020172Y021204D01*
X020441Y020934D01*
X020551Y020934D01*
X020551Y020516D01*
X020674Y020393D01*
X021951Y019116D01*
X021951Y018982D01*
X022006Y018849D01*
X022042Y018813D01*
X021661Y018813D02*
X021661Y019406D01*
X021864Y019203D02*
X021221Y019203D01*
X021161Y018994D02*
X021161Y018813D01*
X020661Y018813D02*
X020661Y018896D01*
X020661Y018393D02*
X020661Y018263D01*
X021161Y018263D02*
X021161Y018393D01*
X021057Y017843D02*
X020472Y017843D01*
X020532Y017783D01*
X020577Y017783D01*
X020945Y017783D01*
X020997Y017783D01*
X021057Y017843D01*
X020661Y017843D02*
X020661Y017783D01*
X020661Y017223D02*
X020661Y016833D01*
X021161Y016833D02*
X021161Y017073D01*
X020995Y017203D02*
X020531Y017203D01*
X020161Y017074D02*
X020161Y016913D01*
X019833Y016703D02*
X019258Y016703D01*
X019161Y016606D02*
X019161Y015894D01*
X019489Y015703D02*
X019601Y015703D01*
X019661Y015850D02*
X019661Y017106D01*
X019758Y017203D02*
X019924Y017203D01*
X019601Y017703D02*
X019489Y017703D01*
X019661Y017850D02*
X019661Y018393D01*
X019161Y018393D02*
X019161Y017894D01*
X018761Y017703D02*
X018671Y017703D01*
X018251Y017703D02*
X017681Y017703D01*
X017681Y017669D02*
X017681Y018017D01*
X017435Y018263D01*
X017087Y018263D01*
X016957Y018133D01*
X016895Y018133D01*
X015777Y018133D01*
X015735Y018133D01*
X015605Y018263D01*
X015257Y018263D01*
X015077Y018083D01*
X014071Y019089D01*
X014071Y019125D01*
X014016Y019257D01*
X013915Y019358D01*
X013891Y019368D01*
X013891Y020819D01*
X013727Y020983D01*
X013491Y021219D01*
X013493Y021220D01*
X013493Y022201D01*
X013441Y022252D01*
X013624Y022252D01*
X013573Y022201D01*
X013573Y021220D01*
X013842Y020950D01*
X014223Y020950D01*
X014295Y021022D01*
X016151Y019166D01*
X016274Y019043D01*
X016867Y019043D01*
X016841Y019017D01*
X016841Y018669D01*
X017087Y018423D01*
X017435Y018423D01*
X017555Y018543D01*
X017574Y018543D01*
X017601Y018516D01*
X017724Y018393D01*
X018129Y018393D01*
X018101Y018325D01*
X018101Y018182D01*
X018156Y018049D01*
X018251Y017954D01*
X018251Y016840D01*
X017661Y016250D01*
X017661Y016337D01*
X017415Y016583D01*
X017067Y016583D01*
X017021Y016537D01*
X017021Y016566D01*
X017198Y016743D01*
X017415Y016743D01*
X017661Y016989D01*
X017661Y017337D01*
X017505Y017493D01*
X017681Y017669D01*
X017661Y017649D02*
X017661Y016250D01*
X017161Y016583D02*
X017161Y016706D01*
X017158Y016703D02*
X018114Y016703D01*
X018161Y016750D02*
X018161Y018044D01*
X018101Y018203D02*
X017495Y018203D01*
X017661Y018037D02*
X017661Y018456D01*
X017161Y018423D02*
X017161Y018263D01*
X017027Y018203D02*
X015665Y018203D01*
X015661Y018207D02*
X015661Y018479D01*
X015605Y018423D02*
X015851Y018669D01*
X015851Y019017D01*
X015605Y019263D01*
X015257Y019263D01*
X015011Y019017D01*
X015011Y018669D01*
X015257Y018423D01*
X015605Y018423D01*
X015851Y018703D02*
X016841Y018703D01*
X016661Y019043D02*
X016661Y018133D01*
X016161Y018133D02*
X016161Y019156D01*
X016114Y019203D02*
X015665Y019203D01*
X015661Y019207D02*
X015661Y019656D01*
X015614Y019703D02*
X013891Y019703D01*
X013891Y020203D02*
X015114Y020203D01*
X015161Y020156D02*
X015161Y019167D01*
X015197Y019203D02*
X014038Y019203D01*
X014161Y018999D02*
X014161Y020950D01*
X013891Y020703D02*
X014614Y020703D01*
X014661Y020656D02*
X014661Y018499D01*
X014457Y018703D02*
X015011Y018703D01*
X015161Y018519D02*
X015161Y018167D01*
X015197Y018203D02*
X014957Y018203D01*
X014661Y017707D02*
X014661Y016799D01*
X014681Y016819D02*
X014375Y016513D01*
X014339Y016513D01*
X014271Y016485D01*
X014271Y016590D01*
X013471Y017390D01*
X013471Y018784D01*
X013507Y018748D01*
X013639Y018693D01*
X013675Y018693D01*
X014740Y017628D01*
X014681Y017569D01*
X014681Y017337D01*
X014681Y016819D01*
X014565Y016703D02*
X014158Y016703D01*
X014161Y016700D02*
X014161Y018207D01*
X014165Y018203D02*
X013471Y018203D01*
X013471Y017703D02*
X014665Y017703D01*
X014681Y017203D02*
X013658Y017203D01*
X013661Y017200D02*
X013661Y018693D01*
X013615Y018703D02*
X013471Y018703D01*
X013051Y018910D02*
X012471Y019490D01*
X012471Y019625D01*
X012416Y019757D01*
X012315Y019858D01*
X012182Y019913D01*
X012068Y019913D01*
X012248Y020093D01*
X012612Y020093D01*
X012707Y019998D01*
X012839Y019943D01*
X012982Y019943D01*
X013051Y019972D01*
X013051Y018910D01*
X013051Y019203D02*
X012758Y019203D01*
X012661Y019300D02*
X012661Y020044D01*
X012438Y019703D02*
X013051Y019703D01*
X012161Y019913D02*
X012161Y020006D01*
X011764Y020203D02*
X004498Y020203D01*
X004346Y020141D02*
X004689Y020283D01*
X004951Y020545D01*
X005094Y020888D01*
X005094Y021259D01*
X004951Y021602D01*
X004689Y021864D01*
X004346Y022006D01*
X003975Y022006D01*
X003632Y021864D01*
X003370Y021602D01*
X003228Y021259D01*
X003228Y020888D01*
X003370Y020545D01*
X003632Y020283D01*
X003975Y020141D01*
X004346Y020141D01*
X004161Y020141D02*
X004161Y017266D01*
X004346Y017266D02*
X003975Y017266D01*
X003632Y017124D01*
X003370Y016862D01*
X003228Y016519D01*
X003228Y016148D01*
X003370Y015805D01*
X003441Y015734D01*
X003201Y015494D01*
X003201Y014513D01*
X003470Y014243D01*
X003825Y014243D01*
X004215Y013853D01*
X004025Y013663D01*
X003170Y013663D01*
X003090Y013583D01*
X003090Y022259D01*
X007688Y022256D01*
X007551Y021924D01*
X007551Y021482D01*
X007720Y021075D01*
X008032Y020762D01*
X008440Y020593D01*
X008882Y020593D01*
X009289Y020762D01*
X009602Y021075D01*
X009771Y021482D01*
X009771Y021924D01*
X009634Y022255D01*
X011625Y022254D01*
X011573Y022201D01*
X011573Y021220D01*
X011842Y020950D01*
X012223Y020950D01*
X012295Y021022D01*
X012708Y020609D01*
X012707Y020608D01*
X012612Y020513D01*
X012074Y020513D01*
X011951Y020390D01*
X010774Y019213D01*
X010639Y019213D01*
X010507Y019158D01*
X010406Y019057D01*
X010351Y018925D01*
X010351Y018782D01*
X010406Y018649D01*
X010507Y018548D01*
X010639Y018493D01*
X010782Y018493D01*
X010915Y018548D01*
X011016Y018649D01*
X011071Y018782D01*
X011071Y018916D01*
X011751Y019596D01*
X011751Y019482D01*
X011806Y019349D01*
X011907Y019248D01*
X012039Y019193D01*
X012174Y019193D01*
X012851Y018516D01*
X012851Y017290D01*
X012851Y017116D01*
X013034Y016933D01*
X012076Y016933D01*
X012066Y016957D01*
X011965Y017058D01*
X011832Y017113D01*
X011689Y017113D01*
X011557Y017058D01*
X011456Y016957D01*
X011446Y016933D01*
X011417Y016933D01*
X011366Y017057D01*
X011265Y017158D01*
X011132Y017213D01*
X010989Y017213D01*
X010857Y017158D01*
X010762Y017063D01*
X009351Y017063D01*
X009511Y017223D01*
X009511Y017604D01*
X009241Y017873D01*
X008601Y017873D01*
X008544Y017916D01*
X008507Y017953D01*
X009241Y017953D01*
X009511Y018223D01*
X009511Y018604D01*
X009241Y018873D01*
X008260Y018873D01*
X008191Y018804D01*
X008191Y018819D01*
X008027Y018983D01*
X007795Y018983D01*
X006435Y018983D01*
X006462Y019010D01*
X006462Y019381D01*
X006200Y019642D01*
X005830Y019642D01*
X005621Y019434D01*
X005413Y019642D01*
X005043Y019642D01*
X004781Y019381D01*
X004781Y019010D01*
X005043Y018748D01*
X005360Y018748D01*
X005295Y018683D01*
X005270Y018658D01*
X005043Y018658D01*
X004781Y018396D01*
X004781Y018026D01*
X005043Y017764D01*
X005326Y017764D01*
X005045Y017483D01*
X004881Y017319D01*
X004881Y016932D01*
X004689Y017124D01*
X004346Y017266D01*
X004498Y017203D02*
X004881Y017203D01*
X004661Y017136D02*
X004661Y020271D01*
X005017Y020703D02*
X008175Y020703D01*
X008161Y020709D02*
X008161Y018849D01*
X008661Y018873D02*
X008661Y020593D01*
X009147Y020703D02*
X012614Y020703D01*
X012661Y020656D02*
X012661Y020562D01*
X013048Y020863D02*
X012961Y020950D01*
X012968Y020950D01*
X013045Y020873D01*
X013055Y020863D01*
X013048Y020863D01*
X013507Y021203D02*
X013589Y021203D01*
X013661Y021132D02*
X013661Y021049D01*
X013573Y021703D02*
X013493Y021703D01*
X013490Y022203D02*
X013575Y022203D01*
X014442Y022252D02*
X014624Y022252D01*
X014573Y022201D01*
X014573Y021338D01*
X014493Y021418D01*
X014493Y022201D01*
X014442Y022252D01*
X014490Y022203D02*
X014575Y022203D01*
X014573Y021703D02*
X014493Y021703D01*
X014961Y020950D02*
X016448Y019463D01*
X016854Y019463D01*
X015295Y021022D01*
X015223Y020950D01*
X014961Y020950D01*
X015161Y020950D02*
X015161Y020750D01*
X015208Y020703D02*
X015614Y020703D01*
X015661Y020656D02*
X015661Y020250D01*
X015708Y020203D02*
X016114Y020203D01*
X016161Y020156D02*
X016161Y019750D01*
X016208Y019703D02*
X016614Y019703D01*
X016661Y019656D02*
X016661Y019463D01*
X017161Y019750D02*
X017161Y020256D01*
X017214Y020203D02*
X016708Y020203D01*
X016661Y020250D02*
X016661Y021132D01*
X016589Y021203D02*
X016476Y021203D01*
X016493Y021220D02*
X016493Y022201D01*
X016443Y022251D01*
X016622Y022250D01*
X016573Y022201D01*
X016573Y021220D01*
X016842Y020950D01*
X016951Y020950D01*
X016951Y020466D01*
X017074Y020343D01*
X017754Y019663D01*
X017248Y019663D01*
X015961Y020950D01*
X016223Y020950D01*
X016493Y021220D01*
X016161Y020950D02*
X016161Y020750D01*
X016208Y020703D02*
X016951Y020703D01*
X017371Y020703D02*
X018614Y020703D01*
X018629Y020688D02*
X018557Y020658D01*
X018456Y020557D01*
X018401Y020425D01*
X018401Y020282D01*
X018456Y020149D01*
X018557Y020048D01*
X018689Y019993D01*
X018701Y019993D01*
X018701Y019485D01*
X018632Y019513D01*
X018498Y019513D01*
X017371Y020640D01*
X017371Y021066D01*
X017371Y021098D01*
X017493Y021220D01*
X017493Y022201D01*
X017444Y022250D01*
X017622Y022250D01*
X017573Y022201D01*
X017573Y021220D01*
X017842Y020950D01*
X018223Y020950D01*
X018295Y021022D01*
X018629Y020688D01*
X018961Y020950D02*
X019101Y020950D01*
X019101Y020810D01*
X018961Y020950D01*
X018573Y021338D02*
X018493Y021418D01*
X018493Y022201D01*
X018444Y022249D01*
X018621Y022249D01*
X018573Y022201D01*
X018573Y021338D01*
X018573Y021703D02*
X018493Y021703D01*
X018490Y022203D02*
X018575Y022203D01*
X019490Y022203D02*
X020190Y022203D01*
X020161Y022248D02*
X020161Y019881D01*
X020338Y019703D02*
X021364Y019703D01*
X021161Y019906D02*
X021161Y019412D01*
X020661Y019510D02*
X020661Y020406D01*
X020864Y020203D02*
X019658Y020203D01*
X019661Y020200D02*
X019661Y022249D01*
X019493Y021703D02*
X020172Y021703D01*
X020172Y021203D02*
X019521Y021203D01*
X019521Y020703D02*
X020551Y020703D01*
X020971Y020703D02*
X022864Y020703D01*
X022901Y020666D02*
X022901Y019857D01*
X022875Y019883D01*
X022527Y019883D01*
X022281Y019637D01*
X022281Y019413D01*
X022248Y019413D01*
X020971Y020690D01*
X020971Y021016D01*
X020971Y021083D01*
X021092Y021204D01*
X021092Y022185D01*
X021028Y022248D01*
X021235Y022248D01*
X021172Y022185D01*
X021172Y021204D01*
X021441Y020934D01*
X021822Y020934D01*
X022092Y021204D01*
X022092Y022185D01*
X022029Y022247D01*
X022234Y022247D01*
X022172Y022185D01*
X022172Y021204D01*
X022441Y020934D01*
X022633Y020934D01*
X022674Y020893D01*
X022901Y020666D01*
X022674Y020893D02*
X022674Y020893D01*
X022661Y020906D02*
X022661Y019883D01*
X022347Y019703D02*
X021958Y019703D01*
X022161Y019500D02*
X022161Y022247D01*
X022190Y022203D02*
X022073Y022203D01*
X022092Y021703D02*
X022172Y021703D01*
X022172Y021203D02*
X022091Y021203D01*
X021661Y020934D02*
X021661Y020000D01*
X021458Y020203D02*
X022901Y020203D01*
X023321Y020785D02*
X023321Y020840D01*
X023198Y020963D01*
X023024Y021136D01*
X023092Y021204D01*
X023092Y022185D01*
X023030Y022246D01*
X023233Y022246D01*
X023172Y022185D01*
X023172Y021204D01*
X023441Y020934D01*
X023822Y020934D01*
X024092Y021204D01*
X024092Y022185D01*
X024030Y022246D01*
X024233Y022246D01*
X024172Y022185D01*
X024172Y021204D01*
X024301Y021074D01*
X024301Y021016D01*
X024301Y020190D01*
X024174Y020063D01*
X024039Y020063D01*
X023907Y020008D01*
X023806Y019907D01*
X023776Y019835D01*
X023671Y019940D01*
X023671Y020154D01*
X023766Y020249D01*
X023821Y020382D01*
X023821Y020525D01*
X023766Y020657D01*
X023665Y020758D01*
X023532Y020813D01*
X023389Y020813D01*
X023321Y020785D01*
X023198Y020963D02*
X023198Y020963D01*
X023161Y021000D02*
X023161Y022246D01*
X023190Y022203D02*
X023073Y022203D01*
X023092Y021703D02*
X023172Y021703D01*
X023172Y021203D02*
X023091Y021203D01*
X023661Y020934D02*
X023661Y020760D01*
X023720Y020703D02*
X024301Y020703D01*
X024721Y020703D02*
X028181Y020703D01*
X027822Y020934D02*
X028092Y021204D01*
X028092Y022038D01*
X028181Y021970D01*
X028181Y017460D01*
X028462Y017179D01*
X028465Y017179D01*
X028841Y016813D01*
X028440Y016813D01*
X028032Y016644D01*
X027791Y016403D01*
X027791Y018669D01*
X027627Y018833D01*
X027121Y019339D01*
X027121Y019637D01*
X026875Y019883D01*
X026527Y019883D01*
X026281Y019637D01*
X026281Y019633D01*
X024477Y019633D01*
X024471Y019633D01*
X024471Y019766D01*
X024598Y019893D01*
X024721Y020016D01*
X024721Y020934D01*
X024822Y020934D01*
X025092Y021204D01*
X025092Y022185D01*
X025031Y022245D01*
X025232Y022245D01*
X025172Y022185D01*
X025172Y021204D01*
X025441Y020934D01*
X025822Y020934D01*
X026092Y021204D01*
X026092Y022185D01*
X026032Y022245D01*
X026231Y022244D01*
X026172Y022185D01*
X026172Y021204D01*
X026441Y020934D01*
X026822Y020934D01*
X027092Y021204D01*
X027092Y022185D01*
X027032Y022244D01*
X027231Y022244D01*
X027172Y022185D01*
X027172Y021204D01*
X027441Y020934D01*
X027822Y020934D01*
X027661Y020934D02*
X027661Y018799D01*
X027757Y018703D02*
X028181Y018703D01*
X028181Y018203D02*
X027791Y018203D01*
X027791Y017703D02*
X028181Y017703D01*
X028438Y017203D02*
X027791Y017203D01*
X027231Y017203D02*
X027009Y017203D01*
X026661Y017053D02*
X026661Y016923D01*
X027085Y016703D02*
X027231Y016703D01*
X027231Y016203D02*
X026985Y016203D01*
X027055Y015703D02*
X027231Y015703D01*
X027231Y015203D02*
X026955Y015203D01*
X026661Y015056D02*
X026661Y012849D01*
X026791Y012703D02*
X027051Y012703D01*
X027051Y012203D02*
X026791Y012203D01*
X027471Y012203D02*
X029202Y012203D01*
X029161Y012478D02*
X029161Y011889D01*
X029176Y011703D02*
X029202Y011703D01*
X029161Y011478D02*
X029161Y005697D01*
X029147Y005703D02*
X029197Y005703D01*
X028661Y005813D02*
X028661Y010857D01*
X028441Y010703D02*
X029201Y010703D01*
X029201Y010203D02*
X028441Y010203D01*
X028441Y009703D02*
X029200Y009703D01*
X029200Y009203D02*
X028441Y009203D01*
X029199Y007703D02*
X021841Y007703D01*
X021281Y007703D02*
X020521Y007703D01*
X020972Y007203D02*
X021281Y007203D01*
X021245Y006703D02*
X021085Y006703D01*
X021066Y006203D02*
X021131Y006203D01*
X021161Y005623D02*
X021161Y002187D01*
X018210Y002203D02*
X018111Y002203D01*
X018161Y002189D02*
X018161Y004357D01*
X017715Y004703D02*
X015358Y004703D01*
X015161Y004900D02*
X015161Y005543D01*
X014858Y005203D02*
X018215Y005203D01*
X018161Y005149D02*
X018161Y005543D01*
X018271Y005963D02*
X018271Y006197D01*
X018491Y005976D01*
X018551Y005976D01*
X018551Y005963D01*
X018271Y005963D01*
X017661Y005543D02*
X017661Y004649D01*
X017161Y005543D02*
X017161Y002190D01*
X017210Y002203D02*
X017111Y002203D01*
X017121Y002703D02*
X017201Y002703D01*
X017210Y003203D02*
X017111Y003203D01*
X016661Y003463D02*
X016661Y005543D01*
X015954Y005963D02*
X014798Y005963D01*
X014785Y005976D01*
X014839Y005976D01*
X015085Y006222D01*
X015085Y006881D01*
X015245Y007041D01*
X015245Y006222D01*
X015491Y005976D01*
X015839Y005976D01*
X015890Y006027D01*
X015954Y005963D01*
X015661Y005963D02*
X015661Y005976D01*
X015264Y006203D02*
X015066Y006203D01*
X015161Y005963D02*
X015161Y006956D01*
X015085Y006703D02*
X015245Y006703D01*
X014893Y007282D02*
X014839Y007336D01*
X014741Y007336D01*
X016366Y008962D01*
X016351Y008925D01*
X016351Y008782D01*
X016363Y008752D01*
X014893Y007282D01*
X015161Y007550D02*
X015161Y007756D01*
X015108Y007703D02*
X015314Y007703D01*
X015661Y007456D02*
X015661Y007336D01*
X015541Y007336D02*
X015839Y007336D01*
X016085Y007090D01*
X016085Y006426D01*
X016245Y006266D01*
X016245Y007090D01*
X016491Y007336D01*
X016839Y007336D01*
X017085Y007090D01*
X017085Y006222D01*
X017026Y006163D01*
X017304Y006163D01*
X017245Y006222D01*
X017245Y007090D01*
X017286Y007131D01*
X016951Y007466D01*
X016951Y007640D01*
X016951Y008584D01*
X016915Y008548D01*
X016782Y008493D01*
X016698Y008493D01*
X015541Y007336D01*
X015908Y007703D02*
X016951Y007703D01*
X017371Y007703D02*
X017851Y007703D01*
X017839Y007336D02*
X017675Y007336D01*
X017648Y007363D01*
X017371Y007640D01*
X017371Y009097D01*
X017491Y008976D01*
X017839Y008976D01*
X017851Y008988D01*
X017851Y007324D01*
X017839Y007336D01*
X017661Y007350D02*
X017661Y008976D01*
X017851Y008703D02*
X017371Y008703D01*
X017371Y008203D02*
X017851Y008203D01*
X018271Y008203D02*
X018551Y008203D01*
X018971Y008203D02*
X019051Y008203D01*
X019471Y008203D02*
X019881Y008203D01*
X019881Y007982D02*
X019856Y007957D01*
X019801Y007825D01*
X019801Y007789D01*
X019645Y007633D01*
X019481Y007469D01*
X019481Y007326D01*
X019471Y007316D01*
X019471Y008997D01*
X019491Y008976D01*
X019839Y008976D01*
X019881Y009018D01*
X019881Y007982D01*
X019715Y007703D02*
X019471Y007703D01*
X019661Y007649D02*
X019661Y008976D01*
X019051Y009072D02*
X018993Y009130D01*
X019051Y009188D01*
X019051Y009072D01*
X019051Y008634D02*
X018971Y008554D01*
X018971Y007204D01*
X019051Y007124D01*
X019051Y008634D01*
X019471Y008703D02*
X019881Y008703D01*
X019051Y007703D02*
X018971Y007703D01*
X018551Y007703D02*
X018271Y007703D01*
X018491Y007336D02*
X018271Y007116D01*
X018271Y009197D01*
X018442Y009025D01*
X018401Y008925D01*
X018401Y008782D01*
X018456Y008649D01*
X018551Y008554D01*
X018551Y007336D01*
X018491Y007336D01*
X018358Y007203D02*
X018271Y007203D01*
X018972Y007203D02*
X019051Y007203D01*
X020085Y006703D02*
X020245Y006703D01*
X020264Y006203D02*
X020066Y006203D01*
X017264Y006203D02*
X017066Y006203D01*
X017161Y006163D02*
X017161Y007256D01*
X017214Y007203D02*
X016972Y007203D01*
X016661Y007336D02*
X016661Y008456D01*
X016408Y008203D02*
X016951Y008203D01*
X016314Y008703D02*
X016108Y008703D01*
X016161Y008756D02*
X016161Y008550D01*
X015661Y008256D02*
X015661Y008050D01*
X015608Y008203D02*
X015814Y008203D01*
X016161Y007956D02*
X016161Y006350D01*
X016085Y006703D02*
X016245Y006703D01*
X016358Y007203D02*
X015972Y007203D01*
X017085Y006703D02*
X017245Y006703D01*
X018271Y008703D02*
X018433Y008703D01*
X018451Y010703D02*
X018271Y010703D01*
X017851Y010703D02*
X017571Y010703D01*
X017151Y011703D02*
X016771Y011703D01*
X016247Y011703D02*
X016008Y011703D01*
X016161Y011617D02*
X016161Y011856D01*
X015661Y011950D02*
X015661Y012746D01*
X015665Y012748D02*
X015766Y012849D01*
X015821Y012982D01*
X015821Y013125D01*
X015766Y013257D01*
X015665Y013358D01*
X015532Y013413D01*
X015389Y013413D01*
X015341Y013393D01*
X015341Y014287D01*
X015577Y014523D01*
X015741Y014687D01*
X015741Y014999D01*
X015815Y015073D01*
X016137Y015073D01*
X016297Y014913D01*
X016624Y014913D01*
X016624Y014913D01*
X016489Y014913D01*
X016357Y014858D01*
X016256Y014757D01*
X016201Y014625D01*
X016201Y014482D01*
X016256Y014349D01*
X016357Y014248D01*
X016429Y014218D01*
X015951Y013740D01*
X015951Y013566D01*
X015951Y012240D01*
X015524Y011813D01*
X015521Y011810D01*
X015521Y011840D01*
X015521Y012693D01*
X015532Y012693D01*
X015665Y012748D01*
X015557Y012703D02*
X015951Y012703D01*
X015951Y013203D02*
X015788Y013203D01*
X015661Y013360D02*
X015661Y014607D01*
X015741Y014703D02*
X016233Y014703D01*
X016161Y015049D02*
X016161Y013950D01*
X015951Y013703D02*
X015341Y013703D01*
X015341Y014203D02*
X016414Y014203D01*
X016701Y013896D02*
X016701Y013832D01*
X016749Y013715D01*
X016632Y013763D01*
X016568Y013763D01*
X016701Y013896D01*
X016661Y013856D02*
X016661Y013751D01*
X017068Y014263D02*
X017148Y014343D01*
X017201Y014396D01*
X017201Y014235D01*
X017132Y014263D01*
X017068Y014263D01*
X017161Y014251D02*
X017161Y014356D01*
X017621Y013703D02*
X018282Y013703D01*
X019042Y013703D02*
X019051Y013703D01*
X019471Y013703D02*
X020282Y013703D01*
X020101Y014703D02*
X019471Y014703D01*
X016601Y016210D02*
X015836Y016975D01*
X015861Y016999D01*
X015861Y017347D01*
X015695Y017513D01*
X015755Y017573D01*
X016937Y017573D01*
X016997Y017513D01*
X016821Y017337D01*
X016821Y016989D01*
X016835Y016975D01*
X016601Y016740D01*
X016601Y016566D01*
X016601Y016210D01*
X016464Y015753D02*
X016297Y015753D01*
X016177Y015633D01*
X016145Y015633D01*
X015815Y015633D01*
X015675Y015773D01*
X015635Y015773D01*
X015861Y015999D01*
X015861Y016347D01*
X015615Y016593D01*
X015267Y016593D01*
X015021Y016347D01*
X015021Y015999D01*
X015267Y015753D01*
X015307Y015753D01*
X015157Y015604D01*
X015148Y015613D01*
X015121Y015640D01*
X015121Y015775D01*
X015066Y015907D01*
X014965Y016008D01*
X014832Y016063D01*
X014763Y016063D01*
X014771Y016082D01*
X014771Y016117D01*
X015077Y016423D01*
X015241Y016587D01*
X015241Y016779D01*
X015267Y016753D01*
X015464Y016753D01*
X015474Y016743D01*
X016464Y015753D01*
X016247Y015703D02*
X015745Y015703D01*
X015661Y015773D02*
X015661Y015799D01*
X015861Y016203D02*
X016014Y016203D01*
X016161Y016056D02*
X016161Y015633D01*
X015257Y015703D02*
X015121Y015703D01*
X015161Y015607D02*
X015161Y015859D01*
X015021Y016203D02*
X014857Y016203D01*
X014408Y015793D02*
X014401Y015775D01*
X014401Y015632D01*
X014456Y015499D01*
X014557Y015398D01*
X014689Y015343D01*
X014824Y015343D01*
X014851Y015316D01*
X014851Y015302D01*
X014756Y015207D01*
X014701Y015075D01*
X014701Y014932D01*
X014756Y014799D01*
X014857Y014698D01*
X014930Y014668D01*
X014781Y014519D01*
X014781Y014287D01*
X014781Y013083D01*
X014051Y013083D01*
X014071Y013132D01*
X014071Y013266D01*
X014148Y013343D01*
X014178Y013373D01*
X014395Y013373D01*
X014641Y013619D01*
X014641Y013967D01*
X014395Y014213D01*
X014271Y014213D01*
X014271Y015822D01*
X014339Y015793D01*
X014408Y015793D01*
X014401Y015703D02*
X014271Y015703D01*
X014661Y015355D02*
X014661Y013083D01*
X014781Y013203D02*
X014071Y013203D01*
X014161Y013083D02*
X014161Y013356D01*
X014641Y013703D02*
X014781Y013703D01*
X014781Y014203D02*
X014405Y014203D01*
X014271Y014703D02*
X014852Y014703D01*
X014754Y015203D02*
X014271Y015203D01*
X013131Y015203D02*
X012258Y015203D01*
X012161Y015106D02*
X012161Y014450D01*
X012251Y014540D02*
X011974Y014263D01*
X011934Y014223D01*
X011817Y014223D01*
X011671Y014077D01*
X011671Y014616D01*
X012948Y015893D01*
X013082Y015893D01*
X013131Y015913D01*
X013131Y014419D01*
X013045Y014333D01*
X012935Y014223D01*
X012917Y014223D01*
X012671Y013977D01*
X012671Y013629D01*
X012917Y013383D01*
X013265Y013383D01*
X013393Y013512D01*
X013452Y013453D01*
X013406Y013407D01*
X013351Y013275D01*
X013351Y013132D01*
X013371Y013083D01*
X011338Y013083D01*
X011671Y013416D01*
X011671Y013529D01*
X011817Y013383D01*
X012165Y013383D01*
X012411Y013629D01*
X012411Y013977D01*
X012346Y014042D01*
X012548Y014243D01*
X012682Y014243D01*
X012815Y014298D01*
X012916Y014399D01*
X012971Y014532D01*
X012971Y014675D01*
X012916Y014807D01*
X012815Y014908D01*
X012682Y014963D01*
X012539Y014963D01*
X012407Y014908D01*
X012306Y014807D01*
X012251Y014675D01*
X012251Y014540D01*
X012263Y014703D02*
X011758Y014703D01*
X011471Y015010D02*
X012354Y015893D01*
X012248Y015893D01*
X011471Y015116D01*
X011471Y015010D01*
X011558Y015203D02*
X011664Y015203D01*
X011661Y015200D02*
X011661Y015306D01*
X011464Y015703D02*
X011357Y015703D01*
X011161Y015507D02*
X011161Y015400D01*
X011174Y015413D02*
X011051Y015290D01*
X011051Y014207D01*
X011035Y014223D01*
X010687Y014223D01*
X010527Y014063D01*
X010524Y014063D01*
X010055Y014063D01*
X010071Y014079D01*
X010071Y014417D01*
X011741Y016087D01*
X011741Y016319D01*
X011741Y016373D01*
X011877Y016373D01*
X011971Y016373D01*
X011951Y016325D01*
X011951Y016190D01*
X011174Y015413D01*
X011051Y015203D02*
X010857Y015203D01*
X010661Y015007D02*
X010661Y014197D01*
X010667Y014203D02*
X010071Y014203D01*
X010161Y014063D02*
X010161Y014507D01*
X010357Y014703D02*
X011051Y014703D01*
X011671Y014203D02*
X011797Y014203D01*
X012411Y013703D02*
X012671Y013703D01*
X012508Y014203D02*
X012897Y014203D01*
X012661Y014243D02*
X012661Y013083D01*
X013161Y013083D02*
X013161Y013383D01*
X013351Y013203D02*
X011458Y013203D01*
X011661Y013083D02*
X011661Y013406D01*
X012161Y013383D02*
X012161Y013083D01*
X012161Y012523D02*
X012161Y012223D01*
X012165Y012223D02*
X011817Y012223D01*
X011571Y011977D01*
X011571Y011629D01*
X011817Y011383D01*
X012165Y011383D01*
X012411Y011629D01*
X012411Y011977D01*
X012165Y012223D01*
X012185Y012203D02*
X012897Y012203D01*
X013161Y012223D02*
X013161Y012523D01*
X012661Y012523D02*
X012661Y010608D01*
X012202Y010203D02*
X011241Y010203D01*
X011241Y010703D02*
X013351Y010703D01*
X013771Y010703D02*
X015264Y010703D01*
X015358Y010203D02*
X014972Y010203D01*
X015085Y010090D02*
X014839Y010336D01*
X014491Y010336D01*
X014245Y010090D01*
X014245Y009222D01*
X014491Y008976D01*
X014839Y008976D01*
X015085Y009222D01*
X015085Y010090D01*
X015085Y009703D02*
X015245Y009703D01*
X014661Y010336D02*
X014661Y012523D01*
X014405Y012203D02*
X015101Y012203D01*
X015521Y012203D02*
X015914Y012203D01*
X016771Y012203D02*
X017151Y012203D01*
X016851Y012703D02*
X016771Y012703D01*
X014964Y011703D02*
X014641Y011703D01*
X014161Y012213D02*
X014161Y012523D01*
X014037Y012203D02*
X013921Y012203D01*
X013801Y011703D02*
X013771Y011703D01*
X013351Y011203D02*
X011241Y011203D01*
X011661Y011539D02*
X011661Y009494D01*
X011407Y009703D02*
X012065Y009703D01*
X012161Y009799D02*
X012161Y011383D01*
X012411Y011703D02*
X012671Y011703D01*
X013161Y011383D02*
X013161Y010265D01*
X013182Y010203D02*
X013351Y010203D01*
X013161Y009970D02*
X013161Y007433D01*
X013351Y007703D02*
X011691Y007703D01*
X012161Y007433D02*
X012161Y009007D01*
X012357Y009203D02*
X013351Y009203D01*
X013771Y009203D02*
X014264Y009203D01*
X014661Y008976D02*
X014661Y007850D01*
X014514Y007703D02*
X013771Y007703D01*
X012661Y007433D02*
X012661Y009507D01*
X012970Y009703D02*
X013351Y009703D01*
X013771Y009703D02*
X014245Y009703D01*
X014358Y010203D02*
X013771Y010203D01*
X015066Y009203D02*
X015264Y009203D01*
X012661Y006873D02*
X012661Y006608D01*
X013031Y006703D02*
X007457Y006703D01*
X007661Y006907D02*
X007661Y006483D01*
X007221Y006203D02*
X006957Y006203D01*
X007161Y006143D02*
X007161Y006407D01*
X006665Y006703D02*
X003090Y006703D01*
X003090Y006203D02*
X004861Y006203D01*
X004661Y006003D02*
X004661Y011207D01*
X004665Y011203D02*
X004421Y011203D01*
X004161Y010753D02*
X004161Y002198D01*
X004661Y002198D02*
X004661Y004744D01*
X004701Y004703D02*
X003090Y004703D01*
X003090Y004203D02*
X006011Y004203D01*
X006061Y004263D02*
X006711Y004914D01*
X006711Y005833D01*
X006649Y005895D01*
X009227Y008473D01*
X010201Y008473D01*
X010471Y008743D01*
X010471Y009124D01*
X010201Y009393D01*
X009220Y009393D01*
X008951Y009124D01*
X008951Y008989D01*
X008881Y008919D01*
X006253Y006291D01*
X006061Y006483D01*
X005141Y006483D01*
X004491Y005833D01*
X004491Y004914D01*
X005141Y004263D01*
X006061Y004263D01*
X006161Y004353D02*
X006161Y004364D01*
X006321Y004513D02*
X005671Y003863D01*
X005671Y002944D01*
X006321Y002293D01*
X007241Y002293D01*
X007891Y002944D01*
X007891Y003863D01*
X007241Y004513D01*
X006321Y004513D01*
X006501Y004703D02*
X007061Y004703D01*
X007161Y004604D02*
X007161Y004513D01*
X006661Y004513D02*
X006661Y004864D01*
X006711Y005203D02*
X006851Y005203D01*
X006851Y005703D02*
X006711Y005703D01*
X006661Y005883D02*
X006661Y005907D01*
X006161Y006383D02*
X006161Y010573D01*
X005661Y010573D02*
X005661Y006483D01*
X005161Y006483D02*
X005161Y010707D01*
X005165Y010703D02*
X003090Y010703D01*
X003090Y010203D02*
X009030Y010203D01*
X008951Y010124D02*
X009220Y010393D01*
X010201Y010393D01*
X010471Y010124D01*
X010471Y009743D01*
X010201Y009473D01*
X009220Y009473D01*
X008951Y009743D01*
X008951Y010124D01*
X009161Y010334D02*
X009161Y010573D01*
X009661Y010573D02*
X009661Y010393D01*
X010161Y010393D02*
X010161Y010573D01*
X010391Y010203D02*
X010681Y010203D01*
X010681Y009703D02*
X010431Y009703D01*
X010161Y009473D02*
X010161Y009393D01*
X010391Y009203D02*
X010877Y009203D01*
X011161Y008844D02*
X011161Y008799D01*
X011131Y008703D02*
X010431Y008703D01*
X010161Y008473D02*
X010161Y008393D01*
X010201Y008393D02*
X009220Y008393D01*
X008951Y008124D01*
X008951Y007743D01*
X009220Y007473D01*
X010201Y007473D01*
X010471Y007743D01*
X010471Y008124D01*
X010201Y008393D01*
X010391Y008203D02*
X011131Y008203D01*
X011131Y007703D02*
X010431Y007703D01*
X010161Y007473D02*
X010161Y006233D01*
X010661Y006233D02*
X010661Y011409D01*
X010641Y011203D02*
X010681Y011203D01*
X010681Y010703D02*
X010607Y010703D01*
X010081Y011133D02*
X010081Y011826D01*
X009971Y011716D01*
X009971Y011640D01*
X009971Y011597D01*
X010051Y011517D01*
X010051Y011169D01*
X010015Y011133D01*
X010081Y011133D01*
X010081Y011203D02*
X010051Y011203D01*
X010081Y011703D02*
X009971Y011703D01*
X009551Y011763D02*
X009551Y011890D01*
X009554Y011893D01*
X009467Y011893D01*
X009221Y012139D01*
X009221Y012487D01*
X009427Y012693D01*
X007310Y012693D01*
X007215Y012598D01*
X007082Y012543D01*
X006939Y012543D01*
X006871Y012572D01*
X006871Y012366D01*
X006748Y012243D01*
X006036Y011532D01*
X006051Y011517D01*
X006051Y011169D01*
X006015Y011133D01*
X009247Y011133D01*
X009211Y011169D01*
X009211Y011517D01*
X009457Y011763D01*
X009551Y011763D01*
X009397Y011703D02*
X006208Y011703D01*
X006161Y011656D02*
X006161Y011133D01*
X006051Y011203D02*
X009211Y011203D01*
X009161Y011133D02*
X009161Y012693D01*
X009161Y013113D02*
X009161Y013643D01*
X009201Y013467D02*
X009377Y013643D01*
X007098Y013643D01*
X006924Y013643D01*
X006892Y013675D01*
X006871Y013654D01*
X006871Y013235D01*
X006939Y013263D01*
X007082Y013263D01*
X007215Y013208D01*
X007310Y013113D01*
X009207Y013113D01*
X009201Y013119D01*
X009201Y013467D01*
X009201Y013203D02*
X007220Y013203D01*
X007161Y013231D02*
X007161Y013643D01*
X007221Y014063D02*
X007221Y014073D01*
X007277Y014073D01*
X009237Y014073D01*
X009247Y014063D01*
X007221Y014063D01*
X007661Y014063D02*
X007661Y014073D01*
X007661Y013643D02*
X007661Y013113D01*
X007661Y012693D02*
X007661Y011133D01*
X008161Y011133D02*
X008161Y012693D01*
X008661Y012693D02*
X008661Y011133D01*
X008661Y010573D02*
X008661Y008699D01*
X008665Y008703D02*
X003090Y008703D01*
X003090Y008203D02*
X008165Y008203D01*
X008161Y008199D02*
X008161Y010573D01*
X007661Y010573D02*
X007661Y007699D01*
X007665Y007703D02*
X003090Y007703D01*
X003090Y007203D02*
X007165Y007203D01*
X007161Y007199D02*
X007161Y010573D01*
X006661Y010573D02*
X006661Y006699D01*
X007957Y007203D02*
X010877Y007203D01*
X011161Y006844D02*
X011161Y006233D01*
X011661Y006233D02*
X011661Y006873D01*
X012161Y006873D02*
X012161Y006233D01*
X012161Y005673D02*
X012161Y002193D01*
X011661Y002193D02*
X011661Y005673D01*
X011161Y005673D02*
X011161Y002194D01*
X010661Y002194D02*
X010661Y005673D01*
X010161Y005673D02*
X010161Y004571D01*
X010216Y004571D02*
X010027Y004571D01*
X009852Y004499D01*
X009719Y004365D01*
X009646Y004190D01*
X009646Y004001D01*
X009719Y003827D01*
X009852Y003693D01*
X010027Y003621D01*
X010216Y003621D01*
X010390Y003693D01*
X010524Y003827D01*
X010596Y004001D01*
X010596Y004190D01*
X010524Y004365D01*
X010390Y004499D01*
X010216Y004571D01*
X010591Y004203D02*
X012949Y004203D01*
X013031Y004703D02*
X008861Y004703D01*
X008661Y004504D02*
X008661Y002195D01*
X008161Y002195D02*
X008161Y004263D01*
X007661Y004263D02*
X007661Y004093D01*
X007550Y004203D02*
X009652Y004203D01*
X009661Y004225D02*
X009661Y005673D01*
X009161Y005673D02*
X009161Y002195D01*
X009661Y002195D02*
X009661Y002485D01*
X009646Y002499D02*
X009925Y002221D01*
X010318Y002221D01*
X010596Y002499D01*
X010596Y002893D01*
X010318Y003171D01*
X009925Y003171D01*
X009646Y002893D01*
X009646Y002499D01*
X009646Y002703D02*
X007651Y002703D01*
X007661Y002714D02*
X007661Y002196D01*
X007161Y002196D02*
X007161Y002293D01*
X006661Y002293D02*
X006661Y002196D01*
X006161Y002197D02*
X006161Y002454D01*
X005911Y002703D02*
X003090Y002703D01*
X003090Y003203D02*
X005671Y003203D01*
X005671Y003703D02*
X003090Y003703D01*
X003090Y005203D02*
X004491Y005203D01*
X004491Y005703D02*
X003090Y005703D01*
X005161Y004263D02*
X005161Y002197D01*
X005661Y002197D02*
X005661Y004263D01*
X007891Y003703D02*
X009842Y003703D01*
X009661Y003967D02*
X009661Y002907D01*
X010161Y003171D02*
X010161Y003621D01*
X010401Y003703D02*
X013143Y003703D01*
X013161Y003692D02*
X013161Y003111D01*
X013223Y003173D02*
X012945Y002895D01*
X012945Y002502D01*
X013223Y002223D01*
X013617Y002223D01*
X013895Y002502D01*
X013895Y002895D01*
X013617Y003173D01*
X013223Y003173D01*
X013661Y003129D02*
X013661Y003684D01*
X013697Y003703D02*
X015764Y003703D01*
X015661Y003806D02*
X015661Y003463D01*
X016111Y003203D02*
X016210Y003203D01*
X016161Y003306D02*
X016161Y002190D01*
X016210Y002203D02*
X016111Y002203D01*
X016121Y002703D02*
X016201Y002703D01*
X015201Y002703D02*
X013895Y002703D01*
X013661Y002267D02*
X013661Y002192D01*
X013161Y002192D02*
X013161Y002286D01*
X012945Y002703D02*
X010596Y002703D01*
X010161Y002221D02*
X010161Y002194D01*
X007891Y003203D02*
X015210Y003203D01*
X014661Y002191D02*
X014661Y004806D01*
X014764Y004703D02*
X013591Y004703D01*
X013591Y005203D02*
X014264Y005203D01*
X014161Y005306D02*
X014161Y002192D01*
X012661Y002193D02*
X012661Y005628D01*
X012970Y005703D02*
X013031Y005703D01*
X013031Y005203D02*
X009071Y005203D01*
X009161Y006233D02*
X009161Y007533D01*
X008990Y007703D02*
X008457Y007703D01*
X008661Y007907D02*
X008661Y006243D01*
X008161Y006483D02*
X008161Y007407D01*
X008957Y008203D02*
X009030Y008203D01*
X009161Y008334D02*
X009161Y008407D01*
X009661Y008393D02*
X009661Y008473D01*
X009030Y009203D02*
X003090Y009203D01*
X003090Y009703D02*
X008990Y009703D01*
X009161Y009533D02*
X009161Y009334D01*
X009661Y009393D02*
X009661Y009473D01*
X007161Y011133D02*
X007161Y012576D01*
X006708Y012203D02*
X009221Y012203D01*
X009855Y012693D02*
X010354Y012693D01*
X010061Y012400D01*
X010061Y012487D01*
X009855Y012693D01*
X010161Y012693D02*
X010161Y012500D01*
X010161Y013113D02*
X010161Y013643D01*
X010041Y013467D02*
X009865Y013643D01*
X010441Y013643D01*
X010441Y013629D01*
X010687Y013383D01*
X010744Y013383D01*
X010474Y013113D01*
X010035Y013113D01*
X010041Y013119D01*
X010041Y013467D01*
X010041Y013203D02*
X010564Y013203D01*
X010661Y013300D02*
X010661Y013409D01*
X011161Y012407D02*
X011161Y012097D01*
X011055Y012203D02*
X011797Y012203D01*
X011661Y012067D02*
X011661Y012523D01*
X011571Y011703D02*
X011281Y011703D01*
X008661Y013113D02*
X008661Y013643D01*
X008161Y013643D02*
X008161Y013113D01*
X008161Y014063D02*
X008161Y014073D01*
X008661Y014063D02*
X008661Y014073D01*
X009161Y014063D02*
X009161Y014073D01*
X009161Y014633D02*
X009161Y015953D01*
X009241Y015953D02*
X009511Y016223D01*
X009511Y016604D01*
X009471Y016643D01*
X010762Y016643D01*
X010857Y016548D01*
X010989Y016493D01*
X011132Y016493D01*
X011181Y016513D01*
X011181Y016319D01*
X010101Y015239D01*
X010101Y015407D01*
X009855Y015653D01*
X009507Y015653D01*
X009261Y015407D01*
X009261Y015059D01*
X009507Y014813D01*
X009675Y014813D01*
X009645Y014783D01*
X009535Y014673D01*
X009477Y014673D01*
X009437Y014633D01*
X009295Y014633D01*
X007277Y014633D01*
X006691Y015219D01*
X006688Y015222D01*
X006766Y015299D01*
X006821Y015432D01*
X006821Y015575D01*
X006766Y015707D01*
X006671Y015802D01*
X006671Y016643D01*
X008030Y016643D01*
X007991Y016604D01*
X007991Y016223D01*
X008260Y015953D01*
X009241Y015953D01*
X009491Y016203D02*
X011065Y016203D01*
X011161Y016299D02*
X011161Y016505D01*
X010661Y016643D02*
X010661Y015799D01*
X010565Y015703D02*
X006768Y015703D01*
X006251Y015802D02*
X006156Y015707D01*
X006101Y015575D01*
X006101Y015432D01*
X006121Y015383D01*
X006101Y015383D01*
X006101Y015407D01*
X005855Y015653D01*
X005507Y015653D01*
X005261Y015407D01*
X005261Y015099D01*
X005121Y014959D01*
X005121Y015467D01*
X005441Y015787D01*
X005441Y016019D01*
X005441Y017087D01*
X006027Y017673D01*
X006118Y017764D01*
X006200Y017764D01*
X006462Y018026D01*
X006462Y018396D01*
X006435Y018423D01*
X007631Y018423D01*
X007631Y018269D01*
X007631Y018037D01*
X008028Y017641D01*
X007991Y017604D01*
X007991Y017223D01*
X008150Y017063D01*
X006374Y017063D01*
X006251Y016940D01*
X006251Y016766D01*
X006251Y015802D01*
X006161Y015712D02*
X006161Y017764D01*
X006057Y017703D02*
X007965Y017703D01*
X007661Y018007D02*
X007661Y017063D01*
X008010Y017203D02*
X005557Y017203D01*
X005661Y017307D02*
X005661Y015653D01*
X005357Y015703D02*
X006154Y015703D01*
X006251Y016203D02*
X005441Y016203D01*
X005441Y016703D02*
X006251Y016703D01*
X006661Y017063D02*
X006661Y018423D01*
X006462Y018203D02*
X007631Y018203D01*
X007161Y018423D02*
X007161Y017063D01*
X007161Y016643D02*
X007161Y014749D01*
X007207Y014703D02*
X009565Y014703D01*
X009661Y014799D02*
X009661Y014813D01*
X009261Y015203D02*
X006707Y015203D01*
X007661Y014633D02*
X007661Y016643D01*
X008010Y016203D02*
X006671Y016203D01*
X008161Y016053D02*
X008161Y014633D01*
X008661Y014633D02*
X008661Y015953D01*
X009661Y015653D02*
X009661Y016643D01*
X009661Y017063D02*
X009661Y021217D01*
X009655Y021203D02*
X011589Y021203D01*
X011661Y021132D02*
X011661Y020100D01*
X011264Y019703D02*
X003090Y019703D01*
X003090Y019203D02*
X004781Y019203D01*
X005161Y019642D02*
X005161Y022258D01*
X005661Y022257D02*
X005661Y019473D01*
X006161Y019642D02*
X006161Y022257D01*
X006661Y022257D02*
X006661Y018983D01*
X006462Y019203D02*
X010615Y019203D01*
X010661Y019213D02*
X010661Y022254D01*
X011161Y022254D02*
X011161Y019600D01*
X011358Y019203D02*
X012015Y019203D01*
X012161Y019193D02*
X012161Y016933D01*
X011661Y017102D02*
X011661Y019506D01*
X011161Y019006D02*
X011161Y017201D01*
X011156Y017203D02*
X012851Y017203D01*
X012661Y016933D02*
X012661Y018706D01*
X012664Y018703D02*
X011038Y018703D01*
X010661Y018493D02*
X010661Y017063D01*
X010965Y017203D02*
X009491Y017203D01*
X009411Y017703D02*
X012851Y017703D01*
X012851Y018203D02*
X009491Y018203D01*
X009161Y017953D02*
X009161Y017873D01*
X008661Y017873D02*
X008661Y017953D01*
X009161Y018873D02*
X009161Y020709D01*
X009771Y021703D02*
X011573Y021703D01*
X011575Y022203D02*
X009655Y022203D01*
X009661Y022189D02*
X009661Y022255D01*
X010161Y022254D02*
X010161Y017063D01*
X010161Y016643D02*
X010161Y015299D01*
X011661Y015900D02*
X011661Y016007D01*
X011741Y016203D02*
X011951Y016203D01*
X012161Y015806D02*
X012161Y015700D01*
X012164Y015703D02*
X012058Y015703D01*
X012661Y015606D02*
X012661Y014963D01*
X012959Y014703D02*
X013131Y014703D01*
X013131Y015703D02*
X012758Y015703D01*
X012661Y016349D02*
X012661Y016373D01*
X012671Y016373D02*
X012661Y016349D01*
X012651Y016373D01*
X012671Y016373D01*
X015161Y016487D02*
X015161Y016507D01*
X015241Y016703D02*
X015514Y016703D01*
X015661Y016556D02*
X015661Y016547D01*
X016108Y016703D02*
X016601Y016703D01*
X016661Y016800D02*
X016661Y017573D01*
X016821Y017203D02*
X015861Y017203D01*
X016161Y017573D02*
X016161Y016650D01*
X017661Y017203D02*
X018251Y017203D01*
X018671Y017203D02*
X018801Y017203D01*
X018821Y018203D02*
X020014Y018203D01*
X020161Y018263D02*
X020161Y018393D01*
X020161Y018813D02*
X020161Y018993D01*
X019661Y018993D02*
X019661Y018813D01*
X019161Y018813D02*
X019161Y018993D01*
X019321Y019413D02*
X019321Y019946D01*
X019651Y019616D01*
X019651Y019482D01*
X019679Y019413D01*
X019321Y019413D01*
X019321Y019703D02*
X019564Y019703D01*
X019661Y019458D02*
X019661Y019413D01*
X018701Y019703D02*
X018308Y019703D01*
X018161Y019850D02*
X018161Y020950D01*
X017661Y021132D02*
X017661Y020350D01*
X017808Y020203D02*
X018433Y020203D01*
X018661Y020005D02*
X018661Y019501D01*
X017714Y019703D02*
X017208Y019703D01*
X017661Y019663D02*
X017661Y019756D01*
X017589Y021203D02*
X017476Y021203D01*
X017493Y021703D02*
X017573Y021703D01*
X017575Y022203D02*
X017490Y022203D01*
X016575Y022203D02*
X016490Y022203D01*
X016493Y021703D02*
X016573Y021703D01*
X015623Y022251D02*
X015573Y022201D01*
X015573Y021338D01*
X015493Y021418D01*
X015493Y022201D01*
X015443Y022251D01*
X015623Y022251D01*
X015575Y022203D02*
X015490Y022203D01*
X015493Y021703D02*
X015573Y021703D01*
X012625Y022253D02*
X012573Y022201D01*
X012573Y021338D01*
X012493Y021418D01*
X012493Y022201D01*
X012441Y022253D01*
X012625Y022253D01*
X012575Y022203D02*
X012490Y022203D01*
X012493Y021703D02*
X012573Y021703D01*
X012161Y020950D02*
X012161Y020513D01*
X010383Y018703D02*
X009411Y018703D01*
X007661Y018983D02*
X007661Y021217D01*
X007666Y021203D02*
X005094Y021203D01*
X004850Y021703D02*
X007551Y021703D01*
X007661Y022189D02*
X007661Y022256D01*
X007667Y022203D02*
X003090Y022203D01*
X003161Y022259D02*
X003161Y013654D01*
X003090Y013703D02*
X004065Y013703D01*
X004161Y013799D02*
X004161Y013907D01*
X003865Y014203D02*
X003090Y014203D01*
X003090Y014703D02*
X003201Y014703D01*
X003201Y015203D02*
X003090Y015203D01*
X003090Y015703D02*
X003410Y015703D01*
X003228Y016203D02*
X003090Y016203D01*
X003090Y016703D02*
X003304Y016703D01*
X003661Y017136D02*
X003661Y020271D01*
X003824Y020203D02*
X003090Y020203D01*
X003090Y020703D02*
X003304Y020703D01*
X003228Y021203D02*
X003090Y021203D01*
X003090Y021703D02*
X003472Y021703D01*
X003661Y021876D02*
X003661Y022259D01*
X004161Y022258D02*
X004161Y022006D01*
X004661Y021876D02*
X004661Y022258D01*
X007161Y022256D02*
X007161Y018983D01*
X005315Y018703D02*
X003090Y018703D01*
X003090Y018203D02*
X004781Y018203D01*
X005161Y017764D02*
X005161Y017599D01*
X005265Y017703D02*
X003090Y017703D01*
X003090Y017203D02*
X003824Y017203D01*
X005161Y018658D02*
X005161Y018748D01*
X005295Y018683D02*
X005295Y018683D01*
X006027Y017673D02*
X006027Y017673D01*
X005161Y015507D02*
X005161Y014999D01*
X005121Y015203D02*
X005261Y015203D01*
X004201Y015203D02*
X004121Y015203D01*
X004121Y015400D02*
X004121Y014752D01*
X004136Y014724D01*
X004201Y014659D01*
X004201Y015400D01*
X004121Y015400D01*
X004161Y015400D02*
X004161Y014699D01*
X004157Y014703D02*
X004201Y014703D01*
X003661Y014243D02*
X003661Y013663D01*
X004421Y013267D02*
X004421Y013013D01*
X004151Y012743D01*
X003170Y012743D01*
X003090Y012824D01*
X003090Y012583D01*
X003170Y012663D01*
X004151Y012663D01*
X004421Y012394D01*
X004421Y012239D01*
X004491Y012169D01*
X004491Y012169D01*
X005211Y011449D01*
X005211Y011517D01*
X005457Y011763D01*
X005674Y011763D01*
X005804Y011893D01*
X005467Y011893D01*
X005221Y012139D01*
X005221Y012487D01*
X005467Y012733D01*
X005644Y012733D01*
X005674Y012763D01*
X005784Y012873D01*
X005447Y012873D01*
X005201Y013119D01*
X005201Y013467D01*
X005447Y013713D01*
X005795Y013713D01*
X006041Y013467D01*
X006041Y013130D01*
X006101Y013190D01*
X006101Y014004D01*
X006048Y014057D01*
X005825Y013833D01*
X005477Y013833D01*
X005232Y014078D01*
X004866Y013712D01*
X004866Y013712D01*
X004702Y013548D01*
X004702Y013548D01*
X004441Y013287D01*
X004421Y013267D01*
X004421Y013203D02*
X005201Y013203D01*
X005437Y012703D02*
X003090Y012703D01*
X003161Y012654D02*
X003161Y012753D01*
X003661Y012743D02*
X003661Y012663D01*
X004161Y012654D02*
X004161Y012753D01*
X004457Y012203D02*
X005221Y012203D01*
X005397Y011703D02*
X004957Y011703D01*
X005161Y011499D02*
X005161Y014007D01*
X005437Y013703D02*
X004857Y013703D01*
X004661Y013507D02*
X004661Y011999D01*
X004165Y011703D02*
X003090Y011703D01*
X003161Y011654D02*
X003161Y011753D01*
X003661Y011743D02*
X003661Y011663D01*
X004161Y011654D02*
X004161Y011707D01*
X003661Y010743D02*
X003661Y002198D01*
X009661Y006233D02*
X009661Y007473D01*
X006661Y011133D02*
X006661Y012156D01*
X006451Y012540D02*
X006061Y012150D01*
X006061Y012487D01*
X006026Y012522D01*
X006398Y012893D01*
X006451Y012946D01*
X006451Y012540D01*
X006451Y012703D02*
X006208Y012703D01*
X006161Y012656D02*
X006161Y012250D01*
X006114Y012203D02*
X006061Y012203D01*
X005661Y011893D02*
X005661Y011763D01*
X005661Y012750D02*
X005661Y012873D01*
X006041Y013203D02*
X006101Y013203D01*
X006101Y013703D02*
X005805Y013703D01*
X005661Y013713D02*
X005661Y013833D01*
X014358Y005703D02*
X014464Y005703D01*
X014661Y005543D02*
X014661Y005400D01*
X018111Y003203D02*
X018210Y003203D01*
X018201Y002703D02*
X018121Y002703D01*
X026133Y002703D02*
X026213Y002703D01*
X027972Y007203D02*
X029198Y007203D01*
X029201Y011203D02*
X028741Y011203D01*
X028161Y011333D02*
X028161Y011478D01*
X028176Y011703D02*
X028215Y011703D01*
X028161Y011889D02*
X028161Y012478D01*
X028256Y012493D02*
X028525Y012224D01*
X028906Y012224D01*
X029176Y012493D01*
X029176Y012874D01*
X028906Y013144D01*
X028525Y013144D01*
X028256Y012874D01*
X028256Y012493D01*
X028256Y012703D02*
X028176Y012703D01*
X028161Y012889D02*
X028161Y013478D01*
X028176Y013703D02*
X028256Y013703D01*
X028161Y013889D02*
X028161Y014007D01*
X028661Y014299D02*
X028661Y014593D01*
X028757Y014203D02*
X029204Y014203D01*
X029161Y013889D02*
X029161Y014709D01*
X029147Y014703D02*
X029204Y014703D01*
X029176Y013703D02*
X029203Y013703D01*
X029161Y013478D02*
X029161Y012889D01*
X029176Y012703D02*
X029203Y012703D01*
X029203Y013203D02*
X027708Y013203D01*
X027661Y013156D02*
X027661Y013144D01*
X027114Y013203D02*
X026431Y013203D01*
X025661Y012808D02*
X025661Y011948D01*
X027271Y011478D02*
X027416Y011333D01*
X027251Y011333D01*
X027271Y011382D01*
X027271Y011478D01*
X027661Y012144D02*
X027661Y012224D01*
X028661Y012224D02*
X028661Y012144D01*
X028661Y013144D02*
X028661Y013224D01*
X026648Y015043D02*
X026648Y015043D01*
X027791Y016703D02*
X028175Y016703D01*
X028161Y016698D02*
X028161Y021985D01*
X028181Y021703D02*
X028092Y021703D01*
X028091Y021203D02*
X028181Y021203D01*
X027172Y021203D02*
X027091Y021203D01*
X026661Y020934D02*
X026661Y019883D01*
X026347Y019703D02*
X024471Y019703D01*
X024661Y019633D02*
X024661Y019956D01*
X024721Y020203D02*
X028181Y020203D01*
X028181Y019703D02*
X027055Y019703D01*
X027161Y019299D02*
X027161Y022244D01*
X027190Y022203D02*
X027073Y022203D01*
X027092Y021703D02*
X027172Y021703D01*
X026172Y021703D02*
X026092Y021703D01*
X026091Y021203D02*
X026172Y021203D01*
X025661Y020934D02*
X025661Y019633D01*
X026161Y019633D02*
X026161Y022244D01*
X026190Y022203D02*
X026073Y022203D01*
X025190Y022203D02*
X025073Y022203D01*
X025161Y022245D02*
X025161Y019633D01*
X025161Y019073D02*
X025161Y019013D01*
X025661Y019013D02*
X025661Y019073D01*
X026161Y019073D02*
X026161Y019013D01*
X026661Y019000D02*
X026661Y019007D01*
X026695Y018973D02*
X026695Y018973D01*
X027257Y019203D02*
X028181Y019203D01*
X027231Y017703D02*
X027048Y017703D01*
X028661Y016989D02*
X028661Y016813D01*
X024651Y017703D02*
X024641Y017703D01*
X024641Y018203D02*
X024651Y018203D01*
X024081Y018203D02*
X024021Y018203D01*
X023601Y018203D02*
X023321Y018203D01*
X023661Y018600D02*
X023661Y019356D01*
X023701Y019203D02*
X023321Y019203D01*
X022901Y019069D02*
X022901Y018857D01*
X022865Y018893D01*
X022634Y018893D01*
X022671Y018982D01*
X022671Y019043D01*
X022875Y019043D01*
X022901Y019069D01*
X022661Y018958D02*
X022661Y018893D01*
X023321Y018703D02*
X023701Y018703D01*
X024641Y018703D02*
X024664Y018703D01*
X024661Y018700D02*
X024661Y019073D01*
X024161Y020063D02*
X024161Y022246D01*
X024190Y022203D02*
X024073Y022203D01*
X024092Y021703D02*
X024172Y021703D01*
X024172Y021203D02*
X024091Y021203D01*
X025091Y021203D02*
X025172Y021203D01*
X025172Y021703D02*
X025092Y021703D01*
X024301Y020203D02*
X023720Y020203D01*
X021161Y020500D02*
X021161Y022248D01*
X021190Y022203D02*
X021073Y022203D01*
X021092Y021703D02*
X021172Y021703D01*
X021172Y021203D02*
X021091Y021203D01*
X023846Y011703D02*
X023851Y011703D01*
M02*
