%
M48
M72
T01C0.0240
T02C0.0320
T03C0.0374
T04C0.0400
T05C0.0440
T06C0.0906
T07C0.1260
T08C0.1300
%
T01
X13561Y12253
X13711Y13203
X13661Y13753
X12611Y14603
X14411Y16153
X14761Y15703
X15061Y15003
X16561Y14553
X17061Y13903
X16561Y13403
X15461Y13053
X17761Y14603
X18662Y13806
X17811Y12703
X18311Y12203
X20662Y13806
X22211Y13353
X22161Y15203
X21761Y15803
X20161Y16553
X18461Y18253
X18561Y19153
X18061Y19153
X18761Y20353
X20011Y19553
X20861Y19203
X22311Y19053
X23461Y20453
X24111Y19703
X25211Y18453
X25711Y18453
X26911Y11453
X20161Y7753
X18761Y8853
X16711Y8853
X19561Y4103
X7011Y12903
X6661Y13953
X6311Y14303
X6461Y15503
X10711Y18853
X12111Y19553
X12911Y20303
X13711Y19053
X11761Y16753
X11061Y16853
X12311Y16253
X13011Y16253
T02
X15441Y16173
X15501Y15353
X16471Y15333
X17241Y16163
X17241Y17163
X17261Y17843
X17261Y18843
X15431Y18843
X15431Y17843
X15441Y17173
X19125Y17474
X20228Y17494
X21300Y17493
X22685Y17473
X22691Y16503
X22661Y15503
X22661Y14403
X21300Y15493
X20228Y15494
X19125Y15474
X22691Y18473
X22701Y19463
X26701Y19463
X26691Y18473
X26685Y17473
X26691Y16503
X26661Y15503
X24661Y14403
X24665Y9656
X25665Y9656
X26665Y9656
X27665Y9656
X27665Y6656
X26665Y6656
X25665Y6656
X24665Y6656
X23665Y6656
X22665Y6656
X21665Y6656
X20665Y6656
X19665Y6656
X18665Y6656
X17665Y6656
X16665Y6656
X15665Y6656
X14665Y6656
X11297Y7264
X11297Y9264
X9631Y11343
X9641Y12313
X9621Y13293
X9651Y14253
X9681Y15233
X10861Y13803
X11991Y13803
X13091Y13803
X14221Y13793
X14221Y11793
X13091Y11803
X11991Y11803
X10861Y11803
X14665Y9656
X15665Y9656
X16665Y9656
X17665Y9656
X18665Y9656
X19665Y9656
X20665Y9656
X21665Y9656
X22665Y9656
X23665Y9656
X16471Y11333
X15501Y11353
X13420Y4098
X13420Y2698
X10121Y2696
X10121Y4096
X5631Y11343
X5641Y12313
X5621Y13293
X5651Y14253
X5681Y15233
T03
X6015Y18211
X5228Y18211
X5228Y19195
X6015Y19195
T04
X8751Y18413
X8751Y17413
X8751Y16413
X4661Y15003
X3661Y15003
X3661Y13203
X3661Y12203
X3661Y11203
X9711Y9933
X9711Y8933
X9711Y7933
X15661Y2703
X16661Y2703
X17661Y2703
X18661Y2703
X19661Y2703
X20661Y2703
X22673Y2714
X23673Y2714
X24673Y2714
X25673Y2714
X26673Y2714
X27673Y2714
X25671Y11488
X27716Y11684
X28716Y11684
X28716Y12684
X27716Y12684
X27716Y13684
X28716Y13684
X25671Y13268
X23111Y13268
X23111Y11488
X22632Y21694
X23632Y21694
X24632Y21694
X25632Y21694
X26632Y21694
X27632Y21694
X21632Y21694
X20632Y21694
X19033Y21710
X18033Y21710
X17033Y21710
X16033Y21710
X15033Y21710
X14033Y21710
X13033Y21710
X12033Y21710
T05
X12692Y10118
X12692Y6118
T06
X4161Y16333
X4161Y21073
T07
X8661Y21703
X28661Y15703
X28661Y4703
T08
X6781Y3403
X7961Y5373
X5601Y5373
M30
