G75*
G70*
%OFA0B0*%
%FSLAX24Y24*%
%IPPOS*%
%LPD*%
%AMOC8*
5,1,8,0,0,1.08239X$1,22.5*
%
%ADD10C,0.0520*%
%ADD11OC8,0.0520*%
%ADD12R,0.0500X0.1250*%
%ADD13C,0.0600*%
%ADD14C,0.0160*%
%ADD15C,0.0100*%
%ADD16C,0.0396*%
D10*
X007443Y003163D02*
X007443Y003683D01*
X008443Y003683D02*
X008443Y003163D01*
X009443Y003163D02*
X009443Y003683D01*
X010443Y003683D02*
X010443Y003163D01*
X011443Y003163D02*
X011443Y003683D01*
X012443Y003683D02*
X012443Y003163D01*
X013443Y003163D02*
X013443Y003683D01*
X014443Y003683D02*
X014443Y003163D01*
X014443Y006163D02*
X014443Y006683D01*
X013443Y006683D02*
X013443Y006163D01*
X012443Y006163D02*
X012443Y006683D01*
X011443Y006683D02*
X011443Y006163D01*
X010443Y006163D02*
X010443Y006683D01*
X009443Y006683D02*
X009443Y006163D01*
X008443Y006163D02*
X008443Y006683D01*
X007443Y006683D02*
X007443Y006163D01*
D11*
X005943Y006173D03*
X004943Y006173D03*
X003943Y006173D03*
X002943Y006173D03*
X002943Y003173D03*
X003943Y003173D03*
X004943Y003173D03*
X005943Y003173D03*
X004943Y001423D03*
X003943Y001423D03*
X001943Y001423D03*
X000943Y001423D03*
X006943Y001423D03*
X007943Y001423D03*
X009943Y001423D03*
X010943Y001423D03*
X012943Y001423D03*
X013943Y001423D03*
X015943Y001423D03*
X016943Y001423D03*
X018943Y001423D03*
X019943Y001423D03*
X021943Y001423D03*
X022943Y001423D03*
X018693Y003423D03*
X017693Y003423D03*
X016693Y003423D03*
X015693Y003423D03*
X015693Y006423D03*
X016693Y006423D03*
X017693Y006423D03*
X018693Y006423D03*
D12*
X000943Y001173D03*
X001943Y001173D03*
X003943Y001173D03*
X004943Y001173D03*
X006943Y001173D03*
X007943Y001173D03*
X009943Y001173D03*
X010943Y001173D03*
X012943Y001173D03*
X013943Y001173D03*
X015943Y001173D03*
X016943Y001173D03*
X018943Y001173D03*
X019943Y001173D03*
X021943Y001173D03*
X022943Y001173D03*
D13*
X020343Y002623D02*
X019743Y002623D01*
X019743Y003623D02*
X020343Y003623D01*
X020343Y004623D02*
X019743Y004623D01*
X019743Y005623D02*
X020343Y005623D01*
X020343Y006623D02*
X019743Y006623D01*
X002043Y006523D02*
X001443Y006523D01*
X001443Y005523D02*
X002043Y005523D01*
X002043Y004523D02*
X001443Y004523D01*
X001443Y003523D02*
X002043Y003523D01*
X002043Y002523D02*
X001443Y002523D01*
D14*
X007443Y006423D02*
X007443Y007023D01*
X001743Y007023D01*
X001743Y006523D01*
D15*
X002943Y006173D02*
X002943Y004123D01*
X010443Y004123D01*
X010443Y003423D01*
X011443Y003423D02*
X011443Y004323D01*
X003943Y004323D01*
X003943Y006173D01*
X004943Y006173D02*
X004943Y004523D01*
X012443Y004523D01*
X012443Y003423D01*
X013443Y003423D02*
X013443Y004723D01*
X005943Y004723D01*
X005943Y006173D01*
X007443Y006423D02*
X008443Y006423D01*
X009443Y006423D02*
X009443Y005123D01*
X018693Y005123D01*
X018693Y006423D01*
X017693Y006423D02*
X017643Y006423D01*
X017643Y005323D01*
X010443Y005323D01*
X010443Y006423D01*
X011443Y006423D02*
X011443Y005523D01*
X016693Y005523D01*
X016693Y006423D01*
X015693Y006423D02*
X015693Y005723D01*
X012443Y005723D01*
X012443Y006423D01*
X008643Y005223D02*
X008643Y004923D01*
X013643Y004923D01*
X013643Y004423D01*
X019243Y004423D01*
X019243Y003723D01*
X020043Y003723D01*
X020043Y003623D01*
X018843Y002923D02*
X015643Y002923D01*
X015643Y003423D01*
X015693Y003423D01*
X015043Y003923D02*
X015043Y002723D01*
X008443Y002723D01*
X008443Y002623D01*
X006743Y002623D01*
X006743Y003923D01*
X002743Y003923D01*
X002743Y004523D01*
X001743Y004523D01*
X002943Y003173D02*
X002943Y001923D01*
X000943Y001923D01*
X000943Y001423D01*
X003943Y001423D02*
X004043Y001423D01*
X004043Y003173D01*
X003943Y003173D01*
X004943Y003173D02*
X004943Y001923D01*
X006943Y001923D01*
X006943Y001423D01*
X005943Y002123D02*
X005943Y003173D01*
X008443Y003423D02*
X008443Y002723D01*
X009943Y002123D02*
X005943Y002123D01*
X009943Y002123D02*
X009943Y001423D01*
X012943Y001423D02*
X012943Y002523D01*
X018343Y002523D01*
X018843Y002923D02*
X018843Y001923D01*
X021943Y001923D01*
X021943Y001423D01*
X017943Y002023D02*
X016543Y002023D01*
X015943Y001423D01*
X008643Y005223D02*
X007443Y005223D01*
D16*
X007443Y005223D03*
X008643Y005223D03*
X018343Y002523D03*
X017943Y002023D03*
M02*
