%
M48
M72
T01C0.0236
T02C0.0320
T03C0.0400
%
T01
X7443Y5223
X8643Y5223
X17943Y2023
X18343Y2523
T02
X943Y1423
X1943Y1423
X3943Y1423
X4943Y1423
X6943Y1423
X7943Y1423
X9943Y1423
X10943Y1423
X12943Y1423
X13943Y1423
X15943Y1423
X16943Y1423
X18943Y1423
X19943Y1423
X21943Y1423
X22943Y1423
X18693Y3423
X17693Y3423
X16693Y3423
X15693Y3423
X14443Y3423
X13443Y3423
X12443Y3423
X11443Y3423
X10443Y3423
X9443Y3423
X8443Y3423
X7443Y3423
X5943Y3173
X4943Y3173
X3943Y3173
X2943Y3173
X2943Y6173
X3943Y6173
X4943Y6173
X5943Y6173
X7443Y6423
X8443Y6423
X9443Y6423
X10443Y6423
X11443Y6423
X12443Y6423
X13443Y6423
X14443Y6423
X15693Y6423
X16693Y6423
X17693Y6423
X18693Y6423
T03
X19943Y6423
X19943Y5423
X19943Y4423
X19943Y3423
X19943Y2423
X19943Y7423
X1693Y7423
X1693Y6423
X1693Y5423
X1693Y4423
X1693Y3423
X1693Y2423
M30
