G75*
G70*
%OFA0B0*%
%FSLAX24Y24*%
%IPPOS*%
%LPD*%
%AMOC8*
5,1,8,0,0,1.08239X$1,22.5*
%
%ADD10C,0.0060*%
%ADD11C,0.0050*%
D10*
X001443Y001923D02*
X001193Y002173D01*
X001193Y002673D01*
X001443Y002923D01*
X001193Y003173D01*
X001193Y003673D01*
X001443Y003923D01*
X001193Y004173D01*
X001193Y004673D01*
X001443Y004923D01*
X001193Y005173D01*
X001193Y005673D01*
X001443Y005923D01*
X001193Y006173D01*
X001193Y006673D01*
X001443Y006923D01*
X001193Y007173D01*
X001193Y007673D01*
X001443Y007923D01*
X001943Y007923D01*
X002193Y007673D01*
X002193Y007173D01*
X001943Y006923D01*
X002193Y006673D01*
X002193Y006173D01*
X001943Y005923D01*
X001443Y005923D01*
X001943Y005923D02*
X002193Y005673D01*
X002193Y005173D01*
X001943Y004923D01*
X002193Y004673D01*
X002193Y004173D01*
X001943Y003923D01*
X002193Y003673D01*
X002193Y003173D01*
X001943Y002923D01*
X002193Y002673D01*
X002193Y002173D01*
X001943Y001923D01*
X001443Y001923D01*
X001443Y002923D02*
X001943Y002923D01*
X002493Y003523D02*
X002493Y003673D01*
X002543Y003723D01*
X002543Y005623D01*
X002493Y005673D01*
X002493Y005823D01*
X002495Y005840D01*
X002499Y005857D01*
X002506Y005873D01*
X002516Y005887D01*
X002529Y005900D01*
X002543Y005910D01*
X002559Y005917D01*
X002576Y005921D01*
X002593Y005923D01*
X003293Y005923D02*
X003310Y005921D01*
X003327Y005917D01*
X003343Y005910D01*
X003357Y005900D01*
X003370Y005887D01*
X003380Y005873D01*
X003387Y005857D01*
X003391Y005840D01*
X003393Y005823D01*
X003393Y005673D01*
X003343Y005623D01*
X003343Y003723D01*
X003393Y003673D01*
X003393Y003523D01*
X003391Y003506D01*
X003387Y003489D01*
X003380Y003473D01*
X003370Y003459D01*
X003357Y003446D01*
X003343Y003436D01*
X003327Y003429D01*
X003310Y003425D01*
X003293Y003423D01*
X003493Y003523D02*
X003493Y003673D01*
X003543Y003723D01*
X003543Y005623D01*
X003493Y005673D01*
X003493Y005823D01*
X003495Y005840D01*
X003499Y005857D01*
X003506Y005873D01*
X003516Y005887D01*
X003529Y005900D01*
X003543Y005910D01*
X003559Y005917D01*
X003576Y005921D01*
X003593Y005923D01*
X004293Y005923D02*
X004310Y005921D01*
X004327Y005917D01*
X004343Y005910D01*
X004357Y005900D01*
X004370Y005887D01*
X004380Y005873D01*
X004387Y005857D01*
X004391Y005840D01*
X004393Y005823D01*
X004393Y005673D01*
X004343Y005623D01*
X004343Y003723D01*
X004393Y003673D01*
X004393Y003523D01*
X004391Y003506D01*
X004387Y003489D01*
X004380Y003473D01*
X004370Y003459D01*
X004357Y003446D01*
X004343Y003436D01*
X004327Y003429D01*
X004310Y003425D01*
X004293Y003423D01*
X004493Y003523D02*
X004493Y003673D01*
X004543Y003723D01*
X004543Y005623D01*
X004493Y005673D01*
X004493Y005823D01*
X004495Y005840D01*
X004499Y005857D01*
X004506Y005873D01*
X004516Y005887D01*
X004529Y005900D01*
X004543Y005910D01*
X004559Y005917D01*
X004576Y005921D01*
X004593Y005923D01*
X005293Y005923D02*
X005310Y005921D01*
X005327Y005917D01*
X005343Y005910D01*
X005357Y005900D01*
X005370Y005887D01*
X005380Y005873D01*
X005387Y005857D01*
X005391Y005840D01*
X005393Y005823D01*
X005393Y005673D01*
X005343Y005623D01*
X005343Y003723D01*
X005393Y003673D01*
X005393Y003523D01*
X005391Y003506D01*
X005387Y003489D01*
X005380Y003473D01*
X005370Y003459D01*
X005357Y003446D01*
X005343Y003436D01*
X005327Y003429D01*
X005310Y003425D01*
X005293Y003423D01*
X005493Y003523D02*
X005493Y003673D01*
X005543Y003723D01*
X005543Y005623D01*
X005493Y005673D01*
X005493Y005823D01*
X005495Y005840D01*
X005499Y005857D01*
X005506Y005873D01*
X005516Y005887D01*
X005529Y005900D01*
X005543Y005910D01*
X005559Y005917D01*
X005576Y005921D01*
X005593Y005923D01*
X006293Y005923D02*
X006310Y005921D01*
X006327Y005917D01*
X006343Y005910D01*
X006357Y005900D01*
X006370Y005887D01*
X006380Y005873D01*
X006387Y005857D01*
X006391Y005840D01*
X006393Y005823D01*
X006393Y005673D01*
X006343Y005623D01*
X006343Y003723D01*
X006393Y003673D01*
X006393Y003523D01*
X006391Y003506D01*
X006387Y003489D01*
X006380Y003473D01*
X006370Y003459D01*
X006357Y003446D01*
X006343Y003436D01*
X006327Y003429D01*
X006310Y003425D01*
X006293Y003423D01*
X005593Y003423D02*
X005576Y003425D01*
X005559Y003429D01*
X005543Y003436D01*
X005529Y003446D01*
X005516Y003459D01*
X005506Y003473D01*
X005499Y003489D01*
X005495Y003506D01*
X005493Y003523D01*
X004593Y003423D02*
X004576Y003425D01*
X004559Y003429D01*
X004543Y003436D01*
X004529Y003446D01*
X004516Y003459D01*
X004506Y003473D01*
X004499Y003489D01*
X004495Y003506D01*
X004493Y003523D01*
X003593Y003423D02*
X003576Y003425D01*
X003559Y003429D01*
X003543Y003436D01*
X003529Y003446D01*
X003516Y003459D01*
X003506Y003473D01*
X003499Y003489D01*
X003495Y003506D01*
X003493Y003523D01*
X002593Y003423D02*
X002576Y003425D01*
X002559Y003429D01*
X002543Y003436D01*
X002529Y003446D01*
X002516Y003459D01*
X002506Y003473D01*
X002499Y003489D01*
X002495Y003506D01*
X002493Y003523D01*
X001943Y003923D02*
X001443Y003923D01*
X001014Y004137D02*
X000373Y004137D01*
X001014Y004564D01*
X000373Y004564D01*
X000373Y004780D02*
X000373Y004993D01*
X000373Y004887D02*
X001014Y004887D01*
X001014Y004993D02*
X001014Y004780D01*
X001443Y004923D02*
X001943Y004923D01*
X006943Y004523D02*
X006982Y004525D01*
X007021Y004531D01*
X007059Y004540D01*
X007096Y004553D01*
X007132Y004570D01*
X007165Y004590D01*
X007197Y004614D01*
X007226Y004640D01*
X007252Y004669D01*
X007276Y004701D01*
X007296Y004734D01*
X007313Y004770D01*
X007326Y004807D01*
X007335Y004845D01*
X007341Y004884D01*
X007343Y004923D01*
X007341Y004962D01*
X007335Y005001D01*
X007326Y005039D01*
X007313Y005076D01*
X007296Y005112D01*
X007276Y005145D01*
X007252Y005177D01*
X007226Y005206D01*
X007197Y005232D01*
X007165Y005256D01*
X007132Y005276D01*
X007096Y005293D01*
X007059Y005306D01*
X007021Y005315D01*
X006982Y005321D01*
X006943Y005323D01*
X006943Y006073D01*
X014943Y006073D01*
X014943Y003773D01*
X006943Y003773D01*
X006943Y004523D01*
X001943Y006923D02*
X001443Y006923D01*
X015243Y006073D02*
X015243Y005923D01*
X015293Y005873D01*
X015293Y003973D01*
X015243Y003923D01*
X015243Y003773D01*
X015245Y003756D01*
X015249Y003739D01*
X015256Y003723D01*
X015266Y003709D01*
X015279Y003696D01*
X015293Y003686D01*
X015309Y003679D01*
X015326Y003675D01*
X015343Y003673D01*
X016043Y003673D02*
X016060Y003675D01*
X016077Y003679D01*
X016093Y003686D01*
X016107Y003696D01*
X016120Y003709D01*
X016130Y003723D01*
X016137Y003739D01*
X016141Y003756D01*
X016143Y003773D01*
X016143Y003923D01*
X016093Y003973D01*
X016093Y005873D01*
X016143Y005923D01*
X016143Y006073D01*
X016141Y006090D01*
X016137Y006107D01*
X016130Y006123D01*
X016120Y006137D01*
X016107Y006150D01*
X016093Y006160D01*
X016077Y006167D01*
X016060Y006171D01*
X016043Y006173D01*
X016243Y006073D02*
X016243Y005923D01*
X016293Y005873D01*
X016293Y003973D01*
X016243Y003923D01*
X016243Y003773D01*
X016245Y003756D01*
X016249Y003739D01*
X016256Y003723D01*
X016266Y003709D01*
X016279Y003696D01*
X016293Y003686D01*
X016309Y003679D01*
X016326Y003675D01*
X016343Y003673D01*
X017043Y003673D02*
X017060Y003675D01*
X017077Y003679D01*
X017093Y003686D01*
X017107Y003696D01*
X017120Y003709D01*
X017130Y003723D01*
X017137Y003739D01*
X017141Y003756D01*
X017143Y003773D01*
X017143Y003923D01*
X017093Y003973D01*
X017093Y005873D01*
X017143Y005923D01*
X017143Y006073D01*
X017141Y006090D01*
X017137Y006107D01*
X017130Y006123D01*
X017120Y006137D01*
X017107Y006150D01*
X017093Y006160D01*
X017077Y006167D01*
X017060Y006171D01*
X017043Y006173D01*
X017243Y006073D02*
X017243Y005923D01*
X017293Y005873D01*
X017293Y003973D01*
X017243Y003923D01*
X017243Y003773D01*
X017245Y003756D01*
X017249Y003739D01*
X017256Y003723D01*
X017266Y003709D01*
X017279Y003696D01*
X017293Y003686D01*
X017309Y003679D01*
X017326Y003675D01*
X017343Y003673D01*
X018043Y003673D02*
X018060Y003675D01*
X018077Y003679D01*
X018093Y003686D01*
X018107Y003696D01*
X018120Y003709D01*
X018130Y003723D01*
X018137Y003739D01*
X018141Y003756D01*
X018143Y003773D01*
X018143Y003923D01*
X018093Y003973D01*
X018093Y005873D01*
X018143Y005923D01*
X018143Y006073D01*
X018141Y006090D01*
X018137Y006107D01*
X018130Y006123D01*
X018120Y006137D01*
X018107Y006150D01*
X018093Y006160D01*
X018077Y006167D01*
X018060Y006171D01*
X018043Y006173D01*
X018243Y006073D02*
X018243Y005923D01*
X018293Y005873D01*
X018293Y003973D01*
X018243Y003923D01*
X018243Y003773D01*
X018245Y003756D01*
X018249Y003739D01*
X018256Y003723D01*
X018266Y003709D01*
X018279Y003696D01*
X018293Y003686D01*
X018309Y003679D01*
X018326Y003675D01*
X018343Y003673D01*
X019043Y003673D02*
X019060Y003675D01*
X019077Y003679D01*
X019093Y003686D01*
X019107Y003696D01*
X019120Y003709D01*
X019130Y003723D01*
X019137Y003739D01*
X019141Y003756D01*
X019143Y003773D01*
X019143Y003923D01*
X019093Y003973D01*
X019093Y005873D01*
X019143Y005923D01*
X019143Y006073D01*
X019141Y006090D01*
X019137Y006107D01*
X019130Y006123D01*
X019120Y006137D01*
X019107Y006150D01*
X019093Y006160D01*
X019077Y006167D01*
X019060Y006171D01*
X019043Y006173D01*
X019443Y006173D02*
X019443Y006673D01*
X019693Y006923D01*
X019443Y007173D01*
X019443Y007673D01*
X019693Y007923D01*
X020193Y007923D01*
X020443Y007673D01*
X020443Y007173D01*
X020193Y006923D01*
X020443Y006673D01*
X020443Y006173D01*
X020193Y005923D01*
X019693Y005923D01*
X019443Y006173D01*
X019693Y005923D02*
X019443Y005673D01*
X019443Y005173D01*
X019693Y004923D01*
X019443Y004673D01*
X019443Y004173D01*
X019693Y003923D01*
X019443Y003673D01*
X019443Y003173D01*
X019693Y002923D01*
X019443Y002673D01*
X019443Y002173D01*
X019693Y001923D01*
X020193Y001923D01*
X020443Y002173D01*
X020443Y002673D01*
X020193Y002923D01*
X019693Y002923D01*
X020193Y002923D02*
X020443Y003173D01*
X020443Y003673D01*
X020193Y003923D01*
X019693Y003923D01*
X020193Y003923D02*
X020443Y004173D01*
X020443Y004673D01*
X020193Y004923D01*
X019693Y004923D01*
X020193Y004923D02*
X020443Y005173D01*
X020443Y005673D01*
X020193Y005923D01*
X021173Y005569D02*
X021173Y005142D01*
X021173Y005356D02*
X021813Y005356D01*
X021707Y004925D02*
X021173Y004925D01*
X021707Y004925D02*
X021813Y004818D01*
X021813Y004605D01*
X021707Y004498D01*
X021173Y004498D01*
X021280Y004280D02*
X021173Y004174D01*
X021173Y003960D01*
X021280Y003853D01*
X021707Y003853D01*
X021813Y003960D01*
X021813Y004174D01*
X021707Y004280D01*
X021280Y004280D01*
X018343Y006173D02*
X018326Y006171D01*
X018309Y006167D01*
X018293Y006160D01*
X018279Y006150D01*
X018266Y006137D01*
X018256Y006123D01*
X018249Y006107D01*
X018245Y006090D01*
X018243Y006073D01*
X017343Y006173D02*
X017326Y006171D01*
X017309Y006167D01*
X017293Y006160D01*
X017279Y006150D01*
X017266Y006137D01*
X017256Y006123D01*
X017249Y006107D01*
X017245Y006090D01*
X017243Y006073D01*
X016343Y006173D02*
X016326Y006171D01*
X016309Y006167D01*
X016293Y006160D01*
X016279Y006150D01*
X016266Y006137D01*
X016256Y006123D01*
X016249Y006107D01*
X016245Y006090D01*
X016243Y006073D01*
X015343Y006173D02*
X015326Y006171D01*
X015309Y006167D01*
X015293Y006160D01*
X015279Y006150D01*
X015266Y006137D01*
X015256Y006123D01*
X015249Y006107D01*
X015245Y006090D01*
X015243Y006073D01*
X019693Y006923D02*
X020193Y006923D01*
D11*
X003133Y000698D02*
X002683Y000698D01*
X003133Y000698D02*
X003133Y000999D01*
X003133Y001159D02*
X002683Y001159D01*
X002683Y001459D01*
X002683Y001619D02*
X002683Y001844D01*
X002758Y001919D01*
X003058Y001919D01*
X003133Y001844D01*
X003133Y001619D01*
X002683Y001619D01*
X003133Y001459D02*
X003133Y001159D01*
X002908Y001159D02*
X002908Y001309D01*
X003443Y001673D02*
X003443Y001923D01*
X003718Y002033D02*
X004019Y002033D01*
X004179Y002033D02*
X004479Y002033D01*
X004639Y002033D02*
X004864Y002033D01*
X004939Y002108D01*
X004939Y002409D01*
X004864Y002484D01*
X004639Y002484D01*
X004639Y002033D01*
X004179Y002033D02*
X004179Y002484D01*
X004479Y002484D01*
X004329Y002258D02*
X004179Y002258D01*
X003718Y002033D02*
X003718Y002484D01*
X003133Y002380D02*
X003133Y002079D01*
X003133Y002229D02*
X002683Y002229D01*
X002833Y002079D01*
X003318Y001798D02*
X003568Y001798D01*
X005100Y002033D02*
X005400Y002334D01*
X005400Y002409D01*
X005325Y002484D01*
X005175Y002484D01*
X005100Y002409D01*
X005100Y002033D02*
X005400Y002033D01*
X006318Y001798D02*
X006568Y001798D01*
X006443Y001923D02*
X006443Y001673D01*
X006718Y002033D02*
X007019Y002033D01*
X007179Y002033D02*
X007479Y002033D01*
X007639Y002033D02*
X007864Y002033D01*
X007939Y002108D01*
X007939Y002409D01*
X007864Y002484D01*
X007639Y002484D01*
X007639Y002033D01*
X007179Y002033D02*
X007179Y002484D01*
X007479Y002484D01*
X007329Y002258D02*
X007179Y002258D01*
X006718Y002033D02*
X006718Y002484D01*
X008100Y002409D02*
X008175Y002484D01*
X008325Y002484D01*
X008400Y002409D01*
X008400Y002334D01*
X008325Y002258D01*
X008400Y002183D01*
X008400Y002108D01*
X008325Y002033D01*
X008175Y002033D01*
X008100Y002108D01*
X008250Y002258D02*
X008325Y002258D01*
X009443Y001923D02*
X009443Y001673D01*
X009318Y001798D02*
X009568Y001798D01*
X009718Y002033D02*
X010019Y002033D01*
X010179Y002033D02*
X010479Y002033D01*
X010639Y002033D02*
X010864Y002033D01*
X010939Y002108D01*
X010939Y002409D01*
X010864Y002484D01*
X010639Y002484D01*
X010639Y002033D01*
X010179Y002033D02*
X010179Y002484D01*
X010479Y002484D01*
X010329Y002258D02*
X010179Y002258D01*
X009718Y002033D02*
X009718Y002484D01*
X011100Y002258D02*
X011400Y002258D01*
X011325Y002484D02*
X011100Y002258D01*
X011325Y002033D02*
X011325Y002484D01*
X012718Y002484D02*
X012718Y002033D01*
X013019Y002033D01*
X013179Y002033D02*
X013479Y002033D01*
X013639Y002033D02*
X013864Y002033D01*
X013939Y002108D01*
X013939Y002409D01*
X013864Y002484D01*
X013639Y002484D01*
X013639Y002033D01*
X013179Y002033D02*
X013179Y002484D01*
X013479Y002484D01*
X013329Y002258D02*
X013179Y002258D01*
X012443Y001923D02*
X012443Y001673D01*
X012318Y001798D02*
X012568Y001798D01*
X012443Y001548D02*
X012423Y001487D01*
X012407Y001424D01*
X012395Y001361D01*
X012386Y001297D01*
X012382Y001233D01*
X012381Y001168D01*
X012385Y001104D01*
X012392Y001040D01*
X012403Y000976D01*
X012418Y000913D01*
X012437Y000852D01*
X012459Y000791D01*
X012485Y000732D01*
X012515Y000675D01*
X012548Y000619D01*
X012584Y000566D01*
X012624Y000515D01*
X012666Y000467D01*
X012712Y000421D01*
X012760Y000378D01*
X012811Y000338D01*
X012863Y000301D01*
X012919Y000267D01*
X012976Y000237D01*
X013034Y000211D01*
X013095Y000188D01*
X013156Y000168D01*
X013219Y000153D01*
X013282Y000141D01*
X013346Y000133D01*
X013411Y000129D01*
X013475Y000129D01*
X013540Y000133D01*
X013604Y000141D01*
X013667Y000153D01*
X013730Y000168D01*
X013791Y000188D01*
X013852Y000211D01*
X013910Y000237D01*
X013967Y000267D01*
X014023Y000301D01*
X014075Y000338D01*
X014126Y000378D01*
X014174Y000421D01*
X014220Y000467D01*
X014262Y000515D01*
X014302Y000566D01*
X014338Y000619D01*
X014371Y000675D01*
X014401Y000732D01*
X014427Y000791D01*
X014449Y000852D01*
X014468Y000913D01*
X014483Y000976D01*
X014494Y001040D01*
X014501Y001104D01*
X014505Y001168D01*
X014504Y001233D01*
X014500Y001297D01*
X014491Y001361D01*
X014479Y001424D01*
X014463Y001487D01*
X014443Y001548D01*
X015318Y001798D02*
X015568Y001798D01*
X015443Y001923D02*
X015443Y001673D01*
X015718Y002033D02*
X016019Y002033D01*
X016179Y002033D02*
X016479Y002033D01*
X016639Y002033D02*
X016864Y002033D01*
X016939Y002108D01*
X016939Y002409D01*
X016864Y002484D01*
X016639Y002484D01*
X016639Y002033D01*
X017100Y002108D02*
X017175Y002033D01*
X017325Y002033D01*
X017400Y002108D01*
X017400Y002183D01*
X017325Y002258D01*
X017100Y002258D01*
X017100Y002108D01*
X017100Y002258D02*
X017250Y002409D01*
X017400Y002484D01*
X016479Y002484D02*
X016179Y002484D01*
X016179Y002033D01*
X015718Y002033D02*
X015718Y002484D01*
X016179Y002258D02*
X016329Y002258D01*
X014400Y002258D02*
X014400Y002108D01*
X014325Y002033D01*
X014175Y002033D01*
X014100Y002108D01*
X014100Y002258D02*
X014250Y002334D01*
X014325Y002334D01*
X014400Y002258D01*
X014100Y002258D02*
X014100Y002484D01*
X014400Y002484D01*
X015443Y001548D02*
X015423Y001487D01*
X015407Y001424D01*
X015395Y001361D01*
X015386Y001297D01*
X015382Y001233D01*
X015381Y001168D01*
X015385Y001104D01*
X015392Y001040D01*
X015403Y000976D01*
X015418Y000913D01*
X015437Y000852D01*
X015459Y000791D01*
X015485Y000732D01*
X015515Y000675D01*
X015548Y000619D01*
X015584Y000566D01*
X015624Y000515D01*
X015666Y000467D01*
X015712Y000421D01*
X015760Y000378D01*
X015811Y000338D01*
X015863Y000301D01*
X015919Y000267D01*
X015976Y000237D01*
X016034Y000211D01*
X016095Y000188D01*
X016156Y000168D01*
X016219Y000153D01*
X016282Y000141D01*
X016346Y000133D01*
X016411Y000129D01*
X016475Y000129D01*
X016540Y000133D01*
X016604Y000141D01*
X016667Y000153D01*
X016730Y000168D01*
X016791Y000188D01*
X016852Y000211D01*
X016910Y000237D01*
X016967Y000267D01*
X017023Y000301D01*
X017075Y000338D01*
X017126Y000378D01*
X017174Y000421D01*
X017220Y000467D01*
X017262Y000515D01*
X017302Y000566D01*
X017338Y000619D01*
X017371Y000675D01*
X017401Y000732D01*
X017427Y000791D01*
X017449Y000852D01*
X017468Y000913D01*
X017483Y000976D01*
X017494Y001040D01*
X017501Y001104D01*
X017505Y001168D01*
X017504Y001233D01*
X017500Y001297D01*
X017491Y001361D01*
X017479Y001424D01*
X017463Y001487D01*
X017443Y001548D01*
X018318Y001798D02*
X018568Y001798D01*
X018443Y001923D02*
X018443Y001673D01*
X018443Y001548D02*
X018423Y001487D01*
X018407Y001424D01*
X018395Y001361D01*
X018386Y001297D01*
X018382Y001233D01*
X018381Y001168D01*
X018385Y001104D01*
X018392Y001040D01*
X018403Y000976D01*
X018418Y000913D01*
X018437Y000852D01*
X018459Y000791D01*
X018485Y000732D01*
X018515Y000675D01*
X018548Y000619D01*
X018584Y000566D01*
X018624Y000515D01*
X018666Y000467D01*
X018712Y000421D01*
X018760Y000378D01*
X018811Y000338D01*
X018863Y000301D01*
X018919Y000267D01*
X018976Y000237D01*
X019034Y000211D01*
X019095Y000188D01*
X019156Y000168D01*
X019219Y000153D01*
X019282Y000141D01*
X019346Y000133D01*
X019411Y000129D01*
X019475Y000129D01*
X019540Y000133D01*
X019604Y000141D01*
X019667Y000153D01*
X019730Y000168D01*
X019791Y000188D01*
X019852Y000211D01*
X019910Y000237D01*
X019967Y000267D01*
X020023Y000301D01*
X020075Y000338D01*
X020126Y000378D01*
X020174Y000421D01*
X020220Y000467D01*
X020262Y000515D01*
X020302Y000566D01*
X020338Y000619D01*
X020371Y000675D01*
X020401Y000732D01*
X020427Y000791D01*
X020449Y000852D01*
X020468Y000913D01*
X020483Y000976D01*
X020494Y001040D01*
X020501Y001104D01*
X020505Y001168D01*
X020504Y001233D01*
X020500Y001297D01*
X020491Y001361D01*
X020479Y001424D01*
X020463Y001487D01*
X020443Y001548D01*
X020683Y001519D02*
X020683Y001744D01*
X020758Y001819D01*
X021058Y001819D01*
X021133Y001744D01*
X021133Y001519D01*
X020683Y001519D01*
X020683Y001359D02*
X020683Y001059D01*
X021133Y001059D01*
X021133Y001359D01*
X020908Y001209D02*
X020908Y001059D01*
X021133Y000899D02*
X021133Y000598D01*
X020683Y000598D01*
X021443Y001548D02*
X021423Y001487D01*
X021407Y001424D01*
X021395Y001361D01*
X021386Y001297D01*
X021382Y001233D01*
X021381Y001168D01*
X021385Y001104D01*
X021392Y001040D01*
X021403Y000976D01*
X021418Y000913D01*
X021437Y000852D01*
X021459Y000791D01*
X021485Y000732D01*
X021515Y000675D01*
X021548Y000619D01*
X021584Y000566D01*
X021624Y000515D01*
X021666Y000467D01*
X021712Y000421D01*
X021760Y000378D01*
X021811Y000338D01*
X021863Y000301D01*
X021919Y000267D01*
X021976Y000237D01*
X022034Y000211D01*
X022095Y000188D01*
X022156Y000168D01*
X022219Y000153D01*
X022282Y000141D01*
X022346Y000133D01*
X022411Y000129D01*
X022475Y000129D01*
X022540Y000133D01*
X022604Y000141D01*
X022667Y000153D01*
X022730Y000168D01*
X022791Y000188D01*
X022852Y000211D01*
X022910Y000237D01*
X022967Y000267D01*
X023023Y000301D01*
X023075Y000338D01*
X023126Y000378D01*
X023174Y000421D01*
X023220Y000467D01*
X023262Y000515D01*
X023302Y000566D01*
X023338Y000619D01*
X023371Y000675D01*
X023401Y000732D01*
X023427Y000791D01*
X023449Y000852D01*
X023468Y000913D01*
X023483Y000976D01*
X023494Y001040D01*
X023501Y001104D01*
X023505Y001168D01*
X023504Y001233D01*
X023500Y001297D01*
X023491Y001361D01*
X023479Y001424D01*
X023463Y001487D01*
X023443Y001548D01*
X023325Y002033D02*
X023175Y002033D01*
X023100Y002108D01*
X023100Y002183D01*
X023175Y002258D01*
X023325Y002258D01*
X023400Y002183D01*
X023400Y002108D01*
X023325Y002033D01*
X022939Y002108D02*
X022864Y002033D01*
X022639Y002033D01*
X022639Y002484D01*
X022864Y002484D01*
X022939Y002409D01*
X022939Y002108D01*
X023100Y002334D02*
X023175Y002258D01*
X023100Y002334D02*
X023100Y002409D01*
X023175Y002484D01*
X023325Y002484D01*
X023400Y002409D01*
X023400Y002334D01*
X023325Y002258D01*
X022479Y002033D02*
X022179Y002033D01*
X022179Y002484D01*
X022479Y002484D01*
X022329Y002258D02*
X022179Y002258D01*
X022019Y002033D02*
X021718Y002033D01*
X021718Y002484D01*
X021058Y001979D02*
X020758Y002280D01*
X020683Y002280D01*
X020683Y001979D01*
X021058Y001979D02*
X021133Y001979D01*
X021318Y001798D02*
X021568Y001798D01*
X021443Y001923D02*
X021443Y001673D01*
X011443Y001548D02*
X011463Y001487D01*
X011479Y001424D01*
X011491Y001361D01*
X011500Y001297D01*
X011504Y001233D01*
X011505Y001168D01*
X011501Y001104D01*
X011494Y001040D01*
X011483Y000976D01*
X011468Y000913D01*
X011449Y000852D01*
X011427Y000791D01*
X011401Y000732D01*
X011371Y000675D01*
X011338Y000619D01*
X011302Y000566D01*
X011262Y000515D01*
X011220Y000467D01*
X011174Y000421D01*
X011126Y000378D01*
X011075Y000338D01*
X011023Y000301D01*
X010967Y000267D01*
X010910Y000237D01*
X010852Y000211D01*
X010791Y000188D01*
X010730Y000168D01*
X010667Y000153D01*
X010604Y000141D01*
X010540Y000133D01*
X010475Y000129D01*
X010411Y000129D01*
X010346Y000133D01*
X010282Y000141D01*
X010219Y000153D01*
X010156Y000168D01*
X010095Y000188D01*
X010034Y000211D01*
X009976Y000237D01*
X009919Y000267D01*
X009863Y000301D01*
X009811Y000338D01*
X009760Y000378D01*
X009712Y000421D01*
X009666Y000467D01*
X009624Y000515D01*
X009584Y000566D01*
X009548Y000619D01*
X009515Y000675D01*
X009485Y000732D01*
X009459Y000791D01*
X009437Y000852D01*
X009418Y000913D01*
X009403Y000976D01*
X009392Y001040D01*
X009385Y001104D01*
X009381Y001168D01*
X009382Y001233D01*
X009386Y001297D01*
X009395Y001361D01*
X009407Y001424D01*
X009423Y001487D01*
X009443Y001548D01*
X008443Y001548D02*
X008463Y001487D01*
X008479Y001424D01*
X008491Y001361D01*
X008500Y001297D01*
X008504Y001233D01*
X008505Y001168D01*
X008501Y001104D01*
X008494Y001040D01*
X008483Y000976D01*
X008468Y000913D01*
X008449Y000852D01*
X008427Y000791D01*
X008401Y000732D01*
X008371Y000675D01*
X008338Y000619D01*
X008302Y000566D01*
X008262Y000515D01*
X008220Y000467D01*
X008174Y000421D01*
X008126Y000378D01*
X008075Y000338D01*
X008023Y000301D01*
X007967Y000267D01*
X007910Y000237D01*
X007852Y000211D01*
X007791Y000188D01*
X007730Y000168D01*
X007667Y000153D01*
X007604Y000141D01*
X007540Y000133D01*
X007475Y000129D01*
X007411Y000129D01*
X007346Y000133D01*
X007282Y000141D01*
X007219Y000153D01*
X007156Y000168D01*
X007095Y000188D01*
X007034Y000211D01*
X006976Y000237D01*
X006919Y000267D01*
X006863Y000301D01*
X006811Y000338D01*
X006760Y000378D01*
X006712Y000421D01*
X006666Y000467D01*
X006624Y000515D01*
X006584Y000566D01*
X006548Y000619D01*
X006515Y000675D01*
X006485Y000732D01*
X006459Y000791D01*
X006437Y000852D01*
X006418Y000913D01*
X006403Y000976D01*
X006392Y001040D01*
X006385Y001104D01*
X006381Y001168D01*
X006382Y001233D01*
X006386Y001297D01*
X006395Y001361D01*
X006407Y001424D01*
X006423Y001487D01*
X006443Y001548D01*
X005443Y001548D02*
X005463Y001487D01*
X005479Y001424D01*
X005491Y001361D01*
X005500Y001297D01*
X005504Y001233D01*
X005505Y001168D01*
X005501Y001104D01*
X005494Y001040D01*
X005483Y000976D01*
X005468Y000913D01*
X005449Y000852D01*
X005427Y000791D01*
X005401Y000732D01*
X005371Y000675D01*
X005338Y000619D01*
X005302Y000566D01*
X005262Y000515D01*
X005220Y000467D01*
X005174Y000421D01*
X005126Y000378D01*
X005075Y000338D01*
X005023Y000301D01*
X004967Y000267D01*
X004910Y000237D01*
X004852Y000211D01*
X004791Y000188D01*
X004730Y000168D01*
X004667Y000153D01*
X004604Y000141D01*
X004540Y000133D01*
X004475Y000129D01*
X004411Y000129D01*
X004346Y000133D01*
X004282Y000141D01*
X004219Y000153D01*
X004156Y000168D01*
X004095Y000188D01*
X004034Y000211D01*
X003976Y000237D01*
X003919Y000267D01*
X003863Y000301D01*
X003811Y000338D01*
X003760Y000378D01*
X003712Y000421D01*
X003666Y000467D01*
X003624Y000515D01*
X003584Y000566D01*
X003548Y000619D01*
X003515Y000675D01*
X003485Y000732D01*
X003459Y000791D01*
X003437Y000852D01*
X003418Y000913D01*
X003403Y000976D01*
X003392Y001040D01*
X003385Y001104D01*
X003381Y001168D01*
X003382Y001233D01*
X003386Y001297D01*
X003395Y001361D01*
X003407Y001424D01*
X003423Y001487D01*
X003443Y001548D01*
X002443Y001548D02*
X002463Y001487D01*
X002479Y001424D01*
X002491Y001361D01*
X002500Y001297D01*
X002504Y001233D01*
X002505Y001168D01*
X002501Y001104D01*
X002494Y001040D01*
X002483Y000976D01*
X002468Y000913D01*
X002449Y000852D01*
X002427Y000791D01*
X002401Y000732D01*
X002371Y000675D01*
X002338Y000619D01*
X002302Y000566D01*
X002262Y000515D01*
X002220Y000467D01*
X002174Y000421D01*
X002126Y000378D01*
X002075Y000338D01*
X002023Y000301D01*
X001967Y000267D01*
X001910Y000237D01*
X001852Y000211D01*
X001791Y000188D01*
X001730Y000168D01*
X001667Y000153D01*
X001604Y000141D01*
X001540Y000133D01*
X001475Y000129D01*
X001411Y000129D01*
X001346Y000133D01*
X001282Y000141D01*
X001219Y000153D01*
X001156Y000168D01*
X001095Y000188D01*
X001034Y000211D01*
X000976Y000237D01*
X000919Y000267D01*
X000863Y000301D01*
X000811Y000338D01*
X000760Y000378D01*
X000712Y000421D01*
X000666Y000467D01*
X000624Y000515D01*
X000584Y000566D01*
X000548Y000619D01*
X000515Y000675D01*
X000485Y000732D01*
X000459Y000791D01*
X000437Y000852D01*
X000418Y000913D01*
X000403Y000976D01*
X000392Y001040D01*
X000385Y001104D01*
X000381Y001168D01*
X000382Y001233D01*
X000386Y001297D01*
X000395Y001361D01*
X000407Y001424D01*
X000423Y001487D01*
X000443Y001548D01*
X000443Y001673D02*
X000443Y001923D01*
X000318Y001798D02*
X000568Y001798D01*
X006418Y004498D02*
X006418Y004648D01*
X006418Y004573D02*
X006868Y004573D01*
X006868Y004498D02*
X006868Y004648D01*
X006793Y004805D02*
X006493Y004805D01*
X006418Y004880D01*
X006418Y005030D01*
X006493Y005105D01*
X006793Y005105D02*
X006868Y005030D01*
X006868Y004880D01*
X006793Y004805D01*
X006868Y005266D02*
X006868Y005566D01*
X006868Y005416D02*
X006418Y005416D01*
X006568Y005266D01*
X006168Y006478D02*
X005718Y006478D01*
X005718Y006703D01*
X005793Y006778D01*
X005943Y006778D01*
X006018Y006703D01*
X006018Y006478D01*
X006018Y006628D02*
X006168Y006778D01*
X005943Y006938D02*
X005943Y007238D01*
X005718Y007163D02*
X005943Y006938D01*
X006168Y007163D02*
X005718Y007163D01*
X005168Y007163D02*
X005168Y007013D01*
X005093Y006938D01*
X005168Y006778D02*
X005018Y006628D01*
X005018Y006703D02*
X005018Y006478D01*
X005168Y006478D02*
X004718Y006478D01*
X004718Y006703D01*
X004793Y006778D01*
X004943Y006778D01*
X005018Y006703D01*
X004793Y006938D02*
X004718Y007013D01*
X004718Y007163D01*
X004793Y007238D01*
X004868Y007238D01*
X004943Y007163D01*
X005018Y007238D01*
X005093Y007238D01*
X005168Y007163D01*
X004943Y007163D02*
X004943Y007088D01*
X004168Y006938D02*
X003868Y007238D01*
X003793Y007238D01*
X003718Y007163D01*
X003718Y007013D01*
X003793Y006938D01*
X003793Y006778D02*
X003943Y006778D01*
X004018Y006703D01*
X004018Y006478D01*
X004168Y006478D02*
X003718Y006478D01*
X003718Y006703D01*
X003793Y006778D01*
X004018Y006628D02*
X004168Y006778D01*
X004168Y006938D02*
X004168Y007238D01*
X003168Y007238D02*
X003168Y006938D01*
X003168Y006778D02*
X003018Y006628D01*
X003018Y006703D02*
X003018Y006478D01*
X003168Y006478D02*
X002718Y006478D01*
X002718Y006703D01*
X002793Y006778D01*
X002943Y006778D01*
X003018Y006703D01*
X002868Y006938D02*
X002718Y007088D01*
X003168Y007088D01*
X000888Y007318D02*
X000588Y007618D01*
X000513Y007618D01*
X000438Y007543D01*
X000438Y007393D01*
X000513Y007318D01*
X000888Y007318D02*
X000888Y007618D01*
X000663Y007158D02*
X000738Y007083D01*
X000738Y006858D01*
X000888Y006858D02*
X000438Y006858D01*
X000438Y007083D01*
X000513Y007158D01*
X000663Y007158D01*
X000438Y006697D02*
X000438Y006547D01*
X000438Y006622D02*
X000813Y006622D01*
X000888Y006547D01*
X000888Y006472D01*
X000813Y006397D01*
X015468Y006728D02*
X015468Y006953D01*
X015543Y007028D01*
X015693Y007028D01*
X015768Y006953D01*
X015768Y006728D01*
X015918Y006728D02*
X015468Y006728D01*
X015768Y006878D02*
X015918Y007028D01*
X015843Y007188D02*
X015768Y007188D01*
X015693Y007263D01*
X015693Y007413D01*
X015768Y007488D01*
X015843Y007488D01*
X015918Y007413D01*
X015918Y007263D01*
X015843Y007188D01*
X015693Y007263D02*
X015618Y007188D01*
X015543Y007188D01*
X015468Y007263D01*
X015468Y007413D01*
X015543Y007488D01*
X015618Y007488D01*
X015693Y007413D01*
X016568Y007488D02*
X016568Y007188D01*
X016643Y007028D02*
X016793Y007028D01*
X016868Y006953D01*
X016868Y006728D01*
X017018Y006728D02*
X016568Y006728D01*
X016568Y006953D01*
X016643Y007028D01*
X016868Y006878D02*
X017018Y007028D01*
X017018Y007188D02*
X016943Y007188D01*
X016643Y007488D01*
X016568Y007488D01*
X017568Y007488D02*
X017643Y007338D01*
X017793Y007188D01*
X017793Y007413D01*
X017868Y007488D01*
X017943Y007488D01*
X018018Y007413D01*
X018018Y007263D01*
X017943Y007188D01*
X017793Y007188D01*
X017793Y007028D02*
X017868Y006953D01*
X017868Y006728D01*
X018018Y006728D02*
X017568Y006728D01*
X017568Y006953D01*
X017643Y007028D01*
X017793Y007028D01*
X017868Y006878D02*
X018018Y007028D01*
X018568Y006953D02*
X018643Y007028D01*
X018793Y007028D01*
X018868Y006953D01*
X018868Y006728D01*
X019018Y006728D02*
X018568Y006728D01*
X018568Y006953D01*
X018868Y006878D02*
X019018Y007028D01*
X018943Y007188D02*
X019018Y007263D01*
X019018Y007413D01*
X018943Y007488D01*
X018793Y007488D01*
X018718Y007413D01*
X018718Y007338D01*
X018793Y007188D01*
X018568Y007188D01*
X018568Y007488D01*
X020688Y007668D02*
X020838Y007518D01*
X020763Y007358D02*
X020913Y007358D01*
X020988Y007283D01*
X020988Y007058D01*
X021138Y007058D02*
X020688Y007058D01*
X020688Y007283D01*
X020763Y007358D01*
X021138Y007518D02*
X021138Y007818D01*
X021138Y007668D02*
X020688Y007668D01*
X020688Y006897D02*
X020688Y006747D01*
X020688Y006822D02*
X021063Y006822D01*
X021138Y006747D01*
X021138Y006672D01*
X021063Y006597D01*
M02*
