%
M48
M72
T01C0.0236
T02C0.0320
T03C0.0400
%
T01
X1403Y3403
X10903Y5653
X14153Y4903
X19903Y3403
X17903Y2403
T02
X903Y1403
X1903Y1403
X3903Y1403
X4903Y1403
X6903Y1403
X7903Y1403
X9903Y1403
X10903Y1403
X12903Y1403
X13903Y1403
X15903Y1403
X16903Y1403
X18903Y1403
X19903Y1403
X21903Y1403
X22903Y1403
X18153Y3403
X16903Y3403
X15653Y3403
X14403Y3403
X13403Y3403
X12403Y3403
X11403Y3403
X10403Y3403
X9403Y3403
X8403Y3403
X7403Y3403
X5903Y3153
X4653Y3153
X3403Y3153
X9903Y2153
X12903Y2153
X12903Y5153
X9903Y5153
X5903Y6153
X4653Y6153
X3403Y6153
X7403Y6403
X8403Y6403
X9403Y6403
X10403Y6403
X11403Y6403
X12403Y6403
X13403Y6403
X14403Y6403
X15653Y6403
X16903Y6403
X18153Y6403
T03
X19403Y6403
X20403Y6403
X20403Y5403
X19403Y5403
X19403Y4403
X20403Y4403
X1903Y4403
X903Y4403
X903Y5403
X1903Y5403
X1903Y6403
X903Y6403
M30
