G75*
G70*
%OFA0B0*%
%FSLAX24Y24*%
%IPPOS*%
%LPD*%
%AMOC8*
5,1,8,0,0,1.08239X$1,22.5*
%
%ADD10C,0.0600*%
%ADD11OC8,0.0680*%
%ADD12OC8,0.0600*%
%ADD13C,0.0476*%
D10*
X007403Y003143D02*
X007403Y003663D01*
X008403Y003663D02*
X008403Y003143D01*
X009403Y003143D02*
X009403Y003663D01*
X010403Y003663D02*
X010403Y003143D01*
X011403Y003143D02*
X011403Y003663D01*
X012403Y003663D02*
X012403Y003143D01*
X013403Y003143D02*
X013403Y003663D01*
X014403Y003663D02*
X014403Y003143D01*
X014403Y006143D02*
X014403Y006663D01*
X013403Y006663D02*
X013403Y006143D01*
X012403Y006143D02*
X012403Y006663D01*
X011403Y006663D02*
X011403Y006143D01*
X010403Y006143D02*
X010403Y006663D01*
X009403Y006663D02*
X009403Y006143D01*
X008403Y006143D02*
X008403Y006663D01*
X007403Y006663D02*
X007403Y006143D01*
D11*
X001903Y006403D03*
X000903Y006403D03*
X000903Y005403D03*
X001903Y005403D03*
X001903Y004403D03*
X000903Y004403D03*
X019403Y004403D03*
X020403Y004403D03*
X020403Y005403D03*
X019403Y005403D03*
X019403Y006403D03*
X020403Y006403D03*
D12*
X000903Y001403D03*
X001903Y001403D03*
X003903Y001403D03*
X004903Y001403D03*
X006903Y001403D03*
X007903Y001403D03*
X009903Y001403D03*
X010903Y001403D03*
X012903Y001403D03*
X013903Y001403D03*
X015903Y001403D03*
X016903Y001403D03*
X018903Y001403D03*
X019903Y001403D03*
X021903Y001403D03*
X022903Y001403D03*
X018153Y003403D03*
X016903Y003403D03*
X015653Y003403D03*
X012903Y002153D03*
X009903Y002153D03*
X005903Y003153D03*
X004653Y003153D03*
X003403Y003153D03*
X009903Y005153D03*
X012903Y005153D03*
X015653Y006403D03*
X016903Y006403D03*
X018153Y006403D03*
X005903Y006153D03*
X004653Y006153D03*
X003403Y006153D03*
D13*
X010903Y005653D03*
X014153Y004903D03*
X019903Y003403D03*
X017903Y002403D03*
X001403Y003403D03*
M02*
