G75*
G70*
%OFA0B0*%
%FSLAX24Y24*%
%IPPOS*%
%LPD*%
%AMOC8*
5,1,8,0,0,1.08239X$1,22.5*
%
%ADD10C,0.0600*%
%ADD11C,0.0680*%
%ADD12OC8,0.0600*%
%ADD13R,0.0500X0.1250*%
D10*
X007443Y003163D02*
X007443Y003683D01*
X008443Y003683D02*
X008443Y003163D01*
X009443Y003163D02*
X009443Y003683D01*
X010443Y003683D02*
X010443Y003163D01*
X011443Y003163D02*
X011443Y003683D01*
X012443Y003683D02*
X012443Y003163D01*
X013443Y003163D02*
X013443Y003683D01*
X014443Y003683D02*
X014443Y003163D01*
X014443Y006163D02*
X014443Y006683D01*
X013443Y006683D02*
X013443Y006163D01*
X012443Y006163D02*
X012443Y006683D01*
X011443Y006683D02*
X011443Y006163D01*
X010443Y006163D02*
X010443Y006683D01*
X009443Y006683D02*
X009443Y006163D01*
X008443Y006163D02*
X008443Y006683D01*
X007443Y006683D02*
X007443Y006163D01*
D11*
X001993Y006423D02*
X001393Y006423D01*
X001393Y005423D02*
X001993Y005423D01*
X001993Y004423D02*
X001393Y004423D01*
X001393Y003423D02*
X001993Y003423D01*
X001993Y002423D02*
X001393Y002423D01*
X001393Y007423D02*
X001993Y007423D01*
X019643Y007423D02*
X020243Y007423D01*
X020243Y006423D02*
X019643Y006423D01*
X019643Y005423D02*
X020243Y005423D01*
X020243Y004423D02*
X019643Y004423D01*
X019643Y003423D02*
X020243Y003423D01*
X020243Y002423D02*
X019643Y002423D01*
D12*
X019943Y001423D03*
X018943Y001423D03*
X016943Y001423D03*
X015943Y001423D03*
X013943Y001423D03*
X012943Y001423D03*
X010943Y001423D03*
X009943Y001423D03*
X007943Y001423D03*
X006943Y001423D03*
X004943Y001423D03*
X003943Y001423D03*
X001943Y001423D03*
X000943Y001423D03*
X002943Y003173D03*
X003943Y003173D03*
X004943Y003173D03*
X005943Y003173D03*
X005943Y006173D03*
X004943Y006173D03*
X003943Y006173D03*
X002943Y006173D03*
X015693Y006423D03*
X016693Y006423D03*
X017693Y006423D03*
X018693Y006423D03*
X018693Y003423D03*
X017693Y003423D03*
X016693Y003423D03*
X015693Y003423D03*
X021943Y001423D03*
X022943Y001423D03*
D13*
X000943Y001173D03*
X001943Y001173D03*
X003943Y001173D03*
X004943Y001173D03*
X006943Y001173D03*
X007943Y001173D03*
X009943Y001173D03*
X010943Y001173D03*
X012943Y001173D03*
X013943Y001173D03*
X015943Y001173D03*
X016943Y001173D03*
X018943Y001173D03*
X019943Y001173D03*
X021943Y001173D03*
X022943Y001173D03*
M02*
