G75*
G70*
%OFA0B0*%
%FSLAX24Y24*%
%IPPOS*%
%LPD*%
%AMOC8*
5,1,8,0,0,1.08239X$1,22.5*
%
%ADD10C,0.0060*%
D10*
X009303Y006940D02*
X009303Y007580D01*
X008982Y007580D01*
X008876Y007474D01*
X008876Y007260D01*
X008982Y007153D01*
X009303Y007153D01*
X009520Y007153D02*
X009841Y007153D01*
X009947Y007260D01*
X009841Y007367D01*
X009520Y007367D01*
X009520Y007474D02*
X009520Y007153D01*
X010163Y007153D02*
X010270Y007260D01*
X010270Y007687D01*
X010377Y007580D02*
X010163Y007580D01*
X009841Y007580D02*
X009627Y007580D01*
X009520Y007474D01*
X008658Y007474D02*
X008658Y007260D01*
X008551Y007153D01*
X008338Y007153D01*
X008231Y007367D02*
X008658Y007367D01*
X008658Y007474D02*
X008551Y007580D01*
X008338Y007580D01*
X008231Y007474D01*
X008231Y007367D01*
X010594Y007474D02*
X011021Y007474D01*
X011239Y007580D02*
X011666Y007153D01*
X011882Y007153D02*
X012096Y007153D01*
X011989Y007153D02*
X011989Y007580D01*
X012096Y007580D01*
X012313Y007580D02*
X012419Y007580D01*
X012633Y007367D01*
X012850Y007474D02*
X012850Y007153D01*
X012633Y007153D02*
X012633Y007580D01*
X012850Y007474D02*
X012957Y007580D01*
X013171Y007580D01*
X013277Y007474D01*
X013493Y007580D02*
X013707Y007580D01*
X013600Y007687D02*
X013600Y007260D01*
X013493Y007153D01*
X013277Y007153D02*
X013277Y007794D01*
X011989Y007794D02*
X011989Y007901D01*
X011666Y007580D02*
X011239Y007153D01*
M02*
