G75*
G70*
%OFA0B0*%
%FSLAX24Y24*%
%IPPOS*%
%LPD*%
%AMOC8*
5,1,8,0,0,1.08239X$1,22.5*
%
%ADD10C,0.0520*%
%ADD11OC8,0.0600*%
%ADD12OC8,0.0520*%
%ADD13C,0.0160*%
%ADD14C,0.0396*%
D10*
X007403Y003143D02*
X007403Y003663D01*
X008403Y003663D02*
X008403Y003143D01*
X009403Y003143D02*
X009403Y003663D01*
X010403Y003663D02*
X010403Y003143D01*
X011403Y003143D02*
X011403Y003663D01*
X012403Y003663D02*
X012403Y003143D01*
X013403Y003143D02*
X013403Y003663D01*
X014403Y003663D02*
X014403Y003143D01*
X014403Y006143D02*
X014403Y006663D01*
X013403Y006663D02*
X013403Y006143D01*
X012403Y006143D02*
X012403Y006663D01*
X011403Y006663D02*
X011403Y006143D01*
X010403Y006143D02*
X010403Y006663D01*
X009403Y006663D02*
X009403Y006143D01*
X008403Y006143D02*
X008403Y006663D01*
X007403Y006663D02*
X007403Y006143D01*
D11*
X001903Y006403D03*
X000903Y006403D03*
X000903Y005403D03*
X001903Y005403D03*
X001903Y004403D03*
X000903Y004403D03*
X019403Y004403D03*
X020403Y004403D03*
X020403Y005403D03*
X019403Y005403D03*
X019403Y006403D03*
X020403Y006403D03*
D12*
X018153Y006403D03*
X016903Y006403D03*
X015653Y006403D03*
X012903Y005153D03*
X009903Y005153D03*
X005903Y006153D03*
X004653Y006153D03*
X003403Y006153D03*
X003403Y003153D03*
X004653Y003153D03*
X005903Y003153D03*
X009903Y002153D03*
X009903Y001403D03*
X010903Y001403D03*
X012903Y001403D03*
X013903Y001403D03*
X015903Y001403D03*
X016903Y001403D03*
X018903Y001403D03*
X019903Y001403D03*
X021903Y001403D03*
X022903Y001403D03*
X018153Y003403D03*
X016903Y003403D03*
X015653Y003403D03*
X012903Y002153D03*
X007903Y001403D03*
X006903Y001403D03*
X004903Y001403D03*
X003903Y001403D03*
X001903Y001403D03*
X000903Y001403D03*
D13*
X001903Y000903D02*
X004903Y000903D01*
X004903Y001403D01*
X005903Y001403D02*
X005903Y003153D01*
X004653Y003153D02*
X004653Y002403D01*
X003903Y001653D01*
X003903Y001403D01*
X004903Y000903D02*
X007903Y000903D01*
X007903Y001403D01*
X006903Y001403D02*
X005903Y001403D01*
X007903Y000903D02*
X010903Y000903D01*
X010903Y001403D01*
X009903Y001403D02*
X009903Y002153D01*
X008403Y002653D02*
X015153Y002653D01*
X015153Y004903D01*
X017653Y004903D01*
X017653Y005403D01*
X019403Y005403D01*
X019903Y005403D02*
X020403Y005403D01*
X019903Y005403D02*
X019903Y003403D01*
X018153Y003403D02*
X018153Y002903D01*
X015903Y002903D01*
X015903Y001403D01*
X016903Y001403D02*
X016903Y000903D01*
X019903Y000903D01*
X019903Y001403D01*
X019903Y000903D02*
X022903Y000903D01*
X022903Y001403D01*
X021903Y001403D02*
X021903Y002403D01*
X017903Y002403D01*
X013903Y001403D02*
X013903Y000903D01*
X016903Y000903D01*
X013903Y000903D02*
X010903Y000903D01*
X012903Y001403D02*
X012903Y002153D01*
X008403Y002653D02*
X008403Y003403D01*
X007403Y003403D02*
X007403Y004153D01*
X014653Y004153D01*
X014653Y005153D01*
X017403Y005153D01*
X017403Y005903D01*
X020403Y005903D01*
X020403Y006403D01*
X018153Y006403D02*
X018153Y007153D01*
X010403Y007153D01*
X010403Y006403D01*
X011403Y006403D02*
X011403Y005653D01*
X012153Y005653D01*
X012153Y004653D01*
X012653Y004653D01*
X013653Y004653D01*
X013653Y005403D01*
X016903Y005403D01*
X016903Y006403D01*
X015653Y006403D02*
X015653Y005653D01*
X013403Y005653D01*
X013403Y004903D01*
X012403Y004903D01*
X012403Y006403D01*
X010903Y005653D02*
X008403Y005653D01*
X008403Y006403D01*
X008403Y005653D02*
X008403Y004903D01*
X000903Y004903D01*
X000903Y004403D01*
X001903Y003153D02*
X002903Y004153D01*
X002903Y004403D01*
X014153Y004403D01*
X014153Y004903D01*
X003403Y003153D02*
X003403Y002153D01*
X001653Y002153D01*
X000903Y001403D01*
X001903Y001403D02*
X001903Y000903D01*
X001903Y003153D02*
X001653Y003153D01*
X001403Y003403D01*
D14*
X001403Y003403D03*
X010903Y005653D03*
X014153Y004903D03*
X019903Y003403D03*
X017903Y002403D03*
M02*
