G75*
G70*
%OFA0B0*%
%FSLAX24Y24*%
%IPPOS*%
%LPD*%
%AMOC8*
5,1,8,0,0,1.08239X$1,22.5*
%
%ADD10C,0.0050*%
%ADD11C,0.0060*%
D10*
X008878Y003757D02*
X009329Y003757D01*
X009329Y003983D01*
X009253Y004058D01*
X009103Y004058D01*
X009028Y003983D01*
X009028Y003757D01*
X009028Y003908D02*
X008878Y004058D01*
X009103Y004218D02*
X009103Y004518D01*
X008878Y004443D02*
X009329Y004443D01*
X009103Y004218D01*
X011878Y004293D02*
X011953Y004218D01*
X011878Y004293D02*
X011878Y004443D01*
X011953Y004518D01*
X012103Y004518D01*
X012178Y004443D01*
X012178Y004368D01*
X012103Y004218D01*
X012329Y004218D01*
X012329Y004518D01*
X012253Y004058D02*
X012103Y004058D01*
X012028Y003983D01*
X012028Y003757D01*
X011878Y003757D02*
X012329Y003757D01*
X012329Y003983D01*
X012253Y004058D01*
X012028Y003908D02*
X011878Y004058D01*
D11*
X009453Y002653D02*
X009453Y002503D01*
X009455Y002486D01*
X009459Y002469D01*
X009466Y002453D01*
X009476Y002439D01*
X009489Y002426D01*
X009503Y002416D01*
X009519Y002409D01*
X009536Y002405D01*
X009553Y002403D01*
X010253Y002403D02*
X010270Y002405D01*
X010287Y002409D01*
X010303Y002416D01*
X010317Y002426D01*
X010330Y002439D01*
X010340Y002453D01*
X010347Y002469D01*
X010351Y002486D01*
X010353Y002503D01*
X010353Y002653D01*
X010303Y002703D01*
X010303Y004603D01*
X010353Y004653D01*
X010353Y004803D01*
X010351Y004820D01*
X010347Y004837D01*
X010340Y004853D01*
X010330Y004867D01*
X010317Y004880D01*
X010303Y004890D01*
X010287Y004897D01*
X010270Y004901D01*
X010253Y004903D01*
X009553Y004903D02*
X009536Y004901D01*
X009519Y004897D01*
X009503Y004890D01*
X009489Y004880D01*
X009476Y004867D01*
X009466Y004853D01*
X009459Y004837D01*
X009455Y004820D01*
X009453Y004803D01*
X009453Y004653D01*
X009503Y004603D01*
X009503Y002703D01*
X009453Y002653D01*
X012453Y002653D02*
X012453Y002503D01*
X012455Y002486D01*
X012459Y002469D01*
X012466Y002453D01*
X012476Y002439D01*
X012489Y002426D01*
X012503Y002416D01*
X012519Y002409D01*
X012536Y002405D01*
X012553Y002403D01*
X012453Y002653D02*
X012503Y002703D01*
X012503Y004603D01*
X012453Y004653D01*
X012453Y004803D01*
X012455Y004820D01*
X012459Y004837D01*
X012466Y004853D01*
X012476Y004867D01*
X012489Y004880D01*
X012503Y004890D01*
X012519Y004897D01*
X012536Y004901D01*
X012553Y004903D01*
X013253Y004903D02*
X013270Y004901D01*
X013287Y004897D01*
X013303Y004890D01*
X013317Y004880D01*
X013330Y004867D01*
X013340Y004853D01*
X013347Y004837D01*
X013351Y004820D01*
X013353Y004803D01*
X013353Y004653D01*
X013303Y004603D01*
X013303Y002703D01*
X013353Y002653D01*
X013353Y002503D01*
X013351Y002486D01*
X013347Y002469D01*
X013340Y002453D01*
X013330Y002439D01*
X013317Y002426D01*
X013303Y002416D01*
X013287Y002409D01*
X013270Y002405D01*
X013253Y002403D01*
M02*
