G75*
G70*
%OFA0B0*%
%FSLAX24Y24*%
%IPPOS*%
%LPD*%
%AMOC8*
5,1,8,0,0,1.08239X$1,22.5*
%
%ADD10C,0.0080*%
%ADD11C,0.0090*%
%ADD12C,0.0040*%
%ADD13C,0.0060*%
%ADD14C,0.0070*%
%ADD15C,0.0001*%
%ADD16C,0.0020*%
%ADD17C,0.0050*%
%ADD18R,0.0340X0.0300*%
%ADD19C,0.0200*%
%ADD20C,0.0160*%
%ADD21C,0.0100*%
%ADD22R,0.0300X0.0340*%
%ADD23C,0.0010*%
D10*
X004064Y006773D02*
X006424Y006773D01*
X006424Y009353D01*
X004064Y009353D01*
X008861Y008328D02*
X008861Y010688D01*
X008874Y012313D02*
X008874Y012413D01*
X008874Y012313D02*
X011274Y012313D01*
X011274Y012413D01*
X011274Y013213D02*
X011274Y013413D01*
X011274Y014213D02*
X011274Y014413D01*
X011274Y015213D02*
X011274Y015413D01*
X011274Y016213D02*
X011274Y016413D01*
X011274Y017213D02*
X011274Y017413D01*
X011274Y018213D02*
X011274Y018413D01*
X011274Y019213D02*
X011274Y019413D01*
X012824Y019313D02*
X012824Y019813D01*
X013074Y020063D01*
X014574Y020063D01*
X014824Y019813D01*
X014824Y019313D01*
X014574Y019063D01*
X013074Y019063D01*
X012824Y019313D01*
X012792Y018540D02*
X012792Y018176D01*
X012931Y018271D02*
X013061Y018271D01*
X013061Y018349D02*
X012828Y018349D01*
X012817Y018357D02*
X013061Y018541D01*
X013061Y018173D01*
X012817Y018357D01*
X012910Y018428D02*
X013061Y018428D01*
X013061Y018506D02*
X013015Y018506D01*
X013035Y018192D02*
X013061Y018192D01*
X013061Y017041D02*
X013061Y016673D01*
X012817Y016857D01*
X012818Y016857D02*
X013061Y016857D01*
X013061Y016935D02*
X012920Y016935D01*
X012817Y016857D02*
X013061Y017041D01*
X013061Y017014D02*
X013025Y017014D01*
X012792Y017040D02*
X012792Y016676D01*
X012921Y016778D02*
X013061Y016778D01*
X013061Y016700D02*
X013025Y016700D01*
X016488Y019173D02*
X016628Y019313D01*
X016908Y019313D01*
X016908Y019493D02*
X016488Y019493D01*
X016488Y019703D01*
X016558Y019773D01*
X016698Y019773D01*
X016768Y019703D01*
X016768Y019493D01*
X016768Y019633D02*
X016908Y019773D01*
X016908Y019953D02*
X016908Y020234D01*
X016908Y020414D02*
X016488Y020414D01*
X016488Y020694D01*
X016698Y020554D02*
X016698Y020414D01*
X016488Y020234D02*
X016488Y019953D01*
X016908Y019953D01*
X016698Y019953D02*
X016698Y020093D01*
X016698Y019313D02*
X016698Y019033D01*
X016628Y019033D02*
X016488Y019173D01*
X016628Y019033D02*
X016908Y019033D01*
X018162Y018502D02*
X018525Y018502D01*
X018380Y018428D02*
X018305Y018428D01*
X018343Y018478D02*
X018527Y018234D01*
X018158Y018234D01*
X018343Y018478D01*
X018246Y018349D02*
X018440Y018349D01*
X018499Y018271D02*
X018186Y018271D01*
X018180Y017324D02*
X018180Y016904D01*
X018040Y016904D02*
X018320Y016904D01*
X018501Y016974D02*
X018571Y016904D01*
X018711Y016904D01*
X018781Y016974D01*
X018781Y017044D01*
X018711Y017114D01*
X018641Y017114D01*
X018711Y017114D02*
X018781Y017184D01*
X018781Y017254D01*
X018711Y017324D01*
X018571Y017324D01*
X018501Y017254D01*
X018180Y017324D02*
X018040Y017184D01*
X014824Y020313D02*
X014574Y020063D01*
X014824Y020313D02*
X014824Y020813D01*
X014574Y021063D01*
X013074Y021063D01*
X012824Y020813D01*
X012824Y020313D01*
X013074Y020063D01*
X013074Y021063D02*
X012824Y021313D01*
X012824Y021813D01*
X013074Y022063D01*
X014574Y022063D01*
X014824Y021813D01*
X014824Y021313D01*
X014574Y021063D01*
X012692Y021313D02*
X012692Y021813D01*
X011274Y022213D02*
X011274Y022313D01*
X010474Y022313D01*
X010472Y022274D01*
X010466Y022235D01*
X010457Y022197D01*
X010444Y022160D01*
X010427Y022124D01*
X010407Y022091D01*
X010383Y022059D01*
X010357Y022030D01*
X010328Y022004D01*
X010296Y021980D01*
X010263Y021960D01*
X010227Y021943D01*
X010190Y021930D01*
X010152Y021921D01*
X010113Y021915D01*
X010074Y021913D01*
X010035Y021915D01*
X009996Y021921D01*
X009958Y021930D01*
X009921Y021943D01*
X009885Y021960D01*
X009852Y021980D01*
X009820Y022004D01*
X009791Y022030D01*
X009765Y022059D01*
X009741Y022091D01*
X009721Y022124D01*
X009704Y022160D01*
X009691Y022197D01*
X009682Y022235D01*
X009676Y022274D01*
X009674Y022313D01*
X008874Y022313D01*
X008874Y022213D01*
X008874Y021413D02*
X008874Y021213D01*
X008874Y020413D02*
X008874Y020213D01*
X008874Y019413D02*
X008874Y019213D01*
X008874Y018413D02*
X008874Y018213D01*
X008874Y017413D02*
X008874Y017213D01*
X008874Y016413D02*
X008874Y016213D01*
X008874Y015413D02*
X008874Y015213D01*
X008874Y014413D02*
X008874Y014213D01*
X008874Y013413D02*
X008874Y013213D01*
X011441Y010688D02*
X011441Y008328D01*
X008861Y008328D01*
X021886Y003596D02*
X021886Y003396D01*
X022019Y003463D01*
X022086Y003463D01*
X022152Y003396D01*
X022152Y003262D01*
X022086Y003196D01*
X021952Y003196D01*
X021886Y003262D01*
X022327Y003329D02*
X022461Y003196D01*
X022594Y003329D01*
X022594Y003596D01*
X022327Y003596D02*
X022327Y003329D01*
X022152Y003596D02*
X021886Y003596D01*
X023211Y003529D02*
X023211Y003262D01*
X023278Y003196D01*
X023412Y003196D01*
X023478Y003262D01*
X023478Y003396D01*
X023345Y003396D01*
X023478Y003529D02*
X023412Y003596D01*
X023278Y003596D01*
X023211Y003529D01*
X023653Y003463D02*
X023854Y003463D01*
X023920Y003396D01*
X023920Y003196D01*
X024095Y003262D02*
X024095Y003396D01*
X024162Y003463D01*
X024362Y003463D01*
X024362Y003596D02*
X024362Y003196D01*
X024162Y003196D01*
X024095Y003262D01*
X023653Y003196D02*
X023653Y003463D01*
X024979Y003463D02*
X025046Y003396D01*
X025246Y003396D01*
X025246Y003529D02*
X025246Y003262D01*
X025179Y003196D01*
X025046Y003196D01*
X024979Y003262D01*
X024979Y003463D02*
X024979Y003529D01*
X025046Y003596D01*
X025179Y003596D01*
X025246Y003529D01*
X025421Y003596D02*
X025421Y003329D01*
X025555Y003196D01*
X025688Y003329D01*
X025688Y003596D01*
X028438Y009674D02*
X028438Y010094D01*
X028648Y010094D01*
X028718Y010024D01*
X028718Y009884D01*
X028648Y009814D01*
X028438Y009814D01*
X028578Y009814D02*
X028718Y009674D01*
X028898Y009674D02*
X029178Y009674D01*
X029358Y009744D02*
X029428Y009674D01*
X029569Y009674D01*
X029639Y009744D01*
X029639Y009814D01*
X029569Y009884D01*
X029428Y009884D01*
X029358Y009954D01*
X029358Y010024D01*
X029428Y010094D01*
X029569Y010094D01*
X029639Y010024D01*
X029819Y010094D02*
X029819Y009674D01*
X030099Y009674D01*
X029959Y009884D02*
X029819Y009884D01*
X029819Y010094D02*
X030099Y010094D01*
X030279Y010094D02*
X030559Y010094D01*
X030419Y010094D02*
X030419Y009674D01*
X029178Y010094D02*
X028898Y010094D01*
X028898Y009674D01*
X028898Y009884D02*
X029038Y009884D01*
X032187Y010102D02*
X032327Y010102D01*
X032257Y010102D02*
X032257Y010523D01*
X032187Y010523D02*
X032327Y010523D01*
X032494Y010453D02*
X032494Y010172D01*
X032564Y010102D01*
X032704Y010102D01*
X032774Y010172D01*
X032955Y010172D02*
X033025Y010102D01*
X033165Y010102D01*
X033235Y010172D01*
X033235Y010243D01*
X033165Y010313D01*
X033025Y010313D01*
X032955Y010383D01*
X032955Y010453D01*
X033025Y010523D01*
X033165Y010523D01*
X033235Y010453D01*
X033415Y010523D02*
X033415Y010102D01*
X033415Y010243D02*
X033625Y010243D01*
X033695Y010313D01*
X033695Y010453D01*
X033625Y010523D01*
X033415Y010523D01*
X032774Y010453D02*
X032704Y010523D01*
X032564Y010523D01*
X032494Y010453D01*
X030496Y013478D02*
X030496Y013841D01*
X030399Y013715D02*
X030227Y013715D01*
X030227Y013637D02*
X030441Y013637D01*
X030472Y013660D02*
X030227Y013476D01*
X030227Y013845D01*
X030472Y013660D01*
X030336Y013558D02*
X030227Y013558D01*
X030227Y013480D02*
X030232Y013480D01*
X030227Y013794D02*
X030295Y013794D01*
X030376Y015021D02*
X030376Y015441D01*
X030557Y015441D02*
X030767Y015441D01*
X030837Y015371D01*
X030837Y015231D01*
X030767Y015161D01*
X030557Y015161D01*
X030697Y015161D02*
X030837Y015021D01*
X030557Y015021D02*
X030557Y015441D01*
X030236Y015161D02*
X030096Y015021D01*
X030096Y015441D01*
X029916Y015371D02*
X029916Y015231D01*
X029846Y015161D01*
X029636Y015161D01*
X029636Y015021D02*
X029636Y015441D01*
X029846Y015441D01*
X029916Y015371D01*
X030236Y015161D02*
X030376Y015021D01*
X006123Y018892D02*
X006123Y019247D01*
X005139Y018617D02*
X004312Y018617D01*
X006123Y020979D02*
X006123Y021333D01*
X005139Y021609D02*
X004312Y021609D01*
D11*
X017396Y020856D02*
X017396Y020625D01*
X017858Y020625D01*
X017858Y020856D01*
X017781Y020933D01*
X017473Y020933D01*
X017396Y020856D01*
X017396Y020425D02*
X017858Y020425D01*
X017396Y020118D01*
X017858Y020118D01*
X017781Y019918D02*
X017627Y019918D01*
X017627Y019764D01*
X017781Y019918D02*
X017858Y019841D01*
X017858Y019687D01*
X017781Y019610D01*
X017473Y019610D01*
X017396Y019687D01*
X017396Y019841D01*
X017473Y019918D01*
X018489Y019960D02*
X018643Y020114D01*
X018643Y019652D01*
X018489Y019652D02*
X018797Y019652D01*
X019504Y019652D02*
X019812Y019652D01*
X019658Y019652D02*
X019658Y020114D01*
X019504Y019960D01*
X019504Y020277D02*
X019812Y020585D01*
X019812Y020662D01*
X019735Y020738D01*
X019581Y020738D01*
X019504Y020662D01*
X019504Y020277D02*
X019812Y020277D01*
X020519Y020277D02*
X020827Y020277D01*
X020673Y020277D02*
X020673Y020738D01*
X020519Y020585D01*
X020673Y020114D02*
X020673Y019652D01*
X020519Y019652D02*
X020827Y019652D01*
X020519Y019960D02*
X020673Y020114D01*
X021534Y019960D02*
X021688Y020114D01*
X021688Y019652D01*
X021534Y019652D02*
X021842Y019652D01*
X021765Y020277D02*
X021611Y020277D01*
X021534Y020354D01*
X021842Y020662D01*
X021842Y020354D01*
X021765Y020277D01*
X021534Y020354D02*
X021534Y020662D01*
X021611Y020738D01*
X021765Y020738D01*
X021842Y020662D01*
X022549Y020662D02*
X022549Y020585D01*
X022626Y020508D01*
X022857Y020508D01*
X022857Y020662D02*
X022780Y020738D01*
X022626Y020738D01*
X022549Y020662D01*
X022857Y020662D02*
X022857Y020354D01*
X022780Y020277D01*
X022626Y020277D01*
X022549Y020354D01*
X023564Y020354D02*
X023564Y020431D01*
X023641Y020508D01*
X023795Y020508D01*
X023872Y020431D01*
X023872Y020354D01*
X023795Y020277D01*
X023641Y020277D01*
X023564Y020354D01*
X023641Y020508D02*
X023564Y020585D01*
X023564Y020662D01*
X023641Y020738D01*
X023795Y020738D01*
X023872Y020662D01*
X023872Y020585D01*
X023795Y020508D01*
X023978Y019659D02*
X023978Y019583D01*
X023978Y019429D02*
X023978Y019121D01*
X023901Y019121D02*
X024055Y019121D01*
X024240Y019198D02*
X024317Y019121D01*
X024547Y019121D01*
X024547Y019044D02*
X024547Y019429D01*
X024317Y019429D01*
X024240Y019352D01*
X024240Y019198D01*
X024394Y018967D02*
X024471Y018967D01*
X024547Y019044D01*
X024747Y019121D02*
X024901Y019121D01*
X024824Y019121D02*
X024824Y019429D01*
X024747Y019429D01*
X024824Y019583D02*
X024824Y019659D01*
X025086Y019429D02*
X025239Y019429D01*
X025163Y019506D02*
X025163Y019198D01*
X025239Y019121D01*
X025424Y019198D02*
X025501Y019275D01*
X025732Y019275D01*
X025732Y019352D02*
X025732Y019121D01*
X025501Y019121D01*
X025424Y019198D01*
X025501Y019429D02*
X025655Y019429D01*
X025732Y019352D01*
X025931Y019583D02*
X026008Y019583D01*
X026008Y019121D01*
X025931Y019121D02*
X026085Y019121D01*
X026204Y020214D02*
X026358Y020214D01*
X026435Y020291D01*
X026435Y020368D01*
X026358Y020445D01*
X026127Y020445D01*
X026127Y020291D01*
X026204Y020214D01*
X026127Y020445D02*
X026281Y020599D01*
X026435Y020676D01*
X027142Y020676D02*
X027142Y020445D01*
X027296Y020522D01*
X027373Y020522D01*
X027450Y020445D01*
X027450Y020291D01*
X027373Y020214D01*
X027219Y020214D01*
X027142Y020291D01*
X027142Y020676D02*
X027450Y020676D01*
X028157Y020445D02*
X028465Y020445D01*
X028388Y020214D02*
X028388Y020676D01*
X028157Y020445D01*
X029172Y020291D02*
X029249Y020214D01*
X029403Y020214D01*
X029480Y020291D01*
X029480Y020368D01*
X029403Y020445D01*
X029326Y020445D01*
X029403Y020445D02*
X029480Y020522D01*
X029480Y020599D01*
X029403Y020676D01*
X029249Y020676D01*
X029172Y020599D01*
X030187Y020599D02*
X030264Y020676D01*
X030418Y020676D01*
X030495Y020599D01*
X030495Y020522D01*
X030187Y020214D01*
X030495Y020214D01*
X031202Y020214D02*
X031510Y020214D01*
X031356Y020214D02*
X031356Y020676D01*
X031202Y020522D01*
X032217Y020599D02*
X032217Y020291D01*
X032525Y020599D01*
X032525Y020291D01*
X032448Y020214D01*
X032294Y020214D01*
X032217Y020291D01*
X032217Y020599D02*
X032294Y020676D01*
X032448Y020676D01*
X032525Y020599D01*
X025420Y020599D02*
X025112Y020291D01*
X025112Y020214D01*
X025420Y020599D02*
X025420Y020676D01*
X025112Y020676D01*
X023702Y019506D02*
X023625Y019583D01*
X023394Y019583D01*
X023394Y019121D01*
X023625Y019121D01*
X023702Y019198D01*
X023702Y019506D01*
X023901Y019429D02*
X023978Y019429D01*
X018797Y020354D02*
X018720Y020277D01*
X018566Y020277D01*
X018489Y020354D01*
X018643Y020508D02*
X018720Y020508D01*
X018797Y020431D01*
X018797Y020354D01*
X018720Y020508D02*
X018797Y020585D01*
X018797Y020662D01*
X018720Y020738D01*
X018566Y020738D01*
X018489Y020662D01*
X027932Y004266D02*
X028085Y004112D01*
X028085Y003804D01*
X028285Y003804D02*
X028285Y004112D01*
X028516Y004112D01*
X028593Y004035D01*
X028593Y003804D01*
X028793Y003881D02*
X028870Y003958D01*
X029100Y003958D01*
X029100Y004035D02*
X029100Y003804D01*
X028870Y003804D01*
X028793Y003881D01*
X028870Y004112D02*
X029024Y004112D01*
X029100Y004035D01*
X029300Y004266D02*
X029377Y004266D01*
X029377Y003804D01*
X029300Y003804D02*
X029454Y003804D01*
X029639Y003881D02*
X029639Y004035D01*
X029716Y004112D01*
X029869Y004112D01*
X029946Y004035D01*
X029946Y003881D01*
X029869Y003804D01*
X029716Y003804D01*
X029639Y003881D01*
X029335Y003538D02*
X029258Y003615D01*
X029104Y003615D01*
X029027Y003538D01*
X029335Y003538D02*
X029335Y003461D01*
X029027Y003154D01*
X029335Y003154D01*
X030042Y003231D02*
X030119Y003154D01*
X030273Y003154D01*
X030350Y003231D01*
X030350Y003308D01*
X030273Y003384D01*
X030196Y003384D01*
X030273Y003384D02*
X030350Y003461D01*
X030350Y003538D01*
X030273Y003615D01*
X030119Y003615D01*
X030042Y003538D01*
X030300Y003650D02*
X030377Y003650D01*
X030454Y003727D01*
X030454Y004112D01*
X030223Y004112D01*
X030146Y004035D01*
X030146Y003881D01*
X030223Y003804D01*
X030454Y003804D01*
X031161Y003804D02*
X031315Y003804D01*
X031238Y003804D02*
X031238Y004112D01*
X031161Y004112D01*
X031238Y004266D02*
X031238Y004343D01*
X031500Y004112D02*
X031730Y004112D01*
X031807Y004035D01*
X031807Y003804D01*
X031500Y003804D02*
X031500Y004112D01*
X031288Y003615D02*
X031057Y003384D01*
X031365Y003384D01*
X031288Y003154D02*
X031288Y003615D01*
X032072Y003615D02*
X032072Y003384D01*
X032226Y003461D01*
X032303Y003461D01*
X032380Y003384D01*
X032380Y003231D01*
X032303Y003154D01*
X032149Y003154D01*
X032072Y003231D01*
X032072Y003615D02*
X032380Y003615D01*
X028319Y003154D02*
X028012Y003154D01*
X028166Y003154D02*
X028166Y003615D01*
X028012Y003461D01*
X027778Y003804D02*
X027778Y004112D01*
X027932Y004266D01*
X027778Y004035D02*
X028085Y004035D01*
X027304Y003538D02*
X026997Y003231D01*
X027074Y003154D01*
X027228Y003154D01*
X027304Y003231D01*
X027304Y003538D01*
X027228Y003615D01*
X027074Y003615D01*
X026997Y003538D01*
X026997Y003231D01*
D12*
X027193Y004391D02*
X027347Y004391D01*
X027423Y004468D01*
X027577Y004468D02*
X027654Y004391D01*
X027807Y004391D01*
X027884Y004468D01*
X027884Y004775D01*
X027807Y004852D01*
X027654Y004852D01*
X027577Y004775D01*
X027577Y004698D01*
X027654Y004621D01*
X027884Y004621D01*
X027423Y004775D02*
X027347Y004852D01*
X027193Y004852D01*
X027116Y004775D01*
X027116Y004468D01*
X027193Y004391D01*
X023818Y004553D02*
X023511Y004553D01*
X023664Y004553D02*
X023664Y005013D01*
X023511Y004860D01*
X023357Y004937D02*
X023281Y005013D01*
X023127Y005013D01*
X023051Y004937D01*
X023051Y004630D01*
X023127Y004553D01*
X023281Y004553D01*
X023357Y004630D01*
X023148Y009967D02*
X022841Y009967D01*
X022764Y010044D01*
X022764Y010198D01*
X022841Y010274D01*
X023148Y010274D01*
X023224Y010198D01*
X023224Y010044D01*
X023148Y009967D01*
X023071Y010121D02*
X023224Y010274D01*
X023224Y010428D02*
X023224Y010735D01*
X023224Y010581D02*
X022764Y010581D01*
X022917Y010428D01*
X026513Y010425D02*
X026590Y010348D01*
X026897Y010348D01*
X026974Y010425D01*
X026974Y010578D01*
X026897Y010655D01*
X026974Y010809D02*
X026667Y011116D01*
X026590Y011116D01*
X026513Y011039D01*
X026513Y010885D01*
X026590Y010809D01*
X026590Y010655D02*
X026513Y010578D01*
X026513Y010425D01*
X026974Y010809D02*
X026974Y011116D01*
X026916Y012224D02*
X026610Y012224D01*
X026533Y012301D01*
X026533Y012455D01*
X026610Y012531D01*
X026610Y012685D02*
X026533Y012761D01*
X026533Y012915D01*
X026610Y012992D01*
X026686Y012992D01*
X026763Y012915D01*
X026840Y012992D01*
X026916Y012992D01*
X026993Y012915D01*
X026993Y012761D01*
X026916Y012685D01*
X026916Y012531D02*
X026993Y012455D01*
X026993Y012301D01*
X026916Y012224D01*
X026763Y012838D02*
X026763Y012915D01*
X026907Y013361D02*
X026754Y013514D01*
X026830Y013514D02*
X026600Y013514D01*
X026600Y013361D02*
X026600Y013821D01*
X026830Y013821D01*
X026907Y013744D01*
X026907Y013591D01*
X026830Y013514D01*
X027060Y013361D02*
X027367Y013361D01*
X027214Y013361D02*
X027214Y013821D01*
X027060Y013668D01*
X027107Y014369D02*
X027030Y014446D01*
X027030Y014522D01*
X027107Y014599D01*
X027261Y014599D01*
X027337Y014522D01*
X027337Y014446D01*
X027261Y014369D01*
X027107Y014369D01*
X026877Y014369D02*
X026723Y014522D01*
X026800Y014522D02*
X026570Y014522D01*
X026570Y014369D02*
X026570Y014829D01*
X026800Y014829D01*
X026877Y014753D01*
X026877Y014599D01*
X026800Y014522D01*
X027030Y014676D02*
X027030Y014753D01*
X027107Y014829D01*
X027261Y014829D01*
X027337Y014753D01*
X027337Y014676D01*
X027261Y014599D01*
X027107Y014599D02*
X027030Y014676D01*
X031939Y014201D02*
X032451Y014201D01*
X032451Y014031D02*
X032451Y014372D01*
X032110Y014031D02*
X031939Y014201D01*
X021405Y014074D02*
X021098Y014074D01*
X020945Y014074D02*
X020638Y014074D01*
X020791Y014074D02*
X020791Y014534D01*
X020638Y014380D01*
X020484Y014304D02*
X020408Y014227D01*
X020178Y014227D01*
X020331Y014227D02*
X020484Y014074D01*
X020484Y014304D02*
X020484Y014457D01*
X020408Y014534D01*
X020178Y014534D01*
X020178Y014074D01*
X021098Y014380D02*
X021252Y014534D01*
X021252Y014074D01*
X021104Y015380D02*
X021410Y015687D01*
X021410Y015763D01*
X021334Y015840D01*
X021180Y015840D01*
X021104Y015763D01*
X020797Y015840D02*
X020797Y015380D01*
X020950Y015380D02*
X020643Y015380D01*
X020490Y015380D02*
X020336Y015533D01*
X020413Y015533D02*
X020183Y015533D01*
X020183Y015380D02*
X020183Y015840D01*
X020413Y015840D01*
X020490Y015763D01*
X020490Y015610D01*
X020413Y015533D01*
X020643Y015687D02*
X020797Y015840D01*
X021104Y015380D02*
X021410Y015380D01*
X019949Y016436D02*
X019489Y016436D01*
X019489Y016666D01*
X019565Y016743D01*
X019719Y016743D01*
X019795Y016666D01*
X019795Y016436D01*
X019795Y016589D02*
X019949Y016743D01*
X019949Y016896D02*
X019872Y016896D01*
X019565Y017203D01*
X019489Y017203D01*
X019489Y016896D01*
X018024Y012494D02*
X017718Y012494D01*
X018024Y012187D01*
X018101Y012264D01*
X018101Y012417D01*
X018024Y012494D01*
X017718Y012494D02*
X017641Y012417D01*
X017641Y012264D01*
X017718Y012187D01*
X018024Y012187D01*
X018101Y012034D02*
X018101Y011727D01*
X017794Y012034D01*
X017718Y012034D01*
X017641Y011957D01*
X017641Y011803D01*
X017718Y011727D01*
X017718Y011573D02*
X017641Y011497D01*
X017641Y011343D01*
X017718Y011266D01*
X018024Y011266D01*
X018101Y011343D01*
X018101Y011497D01*
X018024Y011573D01*
X013881Y010019D02*
X013881Y009866D01*
X013805Y009789D01*
X013498Y010096D01*
X013805Y010096D01*
X013881Y010019D01*
X013805Y009789D02*
X013498Y009789D01*
X013421Y009866D01*
X013421Y010019D01*
X013498Y010096D01*
X013881Y009635D02*
X013881Y009329D01*
X013881Y009482D02*
X013421Y009482D01*
X013574Y009329D01*
X013498Y009175D02*
X013421Y009098D01*
X013421Y008945D01*
X013498Y008868D01*
X013805Y008868D01*
X013881Y008945D01*
X013881Y009098D01*
X013805Y009175D01*
X012927Y007510D02*
X012851Y007510D01*
X012774Y007434D01*
X012774Y007204D01*
X012927Y007204D01*
X013004Y007280D01*
X013004Y007434D01*
X012927Y007510D01*
X012774Y007204D02*
X012620Y007357D01*
X012544Y007510D01*
X013004Y007050D02*
X013004Y006743D01*
X013004Y006897D02*
X012544Y006897D01*
X012697Y006743D01*
X012620Y006590D02*
X012544Y006513D01*
X012544Y006360D01*
X012620Y006283D01*
X012927Y006283D01*
X013004Y006360D01*
X013004Y006513D01*
X012927Y006590D01*
X012005Y006489D02*
X012005Y006028D01*
X011852Y006028D02*
X012159Y006028D01*
X011698Y006105D02*
X011698Y006412D01*
X011622Y006489D01*
X011392Y006489D01*
X011392Y006028D01*
X011622Y006028D01*
X011698Y006105D01*
X011852Y006335D02*
X012005Y006489D01*
X010362Y006580D02*
X010362Y006733D01*
X010362Y006656D02*
X009901Y006656D01*
X009901Y006580D02*
X009901Y006733D01*
X009978Y006887D02*
X010285Y006887D01*
X010362Y006963D01*
X010362Y007117D01*
X010285Y007193D01*
X010131Y007347D02*
X010131Y007654D01*
X009901Y007577D02*
X010131Y007347D01*
X009978Y007193D02*
X009901Y007117D01*
X009901Y006963D01*
X009978Y006887D01*
X009901Y007577D02*
X010362Y007577D01*
X006440Y006466D02*
X006364Y006543D01*
X006210Y006543D01*
X006134Y006466D01*
X005980Y006466D02*
X005903Y006543D01*
X005750Y006543D01*
X005673Y006466D01*
X005673Y006160D01*
X005750Y006083D01*
X005903Y006083D01*
X005980Y006160D01*
X006134Y006083D02*
X006440Y006390D01*
X006440Y006466D01*
X006440Y006083D02*
X006134Y006083D01*
X005520Y006083D02*
X005366Y006083D01*
X005443Y006083D02*
X005443Y006543D01*
X005366Y006543D02*
X005520Y006543D01*
X008605Y004885D02*
X008605Y004578D01*
X008681Y004424D02*
X008605Y004348D01*
X008605Y004194D01*
X008681Y004118D01*
X008988Y004118D01*
X009065Y004194D01*
X009065Y004348D01*
X008988Y004424D01*
X008988Y004578D02*
X009065Y004578D01*
X008988Y004578D02*
X008681Y004885D01*
X008605Y004885D01*
X009440Y004402D02*
X009676Y004402D01*
X009440Y004402D02*
X008771Y003733D01*
X008771Y001843D01*
X009676Y001843D01*
X010425Y001843D02*
X011330Y001843D01*
X011330Y003733D01*
X010661Y004402D01*
X010425Y004402D01*
X011643Y004305D02*
X011643Y004152D01*
X011720Y004075D01*
X012027Y004075D01*
X012104Y004152D01*
X012104Y004305D01*
X012027Y004382D01*
X012027Y004536D02*
X011874Y004536D01*
X011874Y004766D01*
X011950Y004842D01*
X012027Y004842D01*
X012104Y004766D01*
X012104Y004612D01*
X012027Y004536D01*
X011874Y004536D02*
X011720Y004689D01*
X011643Y004842D01*
X011720Y004382D02*
X011643Y004305D01*
X012000Y003817D02*
X012669Y004487D01*
X012905Y004487D01*
X013589Y004730D02*
X013589Y005036D01*
X013666Y005113D01*
X013819Y005113D01*
X013896Y005036D01*
X014049Y005113D02*
X014049Y004883D01*
X014203Y004960D01*
X014279Y004960D01*
X014356Y004883D01*
X014356Y004730D01*
X014279Y004653D01*
X014126Y004653D01*
X014049Y004730D01*
X013896Y004730D02*
X013819Y004653D01*
X013666Y004653D01*
X013589Y004730D01*
X013653Y004487D02*
X013889Y004487D01*
X014559Y003817D01*
X014559Y001928D01*
X013653Y001928D01*
X012905Y001928D02*
X012000Y001928D01*
X012000Y003817D01*
X014049Y005113D02*
X014356Y005113D01*
X003754Y013310D02*
X003754Y013463D01*
X003677Y013540D01*
X003754Y013693D02*
X003754Y014000D01*
X003754Y013847D02*
X003294Y013847D01*
X003447Y013693D01*
X003370Y013540D02*
X003294Y013463D01*
X003294Y013310D01*
X003370Y013233D01*
X003677Y013233D01*
X003754Y013310D01*
X003677Y014154D02*
X003754Y014230D01*
X003754Y014384D01*
X003677Y014460D01*
X003370Y014460D01*
X003294Y014384D01*
X003294Y014230D01*
X003370Y014154D01*
X003447Y014154D01*
X003524Y014230D01*
X003524Y014460D01*
X003370Y015752D02*
X003677Y015752D01*
X003754Y015828D01*
X003754Y015982D01*
X003677Y016059D01*
X003754Y016212D02*
X003754Y016519D01*
X003754Y016365D02*
X003294Y016365D01*
X003447Y016212D01*
X003370Y016059D02*
X003294Y015982D01*
X003294Y015828D01*
X003370Y015752D01*
X003370Y016672D02*
X003447Y016672D01*
X003524Y016749D01*
X003524Y016903D01*
X003601Y016979D01*
X003677Y016979D01*
X003754Y016903D01*
X003754Y016749D01*
X003677Y016672D01*
X003601Y016672D01*
X003524Y016749D01*
X003524Y016903D02*
X003447Y016979D01*
X003370Y016979D01*
X003294Y016903D01*
X003294Y016749D01*
X003370Y016672D01*
X007594Y017883D02*
X007594Y018113D01*
X007670Y018190D01*
X007824Y018190D01*
X007901Y018113D01*
X007901Y017883D01*
X008054Y017883D02*
X007594Y017883D01*
X007901Y018036D02*
X008054Y018190D01*
X007824Y018343D02*
X007824Y018650D01*
X008054Y018573D02*
X007594Y018573D01*
X007824Y018343D01*
X011933Y019103D02*
X011933Y019563D01*
X012163Y019563D01*
X012240Y019486D01*
X012240Y019333D01*
X012163Y019256D01*
X011933Y019256D01*
X012087Y019256D02*
X012240Y019103D01*
X012394Y019103D02*
X012701Y019563D01*
X012394Y019563D02*
X012701Y019103D01*
X012594Y016023D02*
X012901Y015563D01*
X012594Y015563D02*
X012901Y016023D01*
X012441Y016023D02*
X012134Y016023D01*
X012287Y016023D02*
X012287Y015563D01*
X008054Y021393D02*
X007594Y021393D01*
X007594Y021623D01*
X007670Y021700D01*
X007824Y021700D01*
X007901Y021623D01*
X007901Y021393D01*
X007901Y021546D02*
X008054Y021700D01*
X007977Y021853D02*
X008054Y021930D01*
X008054Y022083D01*
X007977Y022160D01*
X007901Y022160D01*
X007824Y022083D01*
X007824Y022007D01*
X007824Y022083D02*
X007747Y022160D01*
X007670Y022160D01*
X007594Y022083D01*
X007594Y021930D01*
X007670Y021853D01*
D13*
X003741Y001726D02*
X003421Y001726D01*
X003421Y002366D01*
X003741Y002366D01*
X003848Y002259D01*
X003848Y001832D01*
X003741Y001726D01*
X004065Y001832D02*
X004172Y001726D01*
X004386Y001726D01*
X004492Y001832D01*
X004710Y001726D02*
X005137Y001726D01*
X004924Y001726D02*
X004924Y002366D01*
X004710Y002153D01*
X004492Y002259D02*
X004386Y002366D01*
X004172Y002366D01*
X004065Y002259D01*
X004065Y001832D01*
X013974Y007713D02*
X013974Y008213D01*
X014224Y008463D01*
X013974Y008713D01*
X013974Y009213D01*
X014224Y009463D01*
X014724Y009463D01*
X014974Y009213D01*
X014974Y008713D01*
X014724Y008463D01*
X014974Y008213D01*
X014974Y007713D01*
X014724Y007463D01*
X014224Y007463D01*
X013974Y007713D01*
X014224Y008463D02*
X014724Y008463D01*
X014724Y009463D02*
X014974Y009713D01*
X014974Y010213D01*
X014724Y010463D01*
X014974Y010713D01*
X014974Y011213D01*
X014724Y011463D01*
X014224Y011463D01*
X013974Y011213D01*
X013974Y010713D01*
X014224Y010463D01*
X014724Y010463D01*
X014224Y010463D02*
X013974Y010213D01*
X013974Y009713D01*
X014224Y009463D01*
X013069Y010458D02*
X013319Y010708D01*
X013319Y011208D01*
X013069Y011458D01*
X013319Y011708D01*
X013319Y012208D01*
X013069Y012458D01*
X013319Y012708D01*
X013319Y013208D01*
X013069Y013458D01*
X012569Y013458D01*
X012319Y013208D01*
X012319Y012708D01*
X012569Y012458D01*
X012319Y012208D01*
X012319Y011708D01*
X012569Y011458D01*
X012319Y011208D01*
X012319Y010708D01*
X012569Y010458D01*
X013069Y010458D01*
X016074Y010213D02*
X016074Y009713D01*
X016324Y009463D01*
X016824Y009463D01*
X017074Y009213D01*
X017074Y008713D01*
X016824Y008463D01*
X017074Y008213D01*
X017074Y007713D01*
X016824Y007463D01*
X016324Y007463D01*
X016074Y007713D01*
X016074Y008213D01*
X016324Y008463D01*
X016074Y008713D01*
X016074Y009213D01*
X016324Y009463D01*
X016824Y009463D02*
X017074Y009713D01*
X017074Y010213D01*
X016824Y010463D01*
X017074Y010713D01*
X017074Y011213D01*
X016824Y011463D01*
X016324Y011463D01*
X016074Y011213D01*
X016074Y010713D01*
X016324Y010463D01*
X016824Y010463D01*
X016324Y010463D02*
X016074Y010213D01*
X016324Y008463D02*
X016824Y008463D01*
X018762Y008189D02*
X018762Y005989D01*
X033362Y005989D01*
X033362Y006839D01*
X033332Y006841D01*
X033302Y006846D01*
X033273Y006855D01*
X033246Y006868D01*
X033220Y006883D01*
X033196Y006902D01*
X033175Y006923D01*
X033156Y006947D01*
X033141Y006973D01*
X033128Y007000D01*
X033119Y007029D01*
X033114Y007059D01*
X033112Y007089D01*
X033114Y007119D01*
X033119Y007149D01*
X033128Y007178D01*
X033141Y007205D01*
X033156Y007231D01*
X033175Y007255D01*
X033196Y007276D01*
X033220Y007295D01*
X033246Y007310D01*
X033273Y007323D01*
X033302Y007332D01*
X033332Y007337D01*
X033362Y007339D01*
X033362Y008189D01*
X018762Y008189D01*
X020084Y004862D02*
X020084Y004635D01*
X020084Y004749D02*
X020424Y004749D01*
X020424Y004494D02*
X020424Y004267D01*
X020084Y004267D01*
X020084Y004494D01*
X020254Y004380D02*
X020254Y004267D01*
X020311Y004125D02*
X020367Y004125D01*
X020424Y004069D01*
X020424Y003955D01*
X020367Y003898D01*
X020254Y003955D02*
X020254Y004069D01*
X020311Y004125D01*
X020141Y004125D02*
X020084Y004069D01*
X020084Y003955D01*
X020141Y003898D01*
X020197Y003898D01*
X020254Y003955D01*
X020084Y003757D02*
X020084Y003530D01*
X020424Y003530D01*
X020424Y003757D01*
X020254Y003644D02*
X020254Y003530D01*
X020254Y003389D02*
X020311Y003332D01*
X020311Y003162D01*
X020424Y003162D02*
X020084Y003162D01*
X020084Y003332D01*
X020141Y003389D01*
X020254Y003389D01*
X020311Y003275D02*
X020424Y003389D01*
X021074Y003303D02*
X021074Y003190D01*
X021131Y003133D01*
X021244Y003246D02*
X021244Y003303D01*
X021301Y003360D01*
X021357Y003360D01*
X021414Y003303D01*
X021414Y003190D01*
X021357Y003133D01*
X021244Y003303D02*
X021187Y003360D01*
X021131Y003360D01*
X021074Y003303D01*
X021074Y003501D02*
X021301Y003501D01*
X021414Y003615D01*
X021301Y003728D01*
X021074Y003728D01*
X021131Y003869D02*
X021074Y003926D01*
X021074Y004040D01*
X021131Y004096D01*
X021187Y004096D01*
X021244Y004040D01*
X021301Y004096D01*
X021357Y004096D01*
X021414Y004040D01*
X021414Y003926D01*
X021357Y003869D01*
X021244Y003983D02*
X021244Y004040D01*
X021008Y002848D02*
X021508Y002848D01*
X021758Y002598D01*
X021758Y002098D01*
X021508Y001848D01*
X021008Y001848D01*
X020758Y002098D01*
X020508Y001848D01*
X020008Y001848D01*
X019758Y002098D01*
X019758Y002598D01*
X020008Y002848D01*
X020508Y002848D01*
X020758Y002598D01*
X021008Y002848D01*
X020758Y002598D02*
X020758Y002098D01*
X020509Y001848D02*
X020759Y001598D01*
X021009Y001848D01*
X021509Y001848D01*
X021759Y001598D01*
X021759Y001098D01*
X021509Y000848D01*
X021009Y000848D01*
X020759Y001098D01*
X020509Y000848D01*
X020009Y000848D01*
X019759Y001098D01*
X019759Y001598D01*
X020009Y001848D01*
X020509Y001848D01*
X020759Y001598D02*
X020759Y001098D01*
X021759Y001098D02*
X022009Y000848D01*
X022509Y000848D01*
X022759Y001098D01*
X023009Y000848D01*
X023509Y000848D01*
X023759Y001098D01*
X024009Y000848D01*
X024509Y000848D01*
X024759Y001098D01*
X025009Y000848D01*
X025509Y000848D01*
X025759Y001098D01*
X025759Y001598D01*
X025509Y001848D01*
X025009Y001848D01*
X024759Y001598D01*
X024759Y001098D01*
X024759Y001598D02*
X024509Y001848D01*
X024009Y001848D01*
X023759Y001598D01*
X023759Y001098D01*
X023759Y001598D02*
X023509Y001848D01*
X023009Y001848D01*
X022759Y001598D01*
X022759Y001098D01*
X022759Y001598D02*
X022509Y001848D01*
X022009Y001848D01*
X021759Y001598D01*
X022008Y001848D02*
X021758Y002098D01*
X022008Y001848D02*
X022508Y001848D01*
X022758Y002098D01*
X023008Y001848D01*
X023508Y001848D01*
X023758Y002098D01*
X024008Y001848D01*
X024508Y001848D01*
X024758Y002098D01*
X025008Y001848D01*
X025508Y001848D01*
X025758Y002098D01*
X025758Y002598D01*
X025508Y002848D01*
X025008Y002848D01*
X024758Y002598D01*
X024758Y002098D01*
X024758Y002598D02*
X024508Y002848D01*
X024008Y002848D01*
X023758Y002598D01*
X023758Y002098D01*
X023758Y002598D02*
X023508Y002848D01*
X023008Y002848D01*
X022758Y002598D01*
X022758Y002098D01*
X022758Y002598D02*
X022508Y002848D01*
X022008Y002848D01*
X021758Y002598D01*
X026730Y002618D02*
X026730Y002118D01*
X026980Y001868D01*
X027480Y001868D01*
X027730Y002118D01*
X027980Y001868D01*
X028480Y001868D01*
X028730Y002118D01*
X028730Y002618D01*
X028480Y002868D01*
X027980Y002868D01*
X027730Y002618D01*
X027730Y002118D01*
X027979Y001868D02*
X028479Y001868D01*
X028729Y001618D01*
X028729Y001118D01*
X028479Y000868D01*
X027979Y000868D01*
X027729Y001118D01*
X027479Y000868D01*
X026979Y000868D01*
X026729Y001118D01*
X026729Y001618D01*
X026979Y001868D01*
X027479Y001868D01*
X027729Y001618D01*
X027979Y001868D01*
X027729Y001618D02*
X027729Y001118D01*
X028729Y001118D02*
X028979Y000868D01*
X029479Y000868D01*
X029729Y001118D01*
X029979Y000868D01*
X030479Y000868D01*
X030729Y001118D01*
X030979Y000868D01*
X031479Y000868D01*
X031729Y001118D01*
X031979Y000868D01*
X032479Y000868D01*
X032729Y001118D01*
X032729Y001618D01*
X032479Y001868D01*
X031979Y001868D01*
X031729Y001618D01*
X031729Y001118D01*
X031729Y001618D02*
X031479Y001868D01*
X030979Y001868D01*
X030729Y001618D01*
X030729Y001118D01*
X030729Y001618D02*
X030479Y001868D01*
X029979Y001868D01*
X029729Y001618D01*
X029729Y001118D01*
X029729Y001618D02*
X029479Y001868D01*
X028979Y001868D01*
X028729Y001618D01*
X028980Y001868D02*
X028730Y002118D01*
X028980Y001868D02*
X029480Y001868D01*
X029730Y002118D01*
X029980Y001868D01*
X030480Y001868D01*
X030730Y002118D01*
X030980Y001868D01*
X031480Y001868D01*
X031730Y002118D01*
X031980Y001868D01*
X032480Y001868D01*
X032730Y002118D01*
X032730Y002618D01*
X032480Y002868D01*
X031980Y002868D01*
X031730Y002618D01*
X031730Y002118D01*
X031730Y002618D02*
X031480Y002868D01*
X030980Y002868D01*
X030730Y002618D01*
X030730Y002118D01*
X030730Y002618D02*
X030480Y002868D01*
X029980Y002868D01*
X029730Y002618D01*
X029730Y002118D01*
X029730Y002618D02*
X029480Y002868D01*
X028980Y002868D01*
X028730Y002618D01*
X027730Y002618D02*
X027480Y002868D01*
X026980Y002868D01*
X026730Y002618D01*
X028257Y010318D02*
X028607Y010318D01*
X029557Y010318D01*
X029957Y010318D01*
X030307Y011118D02*
X030307Y011218D01*
X030407Y011218D01*
X030407Y011818D01*
X030307Y011818D01*
X030307Y011918D01*
X029957Y012718D02*
X029607Y012718D01*
X028607Y012718D01*
X028257Y012718D01*
X027907Y011918D02*
X027907Y011818D01*
X027807Y011818D01*
X027807Y011218D01*
X027907Y011218D01*
X027907Y011118D01*
X029007Y011518D02*
X029009Y011538D01*
X029015Y011556D01*
X029024Y011574D01*
X029036Y011589D01*
X029051Y011601D01*
X029069Y011610D01*
X029087Y011616D01*
X029107Y011618D01*
X029127Y011616D01*
X029145Y011610D01*
X029163Y011601D01*
X029178Y011589D01*
X029190Y011574D01*
X029199Y011556D01*
X029205Y011538D01*
X029207Y011518D01*
X029205Y011498D01*
X029199Y011480D01*
X029190Y011462D01*
X029178Y011447D01*
X029163Y011435D01*
X029145Y011426D01*
X029127Y011420D01*
X029107Y011418D01*
X029087Y011420D01*
X029069Y011426D01*
X029051Y011435D01*
X029036Y011447D01*
X029024Y011462D01*
X029015Y011480D01*
X029009Y011498D01*
X029007Y011518D01*
X028407Y011518D02*
X028409Y011570D01*
X028415Y011622D01*
X028425Y011674D01*
X028438Y011724D01*
X028455Y011774D01*
X028476Y011822D01*
X028501Y011868D01*
X028529Y011912D01*
X028560Y011954D01*
X028594Y011994D01*
X028631Y012031D01*
X028671Y012065D01*
X028713Y012096D01*
X028757Y012124D01*
X028803Y012149D01*
X028851Y012170D01*
X028901Y012187D01*
X028951Y012200D01*
X029003Y012210D01*
X029055Y012216D01*
X029107Y012218D01*
X029159Y012216D01*
X029211Y012210D01*
X029263Y012200D01*
X029313Y012187D01*
X029363Y012170D01*
X029411Y012149D01*
X029457Y012124D01*
X029501Y012096D01*
X029543Y012065D01*
X029583Y012031D01*
X029620Y011994D01*
X029654Y011954D01*
X029685Y011912D01*
X029713Y011868D01*
X029738Y011822D01*
X029759Y011774D01*
X029776Y011724D01*
X029789Y011674D01*
X029799Y011622D01*
X029805Y011570D01*
X029807Y011518D01*
X029805Y011466D01*
X029799Y011414D01*
X029789Y011362D01*
X029776Y011312D01*
X029759Y011262D01*
X029738Y011214D01*
X029713Y011168D01*
X029685Y011124D01*
X029654Y011082D01*
X029620Y011042D01*
X029583Y011005D01*
X029543Y010971D01*
X029501Y010940D01*
X029457Y010912D01*
X029411Y010887D01*
X029363Y010866D01*
X029313Y010849D01*
X029263Y010836D01*
X029211Y010826D01*
X029159Y010820D01*
X029107Y010818D01*
X029055Y010820D01*
X029003Y010826D01*
X028951Y010836D01*
X028901Y010849D01*
X028851Y010866D01*
X028803Y010887D01*
X028757Y010912D01*
X028713Y010940D01*
X028671Y010971D01*
X028631Y011005D01*
X028594Y011042D01*
X028560Y011082D01*
X028529Y011124D01*
X028501Y011168D01*
X028476Y011214D01*
X028455Y011262D01*
X028438Y011312D01*
X028425Y011362D01*
X028415Y011414D01*
X028409Y011466D01*
X028407Y011518D01*
X025070Y010550D02*
X025070Y012850D01*
X025068Y012901D01*
X025063Y012952D01*
X025053Y013002D01*
X025040Y013052D01*
X025024Y013100D01*
X025004Y013147D01*
X024980Y013193D01*
X024954Y013236D01*
X024924Y013278D01*
X024891Y013317D01*
X024856Y013354D01*
X024818Y013388D01*
X024777Y013419D01*
X024735Y013448D01*
X024690Y013473D01*
X024644Y013494D01*
X024596Y013513D01*
X024547Y013527D01*
X024497Y013538D01*
X024447Y013546D01*
X024396Y013550D01*
X024344Y013550D01*
X024293Y013546D01*
X024243Y013538D01*
X024193Y013527D01*
X024144Y013513D01*
X024096Y013494D01*
X024050Y013473D01*
X024005Y013448D01*
X023963Y013419D01*
X023922Y013388D01*
X023884Y013354D01*
X023849Y013317D01*
X023816Y013278D01*
X023786Y013236D01*
X023760Y013193D01*
X023736Y013147D01*
X023716Y013100D01*
X023700Y013052D01*
X023687Y013002D01*
X023677Y012952D01*
X023672Y012901D01*
X023670Y012850D01*
X023670Y010550D01*
X023672Y010499D01*
X023677Y010448D01*
X023687Y010398D01*
X023700Y010348D01*
X023716Y010300D01*
X023736Y010253D01*
X023760Y010207D01*
X023786Y010164D01*
X023816Y010122D01*
X023849Y010083D01*
X023884Y010046D01*
X023922Y010012D01*
X023963Y009981D01*
X024005Y009952D01*
X024050Y009927D01*
X024096Y009906D01*
X024144Y009887D01*
X024193Y009873D01*
X024243Y009862D01*
X024293Y009854D01*
X024344Y009850D01*
X024396Y009850D01*
X024447Y009854D01*
X024497Y009862D01*
X024547Y009873D01*
X024596Y009887D01*
X024644Y009906D01*
X024690Y009927D01*
X024735Y009952D01*
X024777Y009981D01*
X024818Y010012D01*
X024856Y010046D01*
X024891Y010083D01*
X024924Y010122D01*
X024954Y010164D01*
X024980Y010207D01*
X025004Y010253D01*
X025024Y010300D01*
X025040Y010348D01*
X025053Y010398D01*
X025063Y010448D01*
X025068Y010499D01*
X025070Y010550D01*
X024370Y011200D02*
X024370Y011450D01*
X024020Y011450D01*
X024020Y011600D02*
X024020Y011800D01*
X024720Y011800D01*
X024720Y011600D01*
X024020Y011600D01*
X024020Y011950D02*
X024370Y011950D01*
X024370Y012200D01*
X024370Y011950D02*
X024720Y011950D01*
X024720Y011450D02*
X024370Y011450D01*
X017074Y012713D02*
X017074Y013213D01*
X016824Y013463D01*
X017074Y013713D01*
X017074Y014213D01*
X016824Y014463D01*
X016324Y014463D01*
X016074Y014213D01*
X016074Y013713D01*
X016324Y013463D01*
X016824Y013463D01*
X016324Y013463D02*
X016074Y013213D01*
X016074Y012713D01*
X016324Y012463D01*
X016824Y012463D01*
X017074Y012713D01*
X014974Y012713D02*
X014974Y013213D01*
X014724Y013463D01*
X014974Y013713D01*
X014974Y014213D01*
X014724Y014463D01*
X014224Y014463D01*
X013974Y014213D01*
X013974Y013713D01*
X014224Y013463D01*
X014724Y013463D01*
X014224Y013463D02*
X013974Y013213D01*
X013974Y012713D01*
X014224Y012463D01*
X014724Y012463D01*
X014974Y012713D01*
X014724Y014463D02*
X014974Y014713D01*
X014974Y015213D01*
X014724Y015463D01*
X014974Y015713D01*
X014974Y016213D01*
X014724Y016463D01*
X014974Y016713D01*
X014974Y017213D01*
X014724Y017463D01*
X014974Y017713D01*
X014974Y018213D01*
X014724Y018463D01*
X014224Y018463D01*
X013974Y018213D01*
X013974Y017713D01*
X014224Y017463D01*
X014724Y017463D01*
X014224Y017463D02*
X013974Y017213D01*
X013974Y016713D01*
X014224Y016463D01*
X014724Y016463D01*
X014224Y016463D02*
X013974Y016213D01*
X013974Y015713D01*
X014224Y015463D01*
X014724Y015463D01*
X014224Y015463D02*
X013974Y015213D01*
X013974Y014713D01*
X014224Y014463D01*
X016074Y014713D02*
X016074Y015213D01*
X016324Y015463D01*
X016074Y015713D01*
X016074Y016213D01*
X016324Y016463D01*
X016074Y016713D01*
X016074Y017213D01*
X016324Y017463D01*
X016074Y017713D01*
X016074Y018213D01*
X016324Y018463D01*
X016824Y018463D01*
X017074Y018213D01*
X017074Y017713D01*
X016824Y017463D01*
X017074Y017213D01*
X017074Y016713D01*
X016824Y016463D01*
X017074Y016213D01*
X017074Y015713D01*
X016824Y015463D01*
X017074Y015213D01*
X017074Y014713D01*
X016824Y014463D01*
X016324Y014463D02*
X016074Y014713D01*
X016324Y015463D02*
X016824Y015463D01*
X016824Y016463D02*
X016324Y016463D01*
X016324Y017463D02*
X016824Y017463D01*
X016920Y019878D02*
X016420Y019878D01*
X016170Y020128D01*
X016170Y020628D01*
X016420Y020878D01*
X016920Y020878D01*
X017170Y020628D01*
X017420Y020878D01*
X017920Y020878D01*
X018170Y020628D01*
X018420Y020878D01*
X018920Y020878D01*
X019170Y020628D01*
X019420Y020878D01*
X019920Y020878D01*
X020170Y020628D01*
X020420Y020878D01*
X020920Y020878D01*
X021170Y020628D01*
X021420Y020878D01*
X021920Y020878D01*
X022170Y020628D01*
X022420Y020878D01*
X022920Y020878D01*
X023170Y020628D01*
X023420Y020878D01*
X023920Y020878D01*
X024170Y020628D01*
X024170Y020128D01*
X023920Y019878D01*
X023420Y019878D01*
X023170Y020128D01*
X022920Y019878D01*
X022420Y019878D01*
X022170Y020128D01*
X022170Y020628D01*
X022099Y020878D02*
X021849Y021128D01*
X021849Y021628D01*
X022099Y021878D01*
X022599Y021878D01*
X022849Y021628D01*
X023099Y021878D01*
X023599Y021878D01*
X023849Y021628D01*
X023849Y021128D01*
X023599Y020878D01*
X023099Y020878D01*
X022849Y021128D01*
X022599Y020878D01*
X022099Y020878D01*
X021849Y021128D02*
X021599Y020878D01*
X021099Y020878D01*
X020849Y021128D01*
X020599Y020878D01*
X020099Y020878D01*
X019849Y021128D01*
X019599Y020878D01*
X019099Y020878D01*
X018849Y021128D01*
X018849Y021628D01*
X019099Y021878D01*
X019599Y021878D01*
X019849Y021628D01*
X020099Y021878D01*
X020599Y021878D01*
X020849Y021628D01*
X021099Y021878D01*
X021599Y021878D01*
X021849Y021628D01*
X020849Y021628D02*
X020849Y021128D01*
X021170Y020628D02*
X021170Y020128D01*
X020920Y019878D01*
X020420Y019878D01*
X020170Y020128D01*
X019920Y019878D01*
X019420Y019878D01*
X019170Y020128D01*
X019170Y020628D01*
X018849Y021128D02*
X018599Y020878D01*
X018099Y020878D01*
X017849Y021128D01*
X017599Y020878D01*
X017099Y020878D01*
X016849Y021128D01*
X016599Y020878D01*
X016099Y020878D01*
X015849Y021128D01*
X015849Y021628D01*
X016099Y021878D01*
X016599Y021878D01*
X016849Y021628D01*
X017099Y021878D01*
X017599Y021878D01*
X017849Y021628D01*
X018099Y021878D01*
X018599Y021878D01*
X018849Y021628D01*
X017849Y021628D02*
X017849Y021128D01*
X018170Y020628D02*
X018170Y020128D01*
X017920Y019878D01*
X017420Y019878D01*
X017170Y020128D01*
X016920Y019878D01*
X017170Y020128D02*
X017170Y020628D01*
X016849Y021128D02*
X016849Y021628D01*
X018170Y020128D02*
X018420Y019878D01*
X018920Y019878D01*
X019170Y020128D01*
X020170Y020128D02*
X020170Y020628D01*
X019849Y021128D02*
X019849Y021628D01*
X021170Y020128D02*
X021420Y019878D01*
X021920Y019878D01*
X022170Y020128D01*
X023170Y020128D02*
X023170Y020628D01*
X022849Y021128D02*
X022849Y021628D01*
X024849Y021628D02*
X024849Y021128D01*
X025099Y020878D01*
X025599Y020878D01*
X025849Y021128D01*
X025849Y021628D01*
X025599Y021878D01*
X025099Y021878D01*
X024849Y021628D01*
X025100Y020878D02*
X025600Y020878D01*
X025850Y020628D01*
X026100Y020878D01*
X026600Y020878D01*
X026850Y020628D01*
X027100Y020878D01*
X027600Y020878D01*
X027850Y020628D01*
X028100Y020878D01*
X028600Y020878D01*
X028850Y020628D01*
X029100Y020878D01*
X029600Y020878D01*
X029850Y020628D01*
X030100Y020878D01*
X030600Y020878D01*
X030850Y020628D01*
X031100Y020878D01*
X031600Y020878D01*
X031850Y020628D01*
X032100Y020878D01*
X032600Y020878D01*
X032850Y020628D01*
X032850Y020128D01*
X032600Y019878D01*
X032100Y019878D01*
X031850Y020128D01*
X031600Y019878D01*
X031100Y019878D01*
X030850Y020128D01*
X030850Y020628D01*
X031099Y020878D02*
X030849Y021128D01*
X030849Y021628D01*
X031099Y021878D01*
X031599Y021878D01*
X031849Y021628D01*
X032099Y021878D01*
X032599Y021878D01*
X032849Y021628D01*
X032849Y021128D01*
X032599Y020878D01*
X032099Y020878D01*
X031849Y021128D01*
X031599Y020878D01*
X031099Y020878D01*
X030849Y021128D02*
X030599Y020878D01*
X030099Y020878D01*
X029849Y021128D01*
X029599Y020878D01*
X029099Y020878D01*
X028849Y021128D01*
X028599Y020878D01*
X028099Y020878D01*
X027849Y021128D01*
X027849Y021628D01*
X028099Y021878D01*
X028599Y021878D01*
X028849Y021628D01*
X029099Y021878D01*
X029599Y021878D01*
X029849Y021628D01*
X030099Y021878D01*
X030599Y021878D01*
X030849Y021628D01*
X029849Y021628D02*
X029849Y021128D01*
X029850Y020628D02*
X029850Y020128D01*
X029600Y019878D01*
X029100Y019878D01*
X028850Y020128D01*
X028600Y019878D01*
X028100Y019878D01*
X027850Y020128D01*
X027850Y020628D01*
X027599Y020878D02*
X027099Y020878D01*
X026849Y021128D01*
X026599Y020878D01*
X026099Y020878D01*
X025849Y021128D01*
X025849Y021628D02*
X026099Y021878D01*
X026599Y021878D01*
X026849Y021628D01*
X027099Y021878D01*
X027599Y021878D01*
X027849Y021628D01*
X027849Y021128D02*
X027599Y020878D01*
X026850Y020628D02*
X026850Y020128D01*
X026600Y019878D01*
X026100Y019878D01*
X025850Y020128D01*
X025600Y019878D01*
X025100Y019878D01*
X024850Y020128D01*
X024850Y020628D01*
X025100Y020878D01*
X025850Y020628D02*
X025850Y020128D01*
X026850Y020128D02*
X027100Y019878D01*
X027600Y019878D01*
X027850Y020128D01*
X028850Y020128D02*
X028850Y020628D01*
X028849Y021128D02*
X028849Y021628D01*
X026849Y021628D02*
X026849Y021128D01*
X029850Y020128D02*
X030100Y019878D01*
X030600Y019878D01*
X030850Y020128D01*
X031032Y019720D02*
X031473Y019427D01*
X031473Y019260D02*
X031326Y019113D01*
X031326Y019186D02*
X031326Y018966D01*
X031473Y018966D02*
X031032Y018966D01*
X031032Y019186D01*
X031106Y019260D01*
X031253Y019260D01*
X031326Y019186D01*
X031032Y019427D02*
X031473Y019720D01*
X031850Y020128D02*
X031850Y020628D01*
X031849Y021128D02*
X031849Y021628D01*
X032282Y019720D02*
X032722Y019427D01*
X032722Y019113D02*
X032282Y019113D01*
X032282Y018966D02*
X032282Y019260D01*
X032282Y019427D02*
X032722Y019720D01*
X032160Y013848D02*
X033660Y013848D01*
X033910Y013598D01*
X033910Y013098D01*
X033660Y012848D01*
X032160Y012848D01*
X031910Y012598D01*
X031910Y012098D01*
X032160Y011848D01*
X031910Y011598D01*
X031910Y011098D01*
X032160Y010848D01*
X033660Y010848D01*
X033910Y011098D01*
X033910Y011598D01*
X033660Y011848D01*
X032160Y011848D01*
X032160Y012848D02*
X031910Y013098D01*
X031910Y013598D01*
X032160Y013848D01*
X033660Y012848D02*
X033910Y012598D01*
X033910Y012098D01*
X033660Y011848D01*
X006974Y013813D02*
X006974Y016113D01*
X006972Y016164D01*
X006967Y016215D01*
X006957Y016265D01*
X006944Y016315D01*
X006928Y016363D01*
X006908Y016410D01*
X006884Y016456D01*
X006858Y016499D01*
X006828Y016541D01*
X006795Y016580D01*
X006760Y016617D01*
X006722Y016651D01*
X006681Y016682D01*
X006639Y016711D01*
X006594Y016736D01*
X006548Y016757D01*
X006500Y016776D01*
X006451Y016790D01*
X006401Y016801D01*
X006351Y016809D01*
X006300Y016813D01*
X006248Y016813D01*
X006197Y016809D01*
X006147Y016801D01*
X006097Y016790D01*
X006048Y016776D01*
X006000Y016757D01*
X005954Y016736D01*
X005909Y016711D01*
X005867Y016682D01*
X005826Y016651D01*
X005788Y016617D01*
X005753Y016580D01*
X005720Y016541D01*
X005690Y016499D01*
X005664Y016456D01*
X005640Y016410D01*
X005620Y016363D01*
X005604Y016315D01*
X005591Y016265D01*
X005581Y016215D01*
X005576Y016164D01*
X005574Y016113D01*
X005574Y013813D01*
X005576Y013762D01*
X005581Y013711D01*
X005591Y013661D01*
X005604Y013611D01*
X005620Y013563D01*
X005640Y013516D01*
X005664Y013470D01*
X005690Y013427D01*
X005720Y013385D01*
X005753Y013346D01*
X005788Y013309D01*
X005826Y013275D01*
X005867Y013244D01*
X005909Y013215D01*
X005954Y013190D01*
X006000Y013169D01*
X006048Y013150D01*
X006097Y013136D01*
X006147Y013125D01*
X006197Y013117D01*
X006248Y013113D01*
X006300Y013113D01*
X006351Y013117D01*
X006401Y013125D01*
X006451Y013136D01*
X006500Y013150D01*
X006548Y013169D01*
X006594Y013190D01*
X006639Y013215D01*
X006681Y013244D01*
X006722Y013275D01*
X006760Y013309D01*
X006795Y013346D01*
X006828Y013385D01*
X006858Y013427D01*
X006884Y013470D01*
X006908Y013516D01*
X006928Y013563D01*
X006944Y013611D01*
X006957Y013661D01*
X006967Y013711D01*
X006972Y013762D01*
X006974Y013813D01*
X006274Y014463D02*
X006274Y014713D01*
X005924Y014713D01*
X005924Y014863D02*
X005924Y015063D01*
X006624Y015063D01*
X006624Y014863D01*
X005924Y014863D01*
X005924Y015213D02*
X006274Y015213D01*
X006274Y015463D01*
X006274Y015213D02*
X006624Y015213D01*
X006624Y014713D02*
X006274Y014713D01*
D14*
X020541Y017893D02*
X020541Y018108D01*
X020612Y018180D01*
X020756Y018180D01*
X020827Y018108D01*
X020827Y017893D01*
X020971Y017893D02*
X020541Y017893D01*
X020541Y018353D02*
X020971Y018353D01*
X020827Y018496D01*
X020971Y018640D01*
X020541Y018640D01*
X020541Y018813D02*
X020684Y018957D01*
X020541Y019100D01*
X020971Y019100D01*
X020971Y018813D02*
X020541Y018813D01*
X021540Y018813D02*
X021684Y018957D01*
X021540Y019100D01*
X021971Y019100D01*
X021971Y018813D02*
X021540Y018813D01*
X021540Y018640D02*
X021971Y018640D01*
X021827Y018496D01*
X021971Y018353D01*
X021540Y018353D01*
X021612Y018180D02*
X021755Y018180D01*
X021827Y018108D01*
X021827Y017893D01*
X021971Y017893D02*
X021540Y017893D01*
X021540Y018108D01*
X021612Y018180D01*
X022540Y018108D02*
X022540Y017893D01*
X022970Y017893D01*
X022827Y017893D02*
X022827Y018108D01*
X022755Y018180D01*
X022612Y018180D01*
X022540Y018108D01*
X022540Y018353D02*
X022970Y018353D01*
X022827Y018496D01*
X022970Y018640D01*
X022540Y018640D01*
X022540Y018813D02*
X022683Y018957D01*
X022540Y019100D01*
X022970Y019100D01*
X022970Y018813D02*
X022540Y018813D01*
X026039Y018813D02*
X026182Y018957D01*
X026039Y019100D01*
X026469Y019100D01*
X026469Y018813D02*
X026039Y018813D01*
X026039Y018640D02*
X026469Y018640D01*
X026326Y018496D01*
X026469Y018353D01*
X026039Y018353D01*
X026111Y018180D02*
X026254Y018180D01*
X026326Y018108D01*
X026326Y017893D01*
X026469Y017893D02*
X026039Y017893D01*
X026039Y018108D01*
X026111Y018180D01*
X027038Y018108D02*
X027038Y017893D01*
X027469Y017893D01*
X027325Y017893D02*
X027325Y018108D01*
X027254Y018180D01*
X027110Y018180D01*
X027038Y018108D01*
X027038Y018353D02*
X027469Y018353D01*
X027325Y018496D01*
X027469Y018640D01*
X027038Y018640D01*
X027038Y018813D02*
X027182Y018957D01*
X027038Y019100D01*
X027469Y019100D01*
X027469Y018813D02*
X027038Y018813D01*
X029038Y018813D02*
X029181Y018957D01*
X029038Y019100D01*
X029468Y019100D01*
X029468Y018813D02*
X029038Y018813D01*
X029038Y018640D02*
X029468Y018640D01*
X029325Y018496D01*
X029468Y018353D01*
X029038Y018353D01*
X029110Y018180D02*
X029253Y018180D01*
X029325Y018108D01*
X029325Y017893D01*
X029468Y017893D02*
X029038Y017893D01*
X029038Y018108D01*
X029110Y018180D01*
D15*
X013659Y002027D02*
X013647Y002064D01*
X013648Y002064D02*
X013712Y002087D01*
X013776Y002114D01*
X013837Y002144D01*
X013897Y002177D01*
X013955Y002214D01*
X014011Y002255D01*
X014064Y002298D01*
X014115Y002345D01*
X014163Y002394D01*
X014208Y002446D01*
X014250Y002500D01*
X014289Y002557D01*
X014324Y002615D01*
X014356Y002676D01*
X014385Y002739D01*
X014410Y002803D01*
X014431Y002868D01*
X014449Y002935D01*
X014462Y003002D01*
X014472Y003070D01*
X014478Y003138D01*
X014480Y003207D01*
X014478Y003276D01*
X014472Y003344D01*
X014462Y003412D01*
X014449Y003479D01*
X014431Y003546D01*
X014410Y003611D01*
X014385Y003675D01*
X014356Y003738D01*
X014324Y003799D01*
X014289Y003857D01*
X014250Y003914D01*
X014208Y003968D01*
X014163Y004020D01*
X014115Y004069D01*
X014064Y004116D01*
X014011Y004159D01*
X013955Y004200D01*
X013897Y004237D01*
X013837Y004270D01*
X013776Y004300D01*
X013712Y004327D01*
X013648Y004350D01*
X013659Y004387D01*
X013660Y004387D01*
X013725Y004364D01*
X013789Y004337D01*
X013851Y004307D01*
X013912Y004273D01*
X013971Y004236D01*
X014027Y004196D01*
X014081Y004153D01*
X014133Y004106D01*
X014182Y004057D01*
X014228Y004005D01*
X014271Y003951D01*
X014311Y003894D01*
X014348Y003835D01*
X014381Y003775D01*
X014411Y003712D01*
X014438Y003648D01*
X014461Y003583D01*
X014480Y003516D01*
X014495Y003448D01*
X014507Y003380D01*
X014515Y003311D01*
X014519Y003242D01*
X014519Y003172D01*
X014515Y003103D01*
X014507Y003034D01*
X014495Y002966D01*
X014480Y002898D01*
X014461Y002831D01*
X014438Y002766D01*
X014411Y002702D01*
X014381Y002639D01*
X014348Y002579D01*
X014311Y002520D01*
X014271Y002463D01*
X014228Y002409D01*
X014182Y002357D01*
X014133Y002308D01*
X014081Y002261D01*
X014027Y002218D01*
X013971Y002178D01*
X013912Y002141D01*
X013851Y002107D01*
X013789Y002077D01*
X013725Y002050D01*
X013660Y002027D01*
X013659Y002028D01*
X013725Y002051D01*
X013789Y002078D01*
X013851Y002108D01*
X013911Y002142D01*
X013970Y002179D01*
X014026Y002219D01*
X014081Y002262D01*
X014132Y002309D01*
X014181Y002358D01*
X014227Y002409D01*
X014270Y002464D01*
X014310Y002520D01*
X014347Y002579D01*
X014381Y002640D01*
X014411Y002702D01*
X014437Y002766D01*
X014460Y002832D01*
X014479Y002898D01*
X014494Y002966D01*
X014506Y003034D01*
X014514Y003103D01*
X014518Y003172D01*
X014518Y003242D01*
X014514Y003311D01*
X014506Y003380D01*
X014494Y003448D01*
X014479Y003516D01*
X014460Y003582D01*
X014437Y003648D01*
X014411Y003712D01*
X014381Y003774D01*
X014347Y003835D01*
X014310Y003894D01*
X014270Y003950D01*
X014227Y004005D01*
X014181Y004056D01*
X014132Y004105D01*
X014081Y004152D01*
X014026Y004195D01*
X013970Y004235D01*
X013911Y004272D01*
X013851Y004306D01*
X013789Y004336D01*
X013725Y004363D01*
X013659Y004386D01*
X013659Y004385D01*
X013724Y004362D01*
X013788Y004335D01*
X013850Y004305D01*
X013911Y004272D01*
X013970Y004235D01*
X014026Y004194D01*
X014080Y004151D01*
X014131Y004105D01*
X014180Y004056D01*
X014226Y004004D01*
X014269Y003950D01*
X014309Y003893D01*
X014346Y003834D01*
X014380Y003774D01*
X014410Y003711D01*
X014436Y003647D01*
X014459Y003582D01*
X014478Y003515D01*
X014493Y003448D01*
X014505Y003380D01*
X014513Y003311D01*
X014517Y003242D01*
X014517Y003172D01*
X014513Y003103D01*
X014505Y003034D01*
X014493Y002966D01*
X014478Y002899D01*
X014459Y002832D01*
X014436Y002767D01*
X014410Y002703D01*
X014380Y002640D01*
X014346Y002580D01*
X014309Y002521D01*
X014269Y002464D01*
X014226Y002410D01*
X014180Y002358D01*
X014131Y002309D01*
X014080Y002263D01*
X014026Y002220D01*
X013970Y002179D01*
X013911Y002142D01*
X013850Y002109D01*
X013788Y002079D01*
X013724Y002052D01*
X013659Y002029D01*
X013659Y002030D01*
X013724Y002053D01*
X013788Y002079D01*
X013850Y002110D01*
X013910Y002143D01*
X013969Y002180D01*
X014025Y002220D01*
X014079Y002264D01*
X014131Y002310D01*
X014180Y002359D01*
X014226Y002411D01*
X014269Y002465D01*
X014309Y002521D01*
X014345Y002580D01*
X014379Y002641D01*
X014409Y002703D01*
X014435Y002767D01*
X014458Y002832D01*
X014477Y002899D01*
X014492Y002966D01*
X014504Y003035D01*
X014512Y003103D01*
X014516Y003172D01*
X014516Y003242D01*
X014512Y003311D01*
X014504Y003379D01*
X014492Y003448D01*
X014477Y003515D01*
X014458Y003582D01*
X014435Y003647D01*
X014409Y003711D01*
X014379Y003773D01*
X014345Y003834D01*
X014309Y003893D01*
X014269Y003949D01*
X014226Y004003D01*
X014180Y004055D01*
X014131Y004104D01*
X014079Y004150D01*
X014025Y004194D01*
X013969Y004234D01*
X013910Y004271D01*
X013850Y004304D01*
X013788Y004335D01*
X013724Y004361D01*
X013659Y004384D01*
X013658Y004383D01*
X013724Y004360D01*
X013787Y004334D01*
X013850Y004303D01*
X013910Y004270D01*
X013968Y004233D01*
X014025Y004193D01*
X014079Y004149D01*
X014130Y004103D01*
X014179Y004054D01*
X014225Y004003D01*
X014268Y003949D01*
X014308Y003892D01*
X014344Y003833D01*
X014378Y003773D01*
X014408Y003711D01*
X014434Y003647D01*
X014457Y003581D01*
X014476Y003515D01*
X014491Y003447D01*
X014503Y003379D01*
X014511Y003311D01*
X014515Y003242D01*
X014515Y003172D01*
X014511Y003103D01*
X014503Y003035D01*
X014491Y002967D01*
X014476Y002899D01*
X014457Y002833D01*
X014434Y002767D01*
X014408Y002703D01*
X014378Y002641D01*
X014344Y002581D01*
X014308Y002522D01*
X014268Y002465D01*
X014225Y002411D01*
X014179Y002360D01*
X014130Y002311D01*
X014079Y002265D01*
X014025Y002221D01*
X013968Y002181D01*
X013910Y002144D01*
X013850Y002111D01*
X013787Y002080D01*
X013724Y002054D01*
X013658Y002031D01*
X013658Y002032D01*
X013723Y002055D01*
X013787Y002081D01*
X013849Y002111D01*
X013909Y002145D01*
X013968Y002182D01*
X014024Y002222D01*
X014078Y002265D01*
X014129Y002311D01*
X014178Y002360D01*
X014224Y002412D01*
X014267Y002466D01*
X014307Y002523D01*
X014344Y002581D01*
X014377Y002642D01*
X014407Y002704D01*
X014433Y002768D01*
X014456Y002833D01*
X014475Y002899D01*
X014490Y002967D01*
X014502Y003035D01*
X014510Y003103D01*
X014514Y003172D01*
X014514Y003242D01*
X014510Y003311D01*
X014502Y003379D01*
X014490Y003447D01*
X014475Y003515D01*
X014456Y003581D01*
X014433Y003646D01*
X014407Y003710D01*
X014377Y003772D01*
X014344Y003833D01*
X014307Y003891D01*
X014267Y003948D01*
X014224Y004002D01*
X014178Y004054D01*
X014129Y004103D01*
X014078Y004149D01*
X014024Y004192D01*
X013968Y004232D01*
X013909Y004269D01*
X013849Y004303D01*
X013787Y004333D01*
X013723Y004359D01*
X013658Y004382D01*
X013658Y004381D01*
X013723Y004358D01*
X013787Y004332D01*
X013849Y004302D01*
X013909Y004268D01*
X013967Y004231D01*
X014023Y004191D01*
X014077Y004148D01*
X014129Y004102D01*
X014177Y004053D01*
X014223Y004001D01*
X014266Y003947D01*
X014306Y003891D01*
X014343Y003832D01*
X014376Y003772D01*
X014406Y003710D01*
X014432Y003646D01*
X014455Y003581D01*
X014474Y003514D01*
X014489Y003447D01*
X014501Y003379D01*
X014509Y003310D01*
X014513Y003242D01*
X014513Y003172D01*
X014509Y003104D01*
X014501Y003035D01*
X014489Y002967D01*
X014474Y002900D01*
X014455Y002833D01*
X014432Y002768D01*
X014406Y002704D01*
X014376Y002642D01*
X014343Y002582D01*
X014306Y002523D01*
X014266Y002467D01*
X014223Y002413D01*
X014177Y002361D01*
X014129Y002312D01*
X014077Y002266D01*
X014023Y002223D01*
X013967Y002183D01*
X013909Y002146D01*
X013849Y002112D01*
X013787Y002082D01*
X013723Y002056D01*
X013658Y002033D01*
X013657Y002034D01*
X013722Y002057D01*
X013786Y002083D01*
X013848Y002113D01*
X013908Y002147D01*
X013967Y002184D01*
X014023Y002224D01*
X014077Y002267D01*
X014128Y002313D01*
X014177Y002362D01*
X014223Y002413D01*
X014265Y002467D01*
X014305Y002524D01*
X014342Y002582D01*
X014375Y002642D01*
X014405Y002705D01*
X014431Y002768D01*
X014454Y002834D01*
X014473Y002900D01*
X014488Y002967D01*
X014500Y003035D01*
X014508Y003104D01*
X014512Y003173D01*
X014512Y003241D01*
X014508Y003310D01*
X014500Y003379D01*
X014488Y003447D01*
X014473Y003514D01*
X014454Y003580D01*
X014431Y003646D01*
X014405Y003709D01*
X014375Y003772D01*
X014342Y003832D01*
X014305Y003890D01*
X014265Y003947D01*
X014223Y004001D01*
X014177Y004052D01*
X014128Y004101D01*
X014077Y004147D01*
X014023Y004190D01*
X013967Y004230D01*
X013908Y004267D01*
X013848Y004301D01*
X013786Y004331D01*
X013722Y004357D01*
X013657Y004380D01*
X013722Y004357D01*
X013786Y004330D01*
X013848Y004300D01*
X013908Y004266D01*
X013966Y004230D01*
X014022Y004190D01*
X014076Y004146D01*
X014127Y004100D01*
X014176Y004052D01*
X014222Y004000D01*
X014265Y003946D01*
X014304Y003890D01*
X014341Y003831D01*
X014374Y003771D01*
X014404Y003709D01*
X014430Y003645D01*
X014453Y003580D01*
X014472Y003514D01*
X014487Y003447D01*
X014499Y003379D01*
X014507Y003310D01*
X014511Y003241D01*
X014511Y003173D01*
X014507Y003104D01*
X014499Y003035D01*
X014487Y002967D01*
X014472Y002900D01*
X014453Y002834D01*
X014430Y002769D01*
X014404Y002705D01*
X014374Y002643D01*
X014341Y002583D01*
X014304Y002524D01*
X014265Y002468D01*
X014222Y002414D01*
X014176Y002362D01*
X014127Y002314D01*
X014076Y002268D01*
X014022Y002224D01*
X013966Y002184D01*
X013908Y002148D01*
X013848Y002114D01*
X013786Y002084D01*
X013722Y002057D01*
X013657Y002034D01*
X013657Y002035D01*
X013722Y002058D01*
X013785Y002085D01*
X013847Y002115D01*
X013907Y002148D01*
X013966Y002185D01*
X014022Y002225D01*
X014075Y002268D01*
X014127Y002314D01*
X014175Y002363D01*
X014221Y002415D01*
X014264Y002468D01*
X014304Y002525D01*
X014340Y002583D01*
X014373Y002643D01*
X014403Y002705D01*
X014429Y002769D01*
X014452Y002834D01*
X014471Y002900D01*
X014486Y002967D01*
X014498Y003035D01*
X014506Y003104D01*
X014510Y003173D01*
X014510Y003241D01*
X014506Y003310D01*
X014498Y003379D01*
X014486Y003447D01*
X014471Y003514D01*
X014452Y003580D01*
X014429Y003645D01*
X014403Y003709D01*
X014373Y003771D01*
X014340Y003831D01*
X014304Y003889D01*
X014264Y003946D01*
X014221Y003999D01*
X014175Y004051D01*
X014127Y004100D01*
X014075Y004146D01*
X014022Y004189D01*
X013966Y004229D01*
X013907Y004266D01*
X013847Y004299D01*
X013785Y004329D01*
X013722Y004356D01*
X013657Y004379D01*
X013657Y004378D01*
X013721Y004355D01*
X013785Y004328D01*
X013847Y004298D01*
X013907Y004265D01*
X013965Y004228D01*
X014021Y004188D01*
X014075Y004145D01*
X014126Y004099D01*
X014175Y004050D01*
X014220Y003999D01*
X014263Y003945D01*
X014303Y003889D01*
X014339Y003830D01*
X014373Y003770D01*
X014402Y003708D01*
X014429Y003645D01*
X014451Y003580D01*
X014470Y003513D01*
X014485Y003446D01*
X014497Y003378D01*
X014505Y003310D01*
X014509Y003241D01*
X014509Y003173D01*
X014505Y003104D01*
X014497Y003036D01*
X014485Y002968D01*
X014470Y002901D01*
X014451Y002834D01*
X014429Y002769D01*
X014402Y002706D01*
X014373Y002644D01*
X014339Y002584D01*
X014303Y002525D01*
X014263Y002469D01*
X014220Y002415D01*
X014175Y002364D01*
X014126Y002315D01*
X014075Y002269D01*
X014021Y002226D01*
X013965Y002186D01*
X013907Y002149D01*
X013847Y002116D01*
X013785Y002086D01*
X013721Y002059D01*
X013657Y002036D01*
X013656Y002037D01*
X013721Y002060D01*
X013784Y002087D01*
X013846Y002117D01*
X013906Y002150D01*
X013964Y002187D01*
X014020Y002227D01*
X014074Y002270D01*
X014125Y002316D01*
X014174Y002365D01*
X014219Y002416D01*
X014262Y002470D01*
X014302Y002526D01*
X014338Y002584D01*
X014372Y002644D01*
X014401Y002706D01*
X014428Y002770D01*
X014450Y002835D01*
X014469Y002901D01*
X014485Y002968D01*
X014496Y003036D01*
X014504Y003104D01*
X014508Y003173D01*
X014508Y003241D01*
X014504Y003310D01*
X014496Y003378D01*
X014485Y003446D01*
X014469Y003513D01*
X014450Y003579D01*
X014428Y003644D01*
X014401Y003708D01*
X014372Y003770D01*
X014338Y003830D01*
X014302Y003888D01*
X014262Y003944D01*
X014219Y003998D01*
X014174Y004049D01*
X014125Y004098D01*
X014074Y004144D01*
X014020Y004187D01*
X013964Y004227D01*
X013906Y004264D01*
X013846Y004297D01*
X013784Y004327D01*
X013721Y004354D01*
X013656Y004377D01*
X013656Y004376D01*
X013721Y004353D01*
X013784Y004326D01*
X013846Y004296D01*
X013906Y004263D01*
X013964Y004226D01*
X014020Y004186D01*
X014073Y004143D01*
X014125Y004097D01*
X014173Y004049D01*
X014219Y003997D01*
X014261Y003944D01*
X014301Y003888D01*
X014338Y003829D01*
X014371Y003769D01*
X014400Y003707D01*
X014427Y003644D01*
X014449Y003579D01*
X014468Y003513D01*
X014484Y003446D01*
X014495Y003378D01*
X014503Y003310D01*
X014507Y003241D01*
X014507Y003173D01*
X014503Y003104D01*
X014495Y003036D01*
X014484Y002968D01*
X014468Y002901D01*
X014449Y002835D01*
X014427Y002770D01*
X014400Y002707D01*
X014371Y002645D01*
X014338Y002585D01*
X014301Y002526D01*
X014261Y002470D01*
X014219Y002417D01*
X014173Y002365D01*
X014125Y002317D01*
X014073Y002271D01*
X014020Y002228D01*
X013964Y002188D01*
X013906Y002151D01*
X013846Y002118D01*
X013784Y002088D01*
X013721Y002061D01*
X013656Y002038D01*
X013656Y002039D01*
X013720Y002062D01*
X013784Y002089D01*
X013845Y002119D01*
X013905Y002152D01*
X013963Y002189D01*
X014019Y002228D01*
X014073Y002271D01*
X014124Y002317D01*
X014172Y002366D01*
X014218Y002417D01*
X014261Y002471D01*
X014300Y002527D01*
X014337Y002585D01*
X014370Y002645D01*
X014400Y002707D01*
X014426Y002771D01*
X014448Y002835D01*
X014467Y002901D01*
X014483Y002968D01*
X014494Y003036D01*
X014502Y003104D01*
X014506Y003173D01*
X014506Y003241D01*
X014502Y003310D01*
X014494Y003378D01*
X014483Y003446D01*
X014467Y003513D01*
X014448Y003579D01*
X014426Y003643D01*
X014400Y003707D01*
X014370Y003769D01*
X014337Y003829D01*
X014300Y003887D01*
X014261Y003943D01*
X014218Y003997D01*
X014172Y004048D01*
X014124Y004097D01*
X014073Y004143D01*
X014019Y004186D01*
X013963Y004225D01*
X013905Y004262D01*
X013845Y004295D01*
X013784Y004325D01*
X013720Y004352D01*
X013656Y004375D01*
X013655Y004374D01*
X013720Y004351D01*
X013783Y004325D01*
X013845Y004295D01*
X013905Y004261D01*
X013963Y004225D01*
X014019Y004185D01*
X014072Y004142D01*
X014123Y004096D01*
X014172Y004047D01*
X014217Y003996D01*
X014260Y003943D01*
X014299Y003887D01*
X014336Y003828D01*
X014369Y003768D01*
X014399Y003706D01*
X014425Y003643D01*
X014447Y003578D01*
X014466Y003512D01*
X014482Y003446D01*
X014493Y003378D01*
X014501Y003310D01*
X014505Y003241D01*
X014505Y003173D01*
X014501Y003104D01*
X014493Y003036D01*
X014482Y002968D01*
X014466Y002902D01*
X014447Y002836D01*
X014425Y002771D01*
X014399Y002708D01*
X014369Y002646D01*
X014336Y002586D01*
X014299Y002527D01*
X014260Y002471D01*
X014217Y002418D01*
X014172Y002367D01*
X014123Y002318D01*
X014072Y002272D01*
X014019Y002229D01*
X013963Y002189D01*
X013905Y002153D01*
X013845Y002119D01*
X013783Y002089D01*
X013720Y002063D01*
X013655Y002040D01*
X013655Y002041D01*
X013720Y002064D01*
X013783Y002090D01*
X013844Y002120D01*
X013904Y002154D01*
X013962Y002190D01*
X014018Y002230D01*
X014072Y002273D01*
X014123Y002319D01*
X014171Y002367D01*
X014216Y002418D01*
X014259Y002472D01*
X014299Y002528D01*
X014335Y002586D01*
X014368Y002646D01*
X014398Y002708D01*
X014424Y002771D01*
X014446Y002836D01*
X014465Y002902D01*
X014481Y002969D01*
X014492Y003036D01*
X014500Y003104D01*
X014504Y003173D01*
X014504Y003241D01*
X014500Y003310D01*
X014492Y003378D01*
X014481Y003445D01*
X014465Y003512D01*
X014446Y003578D01*
X014424Y003643D01*
X014398Y003706D01*
X014368Y003768D01*
X014335Y003828D01*
X014299Y003886D01*
X014259Y003942D01*
X014216Y003996D01*
X014171Y004047D01*
X014123Y004095D01*
X014072Y004141D01*
X014018Y004184D01*
X013962Y004224D01*
X013904Y004260D01*
X013844Y004294D01*
X013783Y004324D01*
X013720Y004350D01*
X013655Y004373D01*
X013655Y004372D01*
X013719Y004349D01*
X013782Y004323D01*
X013844Y004293D01*
X013904Y004260D01*
X013962Y004223D01*
X014017Y004183D01*
X014071Y004140D01*
X014122Y004095D01*
X014170Y004046D01*
X014216Y003995D01*
X014258Y003941D01*
X014298Y003885D01*
X014334Y003827D01*
X014367Y003767D01*
X014397Y003706D01*
X014423Y003642D01*
X014446Y003578D01*
X014464Y003512D01*
X014480Y003445D01*
X014491Y003378D01*
X014499Y003310D01*
X014503Y003241D01*
X014503Y003173D01*
X014499Y003104D01*
X014491Y003036D01*
X014480Y002969D01*
X014464Y002902D01*
X014446Y002836D01*
X014423Y002772D01*
X014397Y002708D01*
X014367Y002647D01*
X014334Y002587D01*
X014298Y002529D01*
X014258Y002473D01*
X014216Y002419D01*
X014170Y002368D01*
X014122Y002319D01*
X014071Y002274D01*
X014017Y002231D01*
X013962Y002191D01*
X013904Y002154D01*
X013844Y002121D01*
X013782Y002091D01*
X013719Y002065D01*
X013655Y002042D01*
X013654Y002043D01*
X013719Y002066D01*
X013782Y002092D01*
X013844Y002122D01*
X013903Y002155D01*
X013961Y002192D01*
X014017Y002232D01*
X014070Y002274D01*
X014121Y002320D01*
X014169Y002369D01*
X014215Y002420D01*
X014257Y002473D01*
X014297Y002529D01*
X014333Y002587D01*
X014366Y002647D01*
X014396Y002709D01*
X014422Y002772D01*
X014445Y002837D01*
X014463Y002902D01*
X014479Y002969D01*
X014490Y003036D01*
X014498Y003104D01*
X014502Y003173D01*
X014502Y003241D01*
X014498Y003310D01*
X014490Y003378D01*
X014479Y003445D01*
X014463Y003512D01*
X014445Y003577D01*
X014422Y003642D01*
X014396Y003705D01*
X014366Y003767D01*
X014333Y003827D01*
X014297Y003885D01*
X014257Y003941D01*
X014215Y003994D01*
X014169Y004045D01*
X014121Y004094D01*
X014070Y004140D01*
X014017Y004182D01*
X013961Y004222D01*
X013903Y004259D01*
X013844Y004292D01*
X013782Y004322D01*
X013719Y004348D01*
X013654Y004371D01*
X013654Y004370D01*
X013719Y004347D01*
X013782Y004321D01*
X013843Y004291D01*
X013903Y004258D01*
X013961Y004221D01*
X014016Y004182D01*
X014070Y004139D01*
X014120Y004093D01*
X014169Y004045D01*
X014214Y003994D01*
X014257Y003940D01*
X014296Y003884D01*
X014332Y003826D01*
X014365Y003766D01*
X014395Y003705D01*
X014421Y003642D01*
X014444Y003577D01*
X014462Y003511D01*
X014478Y003445D01*
X014489Y003377D01*
X014497Y003309D01*
X014501Y003241D01*
X014501Y003173D01*
X014497Y003105D01*
X014489Y003037D01*
X014478Y002969D01*
X014462Y002903D01*
X014444Y002837D01*
X014421Y002772D01*
X014395Y002709D01*
X014365Y002648D01*
X014332Y002588D01*
X014296Y002530D01*
X014257Y002474D01*
X014214Y002420D01*
X014169Y002369D01*
X014120Y002321D01*
X014070Y002275D01*
X014016Y002232D01*
X013961Y002193D01*
X013903Y002156D01*
X013843Y002123D01*
X013782Y002093D01*
X013719Y002067D01*
X013654Y002044D01*
X013654Y002045D01*
X013718Y002068D01*
X013781Y002094D01*
X013843Y002124D01*
X013902Y002157D01*
X013960Y002194D01*
X014016Y002233D01*
X014069Y002276D01*
X014120Y002322D01*
X014168Y002370D01*
X014213Y002421D01*
X014256Y002474D01*
X014295Y002530D01*
X014332Y002588D01*
X014365Y002648D01*
X014394Y002710D01*
X014420Y002773D01*
X014443Y002837D01*
X014462Y002903D01*
X014477Y002969D01*
X014488Y003037D01*
X014496Y003105D01*
X014500Y003173D01*
X014500Y003241D01*
X014496Y003309D01*
X014488Y003377D01*
X014477Y003445D01*
X014462Y003511D01*
X014443Y003577D01*
X014420Y003641D01*
X014394Y003704D01*
X014365Y003766D01*
X014332Y003826D01*
X014295Y003884D01*
X014256Y003940D01*
X014213Y003993D01*
X014168Y004044D01*
X014120Y004092D01*
X014069Y004138D01*
X014016Y004181D01*
X013960Y004220D01*
X013902Y004257D01*
X013843Y004290D01*
X013781Y004320D01*
X013718Y004346D01*
X013654Y004369D01*
X013653Y004368D01*
X013718Y004345D01*
X013781Y004319D01*
X013842Y004289D01*
X013902Y004256D01*
X013959Y004220D01*
X014015Y004180D01*
X014068Y004137D01*
X014119Y004092D01*
X014167Y004043D01*
X014213Y003992D01*
X014255Y003939D01*
X014294Y003883D01*
X014331Y003825D01*
X014364Y003766D01*
X014393Y003704D01*
X014419Y003641D01*
X014442Y003577D01*
X014461Y003511D01*
X014476Y003444D01*
X014487Y003377D01*
X014495Y003309D01*
X014499Y003241D01*
X014499Y003173D01*
X014495Y003105D01*
X014487Y003037D01*
X014476Y002970D01*
X014461Y002903D01*
X014442Y002837D01*
X014419Y002773D01*
X014393Y002710D01*
X014364Y002648D01*
X014331Y002589D01*
X014294Y002531D01*
X014255Y002475D01*
X014213Y002422D01*
X014167Y002371D01*
X014119Y002322D01*
X014068Y002277D01*
X014015Y002234D01*
X013959Y002194D01*
X013902Y002158D01*
X013842Y002125D01*
X013781Y002095D01*
X013718Y002069D01*
X013653Y002046D01*
X013653Y002047D01*
X013717Y002070D01*
X013780Y002096D01*
X013842Y002126D01*
X013901Y002159D01*
X013959Y002195D01*
X014014Y002235D01*
X014068Y002277D01*
X014118Y002323D01*
X014167Y002371D01*
X014212Y002422D01*
X014254Y002476D01*
X014294Y002531D01*
X014330Y002589D01*
X014363Y002649D01*
X014392Y002710D01*
X014418Y002773D01*
X014441Y002838D01*
X014460Y002903D01*
X014475Y002970D01*
X014486Y003037D01*
X014494Y003105D01*
X014498Y003173D01*
X014498Y003241D01*
X014494Y003309D01*
X014486Y003377D01*
X014475Y003444D01*
X014460Y003511D01*
X014441Y003576D01*
X014418Y003641D01*
X014392Y003704D01*
X014363Y003765D01*
X014330Y003825D01*
X014294Y003883D01*
X014254Y003938D01*
X014212Y003992D01*
X014167Y004043D01*
X014118Y004091D01*
X014068Y004137D01*
X014014Y004179D01*
X013959Y004219D01*
X013901Y004255D01*
X013842Y004288D01*
X013780Y004318D01*
X013717Y004344D01*
X013653Y004367D01*
X013653Y004366D01*
X013717Y004343D01*
X013780Y004317D01*
X013841Y004287D01*
X013901Y004254D01*
X013958Y004218D01*
X014014Y004178D01*
X014067Y004136D01*
X014118Y004090D01*
X014166Y004042D01*
X014211Y003991D01*
X014253Y003938D01*
X014293Y003882D01*
X014329Y003824D01*
X014362Y003765D01*
X014391Y003703D01*
X014417Y003640D01*
X014440Y003576D01*
X014459Y003510D01*
X014474Y003444D01*
X014485Y003377D01*
X014493Y003309D01*
X014497Y003241D01*
X014497Y003173D01*
X014493Y003105D01*
X014485Y003037D01*
X014474Y002970D01*
X014459Y002904D01*
X014440Y002838D01*
X014417Y002774D01*
X014391Y002711D01*
X014362Y002649D01*
X014329Y002590D01*
X014293Y002532D01*
X014253Y002476D01*
X014211Y002423D01*
X014166Y002372D01*
X014118Y002324D01*
X014067Y002278D01*
X014014Y002236D01*
X013958Y002196D01*
X013901Y002160D01*
X013841Y002127D01*
X013780Y002097D01*
X013717Y002071D01*
X013653Y002048D01*
X013653Y002049D01*
X013717Y002071D01*
X013780Y002098D01*
X013841Y002127D01*
X013900Y002161D01*
X013958Y002197D01*
X014013Y002236D01*
X014066Y002279D01*
X014117Y002324D01*
X014165Y002373D01*
X014210Y002424D01*
X014253Y002477D01*
X014292Y002532D01*
X014328Y002590D01*
X014361Y002650D01*
X014390Y002711D01*
X014416Y002774D01*
X014439Y002838D01*
X014458Y002904D01*
X014473Y002970D01*
X014484Y003037D01*
X014492Y003105D01*
X014496Y003173D01*
X014496Y003241D01*
X014492Y003309D01*
X014484Y003377D01*
X014473Y003444D01*
X014458Y003510D01*
X014439Y003576D01*
X014416Y003640D01*
X014390Y003703D01*
X014361Y003764D01*
X014328Y003824D01*
X014292Y003882D01*
X014253Y003937D01*
X014210Y003990D01*
X014165Y004041D01*
X014117Y004090D01*
X014066Y004135D01*
X014013Y004178D01*
X013958Y004217D01*
X013900Y004253D01*
X013841Y004287D01*
X013780Y004316D01*
X013717Y004343D01*
X013653Y004365D01*
X013652Y004364D01*
X013716Y004342D01*
X013779Y004315D01*
X013840Y004286D01*
X013900Y004253D01*
X013957Y004216D01*
X014013Y004177D01*
X014066Y004134D01*
X014116Y004089D01*
X014164Y004041D01*
X014210Y003990D01*
X014252Y003937D01*
X014291Y003881D01*
X014327Y003823D01*
X014360Y003764D01*
X014390Y003702D01*
X014415Y003640D01*
X014438Y003575D01*
X014457Y003510D01*
X014472Y003444D01*
X014483Y003377D01*
X014491Y003309D01*
X014495Y003241D01*
X014495Y003173D01*
X014491Y003105D01*
X014483Y003037D01*
X014472Y002970D01*
X014457Y002904D01*
X014438Y002839D01*
X014415Y002774D01*
X014390Y002712D01*
X014360Y002650D01*
X014327Y002591D01*
X014291Y002533D01*
X014252Y002477D01*
X014210Y002424D01*
X014164Y002373D01*
X014116Y002325D01*
X014066Y002280D01*
X014013Y002237D01*
X013957Y002198D01*
X013900Y002161D01*
X013840Y002128D01*
X013779Y002099D01*
X013716Y002072D01*
X013652Y002050D01*
X013652Y002051D01*
X013716Y002073D01*
X013779Y002100D01*
X013840Y002129D01*
X013899Y002162D01*
X013957Y002199D01*
X014012Y002238D01*
X014065Y002281D01*
X014116Y002326D01*
X014164Y002374D01*
X014209Y002425D01*
X014251Y002478D01*
X014290Y002534D01*
X014326Y002591D01*
X014359Y002651D01*
X014389Y002712D01*
X014415Y002775D01*
X014437Y002839D01*
X014456Y002904D01*
X014471Y002971D01*
X014482Y003038D01*
X014490Y003105D01*
X014494Y003173D01*
X014494Y003241D01*
X014490Y003309D01*
X014482Y003376D01*
X014471Y003443D01*
X014456Y003510D01*
X014437Y003575D01*
X014415Y003639D01*
X014389Y003702D01*
X014359Y003763D01*
X014326Y003823D01*
X014290Y003880D01*
X014251Y003936D01*
X014209Y003989D01*
X014164Y004040D01*
X014116Y004088D01*
X014065Y004133D01*
X014012Y004176D01*
X013957Y004215D01*
X013899Y004252D01*
X013840Y004285D01*
X013779Y004314D01*
X013716Y004341D01*
X013652Y004363D01*
X013652Y004362D01*
X013716Y004340D01*
X013778Y004314D01*
X013839Y004284D01*
X013899Y004251D01*
X013956Y004215D01*
X014011Y004175D01*
X014064Y004133D01*
X014115Y004087D01*
X014163Y004039D01*
X014208Y003988D01*
X014250Y003935D01*
X014289Y003880D01*
X014326Y003822D01*
X014358Y003763D01*
X014388Y003702D01*
X014414Y003639D01*
X014436Y003575D01*
X014455Y003509D01*
X014470Y003443D01*
X014481Y003376D01*
X014489Y003309D01*
X014493Y003241D01*
X014493Y003173D01*
X014489Y003105D01*
X014481Y003038D01*
X014470Y002971D01*
X014455Y002905D01*
X014436Y002839D01*
X014414Y002775D01*
X014388Y002712D01*
X014358Y002651D01*
X014326Y002592D01*
X014289Y002534D01*
X014250Y002479D01*
X014208Y002426D01*
X014163Y002375D01*
X014115Y002327D01*
X014064Y002281D01*
X014011Y002239D01*
X013956Y002199D01*
X013899Y002163D01*
X013839Y002130D01*
X013778Y002100D01*
X013716Y002074D01*
X013652Y002052D01*
X013651Y002053D01*
X013715Y002075D01*
X013778Y002101D01*
X013839Y002131D01*
X013898Y002164D01*
X013956Y002200D01*
X014011Y002240D01*
X014064Y002282D01*
X014114Y002327D01*
X014162Y002375D01*
X014207Y002426D01*
X014249Y002479D01*
X014289Y002535D01*
X014325Y002592D01*
X014357Y002652D01*
X014387Y002713D01*
X014413Y002776D01*
X014435Y002840D01*
X014454Y002905D01*
X014469Y002971D01*
X014480Y003038D01*
X014488Y003105D01*
X014492Y003173D01*
X014492Y003241D01*
X014488Y003309D01*
X014480Y003376D01*
X014469Y003443D01*
X014454Y003509D01*
X014435Y003574D01*
X014413Y003638D01*
X014387Y003701D01*
X014357Y003762D01*
X014325Y003822D01*
X014289Y003879D01*
X014249Y003935D01*
X014207Y003988D01*
X014162Y004039D01*
X014114Y004087D01*
X014064Y004132D01*
X014011Y004174D01*
X013956Y004214D01*
X013898Y004250D01*
X013839Y004283D01*
X013778Y004313D01*
X013715Y004339D01*
X013651Y004361D01*
X013715Y004338D01*
X013777Y004312D01*
X013838Y004282D01*
X013898Y004249D01*
X013955Y004213D01*
X014010Y004174D01*
X014063Y004131D01*
X014114Y004086D01*
X014161Y004038D01*
X014206Y003987D01*
X014249Y003934D01*
X014288Y003879D01*
X014324Y003821D01*
X014357Y003762D01*
X014386Y003701D01*
X014412Y003638D01*
X014434Y003574D01*
X014453Y003509D01*
X014468Y003443D01*
X014479Y003376D01*
X014487Y003309D01*
X014491Y003241D01*
X014491Y003173D01*
X014487Y003105D01*
X014479Y003038D01*
X014468Y002971D01*
X014453Y002905D01*
X014434Y002840D01*
X014412Y002776D01*
X014386Y002713D01*
X014357Y002652D01*
X014324Y002593D01*
X014288Y002535D01*
X014249Y002480D01*
X014206Y002427D01*
X014161Y002376D01*
X014114Y002328D01*
X014063Y002283D01*
X014010Y002240D01*
X013955Y002201D01*
X013898Y002165D01*
X013838Y002132D01*
X013777Y002102D01*
X013715Y002076D01*
X013651Y002053D01*
X013651Y002054D01*
X013715Y002077D01*
X013777Y002103D01*
X013838Y002133D01*
X013897Y002166D01*
X013954Y002202D01*
X014010Y002241D01*
X014062Y002284D01*
X014113Y002329D01*
X014161Y002377D01*
X014206Y002427D01*
X014248Y002480D01*
X014287Y002536D01*
X014323Y002593D01*
X014356Y002653D01*
X014385Y002714D01*
X014411Y002776D01*
X014433Y002840D01*
X014452Y002905D01*
X014467Y002971D01*
X014478Y003038D01*
X014486Y003105D01*
X014490Y003173D01*
X014490Y003241D01*
X014486Y003309D01*
X014478Y003376D01*
X014467Y003443D01*
X014452Y003509D01*
X014433Y003574D01*
X014411Y003638D01*
X014385Y003700D01*
X014356Y003761D01*
X014323Y003821D01*
X014287Y003878D01*
X014248Y003934D01*
X014206Y003987D01*
X014161Y004037D01*
X014113Y004085D01*
X014062Y004130D01*
X014010Y004173D01*
X013954Y004212D01*
X013897Y004248D01*
X013838Y004281D01*
X013777Y004311D01*
X013715Y004337D01*
X013651Y004360D01*
X013650Y004359D01*
X013714Y004336D01*
X013777Y004310D01*
X013838Y004280D01*
X013897Y004247D01*
X013954Y004211D01*
X014009Y004172D01*
X014062Y004130D01*
X014112Y004084D01*
X014160Y004036D01*
X014205Y003986D01*
X014247Y003933D01*
X014286Y003878D01*
X014322Y003820D01*
X014355Y003761D01*
X014384Y003700D01*
X014410Y003637D01*
X014432Y003573D01*
X014451Y003508D01*
X014466Y003442D01*
X014477Y003376D01*
X014485Y003308D01*
X014489Y003241D01*
X014489Y003173D01*
X014485Y003106D01*
X014477Y003038D01*
X014466Y002972D01*
X014451Y002906D01*
X014432Y002841D01*
X014410Y002777D01*
X014384Y002714D01*
X014355Y002653D01*
X014322Y002594D01*
X014286Y002536D01*
X014247Y002481D01*
X014205Y002428D01*
X014160Y002378D01*
X014112Y002330D01*
X014062Y002284D01*
X014009Y002242D01*
X013954Y002203D01*
X013897Y002167D01*
X013838Y002134D01*
X013777Y002104D01*
X013714Y002078D01*
X013650Y002055D01*
X013650Y002056D01*
X013714Y002079D01*
X013776Y002105D01*
X013837Y002135D01*
X013896Y002167D01*
X013953Y002204D01*
X014008Y002243D01*
X014061Y002285D01*
X014112Y002330D01*
X014159Y002378D01*
X014204Y002429D01*
X014246Y002482D01*
X014285Y002537D01*
X014321Y002594D01*
X014354Y002653D01*
X014383Y002714D01*
X014409Y002777D01*
X014431Y002841D01*
X014450Y002906D01*
X014465Y002972D01*
X014476Y003038D01*
X014484Y003106D01*
X014488Y003173D01*
X014488Y003241D01*
X014484Y003308D01*
X014476Y003376D01*
X014465Y003442D01*
X014450Y003508D01*
X014431Y003573D01*
X014409Y003637D01*
X014383Y003700D01*
X014354Y003761D01*
X014321Y003820D01*
X014285Y003877D01*
X014246Y003932D01*
X014204Y003985D01*
X014159Y004036D01*
X014112Y004084D01*
X014061Y004129D01*
X014008Y004171D01*
X013953Y004210D01*
X013896Y004247D01*
X013837Y004279D01*
X013776Y004309D01*
X013714Y004335D01*
X013650Y004358D01*
X013650Y004357D01*
X013713Y004334D01*
X013776Y004308D01*
X013837Y004279D01*
X013896Y004246D01*
X013953Y004210D01*
X014008Y004170D01*
X014061Y004128D01*
X014111Y004083D01*
X014159Y004035D01*
X014203Y003985D01*
X014245Y003932D01*
X014284Y003877D01*
X014320Y003819D01*
X014353Y003760D01*
X014382Y003699D01*
X014408Y003637D01*
X014430Y003573D01*
X014449Y003508D01*
X014464Y003442D01*
X014475Y003375D01*
X014483Y003308D01*
X014487Y003241D01*
X014487Y003173D01*
X014483Y003106D01*
X014475Y003039D01*
X014464Y002972D01*
X014449Y002906D01*
X014430Y002841D01*
X014408Y002777D01*
X014382Y002715D01*
X014353Y002654D01*
X014320Y002595D01*
X014284Y002537D01*
X014245Y002482D01*
X014203Y002429D01*
X014159Y002379D01*
X014111Y002331D01*
X014061Y002286D01*
X014008Y002244D01*
X013953Y002204D01*
X013896Y002168D01*
X013837Y002135D01*
X013776Y002106D01*
X013713Y002080D01*
X013650Y002057D01*
X013649Y002058D01*
X013713Y002081D01*
X013775Y002107D01*
X013836Y002136D01*
X013895Y002169D01*
X013952Y002205D01*
X014007Y002244D01*
X014060Y002287D01*
X014110Y002332D01*
X014158Y002380D01*
X014203Y002430D01*
X014245Y002483D01*
X014284Y002538D01*
X014319Y002595D01*
X014352Y002654D01*
X014381Y002715D01*
X014407Y002778D01*
X014429Y002841D01*
X014448Y002906D01*
X014463Y002972D01*
X014474Y003039D01*
X014482Y003106D01*
X014486Y003173D01*
X014486Y003241D01*
X014482Y003308D01*
X014474Y003375D01*
X014463Y003442D01*
X014448Y003508D01*
X014429Y003573D01*
X014407Y003636D01*
X014381Y003699D01*
X014352Y003760D01*
X014319Y003819D01*
X014284Y003876D01*
X014245Y003931D01*
X014203Y003984D01*
X014158Y004034D01*
X014110Y004082D01*
X014060Y004127D01*
X014007Y004170D01*
X013952Y004209D01*
X013895Y004245D01*
X013836Y004278D01*
X013775Y004307D01*
X013713Y004333D01*
X013649Y004356D01*
X013649Y004355D01*
X013713Y004332D01*
X013775Y004306D01*
X013836Y004277D01*
X013895Y004244D01*
X013952Y004208D01*
X014007Y004169D01*
X014059Y004127D01*
X014109Y004082D01*
X014157Y004034D01*
X014202Y003983D01*
X014244Y003931D01*
X014283Y003875D01*
X014319Y003818D01*
X014351Y003759D01*
X014380Y003698D01*
X014406Y003636D01*
X014428Y003572D01*
X014447Y003507D01*
X014462Y003442D01*
X014473Y003375D01*
X014481Y003308D01*
X014485Y003241D01*
X014485Y003173D01*
X014481Y003106D01*
X014473Y003039D01*
X014462Y002972D01*
X014447Y002907D01*
X014428Y002842D01*
X014406Y002778D01*
X014380Y002716D01*
X014351Y002655D01*
X014319Y002596D01*
X014283Y002539D01*
X014244Y002483D01*
X014202Y002431D01*
X014157Y002380D01*
X014109Y002332D01*
X014059Y002287D01*
X014007Y002245D01*
X013952Y002206D01*
X013895Y002170D01*
X013836Y002137D01*
X013775Y002108D01*
X013713Y002082D01*
X013649Y002059D01*
X013649Y002060D01*
X013712Y002083D01*
X013775Y002109D01*
X013835Y002138D01*
X013894Y002171D01*
X013951Y002207D01*
X014006Y002246D01*
X014059Y002288D01*
X014109Y002333D01*
X014156Y002381D01*
X014201Y002431D01*
X014243Y002484D01*
X014282Y002539D01*
X014318Y002596D01*
X014350Y002655D01*
X014379Y002716D01*
X014405Y002778D01*
X014427Y002842D01*
X014446Y002907D01*
X014461Y002973D01*
X014472Y003039D01*
X014480Y003106D01*
X014484Y003173D01*
X014484Y003241D01*
X014480Y003308D01*
X014472Y003375D01*
X014461Y003441D01*
X014446Y003507D01*
X014427Y003572D01*
X014405Y003636D01*
X014379Y003698D01*
X014350Y003759D01*
X014318Y003818D01*
X014282Y003875D01*
X014243Y003930D01*
X014201Y003983D01*
X014156Y004033D01*
X014109Y004081D01*
X014059Y004126D01*
X014006Y004168D01*
X013951Y004207D01*
X013894Y004243D01*
X013835Y004276D01*
X013775Y004305D01*
X013712Y004331D01*
X013649Y004354D01*
X013649Y004353D01*
X013712Y004330D01*
X013774Y004304D01*
X013835Y004275D01*
X013894Y004242D01*
X013951Y004206D01*
X014005Y004167D01*
X014058Y004125D01*
X014108Y004080D01*
X014156Y004032D01*
X014200Y003982D01*
X014242Y003929D01*
X014281Y003874D01*
X014317Y003817D01*
X014349Y003758D01*
X014379Y003698D01*
X014404Y003635D01*
X014426Y003572D01*
X014445Y003507D01*
X014460Y003441D01*
X014471Y003375D01*
X014479Y003308D01*
X014483Y003241D01*
X014483Y003173D01*
X014479Y003106D01*
X014471Y003039D01*
X014460Y002973D01*
X014445Y002907D01*
X014426Y002842D01*
X014404Y002779D01*
X014379Y002716D01*
X014349Y002656D01*
X014317Y002597D01*
X014281Y002540D01*
X014242Y002485D01*
X014200Y002432D01*
X014156Y002382D01*
X014108Y002334D01*
X014058Y002289D01*
X014005Y002247D01*
X013951Y002208D01*
X013894Y002172D01*
X013835Y002139D01*
X013774Y002110D01*
X013712Y002084D01*
X013649Y002061D01*
X013648Y002062D01*
X013713Y002085D01*
X013777Y002112D01*
X013838Y002142D01*
X013898Y002176D01*
X013956Y002213D01*
X014012Y002253D01*
X014065Y002297D01*
X014116Y002343D01*
X014164Y002392D01*
X014209Y002444D01*
X014251Y002499D01*
X014290Y002556D01*
X014326Y002615D01*
X014358Y002675D01*
X014387Y002738D01*
X014412Y002802D01*
X014433Y002867D01*
X014451Y002934D01*
X014464Y003002D01*
X014474Y003070D01*
X014480Y003138D01*
X014482Y003207D01*
X014480Y003276D01*
X014474Y003344D01*
X014464Y003412D01*
X014451Y003480D01*
X014433Y003547D01*
X014412Y003612D01*
X014387Y003676D01*
X014358Y003739D01*
X014326Y003799D01*
X014290Y003858D01*
X014251Y003915D01*
X014209Y003970D01*
X014164Y004022D01*
X014116Y004071D01*
X014065Y004117D01*
X014012Y004161D01*
X013956Y004201D01*
X013898Y004238D01*
X013838Y004272D01*
X013777Y004302D01*
X013713Y004329D01*
X013648Y004352D01*
X013648Y004351D01*
X013713Y004328D01*
X013776Y004301D01*
X013838Y004271D01*
X013898Y004237D01*
X013956Y004200D01*
X014011Y004160D01*
X014065Y004117D01*
X014116Y004070D01*
X014164Y004021D01*
X014209Y003969D01*
X014251Y003915D01*
X014290Y003858D01*
X014325Y003799D01*
X014357Y003738D01*
X014386Y003676D01*
X014411Y003612D01*
X014432Y003546D01*
X014450Y003480D01*
X014463Y003412D01*
X014473Y003344D01*
X014479Y003276D01*
X014481Y003207D01*
X014479Y003138D01*
X014473Y003070D01*
X014463Y003002D01*
X014450Y002934D01*
X014432Y002868D01*
X014411Y002802D01*
X014386Y002738D01*
X014357Y002676D01*
X014325Y002615D01*
X014290Y002556D01*
X014251Y002499D01*
X014209Y002445D01*
X014164Y002393D01*
X014116Y002344D01*
X014065Y002297D01*
X014011Y002254D01*
X013956Y002214D01*
X013898Y002177D01*
X013838Y002143D01*
X013776Y002113D01*
X013713Y002086D01*
X013648Y002063D01*
X012899Y004387D02*
X012911Y004350D01*
X012910Y004350D02*
X012846Y004327D01*
X012782Y004300D01*
X012721Y004270D01*
X012661Y004237D01*
X012603Y004200D01*
X012547Y004159D01*
X012494Y004116D01*
X012443Y004069D01*
X012395Y004020D01*
X012350Y003968D01*
X012308Y003914D01*
X012269Y003857D01*
X012234Y003799D01*
X012202Y003738D01*
X012173Y003675D01*
X012148Y003611D01*
X012127Y003546D01*
X012109Y003479D01*
X012096Y003412D01*
X012086Y003344D01*
X012080Y003276D01*
X012078Y003207D01*
X012080Y003138D01*
X012086Y003070D01*
X012096Y003002D01*
X012109Y002935D01*
X012127Y002868D01*
X012148Y002803D01*
X012173Y002739D01*
X012202Y002676D01*
X012234Y002615D01*
X012269Y002557D01*
X012308Y002500D01*
X012350Y002446D01*
X012395Y002394D01*
X012443Y002345D01*
X012494Y002298D01*
X012547Y002255D01*
X012603Y002214D01*
X012661Y002177D01*
X012721Y002144D01*
X012782Y002114D01*
X012846Y002087D01*
X012910Y002064D01*
X012899Y002027D01*
X012898Y002027D01*
X012833Y002050D01*
X012769Y002077D01*
X012707Y002107D01*
X012646Y002141D01*
X012587Y002178D01*
X012531Y002218D01*
X012477Y002261D01*
X012425Y002308D01*
X012376Y002357D01*
X012330Y002409D01*
X012287Y002463D01*
X012247Y002520D01*
X012210Y002579D01*
X012177Y002639D01*
X012147Y002702D01*
X012120Y002766D01*
X012097Y002831D01*
X012078Y002898D01*
X012063Y002966D01*
X012051Y003034D01*
X012043Y003103D01*
X012039Y003172D01*
X012039Y003242D01*
X012043Y003311D01*
X012051Y003380D01*
X012063Y003448D01*
X012078Y003516D01*
X012097Y003583D01*
X012120Y003648D01*
X012147Y003712D01*
X012177Y003775D01*
X012210Y003835D01*
X012247Y003894D01*
X012287Y003951D01*
X012330Y004005D01*
X012376Y004057D01*
X012425Y004106D01*
X012477Y004153D01*
X012531Y004196D01*
X012587Y004236D01*
X012646Y004273D01*
X012707Y004307D01*
X012769Y004337D01*
X012833Y004364D01*
X012898Y004387D01*
X012899Y004386D01*
X012833Y004363D01*
X012769Y004336D01*
X012707Y004306D01*
X012647Y004272D01*
X012588Y004235D01*
X012532Y004195D01*
X012477Y004152D01*
X012426Y004105D01*
X012377Y004056D01*
X012331Y004005D01*
X012288Y003950D01*
X012248Y003894D01*
X012211Y003835D01*
X012177Y003774D01*
X012147Y003712D01*
X012121Y003648D01*
X012098Y003582D01*
X012079Y003516D01*
X012064Y003448D01*
X012052Y003380D01*
X012044Y003311D01*
X012040Y003242D01*
X012040Y003172D01*
X012044Y003103D01*
X012052Y003034D01*
X012064Y002966D01*
X012079Y002898D01*
X012098Y002832D01*
X012121Y002766D01*
X012147Y002702D01*
X012177Y002640D01*
X012211Y002579D01*
X012248Y002520D01*
X012288Y002464D01*
X012331Y002409D01*
X012377Y002358D01*
X012426Y002309D01*
X012477Y002262D01*
X012532Y002219D01*
X012588Y002179D01*
X012647Y002142D01*
X012707Y002108D01*
X012769Y002078D01*
X012833Y002051D01*
X012899Y002028D01*
X012899Y002029D01*
X012834Y002052D01*
X012770Y002079D01*
X012708Y002109D01*
X012647Y002142D01*
X012588Y002179D01*
X012532Y002220D01*
X012478Y002263D01*
X012427Y002309D01*
X012378Y002358D01*
X012332Y002410D01*
X012289Y002464D01*
X012249Y002521D01*
X012212Y002580D01*
X012178Y002640D01*
X012148Y002703D01*
X012122Y002767D01*
X012099Y002832D01*
X012080Y002899D01*
X012065Y002966D01*
X012053Y003034D01*
X012045Y003103D01*
X012041Y003172D01*
X012041Y003242D01*
X012045Y003311D01*
X012053Y003380D01*
X012065Y003448D01*
X012080Y003515D01*
X012099Y003582D01*
X012122Y003647D01*
X012148Y003711D01*
X012178Y003774D01*
X012212Y003834D01*
X012249Y003893D01*
X012289Y003950D01*
X012332Y004004D01*
X012378Y004056D01*
X012427Y004105D01*
X012478Y004151D01*
X012532Y004194D01*
X012588Y004235D01*
X012647Y004272D01*
X012708Y004305D01*
X012770Y004335D01*
X012834Y004362D01*
X012899Y004385D01*
X012899Y004384D01*
X012834Y004361D01*
X012770Y004335D01*
X012708Y004304D01*
X012648Y004271D01*
X012589Y004234D01*
X012533Y004194D01*
X012479Y004150D01*
X012427Y004104D01*
X012378Y004055D01*
X012332Y004003D01*
X012289Y003949D01*
X012249Y003893D01*
X012213Y003834D01*
X012179Y003773D01*
X012149Y003711D01*
X012123Y003647D01*
X012100Y003582D01*
X012081Y003515D01*
X012066Y003448D01*
X012054Y003379D01*
X012046Y003311D01*
X012042Y003242D01*
X012042Y003172D01*
X012046Y003103D01*
X012054Y003035D01*
X012066Y002966D01*
X012081Y002899D01*
X012100Y002832D01*
X012123Y002767D01*
X012149Y002703D01*
X012179Y002641D01*
X012213Y002580D01*
X012249Y002521D01*
X012289Y002465D01*
X012332Y002411D01*
X012378Y002359D01*
X012427Y002310D01*
X012479Y002264D01*
X012533Y002220D01*
X012589Y002180D01*
X012648Y002143D01*
X012708Y002110D01*
X012770Y002079D01*
X012834Y002053D01*
X012899Y002030D01*
X012900Y002031D01*
X012834Y002054D01*
X012771Y002080D01*
X012708Y002111D01*
X012648Y002144D01*
X012590Y002181D01*
X012533Y002221D01*
X012479Y002265D01*
X012428Y002311D01*
X012379Y002360D01*
X012333Y002411D01*
X012290Y002465D01*
X012250Y002522D01*
X012214Y002581D01*
X012180Y002641D01*
X012150Y002703D01*
X012124Y002767D01*
X012101Y002833D01*
X012082Y002899D01*
X012067Y002967D01*
X012055Y003035D01*
X012047Y003103D01*
X012043Y003172D01*
X012043Y003242D01*
X012047Y003311D01*
X012055Y003379D01*
X012067Y003447D01*
X012082Y003515D01*
X012101Y003581D01*
X012124Y003647D01*
X012150Y003711D01*
X012180Y003773D01*
X012214Y003833D01*
X012250Y003892D01*
X012290Y003949D01*
X012333Y004003D01*
X012379Y004054D01*
X012428Y004103D01*
X012479Y004149D01*
X012533Y004193D01*
X012590Y004233D01*
X012648Y004270D01*
X012708Y004303D01*
X012771Y004334D01*
X012834Y004360D01*
X012900Y004383D01*
X012900Y004382D01*
X012835Y004359D01*
X012771Y004333D01*
X012709Y004303D01*
X012649Y004269D01*
X012590Y004232D01*
X012534Y004192D01*
X012480Y004149D01*
X012429Y004103D01*
X012380Y004054D01*
X012334Y004002D01*
X012291Y003948D01*
X012251Y003891D01*
X012214Y003833D01*
X012181Y003772D01*
X012151Y003710D01*
X012125Y003646D01*
X012102Y003581D01*
X012083Y003515D01*
X012068Y003447D01*
X012056Y003379D01*
X012048Y003311D01*
X012044Y003242D01*
X012044Y003172D01*
X012048Y003103D01*
X012056Y003035D01*
X012068Y002967D01*
X012083Y002899D01*
X012102Y002833D01*
X012125Y002768D01*
X012151Y002704D01*
X012181Y002642D01*
X012214Y002581D01*
X012251Y002523D01*
X012291Y002466D01*
X012334Y002412D01*
X012380Y002360D01*
X012429Y002311D01*
X012480Y002265D01*
X012534Y002222D01*
X012590Y002182D01*
X012649Y002145D01*
X012709Y002111D01*
X012771Y002081D01*
X012835Y002055D01*
X012900Y002032D01*
X012900Y002033D01*
X012835Y002056D01*
X012771Y002082D01*
X012709Y002112D01*
X012649Y002146D01*
X012591Y002183D01*
X012535Y002223D01*
X012481Y002266D01*
X012429Y002312D01*
X012381Y002361D01*
X012335Y002413D01*
X012292Y002467D01*
X012252Y002523D01*
X012215Y002582D01*
X012182Y002642D01*
X012152Y002704D01*
X012126Y002768D01*
X012103Y002833D01*
X012084Y002900D01*
X012069Y002967D01*
X012057Y003035D01*
X012049Y003104D01*
X012045Y003172D01*
X012045Y003242D01*
X012049Y003310D01*
X012057Y003379D01*
X012069Y003447D01*
X012084Y003514D01*
X012103Y003581D01*
X012126Y003646D01*
X012152Y003710D01*
X012182Y003772D01*
X012215Y003832D01*
X012252Y003891D01*
X012292Y003947D01*
X012335Y004001D01*
X012381Y004053D01*
X012429Y004102D01*
X012481Y004148D01*
X012535Y004191D01*
X012591Y004231D01*
X012649Y004268D01*
X012709Y004302D01*
X012771Y004332D01*
X012835Y004358D01*
X012900Y004381D01*
X012901Y004380D01*
X012836Y004357D01*
X012772Y004331D01*
X012710Y004301D01*
X012650Y004267D01*
X012591Y004230D01*
X012535Y004190D01*
X012481Y004147D01*
X012430Y004101D01*
X012381Y004052D01*
X012335Y004001D01*
X012293Y003947D01*
X012253Y003890D01*
X012216Y003832D01*
X012183Y003772D01*
X012153Y003709D01*
X012127Y003646D01*
X012104Y003580D01*
X012085Y003514D01*
X012070Y003447D01*
X012058Y003379D01*
X012050Y003310D01*
X012046Y003241D01*
X012046Y003173D01*
X012050Y003104D01*
X012058Y003035D01*
X012070Y002967D01*
X012085Y002900D01*
X012104Y002834D01*
X012127Y002768D01*
X012153Y002705D01*
X012183Y002642D01*
X012216Y002582D01*
X012253Y002524D01*
X012293Y002467D01*
X012335Y002413D01*
X012381Y002362D01*
X012430Y002313D01*
X012481Y002267D01*
X012535Y002224D01*
X012591Y002184D01*
X012650Y002147D01*
X012710Y002113D01*
X012772Y002083D01*
X012836Y002057D01*
X012901Y002034D01*
X012836Y002057D01*
X012772Y002084D01*
X012710Y002114D01*
X012650Y002148D01*
X012592Y002184D01*
X012536Y002224D01*
X012482Y002268D01*
X012431Y002314D01*
X012382Y002362D01*
X012336Y002414D01*
X012293Y002468D01*
X012254Y002524D01*
X012217Y002583D01*
X012184Y002643D01*
X012154Y002705D01*
X012128Y002769D01*
X012105Y002834D01*
X012086Y002900D01*
X012071Y002967D01*
X012059Y003035D01*
X012051Y003104D01*
X012047Y003173D01*
X012047Y003241D01*
X012051Y003310D01*
X012059Y003379D01*
X012071Y003447D01*
X012086Y003514D01*
X012105Y003580D01*
X012128Y003645D01*
X012154Y003709D01*
X012184Y003771D01*
X012217Y003831D01*
X012254Y003890D01*
X012293Y003946D01*
X012336Y004000D01*
X012382Y004052D01*
X012431Y004100D01*
X012482Y004146D01*
X012536Y004190D01*
X012592Y004230D01*
X012650Y004266D01*
X012710Y004300D01*
X012772Y004330D01*
X012836Y004357D01*
X012901Y004380D01*
X012901Y004379D01*
X012836Y004356D01*
X012773Y004329D01*
X012711Y004299D01*
X012651Y004266D01*
X012592Y004229D01*
X012536Y004189D01*
X012483Y004146D01*
X012431Y004100D01*
X012383Y004051D01*
X012337Y003999D01*
X012294Y003946D01*
X012254Y003889D01*
X012218Y003831D01*
X012185Y003771D01*
X012155Y003709D01*
X012129Y003645D01*
X012106Y003580D01*
X012087Y003514D01*
X012072Y003447D01*
X012060Y003379D01*
X012052Y003310D01*
X012048Y003241D01*
X012048Y003173D01*
X012052Y003104D01*
X012060Y003035D01*
X012072Y002967D01*
X012087Y002900D01*
X012106Y002834D01*
X012129Y002769D01*
X012155Y002705D01*
X012185Y002643D01*
X012218Y002583D01*
X012254Y002525D01*
X012294Y002468D01*
X012337Y002415D01*
X012383Y002363D01*
X012431Y002314D01*
X012483Y002268D01*
X012536Y002225D01*
X012592Y002185D01*
X012651Y002148D01*
X012711Y002115D01*
X012773Y002085D01*
X012836Y002058D01*
X012901Y002035D01*
X012901Y002036D01*
X012837Y002059D01*
X012773Y002086D01*
X012711Y002116D01*
X012651Y002149D01*
X012593Y002186D01*
X012537Y002226D01*
X012483Y002269D01*
X012432Y002315D01*
X012383Y002364D01*
X012338Y002415D01*
X012295Y002469D01*
X012255Y002525D01*
X012219Y002584D01*
X012185Y002644D01*
X012156Y002706D01*
X012129Y002769D01*
X012107Y002834D01*
X012088Y002901D01*
X012073Y002968D01*
X012061Y003036D01*
X012053Y003104D01*
X012049Y003173D01*
X012049Y003241D01*
X012053Y003310D01*
X012061Y003378D01*
X012073Y003446D01*
X012088Y003513D01*
X012107Y003580D01*
X012129Y003645D01*
X012156Y003708D01*
X012185Y003770D01*
X012219Y003830D01*
X012255Y003889D01*
X012295Y003945D01*
X012338Y003999D01*
X012383Y004050D01*
X012432Y004099D01*
X012483Y004145D01*
X012537Y004188D01*
X012593Y004228D01*
X012651Y004265D01*
X012711Y004298D01*
X012773Y004328D01*
X012837Y004355D01*
X012901Y004378D01*
X012902Y004377D01*
X012837Y004354D01*
X012774Y004327D01*
X012712Y004297D01*
X012652Y004264D01*
X012594Y004227D01*
X012538Y004187D01*
X012484Y004144D01*
X012433Y004098D01*
X012384Y004049D01*
X012339Y003998D01*
X012296Y003944D01*
X012256Y003888D01*
X012220Y003830D01*
X012186Y003770D01*
X012157Y003708D01*
X012130Y003644D01*
X012108Y003579D01*
X012089Y003513D01*
X012073Y003446D01*
X012062Y003378D01*
X012054Y003310D01*
X012050Y003241D01*
X012050Y003173D01*
X012054Y003104D01*
X012062Y003036D01*
X012073Y002968D01*
X012089Y002901D01*
X012108Y002835D01*
X012130Y002770D01*
X012157Y002706D01*
X012186Y002644D01*
X012220Y002584D01*
X012256Y002526D01*
X012296Y002470D01*
X012339Y002416D01*
X012384Y002365D01*
X012433Y002316D01*
X012484Y002270D01*
X012538Y002227D01*
X012594Y002187D01*
X012652Y002150D01*
X012712Y002117D01*
X012774Y002087D01*
X012837Y002060D01*
X012902Y002037D01*
X012902Y002038D01*
X012837Y002061D01*
X012774Y002088D01*
X012712Y002118D01*
X012652Y002151D01*
X012594Y002188D01*
X012538Y002228D01*
X012485Y002271D01*
X012433Y002317D01*
X012385Y002365D01*
X012339Y002417D01*
X012297Y002470D01*
X012257Y002526D01*
X012220Y002585D01*
X012187Y002645D01*
X012158Y002707D01*
X012131Y002770D01*
X012109Y002835D01*
X012090Y002901D01*
X012074Y002968D01*
X012063Y003036D01*
X012055Y003104D01*
X012051Y003173D01*
X012051Y003241D01*
X012055Y003310D01*
X012063Y003378D01*
X012074Y003446D01*
X012090Y003513D01*
X012109Y003579D01*
X012131Y003644D01*
X012158Y003707D01*
X012187Y003769D01*
X012220Y003829D01*
X012257Y003888D01*
X012297Y003944D01*
X012339Y003997D01*
X012385Y004049D01*
X012433Y004097D01*
X012485Y004143D01*
X012538Y004186D01*
X012594Y004226D01*
X012652Y004263D01*
X012712Y004296D01*
X012774Y004326D01*
X012837Y004353D01*
X012902Y004376D01*
X012902Y004375D01*
X012838Y004352D01*
X012774Y004325D01*
X012713Y004295D01*
X012653Y004262D01*
X012595Y004225D01*
X012539Y004186D01*
X012485Y004143D01*
X012434Y004097D01*
X012386Y004048D01*
X012340Y003997D01*
X012297Y003943D01*
X012258Y003887D01*
X012221Y003829D01*
X012188Y003769D01*
X012158Y003707D01*
X012132Y003643D01*
X012110Y003579D01*
X012091Y003513D01*
X012075Y003446D01*
X012064Y003378D01*
X012056Y003310D01*
X012052Y003241D01*
X012052Y003173D01*
X012056Y003104D01*
X012064Y003036D01*
X012075Y002968D01*
X012091Y002901D01*
X012110Y002835D01*
X012132Y002771D01*
X012158Y002707D01*
X012188Y002645D01*
X012221Y002585D01*
X012258Y002527D01*
X012297Y002471D01*
X012340Y002417D01*
X012386Y002366D01*
X012434Y002317D01*
X012485Y002271D01*
X012539Y002228D01*
X012595Y002189D01*
X012653Y002152D01*
X012713Y002119D01*
X012774Y002089D01*
X012838Y002062D01*
X012902Y002039D01*
X012903Y002040D01*
X012838Y002063D01*
X012775Y002089D01*
X012713Y002119D01*
X012653Y002153D01*
X012595Y002189D01*
X012539Y002229D01*
X012486Y002272D01*
X012435Y002318D01*
X012386Y002367D01*
X012341Y002418D01*
X012298Y002471D01*
X012259Y002527D01*
X012222Y002586D01*
X012189Y002646D01*
X012159Y002708D01*
X012133Y002771D01*
X012111Y002836D01*
X012092Y002902D01*
X012076Y002968D01*
X012065Y003036D01*
X012057Y003104D01*
X012053Y003173D01*
X012053Y003241D01*
X012057Y003310D01*
X012065Y003378D01*
X012076Y003446D01*
X012092Y003512D01*
X012111Y003578D01*
X012133Y003643D01*
X012159Y003706D01*
X012189Y003768D01*
X012222Y003828D01*
X012259Y003887D01*
X012298Y003943D01*
X012341Y003996D01*
X012386Y004047D01*
X012435Y004096D01*
X012486Y004142D01*
X012539Y004185D01*
X012595Y004225D01*
X012653Y004261D01*
X012713Y004295D01*
X012775Y004325D01*
X012838Y004351D01*
X012903Y004374D01*
X012903Y004373D01*
X012838Y004350D01*
X012775Y004324D01*
X012714Y004294D01*
X012654Y004260D01*
X012596Y004224D01*
X012540Y004184D01*
X012486Y004141D01*
X012435Y004095D01*
X012387Y004047D01*
X012342Y003996D01*
X012299Y003942D01*
X012259Y003886D01*
X012223Y003828D01*
X012190Y003768D01*
X012160Y003706D01*
X012134Y003643D01*
X012112Y003578D01*
X012093Y003512D01*
X012077Y003445D01*
X012066Y003378D01*
X012058Y003310D01*
X012054Y003241D01*
X012054Y003173D01*
X012058Y003104D01*
X012066Y003036D01*
X012077Y002969D01*
X012093Y002902D01*
X012112Y002836D01*
X012134Y002771D01*
X012160Y002708D01*
X012190Y002646D01*
X012223Y002586D01*
X012259Y002528D01*
X012299Y002472D01*
X012342Y002418D01*
X012387Y002367D01*
X012435Y002319D01*
X012486Y002273D01*
X012540Y002230D01*
X012596Y002190D01*
X012654Y002154D01*
X012714Y002120D01*
X012775Y002090D01*
X012838Y002064D01*
X012903Y002041D01*
X012903Y002042D01*
X012839Y002065D01*
X012776Y002091D01*
X012714Y002121D01*
X012654Y002154D01*
X012596Y002191D01*
X012541Y002231D01*
X012487Y002274D01*
X012436Y002319D01*
X012388Y002368D01*
X012342Y002419D01*
X012300Y002473D01*
X012260Y002529D01*
X012224Y002587D01*
X012191Y002647D01*
X012161Y002708D01*
X012135Y002772D01*
X012112Y002836D01*
X012094Y002902D01*
X012078Y002969D01*
X012067Y003036D01*
X012059Y003104D01*
X012055Y003173D01*
X012055Y003241D01*
X012059Y003310D01*
X012067Y003378D01*
X012078Y003445D01*
X012094Y003512D01*
X012112Y003578D01*
X012135Y003642D01*
X012161Y003706D01*
X012191Y003767D01*
X012224Y003827D01*
X012260Y003885D01*
X012300Y003941D01*
X012342Y003995D01*
X012388Y004046D01*
X012436Y004095D01*
X012487Y004140D01*
X012541Y004183D01*
X012596Y004223D01*
X012654Y004260D01*
X012714Y004293D01*
X012776Y004323D01*
X012839Y004349D01*
X012903Y004372D01*
X012904Y004371D01*
X012839Y004348D01*
X012776Y004322D01*
X012714Y004292D01*
X012655Y004259D01*
X012597Y004222D01*
X012541Y004182D01*
X012488Y004140D01*
X012437Y004094D01*
X012389Y004045D01*
X012343Y003994D01*
X012301Y003941D01*
X012261Y003885D01*
X012225Y003827D01*
X012192Y003767D01*
X012162Y003705D01*
X012136Y003642D01*
X012113Y003577D01*
X012095Y003512D01*
X012079Y003445D01*
X012068Y003378D01*
X012060Y003310D01*
X012056Y003241D01*
X012056Y003173D01*
X012060Y003104D01*
X012068Y003036D01*
X012079Y002969D01*
X012095Y002902D01*
X012113Y002837D01*
X012136Y002772D01*
X012162Y002709D01*
X012192Y002647D01*
X012225Y002587D01*
X012261Y002529D01*
X012301Y002473D01*
X012343Y002420D01*
X012389Y002369D01*
X012437Y002320D01*
X012488Y002274D01*
X012541Y002232D01*
X012597Y002192D01*
X012655Y002155D01*
X012714Y002122D01*
X012776Y002092D01*
X012839Y002066D01*
X012904Y002043D01*
X012904Y002044D01*
X012839Y002067D01*
X012776Y002093D01*
X012715Y002123D01*
X012655Y002156D01*
X012597Y002193D01*
X012542Y002232D01*
X012488Y002275D01*
X012438Y002321D01*
X012389Y002369D01*
X012344Y002420D01*
X012301Y002474D01*
X012262Y002530D01*
X012226Y002588D01*
X012193Y002648D01*
X012163Y002709D01*
X012137Y002772D01*
X012114Y002837D01*
X012096Y002903D01*
X012080Y002969D01*
X012069Y003037D01*
X012061Y003105D01*
X012057Y003173D01*
X012057Y003241D01*
X012061Y003309D01*
X012069Y003377D01*
X012080Y003445D01*
X012096Y003511D01*
X012114Y003577D01*
X012137Y003642D01*
X012163Y003705D01*
X012193Y003766D01*
X012226Y003826D01*
X012262Y003884D01*
X012301Y003940D01*
X012344Y003994D01*
X012389Y004045D01*
X012438Y004093D01*
X012488Y004139D01*
X012542Y004182D01*
X012597Y004221D01*
X012655Y004258D01*
X012715Y004291D01*
X012776Y004321D01*
X012839Y004347D01*
X012904Y004370D01*
X012904Y004369D01*
X012840Y004346D01*
X012777Y004320D01*
X012715Y004290D01*
X012656Y004257D01*
X012598Y004220D01*
X012542Y004181D01*
X012489Y004138D01*
X012438Y004092D01*
X012390Y004044D01*
X012345Y003993D01*
X012302Y003940D01*
X012263Y003884D01*
X012226Y003826D01*
X012193Y003766D01*
X012164Y003704D01*
X012138Y003641D01*
X012115Y003577D01*
X012096Y003511D01*
X012081Y003445D01*
X012070Y003377D01*
X012062Y003309D01*
X012058Y003241D01*
X012058Y003173D01*
X012062Y003105D01*
X012070Y003037D01*
X012081Y002969D01*
X012096Y002903D01*
X012115Y002837D01*
X012138Y002773D01*
X012164Y002710D01*
X012193Y002648D01*
X012226Y002588D01*
X012263Y002530D01*
X012302Y002474D01*
X012345Y002421D01*
X012390Y002370D01*
X012438Y002322D01*
X012489Y002276D01*
X012542Y002233D01*
X012598Y002194D01*
X012656Y002157D01*
X012715Y002124D01*
X012777Y002094D01*
X012840Y002068D01*
X012904Y002045D01*
X012905Y002046D01*
X012840Y002069D01*
X012777Y002095D01*
X012716Y002125D01*
X012656Y002158D01*
X012599Y002194D01*
X012543Y002234D01*
X012490Y002277D01*
X012439Y002322D01*
X012391Y002371D01*
X012345Y002422D01*
X012303Y002475D01*
X012264Y002531D01*
X012227Y002589D01*
X012194Y002648D01*
X012165Y002710D01*
X012139Y002773D01*
X012116Y002837D01*
X012097Y002903D01*
X012082Y002970D01*
X012071Y003037D01*
X012063Y003105D01*
X012059Y003173D01*
X012059Y003241D01*
X012063Y003309D01*
X012071Y003377D01*
X012082Y003444D01*
X012097Y003511D01*
X012116Y003577D01*
X012139Y003641D01*
X012165Y003704D01*
X012194Y003766D01*
X012227Y003825D01*
X012264Y003883D01*
X012303Y003939D01*
X012345Y003992D01*
X012391Y004043D01*
X012439Y004092D01*
X012490Y004137D01*
X012543Y004180D01*
X012599Y004220D01*
X012656Y004256D01*
X012716Y004289D01*
X012777Y004319D01*
X012840Y004345D01*
X012905Y004368D01*
X012905Y004367D01*
X012841Y004344D01*
X012778Y004318D01*
X012716Y004288D01*
X012657Y004255D01*
X012599Y004219D01*
X012544Y004179D01*
X012490Y004137D01*
X012440Y004091D01*
X012391Y004043D01*
X012346Y003992D01*
X012304Y003938D01*
X012264Y003883D01*
X012228Y003825D01*
X012195Y003765D01*
X012166Y003704D01*
X012140Y003641D01*
X012117Y003576D01*
X012098Y003511D01*
X012083Y003444D01*
X012072Y003377D01*
X012064Y003309D01*
X012060Y003241D01*
X012060Y003173D01*
X012064Y003105D01*
X012072Y003037D01*
X012083Y002970D01*
X012098Y002903D01*
X012117Y002838D01*
X012140Y002773D01*
X012166Y002710D01*
X012195Y002649D01*
X012228Y002589D01*
X012264Y002531D01*
X012304Y002476D01*
X012346Y002422D01*
X012391Y002371D01*
X012440Y002323D01*
X012490Y002277D01*
X012544Y002235D01*
X012599Y002195D01*
X012657Y002159D01*
X012716Y002126D01*
X012778Y002096D01*
X012841Y002070D01*
X012905Y002047D01*
X012905Y002048D01*
X012841Y002071D01*
X012778Y002097D01*
X012717Y002127D01*
X012657Y002160D01*
X012600Y002196D01*
X012544Y002236D01*
X012491Y002278D01*
X012440Y002324D01*
X012392Y002372D01*
X012347Y002423D01*
X012305Y002476D01*
X012265Y002532D01*
X012229Y002590D01*
X012196Y002649D01*
X012167Y002711D01*
X012141Y002774D01*
X012118Y002838D01*
X012099Y002904D01*
X012084Y002970D01*
X012073Y003037D01*
X012065Y003105D01*
X012061Y003173D01*
X012061Y003241D01*
X012065Y003309D01*
X012073Y003377D01*
X012084Y003444D01*
X012099Y003510D01*
X012118Y003576D01*
X012141Y003640D01*
X012167Y003703D01*
X012196Y003765D01*
X012229Y003824D01*
X012265Y003882D01*
X012305Y003938D01*
X012347Y003991D01*
X012392Y004042D01*
X012440Y004090D01*
X012491Y004136D01*
X012544Y004178D01*
X012600Y004218D01*
X012657Y004254D01*
X012717Y004287D01*
X012778Y004317D01*
X012841Y004343D01*
X012905Y004366D01*
X012905Y004365D01*
X012841Y004343D01*
X012778Y004316D01*
X012717Y004287D01*
X012658Y004253D01*
X012600Y004217D01*
X012545Y004178D01*
X012492Y004135D01*
X012441Y004090D01*
X012393Y004041D01*
X012348Y003990D01*
X012305Y003937D01*
X012266Y003882D01*
X012230Y003824D01*
X012197Y003764D01*
X012168Y003703D01*
X012142Y003640D01*
X012119Y003576D01*
X012100Y003510D01*
X012085Y003444D01*
X012074Y003377D01*
X012066Y003309D01*
X012062Y003241D01*
X012062Y003173D01*
X012066Y003105D01*
X012074Y003037D01*
X012085Y002970D01*
X012100Y002904D01*
X012119Y002838D01*
X012142Y002774D01*
X012168Y002711D01*
X012197Y002650D01*
X012230Y002590D01*
X012266Y002532D01*
X012305Y002477D01*
X012348Y002424D01*
X012393Y002373D01*
X012441Y002324D01*
X012492Y002279D01*
X012545Y002236D01*
X012600Y002197D01*
X012658Y002161D01*
X012717Y002127D01*
X012778Y002098D01*
X012841Y002071D01*
X012905Y002049D01*
X012906Y002050D01*
X012842Y002072D01*
X012779Y002099D01*
X012718Y002128D01*
X012658Y002161D01*
X012601Y002198D01*
X012545Y002237D01*
X012492Y002280D01*
X012442Y002325D01*
X012394Y002373D01*
X012348Y002424D01*
X012306Y002477D01*
X012267Y002533D01*
X012231Y002591D01*
X012198Y002650D01*
X012168Y002712D01*
X012143Y002774D01*
X012120Y002839D01*
X012101Y002904D01*
X012086Y002970D01*
X012075Y003037D01*
X012067Y003105D01*
X012063Y003173D01*
X012063Y003241D01*
X012067Y003309D01*
X012075Y003377D01*
X012086Y003444D01*
X012101Y003510D01*
X012120Y003575D01*
X012143Y003640D01*
X012168Y003702D01*
X012198Y003764D01*
X012231Y003823D01*
X012267Y003881D01*
X012306Y003937D01*
X012348Y003990D01*
X012394Y004041D01*
X012442Y004089D01*
X012492Y004134D01*
X012545Y004177D01*
X012601Y004216D01*
X012658Y004253D01*
X012718Y004286D01*
X012779Y004315D01*
X012842Y004342D01*
X012906Y004364D01*
X012906Y004363D01*
X012842Y004341D01*
X012779Y004314D01*
X012718Y004285D01*
X012659Y004252D01*
X012601Y004215D01*
X012546Y004176D01*
X012493Y004133D01*
X012442Y004088D01*
X012394Y004040D01*
X012349Y003989D01*
X012307Y003936D01*
X012268Y003880D01*
X012232Y003823D01*
X012199Y003763D01*
X012169Y003702D01*
X012143Y003639D01*
X012121Y003575D01*
X012102Y003510D01*
X012087Y003443D01*
X012076Y003376D01*
X012068Y003309D01*
X012064Y003241D01*
X012064Y003173D01*
X012068Y003105D01*
X012076Y003038D01*
X012087Y002971D01*
X012102Y002904D01*
X012121Y002839D01*
X012143Y002775D01*
X012169Y002712D01*
X012199Y002651D01*
X012232Y002591D01*
X012268Y002534D01*
X012307Y002478D01*
X012349Y002425D01*
X012394Y002374D01*
X012442Y002326D01*
X012493Y002281D01*
X012546Y002238D01*
X012601Y002199D01*
X012659Y002162D01*
X012718Y002129D01*
X012779Y002100D01*
X012842Y002073D01*
X012906Y002051D01*
X012906Y002052D01*
X012842Y002074D01*
X012780Y002100D01*
X012719Y002130D01*
X012659Y002163D01*
X012602Y002199D01*
X012547Y002239D01*
X012494Y002281D01*
X012443Y002327D01*
X012395Y002375D01*
X012350Y002426D01*
X012308Y002479D01*
X012269Y002534D01*
X012232Y002592D01*
X012200Y002651D01*
X012170Y002712D01*
X012144Y002775D01*
X012122Y002839D01*
X012103Y002905D01*
X012088Y002971D01*
X012077Y003038D01*
X012069Y003105D01*
X012065Y003173D01*
X012065Y003241D01*
X012069Y003309D01*
X012077Y003376D01*
X012088Y003443D01*
X012103Y003509D01*
X012122Y003575D01*
X012144Y003639D01*
X012170Y003702D01*
X012200Y003763D01*
X012232Y003822D01*
X012269Y003880D01*
X012308Y003935D01*
X012350Y003988D01*
X012395Y004039D01*
X012443Y004087D01*
X012494Y004133D01*
X012547Y004175D01*
X012602Y004215D01*
X012659Y004251D01*
X012719Y004284D01*
X012780Y004314D01*
X012842Y004340D01*
X012906Y004362D01*
X012907Y004361D01*
X012843Y004339D01*
X012780Y004313D01*
X012719Y004283D01*
X012660Y004250D01*
X012602Y004214D01*
X012547Y004174D01*
X012494Y004132D01*
X012444Y004087D01*
X012396Y004039D01*
X012351Y003988D01*
X012309Y003935D01*
X012269Y003879D01*
X012233Y003822D01*
X012201Y003762D01*
X012171Y003701D01*
X012145Y003638D01*
X012123Y003574D01*
X012104Y003509D01*
X012089Y003443D01*
X012078Y003376D01*
X012070Y003309D01*
X012066Y003241D01*
X012066Y003173D01*
X012070Y003105D01*
X012078Y003038D01*
X012089Y002971D01*
X012104Y002905D01*
X012123Y002840D01*
X012145Y002776D01*
X012171Y002713D01*
X012201Y002652D01*
X012233Y002592D01*
X012269Y002535D01*
X012309Y002479D01*
X012351Y002426D01*
X012396Y002375D01*
X012444Y002327D01*
X012494Y002282D01*
X012547Y002240D01*
X012602Y002200D01*
X012660Y002164D01*
X012719Y002131D01*
X012780Y002101D01*
X012843Y002075D01*
X012907Y002053D01*
X012843Y002076D01*
X012781Y002102D01*
X012720Y002132D01*
X012660Y002165D01*
X012603Y002201D01*
X012548Y002240D01*
X012495Y002283D01*
X012444Y002328D01*
X012397Y002376D01*
X012352Y002427D01*
X012309Y002480D01*
X012270Y002535D01*
X012234Y002593D01*
X012201Y002652D01*
X012172Y002713D01*
X012146Y002776D01*
X012124Y002840D01*
X012105Y002905D01*
X012090Y002971D01*
X012079Y003038D01*
X012071Y003105D01*
X012067Y003173D01*
X012067Y003241D01*
X012071Y003309D01*
X012079Y003376D01*
X012090Y003443D01*
X012105Y003509D01*
X012124Y003574D01*
X012146Y003638D01*
X012172Y003701D01*
X012201Y003762D01*
X012234Y003821D01*
X012270Y003879D01*
X012309Y003934D01*
X012352Y003987D01*
X012397Y004038D01*
X012444Y004086D01*
X012495Y004131D01*
X012548Y004174D01*
X012603Y004213D01*
X012660Y004249D01*
X012720Y004282D01*
X012781Y004312D01*
X012843Y004338D01*
X012907Y004361D01*
X012907Y004360D01*
X012843Y004337D01*
X012781Y004311D01*
X012720Y004281D01*
X012661Y004248D01*
X012604Y004212D01*
X012548Y004173D01*
X012496Y004130D01*
X012445Y004085D01*
X012397Y004037D01*
X012352Y003987D01*
X012310Y003934D01*
X012271Y003878D01*
X012235Y003821D01*
X012202Y003761D01*
X012173Y003700D01*
X012147Y003638D01*
X012125Y003574D01*
X012106Y003509D01*
X012091Y003443D01*
X012080Y003376D01*
X012072Y003309D01*
X012068Y003241D01*
X012068Y003173D01*
X012072Y003105D01*
X012080Y003038D01*
X012091Y002971D01*
X012106Y002905D01*
X012125Y002840D01*
X012147Y002776D01*
X012173Y002714D01*
X012202Y002653D01*
X012235Y002593D01*
X012271Y002536D01*
X012310Y002480D01*
X012352Y002427D01*
X012397Y002377D01*
X012445Y002329D01*
X012496Y002284D01*
X012548Y002241D01*
X012604Y002202D01*
X012661Y002166D01*
X012720Y002133D01*
X012781Y002103D01*
X012843Y002077D01*
X012907Y002054D01*
X012908Y002055D01*
X012844Y002078D01*
X012781Y002104D01*
X012720Y002134D01*
X012661Y002167D01*
X012604Y002203D01*
X012549Y002242D01*
X012496Y002284D01*
X012446Y002330D01*
X012398Y002378D01*
X012353Y002428D01*
X012311Y002481D01*
X012272Y002536D01*
X012236Y002594D01*
X012203Y002653D01*
X012174Y002714D01*
X012148Y002777D01*
X012126Y002841D01*
X012107Y002906D01*
X012092Y002972D01*
X012081Y003038D01*
X012073Y003106D01*
X012069Y003173D01*
X012069Y003241D01*
X012073Y003308D01*
X012081Y003376D01*
X012092Y003442D01*
X012107Y003508D01*
X012126Y003573D01*
X012148Y003637D01*
X012174Y003700D01*
X012203Y003761D01*
X012236Y003820D01*
X012272Y003878D01*
X012311Y003933D01*
X012353Y003986D01*
X012398Y004036D01*
X012446Y004084D01*
X012496Y004130D01*
X012549Y004172D01*
X012604Y004211D01*
X012661Y004247D01*
X012720Y004280D01*
X012781Y004310D01*
X012844Y004336D01*
X012908Y004359D01*
X012908Y004358D01*
X012844Y004335D01*
X012782Y004309D01*
X012721Y004279D01*
X012662Y004247D01*
X012605Y004210D01*
X012550Y004171D01*
X012497Y004129D01*
X012446Y004084D01*
X012399Y004036D01*
X012354Y003985D01*
X012312Y003932D01*
X012273Y003877D01*
X012237Y003820D01*
X012204Y003761D01*
X012175Y003700D01*
X012149Y003637D01*
X012127Y003573D01*
X012108Y003508D01*
X012093Y003442D01*
X012082Y003376D01*
X012074Y003308D01*
X012070Y003241D01*
X012070Y003173D01*
X012074Y003106D01*
X012082Y003038D01*
X012093Y002972D01*
X012108Y002906D01*
X012127Y002841D01*
X012149Y002777D01*
X012175Y002714D01*
X012204Y002653D01*
X012237Y002594D01*
X012273Y002537D01*
X012312Y002482D01*
X012354Y002429D01*
X012399Y002378D01*
X012446Y002330D01*
X012497Y002285D01*
X012550Y002243D01*
X012605Y002204D01*
X012662Y002167D01*
X012721Y002135D01*
X012782Y002105D01*
X012844Y002079D01*
X012908Y002056D01*
X012908Y002057D01*
X012845Y002080D01*
X012782Y002106D01*
X012721Y002135D01*
X012662Y002168D01*
X012605Y002204D01*
X012550Y002244D01*
X012497Y002286D01*
X012447Y002331D01*
X012399Y002379D01*
X012355Y002429D01*
X012313Y002482D01*
X012274Y002537D01*
X012238Y002595D01*
X012205Y002654D01*
X012176Y002715D01*
X012150Y002777D01*
X012128Y002841D01*
X012109Y002906D01*
X012094Y002972D01*
X012083Y003039D01*
X012075Y003106D01*
X012071Y003173D01*
X012071Y003241D01*
X012075Y003308D01*
X012083Y003375D01*
X012094Y003442D01*
X012109Y003508D01*
X012128Y003573D01*
X012150Y003637D01*
X012176Y003699D01*
X012205Y003760D01*
X012238Y003819D01*
X012274Y003877D01*
X012313Y003932D01*
X012355Y003985D01*
X012399Y004035D01*
X012447Y004083D01*
X012497Y004128D01*
X012550Y004170D01*
X012605Y004210D01*
X012662Y004246D01*
X012721Y004279D01*
X012782Y004308D01*
X012845Y004334D01*
X012908Y004357D01*
X012909Y004356D01*
X012845Y004333D01*
X012783Y004307D01*
X012722Y004278D01*
X012663Y004245D01*
X012606Y004209D01*
X012551Y004170D01*
X012498Y004127D01*
X012448Y004082D01*
X012400Y004034D01*
X012355Y003984D01*
X012313Y003931D01*
X012274Y003876D01*
X012239Y003819D01*
X012206Y003760D01*
X012177Y003699D01*
X012151Y003636D01*
X012129Y003573D01*
X012110Y003508D01*
X012095Y003442D01*
X012084Y003375D01*
X012076Y003308D01*
X012072Y003241D01*
X012072Y003173D01*
X012076Y003106D01*
X012084Y003039D01*
X012095Y002972D01*
X012110Y002906D01*
X012129Y002841D01*
X012151Y002778D01*
X012177Y002715D01*
X012206Y002654D01*
X012239Y002595D01*
X012274Y002538D01*
X012313Y002483D01*
X012355Y002430D01*
X012400Y002380D01*
X012448Y002332D01*
X012498Y002287D01*
X012551Y002244D01*
X012606Y002205D01*
X012663Y002169D01*
X012722Y002136D01*
X012783Y002107D01*
X012845Y002081D01*
X012909Y002058D01*
X012909Y002059D01*
X012845Y002082D01*
X012783Y002108D01*
X012722Y002137D01*
X012663Y002170D01*
X012606Y002206D01*
X012551Y002245D01*
X012499Y002287D01*
X012449Y002332D01*
X012401Y002380D01*
X012356Y002431D01*
X012314Y002483D01*
X012275Y002539D01*
X012239Y002596D01*
X012207Y002655D01*
X012178Y002716D01*
X012152Y002778D01*
X012130Y002842D01*
X012111Y002907D01*
X012096Y002972D01*
X012085Y003039D01*
X012077Y003106D01*
X012073Y003173D01*
X012073Y003241D01*
X012077Y003308D01*
X012085Y003375D01*
X012096Y003442D01*
X012111Y003507D01*
X012130Y003572D01*
X012152Y003636D01*
X012178Y003698D01*
X012207Y003759D01*
X012239Y003818D01*
X012275Y003875D01*
X012314Y003931D01*
X012356Y003983D01*
X012401Y004034D01*
X012449Y004082D01*
X012499Y004127D01*
X012551Y004169D01*
X012606Y004208D01*
X012663Y004244D01*
X012722Y004277D01*
X012783Y004306D01*
X012845Y004332D01*
X012909Y004355D01*
X012909Y004354D01*
X012846Y004331D01*
X012783Y004305D01*
X012723Y004276D01*
X012664Y004243D01*
X012607Y004207D01*
X012552Y004168D01*
X012499Y004126D01*
X012449Y004081D01*
X012402Y004033D01*
X012357Y003983D01*
X012315Y003930D01*
X012276Y003875D01*
X012240Y003818D01*
X012208Y003759D01*
X012179Y003698D01*
X012153Y003636D01*
X012131Y003572D01*
X012112Y003507D01*
X012097Y003441D01*
X012086Y003375D01*
X012078Y003308D01*
X012074Y003241D01*
X012074Y003173D01*
X012078Y003106D01*
X012086Y003039D01*
X012097Y002973D01*
X012112Y002907D01*
X012131Y002842D01*
X012153Y002778D01*
X012179Y002716D01*
X012208Y002655D01*
X012240Y002596D01*
X012276Y002539D01*
X012315Y002484D01*
X012357Y002431D01*
X012402Y002381D01*
X012449Y002333D01*
X012499Y002288D01*
X012552Y002246D01*
X012607Y002207D01*
X012664Y002171D01*
X012723Y002138D01*
X012783Y002109D01*
X012846Y002083D01*
X012909Y002060D01*
X012909Y002061D01*
X012846Y002084D01*
X012784Y002110D01*
X012723Y002139D01*
X012664Y002172D01*
X012607Y002208D01*
X012553Y002247D01*
X012500Y002289D01*
X012450Y002334D01*
X012402Y002382D01*
X012358Y002432D01*
X012316Y002485D01*
X012277Y002540D01*
X012241Y002597D01*
X012209Y002656D01*
X012179Y002716D01*
X012154Y002779D01*
X012132Y002842D01*
X012113Y002907D01*
X012098Y002973D01*
X012087Y003039D01*
X012079Y003106D01*
X012075Y003173D01*
X012075Y003241D01*
X012079Y003308D01*
X012087Y003375D01*
X012098Y003441D01*
X012113Y003507D01*
X012132Y003572D01*
X012154Y003635D01*
X012179Y003698D01*
X012209Y003758D01*
X012241Y003817D01*
X012277Y003874D01*
X012316Y003929D01*
X012358Y003982D01*
X012402Y004032D01*
X012450Y004080D01*
X012500Y004125D01*
X012553Y004167D01*
X012607Y004206D01*
X012664Y004242D01*
X012723Y004275D01*
X012784Y004304D01*
X012846Y004330D01*
X012909Y004353D01*
X012910Y004352D01*
X012845Y004329D01*
X012781Y004302D01*
X012720Y004272D01*
X012660Y004238D01*
X012602Y004201D01*
X012546Y004161D01*
X012493Y004117D01*
X012442Y004071D01*
X012394Y004022D01*
X012349Y003970D01*
X012307Y003915D01*
X012268Y003858D01*
X012232Y003799D01*
X012200Y003739D01*
X012171Y003676D01*
X012146Y003612D01*
X012125Y003547D01*
X012107Y003480D01*
X012094Y003412D01*
X012084Y003344D01*
X012078Y003276D01*
X012076Y003207D01*
X012078Y003138D01*
X012084Y003070D01*
X012094Y003002D01*
X012107Y002934D01*
X012125Y002867D01*
X012146Y002802D01*
X012171Y002738D01*
X012200Y002675D01*
X012232Y002615D01*
X012268Y002556D01*
X012307Y002499D01*
X012349Y002444D01*
X012394Y002392D01*
X012442Y002343D01*
X012493Y002297D01*
X012546Y002253D01*
X012602Y002213D01*
X012660Y002176D01*
X012720Y002142D01*
X012781Y002112D01*
X012845Y002085D01*
X012910Y002062D01*
X012910Y002063D01*
X012845Y002086D01*
X012782Y002113D01*
X012720Y002143D01*
X012660Y002177D01*
X012602Y002214D01*
X012547Y002254D01*
X012493Y002297D01*
X012442Y002344D01*
X012394Y002393D01*
X012349Y002445D01*
X012307Y002499D01*
X012268Y002556D01*
X012233Y002615D01*
X012201Y002676D01*
X012172Y002738D01*
X012147Y002802D01*
X012126Y002868D01*
X012108Y002934D01*
X012095Y003002D01*
X012085Y003070D01*
X012079Y003138D01*
X012077Y003207D01*
X012079Y003276D01*
X012085Y003344D01*
X012095Y003412D01*
X012108Y003480D01*
X012126Y003546D01*
X012147Y003612D01*
X012172Y003676D01*
X012201Y003738D01*
X012233Y003799D01*
X012268Y003858D01*
X012307Y003915D01*
X012349Y003969D01*
X012394Y004021D01*
X012442Y004070D01*
X012493Y004117D01*
X012547Y004160D01*
X012602Y004200D01*
X012660Y004237D01*
X012720Y004271D01*
X012782Y004301D01*
X012845Y004328D01*
X012910Y004351D01*
X010431Y001943D02*
X010419Y001980D01*
X010420Y001980D02*
X010484Y002003D01*
X010548Y002030D01*
X010609Y002060D01*
X010669Y002093D01*
X010727Y002130D01*
X010783Y002171D01*
X010836Y002214D01*
X010887Y002261D01*
X010935Y002310D01*
X010980Y002362D01*
X011022Y002416D01*
X011061Y002473D01*
X011096Y002531D01*
X011128Y002592D01*
X011157Y002655D01*
X011182Y002719D01*
X011203Y002784D01*
X011221Y002851D01*
X011234Y002918D01*
X011244Y002986D01*
X011250Y003054D01*
X011252Y003123D01*
X011250Y003192D01*
X011244Y003260D01*
X011234Y003328D01*
X011221Y003395D01*
X011203Y003462D01*
X011182Y003527D01*
X011157Y003591D01*
X011128Y003654D01*
X011096Y003715D01*
X011061Y003773D01*
X011022Y003830D01*
X010980Y003884D01*
X010935Y003936D01*
X010887Y003985D01*
X010836Y004032D01*
X010783Y004075D01*
X010727Y004116D01*
X010669Y004153D01*
X010609Y004186D01*
X010548Y004216D01*
X010484Y004243D01*
X010420Y004266D01*
X010431Y004303D01*
X010432Y004303D01*
X010497Y004280D01*
X010561Y004253D01*
X010623Y004223D01*
X010684Y004189D01*
X010743Y004152D01*
X010799Y004112D01*
X010853Y004069D01*
X010905Y004022D01*
X010954Y003973D01*
X011000Y003921D01*
X011043Y003867D01*
X011083Y003810D01*
X011120Y003751D01*
X011153Y003691D01*
X011183Y003628D01*
X011210Y003564D01*
X011233Y003499D01*
X011252Y003432D01*
X011267Y003364D01*
X011279Y003296D01*
X011287Y003227D01*
X011291Y003158D01*
X011291Y003088D01*
X011287Y003019D01*
X011279Y002950D01*
X011267Y002882D01*
X011252Y002814D01*
X011233Y002747D01*
X011210Y002682D01*
X011183Y002618D01*
X011153Y002555D01*
X011120Y002495D01*
X011083Y002436D01*
X011043Y002379D01*
X011000Y002325D01*
X010954Y002273D01*
X010905Y002224D01*
X010853Y002177D01*
X010799Y002134D01*
X010743Y002094D01*
X010684Y002057D01*
X010623Y002023D01*
X010561Y001993D01*
X010497Y001966D01*
X010432Y001943D01*
X010431Y001944D01*
X010497Y001967D01*
X010561Y001994D01*
X010623Y002024D01*
X010683Y002058D01*
X010742Y002095D01*
X010798Y002135D01*
X010853Y002178D01*
X010904Y002225D01*
X010953Y002274D01*
X010999Y002325D01*
X011042Y002380D01*
X011082Y002436D01*
X011119Y002495D01*
X011153Y002556D01*
X011183Y002618D01*
X011209Y002682D01*
X011232Y002748D01*
X011251Y002814D01*
X011266Y002882D01*
X011278Y002950D01*
X011286Y003019D01*
X011290Y003088D01*
X011290Y003158D01*
X011286Y003227D01*
X011278Y003296D01*
X011266Y003364D01*
X011251Y003432D01*
X011232Y003498D01*
X011209Y003564D01*
X011183Y003628D01*
X011153Y003690D01*
X011119Y003751D01*
X011082Y003810D01*
X011042Y003866D01*
X010999Y003921D01*
X010953Y003972D01*
X010904Y004021D01*
X010853Y004068D01*
X010798Y004111D01*
X010742Y004151D01*
X010683Y004188D01*
X010623Y004222D01*
X010561Y004252D01*
X010497Y004279D01*
X010431Y004302D01*
X010431Y004301D01*
X010496Y004278D01*
X010560Y004251D01*
X010622Y004221D01*
X010683Y004188D01*
X010742Y004151D01*
X010798Y004110D01*
X010852Y004067D01*
X010903Y004021D01*
X010952Y003972D01*
X010998Y003920D01*
X011041Y003866D01*
X011081Y003809D01*
X011118Y003750D01*
X011152Y003690D01*
X011182Y003627D01*
X011208Y003563D01*
X011231Y003498D01*
X011250Y003431D01*
X011265Y003364D01*
X011277Y003296D01*
X011285Y003227D01*
X011289Y003158D01*
X011289Y003088D01*
X011285Y003019D01*
X011277Y002950D01*
X011265Y002882D01*
X011250Y002815D01*
X011231Y002748D01*
X011208Y002683D01*
X011182Y002619D01*
X011152Y002556D01*
X011118Y002496D01*
X011081Y002437D01*
X011041Y002380D01*
X010998Y002326D01*
X010952Y002274D01*
X010903Y002225D01*
X010852Y002179D01*
X010798Y002136D01*
X010742Y002095D01*
X010683Y002058D01*
X010622Y002025D01*
X010560Y001995D01*
X010496Y001968D01*
X010431Y001945D01*
X010431Y001946D01*
X010496Y001969D01*
X010560Y001995D01*
X010622Y002026D01*
X010682Y002059D01*
X010741Y002096D01*
X010797Y002136D01*
X010851Y002180D01*
X010903Y002226D01*
X010952Y002275D01*
X010998Y002327D01*
X011041Y002381D01*
X011081Y002437D01*
X011117Y002496D01*
X011151Y002557D01*
X011181Y002619D01*
X011207Y002683D01*
X011230Y002748D01*
X011249Y002815D01*
X011264Y002882D01*
X011276Y002951D01*
X011284Y003019D01*
X011288Y003088D01*
X011288Y003158D01*
X011284Y003227D01*
X011276Y003295D01*
X011264Y003364D01*
X011249Y003431D01*
X011230Y003498D01*
X011207Y003563D01*
X011181Y003627D01*
X011151Y003689D01*
X011117Y003750D01*
X011081Y003809D01*
X011041Y003865D01*
X010998Y003919D01*
X010952Y003971D01*
X010903Y004020D01*
X010851Y004066D01*
X010797Y004110D01*
X010741Y004150D01*
X010682Y004187D01*
X010622Y004220D01*
X010560Y004251D01*
X010496Y004277D01*
X010431Y004300D01*
X010430Y004299D01*
X010496Y004276D01*
X010559Y004250D01*
X010622Y004219D01*
X010682Y004186D01*
X010740Y004149D01*
X010797Y004109D01*
X010851Y004065D01*
X010902Y004019D01*
X010951Y003970D01*
X010997Y003919D01*
X011040Y003865D01*
X011080Y003808D01*
X011116Y003749D01*
X011150Y003689D01*
X011180Y003627D01*
X011206Y003563D01*
X011229Y003497D01*
X011248Y003431D01*
X011263Y003363D01*
X011275Y003295D01*
X011283Y003227D01*
X011287Y003158D01*
X011287Y003088D01*
X011283Y003019D01*
X011275Y002951D01*
X011263Y002883D01*
X011248Y002815D01*
X011229Y002749D01*
X011206Y002683D01*
X011180Y002619D01*
X011150Y002557D01*
X011116Y002497D01*
X011080Y002438D01*
X011040Y002381D01*
X010997Y002327D01*
X010951Y002276D01*
X010902Y002227D01*
X010851Y002181D01*
X010797Y002137D01*
X010740Y002097D01*
X010682Y002060D01*
X010622Y002027D01*
X010559Y001996D01*
X010496Y001970D01*
X010430Y001947D01*
X010430Y001948D01*
X010495Y001971D01*
X010559Y001997D01*
X010621Y002027D01*
X010681Y002061D01*
X010740Y002098D01*
X010796Y002138D01*
X010850Y002181D01*
X010901Y002227D01*
X010950Y002276D01*
X010996Y002328D01*
X011039Y002382D01*
X011079Y002439D01*
X011116Y002497D01*
X011149Y002558D01*
X011179Y002620D01*
X011205Y002684D01*
X011228Y002749D01*
X011247Y002815D01*
X011262Y002883D01*
X011274Y002951D01*
X011282Y003019D01*
X011286Y003088D01*
X011286Y003158D01*
X011282Y003227D01*
X011274Y003295D01*
X011262Y003363D01*
X011247Y003431D01*
X011228Y003497D01*
X011205Y003562D01*
X011179Y003626D01*
X011149Y003688D01*
X011116Y003749D01*
X011079Y003807D01*
X011039Y003864D01*
X010996Y003918D01*
X010950Y003970D01*
X010901Y004019D01*
X010850Y004065D01*
X010796Y004108D01*
X010740Y004148D01*
X010681Y004185D01*
X010621Y004219D01*
X010559Y004249D01*
X010495Y004275D01*
X010430Y004298D01*
X010430Y004297D01*
X010495Y004274D01*
X010559Y004248D01*
X010621Y004218D01*
X010681Y004184D01*
X010739Y004147D01*
X010795Y004107D01*
X010849Y004064D01*
X010901Y004018D01*
X010949Y003969D01*
X010995Y003917D01*
X011038Y003863D01*
X011078Y003807D01*
X011115Y003748D01*
X011148Y003688D01*
X011178Y003626D01*
X011204Y003562D01*
X011227Y003497D01*
X011246Y003430D01*
X011261Y003363D01*
X011273Y003295D01*
X011281Y003226D01*
X011285Y003158D01*
X011285Y003088D01*
X011281Y003020D01*
X011273Y002951D01*
X011261Y002883D01*
X011246Y002816D01*
X011227Y002749D01*
X011204Y002684D01*
X011178Y002620D01*
X011148Y002558D01*
X011115Y002498D01*
X011078Y002439D01*
X011038Y002383D01*
X010995Y002329D01*
X010949Y002277D01*
X010901Y002228D01*
X010849Y002182D01*
X010795Y002139D01*
X010739Y002099D01*
X010681Y002062D01*
X010621Y002028D01*
X010559Y001998D01*
X010495Y001972D01*
X010430Y001949D01*
X010429Y001950D01*
X010494Y001973D01*
X010558Y001999D01*
X010620Y002029D01*
X010680Y002063D01*
X010739Y002100D01*
X010795Y002140D01*
X010849Y002183D01*
X010900Y002229D01*
X010949Y002278D01*
X010995Y002329D01*
X011037Y002383D01*
X011077Y002440D01*
X011114Y002498D01*
X011147Y002558D01*
X011177Y002621D01*
X011203Y002684D01*
X011226Y002750D01*
X011245Y002816D01*
X011260Y002883D01*
X011272Y002951D01*
X011280Y003020D01*
X011284Y003089D01*
X011284Y003157D01*
X011280Y003226D01*
X011272Y003295D01*
X011260Y003363D01*
X011245Y003430D01*
X011226Y003496D01*
X011203Y003562D01*
X011177Y003625D01*
X011147Y003688D01*
X011114Y003748D01*
X011077Y003806D01*
X011037Y003863D01*
X010995Y003917D01*
X010949Y003968D01*
X010900Y004017D01*
X010849Y004063D01*
X010795Y004106D01*
X010739Y004146D01*
X010680Y004183D01*
X010620Y004217D01*
X010558Y004247D01*
X010494Y004273D01*
X010429Y004296D01*
X010494Y004273D01*
X010558Y004246D01*
X010620Y004216D01*
X010680Y004182D01*
X010738Y004146D01*
X010794Y004106D01*
X010848Y004062D01*
X010899Y004016D01*
X010948Y003968D01*
X010994Y003916D01*
X011037Y003862D01*
X011076Y003806D01*
X011113Y003747D01*
X011146Y003687D01*
X011176Y003625D01*
X011202Y003561D01*
X011225Y003496D01*
X011244Y003430D01*
X011259Y003363D01*
X011271Y003295D01*
X011279Y003226D01*
X011283Y003157D01*
X011283Y003089D01*
X011279Y003020D01*
X011271Y002951D01*
X011259Y002883D01*
X011244Y002816D01*
X011225Y002750D01*
X011202Y002685D01*
X011176Y002621D01*
X011146Y002559D01*
X011113Y002499D01*
X011076Y002440D01*
X011037Y002384D01*
X010994Y002330D01*
X010948Y002278D01*
X010899Y002230D01*
X010848Y002184D01*
X010794Y002140D01*
X010738Y002100D01*
X010680Y002064D01*
X010620Y002030D01*
X010558Y002000D01*
X010494Y001973D01*
X010429Y001950D01*
X010429Y001951D01*
X010494Y001974D01*
X010557Y002001D01*
X010619Y002031D01*
X010679Y002064D01*
X010738Y002101D01*
X010794Y002141D01*
X010847Y002184D01*
X010899Y002230D01*
X010947Y002279D01*
X010993Y002331D01*
X011036Y002384D01*
X011076Y002441D01*
X011112Y002499D01*
X011145Y002559D01*
X011175Y002621D01*
X011201Y002685D01*
X011224Y002750D01*
X011243Y002816D01*
X011258Y002883D01*
X011270Y002951D01*
X011278Y003020D01*
X011282Y003089D01*
X011282Y003157D01*
X011278Y003226D01*
X011270Y003295D01*
X011258Y003363D01*
X011243Y003430D01*
X011224Y003496D01*
X011201Y003561D01*
X011175Y003625D01*
X011145Y003687D01*
X011112Y003747D01*
X011076Y003805D01*
X011036Y003862D01*
X010993Y003915D01*
X010947Y003967D01*
X010899Y004016D01*
X010847Y004062D01*
X010794Y004105D01*
X010738Y004145D01*
X010679Y004182D01*
X010619Y004215D01*
X010557Y004245D01*
X010494Y004272D01*
X010429Y004295D01*
X010429Y004294D01*
X010493Y004271D01*
X010557Y004244D01*
X010619Y004214D01*
X010679Y004181D01*
X010737Y004144D01*
X010793Y004104D01*
X010847Y004061D01*
X010898Y004015D01*
X010947Y003966D01*
X010992Y003915D01*
X011035Y003861D01*
X011075Y003805D01*
X011111Y003746D01*
X011145Y003686D01*
X011174Y003624D01*
X011201Y003561D01*
X011223Y003496D01*
X011242Y003429D01*
X011257Y003362D01*
X011269Y003294D01*
X011277Y003226D01*
X011281Y003157D01*
X011281Y003089D01*
X011277Y003020D01*
X011269Y002952D01*
X011257Y002884D01*
X011242Y002817D01*
X011223Y002750D01*
X011201Y002685D01*
X011174Y002622D01*
X011145Y002560D01*
X011111Y002500D01*
X011075Y002441D01*
X011035Y002385D01*
X010992Y002331D01*
X010947Y002280D01*
X010898Y002231D01*
X010847Y002185D01*
X010793Y002142D01*
X010737Y002102D01*
X010679Y002065D01*
X010619Y002032D01*
X010557Y002002D01*
X010493Y001975D01*
X010429Y001952D01*
X010428Y001953D01*
X010493Y001976D01*
X010556Y002003D01*
X010618Y002033D01*
X010678Y002066D01*
X010736Y002103D01*
X010792Y002143D01*
X010846Y002186D01*
X010897Y002232D01*
X010946Y002281D01*
X010991Y002332D01*
X011034Y002386D01*
X011074Y002442D01*
X011110Y002500D01*
X011144Y002560D01*
X011173Y002622D01*
X011200Y002686D01*
X011222Y002751D01*
X011241Y002817D01*
X011257Y002884D01*
X011268Y002952D01*
X011276Y003020D01*
X011280Y003089D01*
X011280Y003157D01*
X011276Y003226D01*
X011268Y003294D01*
X011257Y003362D01*
X011241Y003429D01*
X011222Y003495D01*
X011200Y003560D01*
X011173Y003624D01*
X011144Y003686D01*
X011110Y003746D01*
X011074Y003804D01*
X011034Y003860D01*
X010991Y003914D01*
X010946Y003965D01*
X010897Y004014D01*
X010846Y004060D01*
X010792Y004103D01*
X010736Y004143D01*
X010678Y004180D01*
X010618Y004213D01*
X010556Y004243D01*
X010493Y004270D01*
X010428Y004293D01*
X010428Y004292D01*
X010493Y004269D01*
X010556Y004242D01*
X010618Y004212D01*
X010678Y004179D01*
X010736Y004142D01*
X010792Y004102D01*
X010845Y004059D01*
X010897Y004013D01*
X010945Y003965D01*
X010991Y003913D01*
X011033Y003860D01*
X011073Y003804D01*
X011110Y003745D01*
X011143Y003685D01*
X011172Y003623D01*
X011199Y003560D01*
X011221Y003495D01*
X011240Y003429D01*
X011256Y003362D01*
X011267Y003294D01*
X011275Y003226D01*
X011279Y003157D01*
X011279Y003089D01*
X011275Y003020D01*
X011267Y002952D01*
X011256Y002884D01*
X011240Y002817D01*
X011221Y002751D01*
X011199Y002686D01*
X011172Y002623D01*
X011143Y002561D01*
X011110Y002501D01*
X011073Y002442D01*
X011033Y002386D01*
X010991Y002333D01*
X010945Y002281D01*
X010897Y002233D01*
X010845Y002187D01*
X010792Y002144D01*
X010736Y002104D01*
X010678Y002067D01*
X010618Y002034D01*
X010556Y002004D01*
X010493Y001977D01*
X010428Y001954D01*
X010428Y001955D01*
X010492Y001978D01*
X010556Y002005D01*
X010617Y002035D01*
X010677Y002068D01*
X010735Y002105D01*
X010791Y002144D01*
X010845Y002187D01*
X010896Y002233D01*
X010944Y002282D01*
X010990Y002333D01*
X011033Y002387D01*
X011072Y002443D01*
X011109Y002501D01*
X011142Y002561D01*
X011172Y002623D01*
X011198Y002687D01*
X011220Y002751D01*
X011239Y002817D01*
X011255Y002884D01*
X011266Y002952D01*
X011274Y003020D01*
X011278Y003089D01*
X011278Y003157D01*
X011274Y003226D01*
X011266Y003294D01*
X011255Y003362D01*
X011239Y003429D01*
X011220Y003495D01*
X011198Y003559D01*
X011172Y003623D01*
X011142Y003685D01*
X011109Y003745D01*
X011072Y003803D01*
X011033Y003859D01*
X010990Y003913D01*
X010944Y003964D01*
X010896Y004013D01*
X010845Y004059D01*
X010791Y004102D01*
X010735Y004141D01*
X010677Y004178D01*
X010617Y004211D01*
X010556Y004241D01*
X010492Y004268D01*
X010428Y004291D01*
X010427Y004290D01*
X010492Y004267D01*
X010555Y004241D01*
X010617Y004211D01*
X010677Y004177D01*
X010735Y004141D01*
X010791Y004101D01*
X010844Y004058D01*
X010895Y004012D01*
X010944Y003963D01*
X010989Y003912D01*
X011032Y003859D01*
X011071Y003803D01*
X011108Y003744D01*
X011141Y003684D01*
X011171Y003622D01*
X011197Y003559D01*
X011219Y003494D01*
X011238Y003428D01*
X011254Y003362D01*
X011265Y003294D01*
X011273Y003226D01*
X011277Y003157D01*
X011277Y003089D01*
X011273Y003020D01*
X011265Y002952D01*
X011254Y002884D01*
X011238Y002818D01*
X011219Y002752D01*
X011197Y002687D01*
X011171Y002624D01*
X011141Y002562D01*
X011108Y002502D01*
X011071Y002443D01*
X011032Y002387D01*
X010989Y002334D01*
X010944Y002283D01*
X010895Y002234D01*
X010844Y002188D01*
X010791Y002145D01*
X010735Y002105D01*
X010677Y002069D01*
X010617Y002035D01*
X010555Y002005D01*
X010492Y001979D01*
X010427Y001956D01*
X010427Y001957D01*
X010492Y001980D01*
X010555Y002006D01*
X010616Y002036D01*
X010676Y002070D01*
X010734Y002106D01*
X010790Y002146D01*
X010844Y002189D01*
X010895Y002235D01*
X010943Y002283D01*
X010988Y002334D01*
X011031Y002388D01*
X011071Y002444D01*
X011107Y002502D01*
X011140Y002562D01*
X011170Y002624D01*
X011196Y002687D01*
X011218Y002752D01*
X011237Y002818D01*
X011253Y002885D01*
X011264Y002952D01*
X011272Y003020D01*
X011276Y003089D01*
X011276Y003157D01*
X011272Y003226D01*
X011264Y003294D01*
X011253Y003361D01*
X011237Y003428D01*
X011218Y003494D01*
X011196Y003559D01*
X011170Y003622D01*
X011140Y003684D01*
X011107Y003744D01*
X011071Y003802D01*
X011031Y003858D01*
X010988Y003912D01*
X010943Y003963D01*
X010895Y004011D01*
X010844Y004057D01*
X010790Y004100D01*
X010734Y004140D01*
X010676Y004176D01*
X010616Y004210D01*
X010555Y004240D01*
X010492Y004266D01*
X010427Y004289D01*
X010427Y004288D01*
X010491Y004265D01*
X010554Y004239D01*
X010616Y004209D01*
X010676Y004176D01*
X010734Y004139D01*
X010789Y004099D01*
X010843Y004056D01*
X010894Y004011D01*
X010942Y003962D01*
X010988Y003911D01*
X011030Y003857D01*
X011070Y003801D01*
X011106Y003743D01*
X011139Y003683D01*
X011169Y003622D01*
X011195Y003558D01*
X011218Y003494D01*
X011236Y003428D01*
X011252Y003361D01*
X011263Y003294D01*
X011271Y003226D01*
X011275Y003157D01*
X011275Y003089D01*
X011271Y003020D01*
X011263Y002952D01*
X011252Y002885D01*
X011236Y002818D01*
X011218Y002752D01*
X011195Y002688D01*
X011169Y002624D01*
X011139Y002563D01*
X011106Y002503D01*
X011070Y002445D01*
X011030Y002389D01*
X010988Y002335D01*
X010942Y002284D01*
X010894Y002235D01*
X010843Y002190D01*
X010789Y002147D01*
X010734Y002107D01*
X010676Y002070D01*
X010616Y002037D01*
X010554Y002007D01*
X010491Y001981D01*
X010427Y001958D01*
X010426Y001959D01*
X010491Y001982D01*
X010554Y002008D01*
X010616Y002038D01*
X010675Y002071D01*
X010733Y002108D01*
X010789Y002148D01*
X010842Y002190D01*
X010893Y002236D01*
X010941Y002285D01*
X010987Y002336D01*
X011029Y002389D01*
X011069Y002445D01*
X011105Y002503D01*
X011138Y002563D01*
X011168Y002625D01*
X011194Y002688D01*
X011217Y002753D01*
X011235Y002818D01*
X011251Y002885D01*
X011262Y002952D01*
X011270Y003020D01*
X011274Y003089D01*
X011274Y003157D01*
X011270Y003226D01*
X011262Y003294D01*
X011251Y003361D01*
X011235Y003428D01*
X011217Y003493D01*
X011194Y003558D01*
X011168Y003621D01*
X011138Y003683D01*
X011105Y003743D01*
X011069Y003801D01*
X011029Y003857D01*
X010987Y003910D01*
X010941Y003961D01*
X010893Y004010D01*
X010842Y004056D01*
X010789Y004098D01*
X010733Y004138D01*
X010675Y004175D01*
X010616Y004208D01*
X010554Y004238D01*
X010491Y004264D01*
X010426Y004287D01*
X010426Y004286D01*
X010491Y004263D01*
X010554Y004237D01*
X010615Y004207D01*
X010675Y004174D01*
X010733Y004137D01*
X010788Y004098D01*
X010842Y004055D01*
X010892Y004009D01*
X010941Y003961D01*
X010986Y003910D01*
X011029Y003856D01*
X011068Y003800D01*
X011104Y003742D01*
X011137Y003682D01*
X011167Y003621D01*
X011193Y003558D01*
X011216Y003493D01*
X011234Y003427D01*
X011250Y003361D01*
X011261Y003293D01*
X011269Y003225D01*
X011273Y003157D01*
X011273Y003089D01*
X011269Y003021D01*
X011261Y002953D01*
X011250Y002885D01*
X011234Y002819D01*
X011216Y002753D01*
X011193Y002688D01*
X011167Y002625D01*
X011137Y002564D01*
X011104Y002504D01*
X011068Y002446D01*
X011029Y002390D01*
X010986Y002336D01*
X010941Y002285D01*
X010892Y002237D01*
X010842Y002191D01*
X010788Y002148D01*
X010733Y002109D01*
X010675Y002072D01*
X010615Y002039D01*
X010554Y002009D01*
X010491Y001983D01*
X010426Y001960D01*
X010426Y001961D01*
X010490Y001984D01*
X010553Y002010D01*
X010615Y002040D01*
X010674Y002073D01*
X010732Y002110D01*
X010788Y002149D01*
X010841Y002192D01*
X010892Y002238D01*
X010940Y002286D01*
X010985Y002337D01*
X011028Y002390D01*
X011067Y002446D01*
X011104Y002504D01*
X011137Y002564D01*
X011166Y002626D01*
X011192Y002689D01*
X011215Y002753D01*
X011234Y002819D01*
X011249Y002885D01*
X011260Y002953D01*
X011268Y003021D01*
X011272Y003089D01*
X011272Y003157D01*
X011268Y003225D01*
X011260Y003293D01*
X011249Y003361D01*
X011234Y003427D01*
X011215Y003493D01*
X011192Y003557D01*
X011166Y003620D01*
X011137Y003682D01*
X011104Y003742D01*
X011067Y003800D01*
X011028Y003856D01*
X010985Y003909D01*
X010940Y003960D01*
X010892Y004008D01*
X010841Y004054D01*
X010788Y004097D01*
X010732Y004136D01*
X010674Y004173D01*
X010615Y004206D01*
X010553Y004236D01*
X010490Y004262D01*
X010426Y004285D01*
X010425Y004284D01*
X010490Y004261D01*
X010553Y004235D01*
X010614Y004205D01*
X010674Y004172D01*
X010731Y004136D01*
X010787Y004096D01*
X010840Y004053D01*
X010891Y004008D01*
X010939Y003959D01*
X010985Y003908D01*
X011027Y003855D01*
X011066Y003799D01*
X011103Y003741D01*
X011136Y003682D01*
X011165Y003620D01*
X011191Y003557D01*
X011214Y003493D01*
X011233Y003427D01*
X011248Y003360D01*
X011259Y003293D01*
X011267Y003225D01*
X011271Y003157D01*
X011271Y003089D01*
X011267Y003021D01*
X011259Y002953D01*
X011248Y002886D01*
X011233Y002819D01*
X011214Y002753D01*
X011191Y002689D01*
X011165Y002626D01*
X011136Y002564D01*
X011103Y002505D01*
X011066Y002447D01*
X011027Y002391D01*
X010985Y002338D01*
X010939Y002287D01*
X010891Y002238D01*
X010840Y002193D01*
X010787Y002150D01*
X010731Y002110D01*
X010674Y002074D01*
X010614Y002041D01*
X010553Y002011D01*
X010490Y001985D01*
X010425Y001962D01*
X010425Y001963D01*
X010489Y001986D01*
X010552Y002012D01*
X010614Y002042D01*
X010673Y002075D01*
X010731Y002111D01*
X010786Y002151D01*
X010840Y002193D01*
X010890Y002239D01*
X010939Y002287D01*
X010984Y002338D01*
X011026Y002392D01*
X011066Y002447D01*
X011102Y002505D01*
X011135Y002565D01*
X011164Y002626D01*
X011190Y002689D01*
X011213Y002754D01*
X011232Y002819D01*
X011247Y002886D01*
X011258Y002953D01*
X011266Y003021D01*
X011270Y003089D01*
X011270Y003157D01*
X011266Y003225D01*
X011258Y003293D01*
X011247Y003360D01*
X011232Y003427D01*
X011213Y003492D01*
X011190Y003557D01*
X011164Y003620D01*
X011135Y003681D01*
X011102Y003741D01*
X011066Y003799D01*
X011026Y003854D01*
X010984Y003908D01*
X010939Y003959D01*
X010890Y004007D01*
X010840Y004053D01*
X010786Y004095D01*
X010731Y004135D01*
X010673Y004171D01*
X010614Y004204D01*
X010552Y004234D01*
X010489Y004260D01*
X010425Y004283D01*
X010425Y004282D01*
X010489Y004259D01*
X010552Y004233D01*
X010613Y004203D01*
X010673Y004170D01*
X010730Y004134D01*
X010786Y004094D01*
X010839Y004052D01*
X010890Y004006D01*
X010938Y003958D01*
X010983Y003907D01*
X011025Y003854D01*
X011065Y003798D01*
X011101Y003740D01*
X011134Y003681D01*
X011163Y003619D01*
X011189Y003556D01*
X011212Y003492D01*
X011231Y003426D01*
X011246Y003360D01*
X011257Y003293D01*
X011265Y003225D01*
X011269Y003157D01*
X011269Y003089D01*
X011265Y003021D01*
X011257Y002953D01*
X011246Y002886D01*
X011231Y002820D01*
X011212Y002754D01*
X011189Y002690D01*
X011163Y002627D01*
X011134Y002565D01*
X011101Y002506D01*
X011065Y002448D01*
X011025Y002392D01*
X010983Y002339D01*
X010938Y002288D01*
X010890Y002240D01*
X010839Y002194D01*
X010786Y002152D01*
X010730Y002112D01*
X010673Y002076D01*
X010613Y002043D01*
X010552Y002013D01*
X010489Y001987D01*
X010425Y001964D01*
X010425Y001965D01*
X010489Y001987D01*
X010552Y002014D01*
X010613Y002043D01*
X010672Y002077D01*
X010730Y002113D01*
X010785Y002152D01*
X010838Y002195D01*
X010889Y002240D01*
X010937Y002289D01*
X010982Y002340D01*
X011025Y002393D01*
X011064Y002448D01*
X011100Y002506D01*
X011133Y002566D01*
X011162Y002627D01*
X011188Y002690D01*
X011211Y002754D01*
X011230Y002820D01*
X011245Y002886D01*
X011256Y002953D01*
X011264Y003021D01*
X011268Y003089D01*
X011268Y003157D01*
X011264Y003225D01*
X011256Y003293D01*
X011245Y003360D01*
X011230Y003426D01*
X011211Y003492D01*
X011188Y003556D01*
X011162Y003619D01*
X011133Y003680D01*
X011100Y003740D01*
X011064Y003798D01*
X011025Y003853D01*
X010982Y003906D01*
X010937Y003957D01*
X010889Y004006D01*
X010838Y004051D01*
X010785Y004094D01*
X010730Y004133D01*
X010672Y004169D01*
X010613Y004203D01*
X010552Y004232D01*
X010489Y004259D01*
X010425Y004281D01*
X010424Y004280D01*
X010488Y004258D01*
X010551Y004231D01*
X010612Y004202D01*
X010672Y004169D01*
X010729Y004132D01*
X010785Y004093D01*
X010838Y004050D01*
X010888Y004005D01*
X010936Y003957D01*
X010982Y003906D01*
X011024Y003853D01*
X011063Y003797D01*
X011099Y003739D01*
X011132Y003680D01*
X011162Y003618D01*
X011187Y003556D01*
X011210Y003491D01*
X011229Y003426D01*
X011244Y003360D01*
X011255Y003293D01*
X011263Y003225D01*
X011267Y003157D01*
X011267Y003089D01*
X011263Y003021D01*
X011255Y002953D01*
X011244Y002886D01*
X011229Y002820D01*
X011210Y002755D01*
X011187Y002690D01*
X011162Y002628D01*
X011132Y002566D01*
X011099Y002507D01*
X011063Y002449D01*
X011024Y002393D01*
X010982Y002340D01*
X010936Y002289D01*
X010888Y002241D01*
X010838Y002196D01*
X010785Y002153D01*
X010729Y002114D01*
X010672Y002077D01*
X010612Y002044D01*
X010551Y002015D01*
X010488Y001988D01*
X010424Y001966D01*
X010424Y001967D01*
X010488Y001989D01*
X010551Y002016D01*
X010612Y002045D01*
X010671Y002078D01*
X010729Y002115D01*
X010784Y002154D01*
X010837Y002197D01*
X010888Y002242D01*
X010936Y002290D01*
X010981Y002341D01*
X011023Y002394D01*
X011062Y002450D01*
X011098Y002507D01*
X011131Y002567D01*
X011161Y002628D01*
X011187Y002691D01*
X011209Y002755D01*
X011228Y002820D01*
X011243Y002887D01*
X011254Y002954D01*
X011262Y003021D01*
X011266Y003089D01*
X011266Y003157D01*
X011262Y003225D01*
X011254Y003292D01*
X011243Y003359D01*
X011228Y003426D01*
X011209Y003491D01*
X011187Y003555D01*
X011161Y003618D01*
X011131Y003679D01*
X011098Y003739D01*
X011062Y003796D01*
X011023Y003852D01*
X010981Y003905D01*
X010936Y003956D01*
X010888Y004004D01*
X010837Y004049D01*
X010784Y004092D01*
X010729Y004131D01*
X010671Y004168D01*
X010612Y004201D01*
X010551Y004230D01*
X010488Y004257D01*
X010424Y004279D01*
X010424Y004278D01*
X010488Y004256D01*
X010550Y004230D01*
X010611Y004200D01*
X010671Y004167D01*
X010728Y004131D01*
X010783Y004091D01*
X010836Y004049D01*
X010887Y004003D01*
X010935Y003955D01*
X010980Y003904D01*
X011022Y003851D01*
X011061Y003796D01*
X011098Y003738D01*
X011130Y003679D01*
X011160Y003618D01*
X011186Y003555D01*
X011208Y003491D01*
X011227Y003425D01*
X011242Y003359D01*
X011253Y003292D01*
X011261Y003225D01*
X011265Y003157D01*
X011265Y003089D01*
X011261Y003021D01*
X011253Y002954D01*
X011242Y002887D01*
X011227Y002821D01*
X011208Y002755D01*
X011186Y002691D01*
X011160Y002628D01*
X011130Y002567D01*
X011098Y002508D01*
X011061Y002450D01*
X011022Y002395D01*
X010980Y002342D01*
X010935Y002291D01*
X010887Y002243D01*
X010836Y002197D01*
X010783Y002155D01*
X010728Y002115D01*
X010671Y002079D01*
X010611Y002046D01*
X010550Y002016D01*
X010488Y001990D01*
X010424Y001968D01*
X010423Y001969D01*
X010487Y001991D01*
X010550Y002017D01*
X010611Y002047D01*
X010670Y002080D01*
X010728Y002116D01*
X010783Y002156D01*
X010836Y002198D01*
X010886Y002243D01*
X010934Y002291D01*
X010979Y002342D01*
X011021Y002395D01*
X011061Y002451D01*
X011097Y002508D01*
X011129Y002568D01*
X011159Y002629D01*
X011185Y002692D01*
X011207Y002756D01*
X011226Y002821D01*
X011241Y002887D01*
X011252Y002954D01*
X011260Y003021D01*
X011264Y003089D01*
X011264Y003157D01*
X011260Y003225D01*
X011252Y003292D01*
X011241Y003359D01*
X011226Y003425D01*
X011207Y003490D01*
X011185Y003554D01*
X011159Y003617D01*
X011129Y003678D01*
X011097Y003738D01*
X011061Y003795D01*
X011021Y003851D01*
X010979Y003904D01*
X010934Y003955D01*
X010886Y004003D01*
X010836Y004048D01*
X010783Y004090D01*
X010728Y004130D01*
X010670Y004166D01*
X010611Y004199D01*
X010550Y004229D01*
X010487Y004255D01*
X010423Y004277D01*
X010487Y004254D01*
X010549Y004228D01*
X010610Y004198D01*
X010670Y004165D01*
X010727Y004129D01*
X010782Y004090D01*
X010835Y004047D01*
X010886Y004002D01*
X010933Y003954D01*
X010978Y003903D01*
X011021Y003850D01*
X011060Y003795D01*
X011096Y003737D01*
X011129Y003678D01*
X011158Y003617D01*
X011184Y003554D01*
X011206Y003490D01*
X011225Y003425D01*
X011240Y003359D01*
X011251Y003292D01*
X011259Y003225D01*
X011263Y003157D01*
X011263Y003089D01*
X011259Y003021D01*
X011251Y002954D01*
X011240Y002887D01*
X011225Y002821D01*
X011206Y002756D01*
X011184Y002692D01*
X011158Y002629D01*
X011129Y002568D01*
X011096Y002509D01*
X011060Y002451D01*
X011021Y002396D01*
X010978Y002343D01*
X010933Y002292D01*
X010886Y002244D01*
X010835Y002199D01*
X010782Y002156D01*
X010727Y002117D01*
X010670Y002081D01*
X010610Y002048D01*
X010549Y002018D01*
X010487Y001992D01*
X010423Y001969D01*
X010423Y001970D01*
X010487Y001993D01*
X010549Y002019D01*
X010610Y002049D01*
X010669Y002082D01*
X010726Y002118D01*
X010782Y002157D01*
X010834Y002200D01*
X010885Y002245D01*
X010933Y002293D01*
X010978Y002343D01*
X011020Y002396D01*
X011059Y002452D01*
X011095Y002509D01*
X011128Y002569D01*
X011157Y002630D01*
X011183Y002692D01*
X011205Y002756D01*
X011224Y002821D01*
X011239Y002887D01*
X011250Y002954D01*
X011258Y003021D01*
X011262Y003089D01*
X011262Y003157D01*
X011258Y003225D01*
X011250Y003292D01*
X011239Y003359D01*
X011224Y003425D01*
X011205Y003490D01*
X011183Y003554D01*
X011157Y003616D01*
X011128Y003677D01*
X011095Y003737D01*
X011059Y003794D01*
X011020Y003850D01*
X010978Y003903D01*
X010933Y003953D01*
X010885Y004001D01*
X010834Y004046D01*
X010782Y004089D01*
X010726Y004128D01*
X010669Y004164D01*
X010610Y004197D01*
X010549Y004227D01*
X010487Y004253D01*
X010423Y004276D01*
X010422Y004275D01*
X010486Y004252D01*
X010549Y004226D01*
X010610Y004196D01*
X010669Y004163D01*
X010726Y004127D01*
X010781Y004088D01*
X010834Y004046D01*
X010884Y004000D01*
X010932Y003952D01*
X010977Y003902D01*
X011019Y003849D01*
X011058Y003794D01*
X011094Y003736D01*
X011127Y003677D01*
X011156Y003616D01*
X011182Y003553D01*
X011204Y003489D01*
X011223Y003424D01*
X011238Y003358D01*
X011249Y003292D01*
X011257Y003224D01*
X011261Y003157D01*
X011261Y003089D01*
X011257Y003022D01*
X011249Y002954D01*
X011238Y002888D01*
X011223Y002822D01*
X011204Y002757D01*
X011182Y002693D01*
X011156Y002630D01*
X011127Y002569D01*
X011094Y002510D01*
X011058Y002452D01*
X011019Y002397D01*
X010977Y002344D01*
X010932Y002294D01*
X010884Y002246D01*
X010834Y002200D01*
X010781Y002158D01*
X010726Y002119D01*
X010669Y002083D01*
X010610Y002050D01*
X010549Y002020D01*
X010486Y001994D01*
X010422Y001971D01*
X010422Y001972D01*
X010486Y001995D01*
X010548Y002021D01*
X010609Y002051D01*
X010668Y002083D01*
X010725Y002120D01*
X010780Y002159D01*
X010833Y002201D01*
X010884Y002246D01*
X010931Y002294D01*
X010976Y002345D01*
X011018Y002398D01*
X011057Y002453D01*
X011093Y002510D01*
X011126Y002569D01*
X011155Y002630D01*
X011181Y002693D01*
X011203Y002757D01*
X011222Y002822D01*
X011237Y002888D01*
X011248Y002954D01*
X011256Y003022D01*
X011260Y003089D01*
X011260Y003157D01*
X011256Y003224D01*
X011248Y003292D01*
X011237Y003358D01*
X011222Y003424D01*
X011203Y003489D01*
X011181Y003553D01*
X011155Y003616D01*
X011126Y003677D01*
X011093Y003736D01*
X011057Y003793D01*
X011018Y003848D01*
X010976Y003901D01*
X010931Y003952D01*
X010884Y004000D01*
X010833Y004045D01*
X010780Y004087D01*
X010725Y004126D01*
X010668Y004163D01*
X010609Y004195D01*
X010548Y004225D01*
X010486Y004251D01*
X010422Y004274D01*
X010422Y004273D01*
X010485Y004250D01*
X010548Y004224D01*
X010609Y004195D01*
X010668Y004162D01*
X010725Y004126D01*
X010780Y004086D01*
X010833Y004044D01*
X010883Y003999D01*
X010931Y003951D01*
X010975Y003901D01*
X011017Y003848D01*
X011056Y003793D01*
X011092Y003735D01*
X011125Y003676D01*
X011154Y003615D01*
X011180Y003553D01*
X011202Y003489D01*
X011221Y003424D01*
X011236Y003358D01*
X011247Y003291D01*
X011255Y003224D01*
X011259Y003157D01*
X011259Y003089D01*
X011255Y003022D01*
X011247Y002955D01*
X011236Y002888D01*
X011221Y002822D01*
X011202Y002757D01*
X011180Y002693D01*
X011154Y002631D01*
X011125Y002570D01*
X011092Y002511D01*
X011056Y002453D01*
X011017Y002398D01*
X010975Y002345D01*
X010931Y002295D01*
X010883Y002247D01*
X010833Y002202D01*
X010780Y002160D01*
X010725Y002120D01*
X010668Y002084D01*
X010609Y002051D01*
X010548Y002022D01*
X010485Y001996D01*
X010422Y001973D01*
X010421Y001974D01*
X010485Y001997D01*
X010547Y002023D01*
X010608Y002052D01*
X010667Y002085D01*
X010724Y002121D01*
X010779Y002160D01*
X010832Y002203D01*
X010882Y002248D01*
X010930Y002296D01*
X010975Y002346D01*
X011017Y002399D01*
X011056Y002454D01*
X011091Y002511D01*
X011124Y002570D01*
X011153Y002631D01*
X011179Y002694D01*
X011201Y002757D01*
X011220Y002822D01*
X011235Y002888D01*
X011246Y002955D01*
X011254Y003022D01*
X011258Y003089D01*
X011258Y003157D01*
X011254Y003224D01*
X011246Y003291D01*
X011235Y003358D01*
X011220Y003424D01*
X011201Y003489D01*
X011179Y003552D01*
X011153Y003615D01*
X011124Y003676D01*
X011091Y003735D01*
X011056Y003792D01*
X011017Y003847D01*
X010975Y003900D01*
X010930Y003950D01*
X010882Y003998D01*
X010832Y004043D01*
X010779Y004086D01*
X010724Y004125D01*
X010667Y004161D01*
X010608Y004194D01*
X010547Y004223D01*
X010485Y004249D01*
X010421Y004272D01*
X010421Y004271D01*
X010485Y004248D01*
X010547Y004222D01*
X010608Y004193D01*
X010667Y004160D01*
X010724Y004124D01*
X010779Y004085D01*
X010831Y004043D01*
X010881Y003998D01*
X010929Y003950D01*
X010974Y003899D01*
X011016Y003847D01*
X011055Y003791D01*
X011091Y003734D01*
X011123Y003675D01*
X011152Y003614D01*
X011178Y003552D01*
X011200Y003488D01*
X011219Y003423D01*
X011234Y003358D01*
X011245Y003291D01*
X011253Y003224D01*
X011257Y003157D01*
X011257Y003089D01*
X011253Y003022D01*
X011245Y002955D01*
X011234Y002888D01*
X011219Y002823D01*
X011200Y002758D01*
X011178Y002694D01*
X011152Y002632D01*
X011123Y002571D01*
X011091Y002512D01*
X011055Y002455D01*
X011016Y002399D01*
X010974Y002347D01*
X010929Y002296D01*
X010881Y002248D01*
X010831Y002203D01*
X010779Y002161D01*
X010724Y002122D01*
X010667Y002086D01*
X010608Y002053D01*
X010547Y002024D01*
X010485Y001998D01*
X010421Y001975D01*
X010421Y001976D01*
X010484Y001999D01*
X010547Y002025D01*
X010607Y002054D01*
X010666Y002087D01*
X010723Y002123D01*
X010778Y002162D01*
X010831Y002204D01*
X010881Y002249D01*
X010928Y002297D01*
X010973Y002347D01*
X011015Y002400D01*
X011054Y002455D01*
X011090Y002512D01*
X011122Y002571D01*
X011151Y002632D01*
X011177Y002694D01*
X011199Y002758D01*
X011218Y002823D01*
X011233Y002889D01*
X011244Y002955D01*
X011252Y003022D01*
X011256Y003089D01*
X011256Y003157D01*
X011252Y003224D01*
X011244Y003291D01*
X011233Y003357D01*
X011218Y003423D01*
X011199Y003488D01*
X011177Y003552D01*
X011151Y003614D01*
X011122Y003675D01*
X011090Y003734D01*
X011054Y003791D01*
X011015Y003846D01*
X010973Y003899D01*
X010928Y003949D01*
X010881Y003997D01*
X010831Y004042D01*
X010778Y004084D01*
X010723Y004123D01*
X010666Y004159D01*
X010607Y004192D01*
X010547Y004221D01*
X010484Y004247D01*
X010421Y004270D01*
X010421Y004269D01*
X010484Y004246D01*
X010546Y004220D01*
X010607Y004191D01*
X010666Y004158D01*
X010723Y004122D01*
X010777Y004083D01*
X010830Y004041D01*
X010880Y003996D01*
X010928Y003948D01*
X010972Y003898D01*
X011014Y003845D01*
X011053Y003790D01*
X011089Y003733D01*
X011121Y003674D01*
X011151Y003614D01*
X011176Y003551D01*
X011198Y003488D01*
X011217Y003423D01*
X011232Y003357D01*
X011243Y003291D01*
X011251Y003224D01*
X011255Y003157D01*
X011255Y003089D01*
X011251Y003022D01*
X011243Y002955D01*
X011232Y002889D01*
X011217Y002823D01*
X011198Y002758D01*
X011176Y002695D01*
X011151Y002632D01*
X011121Y002572D01*
X011089Y002513D01*
X011053Y002456D01*
X011014Y002401D01*
X010972Y002348D01*
X010928Y002298D01*
X010880Y002250D01*
X010830Y002205D01*
X010777Y002163D01*
X010723Y002124D01*
X010666Y002088D01*
X010607Y002055D01*
X010546Y002026D01*
X010484Y002000D01*
X010421Y001977D01*
X010420Y001978D01*
X010485Y002001D01*
X010549Y002028D01*
X010610Y002058D01*
X010670Y002092D01*
X010728Y002129D01*
X010784Y002169D01*
X010837Y002213D01*
X010888Y002259D01*
X010936Y002308D01*
X010981Y002360D01*
X011023Y002415D01*
X011062Y002472D01*
X011098Y002531D01*
X011130Y002591D01*
X011159Y002654D01*
X011184Y002718D01*
X011205Y002783D01*
X011223Y002850D01*
X011236Y002918D01*
X011246Y002986D01*
X011252Y003054D01*
X011254Y003123D01*
X011252Y003192D01*
X011246Y003260D01*
X011236Y003328D01*
X011223Y003396D01*
X011205Y003463D01*
X011184Y003528D01*
X011159Y003592D01*
X011130Y003655D01*
X011098Y003715D01*
X011062Y003774D01*
X011023Y003831D01*
X010981Y003886D01*
X010936Y003938D01*
X010888Y003987D01*
X010837Y004033D01*
X010784Y004077D01*
X010728Y004117D01*
X010670Y004154D01*
X010610Y004188D01*
X010549Y004218D01*
X010485Y004245D01*
X010420Y004268D01*
X010420Y004267D01*
X010485Y004244D01*
X010548Y004217D01*
X010610Y004187D01*
X010670Y004153D01*
X010728Y004116D01*
X010783Y004076D01*
X010837Y004033D01*
X010888Y003986D01*
X010936Y003937D01*
X010981Y003885D01*
X011023Y003831D01*
X011062Y003774D01*
X011097Y003715D01*
X011129Y003654D01*
X011158Y003592D01*
X011183Y003528D01*
X011204Y003462D01*
X011222Y003396D01*
X011235Y003328D01*
X011245Y003260D01*
X011251Y003192D01*
X011253Y003123D01*
X011251Y003054D01*
X011245Y002986D01*
X011235Y002918D01*
X011222Y002850D01*
X011204Y002784D01*
X011183Y002718D01*
X011158Y002654D01*
X011129Y002592D01*
X011097Y002531D01*
X011062Y002472D01*
X011023Y002415D01*
X010981Y002361D01*
X010936Y002309D01*
X010888Y002260D01*
X010837Y002213D01*
X010783Y002170D01*
X010728Y002130D01*
X010670Y002093D01*
X010610Y002059D01*
X010548Y002029D01*
X010485Y002002D01*
X010420Y001979D01*
X009671Y004303D02*
X009683Y004266D01*
X009682Y004266D02*
X009618Y004243D01*
X009554Y004216D01*
X009493Y004186D01*
X009433Y004153D01*
X009375Y004116D01*
X009319Y004075D01*
X009266Y004032D01*
X009215Y003985D01*
X009167Y003936D01*
X009122Y003884D01*
X009080Y003830D01*
X009041Y003773D01*
X009006Y003715D01*
X008974Y003654D01*
X008945Y003591D01*
X008920Y003527D01*
X008899Y003462D01*
X008881Y003395D01*
X008868Y003328D01*
X008858Y003260D01*
X008852Y003192D01*
X008850Y003123D01*
X008852Y003054D01*
X008858Y002986D01*
X008868Y002918D01*
X008881Y002851D01*
X008899Y002784D01*
X008920Y002719D01*
X008945Y002655D01*
X008974Y002592D01*
X009006Y002531D01*
X009041Y002473D01*
X009080Y002416D01*
X009122Y002362D01*
X009167Y002310D01*
X009215Y002261D01*
X009266Y002214D01*
X009319Y002171D01*
X009375Y002130D01*
X009433Y002093D01*
X009493Y002060D01*
X009554Y002030D01*
X009618Y002003D01*
X009682Y001980D01*
X009671Y001943D01*
X009670Y001943D01*
X009605Y001966D01*
X009541Y001993D01*
X009479Y002023D01*
X009418Y002057D01*
X009359Y002094D01*
X009303Y002134D01*
X009249Y002177D01*
X009197Y002224D01*
X009148Y002273D01*
X009102Y002325D01*
X009059Y002379D01*
X009019Y002436D01*
X008982Y002495D01*
X008949Y002555D01*
X008919Y002618D01*
X008892Y002682D01*
X008869Y002747D01*
X008850Y002814D01*
X008835Y002882D01*
X008823Y002950D01*
X008815Y003019D01*
X008811Y003088D01*
X008811Y003158D01*
X008815Y003227D01*
X008823Y003296D01*
X008835Y003364D01*
X008850Y003432D01*
X008869Y003499D01*
X008892Y003564D01*
X008919Y003628D01*
X008949Y003691D01*
X008982Y003751D01*
X009019Y003810D01*
X009059Y003867D01*
X009102Y003921D01*
X009148Y003973D01*
X009197Y004022D01*
X009249Y004069D01*
X009303Y004112D01*
X009359Y004152D01*
X009418Y004189D01*
X009479Y004223D01*
X009541Y004253D01*
X009605Y004280D01*
X009670Y004303D01*
X009671Y004302D01*
X009605Y004279D01*
X009541Y004252D01*
X009479Y004222D01*
X009419Y004188D01*
X009360Y004151D01*
X009304Y004111D01*
X009249Y004068D01*
X009198Y004021D01*
X009149Y003972D01*
X009103Y003921D01*
X009060Y003866D01*
X009020Y003810D01*
X008983Y003751D01*
X008949Y003690D01*
X008919Y003628D01*
X008893Y003564D01*
X008870Y003498D01*
X008851Y003432D01*
X008836Y003364D01*
X008824Y003296D01*
X008816Y003227D01*
X008812Y003158D01*
X008812Y003088D01*
X008816Y003019D01*
X008824Y002950D01*
X008836Y002882D01*
X008851Y002814D01*
X008870Y002748D01*
X008893Y002682D01*
X008919Y002618D01*
X008949Y002556D01*
X008983Y002495D01*
X009020Y002436D01*
X009060Y002380D01*
X009103Y002325D01*
X009149Y002274D01*
X009198Y002225D01*
X009249Y002178D01*
X009304Y002135D01*
X009360Y002095D01*
X009419Y002058D01*
X009479Y002024D01*
X009541Y001994D01*
X009605Y001967D01*
X009671Y001944D01*
X009671Y001945D01*
X009606Y001968D01*
X009542Y001995D01*
X009480Y002025D01*
X009419Y002058D01*
X009360Y002095D01*
X009304Y002136D01*
X009250Y002179D01*
X009199Y002225D01*
X009150Y002274D01*
X009104Y002326D01*
X009061Y002380D01*
X009021Y002437D01*
X008984Y002496D01*
X008950Y002556D01*
X008920Y002619D01*
X008894Y002683D01*
X008871Y002748D01*
X008852Y002815D01*
X008837Y002882D01*
X008825Y002950D01*
X008817Y003019D01*
X008813Y003088D01*
X008813Y003158D01*
X008817Y003227D01*
X008825Y003296D01*
X008837Y003364D01*
X008852Y003431D01*
X008871Y003498D01*
X008894Y003563D01*
X008920Y003627D01*
X008950Y003690D01*
X008984Y003750D01*
X009021Y003809D01*
X009061Y003866D01*
X009104Y003920D01*
X009150Y003972D01*
X009199Y004021D01*
X009250Y004067D01*
X009304Y004110D01*
X009360Y004151D01*
X009419Y004188D01*
X009480Y004221D01*
X009542Y004251D01*
X009606Y004278D01*
X009671Y004301D01*
X009671Y004300D01*
X009606Y004277D01*
X009542Y004251D01*
X009480Y004220D01*
X009420Y004187D01*
X009361Y004150D01*
X009305Y004110D01*
X009251Y004066D01*
X009199Y004020D01*
X009150Y003971D01*
X009104Y003919D01*
X009061Y003865D01*
X009021Y003809D01*
X008985Y003750D01*
X008951Y003689D01*
X008921Y003627D01*
X008895Y003563D01*
X008872Y003498D01*
X008853Y003431D01*
X008838Y003364D01*
X008826Y003295D01*
X008818Y003227D01*
X008814Y003158D01*
X008814Y003088D01*
X008818Y003019D01*
X008826Y002951D01*
X008838Y002882D01*
X008853Y002815D01*
X008872Y002748D01*
X008895Y002683D01*
X008921Y002619D01*
X008951Y002557D01*
X008985Y002496D01*
X009021Y002437D01*
X009061Y002381D01*
X009104Y002327D01*
X009150Y002275D01*
X009199Y002226D01*
X009251Y002180D01*
X009305Y002136D01*
X009361Y002096D01*
X009420Y002059D01*
X009480Y002026D01*
X009542Y001995D01*
X009606Y001969D01*
X009671Y001946D01*
X009672Y001947D01*
X009606Y001970D01*
X009543Y001996D01*
X009480Y002027D01*
X009420Y002060D01*
X009362Y002097D01*
X009305Y002137D01*
X009251Y002181D01*
X009200Y002227D01*
X009151Y002276D01*
X009105Y002327D01*
X009062Y002381D01*
X009022Y002438D01*
X008986Y002497D01*
X008952Y002557D01*
X008922Y002619D01*
X008896Y002683D01*
X008873Y002749D01*
X008854Y002815D01*
X008839Y002883D01*
X008827Y002951D01*
X008819Y003019D01*
X008815Y003088D01*
X008815Y003158D01*
X008819Y003227D01*
X008827Y003295D01*
X008839Y003363D01*
X008854Y003431D01*
X008873Y003497D01*
X008896Y003563D01*
X008922Y003627D01*
X008952Y003689D01*
X008986Y003749D01*
X009022Y003808D01*
X009062Y003865D01*
X009105Y003919D01*
X009151Y003970D01*
X009200Y004019D01*
X009251Y004065D01*
X009305Y004109D01*
X009362Y004149D01*
X009420Y004186D01*
X009480Y004219D01*
X009543Y004250D01*
X009606Y004276D01*
X009672Y004299D01*
X009672Y004298D01*
X009607Y004275D01*
X009543Y004249D01*
X009481Y004219D01*
X009421Y004185D01*
X009362Y004148D01*
X009306Y004108D01*
X009252Y004065D01*
X009201Y004019D01*
X009152Y003970D01*
X009106Y003918D01*
X009063Y003864D01*
X009023Y003807D01*
X008986Y003749D01*
X008953Y003688D01*
X008923Y003626D01*
X008897Y003562D01*
X008874Y003497D01*
X008855Y003431D01*
X008840Y003363D01*
X008828Y003295D01*
X008820Y003227D01*
X008816Y003158D01*
X008816Y003088D01*
X008820Y003019D01*
X008828Y002951D01*
X008840Y002883D01*
X008855Y002815D01*
X008874Y002749D01*
X008897Y002684D01*
X008923Y002620D01*
X008953Y002558D01*
X008986Y002497D01*
X009023Y002439D01*
X009063Y002382D01*
X009106Y002328D01*
X009152Y002276D01*
X009201Y002227D01*
X009252Y002181D01*
X009306Y002138D01*
X009362Y002098D01*
X009421Y002061D01*
X009481Y002027D01*
X009543Y001997D01*
X009607Y001971D01*
X009672Y001948D01*
X009672Y001949D01*
X009607Y001972D01*
X009543Y001998D01*
X009481Y002028D01*
X009421Y002062D01*
X009363Y002099D01*
X009307Y002139D01*
X009253Y002182D01*
X009201Y002228D01*
X009153Y002277D01*
X009107Y002329D01*
X009064Y002383D01*
X009024Y002439D01*
X008987Y002498D01*
X008954Y002558D01*
X008924Y002620D01*
X008898Y002684D01*
X008875Y002749D01*
X008856Y002816D01*
X008841Y002883D01*
X008829Y002951D01*
X008821Y003020D01*
X008817Y003088D01*
X008817Y003158D01*
X008821Y003226D01*
X008829Y003295D01*
X008841Y003363D01*
X008856Y003430D01*
X008875Y003497D01*
X008898Y003562D01*
X008924Y003626D01*
X008954Y003688D01*
X008987Y003748D01*
X009024Y003807D01*
X009064Y003863D01*
X009107Y003917D01*
X009153Y003969D01*
X009201Y004018D01*
X009253Y004064D01*
X009307Y004107D01*
X009363Y004147D01*
X009421Y004184D01*
X009481Y004218D01*
X009543Y004248D01*
X009607Y004274D01*
X009672Y004297D01*
X009673Y004296D01*
X009608Y004273D01*
X009544Y004247D01*
X009482Y004217D01*
X009422Y004183D01*
X009363Y004146D01*
X009307Y004106D01*
X009253Y004063D01*
X009202Y004017D01*
X009153Y003968D01*
X009107Y003917D01*
X009065Y003863D01*
X009025Y003806D01*
X008988Y003748D01*
X008955Y003688D01*
X008925Y003625D01*
X008899Y003562D01*
X008876Y003496D01*
X008857Y003430D01*
X008842Y003363D01*
X008830Y003295D01*
X008822Y003226D01*
X008818Y003157D01*
X008818Y003089D01*
X008822Y003020D01*
X008830Y002951D01*
X008842Y002883D01*
X008857Y002816D01*
X008876Y002750D01*
X008899Y002684D01*
X008925Y002621D01*
X008955Y002558D01*
X008988Y002498D01*
X009025Y002440D01*
X009065Y002383D01*
X009107Y002329D01*
X009153Y002278D01*
X009202Y002229D01*
X009253Y002183D01*
X009307Y002140D01*
X009363Y002100D01*
X009422Y002063D01*
X009482Y002029D01*
X009544Y001999D01*
X009608Y001973D01*
X009673Y001950D01*
X009608Y001973D01*
X009544Y002000D01*
X009482Y002030D01*
X009422Y002064D01*
X009364Y002100D01*
X009308Y002140D01*
X009254Y002184D01*
X009203Y002230D01*
X009154Y002278D01*
X009108Y002330D01*
X009065Y002384D01*
X009026Y002440D01*
X008989Y002499D01*
X008956Y002559D01*
X008926Y002621D01*
X008900Y002685D01*
X008877Y002750D01*
X008858Y002816D01*
X008843Y002883D01*
X008831Y002951D01*
X008823Y003020D01*
X008819Y003089D01*
X008819Y003157D01*
X008823Y003226D01*
X008831Y003295D01*
X008843Y003363D01*
X008858Y003430D01*
X008877Y003496D01*
X008900Y003561D01*
X008926Y003625D01*
X008956Y003687D01*
X008989Y003747D01*
X009026Y003806D01*
X009065Y003862D01*
X009108Y003916D01*
X009154Y003968D01*
X009203Y004016D01*
X009254Y004062D01*
X009308Y004106D01*
X009364Y004146D01*
X009422Y004182D01*
X009482Y004216D01*
X009544Y004246D01*
X009608Y004273D01*
X009673Y004296D01*
X009673Y004295D01*
X009608Y004272D01*
X009545Y004245D01*
X009483Y004215D01*
X009423Y004182D01*
X009364Y004145D01*
X009308Y004105D01*
X009255Y004062D01*
X009203Y004016D01*
X009155Y003967D01*
X009109Y003915D01*
X009066Y003862D01*
X009026Y003805D01*
X008990Y003747D01*
X008957Y003687D01*
X008927Y003625D01*
X008901Y003561D01*
X008878Y003496D01*
X008859Y003430D01*
X008844Y003363D01*
X008832Y003295D01*
X008824Y003226D01*
X008820Y003157D01*
X008820Y003089D01*
X008824Y003020D01*
X008832Y002951D01*
X008844Y002883D01*
X008859Y002816D01*
X008878Y002750D01*
X008901Y002685D01*
X008927Y002621D01*
X008957Y002559D01*
X008990Y002499D01*
X009026Y002441D01*
X009066Y002384D01*
X009109Y002331D01*
X009155Y002279D01*
X009203Y002230D01*
X009255Y002184D01*
X009308Y002141D01*
X009364Y002101D01*
X009423Y002064D01*
X009483Y002031D01*
X009545Y002001D01*
X009608Y001974D01*
X009673Y001951D01*
X009673Y001952D01*
X009609Y001975D01*
X009545Y002002D01*
X009483Y002032D01*
X009423Y002065D01*
X009365Y002102D01*
X009309Y002142D01*
X009255Y002185D01*
X009204Y002231D01*
X009155Y002280D01*
X009110Y002331D01*
X009067Y002385D01*
X009027Y002441D01*
X008991Y002500D01*
X008957Y002560D01*
X008928Y002622D01*
X008901Y002685D01*
X008879Y002750D01*
X008860Y002817D01*
X008845Y002884D01*
X008833Y002952D01*
X008825Y003020D01*
X008821Y003089D01*
X008821Y003157D01*
X008825Y003226D01*
X008833Y003294D01*
X008845Y003362D01*
X008860Y003429D01*
X008879Y003496D01*
X008901Y003561D01*
X008928Y003624D01*
X008957Y003686D01*
X008991Y003746D01*
X009027Y003805D01*
X009067Y003861D01*
X009110Y003915D01*
X009155Y003966D01*
X009204Y004015D01*
X009255Y004061D01*
X009309Y004104D01*
X009365Y004144D01*
X009423Y004181D01*
X009483Y004214D01*
X009545Y004244D01*
X009609Y004271D01*
X009673Y004294D01*
X009674Y004293D01*
X009609Y004270D01*
X009546Y004243D01*
X009484Y004213D01*
X009424Y004180D01*
X009366Y004143D01*
X009310Y004103D01*
X009256Y004060D01*
X009205Y004014D01*
X009156Y003965D01*
X009111Y003914D01*
X009068Y003860D01*
X009028Y003804D01*
X008992Y003746D01*
X008958Y003686D01*
X008929Y003624D01*
X008902Y003560D01*
X008880Y003495D01*
X008861Y003429D01*
X008845Y003362D01*
X008834Y003294D01*
X008826Y003226D01*
X008822Y003157D01*
X008822Y003089D01*
X008826Y003020D01*
X008834Y002952D01*
X008845Y002884D01*
X008861Y002817D01*
X008880Y002751D01*
X008902Y002686D01*
X008929Y002622D01*
X008958Y002560D01*
X008992Y002500D01*
X009028Y002442D01*
X009068Y002386D01*
X009111Y002332D01*
X009156Y002281D01*
X009205Y002232D01*
X009256Y002186D01*
X009310Y002143D01*
X009366Y002103D01*
X009424Y002066D01*
X009484Y002033D01*
X009546Y002003D01*
X009609Y001976D01*
X009674Y001953D01*
X009674Y001954D01*
X009609Y001977D01*
X009546Y002004D01*
X009484Y002034D01*
X009424Y002067D01*
X009366Y002104D01*
X009310Y002144D01*
X009257Y002187D01*
X009205Y002233D01*
X009157Y002281D01*
X009111Y002333D01*
X009069Y002386D01*
X009029Y002442D01*
X008992Y002501D01*
X008959Y002561D01*
X008930Y002623D01*
X008903Y002686D01*
X008881Y002751D01*
X008862Y002817D01*
X008846Y002884D01*
X008835Y002952D01*
X008827Y003020D01*
X008823Y003089D01*
X008823Y003157D01*
X008827Y003226D01*
X008835Y003294D01*
X008846Y003362D01*
X008862Y003429D01*
X008881Y003495D01*
X008903Y003560D01*
X008930Y003623D01*
X008959Y003685D01*
X008992Y003745D01*
X009029Y003804D01*
X009069Y003860D01*
X009111Y003913D01*
X009157Y003965D01*
X009205Y004013D01*
X009257Y004059D01*
X009310Y004102D01*
X009366Y004142D01*
X009424Y004179D01*
X009484Y004212D01*
X009546Y004242D01*
X009609Y004269D01*
X009674Y004292D01*
X009674Y004291D01*
X009610Y004268D01*
X009546Y004241D01*
X009485Y004211D01*
X009425Y004178D01*
X009367Y004141D01*
X009311Y004102D01*
X009257Y004059D01*
X009206Y004013D01*
X009158Y003964D01*
X009112Y003913D01*
X009069Y003859D01*
X009030Y003803D01*
X008993Y003745D01*
X008960Y003685D01*
X008930Y003623D01*
X008904Y003559D01*
X008882Y003495D01*
X008863Y003429D01*
X008847Y003362D01*
X008836Y003294D01*
X008828Y003226D01*
X008824Y003157D01*
X008824Y003089D01*
X008828Y003020D01*
X008836Y002952D01*
X008847Y002884D01*
X008863Y002817D01*
X008882Y002751D01*
X008904Y002687D01*
X008930Y002623D01*
X008960Y002561D01*
X008993Y002501D01*
X009030Y002443D01*
X009069Y002387D01*
X009112Y002333D01*
X009158Y002282D01*
X009206Y002233D01*
X009257Y002187D01*
X009311Y002144D01*
X009367Y002105D01*
X009425Y002068D01*
X009485Y002035D01*
X009546Y002005D01*
X009610Y001978D01*
X009674Y001955D01*
X009675Y001956D01*
X009610Y001979D01*
X009547Y002005D01*
X009485Y002035D01*
X009425Y002069D01*
X009367Y002105D01*
X009311Y002145D01*
X009258Y002188D01*
X009207Y002234D01*
X009158Y002283D01*
X009113Y002334D01*
X009070Y002387D01*
X009031Y002443D01*
X008994Y002502D01*
X008961Y002562D01*
X008931Y002624D01*
X008905Y002687D01*
X008883Y002752D01*
X008864Y002818D01*
X008848Y002884D01*
X008837Y002952D01*
X008829Y003020D01*
X008825Y003089D01*
X008825Y003157D01*
X008829Y003226D01*
X008837Y003294D01*
X008848Y003362D01*
X008864Y003428D01*
X008883Y003494D01*
X008905Y003559D01*
X008931Y003622D01*
X008961Y003684D01*
X008994Y003744D01*
X009031Y003803D01*
X009070Y003859D01*
X009113Y003912D01*
X009158Y003963D01*
X009207Y004012D01*
X009258Y004058D01*
X009311Y004101D01*
X009367Y004141D01*
X009425Y004177D01*
X009485Y004211D01*
X009547Y004241D01*
X009610Y004267D01*
X009675Y004290D01*
X009675Y004289D01*
X009610Y004266D01*
X009547Y004240D01*
X009486Y004210D01*
X009426Y004176D01*
X009368Y004140D01*
X009312Y004100D01*
X009258Y004057D01*
X009207Y004011D01*
X009159Y003963D01*
X009114Y003912D01*
X009071Y003858D01*
X009031Y003802D01*
X008995Y003744D01*
X008962Y003684D01*
X008932Y003622D01*
X008906Y003559D01*
X008884Y003494D01*
X008865Y003428D01*
X008849Y003361D01*
X008838Y003294D01*
X008830Y003226D01*
X008826Y003157D01*
X008826Y003089D01*
X008830Y003020D01*
X008838Y002952D01*
X008849Y002885D01*
X008865Y002818D01*
X008884Y002752D01*
X008906Y002687D01*
X008932Y002624D01*
X008962Y002562D01*
X008995Y002502D01*
X009031Y002444D01*
X009071Y002388D01*
X009114Y002334D01*
X009159Y002283D01*
X009207Y002235D01*
X009258Y002189D01*
X009312Y002146D01*
X009368Y002106D01*
X009426Y002070D01*
X009486Y002036D01*
X009547Y002006D01*
X009610Y001980D01*
X009675Y001957D01*
X009675Y001958D01*
X009611Y001981D01*
X009548Y002007D01*
X009486Y002037D01*
X009426Y002070D01*
X009368Y002107D01*
X009313Y002147D01*
X009259Y002190D01*
X009208Y002235D01*
X009160Y002284D01*
X009114Y002335D01*
X009072Y002389D01*
X009032Y002445D01*
X008996Y002503D01*
X008963Y002563D01*
X008933Y002624D01*
X008907Y002688D01*
X008884Y002752D01*
X008866Y002818D01*
X008850Y002885D01*
X008839Y002952D01*
X008831Y003020D01*
X008827Y003089D01*
X008827Y003157D01*
X008831Y003226D01*
X008839Y003294D01*
X008850Y003361D01*
X008866Y003428D01*
X008884Y003494D01*
X008907Y003558D01*
X008933Y003622D01*
X008963Y003683D01*
X008996Y003743D01*
X009032Y003801D01*
X009072Y003857D01*
X009114Y003911D01*
X009160Y003962D01*
X009208Y004011D01*
X009259Y004056D01*
X009313Y004099D01*
X009368Y004139D01*
X009426Y004176D01*
X009486Y004209D01*
X009548Y004239D01*
X009611Y004265D01*
X009675Y004288D01*
X009676Y004287D01*
X009611Y004264D01*
X009548Y004238D01*
X009486Y004208D01*
X009427Y004175D01*
X009369Y004138D01*
X009313Y004098D01*
X009260Y004056D01*
X009209Y004010D01*
X009161Y003961D01*
X009115Y003910D01*
X009073Y003857D01*
X009033Y003801D01*
X008997Y003743D01*
X008964Y003683D01*
X008934Y003621D01*
X008908Y003558D01*
X008885Y003493D01*
X008867Y003428D01*
X008851Y003361D01*
X008840Y003294D01*
X008832Y003226D01*
X008828Y003157D01*
X008828Y003089D01*
X008832Y003020D01*
X008840Y002952D01*
X008851Y002885D01*
X008867Y002818D01*
X008885Y002753D01*
X008908Y002688D01*
X008934Y002625D01*
X008964Y002563D01*
X008997Y002503D01*
X009033Y002445D01*
X009073Y002389D01*
X009115Y002336D01*
X009161Y002285D01*
X009209Y002236D01*
X009260Y002190D01*
X009313Y002148D01*
X009369Y002108D01*
X009427Y002071D01*
X009486Y002038D01*
X009548Y002008D01*
X009611Y001982D01*
X009676Y001959D01*
X009676Y001960D01*
X009611Y001983D01*
X009548Y002009D01*
X009487Y002039D01*
X009427Y002072D01*
X009369Y002109D01*
X009314Y002148D01*
X009260Y002191D01*
X009210Y002237D01*
X009161Y002285D01*
X009116Y002336D01*
X009073Y002390D01*
X009034Y002446D01*
X008998Y002504D01*
X008965Y002564D01*
X008935Y002625D01*
X008909Y002688D01*
X008886Y002753D01*
X008868Y002819D01*
X008852Y002885D01*
X008841Y002953D01*
X008833Y003021D01*
X008829Y003089D01*
X008829Y003157D01*
X008833Y003225D01*
X008841Y003293D01*
X008852Y003361D01*
X008868Y003427D01*
X008886Y003493D01*
X008909Y003558D01*
X008935Y003621D01*
X008965Y003682D01*
X008998Y003742D01*
X009034Y003800D01*
X009073Y003856D01*
X009116Y003910D01*
X009161Y003961D01*
X009210Y004009D01*
X009260Y004055D01*
X009314Y004098D01*
X009369Y004137D01*
X009427Y004174D01*
X009487Y004207D01*
X009548Y004237D01*
X009611Y004263D01*
X009676Y004286D01*
X009676Y004285D01*
X009612Y004262D01*
X009549Y004236D01*
X009487Y004206D01*
X009428Y004173D01*
X009370Y004136D01*
X009314Y004097D01*
X009261Y004054D01*
X009210Y004008D01*
X009162Y003960D01*
X009117Y003909D01*
X009074Y003856D01*
X009035Y003800D01*
X008998Y003742D01*
X008965Y003682D01*
X008936Y003620D01*
X008910Y003557D01*
X008887Y003493D01*
X008868Y003427D01*
X008853Y003361D01*
X008842Y003293D01*
X008834Y003225D01*
X008830Y003157D01*
X008830Y003089D01*
X008834Y003021D01*
X008842Y002953D01*
X008853Y002885D01*
X008868Y002819D01*
X008887Y002753D01*
X008910Y002689D01*
X008936Y002626D01*
X008965Y002564D01*
X008998Y002504D01*
X009035Y002446D01*
X009074Y002390D01*
X009117Y002337D01*
X009162Y002286D01*
X009210Y002238D01*
X009261Y002192D01*
X009314Y002149D01*
X009370Y002110D01*
X009428Y002073D01*
X009487Y002040D01*
X009549Y002010D01*
X009612Y001984D01*
X009676Y001961D01*
X009677Y001962D01*
X009612Y001985D01*
X009549Y002011D01*
X009488Y002041D01*
X009428Y002074D01*
X009371Y002110D01*
X009315Y002150D01*
X009262Y002193D01*
X009211Y002238D01*
X009163Y002287D01*
X009117Y002338D01*
X009075Y002391D01*
X009036Y002447D01*
X008999Y002505D01*
X008966Y002564D01*
X008937Y002626D01*
X008911Y002689D01*
X008888Y002753D01*
X008869Y002819D01*
X008854Y002886D01*
X008843Y002953D01*
X008835Y003021D01*
X008831Y003089D01*
X008831Y003157D01*
X008835Y003225D01*
X008843Y003293D01*
X008854Y003360D01*
X008869Y003427D01*
X008888Y003493D01*
X008911Y003557D01*
X008937Y003620D01*
X008966Y003682D01*
X008999Y003741D01*
X009036Y003799D01*
X009075Y003855D01*
X009117Y003908D01*
X009163Y003959D01*
X009211Y004008D01*
X009262Y004053D01*
X009315Y004096D01*
X009371Y004136D01*
X009428Y004172D01*
X009488Y004205D01*
X009549Y004235D01*
X009612Y004261D01*
X009677Y004284D01*
X009677Y004283D01*
X009613Y004260D01*
X009550Y004234D01*
X009488Y004204D01*
X009429Y004171D01*
X009371Y004135D01*
X009316Y004095D01*
X009262Y004053D01*
X009212Y004007D01*
X009163Y003959D01*
X009118Y003908D01*
X009076Y003854D01*
X009036Y003799D01*
X009000Y003741D01*
X008967Y003681D01*
X008938Y003620D01*
X008912Y003557D01*
X008889Y003492D01*
X008870Y003427D01*
X008855Y003360D01*
X008844Y003293D01*
X008836Y003225D01*
X008832Y003157D01*
X008832Y003089D01*
X008836Y003021D01*
X008844Y002953D01*
X008855Y002886D01*
X008870Y002819D01*
X008889Y002754D01*
X008912Y002689D01*
X008938Y002626D01*
X008967Y002565D01*
X009000Y002505D01*
X009036Y002447D01*
X009076Y002392D01*
X009118Y002338D01*
X009163Y002287D01*
X009212Y002239D01*
X009262Y002193D01*
X009316Y002151D01*
X009371Y002111D01*
X009429Y002075D01*
X009488Y002042D01*
X009550Y002012D01*
X009613Y001986D01*
X009677Y001963D01*
X009677Y001964D01*
X009613Y001987D01*
X009550Y002013D01*
X009489Y002043D01*
X009429Y002076D01*
X009372Y002112D01*
X009316Y002152D01*
X009263Y002194D01*
X009212Y002240D01*
X009164Y002288D01*
X009119Y002339D01*
X009077Y002392D01*
X009037Y002448D01*
X009001Y002506D01*
X008968Y002565D01*
X008939Y002627D01*
X008913Y002690D01*
X008890Y002754D01*
X008871Y002820D01*
X008856Y002886D01*
X008845Y002953D01*
X008837Y003021D01*
X008833Y003089D01*
X008833Y003157D01*
X008837Y003225D01*
X008845Y003293D01*
X008856Y003360D01*
X008871Y003426D01*
X008890Y003492D01*
X008913Y003556D01*
X008939Y003619D01*
X008968Y003681D01*
X009001Y003740D01*
X009037Y003798D01*
X009077Y003854D01*
X009119Y003907D01*
X009164Y003958D01*
X009212Y004006D01*
X009263Y004052D01*
X009316Y004094D01*
X009372Y004134D01*
X009429Y004170D01*
X009489Y004203D01*
X009550Y004233D01*
X009613Y004259D01*
X009677Y004282D01*
X009677Y004281D01*
X009613Y004259D01*
X009550Y004232D01*
X009489Y004203D01*
X009430Y004169D01*
X009372Y004133D01*
X009317Y004094D01*
X009264Y004051D01*
X009213Y004006D01*
X009165Y003957D01*
X009120Y003906D01*
X009077Y003853D01*
X009038Y003798D01*
X009002Y003740D01*
X008969Y003680D01*
X008940Y003619D01*
X008914Y003556D01*
X008891Y003492D01*
X008872Y003426D01*
X008857Y003360D01*
X008846Y003293D01*
X008838Y003225D01*
X008834Y003157D01*
X008834Y003089D01*
X008838Y003021D01*
X008846Y002953D01*
X008857Y002886D01*
X008872Y002820D01*
X008891Y002754D01*
X008914Y002690D01*
X008940Y002627D01*
X008969Y002566D01*
X009002Y002506D01*
X009038Y002448D01*
X009077Y002393D01*
X009120Y002340D01*
X009165Y002289D01*
X009213Y002240D01*
X009264Y002195D01*
X009317Y002152D01*
X009372Y002113D01*
X009430Y002077D01*
X009489Y002043D01*
X009550Y002014D01*
X009613Y001987D01*
X009677Y001965D01*
X009678Y001966D01*
X009614Y001988D01*
X009551Y002015D01*
X009490Y002044D01*
X009430Y002077D01*
X009373Y002114D01*
X009317Y002153D01*
X009264Y002196D01*
X009214Y002241D01*
X009166Y002289D01*
X009120Y002340D01*
X009078Y002393D01*
X009039Y002449D01*
X009003Y002507D01*
X008970Y002566D01*
X008940Y002628D01*
X008915Y002690D01*
X008892Y002755D01*
X008873Y002820D01*
X008858Y002886D01*
X008847Y002953D01*
X008839Y003021D01*
X008835Y003089D01*
X008835Y003157D01*
X008839Y003225D01*
X008847Y003293D01*
X008858Y003360D01*
X008873Y003426D01*
X008892Y003491D01*
X008915Y003556D01*
X008940Y003618D01*
X008970Y003680D01*
X009003Y003739D01*
X009039Y003797D01*
X009078Y003853D01*
X009120Y003906D01*
X009166Y003957D01*
X009214Y004005D01*
X009264Y004050D01*
X009317Y004093D01*
X009373Y004132D01*
X009430Y004169D01*
X009490Y004202D01*
X009551Y004231D01*
X009614Y004258D01*
X009678Y004280D01*
X009678Y004279D01*
X009614Y004257D01*
X009551Y004230D01*
X009490Y004201D01*
X009431Y004168D01*
X009373Y004131D01*
X009318Y004092D01*
X009265Y004049D01*
X009214Y004004D01*
X009166Y003956D01*
X009121Y003905D01*
X009079Y003852D01*
X009040Y003796D01*
X009004Y003739D01*
X008971Y003679D01*
X008941Y003618D01*
X008915Y003555D01*
X008893Y003491D01*
X008874Y003426D01*
X008859Y003359D01*
X008848Y003292D01*
X008840Y003225D01*
X008836Y003157D01*
X008836Y003089D01*
X008840Y003021D01*
X008848Y002954D01*
X008859Y002887D01*
X008874Y002820D01*
X008893Y002755D01*
X008915Y002691D01*
X008941Y002628D01*
X008971Y002567D01*
X009004Y002507D01*
X009040Y002450D01*
X009079Y002394D01*
X009121Y002341D01*
X009166Y002290D01*
X009214Y002242D01*
X009265Y002197D01*
X009318Y002154D01*
X009373Y002115D01*
X009431Y002078D01*
X009490Y002045D01*
X009551Y002016D01*
X009614Y001989D01*
X009678Y001967D01*
X009678Y001968D01*
X009614Y001990D01*
X009552Y002016D01*
X009491Y002046D01*
X009431Y002079D01*
X009374Y002115D01*
X009319Y002155D01*
X009266Y002197D01*
X009215Y002243D01*
X009167Y002291D01*
X009122Y002342D01*
X009080Y002395D01*
X009041Y002450D01*
X009004Y002508D01*
X008972Y002567D01*
X008942Y002628D01*
X008916Y002691D01*
X008894Y002755D01*
X008875Y002821D01*
X008860Y002887D01*
X008849Y002954D01*
X008841Y003021D01*
X008837Y003089D01*
X008837Y003157D01*
X008841Y003225D01*
X008849Y003292D01*
X008860Y003359D01*
X008875Y003425D01*
X008894Y003491D01*
X008916Y003555D01*
X008942Y003618D01*
X008972Y003679D01*
X009004Y003738D01*
X009041Y003796D01*
X009080Y003851D01*
X009122Y003904D01*
X009167Y003955D01*
X009215Y004003D01*
X009266Y004049D01*
X009319Y004091D01*
X009374Y004131D01*
X009431Y004167D01*
X009491Y004200D01*
X009552Y004230D01*
X009614Y004256D01*
X009678Y004278D01*
X009679Y004277D01*
X009615Y004255D01*
X009552Y004229D01*
X009491Y004199D01*
X009432Y004166D01*
X009374Y004130D01*
X009319Y004090D01*
X009266Y004048D01*
X009216Y004003D01*
X009168Y003955D01*
X009123Y003904D01*
X009081Y003851D01*
X009041Y003795D01*
X009005Y003738D01*
X008973Y003678D01*
X008943Y003617D01*
X008917Y003554D01*
X008895Y003490D01*
X008876Y003425D01*
X008861Y003359D01*
X008850Y003292D01*
X008842Y003225D01*
X008838Y003157D01*
X008838Y003089D01*
X008842Y003021D01*
X008850Y002954D01*
X008861Y002887D01*
X008876Y002821D01*
X008895Y002756D01*
X008917Y002692D01*
X008943Y002629D01*
X008973Y002568D01*
X009005Y002508D01*
X009041Y002451D01*
X009081Y002395D01*
X009123Y002342D01*
X009168Y002291D01*
X009216Y002243D01*
X009266Y002198D01*
X009319Y002156D01*
X009374Y002116D01*
X009432Y002080D01*
X009491Y002047D01*
X009552Y002017D01*
X009615Y001991D01*
X009679Y001969D01*
X009615Y001992D01*
X009553Y002018D01*
X009492Y002048D01*
X009432Y002081D01*
X009375Y002117D01*
X009320Y002156D01*
X009267Y002199D01*
X009216Y002244D01*
X009169Y002292D01*
X009124Y002343D01*
X009081Y002396D01*
X009042Y002451D01*
X009006Y002509D01*
X008973Y002568D01*
X008944Y002629D01*
X008918Y002692D01*
X008896Y002756D01*
X008877Y002821D01*
X008862Y002887D01*
X008851Y002954D01*
X008843Y003021D01*
X008839Y003089D01*
X008839Y003157D01*
X008843Y003225D01*
X008851Y003292D01*
X008862Y003359D01*
X008877Y003425D01*
X008896Y003490D01*
X008918Y003554D01*
X008944Y003617D01*
X008973Y003678D01*
X009006Y003737D01*
X009042Y003795D01*
X009081Y003850D01*
X009124Y003903D01*
X009169Y003954D01*
X009216Y004002D01*
X009267Y004047D01*
X009320Y004090D01*
X009375Y004129D01*
X009432Y004165D01*
X009492Y004198D01*
X009553Y004228D01*
X009615Y004254D01*
X009679Y004277D01*
X009679Y004276D01*
X009615Y004253D01*
X009553Y004227D01*
X009492Y004197D01*
X009433Y004164D01*
X009376Y004128D01*
X009320Y004089D01*
X009268Y004046D01*
X009217Y004001D01*
X009169Y003953D01*
X009124Y003903D01*
X009082Y003850D01*
X009043Y003794D01*
X009007Y003737D01*
X008974Y003677D01*
X008945Y003616D01*
X008919Y003554D01*
X008897Y003490D01*
X008878Y003425D01*
X008863Y003359D01*
X008852Y003292D01*
X008844Y003225D01*
X008840Y003157D01*
X008840Y003089D01*
X008844Y003021D01*
X008852Y002954D01*
X008863Y002887D01*
X008878Y002821D01*
X008897Y002756D01*
X008919Y002692D01*
X008945Y002630D01*
X008974Y002569D01*
X009007Y002509D01*
X009043Y002452D01*
X009082Y002396D01*
X009124Y002343D01*
X009169Y002293D01*
X009217Y002245D01*
X009268Y002200D01*
X009320Y002157D01*
X009376Y002118D01*
X009433Y002082D01*
X009492Y002049D01*
X009553Y002019D01*
X009615Y001993D01*
X009679Y001970D01*
X009680Y001971D01*
X009616Y001994D01*
X009553Y002020D01*
X009492Y002050D01*
X009433Y002083D01*
X009376Y002119D01*
X009321Y002158D01*
X009268Y002200D01*
X009218Y002246D01*
X009170Y002294D01*
X009125Y002344D01*
X009083Y002397D01*
X009044Y002452D01*
X009008Y002510D01*
X008975Y002569D01*
X008946Y002630D01*
X008920Y002693D01*
X008898Y002757D01*
X008879Y002822D01*
X008864Y002888D01*
X008853Y002954D01*
X008845Y003022D01*
X008841Y003089D01*
X008841Y003157D01*
X008845Y003224D01*
X008853Y003292D01*
X008864Y003358D01*
X008879Y003424D01*
X008898Y003489D01*
X008920Y003553D01*
X008946Y003616D01*
X008975Y003677D01*
X009008Y003736D01*
X009044Y003794D01*
X009083Y003849D01*
X009125Y003902D01*
X009170Y003952D01*
X009218Y004000D01*
X009268Y004046D01*
X009321Y004088D01*
X009376Y004127D01*
X009433Y004163D01*
X009492Y004196D01*
X009553Y004226D01*
X009616Y004252D01*
X009680Y004275D01*
X009680Y004274D01*
X009616Y004251D01*
X009554Y004225D01*
X009493Y004195D01*
X009434Y004163D01*
X009377Y004126D01*
X009322Y004087D01*
X009269Y004045D01*
X009218Y004000D01*
X009171Y003952D01*
X009126Y003901D01*
X009084Y003848D01*
X009045Y003793D01*
X009009Y003736D01*
X008976Y003677D01*
X008947Y003616D01*
X008921Y003553D01*
X008899Y003489D01*
X008880Y003424D01*
X008865Y003358D01*
X008854Y003292D01*
X008846Y003224D01*
X008842Y003157D01*
X008842Y003089D01*
X008846Y003022D01*
X008854Y002954D01*
X008865Y002888D01*
X008880Y002822D01*
X008899Y002757D01*
X008921Y002693D01*
X008947Y002630D01*
X008976Y002569D01*
X009009Y002510D01*
X009045Y002453D01*
X009084Y002398D01*
X009126Y002345D01*
X009171Y002294D01*
X009218Y002246D01*
X009269Y002201D01*
X009322Y002159D01*
X009377Y002120D01*
X009434Y002083D01*
X009493Y002051D01*
X009554Y002021D01*
X009616Y001995D01*
X009680Y001972D01*
X009680Y001973D01*
X009617Y001996D01*
X009554Y002022D01*
X009493Y002051D01*
X009434Y002084D01*
X009377Y002120D01*
X009322Y002160D01*
X009269Y002202D01*
X009219Y002247D01*
X009171Y002295D01*
X009127Y002345D01*
X009085Y002398D01*
X009046Y002453D01*
X009010Y002511D01*
X008977Y002570D01*
X008948Y002631D01*
X008922Y002693D01*
X008900Y002757D01*
X008881Y002822D01*
X008866Y002888D01*
X008855Y002955D01*
X008847Y003022D01*
X008843Y003089D01*
X008843Y003157D01*
X008847Y003224D01*
X008855Y003291D01*
X008866Y003358D01*
X008881Y003424D01*
X008900Y003489D01*
X008922Y003553D01*
X008948Y003615D01*
X008977Y003676D01*
X009010Y003735D01*
X009046Y003793D01*
X009085Y003848D01*
X009127Y003901D01*
X009171Y003951D01*
X009219Y003999D01*
X009269Y004044D01*
X009322Y004086D01*
X009377Y004126D01*
X009434Y004162D01*
X009493Y004195D01*
X009554Y004224D01*
X009617Y004250D01*
X009680Y004273D01*
X009681Y004272D01*
X009617Y004249D01*
X009555Y004223D01*
X009494Y004194D01*
X009435Y004161D01*
X009378Y004125D01*
X009323Y004086D01*
X009270Y004043D01*
X009220Y003998D01*
X009172Y003950D01*
X009127Y003900D01*
X009085Y003847D01*
X009046Y003792D01*
X009011Y003735D01*
X008978Y003676D01*
X008949Y003615D01*
X008923Y003552D01*
X008901Y003489D01*
X008882Y003424D01*
X008867Y003358D01*
X008856Y003291D01*
X008848Y003224D01*
X008844Y003157D01*
X008844Y003089D01*
X008848Y003022D01*
X008856Y002955D01*
X008867Y002888D01*
X008882Y002822D01*
X008901Y002757D01*
X008923Y002694D01*
X008949Y002631D01*
X008978Y002570D01*
X009011Y002511D01*
X009046Y002454D01*
X009085Y002399D01*
X009127Y002346D01*
X009172Y002296D01*
X009220Y002248D01*
X009270Y002203D01*
X009323Y002160D01*
X009378Y002121D01*
X009435Y002085D01*
X009494Y002052D01*
X009555Y002023D01*
X009617Y001997D01*
X009681Y001974D01*
X009681Y001975D01*
X009617Y001998D01*
X009555Y002024D01*
X009494Y002053D01*
X009435Y002086D01*
X009378Y002122D01*
X009323Y002161D01*
X009271Y002203D01*
X009221Y002248D01*
X009173Y002296D01*
X009128Y002347D01*
X009086Y002399D01*
X009047Y002455D01*
X009011Y002512D01*
X008979Y002571D01*
X008950Y002632D01*
X008924Y002694D01*
X008902Y002758D01*
X008883Y002823D01*
X008868Y002888D01*
X008857Y002955D01*
X008849Y003022D01*
X008845Y003089D01*
X008845Y003157D01*
X008849Y003224D01*
X008857Y003291D01*
X008868Y003358D01*
X008883Y003423D01*
X008902Y003488D01*
X008924Y003552D01*
X008950Y003614D01*
X008979Y003675D01*
X009011Y003734D01*
X009047Y003791D01*
X009086Y003847D01*
X009128Y003899D01*
X009173Y003950D01*
X009221Y003998D01*
X009271Y004043D01*
X009323Y004085D01*
X009378Y004124D01*
X009435Y004160D01*
X009494Y004193D01*
X009555Y004222D01*
X009617Y004248D01*
X009681Y004271D01*
X009681Y004270D01*
X009618Y004247D01*
X009555Y004221D01*
X009495Y004192D01*
X009436Y004159D01*
X009379Y004123D01*
X009324Y004084D01*
X009271Y004042D01*
X009221Y003997D01*
X009174Y003949D01*
X009129Y003899D01*
X009087Y003846D01*
X009048Y003791D01*
X009012Y003734D01*
X008980Y003675D01*
X008951Y003614D01*
X008925Y003552D01*
X008903Y003488D01*
X008884Y003423D01*
X008869Y003357D01*
X008858Y003291D01*
X008850Y003224D01*
X008846Y003157D01*
X008846Y003089D01*
X008850Y003022D01*
X008858Y002955D01*
X008869Y002889D01*
X008884Y002823D01*
X008903Y002758D01*
X008925Y002694D01*
X008951Y002632D01*
X008980Y002571D01*
X009012Y002512D01*
X009048Y002455D01*
X009087Y002400D01*
X009129Y002347D01*
X009174Y002297D01*
X009221Y002249D01*
X009271Y002204D01*
X009324Y002162D01*
X009379Y002123D01*
X009436Y002087D01*
X009495Y002054D01*
X009555Y002025D01*
X009618Y001999D01*
X009681Y001976D01*
X009681Y001977D01*
X009618Y002000D01*
X009556Y002026D01*
X009495Y002055D01*
X009436Y002088D01*
X009379Y002124D01*
X009325Y002163D01*
X009272Y002205D01*
X009222Y002250D01*
X009174Y002298D01*
X009130Y002348D01*
X009088Y002401D01*
X009049Y002456D01*
X009013Y002513D01*
X008981Y002572D01*
X008951Y002632D01*
X008926Y002695D01*
X008904Y002758D01*
X008885Y002823D01*
X008870Y002889D01*
X008859Y002955D01*
X008851Y003022D01*
X008847Y003089D01*
X008847Y003157D01*
X008851Y003224D01*
X008859Y003291D01*
X008870Y003357D01*
X008885Y003423D01*
X008904Y003488D01*
X008926Y003551D01*
X008951Y003614D01*
X008981Y003674D01*
X009013Y003733D01*
X009049Y003790D01*
X009088Y003845D01*
X009130Y003898D01*
X009174Y003948D01*
X009222Y003996D01*
X009272Y004041D01*
X009325Y004083D01*
X009379Y004122D01*
X009436Y004158D01*
X009495Y004191D01*
X009556Y004220D01*
X009618Y004246D01*
X009681Y004269D01*
X009682Y004268D01*
X009617Y004245D01*
X009553Y004218D01*
X009492Y004188D01*
X009432Y004154D01*
X009374Y004117D01*
X009318Y004077D01*
X009265Y004033D01*
X009214Y003987D01*
X009166Y003938D01*
X009121Y003886D01*
X009079Y003831D01*
X009040Y003774D01*
X009004Y003715D01*
X008972Y003655D01*
X008943Y003592D01*
X008918Y003528D01*
X008897Y003463D01*
X008879Y003396D01*
X008866Y003328D01*
X008856Y003260D01*
X008850Y003192D01*
X008848Y003123D01*
X008850Y003054D01*
X008856Y002986D01*
X008866Y002918D01*
X008879Y002850D01*
X008897Y002783D01*
X008918Y002718D01*
X008943Y002654D01*
X008972Y002591D01*
X009004Y002531D01*
X009040Y002472D01*
X009079Y002415D01*
X009121Y002360D01*
X009166Y002308D01*
X009214Y002259D01*
X009265Y002213D01*
X009318Y002169D01*
X009374Y002129D01*
X009432Y002092D01*
X009492Y002058D01*
X009553Y002028D01*
X009617Y002001D01*
X009682Y001978D01*
X009682Y001979D01*
X009617Y002002D01*
X009554Y002029D01*
X009492Y002059D01*
X009432Y002093D01*
X009374Y002130D01*
X009319Y002170D01*
X009265Y002213D01*
X009214Y002260D01*
X009166Y002309D01*
X009121Y002361D01*
X009079Y002415D01*
X009040Y002472D01*
X009005Y002531D01*
X008973Y002592D01*
X008944Y002654D01*
X008919Y002718D01*
X008898Y002784D01*
X008880Y002850D01*
X008867Y002918D01*
X008857Y002986D01*
X008851Y003054D01*
X008849Y003123D01*
X008851Y003192D01*
X008857Y003260D01*
X008867Y003328D01*
X008880Y003396D01*
X008898Y003462D01*
X008919Y003528D01*
X008944Y003592D01*
X008973Y003654D01*
X009005Y003715D01*
X009040Y003774D01*
X009079Y003831D01*
X009121Y003885D01*
X009166Y003937D01*
X009214Y003986D01*
X009265Y004033D01*
X009319Y004076D01*
X009374Y004116D01*
X009432Y004153D01*
X009492Y004187D01*
X009554Y004217D01*
X009617Y004244D01*
X009682Y004267D01*
D16*
X028607Y010318D02*
X028607Y010418D01*
X029557Y010418D01*
X029557Y010318D01*
X029607Y012618D02*
X028607Y012618D01*
X028607Y012718D01*
X029607Y012718D02*
X029607Y012618D01*
D17*
X032058Y020183D02*
X032133Y020183D01*
X032208Y020258D01*
X032208Y020633D01*
X032133Y020633D02*
X032284Y020633D01*
X032444Y020408D02*
X032669Y020408D01*
X032744Y020333D01*
X032744Y020258D01*
X032669Y020183D01*
X032519Y020183D01*
X032444Y020258D01*
X032444Y020408D01*
X032594Y020558D01*
X032744Y020633D01*
X032058Y020183D02*
X031983Y020258D01*
X023744Y020408D02*
X023444Y020408D01*
X023669Y020633D01*
X023669Y020183D01*
X023208Y020258D02*
X023208Y020633D01*
X023133Y020633D02*
X023284Y020633D01*
X023208Y020258D02*
X023133Y020183D01*
X023058Y020183D01*
X022983Y020258D01*
X015829Y013604D02*
X015379Y013604D01*
X015604Y013379D01*
X015604Y013679D01*
X015604Y013218D02*
X015454Y013218D01*
X015379Y013143D01*
X015379Y012918D01*
X015829Y012918D01*
X015679Y012918D02*
X015679Y013143D01*
X015604Y013218D01*
X015379Y012758D02*
X015379Y012608D01*
X015379Y012683D02*
X015754Y012683D01*
X015829Y012608D01*
X015829Y012533D01*
X015754Y012458D01*
X013729Y012533D02*
X013729Y012608D01*
X013654Y012683D01*
X013279Y012683D01*
X013279Y012608D02*
X013279Y012758D01*
X013279Y012918D02*
X013279Y013143D01*
X013354Y013218D01*
X013504Y013218D01*
X013579Y013143D01*
X013579Y012918D01*
X013729Y012918D02*
X013279Y012918D01*
X013354Y013379D02*
X013279Y013454D01*
X013279Y013604D01*
X013354Y013679D01*
X013429Y013679D01*
X013504Y013604D01*
X013579Y013679D01*
X013654Y013679D01*
X013729Y013604D01*
X013729Y013454D01*
X013654Y013379D01*
X013504Y013529D02*
X013504Y013604D01*
X013729Y012533D02*
X013654Y012458D01*
X013044Y010283D02*
X013044Y009983D01*
X013044Y010133D02*
X012594Y010133D01*
X012744Y009983D01*
X013279Y008679D02*
X013279Y008379D01*
X013504Y008379D01*
X013429Y008529D01*
X013429Y008604D01*
X013504Y008679D01*
X013654Y008679D01*
X013729Y008604D01*
X013729Y008454D01*
X013654Y008379D01*
X013504Y008218D02*
X013579Y008143D01*
X013579Y007918D01*
X013729Y007918D02*
X013279Y007918D01*
X013279Y008143D01*
X013354Y008218D01*
X013504Y008218D01*
X013279Y007758D02*
X013279Y007608D01*
X013279Y007683D02*
X013654Y007683D01*
X013729Y007608D01*
X013729Y007533D01*
X013654Y007458D01*
X015379Y007608D02*
X015379Y007758D01*
X015379Y007683D02*
X015754Y007683D01*
X015829Y007608D01*
X015829Y007533D01*
X015754Y007458D01*
X015829Y007918D02*
X015379Y007918D01*
X015379Y008143D01*
X015454Y008218D01*
X015604Y008218D01*
X015679Y008143D01*
X015679Y007918D01*
X015829Y008379D02*
X015529Y008679D01*
X015454Y008679D01*
X015379Y008604D01*
X015379Y008454D01*
X015454Y008379D01*
X015829Y008379D02*
X015829Y008679D01*
X007043Y006247D02*
X007043Y005707D01*
X007043Y006247D02*
X003103Y006247D01*
X003103Y002717D01*
X001733Y002707D02*
X004793Y002707D01*
X006918Y002707D02*
X007043Y002707D01*
X007043Y003582D01*
X003103Y006247D02*
X001733Y006247D01*
X001733Y002707D01*
X019754Y002168D02*
X019829Y002093D01*
X019904Y002093D01*
X019979Y002168D01*
X019979Y002543D01*
X019904Y002543D02*
X020054Y002543D01*
X020214Y002543D02*
X020440Y002543D01*
X020515Y002468D01*
X020515Y002318D01*
X020440Y002243D01*
X020214Y002243D01*
X020214Y002093D02*
X020214Y002543D01*
X020675Y002318D02*
X020900Y002318D01*
X020975Y002243D01*
X020975Y002168D01*
X020900Y002093D01*
X020750Y002093D01*
X020675Y002168D01*
X020675Y002318D01*
X020825Y002468D01*
X020975Y002543D01*
X026724Y002188D02*
X026799Y002113D01*
X026874Y002113D01*
X026949Y002188D01*
X026949Y002563D01*
X026874Y002563D02*
X027024Y002563D01*
X027184Y002563D02*
X027184Y002338D01*
X027334Y002413D01*
X027410Y002413D01*
X027485Y002338D01*
X027485Y002188D01*
X027410Y002113D01*
X027259Y002113D01*
X027184Y002188D01*
X027184Y002563D02*
X027485Y002563D01*
X007899Y016142D02*
X007824Y016067D01*
X007524Y016067D01*
X007449Y016142D01*
X007449Y016292D01*
X007524Y016367D01*
X007824Y016367D01*
X007899Y016292D01*
X007899Y016142D01*
X007749Y016217D02*
X007899Y016367D01*
X007899Y016527D02*
X007599Y016828D01*
X007524Y016828D01*
X007449Y016753D01*
X007449Y016602D01*
X007524Y016527D01*
X007899Y016527D02*
X007899Y016828D01*
X012099Y019779D02*
X012099Y019929D01*
X012099Y019854D02*
X012549Y019854D01*
X012549Y019779D02*
X012549Y019929D01*
X012474Y020086D02*
X012549Y020161D01*
X012549Y020311D01*
X012474Y020386D01*
X012399Y020386D01*
X012324Y020311D01*
X012324Y020161D01*
X012249Y020086D01*
X012174Y020086D01*
X012099Y020161D01*
X012099Y020311D01*
X012174Y020386D01*
X012174Y020546D02*
X012474Y020546D01*
X012549Y020621D01*
X012549Y020771D01*
X012474Y020846D01*
X012549Y021007D02*
X012099Y021007D01*
X012099Y021232D01*
X012174Y021307D01*
X012324Y021307D01*
X012399Y021232D01*
X012399Y021007D01*
X012174Y020846D02*
X012099Y020771D01*
X012099Y020621D01*
X012174Y020546D01*
X012324Y021467D02*
X012324Y021767D01*
X012174Y021927D02*
X012474Y021927D01*
X012549Y022002D01*
X012549Y022152D01*
X012474Y022228D01*
X012174Y022228D01*
X012099Y022152D01*
X012099Y022002D01*
X012174Y021927D01*
D18*
X010151Y008138D03*
D19*
X024752Y016281D02*
X024886Y016148D01*
X025286Y016148D01*
X025652Y016281D02*
X025786Y016148D01*
X026186Y016148D01*
X025652Y016281D02*
X025652Y016548D01*
X025786Y016682D01*
X026186Y016682D01*
X025286Y016682D02*
X024886Y016682D01*
X024752Y016548D01*
X024752Y016281D01*
D20*
X024320Y016398D02*
X024322Y016466D01*
X024328Y016534D01*
X024338Y016601D01*
X024351Y016668D01*
X024369Y016734D01*
X024390Y016799D01*
X024415Y016862D01*
X024443Y016924D01*
X024476Y016984D01*
X024511Y017042D01*
X024550Y017098D01*
X024592Y017152D01*
X024637Y017203D01*
X024684Y017252D01*
X024735Y017297D01*
X024788Y017340D01*
X024844Y017380D01*
X024901Y017416D01*
X024961Y017449D01*
X025022Y017478D01*
X025085Y017504D01*
X025150Y017526D01*
X025215Y017545D01*
X025282Y017559D01*
X025349Y017570D01*
X025417Y017577D01*
X025485Y017580D01*
X025553Y017579D01*
X025621Y017574D01*
X025689Y017565D01*
X025756Y017552D01*
X025822Y017536D01*
X025887Y017516D01*
X025950Y017492D01*
X026013Y017464D01*
X026073Y017433D01*
X026132Y017398D01*
X026188Y017360D01*
X026243Y017319D01*
X026295Y017275D01*
X026344Y017228D01*
X026390Y017178D01*
X026434Y017125D01*
X026474Y017071D01*
X026511Y017013D01*
X026545Y016954D01*
X026575Y016893D01*
X026602Y016831D01*
X026625Y016766D01*
X026644Y016701D01*
X026660Y016635D01*
X026672Y016568D01*
X026680Y016500D01*
X026684Y016432D01*
X026684Y016364D01*
X026680Y016296D01*
X026672Y016228D01*
X026660Y016161D01*
X026644Y016095D01*
X026625Y016030D01*
X026602Y015965D01*
X026575Y015903D01*
X026545Y015842D01*
X026511Y015783D01*
X026474Y015725D01*
X026434Y015671D01*
X026390Y015618D01*
X026344Y015568D01*
X026295Y015521D01*
X026243Y015477D01*
X026188Y015436D01*
X026132Y015398D01*
X026073Y015363D01*
X026013Y015332D01*
X025950Y015304D01*
X025887Y015280D01*
X025822Y015260D01*
X025756Y015244D01*
X025689Y015231D01*
X025621Y015222D01*
X025553Y015217D01*
X025485Y015216D01*
X025417Y015219D01*
X025349Y015226D01*
X025282Y015237D01*
X025215Y015251D01*
X025150Y015270D01*
X025085Y015292D01*
X025022Y015318D01*
X024961Y015347D01*
X024901Y015380D01*
X024844Y015416D01*
X024788Y015456D01*
X024735Y015499D01*
X024684Y015544D01*
X024637Y015593D01*
X024592Y015644D01*
X024550Y015698D01*
X024511Y015754D01*
X024476Y015812D01*
X024443Y015872D01*
X024415Y015934D01*
X024390Y015997D01*
X024369Y016062D01*
X024351Y016128D01*
X024338Y016195D01*
X024328Y016262D01*
X024322Y016330D01*
X024320Y016398D01*
X023470Y012850D02*
X023472Y012909D01*
X023478Y012967D01*
X023487Y013026D01*
X023501Y013083D01*
X023518Y013139D01*
X023539Y013194D01*
X023563Y013248D01*
X023591Y013300D01*
X023622Y013350D01*
X023656Y013398D01*
X023693Y013443D01*
X023734Y013486D01*
X023777Y013527D01*
X023822Y013564D01*
X023870Y013598D01*
X023920Y013629D01*
X023972Y013657D01*
X024026Y013681D01*
X024081Y013702D01*
X024137Y013719D01*
X024194Y013733D01*
X024253Y013742D01*
X024311Y013748D01*
X024370Y013750D01*
X024429Y013748D01*
X024487Y013742D01*
X024546Y013733D01*
X024603Y013719D01*
X024659Y013702D01*
X024714Y013681D01*
X024768Y013657D01*
X024820Y013629D01*
X024870Y013598D01*
X024918Y013564D01*
X024963Y013527D01*
X025006Y013486D01*
X025047Y013443D01*
X025084Y013398D01*
X025118Y013350D01*
X025149Y013300D01*
X025177Y013248D01*
X025201Y013194D01*
X025222Y013139D01*
X025239Y013083D01*
X025253Y013026D01*
X025262Y012967D01*
X025268Y012909D01*
X025270Y012850D01*
X025270Y010550D01*
X025268Y010491D01*
X025262Y010433D01*
X025253Y010374D01*
X025239Y010317D01*
X025222Y010261D01*
X025201Y010206D01*
X025177Y010152D01*
X025149Y010100D01*
X025118Y010050D01*
X025084Y010002D01*
X025047Y009957D01*
X025006Y009914D01*
X024963Y009873D01*
X024918Y009836D01*
X024870Y009802D01*
X024820Y009771D01*
X024768Y009743D01*
X024714Y009719D01*
X024659Y009698D01*
X024603Y009681D01*
X024546Y009667D01*
X024487Y009658D01*
X024429Y009652D01*
X024370Y009650D01*
X024311Y009652D01*
X024253Y009658D01*
X024194Y009667D01*
X024137Y009681D01*
X024081Y009698D01*
X024026Y009719D01*
X023972Y009743D01*
X023920Y009771D01*
X023870Y009802D01*
X023822Y009836D01*
X023777Y009873D01*
X023734Y009914D01*
X023693Y009957D01*
X023656Y010002D01*
X023622Y010050D01*
X023591Y010100D01*
X023563Y010152D01*
X023539Y010206D01*
X023518Y010261D01*
X023501Y010317D01*
X023487Y010374D01*
X023478Y010433D01*
X023472Y010491D01*
X023470Y010550D01*
X023470Y012850D01*
X007174Y013813D02*
X007174Y016113D01*
X007172Y016172D01*
X007166Y016230D01*
X007157Y016289D01*
X007143Y016346D01*
X007126Y016402D01*
X007105Y016457D01*
X007081Y016511D01*
X007053Y016563D01*
X007022Y016613D01*
X006988Y016661D01*
X006951Y016706D01*
X006910Y016749D01*
X006867Y016790D01*
X006822Y016827D01*
X006774Y016861D01*
X006724Y016892D01*
X006672Y016920D01*
X006618Y016944D01*
X006563Y016965D01*
X006507Y016982D01*
X006450Y016996D01*
X006391Y017005D01*
X006333Y017011D01*
X006274Y017013D01*
X006215Y017011D01*
X006157Y017005D01*
X006098Y016996D01*
X006041Y016982D01*
X005985Y016965D01*
X005930Y016944D01*
X005876Y016920D01*
X005824Y016892D01*
X005774Y016861D01*
X005726Y016827D01*
X005681Y016790D01*
X005638Y016749D01*
X005597Y016706D01*
X005560Y016661D01*
X005526Y016613D01*
X005495Y016563D01*
X005467Y016511D01*
X005443Y016457D01*
X005422Y016402D01*
X005405Y016346D01*
X005391Y016289D01*
X005382Y016230D01*
X005376Y016172D01*
X005374Y016113D01*
X005374Y013813D01*
X005376Y013754D01*
X005382Y013696D01*
X005391Y013637D01*
X005405Y013580D01*
X005422Y013524D01*
X005443Y013469D01*
X005467Y013415D01*
X005495Y013363D01*
X005526Y013313D01*
X005560Y013265D01*
X005597Y013220D01*
X005638Y013177D01*
X005681Y013136D01*
X005726Y013099D01*
X005774Y013065D01*
X005824Y013034D01*
X005876Y013006D01*
X005930Y012982D01*
X005985Y012961D01*
X006041Y012944D01*
X006098Y012930D01*
X006157Y012921D01*
X006215Y012915D01*
X006274Y012913D01*
X006333Y012915D01*
X006391Y012921D01*
X006450Y012930D01*
X006507Y012944D01*
X006563Y012961D01*
X006618Y012982D01*
X006672Y013006D01*
X006724Y013034D01*
X006774Y013065D01*
X006822Y013099D01*
X006867Y013136D01*
X006910Y013177D01*
X006951Y013220D01*
X006988Y013265D01*
X007022Y013313D01*
X007053Y013363D01*
X007081Y013415D01*
X007105Y013469D01*
X007126Y013524D01*
X007143Y013580D01*
X007157Y013637D01*
X007166Y013696D01*
X007172Y013754D01*
X007174Y013813D01*
D21*
X008805Y006272D02*
X008805Y005772D01*
X008555Y005772D01*
X008805Y005772D02*
X008805Y005272D01*
X010805Y005272D01*
X010805Y006272D01*
X008805Y006272D01*
X010805Y006272D02*
X011305Y006272D01*
X011305Y005772D01*
X011555Y005772D01*
X011305Y005772D02*
X011305Y005272D01*
X010805Y005272D01*
D22*
X006614Y008063D03*
D23*
X003576Y020618D02*
X003476Y020618D01*
X003576Y020718D01*
X003576Y020743D01*
X003551Y020768D01*
X003501Y020768D01*
X003476Y020743D01*
X003429Y020768D02*
X003329Y020618D01*
X003429Y020618D02*
X003329Y020768D01*
M02*
