G75*
G70*
%OFA0B0*%
%FSLAX24Y24*%
%IPPOS*%
%LPD*%
%AMOC8*
5,1,8,0,0,1.08239X$1,22.5*
%
%ADD10R,0.4600X0.3300*%
%ADD11R,0.3800X0.2800*%
%ADD12R,0.8800X0.1500*%
%ADD13OC8,0.0600*%
%ADD14C,0.0600*%
%ADD15C,0.0520*%
%ADD16R,0.0709X0.0630*%
%ADD17R,0.1339X0.0748*%
%ADD18C,0.0520*%
%ADD19C,0.0709*%
%ADD20R,0.0630X0.0709*%
%ADD21OC8,0.1900*%
%ADD22R,0.0710X0.0630*%
%ADD23R,0.0709X0.0551*%
%ADD24R,0.0630X0.0710*%
%ADD25C,0.0240*%
%ADD26C,0.0120*%
%ADD27C,0.0100*%
%ADD28C,0.0476*%
%ADD29C,0.0437*%
%ADD30C,0.0160*%
%ADD31C,0.0555*%
D10*
X005574Y008213D03*
D11*
X010174Y010063D03*
D12*
X007674Y010913D03*
D13*
X013324Y019563D03*
X014324Y019563D03*
X014324Y020563D03*
X013324Y020563D03*
X013324Y021563D03*
X014324Y021563D03*
X032410Y013348D03*
X033410Y013348D03*
X033410Y012348D03*
X032410Y012348D03*
X032410Y011348D03*
X033410Y011348D03*
D14*
X030567Y010628D02*
X030207Y010628D01*
X028007Y010628D02*
X027647Y010628D01*
X027647Y012408D02*
X028007Y012408D01*
X030207Y012408D02*
X030567Y012408D01*
X030350Y020198D02*
X030350Y020558D01*
X030349Y021198D02*
X030349Y021558D01*
X029349Y021558D02*
X029349Y021198D01*
X029350Y020558D02*
X029350Y020198D01*
X028350Y020198D02*
X028350Y020558D01*
X028349Y021198D02*
X028349Y021558D01*
X027349Y021558D02*
X027349Y021198D01*
X027350Y020558D02*
X027350Y020198D01*
X026350Y020198D02*
X026350Y020558D01*
X025350Y020558D02*
X025350Y020198D01*
X025349Y021198D02*
X025349Y021558D01*
X026349Y021558D02*
X026349Y021198D01*
X023670Y020558D02*
X023670Y020198D01*
X022670Y020198D02*
X022670Y020558D01*
X022349Y021198D02*
X022349Y021558D01*
X021349Y021558D02*
X021349Y021198D01*
X021670Y020558D02*
X021670Y020198D01*
X020670Y020198D02*
X020670Y020558D01*
X020349Y021198D02*
X020349Y021558D01*
X019349Y021558D02*
X019349Y021198D01*
X019670Y020558D02*
X019670Y020198D01*
X018670Y020198D02*
X018670Y020558D01*
X018349Y021198D02*
X018349Y021558D01*
X017349Y021558D02*
X017349Y021198D01*
X017670Y020558D02*
X017670Y020198D01*
X016670Y020198D02*
X016670Y020558D01*
X016349Y021198D02*
X016349Y021558D01*
X016394Y017963D02*
X016754Y017963D01*
X016754Y016963D02*
X016394Y016963D01*
X016394Y015963D02*
X016754Y015963D01*
X016754Y014963D02*
X016394Y014963D01*
X016394Y013963D02*
X016754Y013963D01*
X016754Y012963D02*
X016394Y012963D01*
X014654Y012963D02*
X014294Y012963D01*
X014294Y013963D02*
X014654Y013963D01*
X014654Y014963D02*
X014294Y014963D01*
X014294Y015963D02*
X014654Y015963D01*
X014654Y016963D02*
X014294Y016963D01*
X014294Y017963D02*
X014654Y017963D01*
X012999Y012958D02*
X012639Y012958D01*
X012639Y011958D02*
X012999Y011958D01*
X012999Y010958D02*
X012639Y010958D01*
X014294Y010963D02*
X014654Y010963D01*
X014654Y009963D02*
X014294Y009963D01*
X014294Y008963D02*
X014654Y008963D01*
X014654Y007963D02*
X014294Y007963D01*
X016394Y007963D02*
X016754Y007963D01*
X016754Y008963D02*
X016394Y008963D01*
X016394Y009963D02*
X016754Y009963D01*
X016754Y010963D02*
X016394Y010963D01*
X020258Y002528D02*
X020258Y002168D01*
X020259Y001528D02*
X020259Y001168D01*
X021259Y001168D02*
X021259Y001528D01*
X021258Y002168D02*
X021258Y002528D01*
X022258Y002528D02*
X022258Y002168D01*
X022259Y001528D02*
X022259Y001168D01*
X023259Y001168D02*
X023259Y001528D01*
X023258Y002168D02*
X023258Y002528D01*
X024258Y002528D02*
X024258Y002168D01*
X025258Y002168D02*
X025258Y002528D01*
X025259Y001528D02*
X025259Y001168D01*
X024259Y001168D02*
X024259Y001528D01*
X027229Y001548D02*
X027229Y001188D01*
X028229Y001188D02*
X028229Y001548D01*
X028230Y002188D02*
X028230Y002548D01*
X027230Y002548D02*
X027230Y002188D01*
X029230Y002188D02*
X029230Y002548D01*
X030230Y002548D02*
X030230Y002188D01*
X031230Y002188D02*
X031230Y002548D01*
X032230Y002548D02*
X032230Y002188D01*
X032229Y001548D02*
X032229Y001188D01*
X031229Y001188D02*
X031229Y001548D01*
X030229Y001548D02*
X030229Y001188D01*
X029229Y001188D02*
X029229Y001548D01*
X031350Y020198D02*
X031350Y020558D01*
X031349Y021198D02*
X031349Y021558D01*
X032349Y021558D02*
X032349Y021198D01*
X032350Y020558D02*
X032350Y020198D01*
X023349Y021198D02*
X023349Y021558D01*
D15*
X011730Y021813D02*
X011418Y021813D01*
X011418Y020813D02*
X011730Y020813D01*
X011730Y019813D02*
X011418Y019813D01*
X011418Y018813D02*
X011730Y018813D01*
X011730Y017813D02*
X011418Y017813D01*
X011418Y016813D02*
X011730Y016813D01*
X011730Y015813D02*
X011418Y015813D01*
X011418Y014813D02*
X011730Y014813D01*
X011730Y013813D02*
X011418Y013813D01*
X011418Y012813D02*
X011730Y012813D01*
X008730Y012813D02*
X008418Y012813D01*
X008418Y013813D02*
X008730Y013813D01*
X008730Y014813D02*
X008418Y014813D01*
X008418Y015813D02*
X008730Y015813D01*
X008730Y016813D02*
X008418Y016813D01*
X008418Y017813D02*
X008730Y017813D01*
X008730Y018813D02*
X008418Y018813D01*
X008418Y019813D02*
X008730Y019813D01*
X008730Y020813D02*
X008418Y020813D01*
X008418Y021813D02*
X008730Y021813D01*
X019562Y008745D02*
X019562Y008433D01*
X020562Y008433D02*
X020562Y008745D01*
X021562Y008745D02*
X021562Y008433D01*
X022562Y008433D02*
X022562Y008745D01*
X023562Y008745D02*
X023562Y008433D01*
X024562Y008433D02*
X024562Y008745D01*
X025562Y008745D02*
X025562Y008433D01*
X026562Y008433D02*
X026562Y008745D01*
X027562Y008745D02*
X027562Y008433D01*
X028562Y008433D02*
X028562Y008745D01*
X029562Y008745D02*
X029562Y008433D01*
X030562Y008433D02*
X030562Y008745D01*
X031562Y008745D02*
X031562Y008433D01*
X032562Y008433D02*
X032562Y008745D01*
X032562Y005745D02*
X032562Y005433D01*
X031562Y005433D02*
X031562Y005745D01*
X030562Y005745D02*
X030562Y005433D01*
X029562Y005433D02*
X029562Y005745D01*
X028562Y005745D02*
X028562Y005433D01*
X027562Y005433D02*
X027562Y005745D01*
X026562Y005745D02*
X026562Y005433D01*
X025562Y005433D02*
X025562Y005745D01*
X024562Y005745D02*
X024562Y005433D01*
X023562Y005433D02*
X023562Y005745D01*
X022562Y005745D02*
X022562Y005433D01*
X021562Y005433D02*
X021562Y005745D01*
X020562Y005745D02*
X020562Y005433D01*
X019562Y005433D02*
X019562Y005745D01*
D16*
X012860Y008918D03*
X012860Y010020D03*
X010126Y013565D03*
X010126Y014668D03*
D17*
X010095Y015949D03*
X010095Y017485D03*
D18*
X006274Y015913D03*
X006274Y014013D03*
X024370Y012650D03*
X024370Y010750D03*
D19*
X012055Y005772D03*
X008055Y005772D03*
D20*
X013423Y006763D03*
X014525Y006763D03*
X027124Y007095D03*
X028226Y007095D03*
D21*
X007043Y004677D03*
X004683Y004677D03*
X005863Y002707D03*
D22*
X003524Y019553D03*
X003524Y020673D03*
D23*
X007124Y020644D03*
X007124Y019482D03*
X007124Y018144D03*
X007124Y021982D03*
D24*
X012404Y018393D03*
X013524Y018393D03*
X013524Y016843D03*
X012404Y016843D03*
D25*
X014474Y016963D02*
X015574Y016963D01*
X016574Y016963D01*
X016674Y016863D01*
X016574Y015963D02*
X015574Y015963D01*
X014474Y015963D01*
X014474Y014963D02*
X015574Y014963D01*
X016574Y014963D01*
X015574Y014963D01*
X014474Y014963D01*
X014474Y013963D02*
X015574Y013963D01*
X016574Y013963D01*
X016574Y012963D02*
X015574Y012963D01*
X014474Y012963D01*
X014474Y010963D02*
X015574Y010963D01*
X016574Y010963D01*
X016574Y009963D02*
X015574Y009963D01*
X014474Y009963D01*
X014474Y008963D02*
X015574Y008963D01*
X016574Y008963D01*
X016874Y008963D01*
X016574Y007963D02*
X015574Y007963D01*
X014474Y007963D01*
X014474Y008063D01*
X004590Y008063D01*
X014474Y007963D02*
X014474Y006763D01*
X014525Y006763D01*
X014474Y017963D02*
X015574Y017963D01*
X016574Y017963D01*
D26*
X003214Y006163D02*
X003214Y000609D01*
X015267Y000609D01*
X015238Y000638D01*
X015178Y000784D01*
X015178Y000942D01*
X015238Y001087D01*
X015350Y001199D01*
X015384Y001213D01*
X015350Y001227D01*
X015238Y001338D01*
X015178Y001484D01*
X015178Y001642D01*
X015238Y001787D01*
X015350Y001899D01*
X015384Y001913D01*
X015350Y001927D01*
X015238Y002038D01*
X015178Y002184D01*
X015178Y002342D01*
X015238Y002487D01*
X015350Y002599D01*
X015384Y002613D01*
X015350Y002627D01*
X015238Y002738D01*
X015178Y002884D01*
X015178Y003042D01*
X015238Y003187D01*
X015350Y003299D01*
X015384Y003313D01*
X015350Y003327D01*
X015238Y003438D01*
X015178Y003584D01*
X015178Y003742D01*
X015238Y003887D01*
X015350Y003999D01*
X015384Y004013D01*
X015350Y004027D01*
X015238Y004138D01*
X015178Y004284D01*
X015178Y004442D01*
X015238Y004587D01*
X015350Y004699D01*
X015384Y004713D01*
X015350Y004727D01*
X015238Y004838D01*
X015178Y004984D01*
X015178Y005142D01*
X015238Y005287D01*
X015350Y005399D01*
X015384Y005413D01*
X015350Y005427D01*
X015238Y005538D01*
X015178Y005684D01*
X015178Y005842D01*
X015238Y005987D01*
X015350Y006099D01*
X015384Y006113D01*
X015350Y006127D01*
X015238Y006238D01*
X015178Y006384D01*
X015178Y006542D01*
X015238Y006687D01*
X015350Y006799D01*
X015384Y006813D01*
X015350Y006827D01*
X015238Y006938D01*
X015178Y007084D01*
X015178Y007242D01*
X015238Y007387D01*
X015350Y007499D01*
X015476Y007551D01*
X015337Y007608D01*
X015283Y007663D01*
X015033Y007663D01*
X014926Y007556D01*
X014774Y007493D01*
X014774Y007297D01*
X014915Y007297D01*
X015020Y007192D01*
X015020Y006334D01*
X014915Y006229D01*
X014136Y006229D01*
X014030Y006334D01*
X014030Y006672D01*
X014026Y006684D01*
X014026Y006842D01*
X014030Y006853D01*
X014030Y007192D01*
X014136Y007297D01*
X014174Y007297D01*
X014174Y007493D01*
X014022Y007556D01*
X013887Y007691D01*
X013857Y007763D01*
X008274Y007763D01*
X008274Y006259D01*
X008358Y006225D01*
X008508Y006074D01*
X008590Y005878D01*
X008590Y005665D01*
X008508Y005469D01*
X008358Y005319D01*
X008161Y005237D01*
X008080Y005237D01*
X008173Y005145D01*
X008173Y004209D01*
X007511Y003547D01*
X006592Y003547D01*
X006973Y003166D01*
X006973Y002766D01*
X006496Y002766D01*
X006551Y002711D01*
X008332Y002711D01*
X008367Y002676D01*
X008367Y002626D01*
X008332Y002591D01*
X006973Y002591D01*
X006973Y002247D01*
X006322Y001597D01*
X005923Y001597D01*
X005923Y002646D01*
X005803Y002646D01*
X005803Y001597D01*
X005403Y001597D01*
X004753Y002247D01*
X004753Y002647D01*
X005803Y002647D01*
X005803Y002766D01*
X004753Y002766D01*
X004753Y003166D01*
X005403Y003817D01*
X005803Y003817D01*
X005803Y002767D01*
X005923Y002767D01*
X005923Y003177D01*
X005912Y003189D01*
X005912Y003189D01*
X005911Y003189D01*
X005912Y003214D01*
X005912Y004855D01*
X005913Y004856D01*
X005913Y005145D01*
X006575Y005807D01*
X007511Y005807D01*
X007521Y005796D01*
X007521Y005878D01*
X007602Y006074D01*
X007691Y006163D01*
X003214Y006163D01*
X003214Y006053D02*
X007593Y006053D01*
X007544Y005934D02*
X003214Y005934D01*
X003214Y005816D02*
X007521Y005816D01*
X008094Y005223D02*
X015212Y005223D01*
X015178Y005105D02*
X008173Y005105D01*
X008173Y004986D02*
X015178Y004986D01*
X015226Y004867D02*
X008173Y004867D01*
X008173Y004749D02*
X015328Y004749D01*
X015281Y004630D02*
X008173Y004630D01*
X008173Y004512D02*
X015207Y004512D01*
X015178Y004393D02*
X008173Y004393D01*
X008173Y004275D02*
X015182Y004275D01*
X015231Y004156D02*
X008120Y004156D01*
X008002Y004038D02*
X015339Y004038D01*
X015270Y003919D02*
X007883Y003919D01*
X007765Y003801D02*
X015202Y003801D01*
X015178Y003682D02*
X007646Y003682D01*
X007528Y003564D02*
X015186Y003564D01*
X015235Y003445D02*
X006694Y003445D01*
X006813Y003326D02*
X015351Y003326D01*
X015259Y003208D02*
X006931Y003208D01*
X006973Y003089D02*
X015198Y003089D01*
X015178Y002971D02*
X006973Y002971D01*
X006973Y002852D02*
X015191Y002852D01*
X015243Y002734D02*
X006529Y002734D01*
X006973Y002497D02*
X015247Y002497D01*
X015193Y002378D02*
X006973Y002378D01*
X006973Y002260D02*
X015178Y002260D01*
X015196Y002141D02*
X006867Y002141D01*
X006748Y002022D02*
X015254Y002022D01*
X015362Y001904D02*
X006630Y001904D01*
X006511Y001785D02*
X015237Y001785D01*
X015188Y001667D02*
X006393Y001667D01*
X005923Y001667D02*
X005803Y001667D01*
X005803Y001785D02*
X005923Y001785D01*
X005923Y001904D02*
X005803Y001904D01*
X005803Y002022D02*
X005923Y002022D01*
X005923Y002141D02*
X005803Y002141D01*
X005803Y002260D02*
X005923Y002260D01*
X005923Y002378D02*
X005803Y002378D01*
X005803Y002497D02*
X005923Y002497D01*
X005923Y002615D02*
X005803Y002615D01*
X005803Y002734D02*
X003214Y002734D01*
X003214Y002852D02*
X004753Y002852D01*
X004753Y002971D02*
X003214Y002971D01*
X003214Y003089D02*
X004753Y003089D01*
X004794Y003208D02*
X003214Y003208D01*
X003214Y003326D02*
X004913Y003326D01*
X005031Y003445D02*
X003214Y003445D01*
X003214Y003564D02*
X005150Y003564D01*
X005142Y003567D02*
X005793Y004217D01*
X005793Y004617D01*
X004743Y004617D01*
X004743Y004736D01*
X005793Y004736D01*
X005793Y005136D01*
X005142Y005787D01*
X004743Y005787D01*
X004743Y004737D01*
X004623Y004737D01*
X004623Y005787D01*
X004223Y005787D01*
X003573Y005136D01*
X003573Y004736D01*
X004623Y004736D01*
X004623Y004617D01*
X003573Y004617D01*
X003573Y004217D01*
X004223Y003567D01*
X004623Y003567D01*
X004623Y004616D01*
X004743Y004616D01*
X004743Y003567D01*
X005142Y003567D01*
X005258Y003682D02*
X005269Y003682D01*
X005376Y003801D02*
X005387Y003801D01*
X005495Y003919D02*
X005912Y003919D01*
X005912Y003801D02*
X005803Y003801D01*
X005803Y003682D02*
X005912Y003682D01*
X005912Y003564D02*
X005803Y003564D01*
X005803Y003445D02*
X005912Y003445D01*
X005912Y003326D02*
X005803Y003326D01*
X005803Y003208D02*
X005912Y003208D01*
X005923Y003089D02*
X005803Y003089D01*
X005803Y002971D02*
X005923Y002971D01*
X005923Y002852D02*
X005803Y002852D01*
X004753Y002615D02*
X003214Y002615D01*
X003214Y002497D02*
X004753Y002497D01*
X004753Y002378D02*
X003214Y002378D01*
X003214Y002260D02*
X004753Y002260D01*
X004859Y002141D02*
X003214Y002141D01*
X003214Y002022D02*
X004977Y002022D01*
X005096Y001904D02*
X003214Y001904D01*
X003214Y001785D02*
X005214Y001785D01*
X005333Y001667D02*
X003214Y001667D01*
X003214Y001548D02*
X015178Y001548D01*
X015200Y001430D02*
X003214Y001430D01*
X003214Y001311D02*
X015265Y001311D01*
X015344Y001193D02*
X003214Y001193D01*
X003214Y001074D02*
X015233Y001074D01*
X015184Y000956D02*
X003214Y000956D01*
X003214Y000837D02*
X015178Y000837D01*
X015205Y000718D02*
X003214Y000718D01*
X003214Y003682D02*
X004108Y003682D01*
X003989Y003801D02*
X003214Y003801D01*
X003214Y003919D02*
X003870Y003919D01*
X003752Y004038D02*
X003214Y004038D01*
X003214Y004156D02*
X003633Y004156D01*
X003573Y004275D02*
X003214Y004275D01*
X003214Y004393D02*
X003573Y004393D01*
X003573Y004512D02*
X003214Y004512D01*
X003214Y004630D02*
X004623Y004630D01*
X004623Y004512D02*
X004743Y004512D01*
X004743Y004630D02*
X005912Y004630D01*
X005912Y004512D02*
X005793Y004512D01*
X005793Y004393D02*
X005912Y004393D01*
X005912Y004275D02*
X005793Y004275D01*
X005732Y004156D02*
X005912Y004156D01*
X005912Y004038D02*
X005614Y004038D01*
X004743Y004038D02*
X004623Y004038D01*
X004623Y004156D02*
X004743Y004156D01*
X004743Y004275D02*
X004623Y004275D01*
X004623Y004393D02*
X004743Y004393D01*
X004743Y004749D02*
X004623Y004749D01*
X004623Y004867D02*
X004743Y004867D01*
X004743Y004986D02*
X004623Y004986D01*
X004623Y005105D02*
X004743Y005105D01*
X004743Y005223D02*
X004623Y005223D01*
X004623Y005342D02*
X004743Y005342D01*
X004743Y005460D02*
X004623Y005460D01*
X004623Y005579D02*
X004743Y005579D01*
X004743Y005697D02*
X004623Y005697D01*
X005232Y005697D02*
X006465Y005697D01*
X006347Y005579D02*
X005350Y005579D01*
X005469Y005460D02*
X006228Y005460D01*
X006110Y005342D02*
X005587Y005342D01*
X005706Y005223D02*
X005991Y005223D01*
X005913Y005105D02*
X005793Y005105D01*
X005793Y004986D02*
X005913Y004986D01*
X005913Y004867D02*
X005793Y004867D01*
X005793Y004749D02*
X005912Y004749D01*
X004743Y003919D02*
X004623Y003919D01*
X004623Y003801D02*
X004743Y003801D01*
X004743Y003682D02*
X004623Y003682D01*
X003573Y004749D02*
X003214Y004749D01*
X003214Y004867D02*
X003573Y004867D01*
X003573Y004986D02*
X003214Y004986D01*
X003214Y005105D02*
X003573Y005105D01*
X003660Y005223D02*
X003214Y005223D01*
X003214Y005342D02*
X003778Y005342D01*
X003897Y005460D02*
X003214Y005460D01*
X003214Y005579D02*
X004015Y005579D01*
X004134Y005697D02*
X003214Y005697D01*
X008274Y006290D02*
X011911Y006290D01*
X011949Y006306D02*
X011753Y006225D01*
X011602Y006074D01*
X011521Y005878D01*
X011521Y005665D01*
X011602Y005469D01*
X011753Y005319D01*
X011949Y005237D01*
X012161Y005237D01*
X012358Y005319D01*
X012508Y005469D01*
X012590Y005665D01*
X012590Y005878D01*
X012508Y006074D01*
X012358Y006225D01*
X012161Y006306D01*
X011949Y006306D01*
X012200Y006290D02*
X013000Y006290D01*
X013042Y006249D02*
X012948Y006342D01*
X012948Y006703D01*
X013363Y006703D01*
X013483Y006703D01*
X013483Y006823D01*
X013898Y006823D01*
X013898Y007183D01*
X013804Y007277D01*
X013483Y007277D01*
X013483Y006823D01*
X013363Y006823D01*
X013363Y007277D01*
X013042Y007277D01*
X012948Y007183D01*
X012948Y006823D01*
X013363Y006823D01*
X013363Y006703D01*
X013363Y006249D01*
X013042Y006249D01*
X012948Y006409D02*
X008274Y006409D01*
X008274Y006527D02*
X012948Y006527D01*
X012948Y006646D02*
X008274Y006646D01*
X008274Y006764D02*
X013363Y006764D01*
X013363Y006646D02*
X013483Y006646D01*
X013483Y006703D02*
X013483Y006249D01*
X013804Y006249D01*
X013898Y006342D01*
X013898Y006703D01*
X013483Y006703D01*
X013483Y006764D02*
X014026Y006764D01*
X014030Y006646D02*
X013898Y006646D01*
X013898Y006527D02*
X014030Y006527D01*
X014030Y006409D02*
X013898Y006409D01*
X013846Y006290D02*
X014074Y006290D01*
X013483Y006290D02*
X013363Y006290D01*
X013363Y006409D02*
X013483Y006409D01*
X013483Y006527D02*
X013363Y006527D01*
X013363Y006883D02*
X013483Y006883D01*
X013483Y007001D02*
X013363Y007001D01*
X013363Y007120D02*
X013483Y007120D01*
X013483Y007238D02*
X013363Y007238D01*
X013003Y007238D02*
X008274Y007238D01*
X008274Y007120D02*
X012948Y007120D01*
X012948Y007001D02*
X008274Y007001D01*
X008274Y006883D02*
X012948Y006883D01*
X012411Y006171D02*
X015305Y006171D01*
X015304Y006053D02*
X012517Y006053D01*
X012566Y005934D02*
X015216Y005934D01*
X015178Y005816D02*
X012590Y005816D01*
X012590Y005697D02*
X015178Y005697D01*
X015221Y005579D02*
X012554Y005579D01*
X012499Y005460D02*
X015316Y005460D01*
X015293Y005342D02*
X012381Y005342D01*
X011729Y005342D02*
X008381Y005342D01*
X008499Y005460D02*
X011611Y005460D01*
X011557Y005579D02*
X008554Y005579D01*
X008590Y005697D02*
X011521Y005697D01*
X011521Y005816D02*
X008590Y005816D01*
X008566Y005934D02*
X011544Y005934D01*
X011593Y006053D02*
X008517Y006053D01*
X008411Y006171D02*
X011699Y006171D01*
X013898Y006883D02*
X014030Y006883D01*
X014030Y007001D02*
X013898Y007001D01*
X013898Y007120D02*
X014030Y007120D01*
X014077Y007238D02*
X013843Y007238D01*
X014174Y007357D02*
X008274Y007357D01*
X008274Y007475D02*
X014174Y007475D01*
X013984Y007594D02*
X008274Y007594D01*
X008274Y007713D02*
X013878Y007713D01*
X014774Y007475D02*
X015326Y007475D01*
X015372Y007594D02*
X014964Y007594D01*
X014774Y007357D02*
X015226Y007357D01*
X015178Y007238D02*
X014973Y007238D01*
X015020Y007120D02*
X015178Y007120D01*
X015212Y007001D02*
X015020Y007001D01*
X015020Y006883D02*
X015294Y006883D01*
X015315Y006764D02*
X015020Y006764D01*
X015020Y006646D02*
X015221Y006646D01*
X015178Y006527D02*
X015020Y006527D01*
X015020Y006409D02*
X015178Y006409D01*
X015217Y006290D02*
X014976Y006290D01*
X015764Y006113D02*
X015798Y006127D01*
X015910Y006238D01*
X015970Y006384D01*
X015970Y006542D01*
X015910Y006687D01*
X015798Y006799D01*
X015764Y006813D01*
X015798Y006827D01*
X015910Y006938D01*
X015970Y007084D01*
X015970Y007242D01*
X015910Y007387D01*
X015798Y007499D01*
X015672Y007551D01*
X015811Y007608D01*
X015865Y007663D01*
X016015Y007663D01*
X016122Y007556D01*
X016299Y007483D01*
X016849Y007483D01*
X017026Y007556D01*
X017161Y007691D01*
X017234Y007867D01*
X017234Y008058D01*
X017161Y008235D01*
X017026Y008370D01*
X016849Y008443D01*
X016299Y008443D01*
X016122Y008370D01*
X016015Y008263D01*
X015865Y008263D01*
X015844Y008284D01*
X015891Y008400D01*
X015891Y008526D01*
X015844Y008641D01*
X015865Y008663D01*
X016015Y008663D01*
X016122Y008556D01*
X016299Y008483D01*
X016849Y008483D01*
X017026Y008556D01*
X017161Y008691D01*
X017234Y008867D01*
X017234Y008998D01*
X017669Y009433D01*
X017804Y009568D01*
X017804Y011068D01*
X017804Y011193D01*
X018456Y010541D01*
X018456Y010380D01*
X018520Y010226D01*
X018637Y010108D01*
X018791Y010045D01*
X018957Y010045D01*
X019111Y010108D01*
X019228Y010226D01*
X019292Y010380D01*
X019292Y010546D01*
X019228Y010700D01*
X019111Y010817D01*
X018957Y010881D01*
X018795Y010881D01*
X018014Y011662D01*
X018014Y015612D01*
X018128Y015726D01*
X018192Y015880D01*
X018192Y016021D01*
X018934Y015173D01*
X018934Y013714D01*
X018820Y013600D01*
X018756Y013446D01*
X018756Y013280D01*
X018820Y013126D01*
X018937Y013008D01*
X019091Y012945D01*
X019257Y012945D01*
X019411Y013008D01*
X019515Y013112D01*
X019467Y012681D01*
X019391Y012681D01*
X019237Y012617D01*
X019120Y012500D01*
X019056Y012346D01*
X019056Y012180D01*
X019120Y012026D01*
X019237Y011908D01*
X019391Y011845D01*
X019557Y011845D01*
X019711Y011908D01*
X019828Y012026D01*
X019892Y012180D01*
X019892Y012343D01*
X019894Y012357D01*
X019904Y012368D01*
X019904Y012450D01*
X019944Y012811D01*
X019944Y012058D01*
X019664Y011778D01*
X019657Y011781D01*
X019491Y011781D01*
X019337Y011717D01*
X019220Y011600D01*
X019156Y011446D01*
X019156Y011280D01*
X019220Y011126D01*
X019337Y011008D01*
X019344Y011006D01*
X019344Y009958D01*
X018479Y009093D01*
X018479Y009093D01*
X018344Y008958D01*
X018344Y004127D01*
X018344Y003937D01*
X019778Y002503D01*
X019778Y002072D01*
X019851Y001896D01*
X019900Y001847D01*
X019852Y001800D01*
X019779Y001623D01*
X019779Y001072D01*
X019852Y000896D01*
X019987Y000761D01*
X020164Y000688D01*
X020354Y000688D01*
X020531Y000761D01*
X020666Y000896D01*
X020739Y001072D01*
X020739Y001623D01*
X020666Y001800D01*
X020617Y001848D01*
X020665Y001896D01*
X020738Y002072D01*
X020738Y002623D01*
X020665Y002800D01*
X020530Y002935D01*
X020354Y003008D01*
X020163Y003008D01*
X019993Y002938D01*
X018804Y004127D01*
X018804Y008768D01*
X019669Y009633D01*
X019669Y009633D01*
X019804Y009768D01*
X019804Y011006D01*
X019811Y011008D01*
X019928Y011126D01*
X019992Y011280D01*
X019992Y011446D01*
X019989Y011453D01*
X020344Y011808D01*
X020344Y009958D01*
X019979Y009593D01*
X019844Y009458D01*
X019844Y009085D01*
X019811Y009118D01*
X019650Y009185D01*
X019475Y009185D01*
X019313Y009118D01*
X019189Y008994D01*
X019122Y008832D01*
X019122Y008345D01*
X019189Y008184D01*
X019313Y008060D01*
X019475Y007993D01*
X019650Y007993D01*
X019811Y008060D01*
X019844Y008092D01*
X019844Y006758D01*
X019579Y006493D01*
X019444Y006358D01*
X019444Y006172D01*
X019313Y006118D01*
X019189Y005994D01*
X019122Y005832D01*
X019122Y005345D01*
X019189Y005184D01*
X019313Y005060D01*
X019475Y004993D01*
X019650Y004993D01*
X019811Y005060D01*
X019935Y005184D01*
X020002Y005345D01*
X020002Y005832D01*
X019935Y005994D01*
X019904Y006025D01*
X019904Y006168D01*
X020304Y006568D01*
X020304Y006758D01*
X020304Y008069D01*
X020313Y008060D01*
X020475Y007993D01*
X020650Y007993D01*
X020811Y008060D01*
X020844Y008092D01*
X020844Y006858D01*
X020479Y006493D01*
X020344Y006358D01*
X020344Y006131D01*
X020313Y006118D01*
X020189Y005994D01*
X020122Y005832D01*
X020122Y005345D01*
X020189Y005184D01*
X020313Y005060D01*
X020475Y004993D01*
X020650Y004993D01*
X020811Y005060D01*
X020935Y005184D01*
X021002Y005345D01*
X021002Y005832D01*
X020935Y005994D01*
X020811Y006118D01*
X020804Y006121D01*
X020804Y006168D01*
X021304Y006668D01*
X021304Y006858D01*
X021304Y008069D01*
X021313Y008060D01*
X021475Y007993D01*
X021650Y007993D01*
X021757Y008038D01*
X021720Y008000D01*
X021656Y007846D01*
X021656Y007680D01*
X021659Y007672D01*
X021634Y007611D01*
X021634Y007515D01*
X021634Y006814D01*
X021520Y006700D01*
X021456Y006546D01*
X021456Y006380D01*
X021520Y006226D01*
X021561Y006185D01*
X021475Y006185D01*
X021313Y006118D01*
X021189Y005994D01*
X021122Y005832D01*
X021122Y005345D01*
X021189Y005184D01*
X021313Y005060D01*
X021475Y004993D01*
X021650Y004993D01*
X021811Y005060D01*
X021935Y005184D01*
X022002Y005345D01*
X022002Y005832D01*
X021935Y005994D01*
X021884Y006045D01*
X021957Y006045D01*
X022111Y006108D01*
X022228Y006226D01*
X022292Y006380D01*
X022292Y006546D01*
X022228Y006700D01*
X022114Y006814D01*
X022114Y007345D01*
X022157Y007345D01*
X022311Y007408D01*
X022428Y007526D01*
X022492Y007680D01*
X022492Y007846D01*
X022428Y008000D01*
X022407Y008021D01*
X022475Y007993D01*
X022650Y007993D01*
X022811Y008060D01*
X022834Y008082D01*
X022834Y007715D01*
X022871Y007627D01*
X022938Y007559D01*
X023322Y007175D01*
X023322Y006122D01*
X023313Y006118D01*
X023189Y005994D01*
X023122Y005832D01*
X023122Y005345D01*
X023189Y005184D01*
X023313Y005060D01*
X023475Y004993D01*
X023650Y004993D01*
X023811Y005060D01*
X023834Y005082D01*
X023834Y004762D01*
X023775Y004703D01*
X022873Y004703D01*
X022814Y004762D01*
X022814Y005062D01*
X022935Y005184D01*
X023002Y005345D01*
X023002Y005832D01*
X022935Y005994D01*
X022811Y006118D01*
X022650Y006185D01*
X022475Y006185D01*
X022313Y006118D01*
X022189Y005994D01*
X022122Y005832D01*
X022122Y005345D01*
X022189Y005184D01*
X022313Y005060D01*
X022334Y005051D01*
X022334Y004615D01*
X022371Y004527D01*
X022438Y004459D01*
X022638Y004259D01*
X022726Y004223D01*
X022822Y004223D01*
X023922Y004223D01*
X024010Y004259D01*
X024077Y004327D01*
X024277Y004527D01*
X024314Y004615D01*
X024314Y004711D01*
X024314Y005059D01*
X024475Y004993D01*
X024650Y004993D01*
X024811Y005060D01*
X024935Y005184D01*
X025002Y005345D01*
X025002Y005832D01*
X024935Y005994D01*
X024814Y006115D01*
X024814Y006263D01*
X025406Y006855D01*
X026629Y006855D01*
X026629Y006667D01*
X026734Y006561D01*
X027514Y006561D01*
X027619Y006667D01*
X027619Y007524D01*
X027514Y007630D01*
X027246Y007630D01*
X026814Y008062D01*
X026814Y008062D01*
X026935Y008184D01*
X027002Y008345D01*
X027002Y008832D01*
X026935Y008994D01*
X026811Y009118D01*
X026650Y009185D01*
X026475Y009185D01*
X026313Y009118D01*
X026189Y008994D01*
X026122Y008832D01*
X026122Y008345D01*
X026189Y008184D01*
X026313Y008060D01*
X026334Y008051D01*
X026334Y007915D01*
X026371Y007827D01*
X026438Y007759D01*
X026651Y007546D01*
X026629Y007524D01*
X026629Y007335D01*
X025354Y007335D01*
X025259Y007335D01*
X025171Y007299D01*
X024514Y006642D01*
X024514Y006767D01*
X024533Y006775D01*
X024662Y006904D01*
X024731Y007072D01*
X024731Y007254D01*
X024662Y007422D01*
X024533Y007551D01*
X024365Y007620D01*
X024183Y007620D01*
X024015Y007551D01*
X023886Y007422D01*
X023817Y007254D01*
X023817Y007072D01*
X023886Y006904D01*
X024015Y006775D01*
X024034Y006767D01*
X024034Y006662D01*
X023938Y006566D01*
X023871Y006499D01*
X023834Y006411D01*
X023834Y006095D01*
X023811Y006118D01*
X023802Y006122D01*
X023802Y007227D01*
X023802Y007322D01*
X023766Y007411D01*
X023314Y007862D01*
X023314Y008059D01*
X023475Y007993D01*
X023650Y007993D01*
X023811Y008060D01*
X023935Y008184D01*
X024002Y008345D01*
X024002Y008832D01*
X023935Y008994D01*
X023811Y009118D01*
X023650Y009185D01*
X023475Y009185D01*
X023314Y009118D01*
X023314Y014612D01*
X023428Y014726D01*
X023492Y014880D01*
X023492Y015046D01*
X023469Y015102D01*
X025699Y012327D01*
X025699Y012313D01*
X025757Y012254D01*
X025809Y012189D01*
X025824Y012188D01*
X025834Y012178D01*
X025916Y012178D01*
X025999Y012169D01*
X026010Y012178D01*
X027223Y012178D01*
X027240Y012136D01*
X027375Y012001D01*
X027552Y011928D01*
X028103Y011928D01*
X028275Y011999D01*
X028275Y011011D01*
X028268Y011018D01*
X028099Y011088D01*
X027867Y011088D01*
X027867Y010668D01*
X027787Y010668D01*
X027787Y011088D01*
X027556Y011088D01*
X027387Y011018D01*
X027257Y010888D01*
X027187Y010719D01*
X027187Y010668D01*
X027787Y010668D01*
X027787Y010588D01*
X027187Y010588D01*
X027187Y010536D01*
X027257Y010367D01*
X027387Y010238D01*
X027556Y010168D01*
X027787Y010168D01*
X027787Y010588D01*
X027867Y010588D01*
X027867Y010168D01*
X028099Y010168D01*
X028268Y010238D01*
X028275Y010245D01*
X028275Y010218D01*
X027342Y009285D01*
X027302Y009189D01*
X027302Y009107D01*
X027189Y008994D01*
X027122Y008832D01*
X027122Y008345D01*
X027189Y008184D01*
X027313Y008060D01*
X027475Y007993D01*
X027650Y007993D01*
X027811Y008060D01*
X027935Y008184D01*
X028002Y008345D01*
X028002Y008832D01*
X027935Y008994D01*
X027861Y009068D01*
X028522Y009730D01*
X028437Y009631D01*
X028408Y009601D01*
X028404Y009592D01*
X028397Y009584D01*
X028384Y009544D01*
X028368Y009506D01*
X028368Y009495D01*
X028365Y009485D01*
X028368Y009444D01*
X028368Y009141D01*
X028313Y009118D01*
X028189Y008994D01*
X028122Y008832D01*
X028122Y008345D01*
X028189Y008184D01*
X028313Y008060D01*
X028475Y007993D01*
X028650Y007993D01*
X028811Y008060D01*
X028935Y008184D01*
X029002Y008345D01*
X029002Y008832D01*
X028935Y008994D01*
X028888Y009041D01*
X028888Y009358D01*
X029113Y009621D01*
X029120Y009628D01*
X029150Y009602D01*
X029181Y009571D01*
X029188Y009568D01*
X029302Y009466D01*
X029302Y009107D01*
X029189Y008994D01*
X029122Y008832D01*
X029122Y008345D01*
X029189Y008184D01*
X029313Y008060D01*
X029475Y007993D01*
X029650Y007993D01*
X029811Y008060D01*
X029935Y008184D01*
X030002Y008345D01*
X030002Y008832D01*
X029935Y008994D01*
X029822Y009107D01*
X029822Y009538D01*
X029825Y009545D01*
X029822Y009590D01*
X029822Y009634D01*
X029819Y009641D01*
X029819Y009648D01*
X030212Y009305D01*
X030212Y009016D01*
X029913Y009016D01*
X029975Y008898D02*
X030149Y008898D01*
X030122Y008832D02*
X030122Y008345D01*
X030189Y008184D01*
X030313Y008060D01*
X030475Y007993D01*
X030650Y007993D01*
X030811Y008060D01*
X030935Y008184D01*
X031002Y008345D01*
X031002Y008832D01*
X030935Y008994D01*
X030811Y009118D01*
X030732Y009151D01*
X030732Y009380D01*
X030735Y009389D01*
X030732Y009432D01*
X030732Y009474D01*
X030728Y009483D01*
X030728Y009492D01*
X030708Y009530D01*
X030692Y009570D01*
X030686Y009576D01*
X030682Y009585D01*
X030649Y009613D01*
X030619Y009643D01*
X030610Y009647D01*
X029944Y010228D01*
X029944Y010240D01*
X029947Y010238D01*
X030116Y010168D01*
X030347Y010168D01*
X030347Y010588D01*
X030427Y010588D01*
X030427Y010668D01*
X030347Y010668D01*
X030347Y011088D01*
X030116Y011088D01*
X029947Y011018D01*
X029944Y011015D01*
X029944Y011997D01*
X030112Y011928D01*
X030663Y011928D01*
X030839Y012001D01*
X030974Y012136D01*
X031034Y012281D01*
X031034Y009715D01*
X031071Y009627D01*
X031138Y009559D01*
X031322Y009375D01*
X031322Y009122D01*
X031313Y009118D01*
X031189Y008994D01*
X031122Y008832D01*
X031122Y008345D01*
X031189Y008184D01*
X031313Y008060D01*
X031475Y007993D01*
X031650Y007993D01*
X031811Y008060D01*
X031935Y008184D01*
X032002Y008345D01*
X032002Y008832D01*
X031935Y008994D01*
X031811Y009118D01*
X031802Y009122D01*
X031802Y009427D01*
X031802Y009522D01*
X031766Y009611D01*
X031514Y009862D01*
X031514Y012919D01*
X031930Y012503D01*
X031930Y012149D01*
X032211Y011868D01*
X032609Y011868D01*
X032890Y012149D01*
X032890Y012547D01*
X032609Y012828D01*
X032255Y012828D01*
X032215Y012868D01*
X032609Y012868D01*
X032890Y013149D01*
X032890Y013547D01*
X032650Y013787D01*
X032650Y013800D01*
X032873Y014023D01*
X033675Y014023D01*
X033734Y013963D01*
X033734Y013703D01*
X033609Y013828D01*
X033211Y013828D01*
X032930Y013547D01*
X032930Y013149D01*
X033211Y012868D01*
X033609Y012868D01*
X033734Y012993D01*
X033734Y012703D01*
X033609Y012828D01*
X033211Y012828D01*
X032930Y012547D01*
X032930Y012149D01*
X033211Y011868D01*
X033609Y011868D01*
X033734Y011993D01*
X033734Y011674D01*
X033601Y011808D01*
X033450Y011808D01*
X033450Y011388D01*
X033370Y011388D01*
X033370Y011808D01*
X033220Y011808D01*
X032950Y011538D01*
X032950Y011388D01*
X033370Y011388D01*
X033370Y011308D01*
X032950Y011308D01*
X032950Y011157D01*
X033220Y010888D01*
X033370Y010888D01*
X033370Y011308D01*
X033450Y011308D01*
X033450Y010888D01*
X033601Y010888D01*
X033734Y011021D01*
X033734Y004962D01*
X033484Y004712D01*
X033465Y004720D01*
X033283Y004720D01*
X033115Y004651D01*
X032986Y004522D01*
X032917Y004354D01*
X032917Y004172D01*
X032986Y004004D01*
X033115Y003875D01*
X033283Y003805D01*
X033465Y003805D01*
X033633Y003875D01*
X033762Y004004D01*
X033831Y004172D01*
X033831Y004354D01*
X033824Y004373D01*
X034177Y004726D01*
X034178Y003422D01*
X033245Y002508D01*
X033244Y002508D01*
X033197Y002461D01*
X033151Y002416D01*
X033151Y002415D01*
X033150Y002414D01*
X033150Y002350D01*
X033150Y002283D01*
X033150Y002282D01*
X033151Y001445D01*
X033137Y001431D01*
X033137Y001387D01*
X033133Y001381D01*
X033137Y001367D01*
X033141Y000606D01*
X032358Y000609D01*
X032358Y000609D01*
X032291Y000609D01*
X032226Y000610D01*
X032226Y000609D01*
X015881Y000609D01*
X015910Y000638D01*
X015970Y000784D01*
X015970Y000942D01*
X015910Y001087D01*
X015798Y001199D01*
X015764Y001213D01*
X015798Y001227D01*
X015910Y001338D01*
X015970Y001484D01*
X015970Y001642D01*
X015910Y001787D01*
X015798Y001899D01*
X015764Y001913D01*
X015798Y001927D01*
X015910Y002038D01*
X015970Y002184D01*
X015970Y002342D01*
X015910Y002487D01*
X015798Y002599D01*
X015764Y002613D01*
X015798Y002627D01*
X015910Y002738D01*
X015970Y002884D01*
X015970Y003042D01*
X015910Y003187D01*
X015798Y003299D01*
X015764Y003313D01*
X015798Y003327D01*
X015910Y003438D01*
X015970Y003584D01*
X015970Y003742D01*
X015910Y003887D01*
X015798Y003999D01*
X015764Y004013D01*
X015798Y004027D01*
X015910Y004138D01*
X015970Y004284D01*
X015970Y004442D01*
X015910Y004587D01*
X015798Y004699D01*
X015764Y004713D01*
X015798Y004727D01*
X015910Y004838D01*
X015970Y004984D01*
X015970Y005142D01*
X015910Y005287D01*
X015798Y005399D01*
X015764Y005413D01*
X015798Y005427D01*
X015910Y005538D01*
X015970Y005684D01*
X015970Y005842D01*
X015910Y005987D01*
X015798Y006099D01*
X015764Y006113D01*
X015843Y006171D02*
X018344Y006171D01*
X018344Y006053D02*
X015844Y006053D01*
X015932Y005934D02*
X018344Y005934D01*
X018344Y005816D02*
X015970Y005816D01*
X015970Y005697D02*
X018344Y005697D01*
X018344Y005579D02*
X015927Y005579D01*
X015832Y005460D02*
X018344Y005460D01*
X018344Y005342D02*
X015855Y005342D01*
X015936Y005223D02*
X018344Y005223D01*
X018344Y005105D02*
X015970Y005105D01*
X015970Y004986D02*
X018344Y004986D01*
X018344Y004867D02*
X015922Y004867D01*
X015820Y004749D02*
X018344Y004749D01*
X018344Y004630D02*
X015867Y004630D01*
X015941Y004512D02*
X018344Y004512D01*
X018344Y004393D02*
X015970Y004393D01*
X015966Y004275D02*
X018344Y004275D01*
X018344Y004156D02*
X015917Y004156D01*
X015809Y004038D02*
X018344Y004038D01*
X018362Y003919D02*
X015878Y003919D01*
X015946Y003801D02*
X018480Y003801D01*
X018599Y003682D02*
X015970Y003682D01*
X015962Y003564D02*
X018717Y003564D01*
X018836Y003445D02*
X015913Y003445D01*
X015797Y003326D02*
X018954Y003326D01*
X019073Y003208D02*
X015889Y003208D01*
X015950Y003089D02*
X019191Y003089D01*
X019310Y002971D02*
X015970Y002971D01*
X015957Y002852D02*
X019429Y002852D01*
X019547Y002734D02*
X015905Y002734D01*
X015770Y002615D02*
X019666Y002615D01*
X019778Y002497D02*
X015901Y002497D01*
X015955Y002378D02*
X019778Y002378D01*
X019778Y002260D02*
X015970Y002260D01*
X015952Y002141D02*
X019778Y002141D01*
X019799Y002022D02*
X015894Y002022D01*
X015786Y001904D02*
X019848Y001904D01*
X019846Y001785D02*
X015911Y001785D01*
X015960Y001667D02*
X019797Y001667D01*
X019779Y001548D02*
X015970Y001548D01*
X015948Y001430D02*
X019779Y001430D01*
X019779Y001311D02*
X015883Y001311D01*
X015804Y001193D02*
X019779Y001193D01*
X019779Y001074D02*
X015915Y001074D01*
X015964Y000956D02*
X019827Y000956D01*
X019911Y000837D02*
X015970Y000837D01*
X015943Y000718D02*
X020090Y000718D01*
X020428Y000718D02*
X021090Y000718D01*
X021164Y000688D02*
X021354Y000688D01*
X021531Y000761D01*
X021666Y000896D01*
X021739Y001072D01*
X021739Y001623D01*
X021666Y001800D01*
X021617Y001848D01*
X021665Y001896D01*
X021738Y002072D01*
X021738Y002623D01*
X021665Y002800D01*
X021530Y002935D01*
X021354Y003008D01*
X021163Y003008D01*
X020986Y002935D01*
X020851Y002800D01*
X020778Y002623D01*
X020778Y002072D01*
X020851Y001896D01*
X020900Y001847D01*
X020852Y001800D01*
X020779Y001623D01*
X020779Y001072D01*
X020852Y000896D01*
X020987Y000761D01*
X021164Y000688D01*
X021428Y000718D02*
X022090Y000718D01*
X022164Y000688D02*
X021987Y000761D01*
X021852Y000896D01*
X021779Y001072D01*
X021779Y001623D01*
X021852Y001800D01*
X021900Y001847D01*
X021851Y001896D01*
X021778Y002072D01*
X021778Y002623D01*
X021851Y002800D01*
X021986Y002935D01*
X022163Y003008D01*
X022354Y003008D01*
X022530Y002935D01*
X022665Y002800D01*
X022738Y002623D01*
X022738Y002072D01*
X022665Y001896D01*
X022617Y001848D01*
X022666Y001800D01*
X022739Y001623D01*
X022739Y001072D01*
X022666Y000896D01*
X022531Y000761D01*
X022354Y000688D01*
X022164Y000688D01*
X022428Y000718D02*
X023142Y000718D01*
X023167Y000708D02*
X022998Y000778D01*
X022869Y000907D01*
X022799Y001076D01*
X022799Y001308D01*
X023219Y001308D01*
X023219Y001388D01*
X023219Y001988D01*
X023218Y001988D01*
X023218Y002308D01*
X022798Y002308D01*
X022798Y002076D01*
X022868Y001907D01*
X022928Y001847D01*
X022869Y001788D01*
X022799Y001619D01*
X022799Y001388D01*
X023219Y001388D01*
X023299Y001388D01*
X023299Y001708D01*
X023298Y001708D01*
X023298Y002308D01*
X023298Y002388D01*
X023218Y002388D01*
X023218Y002988D01*
X023167Y002988D01*
X022998Y002918D01*
X022868Y002788D01*
X022798Y002619D01*
X022798Y002388D01*
X023218Y002388D01*
X023218Y002308D01*
X023298Y002308D01*
X023718Y002308D01*
X023718Y002076D01*
X023648Y001907D01*
X023589Y001848D01*
X023649Y001788D01*
X023719Y001619D01*
X023719Y001388D01*
X023299Y001388D01*
X023299Y001308D01*
X023719Y001308D01*
X023719Y001076D01*
X023649Y000907D01*
X023520Y000778D01*
X023351Y000708D01*
X023299Y000708D01*
X023299Y001308D01*
X023219Y001308D01*
X023219Y000708D01*
X023167Y000708D01*
X023219Y000718D02*
X023299Y000718D01*
X023376Y000718D02*
X024142Y000718D01*
X024167Y000708D02*
X023998Y000778D01*
X023869Y000907D01*
X023799Y001076D01*
X023799Y001308D01*
X024219Y001308D01*
X024219Y001388D01*
X024219Y001988D01*
X024218Y001988D01*
X024218Y002308D01*
X023798Y002308D01*
X023798Y002076D01*
X023868Y001907D01*
X023928Y001847D01*
X023869Y001788D01*
X023799Y001619D01*
X023799Y001388D01*
X024219Y001388D01*
X024299Y001388D01*
X024299Y001708D01*
X024298Y001708D01*
X024298Y002308D01*
X024298Y002388D01*
X024218Y002388D01*
X024218Y002988D01*
X024167Y002988D01*
X023998Y002918D01*
X023868Y002788D01*
X023798Y002619D01*
X023798Y002388D01*
X024218Y002388D01*
X024218Y002308D01*
X024298Y002308D01*
X024718Y002308D01*
X024718Y002076D01*
X024648Y001907D01*
X024589Y001848D01*
X024649Y001788D01*
X024719Y001619D01*
X024719Y001388D01*
X024299Y001388D01*
X024299Y001308D01*
X024719Y001308D01*
X024719Y001076D01*
X024649Y000907D01*
X024520Y000778D01*
X024351Y000708D01*
X024299Y000708D01*
X024299Y001308D01*
X024219Y001308D01*
X024219Y000708D01*
X024167Y000708D01*
X024219Y000718D02*
X024299Y000718D01*
X024376Y000718D02*
X025090Y000718D01*
X025164Y000688D02*
X024987Y000761D01*
X024852Y000896D01*
X024779Y001072D01*
X024779Y001623D01*
X024852Y001800D01*
X024900Y001847D01*
X024851Y001896D01*
X024778Y002072D01*
X024778Y002623D01*
X024851Y002800D01*
X024986Y002935D01*
X024998Y002940D01*
X024998Y003571D01*
X024866Y003703D01*
X019724Y003703D01*
X019723Y003702D01*
X019672Y003703D01*
X019622Y003703D01*
X019621Y003704D01*
X019619Y003704D01*
X019573Y003723D01*
X019527Y003742D01*
X019526Y003744D01*
X019524Y003744D01*
X019489Y003780D01*
X019454Y003816D01*
X019453Y003817D01*
X019452Y003818D01*
X019433Y003865D01*
X019414Y003911D01*
X019414Y003913D01*
X019355Y004059D01*
X019237Y004108D01*
X019120Y004226D01*
X019056Y004380D01*
X019056Y004546D01*
X019120Y004700D01*
X019237Y004817D01*
X019391Y004881D01*
X019557Y004881D01*
X019711Y004817D01*
X019828Y004700D01*
X019892Y004546D01*
X019892Y004380D01*
X019839Y004251D01*
X019850Y004223D01*
X025026Y004223D01*
X025121Y004183D01*
X025194Y004110D01*
X025479Y003826D01*
X025518Y003730D01*
X025518Y003627D01*
X025518Y002940D01*
X025530Y002935D01*
X025665Y002800D01*
X025738Y002623D01*
X025738Y002072D01*
X025665Y001896D01*
X025617Y001848D01*
X025666Y001800D01*
X025739Y001623D01*
X025739Y001072D01*
X025666Y000896D01*
X025531Y000761D01*
X025354Y000688D01*
X025164Y000688D01*
X025428Y000718D02*
X027108Y000718D01*
X027134Y000708D02*
X027324Y000708D01*
X027501Y000781D01*
X027636Y000916D01*
X027709Y001092D01*
X027709Y001643D01*
X027636Y001820D01*
X027588Y001867D01*
X027637Y001916D01*
X027710Y002092D01*
X027710Y002643D01*
X027637Y002820D01*
X027624Y002833D01*
X027783Y002992D01*
X027822Y003088D01*
X027822Y003191D01*
X027822Y005071D01*
X027935Y005184D01*
X028002Y005345D01*
X028002Y005832D01*
X027935Y005994D01*
X027811Y006118D01*
X027650Y006185D01*
X027475Y006185D01*
X027313Y006118D01*
X027189Y005994D01*
X027122Y005832D01*
X027122Y005345D01*
X027189Y005184D01*
X027302Y005071D01*
X027302Y003247D01*
X027107Y003052D01*
X027046Y002991D01*
X026958Y002955D01*
X026823Y002820D01*
X026750Y002643D01*
X026750Y002092D01*
X026823Y001916D01*
X026871Y001868D01*
X026822Y001820D01*
X026749Y001643D01*
X026749Y001092D01*
X026822Y000916D01*
X026957Y000781D01*
X027134Y000708D01*
X027350Y000718D02*
X028108Y000718D01*
X028134Y000708D02*
X027957Y000781D01*
X027822Y000916D01*
X027749Y001092D01*
X027749Y001643D01*
X027822Y001820D01*
X027871Y001868D01*
X027823Y001916D01*
X027750Y002092D01*
X027750Y002643D01*
X027823Y002820D01*
X027958Y002955D01*
X027970Y002960D01*
X027970Y004755D01*
X027970Y004859D01*
X028010Y004954D01*
X028214Y005159D01*
X028189Y005184D01*
X028122Y005345D01*
X028122Y005832D01*
X028189Y005994D01*
X028313Y006118D01*
X028475Y006185D01*
X028650Y006185D01*
X028811Y006118D01*
X028935Y005994D01*
X029002Y005832D01*
X029002Y005345D01*
X028935Y005184D01*
X028811Y005060D01*
X028763Y005040D01*
X028763Y005029D01*
X028724Y004933D01*
X028651Y004860D01*
X028490Y004699D01*
X028490Y002960D01*
X028502Y002955D01*
X028637Y002820D01*
X028710Y002643D01*
X028710Y002092D01*
X028637Y001916D01*
X028588Y001867D01*
X028636Y001820D01*
X028709Y001643D01*
X028709Y001092D01*
X028636Y000916D01*
X028501Y000781D01*
X028324Y000708D01*
X028134Y000708D01*
X028350Y000718D02*
X029108Y000718D01*
X029134Y000708D02*
X029324Y000708D01*
X029501Y000781D01*
X029636Y000916D01*
X029709Y001092D01*
X029709Y001643D01*
X029636Y001820D01*
X029588Y001867D01*
X029637Y001916D01*
X029710Y002092D01*
X029710Y002643D01*
X029637Y002820D01*
X029545Y002912D01*
X029783Y003149D01*
X029822Y003245D01*
X029822Y003348D01*
X029822Y005071D01*
X029935Y005184D01*
X030002Y005345D01*
X030002Y005832D01*
X029935Y005994D01*
X029811Y006118D01*
X029650Y006185D01*
X029475Y006185D01*
X029313Y006118D01*
X029189Y005994D01*
X029122Y005832D01*
X029122Y005345D01*
X029189Y005184D01*
X029302Y005071D01*
X029302Y003404D01*
X029137Y003239D01*
X029064Y003166D01*
X029025Y003070D01*
X029025Y002982D01*
X028958Y002955D01*
X028823Y002820D01*
X028750Y002643D01*
X028750Y002092D01*
X028823Y001916D01*
X028871Y001868D01*
X028822Y001820D01*
X028749Y001643D01*
X028749Y001092D01*
X028822Y000916D01*
X028957Y000781D01*
X029134Y000708D01*
X029350Y000718D02*
X030108Y000718D01*
X030134Y000708D02*
X030324Y000708D01*
X030501Y000781D01*
X030636Y000916D01*
X030709Y001092D01*
X030709Y001643D01*
X030636Y001820D01*
X030588Y001867D01*
X030637Y001916D01*
X030710Y002092D01*
X030710Y002643D01*
X030637Y002820D01*
X030561Y002896D01*
X030783Y003118D01*
X030822Y003214D01*
X030822Y003317D01*
X030822Y005071D01*
X030935Y005184D01*
X031002Y005345D01*
X031002Y005832D01*
X030935Y005994D01*
X030811Y006118D01*
X030650Y006185D01*
X030475Y006185D01*
X030313Y006118D01*
X030189Y005994D01*
X030122Y005832D01*
X030122Y005345D01*
X030189Y005184D01*
X030302Y005071D01*
X030302Y003373D01*
X030137Y003208D01*
X029807Y003208D01*
X029822Y003326D02*
X030256Y003326D01*
X030302Y003445D02*
X029822Y003445D01*
X029822Y003564D02*
X030302Y003564D01*
X030302Y003682D02*
X029822Y003682D01*
X029822Y003801D02*
X030302Y003801D01*
X030302Y003919D02*
X029822Y003919D01*
X029822Y004038D02*
X030302Y004038D01*
X030302Y004156D02*
X029822Y004156D01*
X029822Y004275D02*
X030302Y004275D01*
X030302Y004393D02*
X029822Y004393D01*
X029822Y004512D02*
X030302Y004512D01*
X030302Y004630D02*
X029822Y004630D01*
X029822Y004749D02*
X030302Y004749D01*
X030302Y004867D02*
X029822Y004867D01*
X029822Y004986D02*
X030302Y004986D01*
X030268Y005105D02*
X029856Y005105D01*
X029952Y005223D02*
X030173Y005223D01*
X030124Y005342D02*
X030001Y005342D01*
X030002Y005460D02*
X030122Y005460D01*
X030122Y005579D02*
X030002Y005579D01*
X030002Y005697D02*
X030122Y005697D01*
X030122Y005816D02*
X030002Y005816D01*
X029960Y005934D02*
X030164Y005934D01*
X030248Y006053D02*
X029876Y006053D01*
X029682Y006171D02*
X030442Y006171D01*
X030682Y006171D02*
X031442Y006171D01*
X031475Y006185D02*
X031313Y006118D01*
X031189Y005994D01*
X031122Y005832D01*
X031122Y005345D01*
X031189Y005184D01*
X031302Y005071D01*
X031302Y003436D01*
X031074Y003208D01*
X030820Y003208D01*
X030822Y003326D02*
X031193Y003326D01*
X031302Y003445D02*
X030822Y003445D01*
X030822Y003564D02*
X031302Y003564D01*
X031302Y003682D02*
X030822Y003682D01*
X030822Y003801D02*
X031302Y003801D01*
X031302Y003919D02*
X030822Y003919D01*
X030822Y004038D02*
X031302Y004038D01*
X031302Y004156D02*
X030822Y004156D01*
X030822Y004275D02*
X031302Y004275D01*
X031302Y004393D02*
X030822Y004393D01*
X030822Y004512D02*
X031302Y004512D01*
X031302Y004630D02*
X030822Y004630D01*
X030822Y004749D02*
X031302Y004749D01*
X031302Y004867D02*
X030822Y004867D01*
X030822Y004986D02*
X031302Y004986D01*
X031268Y005105D02*
X030856Y005105D01*
X030952Y005223D02*
X031173Y005223D01*
X031124Y005342D02*
X031001Y005342D01*
X031002Y005460D02*
X031122Y005460D01*
X031122Y005579D02*
X031002Y005579D01*
X031002Y005697D02*
X031122Y005697D01*
X031122Y005816D02*
X031002Y005816D01*
X030960Y005934D02*
X031164Y005934D01*
X031248Y006053D02*
X030876Y006053D01*
X031475Y006185D02*
X031650Y006185D01*
X031811Y006118D01*
X031935Y005994D01*
X032002Y005832D01*
X032002Y005345D01*
X031935Y005184D01*
X031822Y005071D01*
X031822Y003380D01*
X031822Y003276D01*
X031783Y003181D01*
X031529Y002928D01*
X031637Y002820D01*
X031710Y002643D01*
X031710Y002092D01*
X031637Y001916D01*
X031588Y001867D01*
X031636Y001820D01*
X031709Y001643D01*
X031709Y001092D01*
X031636Y000916D01*
X031501Y000781D01*
X031324Y000708D01*
X031134Y000708D01*
X030957Y000781D01*
X030822Y000916D01*
X030749Y001092D01*
X030749Y001643D01*
X030822Y001820D01*
X030871Y001868D01*
X030823Y001916D01*
X030750Y002092D01*
X030750Y002643D01*
X030823Y002820D01*
X030958Y002955D01*
X030961Y002956D01*
X030961Y003039D01*
X031001Y003135D01*
X031074Y003208D01*
X030982Y003089D02*
X030754Y003089D01*
X030635Y002971D02*
X030961Y002971D01*
X030856Y002852D02*
X030605Y002852D01*
X030673Y002734D02*
X030788Y002734D01*
X030750Y002615D02*
X030710Y002615D01*
X030710Y002497D02*
X030750Y002497D01*
X030750Y002378D02*
X030710Y002378D01*
X030710Y002260D02*
X030750Y002260D01*
X030750Y002141D02*
X030710Y002141D01*
X030681Y002022D02*
X030779Y002022D01*
X030835Y001904D02*
X030625Y001904D01*
X030650Y001785D02*
X030808Y001785D01*
X030759Y001667D02*
X030699Y001667D01*
X030709Y001548D02*
X030749Y001548D01*
X030749Y001430D02*
X030709Y001430D01*
X030709Y001311D02*
X030749Y001311D01*
X030749Y001193D02*
X030709Y001193D01*
X030701Y001074D02*
X030757Y001074D01*
X030806Y000956D02*
X030652Y000956D01*
X030557Y000837D02*
X030901Y000837D01*
X031108Y000718D02*
X030350Y000718D01*
X030134Y000708D02*
X029957Y000781D01*
X029822Y000916D01*
X029749Y001092D01*
X029749Y001643D01*
X029822Y001820D01*
X029871Y001868D01*
X029823Y001916D01*
X029750Y002092D01*
X029750Y002643D01*
X029823Y002820D01*
X029958Y002955D01*
X030024Y002982D01*
X030024Y003039D01*
X030064Y003135D01*
X030137Y003208D01*
X030137Y003208D01*
X030045Y003089D02*
X029723Y003089D01*
X029604Y002971D02*
X029997Y002971D01*
X029856Y002852D02*
X029605Y002852D01*
X029673Y002734D02*
X029788Y002734D01*
X029750Y002615D02*
X029710Y002615D01*
X029710Y002497D02*
X029750Y002497D01*
X029750Y002378D02*
X029710Y002378D01*
X029710Y002260D02*
X029750Y002260D01*
X029750Y002141D02*
X029710Y002141D01*
X029681Y002022D02*
X029779Y002022D01*
X029835Y001904D02*
X029625Y001904D01*
X029650Y001785D02*
X029808Y001785D01*
X029759Y001667D02*
X029699Y001667D01*
X029709Y001548D02*
X029749Y001548D01*
X029749Y001430D02*
X029709Y001430D01*
X029709Y001311D02*
X029749Y001311D01*
X029749Y001193D02*
X029709Y001193D01*
X029701Y001074D02*
X029757Y001074D01*
X029806Y000956D02*
X029652Y000956D01*
X029557Y000837D02*
X029901Y000837D01*
X028901Y000837D02*
X028557Y000837D01*
X028652Y000956D02*
X028806Y000956D01*
X028757Y001074D02*
X028701Y001074D01*
X028709Y001193D02*
X028749Y001193D01*
X028749Y001311D02*
X028709Y001311D01*
X028709Y001430D02*
X028749Y001430D01*
X028749Y001548D02*
X028709Y001548D01*
X028699Y001667D02*
X028759Y001667D01*
X028808Y001785D02*
X028650Y001785D01*
X028625Y001904D02*
X028835Y001904D01*
X028779Y002022D02*
X028681Y002022D01*
X028710Y002141D02*
X028750Y002141D01*
X028750Y002260D02*
X028710Y002260D01*
X028710Y002378D02*
X028750Y002378D01*
X028750Y002497D02*
X028710Y002497D01*
X028710Y002615D02*
X028750Y002615D01*
X028788Y002734D02*
X028673Y002734D01*
X028605Y002852D02*
X028856Y002852D01*
X028997Y002971D02*
X028490Y002971D01*
X028490Y003089D02*
X029032Y003089D01*
X029106Y003208D02*
X028490Y003208D01*
X028490Y003326D02*
X029225Y003326D01*
X029302Y003445D02*
X028490Y003445D01*
X028490Y003564D02*
X029302Y003564D01*
X029302Y003682D02*
X028490Y003682D01*
X028490Y003801D02*
X029302Y003801D01*
X029302Y003919D02*
X028490Y003919D01*
X028490Y004038D02*
X029302Y004038D01*
X029302Y004156D02*
X028490Y004156D01*
X028490Y004275D02*
X029302Y004275D01*
X029302Y004393D02*
X028490Y004393D01*
X028490Y004512D02*
X029302Y004512D01*
X029302Y004630D02*
X028490Y004630D01*
X028540Y004749D02*
X029302Y004749D01*
X029302Y004867D02*
X028658Y004867D01*
X028746Y004986D02*
X029302Y004986D01*
X029268Y005105D02*
X028856Y005105D01*
X028952Y005223D02*
X029173Y005223D01*
X029124Y005342D02*
X029001Y005342D01*
X029002Y005460D02*
X029122Y005460D01*
X029122Y005579D02*
X029002Y005579D01*
X029002Y005697D02*
X029122Y005697D01*
X029122Y005816D02*
X029002Y005816D01*
X028960Y005934D02*
X029164Y005934D01*
X029248Y006053D02*
X028876Y006053D01*
X028682Y006171D02*
X029442Y006171D01*
X028701Y006675D02*
X028701Y007036D01*
X028286Y007036D01*
X028286Y007155D01*
X028701Y007155D01*
X028701Y007516D01*
X028608Y007610D01*
X028286Y007610D01*
X028286Y007156D01*
X028166Y007156D01*
X028166Y007610D01*
X027845Y007610D01*
X027751Y007516D01*
X027751Y007155D01*
X028166Y007155D01*
X028166Y007036D01*
X027751Y007036D01*
X027751Y006675D01*
X027845Y006581D01*
X028166Y006581D01*
X028166Y007035D01*
X028286Y007035D01*
X028286Y006581D01*
X028608Y006581D01*
X028701Y006675D01*
X028672Y006646D02*
X033734Y006646D01*
X033734Y006764D02*
X028701Y006764D01*
X028701Y006883D02*
X033734Y006883D01*
X033734Y007001D02*
X028701Y007001D01*
X028701Y007238D02*
X033734Y007238D01*
X033734Y007120D02*
X028286Y007120D01*
X028286Y007238D02*
X028166Y007238D01*
X028166Y007120D02*
X027619Y007120D01*
X027619Y007238D02*
X027751Y007238D01*
X027751Y007357D02*
X027619Y007357D01*
X027619Y007475D02*
X027751Y007475D01*
X027829Y007594D02*
X027549Y007594D01*
X027164Y007713D02*
X033734Y007713D01*
X033734Y007831D02*
X027045Y007831D01*
X026927Y007950D02*
X033734Y007950D01*
X033734Y008068D02*
X032820Y008068D01*
X032811Y008060D02*
X032935Y008184D01*
X033002Y008345D01*
X033002Y008832D01*
X032935Y008994D01*
X032811Y009118D01*
X032802Y009122D01*
X032802Y011061D01*
X032890Y011149D01*
X032890Y011547D01*
X032609Y011828D01*
X032211Y011828D01*
X031930Y011547D01*
X031930Y011149D01*
X032211Y010868D01*
X032322Y010868D01*
X032322Y009122D01*
X032313Y009118D01*
X032189Y008994D01*
X032122Y008832D01*
X032122Y008345D01*
X032189Y008184D01*
X032313Y008060D01*
X032475Y007993D01*
X032650Y007993D01*
X032811Y008060D01*
X032936Y008187D02*
X033734Y008187D01*
X033734Y008305D02*
X032986Y008305D01*
X033002Y008424D02*
X033734Y008424D01*
X033734Y008542D02*
X033002Y008542D01*
X033002Y008661D02*
X033734Y008661D01*
X033734Y008779D02*
X033002Y008779D01*
X032975Y008898D02*
X033734Y008898D01*
X033734Y009016D02*
X032913Y009016D01*
X032802Y009135D02*
X033734Y009135D01*
X033734Y009254D02*
X032802Y009254D01*
X032802Y009372D02*
X033734Y009372D01*
X033734Y009491D02*
X032802Y009491D01*
X032802Y009609D02*
X033734Y009609D01*
X033734Y009728D02*
X032802Y009728D01*
X032802Y009846D02*
X033734Y009846D01*
X033734Y009965D02*
X032802Y009965D01*
X032802Y010083D02*
X033734Y010083D01*
X033734Y010202D02*
X032802Y010202D01*
X032802Y010320D02*
X033734Y010320D01*
X033734Y010439D02*
X032802Y010439D01*
X032802Y010558D02*
X033734Y010558D01*
X033734Y010676D02*
X032802Y010676D01*
X032802Y010795D02*
X033734Y010795D01*
X033734Y010913D02*
X033626Y010913D01*
X033450Y010913D02*
X033370Y010913D01*
X033370Y011032D02*
X033450Y011032D01*
X033450Y011150D02*
X033370Y011150D01*
X033370Y011269D02*
X033450Y011269D01*
X033370Y011387D02*
X032890Y011387D01*
X032890Y011269D02*
X032950Y011269D01*
X032957Y011150D02*
X032890Y011150D01*
X032802Y011032D02*
X033076Y011032D01*
X033194Y010913D02*
X032802Y010913D01*
X032562Y011196D02*
X032410Y011348D01*
X032562Y011196D02*
X032562Y008589D01*
X032122Y008542D02*
X032002Y008542D01*
X032002Y008424D02*
X032122Y008424D01*
X032139Y008305D02*
X031986Y008305D01*
X031936Y008187D02*
X032188Y008187D01*
X032305Y008068D02*
X031820Y008068D01*
X031305Y008068D02*
X030820Y008068D01*
X030936Y008187D02*
X031188Y008187D01*
X031139Y008305D02*
X030986Y008305D01*
X031002Y008424D02*
X031122Y008424D01*
X031122Y008542D02*
X031002Y008542D01*
X031002Y008661D02*
X031122Y008661D01*
X031122Y008779D02*
X031002Y008779D01*
X030975Y008898D02*
X031149Y008898D01*
X031212Y009016D02*
X030913Y009016D01*
X030770Y009135D02*
X031322Y009135D01*
X031322Y009254D02*
X030732Y009254D01*
X030732Y009372D02*
X031322Y009372D01*
X031207Y009491D02*
X030728Y009491D01*
X030653Y009609D02*
X031088Y009609D01*
X031034Y009728D02*
X030518Y009728D01*
X030382Y009846D02*
X031034Y009846D01*
X031034Y009965D02*
X030246Y009965D01*
X030110Y010083D02*
X031034Y010083D01*
X031034Y010202D02*
X030741Y010202D01*
X030659Y010168D02*
X030828Y010238D01*
X030957Y010367D01*
X031027Y010536D01*
X031027Y010588D01*
X030427Y010588D01*
X030427Y010168D01*
X030659Y010168D01*
X030427Y010202D02*
X030347Y010202D01*
X030347Y010320D02*
X030427Y010320D01*
X030427Y010439D02*
X030347Y010439D01*
X030347Y010558D02*
X030427Y010558D01*
X030427Y010668D02*
X031027Y010668D01*
X031027Y010719D01*
X030957Y010888D01*
X030828Y011018D01*
X030659Y011088D01*
X030427Y011088D01*
X030427Y010668D01*
X030427Y010676D02*
X030347Y010676D01*
X030347Y010795D02*
X030427Y010795D01*
X030427Y010913D02*
X030347Y010913D01*
X030347Y011032D02*
X030427Y011032D01*
X030794Y011032D02*
X031034Y011032D01*
X031034Y011150D02*
X029944Y011150D01*
X029944Y011032D02*
X029980Y011032D01*
X029944Y011269D02*
X031034Y011269D01*
X031034Y011387D02*
X029944Y011387D01*
X029944Y011506D02*
X031034Y011506D01*
X031034Y011624D02*
X029944Y011624D01*
X029944Y011743D02*
X031034Y011743D01*
X031034Y011862D02*
X029944Y011862D01*
X029944Y011980D02*
X029986Y011980D01*
X030789Y011980D02*
X031034Y011980D01*
X031034Y012099D02*
X030937Y012099D01*
X031008Y012217D02*
X031034Y012217D01*
X031514Y012217D02*
X031930Y012217D01*
X031930Y012336D02*
X031514Y012336D01*
X031514Y012454D02*
X031930Y012454D01*
X031860Y012573D02*
X031514Y012573D01*
X031514Y012691D02*
X031741Y012691D01*
X031623Y012810D02*
X031514Y012810D01*
X031514Y012099D02*
X031981Y012099D01*
X032099Y011980D02*
X031514Y011980D01*
X031514Y011862D02*
X033734Y011862D01*
X033721Y011980D02*
X033734Y011980D01*
X033734Y011743D02*
X033666Y011743D01*
X033450Y011743D02*
X033370Y011743D01*
X033370Y011624D02*
X033450Y011624D01*
X033450Y011506D02*
X033370Y011506D01*
X033155Y011743D02*
X032694Y011743D01*
X032812Y011624D02*
X033036Y011624D01*
X032950Y011506D02*
X032890Y011506D01*
X032721Y011980D02*
X033099Y011980D01*
X032981Y012099D02*
X032840Y012099D01*
X032890Y012217D02*
X032930Y012217D01*
X032930Y012336D02*
X032890Y012336D01*
X032890Y012454D02*
X032930Y012454D01*
X032956Y012573D02*
X032864Y012573D01*
X032745Y012691D02*
X033075Y012691D01*
X033193Y012810D02*
X032627Y012810D01*
X032670Y012928D02*
X033151Y012928D01*
X033032Y013047D02*
X032788Y013047D01*
X032890Y013166D02*
X032930Y013166D01*
X032930Y013284D02*
X032890Y013284D01*
X032890Y013403D02*
X032930Y013403D01*
X032930Y013521D02*
X032890Y013521D01*
X032797Y013640D02*
X033023Y013640D01*
X033142Y013758D02*
X032679Y013758D01*
X032727Y013877D02*
X033734Y013877D01*
X033734Y013758D02*
X033679Y013758D01*
X033702Y013995D02*
X032846Y013995D01*
X032774Y014263D02*
X033774Y014263D01*
X033974Y014063D01*
X033974Y004863D01*
X033374Y004263D01*
X032917Y004275D02*
X032481Y004275D01*
X032481Y004393D02*
X032933Y004393D01*
X032982Y004512D02*
X032481Y004512D01*
X032481Y004630D02*
X033095Y004630D01*
X033521Y004749D02*
X032481Y004749D01*
X032481Y004816D02*
X032663Y004998D01*
X032811Y005060D01*
X032935Y005184D01*
X033002Y005345D01*
X033002Y005832D01*
X032935Y005994D01*
X032811Y006118D01*
X032650Y006185D01*
X032475Y006185D01*
X032313Y006118D01*
X032189Y005994D01*
X032122Y005832D01*
X032122Y005345D01*
X032167Y005238D01*
X032074Y005145D01*
X032001Y005071D01*
X031961Y004976D01*
X031961Y002956D01*
X031958Y002955D01*
X031823Y002820D01*
X031750Y002643D01*
X031750Y002092D01*
X031823Y001916D01*
X031871Y001868D01*
X031822Y001820D01*
X031749Y001643D01*
X031749Y001092D01*
X031822Y000916D01*
X031957Y000781D01*
X032134Y000708D01*
X032324Y000708D01*
X032501Y000781D01*
X032636Y000916D01*
X032709Y001092D01*
X032709Y001643D01*
X032636Y001820D01*
X032588Y001867D01*
X032637Y001916D01*
X032710Y002092D01*
X032710Y002643D01*
X032637Y002820D01*
X032502Y002955D01*
X032481Y002963D01*
X032481Y004816D01*
X032532Y004867D02*
X033639Y004867D01*
X033734Y004986D02*
X032651Y004986D01*
X032856Y005105D02*
X033734Y005105D01*
X033734Y005223D02*
X032952Y005223D01*
X033001Y005342D02*
X033734Y005342D01*
X033734Y005460D02*
X033002Y005460D01*
X033002Y005579D02*
X033734Y005579D01*
X033734Y005697D02*
X033002Y005697D01*
X033002Y005816D02*
X033734Y005816D01*
X033734Y005934D02*
X032960Y005934D01*
X032876Y006053D02*
X033734Y006053D01*
X033734Y006171D02*
X032682Y006171D01*
X032442Y006171D02*
X031682Y006171D01*
X031876Y006053D02*
X032248Y006053D01*
X032164Y005934D02*
X031960Y005934D01*
X032002Y005816D02*
X032122Y005816D01*
X032122Y005697D02*
X032002Y005697D01*
X032002Y005579D02*
X032122Y005579D01*
X032122Y005460D02*
X032002Y005460D01*
X032001Y005342D02*
X032124Y005342D01*
X032152Y005223D02*
X031952Y005223D01*
X032034Y005105D02*
X031856Y005105D01*
X031822Y004986D02*
X031965Y004986D01*
X031961Y004867D02*
X031822Y004867D01*
X031822Y004749D02*
X031961Y004749D01*
X031961Y004630D02*
X031822Y004630D01*
X031822Y004512D02*
X031961Y004512D01*
X031961Y004393D02*
X031822Y004393D01*
X031822Y004275D02*
X031961Y004275D01*
X031961Y004156D02*
X031822Y004156D01*
X031822Y004038D02*
X031961Y004038D01*
X031961Y003919D02*
X031822Y003919D01*
X031822Y003801D02*
X031961Y003801D01*
X031961Y003682D02*
X031822Y003682D01*
X031822Y003564D02*
X031961Y003564D01*
X031961Y003445D02*
X031822Y003445D01*
X031822Y003326D02*
X031961Y003326D01*
X031961Y003208D02*
X031794Y003208D01*
X031691Y003089D02*
X031961Y003089D01*
X031961Y002971D02*
X031573Y002971D01*
X031605Y002852D02*
X031856Y002852D01*
X031788Y002734D02*
X031673Y002734D01*
X031710Y002615D02*
X031750Y002615D01*
X031750Y002497D02*
X031710Y002497D01*
X031710Y002378D02*
X031750Y002378D01*
X031750Y002260D02*
X031710Y002260D01*
X031710Y002141D02*
X031750Y002141D01*
X031779Y002022D02*
X031681Y002022D01*
X031625Y001904D02*
X031835Y001904D01*
X031808Y001785D02*
X031650Y001785D01*
X031699Y001667D02*
X031759Y001667D01*
X031749Y001548D02*
X031709Y001548D01*
X031709Y001430D02*
X031749Y001430D01*
X031749Y001311D02*
X031709Y001311D01*
X031709Y001193D02*
X031749Y001193D01*
X031757Y001074D02*
X031701Y001074D01*
X031652Y000956D02*
X031806Y000956D01*
X031901Y000837D02*
X031557Y000837D01*
X031350Y000718D02*
X032108Y000718D01*
X032350Y000718D02*
X033140Y000718D01*
X033140Y000837D02*
X032557Y000837D01*
X032652Y000956D02*
X033139Y000956D01*
X033139Y001074D02*
X032701Y001074D01*
X032709Y001193D02*
X033138Y001193D01*
X033137Y001311D02*
X032709Y001311D01*
X032709Y001430D02*
X033137Y001430D01*
X033151Y001548D02*
X032709Y001548D01*
X032699Y001667D02*
X033151Y001667D01*
X033151Y001785D02*
X032650Y001785D01*
X032625Y001904D02*
X033151Y001904D01*
X033150Y002022D02*
X032681Y002022D01*
X032710Y002141D02*
X033150Y002141D01*
X033150Y002260D02*
X032710Y002260D01*
X032710Y002378D02*
X033150Y002378D01*
X033233Y002497D02*
X032710Y002497D01*
X032710Y002615D02*
X033354Y002615D01*
X033475Y002734D02*
X032673Y002734D01*
X032605Y002852D02*
X033596Y002852D01*
X033717Y002971D02*
X032481Y002971D01*
X032481Y003089D02*
X033838Y003089D01*
X033959Y003208D02*
X032481Y003208D01*
X032481Y003326D02*
X034080Y003326D01*
X034178Y003445D02*
X032481Y003445D01*
X032481Y003564D02*
X034178Y003564D01*
X034177Y003682D02*
X032481Y003682D01*
X032481Y003801D02*
X034177Y003801D01*
X034177Y003919D02*
X033677Y003919D01*
X033776Y004038D02*
X034177Y004038D01*
X034177Y004156D02*
X033825Y004156D01*
X033831Y004275D02*
X034177Y004275D01*
X034177Y004393D02*
X033844Y004393D01*
X033962Y004512D02*
X034177Y004512D01*
X034177Y004630D02*
X034081Y004630D01*
X033071Y003919D02*
X032481Y003919D01*
X032481Y004038D02*
X032972Y004038D01*
X032923Y004156D02*
X032481Y004156D01*
X033734Y006290D02*
X024841Y006290D01*
X024814Y006171D02*
X025442Y006171D01*
X025475Y006185D02*
X025313Y006118D01*
X025189Y005994D01*
X025122Y005832D01*
X025122Y005345D01*
X025189Y005184D01*
X025313Y005060D01*
X025475Y004993D01*
X025650Y004993D01*
X025811Y005060D01*
X025935Y005184D01*
X026002Y005345D01*
X026002Y005832D01*
X025935Y005994D01*
X025811Y006118D01*
X025650Y006185D01*
X025475Y006185D01*
X025682Y006171D02*
X027442Y006171D01*
X027248Y006053D02*
X026848Y006053D01*
X026800Y006101D02*
X026918Y005983D01*
X026982Y005828D01*
X026982Y005609D01*
X026582Y005609D01*
X026542Y005609D01*
X026542Y006165D01*
X026479Y006165D01*
X026324Y006101D01*
X026206Y005983D01*
X026142Y005828D01*
X026142Y005609D01*
X026542Y005609D01*
X026542Y005569D01*
X026142Y005569D01*
X026142Y005349D01*
X026206Y005195D01*
X026324Y005077D01*
X026479Y005013D01*
X026542Y005013D01*
X026542Y005569D01*
X026582Y005569D01*
X026582Y005609D01*
X026582Y006165D01*
X026646Y006165D01*
X026800Y006101D01*
X026938Y005934D02*
X027164Y005934D01*
X027122Y005816D02*
X026982Y005816D01*
X026982Y005697D02*
X027122Y005697D01*
X027122Y005579D02*
X026582Y005579D01*
X026582Y005569D02*
X026982Y005569D01*
X026982Y005349D01*
X026918Y005195D01*
X026800Y005077D01*
X026646Y005013D01*
X026582Y005013D01*
X026582Y005569D01*
X026542Y005579D02*
X026002Y005579D01*
X026002Y005697D02*
X026142Y005697D01*
X026142Y005816D02*
X026002Y005816D01*
X025960Y005934D02*
X026186Y005934D01*
X026276Y006053D02*
X025876Y006053D01*
X025474Y005677D02*
X025562Y005589D01*
X025122Y005579D02*
X025002Y005579D01*
X025002Y005697D02*
X025122Y005697D01*
X025122Y005816D02*
X025002Y005816D01*
X024960Y005934D02*
X025164Y005934D01*
X025248Y006053D02*
X024876Y006053D01*
X024959Y006409D02*
X033734Y006409D01*
X033734Y006527D02*
X025078Y006527D01*
X025196Y006646D02*
X026650Y006646D01*
X026629Y006764D02*
X025315Y006764D01*
X025307Y007095D02*
X024574Y006363D01*
X024574Y005601D01*
X024562Y005589D01*
X025002Y005460D02*
X025122Y005460D01*
X025124Y005342D02*
X025001Y005342D01*
X024952Y005223D02*
X025173Y005223D01*
X025268Y005105D02*
X024856Y005105D01*
X024314Y004986D02*
X027302Y004986D01*
X027302Y004867D02*
X024314Y004867D01*
X024314Y004749D02*
X027302Y004749D01*
X027302Y004630D02*
X024314Y004630D01*
X024262Y004512D02*
X027302Y004512D01*
X027302Y004393D02*
X024144Y004393D01*
X024025Y004275D02*
X027302Y004275D01*
X027302Y004156D02*
X025148Y004156D01*
X025267Y004038D02*
X027302Y004038D01*
X027302Y003919D02*
X025385Y003919D01*
X025489Y003801D02*
X027302Y003801D01*
X027302Y003682D02*
X025518Y003682D01*
X025518Y003564D02*
X027302Y003564D01*
X027302Y003445D02*
X025518Y003445D01*
X025518Y003326D02*
X027302Y003326D01*
X027263Y003208D02*
X025518Y003208D01*
X025518Y003089D02*
X027144Y003089D01*
X026997Y002971D02*
X025518Y002971D01*
X025613Y002852D02*
X026856Y002852D01*
X026788Y002734D02*
X025692Y002734D01*
X025738Y002615D02*
X026750Y002615D01*
X026750Y002497D02*
X025738Y002497D01*
X025738Y002378D02*
X026750Y002378D01*
X026750Y002260D02*
X025738Y002260D01*
X025738Y002141D02*
X026750Y002141D01*
X026779Y002022D02*
X025717Y002022D01*
X025668Y001904D02*
X026835Y001904D01*
X026808Y001785D02*
X025672Y001785D01*
X025721Y001667D02*
X026759Y001667D01*
X026749Y001548D02*
X025739Y001548D01*
X025739Y001430D02*
X026749Y001430D01*
X026749Y001311D02*
X025739Y001311D01*
X025739Y001193D02*
X026749Y001193D01*
X026757Y001074D02*
X025739Y001074D01*
X025691Y000956D02*
X026806Y000956D01*
X026901Y000837D02*
X025607Y000837D01*
X024911Y000837D02*
X024579Y000837D01*
X024669Y000956D02*
X024827Y000956D01*
X024779Y001074D02*
X024718Y001074D01*
X024719Y001193D02*
X024779Y001193D01*
X024779Y001311D02*
X024299Y001311D01*
X024219Y001311D02*
X023299Y001311D01*
X023219Y001311D02*
X022739Y001311D01*
X022739Y001193D02*
X022799Y001193D01*
X022800Y001074D02*
X022739Y001074D01*
X022691Y000956D02*
X022849Y000956D01*
X022939Y000837D02*
X022607Y000837D01*
X023219Y000837D02*
X023299Y000837D01*
X023299Y000956D02*
X023219Y000956D01*
X023219Y001074D02*
X023299Y001074D01*
X023299Y001193D02*
X023219Y001193D01*
X023219Y001430D02*
X023299Y001430D01*
X023299Y001548D02*
X023219Y001548D01*
X023219Y001667D02*
X023299Y001667D01*
X023298Y001785D02*
X023219Y001785D01*
X023219Y001904D02*
X023298Y001904D01*
X023298Y002022D02*
X023218Y002022D01*
X023218Y002141D02*
X023298Y002141D01*
X023298Y002260D02*
X023218Y002260D01*
X023218Y002378D02*
X022738Y002378D01*
X022738Y002260D02*
X022798Y002260D01*
X022798Y002141D02*
X022738Y002141D01*
X022717Y002022D02*
X022820Y002022D01*
X022872Y001904D02*
X022668Y001904D01*
X022672Y001785D02*
X022868Y001785D01*
X022819Y001667D02*
X022721Y001667D01*
X022739Y001548D02*
X022799Y001548D01*
X022799Y001430D02*
X022739Y001430D01*
X021846Y001785D02*
X021672Y001785D01*
X021668Y001904D02*
X021848Y001904D01*
X021799Y002022D02*
X021717Y002022D01*
X021738Y002141D02*
X021778Y002141D01*
X021778Y002260D02*
X021738Y002260D01*
X021738Y002378D02*
X021778Y002378D01*
X021778Y002497D02*
X021738Y002497D01*
X021738Y002615D02*
X021778Y002615D01*
X021824Y002734D02*
X021692Y002734D01*
X021613Y002852D02*
X021904Y002852D01*
X022073Y002971D02*
X021443Y002971D01*
X021073Y002971D02*
X020443Y002971D01*
X020613Y002852D02*
X020904Y002852D01*
X020824Y002734D02*
X020692Y002734D01*
X020738Y002615D02*
X020778Y002615D01*
X020778Y002497D02*
X020738Y002497D01*
X020738Y002378D02*
X020778Y002378D01*
X020778Y002260D02*
X020738Y002260D01*
X020738Y002141D02*
X020778Y002141D01*
X020799Y002022D02*
X020717Y002022D01*
X020668Y001904D02*
X020848Y001904D01*
X020846Y001785D02*
X020672Y001785D01*
X020721Y001667D02*
X020797Y001667D01*
X020779Y001548D02*
X020739Y001548D01*
X020739Y001430D02*
X020779Y001430D01*
X020779Y001311D02*
X020739Y001311D01*
X020739Y001193D02*
X020779Y001193D01*
X020779Y001074D02*
X020739Y001074D01*
X020691Y000956D02*
X020827Y000956D01*
X020911Y000837D02*
X020607Y000837D01*
X021607Y000837D02*
X021911Y000837D01*
X021827Y000956D02*
X021691Y000956D01*
X021739Y001074D02*
X021779Y001074D01*
X021779Y001193D02*
X021739Y001193D01*
X021739Y001311D02*
X021779Y001311D01*
X021779Y001430D02*
X021739Y001430D01*
X021739Y001548D02*
X021779Y001548D01*
X021797Y001667D02*
X021721Y001667D01*
X022738Y002497D02*
X022798Y002497D01*
X022798Y002615D02*
X022738Y002615D01*
X022692Y002734D02*
X022846Y002734D01*
X022932Y002852D02*
X022613Y002852D01*
X022443Y002971D02*
X023126Y002971D01*
X023218Y002971D02*
X023298Y002971D01*
X023298Y002988D02*
X023298Y002388D01*
X023718Y002388D01*
X023718Y002619D01*
X023648Y002788D01*
X023519Y002918D01*
X023350Y002988D01*
X023298Y002988D01*
X023391Y002971D02*
X024126Y002971D01*
X024218Y002971D02*
X024298Y002971D01*
X024298Y002988D02*
X024298Y002388D01*
X024718Y002388D01*
X024718Y002619D01*
X024648Y002788D01*
X024519Y002918D01*
X024350Y002988D01*
X024298Y002988D01*
X024391Y002971D02*
X024998Y002971D01*
X024998Y003089D02*
X019842Y003089D01*
X019960Y002971D02*
X020073Y002971D01*
X019723Y003208D02*
X024998Y003208D01*
X024998Y003326D02*
X019605Y003326D01*
X019486Y003445D02*
X024998Y003445D01*
X024998Y003564D02*
X019368Y003564D01*
X019249Y003682D02*
X024887Y003682D01*
X024904Y002852D02*
X024584Y002852D01*
X024671Y002734D02*
X024824Y002734D01*
X024778Y002615D02*
X024718Y002615D01*
X024718Y002497D02*
X024778Y002497D01*
X024778Y002378D02*
X024298Y002378D01*
X024218Y002378D02*
X023298Y002378D01*
X023298Y002497D02*
X023218Y002497D01*
X023218Y002615D02*
X023298Y002615D01*
X023298Y002734D02*
X023218Y002734D01*
X023218Y002852D02*
X023298Y002852D01*
X023584Y002852D02*
X023932Y002852D01*
X023846Y002734D02*
X023671Y002734D01*
X023718Y002615D02*
X023798Y002615D01*
X023798Y002497D02*
X023718Y002497D01*
X023718Y002260D02*
X023798Y002260D01*
X023798Y002141D02*
X023718Y002141D01*
X023696Y002022D02*
X023820Y002022D01*
X023872Y001904D02*
X023645Y001904D01*
X023650Y001785D02*
X023868Y001785D01*
X023819Y001667D02*
X023699Y001667D01*
X023719Y001548D02*
X023799Y001548D01*
X023799Y001430D02*
X023719Y001430D01*
X023719Y001193D02*
X023799Y001193D01*
X023800Y001074D02*
X023718Y001074D01*
X023669Y000956D02*
X023849Y000956D01*
X023939Y000837D02*
X023579Y000837D01*
X024219Y000837D02*
X024299Y000837D01*
X024299Y000956D02*
X024219Y000956D01*
X024219Y001074D02*
X024299Y001074D01*
X024299Y001193D02*
X024219Y001193D01*
X024219Y001430D02*
X024299Y001430D01*
X024299Y001548D02*
X024219Y001548D01*
X024219Y001667D02*
X024299Y001667D01*
X024298Y001785D02*
X024219Y001785D01*
X024219Y001904D02*
X024298Y001904D01*
X024298Y002022D02*
X024218Y002022D01*
X024218Y002141D02*
X024298Y002141D01*
X024298Y002260D02*
X024218Y002260D01*
X024218Y002497D02*
X024298Y002497D01*
X024298Y002615D02*
X024218Y002615D01*
X024218Y002734D02*
X024298Y002734D01*
X024298Y002852D02*
X024218Y002852D01*
X024718Y002260D02*
X024778Y002260D01*
X024778Y002141D02*
X024718Y002141D01*
X024696Y002022D02*
X024799Y002022D01*
X024848Y001904D02*
X024645Y001904D01*
X024650Y001785D02*
X024846Y001785D01*
X024797Y001667D02*
X024699Y001667D01*
X024719Y001548D02*
X024779Y001548D01*
X024779Y001430D02*
X024719Y001430D01*
X027557Y000837D02*
X027901Y000837D01*
X027806Y000956D02*
X027652Y000956D01*
X027701Y001074D02*
X027757Y001074D01*
X027749Y001193D02*
X027709Y001193D01*
X027709Y001311D02*
X027749Y001311D01*
X027749Y001430D02*
X027709Y001430D01*
X027709Y001548D02*
X027749Y001548D01*
X027759Y001667D02*
X027699Y001667D01*
X027650Y001785D02*
X027808Y001785D01*
X027835Y001904D02*
X027625Y001904D01*
X027681Y002022D02*
X027779Y002022D01*
X027750Y002141D02*
X027710Y002141D01*
X027710Y002260D02*
X027750Y002260D01*
X027750Y002378D02*
X027710Y002378D01*
X027710Y002497D02*
X027750Y002497D01*
X027750Y002615D02*
X027710Y002615D01*
X027673Y002734D02*
X027788Y002734D01*
X027856Y002852D02*
X027643Y002852D01*
X027761Y002971D02*
X027970Y002971D01*
X027970Y003089D02*
X027822Y003089D01*
X027822Y003208D02*
X027970Y003208D01*
X027970Y003326D02*
X027822Y003326D01*
X027822Y003445D02*
X027970Y003445D01*
X027970Y003564D02*
X027822Y003564D01*
X027822Y003682D02*
X027970Y003682D01*
X027970Y003801D02*
X027822Y003801D01*
X027822Y003919D02*
X027970Y003919D01*
X027970Y004038D02*
X027822Y004038D01*
X027822Y004156D02*
X027970Y004156D01*
X027970Y004275D02*
X027822Y004275D01*
X027822Y004393D02*
X027970Y004393D01*
X027970Y004512D02*
X027822Y004512D01*
X027822Y004630D02*
X027970Y004630D01*
X027970Y004749D02*
X027822Y004749D01*
X027822Y004867D02*
X027974Y004867D01*
X028041Y004986D02*
X027822Y004986D01*
X027856Y005105D02*
X028160Y005105D01*
X028173Y005223D02*
X027952Y005223D01*
X028001Y005342D02*
X028124Y005342D01*
X028122Y005460D02*
X028002Y005460D01*
X028002Y005579D02*
X028122Y005579D01*
X028122Y005697D02*
X028002Y005697D01*
X028002Y005816D02*
X028122Y005816D01*
X028164Y005934D02*
X027960Y005934D01*
X027876Y006053D02*
X028248Y006053D01*
X028442Y006171D02*
X027682Y006171D01*
X027598Y006646D02*
X027781Y006646D01*
X027751Y006764D02*
X027619Y006764D01*
X027619Y006883D02*
X027751Y006883D01*
X027751Y007001D02*
X027619Y007001D01*
X027124Y007095D02*
X025307Y007095D01*
X025110Y007238D02*
X024731Y007238D01*
X024731Y007120D02*
X024992Y007120D01*
X024873Y007001D02*
X024702Y007001D01*
X024755Y006883D02*
X024641Y006883D01*
X024636Y006764D02*
X024514Y006764D01*
X024514Y006646D02*
X024517Y006646D01*
X024274Y006563D02*
X024074Y006363D01*
X024074Y004663D01*
X023874Y004463D01*
X022774Y004463D01*
X022574Y004663D01*
X022574Y005589D01*
X022562Y005589D01*
X023002Y005579D02*
X023122Y005579D01*
X023122Y005697D02*
X023002Y005697D01*
X023002Y005816D02*
X023122Y005816D01*
X023164Y005934D02*
X022960Y005934D01*
X022876Y006053D02*
X023248Y006053D01*
X023322Y006171D02*
X022682Y006171D01*
X022442Y006171D02*
X022174Y006171D01*
X022248Y006053D02*
X021977Y006053D01*
X021960Y005934D02*
X022164Y005934D01*
X022122Y005816D02*
X022002Y005816D01*
X022002Y005697D02*
X022122Y005697D01*
X022122Y005579D02*
X022002Y005579D01*
X022002Y005460D02*
X022122Y005460D01*
X022124Y005342D02*
X022001Y005342D01*
X021952Y005223D02*
X022173Y005223D01*
X022268Y005105D02*
X021856Y005105D01*
X022334Y004986D02*
X018804Y004986D01*
X018804Y004867D02*
X019358Y004867D01*
X019169Y004749D02*
X018804Y004749D01*
X018804Y004630D02*
X019091Y004630D01*
X019056Y004512D02*
X018804Y004512D01*
X018804Y004393D02*
X019056Y004393D01*
X019099Y004275D02*
X018804Y004275D01*
X018804Y004156D02*
X019189Y004156D01*
X019364Y004038D02*
X018894Y004038D01*
X019012Y003919D02*
X019411Y003919D01*
X019469Y003801D02*
X019131Y003801D01*
X019849Y004275D02*
X022623Y004275D01*
X022504Y004393D02*
X019892Y004393D01*
X019892Y004512D02*
X022386Y004512D01*
X022334Y004630D02*
X019857Y004630D01*
X019779Y004749D02*
X022334Y004749D01*
X022334Y004867D02*
X019590Y004867D01*
X019856Y005105D02*
X020268Y005105D01*
X020173Y005223D02*
X019952Y005223D01*
X020001Y005342D02*
X020124Y005342D01*
X020122Y005460D02*
X020002Y005460D01*
X020002Y005579D02*
X020122Y005579D01*
X020122Y005697D02*
X020002Y005697D01*
X020002Y005816D02*
X020122Y005816D01*
X020164Y005934D02*
X019960Y005934D01*
X019904Y006053D02*
X020248Y006053D01*
X020344Y006171D02*
X019908Y006171D01*
X020026Y006290D02*
X020344Y006290D01*
X020394Y006409D02*
X020145Y006409D01*
X020264Y006527D02*
X020513Y006527D01*
X020632Y006646D02*
X020304Y006646D01*
X020304Y006764D02*
X020750Y006764D01*
X020844Y006883D02*
X020304Y006883D01*
X020304Y007001D02*
X020844Y007001D01*
X020844Y007120D02*
X020304Y007120D01*
X020304Y007238D02*
X020844Y007238D01*
X020844Y007357D02*
X020304Y007357D01*
X020304Y007475D02*
X020844Y007475D01*
X020844Y007594D02*
X020304Y007594D01*
X020304Y007713D02*
X020844Y007713D01*
X020844Y007831D02*
X020304Y007831D01*
X020304Y007950D02*
X020844Y007950D01*
X020844Y008068D02*
X020820Y008068D01*
X021304Y008068D02*
X021305Y008068D01*
X021304Y007950D02*
X021699Y007950D01*
X021656Y007831D02*
X021304Y007831D01*
X021304Y007713D02*
X021656Y007713D01*
X021634Y007594D02*
X021304Y007594D01*
X021304Y007475D02*
X021634Y007475D01*
X021634Y007357D02*
X021304Y007357D01*
X021304Y007238D02*
X021634Y007238D01*
X021634Y007120D02*
X021304Y007120D01*
X021304Y007001D02*
X021634Y007001D01*
X021634Y006883D02*
X021304Y006883D01*
X021304Y006764D02*
X021584Y006764D01*
X021497Y006646D02*
X021282Y006646D01*
X021164Y006527D02*
X021456Y006527D01*
X021456Y006409D02*
X021045Y006409D01*
X020926Y006290D02*
X021493Y006290D01*
X021442Y006171D02*
X020808Y006171D01*
X020876Y006053D02*
X021248Y006053D01*
X021164Y005934D02*
X020960Y005934D01*
X021002Y005816D02*
X021122Y005816D01*
X021122Y005697D02*
X021002Y005697D01*
X021002Y005579D02*
X021122Y005579D01*
X021122Y005460D02*
X021002Y005460D01*
X021001Y005342D02*
X021124Y005342D01*
X021173Y005223D02*
X020952Y005223D01*
X020856Y005105D02*
X021268Y005105D01*
X022814Y004986D02*
X023834Y004986D01*
X023834Y004867D02*
X022814Y004867D01*
X022827Y004749D02*
X023821Y004749D01*
X023268Y005105D02*
X022856Y005105D01*
X022952Y005223D02*
X023173Y005223D01*
X023124Y005342D02*
X023001Y005342D01*
X023002Y005460D02*
X023122Y005460D01*
X023562Y005589D02*
X023562Y007275D01*
X023074Y007763D01*
X023074Y014963D01*
X023492Y014944D02*
X023596Y014944D01*
X023501Y015062D02*
X023485Y015062D01*
X023469Y014825D02*
X023691Y014825D01*
X023787Y014707D02*
X023409Y014707D01*
X023314Y014588D02*
X023882Y014588D01*
X023977Y014469D02*
X023314Y014469D01*
X023314Y014351D02*
X024072Y014351D01*
X024168Y014232D02*
X023314Y014232D01*
X023314Y014114D02*
X024263Y014114D01*
X024358Y013995D02*
X023314Y013995D01*
X023314Y013877D02*
X024453Y013877D01*
X024549Y013758D02*
X023314Y013758D01*
X023314Y013640D02*
X024644Y013640D01*
X024739Y013521D02*
X023314Y013521D01*
X023314Y013403D02*
X024834Y013403D01*
X024930Y013284D02*
X023314Y013284D01*
X023314Y013166D02*
X025025Y013166D01*
X025120Y013047D02*
X024562Y013047D01*
X024619Y013023D02*
X024458Y013090D01*
X024283Y013090D01*
X024121Y013023D01*
X023997Y012900D01*
X023930Y012738D01*
X023930Y012563D01*
X023997Y012401D01*
X024121Y012277D01*
X024283Y012210D01*
X024458Y012210D01*
X024619Y012277D01*
X024743Y012401D01*
X024810Y012563D01*
X024810Y012738D01*
X024743Y012900D01*
X024619Y013023D01*
X024714Y012928D02*
X025216Y012928D01*
X025311Y012810D02*
X024780Y012810D01*
X024810Y012691D02*
X025406Y012691D01*
X025501Y012573D02*
X024810Y012573D01*
X024765Y012454D02*
X025597Y012454D01*
X025692Y012336D02*
X024678Y012336D01*
X024474Y012217D02*
X025787Y012217D01*
X027278Y012099D02*
X023314Y012099D01*
X023314Y012217D02*
X024266Y012217D01*
X024063Y012336D02*
X023314Y012336D01*
X023314Y012454D02*
X023975Y012454D01*
X023930Y012573D02*
X023314Y012573D01*
X023314Y012691D02*
X023930Y012691D01*
X023960Y012810D02*
X023314Y012810D01*
X023314Y012928D02*
X024026Y012928D01*
X024178Y013047D02*
X023314Y013047D01*
X023314Y011980D02*
X027426Y011980D01*
X028229Y011980D02*
X028275Y011980D01*
X028275Y011862D02*
X023314Y011862D01*
X023314Y011743D02*
X028275Y011743D01*
X028275Y011624D02*
X023314Y011624D01*
X023314Y011506D02*
X028275Y011506D01*
X028275Y011387D02*
X023314Y011387D01*
X023314Y011269D02*
X028275Y011269D01*
X028275Y011150D02*
X024554Y011150D01*
X024619Y011123D02*
X024458Y011190D01*
X024283Y011190D01*
X024121Y011123D01*
X023997Y011000D01*
X023930Y010838D01*
X023930Y010663D01*
X023997Y010501D01*
X024121Y010377D01*
X024283Y010310D01*
X024458Y010310D01*
X024619Y010377D01*
X024743Y010501D01*
X024810Y010663D01*
X024810Y010838D01*
X024743Y011000D01*
X024619Y011123D01*
X024711Y011032D02*
X027420Y011032D01*
X027282Y010913D02*
X024779Y010913D01*
X024810Y010795D02*
X027218Y010795D01*
X027187Y010676D02*
X024810Y010676D01*
X024767Y010558D02*
X027187Y010558D01*
X027227Y010439D02*
X024681Y010439D01*
X024482Y010320D02*
X027304Y010320D01*
X027473Y010202D02*
X023314Y010202D01*
X023314Y010320D02*
X024258Y010320D01*
X024059Y010439D02*
X023314Y010439D01*
X023314Y010558D02*
X023974Y010558D01*
X023930Y010676D02*
X023314Y010676D01*
X023314Y010795D02*
X023930Y010795D01*
X023961Y010913D02*
X023314Y010913D01*
X023314Y011032D02*
X024029Y011032D01*
X024186Y011150D02*
X023314Y011150D01*
X023314Y010083D02*
X028140Y010083D01*
X028181Y010202D02*
X028259Y010202D01*
X028022Y009965D02*
X023314Y009965D01*
X023314Y009846D02*
X027903Y009846D01*
X027785Y009728D02*
X023314Y009728D01*
X023314Y009609D02*
X027666Y009609D01*
X027548Y009491D02*
X023314Y009491D01*
X023314Y009372D02*
X027429Y009372D01*
X027329Y009254D02*
X023314Y009254D01*
X023314Y009135D02*
X023355Y009135D01*
X023770Y009135D02*
X024355Y009135D01*
X024313Y009118D02*
X024189Y008994D01*
X024122Y008832D01*
X024122Y008345D01*
X024189Y008184D01*
X024313Y008060D01*
X024475Y007993D01*
X024650Y007993D01*
X024811Y008060D01*
X024935Y008184D01*
X025002Y008345D01*
X025002Y008832D01*
X024935Y008994D01*
X024811Y009118D01*
X024650Y009185D01*
X024475Y009185D01*
X024313Y009118D01*
X024212Y009016D02*
X023913Y009016D01*
X023975Y008898D02*
X024149Y008898D01*
X024122Y008779D02*
X024002Y008779D01*
X024002Y008661D02*
X024122Y008661D01*
X024122Y008542D02*
X024002Y008542D01*
X024002Y008424D02*
X024122Y008424D01*
X024139Y008305D02*
X023986Y008305D01*
X023936Y008187D02*
X024188Y008187D01*
X024305Y008068D02*
X023820Y008068D01*
X023314Y007950D02*
X026334Y007950D01*
X026305Y008068D02*
X025779Y008068D01*
X025800Y008077D02*
X025918Y008195D01*
X025982Y008349D01*
X025982Y008569D01*
X025582Y008569D01*
X025582Y008609D01*
X025542Y008609D01*
X025542Y009165D01*
X025479Y009165D01*
X025324Y009101D01*
X025206Y008983D01*
X025142Y008828D01*
X025142Y008609D01*
X025542Y008609D01*
X025542Y008569D01*
X025142Y008569D01*
X025142Y008349D01*
X025206Y008195D01*
X025324Y008077D01*
X025479Y008013D01*
X025542Y008013D01*
X025542Y008569D01*
X025582Y008569D01*
X025582Y008013D01*
X025646Y008013D01*
X025800Y008077D01*
X025910Y008187D02*
X026188Y008187D01*
X026139Y008305D02*
X025964Y008305D01*
X025982Y008424D02*
X026122Y008424D01*
X026122Y008542D02*
X025982Y008542D01*
X025982Y008609D02*
X025982Y008828D01*
X025918Y008983D01*
X025800Y009101D01*
X025646Y009165D01*
X025582Y009165D01*
X025582Y008609D01*
X025982Y008609D01*
X025982Y008661D02*
X026122Y008661D01*
X026122Y008779D02*
X025982Y008779D01*
X025953Y008898D02*
X026149Y008898D01*
X026212Y009016D02*
X025884Y009016D01*
X025718Y009135D02*
X026355Y009135D01*
X026770Y009135D02*
X027302Y009135D01*
X027212Y009016D02*
X026913Y009016D01*
X026975Y008898D02*
X027149Y008898D01*
X027122Y008779D02*
X027002Y008779D01*
X027002Y008661D02*
X027122Y008661D01*
X027122Y008542D02*
X027002Y008542D01*
X027002Y008424D02*
X027122Y008424D01*
X027139Y008305D02*
X026986Y008305D01*
X026936Y008187D02*
X027188Y008187D01*
X027305Y008068D02*
X026820Y008068D01*
X026574Y007963D02*
X026574Y008577D01*
X026562Y008589D01*
X026574Y007963D02*
X027124Y007413D01*
X027124Y007095D01*
X026629Y007357D02*
X024689Y007357D01*
X024608Y007475D02*
X026629Y007475D01*
X026603Y007594D02*
X024429Y007594D01*
X024120Y007594D02*
X023582Y007594D01*
X023464Y007713D02*
X026485Y007713D01*
X026369Y007831D02*
X023345Y007831D01*
X022903Y007594D02*
X022457Y007594D01*
X022492Y007713D02*
X022835Y007713D01*
X022834Y007831D02*
X022492Y007831D01*
X022449Y007950D02*
X022834Y007950D01*
X022820Y008068D02*
X022834Y008068D01*
X022074Y007763D02*
X021874Y007563D01*
X021874Y006463D01*
X022164Y006764D02*
X023322Y006764D01*
X023322Y006646D02*
X022251Y006646D01*
X022292Y006527D02*
X023322Y006527D01*
X023322Y006409D02*
X022292Y006409D01*
X022255Y006290D02*
X023322Y006290D01*
X023802Y006290D02*
X023834Y006290D01*
X023834Y006171D02*
X023802Y006171D01*
X023802Y006409D02*
X023834Y006409D01*
X023802Y006527D02*
X023899Y006527D01*
X023802Y006646D02*
X024017Y006646D01*
X024034Y006764D02*
X023802Y006764D01*
X023802Y006883D02*
X023907Y006883D01*
X023846Y007001D02*
X023802Y007001D01*
X023802Y007120D02*
X023817Y007120D01*
X023802Y007238D02*
X023817Y007238D01*
X023788Y007357D02*
X023859Y007357D01*
X023940Y007475D02*
X023701Y007475D01*
X023259Y007238D02*
X022114Y007238D01*
X022114Y007120D02*
X023322Y007120D01*
X023322Y007001D02*
X022114Y007001D01*
X022114Y006883D02*
X023322Y006883D01*
X023141Y007357D02*
X022186Y007357D01*
X022378Y007475D02*
X023022Y007475D01*
X024274Y007163D02*
X024274Y006563D01*
X026002Y005460D02*
X026142Y005460D01*
X026145Y005342D02*
X026001Y005342D01*
X025952Y005223D02*
X026194Y005223D01*
X026297Y005105D02*
X025856Y005105D01*
X026542Y005105D02*
X026582Y005105D01*
X026582Y005223D02*
X026542Y005223D01*
X026542Y005342D02*
X026582Y005342D01*
X026582Y005460D02*
X026542Y005460D01*
X026542Y005697D02*
X026582Y005697D01*
X026582Y005816D02*
X026542Y005816D01*
X026542Y005934D02*
X026582Y005934D01*
X026582Y006053D02*
X026542Y006053D01*
X026982Y005460D02*
X027122Y005460D01*
X027124Y005342D02*
X026979Y005342D01*
X026930Y005223D02*
X027173Y005223D01*
X027268Y005105D02*
X026828Y005105D01*
X028166Y006646D02*
X028286Y006646D01*
X028286Y006764D02*
X028166Y006764D01*
X028166Y006883D02*
X028286Y006883D01*
X028286Y007001D02*
X028166Y007001D01*
X028166Y007357D02*
X028286Y007357D01*
X028286Y007475D02*
X028166Y007475D01*
X028166Y007594D02*
X028286Y007594D01*
X028623Y007594D02*
X033734Y007594D01*
X033734Y007475D02*
X028701Y007475D01*
X028701Y007357D02*
X033734Y007357D01*
X032122Y008661D02*
X032002Y008661D01*
X032002Y008779D02*
X032122Y008779D01*
X032149Y008898D02*
X031975Y008898D01*
X031913Y009016D02*
X032212Y009016D01*
X032322Y009135D02*
X031802Y009135D01*
X031802Y009254D02*
X032322Y009254D01*
X032322Y009372D02*
X031802Y009372D01*
X031802Y009491D02*
X032322Y009491D01*
X032322Y009609D02*
X031766Y009609D01*
X031648Y009728D02*
X032322Y009728D01*
X032322Y009846D02*
X031530Y009846D01*
X031514Y009965D02*
X032322Y009965D01*
X032322Y010083D02*
X031514Y010083D01*
X031514Y010202D02*
X032322Y010202D01*
X032322Y010320D02*
X031514Y010320D01*
X031514Y010439D02*
X032322Y010439D01*
X032322Y010558D02*
X031514Y010558D01*
X031514Y010676D02*
X032322Y010676D01*
X032322Y010795D02*
X031514Y010795D01*
X031514Y010913D02*
X032166Y010913D01*
X032047Y011032D02*
X031514Y011032D01*
X031514Y011150D02*
X031930Y011150D01*
X031930Y011269D02*
X031514Y011269D01*
X031514Y011387D02*
X031930Y011387D01*
X031930Y011506D02*
X031514Y011506D01*
X031514Y011624D02*
X032008Y011624D01*
X032127Y011743D02*
X031514Y011743D01*
X031034Y010913D02*
X030932Y010913D01*
X030996Y010795D02*
X031034Y010795D01*
X031027Y010676D02*
X031034Y010676D01*
X031027Y010558D02*
X031034Y010558D01*
X031034Y010439D02*
X030987Y010439D01*
X031034Y010320D02*
X030910Y010320D01*
X030033Y010202D02*
X029974Y010202D01*
X029863Y009609D02*
X029822Y009609D01*
X029822Y009491D02*
X029999Y009491D01*
X030134Y009372D02*
X029822Y009372D01*
X029822Y009254D02*
X030212Y009254D01*
X030212Y009135D02*
X029822Y009135D01*
X030189Y008994D02*
X030122Y008832D01*
X030122Y008779D02*
X030002Y008779D01*
X030002Y008661D02*
X030122Y008661D01*
X030122Y008542D02*
X030002Y008542D01*
X030002Y008424D02*
X030122Y008424D01*
X030139Y008305D02*
X029986Y008305D01*
X029936Y008187D02*
X030188Y008187D01*
X030305Y008068D02*
X029820Y008068D01*
X029305Y008068D02*
X028820Y008068D01*
X028936Y008187D02*
X029188Y008187D01*
X029139Y008305D02*
X028986Y008305D01*
X029002Y008424D02*
X029122Y008424D01*
X029122Y008542D02*
X029002Y008542D01*
X029002Y008661D02*
X029122Y008661D01*
X029122Y008779D02*
X029002Y008779D01*
X028975Y008898D02*
X029149Y008898D01*
X029212Y009016D02*
X028913Y009016D01*
X028888Y009135D02*
X029302Y009135D01*
X029302Y009254D02*
X028888Y009254D01*
X028900Y009372D02*
X029302Y009372D01*
X029275Y009491D02*
X029002Y009491D01*
X029103Y009609D02*
X029142Y009609D01*
X028520Y009728D02*
X028520Y009728D01*
X028416Y009609D02*
X028402Y009609D01*
X028367Y009491D02*
X028283Y009491D01*
X028368Y009372D02*
X028164Y009372D01*
X028046Y009254D02*
X028368Y009254D01*
X028355Y009135D02*
X027927Y009135D01*
X027913Y009016D02*
X028212Y009016D01*
X028149Y008898D02*
X027975Y008898D01*
X028002Y008779D02*
X028122Y008779D01*
X028122Y008661D02*
X028002Y008661D01*
X028002Y008542D02*
X028122Y008542D01*
X028122Y008424D02*
X028002Y008424D01*
X027986Y008305D02*
X028139Y008305D01*
X028188Y008187D02*
X027936Y008187D01*
X027820Y008068D02*
X028305Y008068D01*
X030189Y008994D02*
X030212Y009016D01*
X031274Y009763D02*
X031274Y016263D01*
X030574Y016263D01*
X031274Y016263D02*
X031274Y018363D01*
X032174Y019563D01*
X032374Y019563D01*
X032350Y019587D01*
X032350Y020378D01*
X032830Y020397D02*
X033150Y020397D01*
X033150Y020515D02*
X032830Y020515D01*
X032830Y020634D02*
X033150Y020634D01*
X033150Y020752D02*
X032789Y020752D01*
X032757Y020830D02*
X032708Y020878D01*
X032756Y020926D01*
X032829Y021102D01*
X032829Y021653D01*
X032756Y021830D01*
X032621Y021965D01*
X032444Y022038D01*
X032254Y022038D01*
X032077Y021965D01*
X031942Y021830D01*
X031869Y021653D01*
X031869Y021102D01*
X031942Y020926D01*
X031991Y020877D01*
X031943Y020830D01*
X031870Y020653D01*
X031870Y020102D01*
X031943Y019926D01*
X032078Y019791D01*
X032084Y019789D01*
X032066Y019778D01*
X032038Y019766D01*
X032026Y019754D01*
X032011Y019745D01*
X031992Y019720D01*
X031971Y019699D01*
X031964Y019683D01*
X031092Y018521D01*
X031071Y018499D01*
X031064Y018483D01*
X031053Y018469D01*
X031046Y018439D01*
X031034Y018411D01*
X031034Y018393D01*
X031030Y018376D01*
X031034Y018346D01*
X031034Y018286D01*
X031028Y018300D01*
X030911Y018417D01*
X030757Y018481D01*
X030591Y018481D01*
X030437Y018417D01*
X030355Y018335D01*
X029944Y018387D01*
X029944Y018503D01*
X031383Y019226D01*
X031421Y019242D01*
X031428Y019249D01*
X031437Y019254D01*
X031465Y019286D01*
X031494Y019316D01*
X031498Y019325D01*
X031505Y019332D01*
X031518Y019372D01*
X031534Y019411D01*
X031534Y019421D01*
X031537Y019430D01*
X031534Y019473D01*
X031534Y019754D01*
X031622Y019791D01*
X031757Y019926D01*
X031830Y020102D01*
X031830Y020653D01*
X031757Y020830D01*
X031708Y020878D01*
X031756Y020926D01*
X031829Y021102D01*
X031829Y021653D01*
X031756Y021830D01*
X031621Y021965D01*
X031444Y022038D01*
X031254Y022038D01*
X031077Y021965D01*
X030942Y021830D01*
X030869Y021653D01*
X030869Y021102D01*
X030942Y020926D01*
X030991Y020877D01*
X030943Y020830D01*
X030870Y020653D01*
X030870Y020102D01*
X030943Y019926D01*
X031014Y019855D01*
X031014Y019623D01*
X030587Y019408D01*
X030594Y019416D01*
X030634Y019511D01*
X030634Y019803D01*
X030757Y019926D01*
X030830Y020102D01*
X030830Y020653D01*
X030757Y020830D01*
X030708Y020878D01*
X030756Y020926D01*
X030829Y021102D01*
X030829Y021653D01*
X030756Y021830D01*
X030621Y021965D01*
X030444Y022038D01*
X030254Y022038D01*
X030077Y021965D01*
X029942Y021830D01*
X029869Y021653D01*
X029869Y021102D01*
X029942Y020926D01*
X029991Y020877D01*
X029943Y020830D01*
X029870Y020653D01*
X029870Y020102D01*
X029943Y019926D01*
X030046Y019823D01*
X029654Y019823D01*
X029757Y019926D01*
X029830Y020102D01*
X029830Y020653D01*
X029757Y020830D01*
X029708Y020878D01*
X029756Y020926D01*
X029829Y021102D01*
X029829Y021653D01*
X029756Y021830D01*
X029621Y021965D01*
X029444Y022038D01*
X029254Y022038D01*
X029077Y021965D01*
X028942Y021830D01*
X028869Y021653D01*
X028869Y021102D01*
X028942Y020926D01*
X028991Y020877D01*
X028943Y020830D01*
X028870Y020653D01*
X028870Y020226D01*
X028830Y020181D01*
X028830Y020653D01*
X028757Y020830D01*
X028708Y020878D01*
X028756Y020926D01*
X028829Y021102D01*
X028829Y021653D01*
X028756Y021830D01*
X028621Y021965D01*
X028444Y022038D01*
X028254Y022038D01*
X028077Y021965D01*
X027942Y021830D01*
X027869Y021653D01*
X027869Y021102D01*
X027942Y020926D01*
X027991Y020877D01*
X027943Y020830D01*
X027870Y020653D01*
X027870Y020102D01*
X027943Y019926D01*
X028078Y019791D01*
X028237Y019725D01*
X028275Y019590D01*
X028275Y016989D01*
X028092Y017136D01*
X028092Y017246D01*
X028028Y017400D01*
X027911Y017517D01*
X027757Y017581D01*
X027591Y017581D01*
X027437Y017517D01*
X027320Y017400D01*
X027314Y017387D01*
X021529Y017298D01*
X021528Y017300D01*
X021411Y017417D01*
X021257Y017481D01*
X021091Y017481D01*
X020972Y017432D01*
X020992Y017480D01*
X020992Y017646D01*
X020928Y017800D01*
X020895Y017833D01*
X027317Y017833D01*
X027320Y017826D01*
X027437Y017708D01*
X027591Y017645D01*
X027757Y017645D01*
X027911Y017708D01*
X028028Y017826D01*
X028092Y017980D01*
X028092Y018146D01*
X028028Y018300D01*
X027911Y018417D01*
X027801Y018463D01*
X027911Y018508D01*
X028028Y018626D01*
X028092Y018780D01*
X028092Y018946D01*
X028028Y019100D01*
X027915Y019213D01*
X028028Y019326D01*
X028092Y019480D01*
X028092Y019646D01*
X028028Y019800D01*
X027911Y019917D01*
X027777Y019973D01*
X027830Y020102D01*
X027830Y020653D01*
X027757Y020830D01*
X027708Y020878D01*
X027756Y020926D01*
X027829Y021102D01*
X027829Y021653D01*
X027756Y021830D01*
X027621Y021965D01*
X027444Y022038D01*
X027254Y022038D01*
X027077Y021965D01*
X026942Y021830D01*
X026869Y021653D01*
X026869Y021102D01*
X026942Y020926D01*
X026991Y020877D01*
X026943Y020830D01*
X026870Y020653D01*
X026870Y020102D01*
X026943Y019926D01*
X027077Y019792D01*
X026606Y019784D01*
X026622Y019791D01*
X026757Y019926D01*
X026830Y020102D01*
X026830Y020653D01*
X026757Y020830D01*
X026708Y020878D01*
X026756Y020926D01*
X026829Y021102D01*
X026829Y021653D01*
X026756Y021830D01*
X026621Y021965D01*
X026444Y022038D01*
X026254Y022038D01*
X026077Y021965D01*
X025942Y021830D01*
X025869Y021653D01*
X025869Y021102D01*
X025942Y020926D01*
X025991Y020877D01*
X025943Y020830D01*
X025870Y020653D01*
X025870Y020102D01*
X025943Y019926D01*
X026078Y019791D01*
X026116Y019775D01*
X025561Y019766D01*
X025622Y019791D01*
X025757Y019926D01*
X025830Y020102D01*
X025830Y020653D01*
X025757Y020830D01*
X025708Y020878D01*
X025756Y020926D01*
X025829Y021102D01*
X025829Y021653D01*
X025756Y021830D01*
X025621Y021965D01*
X025444Y022038D01*
X025254Y022038D01*
X025077Y021965D01*
X024942Y021830D01*
X024869Y021653D01*
X024869Y021102D01*
X024942Y020926D01*
X024991Y020877D01*
X024943Y020830D01*
X024870Y020653D01*
X024870Y020102D01*
X024943Y019926D01*
X025078Y019791D01*
X025156Y019759D01*
X023807Y019735D01*
X023942Y019791D01*
X024077Y019926D01*
X024150Y020102D01*
X024150Y020653D01*
X024077Y020830D01*
X023942Y020965D01*
X023907Y020979D01*
X023894Y021010D01*
X023821Y021083D01*
X023829Y021102D01*
X023829Y021653D01*
X023756Y021830D01*
X023621Y021965D01*
X023444Y022038D01*
X023254Y022038D01*
X023077Y021965D01*
X022942Y021830D01*
X022869Y021653D01*
X022869Y021102D01*
X022923Y020973D01*
X022797Y021025D01*
X022829Y021102D01*
X022829Y021653D01*
X022756Y021830D01*
X022621Y021965D01*
X022444Y022038D01*
X022254Y022038D01*
X022077Y021965D01*
X021942Y021830D01*
X021869Y021653D01*
X021869Y021102D01*
X021923Y020973D01*
X021797Y021025D01*
X021829Y021102D01*
X021829Y021653D01*
X021756Y021830D01*
X021621Y021965D01*
X021444Y022038D01*
X021254Y022038D01*
X021077Y021965D01*
X020942Y021830D01*
X020869Y021653D01*
X020869Y021102D01*
X020923Y020973D01*
X020907Y020979D01*
X020894Y021010D01*
X020821Y021083D01*
X020829Y021102D01*
X020829Y021653D01*
X020756Y021830D01*
X020621Y021965D01*
X020444Y022038D01*
X020254Y022038D01*
X020077Y021965D01*
X019942Y021830D01*
X019869Y021653D01*
X019869Y021102D01*
X019923Y020973D01*
X019907Y020979D01*
X019894Y021010D01*
X019821Y021083D01*
X019829Y021102D01*
X019829Y021653D01*
X019756Y021830D01*
X019621Y021965D01*
X019444Y022038D01*
X019254Y022038D01*
X019077Y021965D01*
X018942Y021830D01*
X018869Y021653D01*
X018869Y021102D01*
X018923Y020973D01*
X018907Y020979D01*
X018894Y021010D01*
X018821Y021083D01*
X018829Y021102D01*
X018829Y021653D01*
X018756Y021830D01*
X018621Y021965D01*
X018444Y022038D01*
X018254Y022038D01*
X018077Y021965D01*
X017942Y021830D01*
X017869Y021653D01*
X017869Y021102D01*
X017935Y020944D01*
X017931Y020948D01*
X017771Y021014D01*
X017809Y021106D01*
X017809Y021338D01*
X017389Y021338D01*
X017389Y021418D01*
X017309Y021418D01*
X017309Y022018D01*
X017257Y022018D01*
X017088Y021948D01*
X016959Y021818D01*
X016889Y021649D01*
X016889Y021418D01*
X017309Y021418D01*
X017309Y021338D01*
X016889Y021338D01*
X016889Y021106D01*
X016952Y020955D01*
X016942Y020965D01*
X016907Y020979D01*
X016894Y021010D01*
X016821Y021083D01*
X016829Y021102D01*
X016829Y021653D01*
X016756Y021830D01*
X016621Y021965D01*
X016444Y022038D01*
X016254Y022038D01*
X016077Y021965D01*
X015942Y021830D01*
X015869Y021653D01*
X015869Y021628D01*
X015798Y021699D01*
X015764Y021713D01*
X015798Y021727D01*
X015910Y021838D01*
X015970Y021984D01*
X015970Y022142D01*
X015936Y022225D01*
X032535Y022225D01*
X033150Y021773D01*
X033150Y017389D01*
X033130Y017368D01*
X033133Y017236D01*
X034172Y016237D01*
X034173Y014203D01*
X034110Y014266D01*
X033910Y014466D01*
X033822Y014503D01*
X033726Y014503D01*
X032726Y014503D01*
X032650Y014471D01*
X032650Y018603D01*
X032748Y018701D01*
X032809Y018847D01*
X032809Y019006D01*
X032748Y019152D01*
X032636Y019264D01*
X032489Y019325D01*
X032427Y019325D01*
X032510Y019359D01*
X032577Y019427D01*
X032614Y019515D01*
X032614Y019611D01*
X032590Y019668D01*
X032590Y019778D01*
X032622Y019791D01*
X032757Y019926D01*
X032830Y020102D01*
X032830Y020653D01*
X032757Y020830D01*
X032716Y020871D02*
X033150Y020871D01*
X033150Y020989D02*
X032782Y020989D01*
X032829Y021108D02*
X033150Y021108D01*
X033150Y021226D02*
X032829Y021226D01*
X032829Y021345D02*
X033150Y021345D01*
X033150Y021464D02*
X032829Y021464D01*
X032829Y021582D02*
X033150Y021582D01*
X033150Y021701D02*
X032809Y021701D01*
X032760Y021819D02*
X033087Y021819D01*
X032926Y021938D02*
X032648Y021938D01*
X032764Y022056D02*
X015970Y022056D01*
X015956Y022175D02*
X032603Y022175D01*
X032050Y021938D02*
X031648Y021938D01*
X031760Y021819D02*
X031938Y021819D01*
X031889Y021701D02*
X031809Y021701D01*
X031829Y021582D02*
X031869Y021582D01*
X031869Y021464D02*
X031829Y021464D01*
X031829Y021345D02*
X031869Y021345D01*
X031869Y021226D02*
X031829Y021226D01*
X031829Y021108D02*
X031869Y021108D01*
X031916Y020989D02*
X031782Y020989D01*
X031716Y020871D02*
X031984Y020871D01*
X031911Y020752D02*
X031789Y020752D01*
X031830Y020634D02*
X031870Y020634D01*
X031870Y020515D02*
X031830Y020515D01*
X031830Y020397D02*
X031870Y020397D01*
X031870Y020278D02*
X031830Y020278D01*
X031830Y020160D02*
X031870Y020160D01*
X031896Y020041D02*
X031805Y020041D01*
X031754Y019922D02*
X031947Y019922D01*
X032065Y019804D02*
X031635Y019804D01*
X031534Y019685D02*
X031965Y019685D01*
X031877Y019567D02*
X031534Y019567D01*
X031536Y019448D02*
X031788Y019448D01*
X031699Y019330D02*
X031503Y019330D01*
X031610Y019211D02*
X031352Y019211D01*
X031521Y019093D02*
X031117Y019093D01*
X030881Y018974D02*
X031433Y018974D01*
X031344Y018856D02*
X030646Y018856D01*
X030410Y018737D02*
X031255Y018737D01*
X031166Y018619D02*
X030175Y018619D01*
X029944Y018500D02*
X031072Y018500D01*
X031031Y018381D02*
X030947Y018381D01*
X030401Y018381D02*
X029987Y018381D01*
X030608Y019448D02*
X030667Y019448D01*
X030634Y019567D02*
X030902Y019567D01*
X031014Y019685D02*
X030634Y019685D01*
X030635Y019804D02*
X031014Y019804D01*
X030947Y019922D02*
X030754Y019922D01*
X030805Y020041D02*
X030896Y020041D01*
X030870Y020160D02*
X030830Y020160D01*
X030830Y020278D02*
X030870Y020278D01*
X030870Y020397D02*
X030830Y020397D01*
X030830Y020515D02*
X030870Y020515D01*
X030870Y020634D02*
X030830Y020634D01*
X030789Y020752D02*
X030911Y020752D01*
X030984Y020871D02*
X030716Y020871D01*
X030782Y020989D02*
X030916Y020989D01*
X030869Y021108D02*
X030829Y021108D01*
X030829Y021226D02*
X030869Y021226D01*
X030869Y021345D02*
X030829Y021345D01*
X030829Y021464D02*
X030869Y021464D01*
X030869Y021582D02*
X030829Y021582D01*
X030809Y021701D02*
X030889Y021701D01*
X030938Y021819D02*
X030760Y021819D01*
X030648Y021938D02*
X031050Y021938D01*
X030050Y021938D02*
X029648Y021938D01*
X029760Y021819D02*
X029938Y021819D01*
X029889Y021701D02*
X029809Y021701D01*
X029829Y021582D02*
X029869Y021582D01*
X029869Y021464D02*
X029829Y021464D01*
X029829Y021345D02*
X029869Y021345D01*
X029869Y021226D02*
X029829Y021226D01*
X029829Y021108D02*
X029869Y021108D01*
X029916Y020989D02*
X029782Y020989D01*
X029716Y020871D02*
X029984Y020871D01*
X029911Y020752D02*
X029789Y020752D01*
X029830Y020634D02*
X029870Y020634D01*
X029870Y020515D02*
X029830Y020515D01*
X029830Y020397D02*
X029870Y020397D01*
X029870Y020278D02*
X029830Y020278D01*
X029830Y020160D02*
X029870Y020160D01*
X029896Y020041D02*
X029805Y020041D01*
X029754Y019922D02*
X029947Y019922D01*
X028870Y020278D02*
X028830Y020278D01*
X028830Y020397D02*
X028870Y020397D01*
X028870Y020515D02*
X028830Y020515D01*
X028830Y020634D02*
X028870Y020634D01*
X028911Y020752D02*
X028789Y020752D01*
X028716Y020871D02*
X028984Y020871D01*
X028916Y020989D02*
X028782Y020989D01*
X028829Y021108D02*
X028869Y021108D01*
X028869Y021226D02*
X028829Y021226D01*
X028829Y021345D02*
X028869Y021345D01*
X028869Y021464D02*
X028829Y021464D01*
X028829Y021582D02*
X028869Y021582D01*
X028889Y021701D02*
X028809Y021701D01*
X028760Y021819D02*
X028938Y021819D01*
X029050Y021938D02*
X028648Y021938D01*
X028050Y021938D02*
X027648Y021938D01*
X027760Y021819D02*
X027938Y021819D01*
X027889Y021701D02*
X027809Y021701D01*
X027829Y021582D02*
X027869Y021582D01*
X027869Y021464D02*
X027829Y021464D01*
X027829Y021345D02*
X027869Y021345D01*
X027869Y021226D02*
X027829Y021226D01*
X027829Y021108D02*
X027869Y021108D01*
X027916Y020989D02*
X027782Y020989D01*
X027716Y020871D02*
X027984Y020871D01*
X027911Y020752D02*
X027789Y020752D01*
X027830Y020634D02*
X027870Y020634D01*
X027870Y020515D02*
X027830Y020515D01*
X027830Y020397D02*
X027870Y020397D01*
X027870Y020278D02*
X027830Y020278D01*
X027830Y020160D02*
X027870Y020160D01*
X027896Y020041D02*
X027805Y020041D01*
X027898Y019922D02*
X027947Y019922D01*
X028024Y019804D02*
X028065Y019804D01*
X028076Y019685D02*
X028248Y019685D01*
X028275Y019567D02*
X028092Y019567D01*
X028079Y019448D02*
X028275Y019448D01*
X028275Y019330D02*
X028030Y019330D01*
X027917Y019211D02*
X028275Y019211D01*
X028275Y019093D02*
X028031Y019093D01*
X028080Y018974D02*
X028275Y018974D01*
X028275Y018856D02*
X028092Y018856D01*
X028074Y018737D02*
X028275Y018737D01*
X028275Y018619D02*
X028021Y018619D01*
X027890Y018500D02*
X028275Y018500D01*
X028275Y018381D02*
X027947Y018381D01*
X028044Y018263D02*
X028275Y018263D01*
X028275Y018144D02*
X028092Y018144D01*
X028092Y018026D02*
X028275Y018026D01*
X028275Y017907D02*
X028062Y017907D01*
X027991Y017789D02*
X028275Y017789D01*
X028275Y017670D02*
X027819Y017670D01*
X027828Y017552D02*
X028275Y017552D01*
X028275Y017433D02*
X027995Y017433D01*
X028064Y017315D02*
X028275Y017315D01*
X028275Y017196D02*
X028092Y017196D01*
X028165Y017077D02*
X028275Y017077D01*
X028174Y016763D02*
X027674Y017163D01*
X027520Y017552D02*
X020992Y017552D01*
X020982Y017670D02*
X027529Y017670D01*
X027357Y017789D02*
X020933Y017789D01*
X020973Y017433D02*
X020975Y017433D01*
X020776Y017194D02*
X020657Y017145D01*
X020491Y017145D01*
X020337Y017208D01*
X020220Y017326D01*
X020156Y017480D01*
X020156Y017646D01*
X020220Y017800D01*
X020337Y017917D01*
X020344Y017920D01*
X020344Y018058D01*
X020444Y018158D01*
X020444Y018158D01*
X020579Y018293D01*
X027317Y018293D01*
X027320Y018300D01*
X027437Y018417D01*
X027547Y018463D01*
X027437Y018508D01*
X027320Y018626D01*
X027279Y018723D01*
X020322Y018723D01*
X019626Y018723D01*
X019602Y018733D01*
X019575Y018733D01*
X019556Y018752D01*
X019538Y018759D01*
X019471Y018827D01*
X019463Y018845D01*
X019440Y018868D01*
X019440Y018900D01*
X019434Y018915D01*
X019434Y019011D01*
X019440Y019025D01*
X019440Y019058D01*
X019440Y019774D01*
X019398Y019791D01*
X019263Y019926D01*
X019190Y020102D01*
X019190Y020653D01*
X019198Y020671D01*
X019154Y020716D01*
X019132Y020768D01*
X019096Y020783D01*
X019150Y020653D01*
X019150Y020102D01*
X019077Y019926D01*
X018942Y019791D01*
X018766Y019718D01*
X018575Y019718D01*
X018398Y019791D01*
X018263Y019926D01*
X018190Y020102D01*
X018190Y020653D01*
X018198Y020671D01*
X018154Y020716D01*
X018132Y020768D01*
X018077Y020791D01*
X018067Y020801D01*
X018130Y020649D01*
X018130Y020418D01*
X017710Y020418D01*
X017710Y020909D01*
X017630Y020828D01*
X017630Y020418D01*
X017710Y020418D01*
X017710Y020338D01*
X018130Y020338D01*
X018130Y020106D01*
X018060Y019937D01*
X017931Y019808D01*
X017762Y019738D01*
X017710Y019738D01*
X017710Y020338D01*
X017630Y020338D01*
X017210Y020338D01*
X017210Y020106D01*
X017280Y019937D01*
X017410Y019808D01*
X017579Y019738D01*
X017630Y019738D01*
X017630Y020338D01*
X017630Y020418D01*
X017210Y020418D01*
X017210Y020649D01*
X017248Y020742D01*
X017088Y020808D01*
X017084Y020812D01*
X017150Y020653D01*
X017150Y020102D01*
X017077Y019926D01*
X016942Y019791D01*
X016766Y019718D01*
X016575Y019718D01*
X016398Y019791D01*
X016263Y019926D01*
X016190Y020102D01*
X016190Y020653D01*
X016198Y020671D01*
X016154Y020716D01*
X016132Y020768D01*
X016077Y020791D01*
X015942Y020926D01*
X015870Y021099D01*
X015798Y021027D01*
X015764Y021013D01*
X015798Y020999D01*
X015910Y020887D01*
X015970Y020742D01*
X015970Y020584D01*
X015910Y020438D01*
X015798Y020327D01*
X015764Y020313D01*
X015798Y020299D01*
X015910Y020187D01*
X015970Y020042D01*
X015970Y019884D01*
X015910Y019738D01*
X015798Y019627D01*
X015764Y019613D01*
X015798Y019599D01*
X015910Y019487D01*
X015970Y019342D01*
X015970Y019184D01*
X015910Y019038D01*
X015798Y018927D01*
X015764Y018913D01*
X015798Y018899D01*
X015910Y018787D01*
X015970Y018642D01*
X015970Y018484D01*
X015910Y018338D01*
X015850Y018278D01*
X015865Y018263D01*
X016015Y018263D01*
X015865Y018263D01*
X015928Y018381D02*
X016150Y018381D01*
X016122Y018370D02*
X016015Y018263D01*
X016122Y018370D02*
X016299Y018443D01*
X016849Y018443D01*
X017026Y018370D01*
X017161Y018235D01*
X017174Y018203D01*
X017334Y018203D01*
X017340Y018205D01*
X017381Y018203D01*
X017422Y018203D01*
X017428Y018200D01*
X017436Y018200D01*
X017472Y018182D01*
X017510Y018166D01*
X017515Y018161D01*
X017522Y018158D01*
X017548Y018128D01*
X017577Y018099D01*
X017580Y018092D01*
X019949Y015428D01*
X019977Y015399D01*
X019980Y015392D01*
X019985Y015387D01*
X019998Y015348D01*
X020014Y015311D01*
X020014Y015303D01*
X020016Y015296D01*
X020014Y015256D01*
X020014Y013528D01*
X020044Y013558D01*
X020044Y014032D01*
X020027Y014094D01*
X020044Y014124D01*
X020044Y014158D01*
X020090Y014204D01*
X020844Y015524D01*
X020844Y015558D01*
X020890Y015604D01*
X020922Y015660D01*
X020955Y015669D01*
X020979Y015693D01*
X021043Y015693D01*
X021105Y015710D01*
X021135Y015693D01*
X022753Y015693D01*
X022720Y015726D01*
X022656Y015880D01*
X022656Y016046D01*
X022701Y016156D01*
X022622Y016123D01*
X022526Y016123D01*
X021325Y016123D01*
X021211Y016008D01*
X021057Y015945D01*
X020891Y015945D01*
X020737Y016008D01*
X020620Y016126D01*
X020556Y016280D01*
X020556Y016446D01*
X020620Y016600D01*
X020737Y016717D01*
X020872Y016773D01*
X020820Y016826D01*
X020756Y016980D01*
X020756Y017146D01*
X020776Y017194D01*
X020756Y017077D02*
X018482Y017077D01*
X018587Y016959D02*
X020764Y016959D01*
X020814Y016840D02*
X018693Y016840D01*
X018798Y016722D02*
X020748Y016722D01*
X020623Y016603D02*
X018904Y016603D01*
X019009Y016485D02*
X020572Y016485D01*
X020556Y016366D02*
X019114Y016366D01*
X019220Y016248D02*
X020569Y016248D01*
X020618Y016129D02*
X019325Y016129D01*
X019430Y016011D02*
X020735Y016011D01*
X020974Y016363D02*
X022574Y016363D01*
X022774Y016563D01*
X023374Y016563D01*
X023674Y016263D01*
X027674Y016263D01*
X028174Y015763D02*
X028174Y016763D01*
X027353Y017433D02*
X021373Y017433D01*
X021514Y017315D02*
X022586Y017315D01*
X022637Y016129D02*
X022690Y016129D01*
X022656Y016011D02*
X021213Y016011D01*
X020919Y015655D02*
X019747Y015655D01*
X019852Y015536D02*
X020844Y015536D01*
X020783Y015418D02*
X019958Y015418D01*
X020015Y015299D02*
X020716Y015299D01*
X020648Y015181D02*
X020014Y015181D01*
X020014Y015062D02*
X020580Y015062D01*
X020512Y014944D02*
X020014Y014944D01*
X020014Y014825D02*
X020445Y014825D01*
X020377Y014707D02*
X020014Y014707D01*
X020014Y014588D02*
X020309Y014588D01*
X020241Y014469D02*
X020014Y014469D01*
X020014Y014351D02*
X020174Y014351D01*
X020106Y014232D02*
X020014Y014232D01*
X020014Y014114D02*
X020038Y014114D01*
X020044Y013995D02*
X020014Y013995D01*
X020014Y013877D02*
X020044Y013877D01*
X020044Y013758D02*
X020014Y013758D01*
X020014Y013640D02*
X020044Y013640D01*
X019774Y013363D02*
X019774Y015263D01*
X017374Y017963D01*
X016574Y017963D01*
X017133Y018263D02*
X020549Y018263D01*
X020430Y018144D02*
X017534Y018144D01*
X017639Y018026D02*
X020344Y018026D01*
X020327Y017907D02*
X017744Y017907D01*
X017850Y017789D02*
X020215Y017789D01*
X020166Y017670D02*
X017955Y017670D01*
X018061Y017552D02*
X020156Y017552D01*
X020175Y017433D02*
X018166Y017433D01*
X018271Y017315D02*
X020231Y017315D01*
X020367Y017196D02*
X018377Y017196D01*
X017774Y016863D02*
X019174Y015263D01*
X019174Y013363D01*
X018787Y013521D02*
X018014Y013521D01*
X018014Y013403D02*
X018756Y013403D01*
X018756Y013284D02*
X018014Y013284D01*
X018014Y013166D02*
X018803Y013166D01*
X018899Y013047D02*
X018014Y013047D01*
X018014Y012928D02*
X019494Y012928D01*
X019481Y012810D02*
X018014Y012810D01*
X018014Y012691D02*
X019468Y012691D01*
X019193Y012573D02*
X018014Y012573D01*
X018014Y012454D02*
X019101Y012454D01*
X019056Y012336D02*
X018014Y012336D01*
X018014Y012217D02*
X019056Y012217D01*
X019089Y012099D02*
X018014Y012099D01*
X018014Y011980D02*
X019165Y011980D01*
X019350Y011862D02*
X018014Y011862D01*
X018014Y011743D02*
X019399Y011743D01*
X019244Y011624D02*
X018052Y011624D01*
X018170Y011506D02*
X019181Y011506D01*
X019156Y011387D02*
X018289Y011387D01*
X018407Y011269D02*
X019160Y011269D01*
X019209Y011150D02*
X018526Y011150D01*
X018644Y011032D02*
X019314Y011032D01*
X019344Y010913D02*
X018763Y010913D01*
X019133Y010795D02*
X019344Y010795D01*
X019344Y010676D02*
X019238Y010676D01*
X019287Y010558D02*
X019344Y010558D01*
X019344Y010439D02*
X019292Y010439D01*
X019268Y010320D02*
X019344Y010320D01*
X019344Y010202D02*
X019204Y010202D01*
X019344Y010083D02*
X019050Y010083D01*
X019232Y009846D02*
X017804Y009846D01*
X017804Y009728D02*
X019114Y009728D01*
X018995Y009609D02*
X017804Y009609D01*
X017727Y009491D02*
X018877Y009491D01*
X018758Y009372D02*
X017609Y009372D01*
X017490Y009254D02*
X018640Y009254D01*
X018521Y009135D02*
X017371Y009135D01*
X017253Y009016D02*
X018402Y009016D01*
X018344Y008898D02*
X017234Y008898D01*
X017198Y008779D02*
X018344Y008779D01*
X018344Y008661D02*
X017131Y008661D01*
X016993Y008542D02*
X018344Y008542D01*
X018344Y008424D02*
X016895Y008424D01*
X017090Y008305D02*
X018344Y008305D01*
X018344Y008187D02*
X017181Y008187D01*
X017230Y008068D02*
X018344Y008068D01*
X018344Y007950D02*
X017234Y007950D01*
X017219Y007831D02*
X018344Y007831D01*
X018344Y007713D02*
X017170Y007713D01*
X017064Y007594D02*
X018344Y007594D01*
X018344Y007475D02*
X015822Y007475D01*
X015776Y007594D02*
X016084Y007594D01*
X015922Y007357D02*
X018344Y007357D01*
X018344Y007238D02*
X015970Y007238D01*
X015970Y007120D02*
X018344Y007120D01*
X018344Y007001D02*
X015936Y007001D01*
X015854Y006883D02*
X018344Y006883D01*
X018344Y006764D02*
X015833Y006764D01*
X015927Y006646D02*
X018344Y006646D01*
X018344Y006527D02*
X015970Y006527D01*
X015970Y006409D02*
X018344Y006409D01*
X018344Y006290D02*
X015931Y006290D01*
X018804Y006290D02*
X019444Y006290D01*
X019442Y006171D02*
X018804Y006171D01*
X018804Y006053D02*
X019248Y006053D01*
X019164Y005934D02*
X018804Y005934D01*
X018804Y005816D02*
X019122Y005816D01*
X019122Y005697D02*
X018804Y005697D01*
X018804Y005579D02*
X019122Y005579D01*
X019122Y005460D02*
X018804Y005460D01*
X018804Y005342D02*
X019124Y005342D01*
X019173Y005223D02*
X018804Y005223D01*
X018804Y005105D02*
X019268Y005105D01*
X019494Y006409D02*
X018804Y006409D01*
X018804Y006527D02*
X019613Y006527D01*
X019732Y006646D02*
X018804Y006646D01*
X018804Y006764D02*
X019844Y006764D01*
X019844Y006883D02*
X018804Y006883D01*
X018804Y007001D02*
X019844Y007001D01*
X019844Y007120D02*
X018804Y007120D01*
X018804Y007238D02*
X019844Y007238D01*
X019844Y007357D02*
X018804Y007357D01*
X018804Y007475D02*
X019844Y007475D01*
X019844Y007594D02*
X018804Y007594D01*
X018804Y007713D02*
X019844Y007713D01*
X019844Y007831D02*
X018804Y007831D01*
X018804Y007950D02*
X019844Y007950D01*
X019844Y008068D02*
X019820Y008068D01*
X020304Y008068D02*
X020305Y008068D01*
X019305Y008068D02*
X018804Y008068D01*
X018804Y008187D02*
X019188Y008187D01*
X019139Y008305D02*
X018804Y008305D01*
X018804Y008424D02*
X019122Y008424D01*
X019122Y008542D02*
X018804Y008542D01*
X018804Y008661D02*
X019122Y008661D01*
X019122Y008779D02*
X018816Y008779D01*
X018934Y008898D02*
X019149Y008898D01*
X019212Y009016D02*
X019053Y009016D01*
X019171Y009135D02*
X019355Y009135D01*
X019290Y009254D02*
X019844Y009254D01*
X019844Y009372D02*
X019409Y009372D01*
X019527Y009491D02*
X019877Y009491D01*
X019995Y009609D02*
X019646Y009609D01*
X019764Y009728D02*
X020114Y009728D01*
X020232Y009846D02*
X019804Y009846D01*
X019804Y009965D02*
X020344Y009965D01*
X020344Y010083D02*
X019804Y010083D01*
X019804Y010202D02*
X020344Y010202D01*
X020344Y010320D02*
X019804Y010320D01*
X019804Y010439D02*
X020344Y010439D01*
X020344Y010558D02*
X019804Y010558D01*
X019804Y010676D02*
X020344Y010676D01*
X020344Y010795D02*
X019804Y010795D01*
X019804Y010913D02*
X020344Y010913D01*
X020344Y011032D02*
X019834Y011032D01*
X019938Y011150D02*
X020344Y011150D01*
X020344Y011269D02*
X019988Y011269D01*
X019992Y011387D02*
X020344Y011387D01*
X020344Y011506D02*
X020042Y011506D01*
X020161Y011624D02*
X020344Y011624D01*
X020344Y011743D02*
X020279Y011743D01*
X019866Y011980D02*
X019783Y011980D01*
X019747Y011862D02*
X019598Y011862D01*
X019859Y012099D02*
X019944Y012099D01*
X019944Y012217D02*
X019892Y012217D01*
X019892Y012336D02*
X019944Y012336D01*
X019944Y012454D02*
X019904Y012454D01*
X019918Y012573D02*
X019944Y012573D01*
X019931Y012691D02*
X019944Y012691D01*
X019944Y012810D02*
X019944Y012810D01*
X019508Y013047D02*
X019449Y013047D01*
X018860Y013640D02*
X018014Y013640D01*
X018014Y013758D02*
X018934Y013758D01*
X018934Y013877D02*
X018014Y013877D01*
X018014Y013995D02*
X018934Y013995D01*
X018934Y014114D02*
X018014Y014114D01*
X018014Y014232D02*
X018934Y014232D01*
X018934Y014351D02*
X018014Y014351D01*
X018014Y014469D02*
X018934Y014469D01*
X018934Y014588D02*
X018014Y014588D01*
X018014Y014707D02*
X018934Y014707D01*
X018934Y014825D02*
X018014Y014825D01*
X018014Y014944D02*
X018934Y014944D01*
X018934Y015062D02*
X018014Y015062D01*
X018014Y015181D02*
X018927Y015181D01*
X018823Y015299D02*
X018014Y015299D01*
X018014Y015418D02*
X018719Y015418D01*
X018616Y015536D02*
X018014Y015536D01*
X018057Y015655D02*
X018512Y015655D01*
X018408Y015773D02*
X018148Y015773D01*
X018192Y015892D02*
X018305Y015892D01*
X018201Y016011D02*
X018192Y016011D01*
X017774Y015963D02*
X017774Y011563D01*
X018874Y010463D01*
X018697Y010083D02*
X017804Y010083D01*
X017804Y009965D02*
X019344Y009965D01*
X018544Y010202D02*
X017804Y010202D01*
X017804Y010320D02*
X018480Y010320D01*
X018456Y010439D02*
X017804Y010439D01*
X017804Y010558D02*
X018440Y010558D01*
X018321Y010676D02*
X017804Y010676D01*
X017804Y010795D02*
X018203Y010795D01*
X018084Y010913D02*
X017804Y010913D01*
X017804Y011032D02*
X017966Y011032D01*
X017847Y011150D02*
X017804Y011150D01*
X017344Y011068D02*
X017344Y009758D01*
X016976Y009390D01*
X016849Y009443D01*
X016299Y009443D01*
X016122Y009370D01*
X016015Y009263D01*
X015865Y009263D01*
X015844Y009284D01*
X015891Y009400D01*
X015891Y009526D01*
X015843Y009643D01*
X015754Y009732D01*
X015637Y009780D01*
X015511Y009780D01*
X015394Y009732D01*
X015305Y009643D01*
X015257Y009526D01*
X015257Y009400D01*
X015304Y009284D01*
X015283Y009263D01*
X015033Y009263D01*
X014926Y009370D01*
X014749Y009443D01*
X014199Y009443D01*
X014022Y009370D01*
X013887Y009235D01*
X013863Y009177D01*
X013395Y009177D01*
X013395Y009307D01*
X013289Y009412D01*
X012474Y009412D01*
X012474Y009545D01*
X012730Y009545D01*
X012780Y009524D01*
X012938Y009524D01*
X012988Y009545D01*
X013281Y009545D01*
X013375Y009639D01*
X013375Y009960D01*
X013257Y009960D01*
X013257Y010002D01*
X013225Y010080D01*
X013375Y010080D01*
X013375Y010401D01*
X013281Y010495D01*
X013135Y010495D01*
X013271Y010551D01*
X013406Y010686D01*
X013479Y010862D01*
X013479Y011053D01*
X013406Y011230D01*
X013271Y011365D01*
X013094Y011438D01*
X012544Y011438D01*
X012474Y011409D01*
X012474Y011507D01*
X012544Y011478D01*
X013094Y011478D01*
X013271Y011551D01*
X013406Y011686D01*
X013423Y011728D01*
X013446Y011728D01*
X013548Y011625D01*
X013695Y011564D01*
X013853Y011564D01*
X014000Y011625D01*
X014074Y011699D01*
X014148Y011625D01*
X014295Y011564D01*
X014453Y011564D01*
X014600Y011625D01*
X014674Y011699D01*
X014748Y011625D01*
X014895Y011564D01*
X015053Y011564D01*
X015200Y011625D01*
X015274Y011699D01*
X015346Y011628D01*
X015338Y011620D01*
X015296Y011518D01*
X015296Y011407D01*
X015334Y011314D01*
X015283Y011263D01*
X015033Y011263D01*
X014926Y011370D01*
X014749Y011443D01*
X014199Y011443D01*
X014022Y011370D01*
X013887Y011235D01*
X013814Y011058D01*
X013814Y010867D01*
X013887Y010691D01*
X014022Y010556D01*
X014199Y010483D01*
X014749Y010483D01*
X014926Y010556D01*
X015033Y010663D01*
X015283Y010663D01*
X015304Y010641D01*
X015257Y010526D01*
X015257Y010400D01*
X015305Y010283D01*
X015394Y010194D01*
X015511Y010145D01*
X015637Y010145D01*
X015754Y010194D01*
X015843Y010283D01*
X015891Y010400D01*
X015891Y010526D01*
X015844Y010641D01*
X015865Y010663D01*
X016015Y010663D01*
X016122Y010556D01*
X016299Y010483D01*
X016849Y010483D01*
X017026Y010556D01*
X017161Y010691D01*
X017234Y010867D01*
X017234Y011058D01*
X017161Y011235D01*
X017026Y011370D01*
X016849Y011443D01*
X016299Y011443D01*
X016122Y011370D01*
X016015Y011263D01*
X015865Y011263D01*
X015814Y011314D01*
X015852Y011407D01*
X015852Y011518D01*
X015810Y011620D01*
X015802Y011628D01*
X015907Y011733D01*
X016679Y011733D01*
X017344Y011068D01*
X017344Y011032D02*
X017234Y011032D01*
X017234Y010913D02*
X017344Y010913D01*
X017344Y010795D02*
X017204Y010795D01*
X017146Y010676D02*
X017344Y010676D01*
X017344Y010558D02*
X017028Y010558D01*
X017015Y010353D02*
X016846Y010423D01*
X016614Y010423D01*
X016614Y010003D01*
X016534Y010003D01*
X016534Y010423D01*
X016302Y010423D01*
X016133Y010353D01*
X016004Y010223D01*
X015934Y010054D01*
X015934Y010003D01*
X016534Y010003D01*
X016534Y009923D01*
X015934Y009923D01*
X015934Y009871D01*
X016004Y009702D01*
X016133Y009573D01*
X016302Y009503D01*
X016534Y009503D01*
X016534Y009923D01*
X016614Y009923D01*
X016614Y010003D01*
X017214Y010003D01*
X017214Y010054D01*
X017144Y010223D01*
X017015Y010353D01*
X017047Y010320D02*
X017344Y010320D01*
X017344Y010202D02*
X017153Y010202D01*
X017202Y010083D02*
X017344Y010083D01*
X017344Y009965D02*
X016614Y009965D01*
X016614Y009923D02*
X017214Y009923D01*
X017214Y009871D01*
X017144Y009702D01*
X017015Y009573D01*
X016846Y009503D01*
X016614Y009503D01*
X016614Y009923D01*
X016614Y009846D02*
X016534Y009846D01*
X016534Y009728D02*
X016614Y009728D01*
X016614Y009609D02*
X016534Y009609D01*
X016534Y009965D02*
X014514Y009965D01*
X014514Y010003D02*
X015114Y010003D01*
X015114Y010054D01*
X015044Y010223D01*
X014915Y010353D01*
X014746Y010423D01*
X014514Y010423D01*
X014514Y010003D01*
X014434Y010003D01*
X014434Y010423D01*
X014202Y010423D01*
X014033Y010353D01*
X013904Y010223D01*
X013834Y010054D01*
X013834Y010003D01*
X014434Y010003D01*
X014434Y009923D01*
X013834Y009923D01*
X013834Y009871D01*
X013904Y009702D01*
X014033Y009573D01*
X014202Y009503D01*
X014434Y009503D01*
X014434Y009923D01*
X014514Y009923D01*
X014514Y010003D01*
X014514Y009923D02*
X015114Y009923D01*
X015114Y009871D01*
X015044Y009702D01*
X014915Y009573D01*
X014746Y009503D01*
X014514Y009503D01*
X014514Y009923D01*
X014514Y009846D02*
X014434Y009846D01*
X014434Y009728D02*
X014514Y009728D01*
X014514Y009609D02*
X014434Y009609D01*
X014434Y009965D02*
X013257Y009965D01*
X013375Y010083D02*
X013846Y010083D01*
X013895Y010202D02*
X013375Y010202D01*
X013375Y010320D02*
X014001Y010320D01*
X014020Y010558D02*
X013278Y010558D01*
X013337Y010439D02*
X015257Y010439D01*
X015270Y010558D02*
X014928Y010558D01*
X014947Y010320D02*
X015289Y010320D01*
X015386Y010202D02*
X015053Y010202D01*
X015102Y010083D02*
X015946Y010083D01*
X015995Y010202D02*
X015762Y010202D01*
X015859Y010320D02*
X016101Y010320D01*
X016120Y010558D02*
X015878Y010558D01*
X015891Y010439D02*
X017344Y010439D01*
X017344Y009846D02*
X017204Y009846D01*
X017154Y009728D02*
X017314Y009728D01*
X017195Y009609D02*
X017051Y009609D01*
X017077Y009491D02*
X015891Y009491D01*
X015880Y009372D02*
X016128Y009372D01*
X016097Y009609D02*
X015857Y009609D01*
X015758Y009728D02*
X015993Y009728D01*
X015944Y009846D02*
X015104Y009846D01*
X015054Y009728D02*
X015390Y009728D01*
X015291Y009609D02*
X014951Y009609D01*
X015257Y009491D02*
X012474Y009491D01*
X013330Y009372D02*
X014028Y009372D01*
X013906Y009254D02*
X013395Y009254D01*
X013345Y009609D02*
X013997Y009609D01*
X013893Y009728D02*
X013375Y009728D01*
X013375Y009846D02*
X013844Y009846D01*
X014434Y010083D02*
X014514Y010083D01*
X014514Y010202D02*
X014434Y010202D01*
X014434Y010320D02*
X014514Y010320D01*
X013902Y010676D02*
X013396Y010676D01*
X013451Y010795D02*
X013844Y010795D01*
X013814Y010913D02*
X013479Y010913D01*
X013479Y011032D02*
X013814Y011032D01*
X013852Y011150D02*
X013439Y011150D01*
X013367Y011269D02*
X013921Y011269D01*
X014065Y011387D02*
X013216Y011387D01*
X013162Y011506D02*
X015296Y011506D01*
X015304Y011387D02*
X014883Y011387D01*
X015027Y011269D02*
X015289Y011269D01*
X015342Y011624D02*
X015198Y011624D01*
X015806Y011624D02*
X016787Y011624D01*
X016906Y011506D02*
X015852Y011506D01*
X015844Y011387D02*
X016165Y011387D01*
X016021Y011269D02*
X015859Y011269D01*
X016983Y011387D02*
X017024Y011387D01*
X017127Y011269D02*
X017143Y011269D01*
X017196Y011150D02*
X017261Y011150D01*
X016614Y010320D02*
X016534Y010320D01*
X016534Y010202D02*
X016614Y010202D01*
X016614Y010083D02*
X016534Y010083D01*
X015268Y009372D02*
X014920Y009372D01*
X015863Y008661D02*
X016017Y008661D01*
X015885Y008542D02*
X016155Y008542D01*
X016253Y008424D02*
X015891Y008424D01*
X015852Y008305D02*
X016058Y008305D01*
X019770Y009135D02*
X019844Y009135D01*
X016703Y012217D02*
X015883Y012217D01*
X015907Y012193D02*
X015802Y012298D01*
X015810Y012305D01*
X015852Y012407D01*
X015852Y012518D01*
X015810Y012620D01*
X015732Y012699D01*
X015629Y012741D01*
X015519Y012741D01*
X015416Y012699D01*
X015338Y012620D01*
X015296Y012518D01*
X015296Y012407D01*
X015338Y012305D01*
X015346Y012298D01*
X015274Y012226D01*
X015200Y012301D01*
X015053Y012361D01*
X014895Y012361D01*
X014748Y012301D01*
X014674Y012226D01*
X014600Y012301D01*
X014453Y012361D01*
X014295Y012361D01*
X014148Y012301D01*
X014074Y012226D01*
X014000Y012301D01*
X013853Y012361D01*
X013695Y012361D01*
X013548Y012301D01*
X013436Y012189D01*
X013436Y012188D01*
X013423Y012188D01*
X013406Y012230D01*
X013271Y012365D01*
X013094Y012438D01*
X012544Y012438D01*
X012367Y012365D01*
X012232Y012230D01*
X012162Y012061D01*
X012110Y012187D01*
X011998Y012299D01*
X011853Y012359D01*
X011695Y012359D01*
X011550Y012299D01*
X011438Y012187D01*
X011424Y012153D01*
X011410Y012187D01*
X011298Y012299D01*
X011153Y012359D01*
X010995Y012359D01*
X010850Y012299D01*
X010738Y012187D01*
X010724Y012153D01*
X010710Y012187D01*
X010598Y012299D01*
X010453Y012359D01*
X010295Y012359D01*
X010150Y012299D01*
X010038Y012187D01*
X010024Y012153D01*
X010010Y012187D01*
X009898Y012299D01*
X009753Y012359D01*
X009595Y012359D01*
X009450Y012299D01*
X009338Y012187D01*
X009324Y012153D01*
X009310Y012187D01*
X009198Y012299D01*
X009053Y012359D01*
X008895Y012359D01*
X008750Y012299D01*
X008638Y012187D01*
X008624Y012153D01*
X008610Y012187D01*
X008498Y012299D01*
X008353Y012359D01*
X008195Y012359D01*
X008050Y012299D01*
X007938Y012187D01*
X007924Y012153D01*
X007910Y012187D01*
X007798Y012299D01*
X007653Y012359D01*
X007495Y012359D01*
X007350Y012299D01*
X007238Y012187D01*
X007224Y012153D01*
X007210Y012187D01*
X007098Y012299D01*
X006953Y012359D01*
X006795Y012359D01*
X006650Y012299D01*
X006538Y012187D01*
X006524Y012153D01*
X006510Y012187D01*
X006398Y012299D01*
X006253Y012359D01*
X006095Y012359D01*
X005950Y012299D01*
X005838Y012187D01*
X005824Y012153D01*
X005810Y012187D01*
X005698Y012299D01*
X005553Y012359D01*
X005395Y012359D01*
X005250Y012299D01*
X005138Y012187D01*
X005124Y012153D01*
X005110Y012187D01*
X004998Y012299D01*
X004853Y012359D01*
X004695Y012359D01*
X004550Y012299D01*
X004438Y012187D01*
X004424Y012153D01*
X004410Y012187D01*
X004298Y012299D01*
X004153Y012359D01*
X003995Y012359D01*
X003850Y012299D01*
X003738Y012187D01*
X003724Y012153D01*
X003710Y012187D01*
X003598Y012299D01*
X003453Y012359D01*
X003295Y012359D01*
X003214Y012325D01*
X003214Y019058D01*
X003953Y019058D01*
X004059Y019163D01*
X004059Y019323D01*
X004144Y019323D01*
X004144Y017658D01*
X004144Y017468D01*
X004279Y017333D01*
X004913Y017333D01*
X004876Y017242D01*
X004876Y017084D01*
X004936Y016937D01*
X005048Y016825D01*
X005195Y016764D01*
X005353Y016764D01*
X005500Y016825D01*
X005612Y016937D01*
X005672Y017084D01*
X005672Y017242D01*
X005635Y017333D01*
X007544Y017333D01*
X007544Y017168D01*
X007679Y017033D01*
X008055Y017033D01*
X007998Y016896D01*
X007998Y016833D01*
X008554Y016833D01*
X008554Y016793D01*
X007998Y016793D01*
X007998Y016729D01*
X008062Y016575D01*
X008180Y016457D01*
X008334Y016393D01*
X008554Y016393D01*
X008554Y016793D01*
X008594Y016793D01*
X008594Y016833D01*
X009150Y016833D01*
X009150Y016896D01*
X009093Y017033D01*
X009249Y017033D01*
X009351Y016931D01*
X010744Y016931D01*
X010744Y016503D01*
X009351Y016503D01*
X009245Y016398D01*
X009245Y015501D01*
X009351Y015395D01*
X009865Y015395D01*
X009865Y015341D01*
X009868Y015337D01*
X009876Y015163D01*
X009697Y015163D01*
X009591Y015057D01*
X009591Y014278D01*
X009697Y014173D01*
X010555Y014173D01*
X010660Y014278D01*
X010660Y015057D01*
X010584Y015133D01*
X011116Y015133D01*
X011045Y015062D01*
X010978Y014900D01*
X010978Y014725D01*
X011045Y014564D01*
X011169Y014440D01*
X011330Y014373D01*
X011818Y014373D01*
X011979Y014440D01*
X012103Y014564D01*
X012170Y014725D01*
X012170Y014900D01*
X012103Y015062D01*
X012032Y015133D01*
X012344Y015133D01*
X012344Y014968D01*
X012344Y014620D01*
X012337Y014617D01*
X012220Y014500D01*
X012156Y014346D01*
X012156Y014180D01*
X012220Y014026D01*
X012337Y013908D01*
X012375Y013893D01*
X012329Y013893D01*
X012320Y013884D01*
X012307Y013883D01*
X012254Y013818D01*
X012170Y013734D01*
X012170Y013900D01*
X012103Y014062D01*
X011979Y014186D01*
X011818Y014253D01*
X011330Y014253D01*
X011169Y014186D01*
X011045Y014062D01*
X010978Y013900D01*
X010978Y013725D01*
X011045Y013564D01*
X011169Y013440D01*
X011330Y013373D01*
X011809Y013373D01*
X011689Y013253D01*
X011330Y013253D01*
X011169Y013186D01*
X011045Y013062D01*
X010978Y012900D01*
X010978Y012725D01*
X011045Y012564D01*
X011169Y012440D01*
X011330Y012373D01*
X011818Y012373D01*
X011979Y012440D01*
X012103Y012564D01*
X012170Y012725D01*
X012170Y012836D01*
X012232Y012686D01*
X012367Y012551D01*
X012544Y012478D01*
X013094Y012478D01*
X013271Y012551D01*
X013406Y012686D01*
X013479Y012862D01*
X013479Y013053D01*
X013406Y013230D01*
X013271Y013365D01*
X013094Y013438D01*
X012544Y013438D01*
X012511Y013424D01*
X012528Y013442D01*
X013145Y013500D01*
X013237Y013408D01*
X013391Y013345D01*
X013557Y013345D01*
X013711Y013408D01*
X013828Y013526D01*
X013892Y013680D01*
X013892Y013686D01*
X014022Y013556D01*
X014199Y013483D01*
X014749Y013483D01*
X014926Y013556D01*
X015033Y013663D01*
X015283Y013663D01*
X015304Y013641D01*
X015257Y013526D01*
X015257Y013400D01*
X015305Y013283D01*
X015394Y013194D01*
X015511Y013145D01*
X015637Y013145D01*
X015754Y013194D01*
X015843Y013283D01*
X015891Y013400D01*
X015891Y013526D01*
X015844Y013641D01*
X015865Y013663D01*
X016015Y013663D01*
X016122Y013556D01*
X016299Y013483D01*
X016849Y013483D01*
X017026Y013556D01*
X017144Y013674D01*
X017144Y013223D01*
X017144Y013223D01*
X017015Y013353D01*
X016846Y013423D01*
X016614Y013423D01*
X016614Y013003D01*
X016534Y013003D01*
X016534Y013423D01*
X016302Y013423D01*
X016133Y013353D01*
X016004Y013223D01*
X015934Y013054D01*
X015934Y013003D01*
X016534Y013003D01*
X016534Y012923D01*
X015934Y012923D01*
X015934Y012871D01*
X016004Y012702D01*
X016133Y012573D01*
X016302Y012503D01*
X016534Y012503D01*
X016534Y012923D01*
X016614Y012923D01*
X017144Y012923D01*
X017144Y013003D01*
X016614Y013003D01*
X016614Y012923D01*
X016614Y012503D01*
X016846Y012503D01*
X017015Y012573D01*
X017144Y012702D01*
X017144Y012703D01*
X017144Y012658D01*
X016679Y012193D01*
X016679Y012193D01*
X015907Y012193D01*
X015822Y012336D02*
X016822Y012336D01*
X016940Y012454D02*
X015852Y012454D01*
X015829Y012573D02*
X016134Y012573D01*
X016015Y012691D02*
X015739Y012691D01*
X015959Y012810D02*
X015089Y012810D01*
X015114Y012871D02*
X015044Y012702D01*
X014915Y012573D01*
X014746Y012503D01*
X014514Y012503D01*
X014514Y012923D01*
X014514Y013003D01*
X014434Y013003D01*
X014434Y013423D01*
X014202Y013423D01*
X014033Y013353D01*
X013904Y013223D01*
X013834Y013054D01*
X013834Y013003D01*
X014434Y013003D01*
X014434Y012923D01*
X013834Y012923D01*
X013834Y012871D01*
X013904Y012702D01*
X014033Y012573D01*
X014202Y012503D01*
X014434Y012503D01*
X014434Y012923D01*
X014514Y012923D01*
X015114Y012923D01*
X015114Y012871D01*
X015114Y013003D02*
X015114Y013054D01*
X015044Y013223D01*
X014915Y013353D01*
X014746Y013423D01*
X014514Y013423D01*
X014514Y013003D01*
X015114Y013003D01*
X015114Y013047D02*
X015934Y013047D01*
X015980Y013166D02*
X015686Y013166D01*
X015844Y013284D02*
X016065Y013284D01*
X015891Y013403D02*
X016254Y013403D01*
X016206Y013521D02*
X015891Y013521D01*
X015844Y013640D02*
X016038Y013640D01*
X016534Y013403D02*
X016614Y013403D01*
X016614Y013284D02*
X016534Y013284D01*
X016534Y013166D02*
X016614Y013166D01*
X016614Y013047D02*
X016534Y013047D01*
X016534Y012928D02*
X014514Y012928D01*
X014434Y012928D02*
X013479Y012928D01*
X013479Y013047D02*
X013834Y013047D01*
X013880Y013166D02*
X013433Y013166D01*
X013352Y013284D02*
X013965Y013284D01*
X014154Y013403D02*
X013697Y013403D01*
X013824Y013521D02*
X014106Y013521D01*
X013938Y013640D02*
X013876Y013640D01*
X014434Y013403D02*
X014514Y013403D01*
X014514Y013284D02*
X014434Y013284D01*
X014434Y013166D02*
X014514Y013166D01*
X014514Y013047D02*
X014434Y013047D01*
X014434Y012810D02*
X014514Y012810D01*
X014514Y012691D02*
X014434Y012691D01*
X014434Y012573D02*
X014514Y012573D01*
X014515Y012336D02*
X014833Y012336D01*
X014914Y012573D02*
X015319Y012573D01*
X015296Y012454D02*
X011994Y012454D01*
X011909Y012336D02*
X012338Y012336D01*
X012227Y012217D02*
X012080Y012217D01*
X012147Y012099D02*
X012178Y012099D01*
X011639Y012336D02*
X011209Y012336D01*
X011154Y012454D02*
X008994Y012454D01*
X008979Y012440D02*
X009103Y012564D01*
X009170Y012725D01*
X009170Y012900D01*
X009103Y013062D01*
X008979Y013186D01*
X008818Y013253D01*
X008330Y013253D01*
X008169Y013186D01*
X008045Y013062D01*
X007978Y012900D01*
X007978Y012725D01*
X008045Y012564D01*
X008169Y012440D01*
X008330Y012373D01*
X008818Y012373D01*
X008979Y012440D01*
X009109Y012336D02*
X009539Y012336D01*
X009368Y012217D02*
X009280Y012217D01*
X009107Y012573D02*
X011041Y012573D01*
X010992Y012691D02*
X009156Y012691D01*
X009170Y012810D02*
X010978Y012810D01*
X010990Y012928D02*
X009158Y012928D01*
X009109Y013047D02*
X011039Y013047D01*
X011148Y013166D02*
X010621Y013166D01*
X010640Y013184D02*
X010640Y013505D01*
X010186Y013505D01*
X010186Y013625D01*
X010640Y013625D01*
X010640Y013946D01*
X010546Y014040D01*
X010186Y014040D01*
X010186Y013625D01*
X010066Y013625D01*
X010066Y014040D01*
X009705Y014040D01*
X009611Y013946D01*
X009611Y013625D01*
X010066Y013625D01*
X010066Y013505D01*
X010186Y013505D01*
X010186Y013090D01*
X010546Y013090D01*
X010640Y013184D01*
X010640Y013284D02*
X011720Y013284D01*
X011259Y013403D02*
X010640Y013403D01*
X010640Y013640D02*
X011013Y013640D01*
X010978Y013758D02*
X010640Y013758D01*
X010640Y013877D02*
X010978Y013877D01*
X011017Y013995D02*
X010591Y013995D01*
X010614Y014232D02*
X011281Y014232D01*
X011097Y014114D02*
X009051Y014114D01*
X009103Y014062D02*
X008979Y014186D01*
X008818Y014253D01*
X008330Y014253D01*
X008169Y014186D01*
X008045Y014062D01*
X007978Y013900D01*
X007978Y013725D01*
X008045Y013564D01*
X008169Y013440D01*
X008330Y013373D01*
X008818Y013373D01*
X008979Y013440D01*
X009103Y013564D01*
X009170Y013725D01*
X009170Y013900D01*
X009103Y014062D01*
X009131Y013995D02*
X009660Y013995D01*
X009611Y013877D02*
X009170Y013877D01*
X009170Y013758D02*
X009611Y013758D01*
X009611Y013640D02*
X009134Y013640D01*
X009061Y013521D02*
X010066Y013521D01*
X010066Y013505D02*
X009611Y013505D01*
X009611Y013184D01*
X009705Y013090D01*
X010066Y013090D01*
X010066Y013505D01*
X010066Y013403D02*
X010186Y013403D01*
X010186Y013521D02*
X011087Y013521D01*
X010186Y013640D02*
X010066Y013640D01*
X010066Y013758D02*
X010186Y013758D01*
X010186Y013877D02*
X010066Y013877D01*
X010066Y013995D02*
X010186Y013995D01*
X009637Y014232D02*
X008867Y014232D01*
X008818Y014373D02*
X008979Y014440D01*
X009103Y014564D01*
X009170Y014725D01*
X009170Y014900D01*
X009103Y015062D01*
X008979Y015186D01*
X008818Y015253D01*
X008330Y015253D01*
X008169Y015186D01*
X008045Y015062D01*
X007978Y014900D01*
X007978Y014725D01*
X008045Y014564D01*
X008169Y014440D01*
X008330Y014373D01*
X008818Y014373D01*
X009009Y014469D02*
X009591Y014469D01*
X009591Y014351D02*
X006558Y014351D01*
X006523Y014386D02*
X006362Y014453D01*
X006186Y014453D01*
X006025Y014386D01*
X005901Y014262D01*
X005834Y014100D01*
X005834Y013925D01*
X005901Y013764D01*
X006025Y013640D01*
X006186Y013573D01*
X006362Y013573D01*
X006523Y013640D01*
X006647Y013764D01*
X006714Y013925D01*
X006714Y014100D01*
X006647Y014262D01*
X006523Y014386D01*
X006659Y014232D02*
X008281Y014232D01*
X008097Y014114D02*
X006708Y014114D01*
X006714Y013995D02*
X008017Y013995D01*
X007978Y013877D02*
X006694Y013877D01*
X006642Y013758D02*
X007978Y013758D01*
X008013Y013640D02*
X006523Y013640D01*
X006025Y013640D02*
X003214Y013640D01*
X003214Y013758D02*
X005906Y013758D01*
X005854Y013877D02*
X003214Y013877D01*
X003214Y013995D02*
X005834Y013995D01*
X005840Y014114D02*
X003214Y014114D01*
X003214Y014232D02*
X005889Y014232D01*
X005990Y014351D02*
X003214Y014351D01*
X003214Y014469D02*
X008139Y014469D01*
X008035Y014588D02*
X003214Y014588D01*
X003214Y014707D02*
X007986Y014707D01*
X007978Y014825D02*
X003214Y014825D01*
X003214Y014944D02*
X007996Y014944D01*
X008045Y015062D02*
X003214Y015062D01*
X003214Y015181D02*
X008164Y015181D01*
X008222Y015418D02*
X003214Y015418D01*
X003214Y015536D02*
X006033Y015536D01*
X006025Y015540D02*
X006186Y015473D01*
X006362Y015473D01*
X006523Y015540D01*
X006647Y015664D01*
X006714Y015825D01*
X006714Y016000D01*
X006647Y016162D01*
X006523Y016286D01*
X006362Y016353D01*
X006186Y016353D01*
X006025Y016286D01*
X005901Y016162D01*
X005834Y016000D01*
X005834Y015825D01*
X005901Y015664D01*
X006025Y015540D01*
X005910Y015655D02*
X003214Y015655D01*
X003214Y015773D02*
X005855Y015773D01*
X005834Y015892D02*
X003214Y015892D01*
X003214Y016011D02*
X005838Y016011D01*
X005887Y016129D02*
X003214Y016129D01*
X003214Y016248D02*
X005987Y016248D01*
X006561Y016248D02*
X008318Y016248D01*
X008330Y016253D02*
X008169Y016186D01*
X008045Y016062D01*
X007978Y015900D01*
X007978Y015725D01*
X008045Y015564D01*
X008169Y015440D01*
X008330Y015373D01*
X008818Y015373D01*
X008979Y015440D01*
X009103Y015564D01*
X009170Y015725D01*
X009170Y015900D01*
X009103Y016062D01*
X008979Y016186D01*
X008818Y016253D01*
X008330Y016253D01*
X008112Y016129D02*
X006661Y016129D01*
X006710Y016011D02*
X008024Y016011D01*
X007978Y015892D02*
X006714Y015892D01*
X006692Y015773D02*
X007978Y015773D01*
X008007Y015655D02*
X006638Y015655D01*
X006515Y015536D02*
X008072Y015536D01*
X008926Y015418D02*
X009328Y015418D01*
X009245Y015536D02*
X009076Y015536D01*
X009141Y015655D02*
X009245Y015655D01*
X009245Y015773D02*
X009170Y015773D01*
X009170Y015892D02*
X009245Y015892D01*
X009245Y016011D02*
X009124Y016011D01*
X009036Y016129D02*
X009245Y016129D01*
X009245Y016248D02*
X008830Y016248D01*
X008814Y016393D02*
X008968Y016457D01*
X009086Y016575D01*
X009150Y016729D01*
X009150Y016793D01*
X008594Y016793D01*
X008594Y016393D01*
X008814Y016393D01*
X008996Y016485D02*
X009332Y016485D01*
X009245Y016366D02*
X003214Y016366D01*
X003214Y016485D02*
X008152Y016485D01*
X008050Y016603D02*
X003214Y016603D01*
X003214Y016722D02*
X008001Y016722D01*
X007998Y016840D02*
X005515Y016840D01*
X005621Y016959D02*
X008024Y016959D01*
X007634Y017077D02*
X005670Y017077D01*
X005672Y017196D02*
X007544Y017196D01*
X007544Y017315D02*
X005642Y017315D01*
X005369Y017793D02*
X004604Y017793D01*
X004604Y018990D01*
X004633Y018961D01*
X004757Y018910D01*
X004891Y018910D01*
X005015Y018961D01*
X005110Y019056D01*
X005161Y019180D01*
X005161Y019314D01*
X005110Y019438D01*
X005015Y019532D01*
X004891Y019584D01*
X004757Y019584D01*
X004633Y019532D01*
X004604Y019503D01*
X004604Y019648D01*
X004469Y019783D01*
X004279Y019783D01*
X004059Y019783D01*
X004059Y019942D01*
X003953Y020048D01*
X003214Y020048D01*
X003214Y020178D01*
X003953Y020178D01*
X004059Y020283D01*
X004059Y020443D01*
X004078Y020443D01*
X004376Y020140D01*
X004376Y019984D01*
X004436Y019837D01*
X004548Y019725D01*
X004695Y019664D01*
X004853Y019664D01*
X005000Y019725D01*
X005112Y019837D01*
X005172Y019984D01*
X005172Y020142D01*
X005112Y020289D01*
X005000Y020401D01*
X004853Y020461D01*
X004705Y020461D01*
X004404Y020767D01*
X004404Y020768D01*
X004338Y020834D01*
X004271Y020902D01*
X004270Y020902D01*
X004269Y020903D01*
X004173Y020903D01*
X004081Y020903D01*
X004080Y020903D01*
X004059Y020903D01*
X004059Y021062D01*
X003953Y021168D01*
X003214Y021168D01*
X003214Y022225D01*
X006610Y022225D01*
X006610Y022042D01*
X007064Y022042D01*
X007064Y021922D01*
X007184Y021922D01*
X007184Y021547D01*
X007545Y021547D01*
X007638Y021640D01*
X007638Y021922D01*
X007184Y021922D01*
X007184Y022042D01*
X007638Y022042D01*
X007638Y022225D01*
X008264Y022225D01*
X008169Y022186D01*
X008045Y022062D01*
X007978Y021900D01*
X007978Y021725D01*
X008045Y021564D01*
X008169Y021440D01*
X008330Y021373D01*
X008818Y021373D01*
X008979Y021440D01*
X009103Y021564D01*
X009170Y021725D01*
X009170Y021900D01*
X009103Y022062D01*
X008979Y022186D01*
X008884Y022225D01*
X011264Y022225D01*
X011169Y022186D01*
X011045Y022062D01*
X010978Y021900D01*
X010978Y021725D01*
X011045Y021564D01*
X011116Y021493D01*
X010579Y021493D01*
X010444Y021358D01*
X010444Y021168D01*
X010444Y021043D01*
X009111Y021043D01*
X009103Y021062D01*
X008979Y021186D01*
X008818Y021253D01*
X008330Y021253D01*
X008169Y021186D01*
X008045Y021062D01*
X007978Y020900D01*
X007978Y020731D01*
X007857Y020781D01*
X007691Y020781D01*
X007658Y020767D01*
X007658Y020994D01*
X007553Y021099D01*
X006695Y021099D01*
X006590Y020994D01*
X006590Y020293D01*
X006695Y020188D01*
X006974Y020188D01*
X007029Y020133D01*
X007417Y020133D01*
X007420Y020126D01*
X007537Y020008D01*
X007691Y019945D01*
X007857Y019945D01*
X008011Y020008D01*
X008031Y020029D01*
X007978Y019900D01*
X007978Y019731D01*
X007857Y019781D01*
X007691Y019781D01*
X007658Y019767D01*
X007658Y019832D01*
X007553Y019938D01*
X006695Y019938D01*
X006590Y019832D01*
X006590Y019132D01*
X006695Y019027D01*
X007519Y019027D01*
X007537Y019008D01*
X007691Y018945D01*
X007857Y018945D01*
X008011Y019008D01*
X008031Y019029D01*
X007978Y018900D01*
X007978Y018725D01*
X008045Y018564D01*
X008169Y018440D01*
X008330Y018373D01*
X008359Y018373D01*
X008344Y018358D01*
X008344Y018253D01*
X008330Y018253D01*
X008169Y018186D01*
X008045Y018062D01*
X007978Y017900D01*
X007978Y017725D01*
X008045Y017564D01*
X008116Y017493D01*
X008004Y017493D01*
X008004Y017658D01*
X007869Y017793D01*
X007679Y017793D01*
X007629Y017793D01*
X007638Y017802D01*
X007638Y018084D01*
X007184Y018084D01*
X007184Y018203D01*
X007638Y018203D01*
X007638Y018485D01*
X007545Y018579D01*
X007184Y018579D01*
X007184Y018204D01*
X007064Y018204D01*
X007064Y018579D01*
X006703Y018579D01*
X006610Y018485D01*
X006610Y018203D01*
X007064Y018203D01*
X007064Y018084D01*
X006610Y018084D01*
X006610Y017802D01*
X006619Y017793D01*
X005369Y017793D01*
X004906Y017315D02*
X003214Y017315D01*
X003214Y017433D02*
X004179Y017433D01*
X004144Y017552D02*
X003214Y017552D01*
X003214Y017670D02*
X004144Y017670D01*
X004144Y017789D02*
X003214Y017789D01*
X003214Y017907D02*
X004144Y017907D01*
X004144Y018026D02*
X003214Y018026D01*
X003214Y018144D02*
X004144Y018144D01*
X004144Y018263D02*
X003214Y018263D01*
X003214Y018381D02*
X004144Y018381D01*
X004144Y018500D02*
X003214Y018500D01*
X003214Y018619D02*
X004144Y018619D01*
X004144Y018737D02*
X003214Y018737D01*
X003214Y018856D02*
X004144Y018856D01*
X004144Y018974D02*
X003214Y018974D01*
X003988Y019093D02*
X004144Y019093D01*
X004144Y019211D02*
X004059Y019211D01*
X004604Y018974D02*
X004620Y018974D01*
X004604Y018856D02*
X007978Y018856D01*
X007978Y018737D02*
X004604Y018737D01*
X004604Y018619D02*
X008022Y018619D01*
X008109Y018500D02*
X007624Y018500D01*
X007638Y018381D02*
X008310Y018381D01*
X008344Y018263D02*
X007638Y018263D01*
X007638Y018026D02*
X008030Y018026D01*
X007981Y017907D02*
X007638Y017907D01*
X007873Y017789D02*
X007978Y017789D01*
X007992Y017670D02*
X008001Y017670D01*
X008004Y017552D02*
X008057Y017552D01*
X008127Y018144D02*
X007184Y018144D01*
X007184Y018263D02*
X007064Y018263D01*
X007064Y018381D02*
X007184Y018381D01*
X007184Y018500D02*
X007064Y018500D01*
X007064Y018144D02*
X004604Y018144D01*
X004604Y018026D02*
X006610Y018026D01*
X006610Y017907D02*
X004604Y017907D01*
X004604Y018263D02*
X006610Y018263D01*
X006610Y018381D02*
X004604Y018381D01*
X004604Y018500D02*
X006624Y018500D01*
X006629Y019093D02*
X005125Y019093D01*
X005161Y019211D02*
X006590Y019211D01*
X006590Y019330D02*
X005155Y019330D01*
X005099Y019448D02*
X006590Y019448D01*
X006590Y019567D02*
X004932Y019567D01*
X004904Y019685D02*
X006590Y019685D01*
X006590Y019804D02*
X005079Y019804D01*
X005147Y019922D02*
X006680Y019922D01*
X006605Y020278D02*
X005116Y020278D01*
X005165Y020160D02*
X007002Y020160D01*
X006590Y020397D02*
X005004Y020397D01*
X004891Y020642D02*
X005015Y020693D01*
X005110Y020788D01*
X005161Y020912D01*
X005161Y021046D01*
X005110Y021170D01*
X005015Y021265D01*
X004891Y021316D01*
X004757Y021316D01*
X004633Y021265D01*
X004538Y021170D01*
X004487Y021046D01*
X004487Y020912D01*
X004538Y020788D01*
X004633Y020693D01*
X004757Y020642D01*
X004891Y020642D01*
X005074Y020752D02*
X006590Y020752D01*
X006590Y020634D02*
X004535Y020634D01*
X004574Y020752D02*
X004418Y020752D01*
X004504Y020871D02*
X004302Y020871D01*
X004487Y020989D02*
X004059Y020989D01*
X004013Y021108D02*
X004513Y021108D01*
X004595Y021226D02*
X003214Y021226D01*
X003214Y021345D02*
X010444Y021345D01*
X010444Y021226D02*
X008881Y021226D01*
X009057Y021108D02*
X010444Y021108D01*
X010549Y021464D02*
X009003Y021464D01*
X009111Y021582D02*
X011037Y021582D01*
X010988Y021701D02*
X009160Y021701D01*
X009170Y021819D02*
X010978Y021819D01*
X010994Y021938D02*
X009154Y021938D01*
X009105Y022056D02*
X011043Y022056D01*
X011158Y022175D02*
X008990Y022175D01*
X008158Y022175D02*
X007638Y022175D01*
X007638Y022056D02*
X008043Y022056D01*
X007994Y021938D02*
X007184Y021938D01*
X007184Y021819D02*
X007064Y021819D01*
X007064Y021922D02*
X007064Y021547D01*
X006703Y021547D01*
X006610Y021640D01*
X006610Y021922D01*
X007064Y021922D01*
X007064Y021938D02*
X003214Y021938D01*
X003214Y022056D02*
X006610Y022056D01*
X006610Y022175D02*
X003214Y022175D01*
X003214Y021819D02*
X006610Y021819D01*
X006610Y021701D02*
X003214Y021701D01*
X003214Y021582D02*
X006668Y021582D01*
X007064Y021582D02*
X007184Y021582D01*
X007184Y021701D02*
X007064Y021701D01*
X007580Y021582D02*
X008037Y021582D01*
X007988Y021701D02*
X007638Y021701D01*
X007638Y021819D02*
X007978Y021819D01*
X008145Y021464D02*
X003214Y021464D01*
X004059Y020397D02*
X004123Y020397D01*
X004054Y020278D02*
X004240Y020278D01*
X004356Y020160D02*
X003214Y020160D01*
X003960Y020041D02*
X004376Y020041D01*
X004401Y019922D02*
X004059Y019922D01*
X004059Y019804D02*
X004469Y019804D01*
X004567Y019685D02*
X004644Y019685D01*
X004604Y019567D02*
X004716Y019567D01*
X005172Y020041D02*
X007505Y020041D01*
X007568Y019922D02*
X007987Y019922D01*
X007978Y019804D02*
X007658Y019804D01*
X008192Y019430D02*
X008330Y019373D01*
X008818Y019373D01*
X008979Y019440D01*
X009103Y019564D01*
X009170Y019725D01*
X009170Y019900D01*
X009115Y020033D01*
X011033Y020033D01*
X010978Y019900D01*
X010978Y019725D01*
X011045Y019564D01*
X011169Y019440D01*
X011330Y019373D01*
X011818Y019373D01*
X011979Y019440D01*
X012103Y019564D01*
X012170Y019725D01*
X012170Y019900D01*
X012115Y020033D01*
X012269Y020033D01*
X012404Y020168D01*
X012404Y020333D01*
X012875Y020333D01*
X013125Y020083D01*
X013523Y020083D01*
X013804Y020364D01*
X013804Y020762D01*
X013523Y021043D01*
X013429Y021043D01*
X013469Y021083D01*
X013523Y021083D01*
X013804Y021364D01*
X013804Y021762D01*
X013523Y022043D01*
X013125Y022043D01*
X012844Y021762D01*
X012844Y021493D01*
X012032Y021493D01*
X012103Y021564D01*
X012170Y021725D01*
X012170Y021900D01*
X012103Y022062D01*
X011979Y022186D01*
X011884Y022225D01*
X015212Y022225D01*
X015178Y022142D01*
X015178Y021984D01*
X015238Y021838D01*
X015350Y021727D01*
X015384Y021713D01*
X015350Y021699D01*
X015238Y021587D01*
X015178Y021442D01*
X015178Y021284D01*
X015238Y021138D01*
X015350Y021027D01*
X015384Y021013D01*
X015350Y020999D01*
X015238Y020887D01*
X015178Y020742D01*
X015178Y020584D01*
X015238Y020438D01*
X015350Y020327D01*
X015384Y020313D01*
X015350Y020299D01*
X015238Y020187D01*
X015178Y020042D01*
X015178Y019884D01*
X015238Y019738D01*
X015350Y019627D01*
X015384Y019613D01*
X015350Y019599D01*
X015238Y019487D01*
X015178Y019342D01*
X015178Y019184D01*
X015238Y019038D01*
X015350Y018927D01*
X015384Y018913D01*
X015350Y018899D01*
X015238Y018787D01*
X015178Y018642D01*
X015178Y018484D01*
X015238Y018338D01*
X015298Y018278D01*
X015283Y018263D01*
X015033Y018263D01*
X014926Y018370D01*
X014749Y018443D01*
X014199Y018443D01*
X014022Y018370D01*
X014019Y018366D01*
X014019Y018822D01*
X013913Y018928D01*
X013134Y018928D01*
X013029Y018822D01*
X013029Y017963D01*
X013134Y017858D01*
X013818Y017858D01*
X013887Y017691D01*
X014022Y017556D01*
X014199Y017483D01*
X014749Y017483D01*
X014926Y017556D01*
X015033Y017663D01*
X015283Y017663D01*
X015304Y017641D01*
X015257Y017526D01*
X015257Y017400D01*
X015304Y017284D01*
X015283Y017263D01*
X015033Y017263D01*
X014926Y017370D01*
X014749Y017443D01*
X014199Y017443D01*
X014022Y017370D01*
X013972Y017319D01*
X013913Y017378D01*
X013134Y017378D01*
X013029Y017272D01*
X013029Y016413D01*
X013134Y016308D01*
X013913Y016308D01*
X014019Y016413D01*
X014019Y016559D01*
X014022Y016556D01*
X014199Y016483D01*
X014749Y016483D01*
X014926Y016556D01*
X015033Y016663D01*
X015283Y016663D01*
X015304Y016641D01*
X015257Y016526D01*
X015257Y016400D01*
X015304Y016284D01*
X015283Y016263D01*
X015033Y016263D01*
X014926Y016370D01*
X014749Y016443D01*
X014199Y016443D01*
X014022Y016370D01*
X013887Y016235D01*
X013814Y016058D01*
X013814Y015867D01*
X013887Y015691D01*
X014022Y015556D01*
X014199Y015483D01*
X014749Y015483D01*
X014926Y015556D01*
X015033Y015663D01*
X015283Y015663D01*
X015304Y015641D01*
X015257Y015526D01*
X015257Y015400D01*
X015304Y015284D01*
X015283Y015263D01*
X015033Y015263D01*
X014926Y015370D01*
X014749Y015443D01*
X014199Y015443D01*
X014022Y015370D01*
X013887Y015235D01*
X013870Y015193D01*
X013204Y015193D01*
X013204Y015868D01*
X013204Y016058D01*
X013069Y016193D01*
X012634Y016193D01*
X012634Y016308D01*
X012794Y016308D01*
X012899Y016413D01*
X012899Y017272D01*
X012794Y017378D01*
X012634Y017378D01*
X012634Y017858D01*
X012794Y017858D01*
X012899Y017963D01*
X012899Y018822D01*
X012794Y018928D01*
X012159Y018928D01*
X012103Y019062D01*
X011979Y019186D01*
X011818Y019253D01*
X011330Y019253D01*
X011169Y019186D01*
X011045Y019062D01*
X010978Y018900D01*
X010978Y018725D01*
X011045Y018564D01*
X011169Y018440D01*
X011330Y018373D01*
X011818Y018373D01*
X011909Y018411D01*
X011909Y018215D01*
X011818Y018253D01*
X011330Y018253D01*
X011204Y018200D01*
X011204Y018358D01*
X011069Y018493D01*
X009032Y018493D01*
X009103Y018564D01*
X009170Y018725D01*
X009170Y018900D01*
X009103Y019062D01*
X008979Y019186D01*
X008818Y019253D01*
X008330Y019253D01*
X008169Y019186D01*
X008142Y019159D01*
X008192Y019280D01*
X008192Y019430D01*
X008192Y019330D02*
X012878Y019330D01*
X012844Y019364D02*
X013125Y019083D01*
X013523Y019083D01*
X013804Y019364D01*
X013804Y019762D01*
X013523Y020043D01*
X013125Y020043D01*
X012844Y019762D01*
X012844Y019364D01*
X012844Y019448D02*
X011988Y019448D01*
X012104Y019567D02*
X012844Y019567D01*
X012844Y019685D02*
X012153Y019685D01*
X012170Y019804D02*
X012886Y019804D01*
X013005Y019922D02*
X012161Y019922D01*
X012277Y020041D02*
X013123Y020041D01*
X013048Y020160D02*
X012396Y020160D01*
X012404Y020278D02*
X012930Y020278D01*
X013525Y020041D02*
X015178Y020041D01*
X015178Y019922D02*
X014615Y019922D01*
X014515Y020023D02*
X014364Y020023D01*
X014364Y019603D01*
X014284Y019603D01*
X014284Y020023D01*
X014133Y020023D01*
X013864Y019753D01*
X013864Y019603D01*
X014284Y019603D01*
X014284Y019523D01*
X013864Y019523D01*
X013864Y019372D01*
X014133Y019103D01*
X014284Y019103D01*
X014284Y019523D01*
X014364Y019523D01*
X014364Y019603D01*
X014784Y019603D01*
X014784Y019753D01*
X014515Y020023D01*
X014523Y020083D02*
X014804Y020364D01*
X014804Y020762D01*
X014523Y021043D01*
X014125Y021043D01*
X013844Y020762D01*
X013844Y020364D01*
X014125Y020083D01*
X014523Y020083D01*
X014600Y020160D02*
X015227Y020160D01*
X015329Y020278D02*
X014718Y020278D01*
X014804Y020397D02*
X015280Y020397D01*
X015206Y020515D02*
X014804Y020515D01*
X014804Y020634D02*
X015178Y020634D01*
X015182Y020752D02*
X014804Y020752D01*
X014695Y020871D02*
X015231Y020871D01*
X015340Y020989D02*
X014576Y020989D01*
X014523Y021083D02*
X014804Y021364D01*
X014804Y021762D01*
X014523Y022043D01*
X014125Y022043D01*
X013844Y021762D01*
X013844Y021364D01*
X014125Y021083D01*
X014523Y021083D01*
X014548Y021108D02*
X015269Y021108D01*
X015202Y021226D02*
X014666Y021226D01*
X014785Y021345D02*
X015178Y021345D01*
X015187Y021464D02*
X014804Y021464D01*
X014804Y021582D02*
X015236Y021582D01*
X015354Y021701D02*
X014804Y021701D01*
X014746Y021819D02*
X015257Y021819D01*
X015197Y021938D02*
X014628Y021938D01*
X015178Y022056D02*
X012105Y022056D01*
X012154Y021938D02*
X013020Y021938D01*
X012902Y021819D02*
X012170Y021819D01*
X012160Y021701D02*
X012844Y021701D01*
X012844Y021582D02*
X012111Y021582D01*
X011990Y022175D02*
X015192Y022175D01*
X015794Y021701D02*
X015889Y021701D01*
X015891Y021819D02*
X015938Y021819D01*
X015951Y021938D02*
X016050Y021938D01*
X016648Y021938D02*
X017078Y021938D01*
X016960Y021819D02*
X016760Y021819D01*
X016809Y021701D02*
X016910Y021701D01*
X016889Y021582D02*
X016829Y021582D01*
X016829Y021464D02*
X016889Y021464D01*
X016829Y021345D02*
X017309Y021345D01*
X017309Y021338D02*
X017389Y021338D01*
X017389Y020927D01*
X017309Y020847D01*
X017309Y021338D01*
X017389Y021345D02*
X017869Y021345D01*
X017809Y021418D02*
X017809Y021649D01*
X017739Y021818D01*
X017610Y021948D01*
X017441Y022018D01*
X017389Y022018D01*
X017389Y021418D01*
X017809Y021418D01*
X017809Y021464D02*
X017869Y021464D01*
X017869Y021582D02*
X017809Y021582D01*
X017788Y021701D02*
X017889Y021701D01*
X017938Y021819D02*
X017738Y021819D01*
X017620Y021938D02*
X018050Y021938D01*
X018648Y021938D02*
X019050Y021938D01*
X018938Y021819D02*
X018760Y021819D01*
X018809Y021701D02*
X018889Y021701D01*
X018869Y021582D02*
X018829Y021582D01*
X018829Y021464D02*
X018869Y021464D01*
X018869Y021345D02*
X018829Y021345D01*
X018829Y021226D02*
X018869Y021226D01*
X018869Y021108D02*
X018829Y021108D01*
X018821Y021083D02*
X018821Y021083D01*
X018903Y020989D02*
X018916Y020989D01*
X019109Y020752D02*
X019138Y020752D01*
X019150Y020634D02*
X019190Y020634D01*
X019190Y020515D02*
X019150Y020515D01*
X019150Y020397D02*
X019190Y020397D01*
X019190Y020278D02*
X019150Y020278D01*
X019150Y020160D02*
X019190Y020160D01*
X019216Y020041D02*
X019125Y020041D01*
X019074Y019922D02*
X019267Y019922D01*
X019385Y019804D02*
X018955Y019804D01*
X018385Y019804D02*
X017921Y019804D01*
X018045Y019922D02*
X018267Y019922D01*
X018216Y020041D02*
X018103Y020041D01*
X018130Y020160D02*
X018190Y020160D01*
X018190Y020278D02*
X018130Y020278D01*
X018190Y020397D02*
X017710Y020397D01*
X017630Y020397D02*
X017150Y020397D01*
X017150Y020515D02*
X017210Y020515D01*
X017210Y020634D02*
X017150Y020634D01*
X017109Y020752D02*
X017223Y020752D01*
X017309Y020871D02*
X017333Y020871D01*
X017309Y020989D02*
X017389Y020989D01*
X017389Y021108D02*
X017309Y021108D01*
X017309Y021226D02*
X017389Y021226D01*
X017389Y021464D02*
X017309Y021464D01*
X017309Y021582D02*
X017389Y021582D01*
X017389Y021701D02*
X017309Y021701D01*
X017309Y021819D02*
X017389Y021819D01*
X017389Y021938D02*
X017309Y021938D01*
X016889Y021226D02*
X016829Y021226D01*
X016829Y021108D02*
X016889Y021108D01*
X016821Y021083D02*
X016821Y021083D01*
X016903Y020989D02*
X016937Y020989D01*
X017630Y020752D02*
X017710Y020752D01*
X017710Y020634D02*
X017630Y020634D01*
X017630Y020515D02*
X017710Y020515D01*
X017710Y020278D02*
X017630Y020278D01*
X017630Y020160D02*
X017710Y020160D01*
X017710Y020041D02*
X017630Y020041D01*
X017630Y019922D02*
X017710Y019922D01*
X017710Y019804D02*
X017630Y019804D01*
X017419Y019804D02*
X016955Y019804D01*
X017074Y019922D02*
X017295Y019922D01*
X017237Y020041D02*
X017125Y020041D01*
X017150Y020160D02*
X017210Y020160D01*
X017210Y020278D02*
X017150Y020278D01*
X016385Y019804D02*
X015937Y019804D01*
X015970Y019922D02*
X016267Y019922D01*
X016216Y020041D02*
X015970Y020041D01*
X015921Y020160D02*
X016190Y020160D01*
X016190Y020278D02*
X015819Y020278D01*
X015868Y020397D02*
X016190Y020397D01*
X016190Y020515D02*
X015942Y020515D01*
X015970Y020634D02*
X016190Y020634D01*
X016138Y020752D02*
X015966Y020752D01*
X015997Y020871D02*
X015917Y020871D01*
X015916Y020989D02*
X015808Y020989D01*
X014100Y021108D02*
X013548Y021108D01*
X013576Y020989D02*
X014072Y020989D01*
X013953Y020871D02*
X013695Y020871D01*
X013804Y020752D02*
X013844Y020752D01*
X013844Y020634D02*
X013804Y020634D01*
X013804Y020515D02*
X013844Y020515D01*
X013844Y020397D02*
X013804Y020397D01*
X013718Y020278D02*
X013930Y020278D01*
X014048Y020160D02*
X013600Y020160D01*
X013643Y019922D02*
X014033Y019922D01*
X013915Y019804D02*
X013762Y019804D01*
X013804Y019685D02*
X013864Y019685D01*
X013804Y019567D02*
X014284Y019567D01*
X014364Y019567D02*
X015318Y019567D01*
X015291Y019685D02*
X014784Y019685D01*
X014733Y019804D02*
X015211Y019804D01*
X014784Y019523D02*
X014364Y019523D01*
X014364Y019103D01*
X014515Y019103D01*
X014784Y019372D01*
X014784Y019523D01*
X014784Y019448D02*
X015222Y019448D01*
X015178Y019330D02*
X014741Y019330D01*
X014623Y019211D02*
X015178Y019211D01*
X015216Y019093D02*
X013533Y019093D01*
X013651Y019211D02*
X014025Y019211D01*
X013907Y019330D02*
X013770Y019330D01*
X013804Y019448D02*
X013864Y019448D01*
X014284Y019448D02*
X014364Y019448D01*
X014364Y019330D02*
X014284Y019330D01*
X014284Y019211D02*
X014364Y019211D01*
X013985Y018856D02*
X015306Y018856D01*
X015302Y018974D02*
X012139Y018974D01*
X012072Y019093D02*
X013115Y019093D01*
X012997Y019211D02*
X011918Y019211D01*
X011230Y019211D02*
X008918Y019211D01*
X009072Y019093D02*
X011076Y019093D01*
X011009Y018974D02*
X009139Y018974D01*
X009170Y018856D02*
X010978Y018856D01*
X010978Y018737D02*
X009170Y018737D01*
X009126Y018619D02*
X011022Y018619D01*
X011109Y018500D02*
X009039Y018500D01*
X008230Y019211D02*
X008164Y019211D01*
X008009Y018974D02*
X007928Y018974D01*
X007620Y018974D02*
X005028Y018974D01*
X004652Y020515D02*
X006590Y020515D01*
X006590Y020871D02*
X005144Y020871D01*
X005161Y020989D02*
X006590Y020989D01*
X007658Y020989D02*
X008015Y020989D01*
X007978Y020871D02*
X007658Y020871D01*
X007926Y020752D02*
X007978Y020752D01*
X008091Y021108D02*
X005136Y021108D01*
X005053Y021226D02*
X008267Y021226D01*
X009161Y019922D02*
X010987Y019922D01*
X010978Y019804D02*
X009170Y019804D01*
X009153Y019685D02*
X010995Y019685D01*
X011044Y019567D02*
X009104Y019567D01*
X008988Y019448D02*
X011160Y019448D01*
X011181Y018381D02*
X011310Y018381D01*
X011204Y018263D02*
X011909Y018263D01*
X011909Y018381D02*
X011838Y018381D01*
X012170Y017858D02*
X012174Y017858D01*
X012174Y017378D01*
X012015Y017378D01*
X011909Y017272D01*
X011909Y017193D01*
X011814Y017233D01*
X011594Y017233D01*
X011594Y016833D01*
X011554Y016833D01*
X011554Y017233D01*
X011334Y017233D01*
X011204Y017179D01*
X011204Y017425D01*
X011330Y017373D01*
X011818Y017373D01*
X011979Y017440D01*
X012103Y017564D01*
X012170Y017725D01*
X012170Y017858D01*
X012170Y017789D02*
X012174Y017789D01*
X012174Y017670D02*
X012147Y017670D01*
X012174Y017552D02*
X012091Y017552D01*
X012174Y017433D02*
X011963Y017433D01*
X011951Y017315D02*
X011204Y017315D01*
X011204Y017196D02*
X011246Y017196D01*
X011554Y017196D02*
X011594Y017196D01*
X011594Y017077D02*
X011554Y017077D01*
X011554Y016959D02*
X011594Y016959D01*
X011594Y016840D02*
X011554Y016840D01*
X011554Y016793D02*
X011594Y016793D01*
X011594Y016393D01*
X011814Y016393D01*
X011909Y016433D01*
X011909Y016413D01*
X012015Y016308D01*
X012174Y016308D01*
X012174Y015868D01*
X012309Y015733D01*
X012499Y015733D01*
X012744Y015733D01*
X012744Y015518D01*
X012669Y015593D01*
X012479Y015593D01*
X012115Y015593D01*
X012170Y015725D01*
X012170Y015900D01*
X012103Y016062D01*
X011979Y016186D01*
X011818Y016253D01*
X011330Y016253D01*
X011204Y016200D01*
X011204Y016447D01*
X011334Y016393D01*
X011554Y016393D01*
X011554Y016793D01*
X011554Y016722D02*
X011594Y016722D01*
X011594Y016603D02*
X011554Y016603D01*
X011554Y016485D02*
X011594Y016485D01*
X011830Y016248D02*
X012174Y016248D01*
X012174Y016129D02*
X012036Y016129D01*
X012124Y016011D02*
X012174Y016011D01*
X012170Y015892D02*
X012174Y015892D01*
X012170Y015773D02*
X012268Y015773D01*
X012141Y015655D02*
X012744Y015655D01*
X012744Y015536D02*
X012726Y015536D01*
X013204Y015536D02*
X014069Y015536D01*
X014138Y015418D02*
X013204Y015418D01*
X013204Y015299D02*
X013952Y015299D01*
X013923Y015655D02*
X013204Y015655D01*
X013204Y015773D02*
X013853Y015773D01*
X013814Y015892D02*
X013204Y015892D01*
X013204Y016011D02*
X013814Y016011D01*
X013843Y016129D02*
X013133Y016129D01*
X013076Y016366D02*
X012852Y016366D01*
X012899Y016485D02*
X013029Y016485D01*
X013029Y016603D02*
X012899Y016603D01*
X012899Y016722D02*
X013029Y016722D01*
X013029Y016840D02*
X012899Y016840D01*
X012899Y016959D02*
X013029Y016959D01*
X013029Y017077D02*
X012899Y017077D01*
X012899Y017196D02*
X013029Y017196D01*
X013071Y017315D02*
X012857Y017315D01*
X012634Y017433D02*
X014175Y017433D01*
X014032Y017552D02*
X012634Y017552D01*
X012634Y017670D02*
X013908Y017670D01*
X013847Y017789D02*
X012634Y017789D01*
X012843Y017907D02*
X013085Y017907D01*
X013029Y018026D02*
X012899Y018026D01*
X012899Y018144D02*
X013029Y018144D01*
X013029Y018263D02*
X012899Y018263D01*
X012899Y018381D02*
X013029Y018381D01*
X013029Y018500D02*
X012899Y018500D01*
X012899Y018619D02*
X013029Y018619D01*
X013029Y018737D02*
X012899Y018737D01*
X012866Y018856D02*
X013062Y018856D01*
X014019Y018737D02*
X015217Y018737D01*
X015178Y018619D02*
X014019Y018619D01*
X014019Y018500D02*
X015178Y018500D01*
X015220Y018381D02*
X014898Y018381D01*
X015033Y018263D02*
X015283Y018263D01*
X015970Y018500D02*
X027457Y018500D01*
X027401Y018381D02*
X016998Y018381D01*
X015970Y018619D02*
X027327Y018619D01*
X027474Y018963D02*
X020274Y018963D01*
X019674Y018963D01*
X019434Y018974D02*
X015846Y018974D01*
X015842Y018856D02*
X019452Y018856D01*
X019571Y018737D02*
X015931Y018737D01*
X015932Y019093D02*
X019440Y019093D01*
X019440Y019211D02*
X015970Y019211D01*
X015970Y019330D02*
X019440Y019330D01*
X019440Y019448D02*
X015926Y019448D01*
X015830Y019567D02*
X019440Y019567D01*
X019440Y019685D02*
X015857Y019685D01*
X014364Y019685D02*
X014284Y019685D01*
X014284Y019804D02*
X014364Y019804D01*
X014364Y019922D02*
X014284Y019922D01*
X013982Y021226D02*
X013666Y021226D01*
X013785Y021345D02*
X013863Y021345D01*
X013844Y021464D02*
X013804Y021464D01*
X013804Y021582D02*
X013844Y021582D01*
X013844Y021701D02*
X013804Y021701D01*
X013746Y021819D02*
X013902Y021819D01*
X014020Y021938D02*
X013628Y021938D01*
X017672Y020871D02*
X017710Y020871D01*
X017830Y020989D02*
X017916Y020989D01*
X017869Y021108D02*
X017809Y021108D01*
X017809Y021226D02*
X017869Y021226D01*
X018087Y020752D02*
X018138Y020752D01*
X018130Y020634D02*
X018190Y020634D01*
X018190Y020515D02*
X018130Y020515D01*
X019821Y021083D02*
X019821Y021083D01*
X019829Y021108D02*
X019869Y021108D01*
X019869Y021226D02*
X019829Y021226D01*
X019829Y021345D02*
X019869Y021345D01*
X019869Y021464D02*
X019829Y021464D01*
X019829Y021582D02*
X019869Y021582D01*
X019889Y021701D02*
X019809Y021701D01*
X019760Y021819D02*
X019938Y021819D01*
X020050Y021938D02*
X019648Y021938D01*
X020648Y021938D02*
X021050Y021938D01*
X020938Y021819D02*
X020760Y021819D01*
X020809Y021701D02*
X020889Y021701D01*
X020869Y021582D02*
X020829Y021582D01*
X020829Y021464D02*
X020869Y021464D01*
X020869Y021345D02*
X020829Y021345D01*
X020829Y021226D02*
X020869Y021226D01*
X020869Y021108D02*
X020829Y021108D01*
X020821Y021083D02*
X020821Y021083D01*
X020903Y020989D02*
X020916Y020989D01*
X021829Y021108D02*
X021869Y021108D01*
X021869Y021226D02*
X021829Y021226D01*
X021829Y021345D02*
X021869Y021345D01*
X021869Y021464D02*
X021829Y021464D01*
X021829Y021582D02*
X021869Y021582D01*
X021889Y021701D02*
X021809Y021701D01*
X021760Y021819D02*
X021938Y021819D01*
X022050Y021938D02*
X021648Y021938D01*
X022648Y021938D02*
X023050Y021938D01*
X022938Y021819D02*
X022760Y021819D01*
X022809Y021701D02*
X022889Y021701D01*
X022869Y021582D02*
X022829Y021582D01*
X022829Y021464D02*
X022869Y021464D01*
X022869Y021345D02*
X022829Y021345D01*
X022829Y021226D02*
X022869Y021226D01*
X022869Y021108D02*
X022829Y021108D01*
X022883Y020989D02*
X022916Y020989D01*
X023821Y021083D02*
X023821Y021083D01*
X023829Y021108D02*
X024869Y021108D01*
X024869Y021226D02*
X023829Y021226D01*
X023829Y021345D02*
X024869Y021345D01*
X024869Y021464D02*
X023829Y021464D01*
X023829Y021582D02*
X024869Y021582D01*
X024889Y021701D02*
X023809Y021701D01*
X023760Y021819D02*
X024938Y021819D01*
X025050Y021938D02*
X023648Y021938D01*
X023903Y020989D02*
X024916Y020989D01*
X024984Y020871D02*
X024036Y020871D01*
X024109Y020752D02*
X024911Y020752D01*
X024870Y020634D02*
X024150Y020634D01*
X024150Y020515D02*
X024870Y020515D01*
X024870Y020397D02*
X024150Y020397D01*
X024150Y020278D02*
X024870Y020278D01*
X024870Y020160D02*
X024150Y020160D01*
X024125Y020041D02*
X024896Y020041D01*
X024947Y019922D02*
X024074Y019922D01*
X023955Y019804D02*
X025065Y019804D01*
X025635Y019804D02*
X026065Y019804D01*
X025947Y019922D02*
X025754Y019922D01*
X025805Y020041D02*
X025896Y020041D01*
X025870Y020160D02*
X025830Y020160D01*
X025830Y020278D02*
X025870Y020278D01*
X025870Y020397D02*
X025830Y020397D01*
X025830Y020515D02*
X025870Y020515D01*
X025870Y020634D02*
X025830Y020634D01*
X025789Y020752D02*
X025911Y020752D01*
X025984Y020871D02*
X025716Y020871D01*
X025782Y020989D02*
X025916Y020989D01*
X025869Y021108D02*
X025829Y021108D01*
X025829Y021226D02*
X025869Y021226D01*
X025869Y021345D02*
X025829Y021345D01*
X025829Y021464D02*
X025869Y021464D01*
X025869Y021582D02*
X025829Y021582D01*
X025809Y021701D02*
X025889Y021701D01*
X025938Y021819D02*
X025760Y021819D01*
X025648Y021938D02*
X026050Y021938D01*
X026648Y021938D02*
X027050Y021938D01*
X026938Y021819D02*
X026760Y021819D01*
X026809Y021701D02*
X026889Y021701D01*
X026869Y021582D02*
X026829Y021582D01*
X026829Y021464D02*
X026869Y021464D01*
X026869Y021345D02*
X026829Y021345D01*
X026829Y021226D02*
X026869Y021226D01*
X026869Y021108D02*
X026829Y021108D01*
X026782Y020989D02*
X026916Y020989D01*
X026984Y020871D02*
X026716Y020871D01*
X026789Y020752D02*
X026911Y020752D01*
X026870Y020634D02*
X026830Y020634D01*
X026830Y020515D02*
X026870Y020515D01*
X026870Y020397D02*
X026830Y020397D01*
X026830Y020278D02*
X026870Y020278D01*
X026870Y020160D02*
X026830Y020160D01*
X026805Y020041D02*
X026896Y020041D01*
X026947Y019922D02*
X026754Y019922D01*
X026635Y019804D02*
X027065Y019804D01*
X027674Y019563D02*
X021974Y019463D01*
X021916Y020989D02*
X021883Y020989D01*
X019916Y020989D02*
X019903Y020989D01*
X015267Y017552D02*
X014916Y017552D01*
X014773Y017433D02*
X015257Y017433D01*
X015292Y017315D02*
X014981Y017315D01*
X014973Y016603D02*
X015289Y016603D01*
X015257Y016485D02*
X014754Y016485D01*
X014929Y016366D02*
X015270Y016366D01*
X015291Y015655D02*
X015025Y015655D01*
X014879Y015536D02*
X015261Y015536D01*
X015257Y015418D02*
X014810Y015418D01*
X014996Y015299D02*
X015298Y015299D01*
X014019Y016366D02*
X013972Y016366D01*
X014019Y016485D02*
X014194Y016485D01*
X013900Y016248D02*
X012634Y016248D01*
X011956Y016366D02*
X011204Y016366D01*
X011204Y016248D02*
X011318Y016248D01*
X010744Y016603D02*
X009098Y016603D01*
X009147Y016722D02*
X010744Y016722D01*
X010744Y016840D02*
X009150Y016840D01*
X009124Y016959D02*
X009323Y016959D01*
X008594Y016722D02*
X008554Y016722D01*
X008554Y016603D02*
X008594Y016603D01*
X008594Y016485D02*
X008554Y016485D01*
X009870Y015299D02*
X003214Y015299D01*
X003214Y016840D02*
X005033Y016840D01*
X004927Y016959D02*
X003214Y016959D01*
X003214Y017077D02*
X004878Y017077D01*
X004876Y017196D02*
X003214Y017196D01*
X003214Y013521D02*
X008087Y013521D01*
X008259Y013403D02*
X003214Y013403D01*
X003214Y013284D02*
X009611Y013284D01*
X009611Y013403D02*
X008889Y013403D01*
X009000Y013166D02*
X009630Y013166D01*
X010066Y013166D02*
X010186Y013166D01*
X010186Y013284D02*
X010066Y013284D01*
X010239Y012336D02*
X009809Y012336D01*
X009980Y012217D02*
X010068Y012217D01*
X010509Y012336D02*
X010939Y012336D01*
X010768Y012217D02*
X010680Y012217D01*
X011380Y012217D02*
X011468Y012217D01*
X012107Y012573D02*
X012345Y012573D01*
X012230Y012691D02*
X012156Y012691D01*
X012170Y012810D02*
X012181Y012810D01*
X013293Y012573D02*
X014034Y012573D01*
X013915Y012691D02*
X013408Y012691D01*
X013457Y012810D02*
X013859Y012810D01*
X013915Y012336D02*
X014233Y012336D01*
X013633Y012336D02*
X013300Y012336D01*
X013411Y012217D02*
X013465Y012217D01*
X013550Y011624D02*
X013344Y011624D01*
X013998Y011624D02*
X014150Y011624D01*
X014598Y011624D02*
X014750Y011624D01*
X015115Y012336D02*
X015326Y012336D01*
X015409Y012691D02*
X015033Y012691D01*
X015068Y013166D02*
X015462Y013166D01*
X015304Y013284D02*
X014983Y013284D01*
X014794Y013403D02*
X015257Y013403D01*
X015257Y013521D02*
X014842Y013521D01*
X015010Y013640D02*
X015304Y013640D01*
X016534Y012810D02*
X016614Y012810D01*
X016614Y012928D02*
X017144Y012928D01*
X017133Y012691D02*
X017144Y012691D01*
X017059Y012573D02*
X017014Y012573D01*
X016614Y012573D02*
X016534Y012573D01*
X016534Y012691D02*
X016614Y012691D01*
X017083Y013284D02*
X017144Y013284D01*
X017144Y013403D02*
X016894Y013403D01*
X016942Y013521D02*
X017144Y013521D01*
X017144Y013640D02*
X017110Y013640D01*
X017374Y014663D02*
X017074Y014963D01*
X019536Y015892D02*
X022656Y015892D01*
X022700Y015773D02*
X019641Y015773D01*
X017774Y016863D02*
X016674Y016863D01*
X014050Y018381D02*
X014019Y018381D01*
X011909Y017196D02*
X011902Y017196D01*
X012103Y015062D02*
X012344Y015062D01*
X012344Y014944D02*
X012152Y014944D01*
X012170Y014825D02*
X012344Y014825D01*
X012344Y014707D02*
X012162Y014707D01*
X012113Y014588D02*
X012308Y014588D01*
X012207Y014469D02*
X012009Y014469D01*
X012158Y014351D02*
X010660Y014351D01*
X010660Y014469D02*
X011139Y014469D01*
X011035Y014588D02*
X010660Y014588D01*
X010660Y014707D02*
X010986Y014707D01*
X010978Y014825D02*
X010660Y014825D01*
X010660Y014944D02*
X010996Y014944D01*
X011045Y015062D02*
X010655Y015062D01*
X009875Y015181D02*
X008984Y015181D01*
X009103Y015062D02*
X009596Y015062D01*
X009591Y014944D02*
X009152Y014944D01*
X009170Y014825D02*
X009591Y014825D01*
X009591Y014707D02*
X009162Y014707D01*
X009113Y014588D02*
X009591Y014588D01*
X008148Y013166D02*
X003214Y013166D01*
X003214Y013047D02*
X008039Y013047D01*
X007990Y012928D02*
X003214Y012928D01*
X003214Y012810D02*
X007978Y012810D01*
X007992Y012691D02*
X003214Y012691D01*
X003214Y012573D02*
X008041Y012573D01*
X008154Y012454D02*
X003214Y012454D01*
X003214Y012336D02*
X003239Y012336D01*
X003509Y012336D02*
X003939Y012336D01*
X003768Y012217D02*
X003680Y012217D01*
X004209Y012336D02*
X004639Y012336D01*
X004468Y012217D02*
X004380Y012217D01*
X004909Y012336D02*
X005339Y012336D01*
X005168Y012217D02*
X005080Y012217D01*
X005609Y012336D02*
X006039Y012336D01*
X005868Y012217D02*
X005780Y012217D01*
X006309Y012336D02*
X006739Y012336D01*
X006568Y012217D02*
X006480Y012217D01*
X007009Y012336D02*
X007439Y012336D01*
X007268Y012217D02*
X007180Y012217D01*
X007709Y012336D02*
X008139Y012336D01*
X007968Y012217D02*
X007880Y012217D01*
X008409Y012336D02*
X008839Y012336D01*
X008668Y012217D02*
X008580Y012217D01*
X011867Y014232D02*
X012156Y014232D01*
X012183Y014114D02*
X012051Y014114D01*
X012131Y013995D02*
X012250Y013995D01*
X012302Y013877D02*
X012170Y013877D01*
X012170Y013758D02*
X012194Y013758D01*
X013179Y013403D02*
X013251Y013403D01*
X012474Y011506D02*
X012476Y011506D01*
X023074Y015963D02*
X026874Y015963D01*
X027274Y015563D01*
X027974Y015563D01*
X028174Y015763D01*
X032650Y015773D02*
X034172Y015773D01*
X034172Y015655D02*
X032650Y015655D01*
X032650Y015536D02*
X034172Y015536D01*
X034172Y015418D02*
X032650Y015418D01*
X032650Y015299D02*
X034172Y015299D01*
X034172Y015181D02*
X032650Y015181D01*
X032650Y015062D02*
X034172Y015062D01*
X034173Y014944D02*
X032650Y014944D01*
X032650Y014825D02*
X034173Y014825D01*
X034173Y014707D02*
X032650Y014707D01*
X032650Y014588D02*
X034173Y014588D01*
X034173Y014469D02*
X033902Y014469D01*
X034025Y014351D02*
X034173Y014351D01*
X034173Y014232D02*
X034144Y014232D01*
X032774Y014263D02*
X032410Y013899D01*
X032410Y013348D01*
X032410Y018927D01*
X032689Y019211D02*
X033150Y019211D01*
X033150Y019093D02*
X032773Y019093D01*
X032809Y018974D02*
X033150Y018974D01*
X033150Y018856D02*
X032809Y018856D01*
X032763Y018737D02*
X033150Y018737D01*
X033150Y018619D02*
X032665Y018619D01*
X032650Y018500D02*
X033150Y018500D01*
X033150Y018381D02*
X032650Y018381D01*
X032650Y018263D02*
X033150Y018263D01*
X033150Y018144D02*
X032650Y018144D01*
X032650Y018026D02*
X033150Y018026D01*
X033150Y017907D02*
X032650Y017907D01*
X032650Y017789D02*
X033150Y017789D01*
X033150Y017670D02*
X032650Y017670D01*
X032650Y017552D02*
X033150Y017552D01*
X033150Y017433D02*
X032650Y017433D01*
X032650Y017315D02*
X033131Y017315D01*
X033174Y017196D02*
X032650Y017196D01*
X032650Y017077D02*
X033297Y017077D01*
X033421Y016959D02*
X032650Y016959D01*
X032650Y016840D02*
X033544Y016840D01*
X033667Y016722D02*
X032650Y016722D01*
X032650Y016603D02*
X033791Y016603D01*
X033914Y016485D02*
X032650Y016485D01*
X032650Y016366D02*
X034037Y016366D01*
X034161Y016248D02*
X032650Y016248D01*
X032650Y016129D02*
X034172Y016129D01*
X034172Y016011D02*
X032650Y016011D01*
X032650Y015892D02*
X034172Y015892D01*
X033734Y012928D02*
X033670Y012928D01*
X033627Y012810D02*
X033734Y012810D01*
X031274Y009763D02*
X031562Y009475D01*
X031562Y008589D01*
X027867Y010202D02*
X027787Y010202D01*
X027787Y010320D02*
X027867Y010320D01*
X027867Y010439D02*
X027787Y010439D01*
X027787Y010558D02*
X027867Y010558D01*
X027867Y010676D02*
X027787Y010676D01*
X027787Y010795D02*
X027867Y010795D01*
X027867Y010913D02*
X027787Y010913D01*
X027787Y011032D02*
X027867Y011032D01*
X028234Y011032D02*
X028275Y011032D01*
X025582Y009135D02*
X025542Y009135D01*
X025542Y009016D02*
X025582Y009016D01*
X025582Y008898D02*
X025542Y008898D01*
X025542Y008779D02*
X025582Y008779D01*
X025582Y008661D02*
X025542Y008661D01*
X025542Y008542D02*
X025582Y008542D01*
X025582Y008424D02*
X025542Y008424D01*
X025542Y008305D02*
X025582Y008305D01*
X025582Y008187D02*
X025542Y008187D01*
X025542Y008068D02*
X025582Y008068D01*
X025345Y008068D02*
X024820Y008068D01*
X024936Y008187D02*
X025214Y008187D01*
X025160Y008305D02*
X024986Y008305D01*
X025002Y008424D02*
X025142Y008424D01*
X025142Y008542D02*
X025002Y008542D01*
X025002Y008661D02*
X025142Y008661D01*
X025142Y008779D02*
X025002Y008779D01*
X024975Y008898D02*
X025171Y008898D01*
X025240Y009016D02*
X024913Y009016D01*
X024770Y009135D02*
X025407Y009135D01*
X015378Y002615D02*
X008356Y002615D01*
X027474Y018963D02*
X027674Y018863D01*
X032438Y019330D02*
X033150Y019330D01*
X033150Y019448D02*
X032586Y019448D01*
X032614Y019567D02*
X033150Y019567D01*
X033150Y019685D02*
X032590Y019685D01*
X032635Y019804D02*
X033150Y019804D01*
X033150Y019922D02*
X032754Y019922D01*
X032805Y020041D02*
X033150Y020041D01*
X033150Y020160D02*
X032830Y020160D01*
X032830Y020278D02*
X033150Y020278D01*
D27*
X030674Y018063D02*
X029684Y018188D01*
X027674Y018063D02*
X020674Y018063D01*
X020574Y017963D01*
X020574Y017563D01*
X021174Y017063D02*
X027674Y017163D01*
X031674Y016963D02*
X031674Y013084D01*
X032410Y012348D01*
X027827Y012408D02*
X025929Y012408D01*
X023474Y015463D01*
X021074Y015463D01*
X020274Y014063D01*
X020274Y013463D01*
X020174Y013363D01*
X020174Y011963D01*
X019574Y011363D01*
X019574Y009863D01*
X018574Y008863D01*
X018574Y004032D01*
X020258Y002348D01*
X020562Y005589D02*
X020574Y005601D01*
X020574Y006263D01*
X021074Y006763D01*
X021074Y009163D01*
X021174Y009263D01*
X021174Y012963D01*
X020574Y013163D02*
X020574Y009863D01*
X020074Y009363D01*
X020074Y006663D01*
X019674Y006263D01*
X019674Y005701D01*
X019562Y005589D01*
X016874Y008963D02*
X017574Y009663D01*
X017574Y011163D01*
X016774Y011963D01*
X015574Y011963D01*
X014974Y011963D01*
X014574Y011963D01*
X014574Y011958D01*
X012819Y011958D01*
X011574Y012813D02*
X012424Y013663D01*
X013474Y013763D01*
X012574Y014263D02*
X012574Y015063D01*
X012574Y014963D01*
X012974Y014963D01*
X012974Y015963D01*
X012404Y015963D01*
X012404Y016843D01*
X012404Y018393D01*
X011574Y017813D02*
X010974Y017813D01*
X010974Y018063D01*
X010974Y015949D01*
X010274Y015949D01*
X010274Y015763D01*
X010274Y015363D01*
X010200Y015437D01*
X010095Y015437D01*
X010126Y014668D01*
X010274Y015363D02*
X012574Y015363D01*
X012574Y015063D01*
X012974Y014963D02*
X014474Y014963D01*
X017374Y014663D02*
X017374Y012563D01*
X016774Y011963D01*
X014574Y011963D02*
X014374Y011963D01*
X014474Y009963D02*
X013074Y009963D01*
X012974Y009863D01*
X019474Y012263D02*
X019674Y012463D01*
X019774Y013363D01*
X020574Y013163D02*
X021374Y013963D01*
X022174Y013963D01*
X020274Y018963D02*
X019670Y018963D01*
X019670Y020378D01*
X020670Y020378D02*
X020674Y020378D01*
X020674Y020363D01*
X020674Y019463D01*
X021974Y019463D01*
X013324Y020563D02*
X012174Y020563D01*
X012174Y020263D01*
X008574Y020263D01*
X008574Y019813D01*
X007874Y019482D02*
X007774Y019363D01*
X007874Y019482D02*
X007124Y019482D01*
X007124Y020363D02*
X007774Y020363D01*
X007124Y020363D02*
X007124Y020644D01*
X008574Y020813D02*
X010674Y020813D01*
X010674Y021263D01*
X013324Y021263D01*
X013324Y021563D01*
X010974Y018263D02*
X008574Y018263D01*
X008574Y017813D01*
X007774Y017563D02*
X007774Y017263D01*
X010095Y017263D01*
X010095Y017485D01*
X010974Y018063D02*
X010974Y018263D01*
X010274Y015949D02*
X010095Y015949D01*
X007774Y017563D02*
X005274Y017563D01*
X005274Y017163D01*
X005274Y017563D02*
X004374Y017563D01*
X004374Y019553D01*
X003524Y019553D01*
X004174Y020673D02*
X004774Y020063D01*
X004174Y020673D02*
X003524Y020673D01*
X031674Y016963D02*
X031874Y017163D01*
D28*
X031874Y017163D03*
X030674Y018063D03*
X030574Y016263D03*
X027674Y016263D03*
X027674Y017163D03*
X027674Y018063D03*
X027674Y018863D03*
X027674Y019563D03*
X023074Y015963D03*
X023074Y014963D03*
X022174Y013963D03*
X021174Y012963D03*
X019474Y012263D03*
X019574Y011363D03*
X018874Y010463D03*
X015574Y010963D03*
X015574Y009963D03*
X015574Y008963D03*
X015574Y007963D03*
X019474Y004463D03*
X021874Y006463D03*
X022074Y007763D03*
X015574Y012963D03*
X015574Y013963D03*
X015574Y014963D03*
X015574Y015963D03*
X015574Y016963D03*
X015574Y017963D03*
X017774Y015963D03*
X020574Y017563D03*
X021174Y017063D03*
X020974Y016363D03*
X019174Y013363D03*
X013474Y013763D03*
X012574Y014263D03*
X007774Y019363D03*
X007774Y020363D03*
D29*
X004774Y020063D03*
X004774Y021963D03*
X005274Y017163D03*
X006274Y016963D03*
X007614Y013978D03*
X006274Y012963D03*
X006074Y010963D03*
X006574Y010963D03*
X007074Y010963D03*
X007574Y010963D03*
X008074Y010963D03*
X008574Y010963D03*
X009074Y010963D03*
X009574Y010963D03*
X010074Y010963D03*
X010574Y010963D03*
X011074Y010963D03*
X011574Y010963D03*
X011574Y010463D03*
X011074Y010463D03*
X010574Y010463D03*
X010074Y010463D03*
X009574Y010463D03*
X009074Y010463D03*
X009074Y009963D03*
X009574Y009963D03*
X010074Y009963D03*
X010574Y009963D03*
X011074Y009963D03*
X011574Y009963D03*
X011574Y009463D03*
X011074Y009463D03*
X010574Y009463D03*
X010074Y009463D03*
X009574Y009463D03*
X009074Y009463D03*
X006574Y009563D03*
X006074Y009563D03*
X005574Y009563D03*
X005074Y009563D03*
X004574Y009563D03*
X004074Y009563D03*
X003574Y009563D03*
X003574Y008563D03*
X004074Y008563D03*
X004574Y008563D03*
X005074Y008563D03*
X005574Y008563D03*
X005574Y008063D03*
X005074Y008063D03*
X004574Y008063D03*
X004074Y008063D03*
X003574Y008063D03*
X003574Y007563D03*
X004074Y007563D03*
X004574Y007563D03*
X005074Y007563D03*
X005574Y007563D03*
X005574Y010963D03*
X005074Y010963D03*
X004574Y010963D03*
X004074Y010963D03*
X003574Y010963D03*
X010114Y012678D03*
X013774Y011963D03*
X014374Y011963D03*
X014974Y011963D03*
X015574Y011963D03*
X012859Y009923D03*
X012854Y009013D03*
X011874Y006963D03*
X011874Y005163D03*
X014424Y006763D03*
X017574Y001563D03*
X013274Y001063D03*
X010074Y001063D03*
X007274Y001063D03*
X004574Y001063D03*
X013574Y016863D03*
X013574Y018363D03*
X019174Y016963D03*
X024374Y021863D03*
X032410Y018927D03*
X033174Y016063D03*
X033274Y009563D03*
X033074Y003263D03*
D30*
X032274Y002363D02*
X032274Y001363D01*
X031274Y001363D02*
X031274Y002363D01*
X031230Y002368D02*
X031221Y002377D01*
X031221Y002987D01*
X031562Y003328D01*
X031562Y005589D01*
X032221Y004924D02*
X032221Y002377D01*
X032230Y002368D01*
X030562Y003265D02*
X030284Y002987D01*
X030284Y002422D01*
X030230Y002368D01*
X030274Y002363D02*
X030274Y001363D01*
X029274Y001363D02*
X029274Y002363D01*
X029230Y002368D02*
X029285Y002422D01*
X029285Y003019D01*
X029562Y003296D01*
X029562Y005589D01*
X030562Y005589D02*
X030562Y003265D01*
X028274Y002363D02*
X028274Y001363D01*
X027274Y001363D02*
X027274Y002363D01*
X027254Y002392D02*
X027230Y002368D01*
X027254Y002392D02*
X027254Y002831D01*
X027562Y003139D01*
X027562Y005589D01*
X028504Y005530D02*
X028504Y005080D01*
X028230Y004807D01*
X028230Y002368D01*
X025274Y002363D02*
X025274Y001363D01*
X025258Y002348D02*
X025258Y003679D01*
X024974Y003963D01*
X019674Y003963D01*
X019474Y004463D01*
X020274Y002363D02*
X020274Y001363D01*
X021274Y001363D02*
X021274Y002363D01*
X022274Y002363D02*
X022274Y001363D01*
X028504Y005530D02*
X028562Y005589D01*
X032221Y004924D02*
X032562Y005265D01*
X032562Y005589D01*
X030562Y008589D02*
X030472Y008679D01*
X030472Y009423D01*
X029684Y010110D01*
X029684Y018188D01*
X029684Y018663D01*
X031274Y019463D01*
X031274Y020378D01*
X031350Y020378D01*
X031374Y020363D02*
X031374Y021463D01*
X030374Y021463D02*
X030374Y020363D01*
X030374Y020378D01*
X030350Y020378D01*
X030374Y020363D02*
X030374Y019563D01*
X029303Y019563D01*
X029303Y019451D01*
X029328Y009791D01*
X029562Y009582D01*
X029562Y008589D01*
X028628Y008655D02*
X028562Y008589D01*
X028628Y008655D02*
X028628Y009454D01*
X028922Y009798D01*
X028922Y019894D01*
X029350Y020372D01*
X029350Y020378D01*
X029374Y020363D02*
X029374Y021463D01*
X028374Y021363D02*
X028374Y020363D01*
X028350Y020378D02*
X028341Y020378D01*
X028341Y020319D01*
X028535Y019626D01*
X028535Y010110D01*
X027562Y009138D01*
X027562Y008589D01*
X014474Y008918D02*
X012860Y008918D01*
X014474Y008918D02*
X014474Y008963D01*
X016674Y020363D02*
X016674Y020863D01*
X016374Y020863D01*
X016374Y021363D01*
X016874Y021063D02*
X017189Y020698D01*
X017774Y021063D01*
X018174Y020663D01*
X018374Y020863D02*
X018674Y020863D01*
X018674Y020363D01*
X019674Y020363D02*
X019674Y020863D01*
X019374Y020863D01*
X019374Y021363D01*
X020374Y021363D02*
X020374Y020863D01*
X020674Y020863D01*
X020674Y020363D01*
X021374Y020763D02*
X021674Y020763D01*
X021674Y020263D01*
X021374Y020763D02*
X021374Y021363D01*
X022274Y021363D02*
X022274Y020763D01*
X022674Y020763D01*
X022674Y020363D01*
X023374Y020863D02*
X023674Y020863D01*
X023674Y020363D01*
X023374Y020863D02*
X023374Y021363D01*
X025374Y021463D02*
X025374Y020363D01*
X026374Y020363D02*
X026374Y021363D01*
X027374Y021363D02*
X027374Y020263D01*
X028374Y021363D02*
X028274Y021463D01*
X032374Y021363D02*
X032374Y020363D01*
X018374Y020863D02*
X018374Y021363D01*
D31*
X024274Y007163D03*
X033374Y004263D03*
M02*
