G75*
G70*
%OFA0B0*%
%FSLAX24Y24*%
%IPPOS*%
%LPD*%
%AMOC8*
5,1,8,0,0,1.08239X$1,22.5*
%
%ADD10C,0.0000*%
%ADD11C,0.0040*%
D10*
X013705Y006763D02*
X014243Y006763D01*
X013974Y006494D02*
X013974Y007032D01*
X012860Y009200D02*
X012860Y009737D01*
X012592Y009469D02*
X013129Y009469D01*
X010126Y013848D02*
X010126Y014385D01*
X010394Y014116D02*
X009857Y014116D01*
X010095Y016617D02*
X010095Y017417D01*
X009695Y017017D02*
X010495Y017017D01*
X012695Y016843D02*
X013233Y016843D01*
X012964Y016574D02*
X012964Y017112D01*
X012964Y018124D02*
X012964Y018662D01*
X012695Y018393D02*
X013233Y018393D01*
X007393Y018813D02*
X006855Y018813D01*
X007124Y018544D02*
X007124Y019082D01*
X007124Y021044D02*
X007124Y021582D01*
X006855Y021313D02*
X007393Y021313D01*
X003793Y020213D02*
X003255Y020213D01*
X003524Y019944D02*
X003524Y020482D01*
X027406Y007095D02*
X027944Y007095D01*
X027675Y006827D02*
X027675Y007364D01*
D11*
X013733Y005810D02*
X013426Y006116D01*
X013426Y006193D01*
X013733Y006193D01*
X014040Y006193D02*
X014040Y005733D01*
X013887Y005733D02*
X014194Y005733D01*
X014347Y005810D02*
X014424Y005733D01*
X014577Y005733D01*
X014654Y005810D01*
X014654Y006116D01*
X014577Y006193D01*
X014424Y006193D01*
X014347Y006116D01*
X014194Y006040D02*
X014040Y006193D01*
X013733Y005810D02*
X013733Y005733D01*
X025464Y006900D02*
X025771Y006900D01*
X025618Y006900D02*
X025618Y007360D01*
X025771Y007207D01*
X026078Y007360D02*
X026078Y006900D01*
X025925Y006900D02*
X026232Y006900D01*
X026385Y006976D02*
X026462Y006900D01*
X026615Y006900D01*
X026692Y006976D01*
X026692Y007283D01*
X026615Y007360D01*
X026462Y007360D01*
X026385Y007283D01*
X026232Y007207D02*
X026078Y007360D01*
X013315Y015913D02*
X013315Y016373D01*
X013085Y016373D01*
X013008Y016296D01*
X013008Y016143D01*
X013085Y016066D01*
X013315Y016066D01*
X013161Y016066D02*
X013008Y015913D01*
X012854Y015990D02*
X012778Y015913D01*
X012624Y015913D01*
X012548Y015990D01*
X012548Y016066D01*
X012624Y016143D01*
X012854Y016143D01*
X012854Y015990D01*
X012854Y016143D02*
X012701Y016296D01*
X012548Y016373D01*
X012578Y017363D02*
X012654Y017440D01*
X012578Y017363D02*
X012424Y017363D01*
X012348Y017440D01*
X012348Y017516D01*
X012424Y017593D01*
X012501Y017593D01*
X012424Y017593D02*
X012348Y017670D01*
X012348Y017746D01*
X012424Y017823D01*
X012578Y017823D01*
X012654Y017746D01*
X012961Y017823D02*
X012961Y017363D01*
X012808Y017363D02*
X013115Y017363D01*
X013268Y017363D02*
X013422Y017516D01*
X013345Y017516D02*
X013575Y017516D01*
X013575Y017363D02*
X013575Y017823D01*
X013345Y017823D01*
X013268Y017746D01*
X013268Y017593D01*
X013345Y017516D01*
X013115Y017670D02*
X012961Y017823D01*
X008054Y017912D02*
X008054Y018142D01*
X007978Y018219D01*
X007671Y018219D01*
X007594Y018142D01*
X007594Y017912D01*
X008054Y017912D01*
X007978Y018372D02*
X008054Y018449D01*
X008054Y018603D01*
X007978Y018679D01*
X007901Y018679D01*
X007824Y018603D01*
X007747Y018679D01*
X007671Y018679D01*
X007594Y018603D01*
X007594Y018449D01*
X007671Y018372D01*
X007824Y018526D02*
X007824Y018603D01*
X004075Y018783D02*
X004075Y019243D01*
X003845Y019243D01*
X003768Y019166D01*
X003768Y019013D01*
X003845Y018936D01*
X004075Y018936D01*
X003921Y018936D02*
X003768Y018783D01*
X003614Y018860D02*
X003538Y018783D01*
X003384Y018783D01*
X003308Y018860D01*
X003308Y019013D01*
X003384Y019090D01*
X003461Y019090D01*
X003614Y019013D01*
X003614Y019243D01*
X003308Y019243D01*
X007594Y021433D02*
X007594Y021663D01*
X007671Y021740D01*
X007978Y021740D01*
X008054Y021663D01*
X008054Y021433D01*
X007594Y021433D01*
X007594Y021893D02*
X007901Y022200D01*
X007978Y022200D01*
X008054Y022123D01*
X008054Y021970D01*
X007978Y021893D01*
X007594Y021893D02*
X007594Y022200D01*
M02*
