G75*
G70*
%OFA0B0*%
%FSLAX24Y24*%
%IPPOS*%
%LPD*%
%AMOC8*
5,1,8,0,0,1.08239X$1,22.5*
%
%ADD10C,0.0080*%
%ADD11C,0.0090*%
%ADD12C,0.0040*%
%ADD13C,0.0060*%
%ADD14C,0.0070*%
%ADD15C,0.0010*%
%ADD16C,0.0030*%
%ADD17C,0.0000*%
%ADD18C,0.0050*%
D10*
X021886Y003262D02*
X021952Y003196D01*
X022086Y003196D01*
X022152Y003262D01*
X022152Y003396D01*
X022086Y003463D01*
X022019Y003463D01*
X021886Y003396D01*
X021886Y003596D01*
X022152Y003596D01*
X022327Y003596D02*
X022327Y003329D01*
X022461Y003196D01*
X022594Y003329D01*
X022594Y003596D01*
X023211Y003529D02*
X023211Y003262D01*
X023278Y003196D01*
X023412Y003196D01*
X023478Y003262D01*
X023478Y003396D01*
X023345Y003396D01*
X023478Y003529D02*
X023412Y003596D01*
X023278Y003596D01*
X023211Y003529D01*
X023653Y003463D02*
X023854Y003463D01*
X023920Y003396D01*
X023920Y003196D01*
X024095Y003262D02*
X024095Y003396D01*
X024162Y003463D01*
X024362Y003463D01*
X024362Y003596D02*
X024362Y003196D01*
X024162Y003196D01*
X024095Y003262D01*
X023653Y003196D02*
X023653Y003463D01*
X024979Y003463D02*
X025046Y003396D01*
X025246Y003396D01*
X025246Y003529D02*
X025246Y003262D01*
X025179Y003196D01*
X025046Y003196D01*
X024979Y003262D01*
X024979Y003463D02*
X024979Y003529D01*
X025046Y003596D01*
X025179Y003596D01*
X025246Y003529D01*
X025421Y003596D02*
X025421Y003329D01*
X025555Y003196D01*
X025688Y003329D01*
X025688Y003596D01*
X028438Y009674D02*
X028438Y010094D01*
X028648Y010094D01*
X028718Y010024D01*
X028718Y009884D01*
X028648Y009814D01*
X028438Y009814D01*
X028578Y009814D02*
X028718Y009674D01*
X028898Y009674D02*
X029178Y009674D01*
X029358Y009744D02*
X029428Y009674D01*
X029569Y009674D01*
X029639Y009744D01*
X029639Y009814D01*
X029569Y009884D01*
X029428Y009884D01*
X029358Y009954D01*
X029358Y010024D01*
X029428Y010094D01*
X029569Y010094D01*
X029639Y010024D01*
X029819Y010094D02*
X029819Y009674D01*
X030099Y009674D01*
X029959Y009884D02*
X029819Y009884D01*
X029819Y010094D02*
X030099Y010094D01*
X030279Y010094D02*
X030559Y010094D01*
X030419Y010094D02*
X030419Y009674D01*
X029178Y010094D02*
X028898Y010094D01*
X028898Y009674D01*
X028898Y009884D02*
X029038Y009884D01*
X032187Y010102D02*
X032327Y010102D01*
X032257Y010102D02*
X032257Y010523D01*
X032187Y010523D02*
X032327Y010523D01*
X032494Y010453D02*
X032494Y010172D01*
X032564Y010102D01*
X032704Y010102D01*
X032774Y010172D01*
X032955Y010172D02*
X033025Y010102D01*
X033165Y010102D01*
X033235Y010172D01*
X033235Y010243D01*
X033165Y010313D01*
X033025Y010313D01*
X032955Y010383D01*
X032955Y010453D01*
X033025Y010523D01*
X033165Y010523D01*
X033235Y010453D01*
X033415Y010523D02*
X033415Y010102D01*
X033415Y010243D02*
X033625Y010243D01*
X033695Y010313D01*
X033695Y010453D01*
X033625Y010523D01*
X033415Y010523D01*
X032774Y010453D02*
X032704Y010523D01*
X032564Y010523D01*
X032494Y010453D01*
X030837Y015021D02*
X030697Y015161D01*
X030767Y015161D02*
X030557Y015161D01*
X030557Y015021D02*
X030557Y015441D01*
X030767Y015441D01*
X030837Y015371D01*
X030837Y015231D01*
X030767Y015161D01*
X030376Y015021D02*
X030376Y015441D01*
X030096Y015441D02*
X030096Y015021D01*
X030236Y015161D01*
X030376Y015021D01*
X029916Y015231D02*
X029916Y015371D01*
X029846Y015441D01*
X029636Y015441D01*
X029636Y015021D01*
X029636Y015161D02*
X029846Y015161D01*
X029916Y015231D01*
X018781Y016974D02*
X018711Y016904D01*
X018571Y016904D01*
X018501Y016974D01*
X018320Y016904D02*
X018040Y016904D01*
X018180Y016904D02*
X018180Y017324D01*
X018040Y017184D01*
X018501Y017254D02*
X018571Y017324D01*
X018711Y017324D01*
X018781Y017254D01*
X018781Y017184D01*
X018711Y017114D01*
X018781Y017044D01*
X018781Y016974D01*
X018711Y017114D02*
X018641Y017114D01*
X016908Y019033D02*
X016628Y019033D01*
X016488Y019173D01*
X016628Y019313D01*
X016908Y019313D01*
X016908Y019493D02*
X016488Y019493D01*
X016488Y019703D01*
X016558Y019773D01*
X016698Y019773D01*
X016768Y019703D01*
X016768Y019493D01*
X016768Y019633D02*
X016908Y019773D01*
X016908Y019953D02*
X016908Y020234D01*
X016908Y020414D02*
X016488Y020414D01*
X016488Y020694D01*
X016698Y020554D02*
X016698Y020414D01*
X016488Y020234D02*
X016488Y019953D01*
X016908Y019953D01*
X016698Y019953D02*
X016698Y020093D01*
X016698Y019313D02*
X016698Y019033D01*
D11*
X017396Y019687D02*
X017473Y019610D01*
X017781Y019610D01*
X017858Y019687D01*
X017858Y019841D01*
X017781Y019918D01*
X017627Y019918D01*
X017627Y019764D01*
X017473Y019918D02*
X017396Y019841D01*
X017396Y019687D01*
X017396Y020118D02*
X017858Y020425D01*
X017396Y020425D01*
X017396Y020625D02*
X017396Y020856D01*
X017473Y020933D01*
X017781Y020933D01*
X017858Y020856D01*
X017858Y020625D01*
X017396Y020625D01*
X017396Y020118D02*
X017858Y020118D01*
X018489Y019960D02*
X018643Y020114D01*
X018643Y019652D01*
X018489Y019652D02*
X018797Y019652D01*
X019504Y019652D02*
X019812Y019652D01*
X019658Y019652D02*
X019658Y020114D01*
X019504Y019960D01*
X019504Y020277D02*
X019812Y020585D01*
X019812Y020662D01*
X019735Y020738D01*
X019581Y020738D01*
X019504Y020662D01*
X019504Y020277D02*
X019812Y020277D01*
X020519Y020277D02*
X020827Y020277D01*
X020673Y020277D02*
X020673Y020738D01*
X020519Y020585D01*
X020673Y020114D02*
X020673Y019652D01*
X020519Y019652D02*
X020827Y019652D01*
X020519Y019960D02*
X020673Y020114D01*
X021534Y019960D02*
X021688Y020114D01*
X021688Y019652D01*
X021534Y019652D02*
X021842Y019652D01*
X021765Y020277D02*
X021611Y020277D01*
X021534Y020354D01*
X021842Y020662D01*
X021842Y020354D01*
X021765Y020277D01*
X021534Y020354D02*
X021534Y020662D01*
X021611Y020738D01*
X021765Y020738D01*
X021842Y020662D01*
X022549Y020662D02*
X022549Y020585D01*
X022626Y020508D01*
X022857Y020508D01*
X022857Y020662D02*
X022780Y020738D01*
X022626Y020738D01*
X022549Y020662D01*
X022857Y020662D02*
X022857Y020354D01*
X022780Y020277D01*
X022626Y020277D01*
X022549Y020354D01*
X023564Y020354D02*
X023564Y020431D01*
X023641Y020508D01*
X023795Y020508D01*
X023872Y020431D01*
X023872Y020354D01*
X023795Y020277D01*
X023641Y020277D01*
X023564Y020354D01*
X023641Y020508D02*
X023564Y020585D01*
X023564Y020662D01*
X023641Y020738D01*
X023795Y020738D01*
X023872Y020662D01*
X023872Y020585D01*
X023795Y020508D01*
X023978Y019659D02*
X023978Y019583D01*
X023978Y019429D02*
X023978Y019121D01*
X023901Y019121D02*
X024055Y019121D01*
X024240Y019198D02*
X024317Y019121D01*
X024547Y019121D01*
X024547Y019044D02*
X024547Y019429D01*
X024317Y019429D01*
X024240Y019352D01*
X024240Y019198D01*
X024394Y018967D02*
X024471Y018967D01*
X024547Y019044D01*
X024747Y019121D02*
X024901Y019121D01*
X024824Y019121D02*
X024824Y019429D01*
X024747Y019429D01*
X024824Y019583D02*
X024824Y019659D01*
X025086Y019429D02*
X025239Y019429D01*
X025163Y019506D02*
X025163Y019198D01*
X025239Y019121D01*
X025424Y019198D02*
X025501Y019275D01*
X025732Y019275D01*
X025732Y019352D02*
X025732Y019121D01*
X025501Y019121D01*
X025424Y019198D01*
X025501Y019429D02*
X025655Y019429D01*
X025732Y019352D01*
X025931Y019583D02*
X026008Y019583D01*
X026008Y019121D01*
X025931Y019121D02*
X026085Y019121D01*
X026204Y020214D02*
X026358Y020214D01*
X026435Y020291D01*
X026435Y020368D01*
X026358Y020445D01*
X026127Y020445D01*
X026127Y020291D01*
X026204Y020214D01*
X026127Y020445D02*
X026281Y020599D01*
X026435Y020676D01*
X027142Y020676D02*
X027142Y020445D01*
X027296Y020522D01*
X027373Y020522D01*
X027450Y020445D01*
X027450Y020291D01*
X027373Y020214D01*
X027219Y020214D01*
X027142Y020291D01*
X027142Y020676D02*
X027450Y020676D01*
X028157Y020445D02*
X028465Y020445D01*
X028388Y020214D02*
X028388Y020676D01*
X028157Y020445D01*
X029172Y020291D02*
X029249Y020214D01*
X029403Y020214D01*
X029480Y020291D01*
X029480Y020368D01*
X029403Y020445D01*
X029326Y020445D01*
X029403Y020445D02*
X029480Y020522D01*
X029480Y020599D01*
X029403Y020676D01*
X029249Y020676D01*
X029172Y020599D01*
X030187Y020599D02*
X030264Y020676D01*
X030418Y020676D01*
X030495Y020599D01*
X030495Y020522D01*
X030187Y020214D01*
X030495Y020214D01*
X031202Y020214D02*
X031510Y020214D01*
X031356Y020214D02*
X031356Y020676D01*
X031202Y020522D01*
X032217Y020599D02*
X032217Y020291D01*
X032525Y020599D01*
X032525Y020291D01*
X032448Y020214D01*
X032294Y020214D01*
X032217Y020291D01*
X032217Y020599D02*
X032294Y020676D01*
X032448Y020676D01*
X032525Y020599D01*
X025420Y020599D02*
X025112Y020291D01*
X025112Y020214D01*
X025420Y020599D02*
X025420Y020676D01*
X025112Y020676D01*
X023702Y019506D02*
X023625Y019583D01*
X023394Y019583D01*
X023394Y019121D01*
X023625Y019121D01*
X023702Y019198D01*
X023702Y019506D01*
X023901Y019429D02*
X023978Y019429D01*
X018797Y020354D02*
X018720Y020277D01*
X018566Y020277D01*
X018489Y020354D01*
X018643Y020508D02*
X018720Y020508D01*
X018797Y020431D01*
X018797Y020354D01*
X018720Y020508D02*
X018797Y020585D01*
X018797Y020662D01*
X018720Y020738D01*
X018566Y020738D01*
X018489Y020662D01*
X027932Y004266D02*
X028085Y004112D01*
X028085Y003804D01*
X028285Y003804D02*
X028285Y004112D01*
X028516Y004112D01*
X028593Y004035D01*
X028593Y003804D01*
X028793Y003881D02*
X028870Y003958D01*
X029100Y003958D01*
X029100Y004035D02*
X029100Y003804D01*
X028870Y003804D01*
X028793Y003881D01*
X028870Y004112D02*
X029024Y004112D01*
X029100Y004035D01*
X029300Y004266D02*
X029377Y004266D01*
X029377Y003804D01*
X029300Y003804D02*
X029454Y003804D01*
X029639Y003881D02*
X029639Y004035D01*
X029716Y004112D01*
X029869Y004112D01*
X029946Y004035D01*
X029946Y003881D01*
X029869Y003804D01*
X029716Y003804D01*
X029639Y003881D01*
X029335Y003538D02*
X029258Y003615D01*
X029104Y003615D01*
X029027Y003538D01*
X029335Y003538D02*
X029335Y003461D01*
X029027Y003154D01*
X029335Y003154D01*
X030042Y003231D02*
X030119Y003154D01*
X030273Y003154D01*
X030350Y003231D01*
X030350Y003308D01*
X030273Y003384D01*
X030196Y003384D01*
X030273Y003384D02*
X030350Y003461D01*
X030350Y003538D01*
X030273Y003615D01*
X030119Y003615D01*
X030042Y003538D01*
X030300Y003650D02*
X030377Y003650D01*
X030454Y003727D01*
X030454Y004112D01*
X030223Y004112D01*
X030146Y004035D01*
X030146Y003881D01*
X030223Y003804D01*
X030454Y003804D01*
X031161Y003804D02*
X031315Y003804D01*
X031238Y003804D02*
X031238Y004112D01*
X031161Y004112D01*
X031238Y004266D02*
X031238Y004343D01*
X031500Y004112D02*
X031730Y004112D01*
X031807Y004035D01*
X031807Y003804D01*
X031500Y003804D02*
X031500Y004112D01*
X031288Y003615D02*
X031057Y003384D01*
X031365Y003384D01*
X031288Y003154D02*
X031288Y003615D01*
X032072Y003615D02*
X032072Y003384D01*
X032226Y003461D01*
X032303Y003461D01*
X032380Y003384D01*
X032380Y003231D01*
X032303Y003154D01*
X032149Y003154D01*
X032072Y003231D01*
X032072Y003615D02*
X032380Y003615D01*
X028319Y003154D02*
X028012Y003154D01*
X028166Y003154D02*
X028166Y003615D01*
X028012Y003461D01*
X027778Y003804D02*
X027778Y004112D01*
X027932Y004266D01*
X027778Y004035D02*
X028085Y004035D01*
X027304Y003538D02*
X026997Y003231D01*
X027074Y003154D01*
X027228Y003154D01*
X027304Y003231D01*
X027304Y003538D01*
X027228Y003615D01*
X027074Y003615D01*
X026997Y003538D01*
X026997Y003231D01*
D12*
X027193Y004391D02*
X027347Y004391D01*
X027423Y004468D01*
X027577Y004468D02*
X027654Y004391D01*
X027807Y004391D01*
X027884Y004468D01*
X027884Y004775D01*
X027807Y004852D01*
X027654Y004852D01*
X027577Y004775D01*
X027577Y004698D01*
X027654Y004621D01*
X027884Y004621D01*
X027423Y004775D02*
X027347Y004852D01*
X027193Y004852D01*
X027116Y004775D01*
X027116Y004468D01*
X027193Y004391D01*
X023818Y004553D02*
X023511Y004553D01*
X023664Y004553D02*
X023664Y005013D01*
X023511Y004860D01*
X023357Y004937D02*
X023281Y005013D01*
X023127Y005013D01*
X023051Y004937D01*
X023051Y004630D01*
X023127Y004553D01*
X023281Y004553D01*
X023357Y004630D01*
X023148Y009967D02*
X022841Y009967D01*
X022764Y010044D01*
X022764Y010198D01*
X022841Y010274D01*
X023148Y010274D01*
X023224Y010198D01*
X023224Y010044D01*
X023148Y009967D01*
X023071Y010121D02*
X023224Y010274D01*
X023224Y010428D02*
X023224Y010735D01*
X023224Y010581D02*
X022764Y010581D01*
X022917Y010428D01*
X026513Y010425D02*
X026590Y010348D01*
X026897Y010348D01*
X026974Y010425D01*
X026974Y010578D01*
X026897Y010655D01*
X026974Y010809D02*
X026667Y011116D01*
X026590Y011116D01*
X026513Y011039D01*
X026513Y010885D01*
X026590Y010809D01*
X026590Y010655D02*
X026513Y010578D01*
X026513Y010425D01*
X026974Y010809D02*
X026974Y011116D01*
X026916Y012224D02*
X026610Y012224D01*
X026533Y012301D01*
X026533Y012455D01*
X026610Y012531D01*
X026610Y012685D02*
X026533Y012761D01*
X026533Y012915D01*
X026610Y012992D01*
X026686Y012992D01*
X026763Y012915D01*
X026840Y012992D01*
X026916Y012992D01*
X026993Y012915D01*
X026993Y012761D01*
X026916Y012685D01*
X026916Y012531D02*
X026993Y012455D01*
X026993Y012301D01*
X026916Y012224D01*
X026763Y012838D02*
X026763Y012915D01*
X026907Y013361D02*
X026754Y013514D01*
X026830Y013514D02*
X026600Y013514D01*
X026600Y013361D02*
X026600Y013821D01*
X026830Y013821D01*
X026907Y013744D01*
X026907Y013591D01*
X026830Y013514D01*
X027060Y013361D02*
X027367Y013361D01*
X027214Y013361D02*
X027214Y013821D01*
X027060Y013668D01*
X027107Y014369D02*
X027030Y014446D01*
X027030Y014522D01*
X027107Y014599D01*
X027261Y014599D01*
X027337Y014522D01*
X027337Y014446D01*
X027261Y014369D01*
X027107Y014369D01*
X026877Y014369D02*
X026723Y014522D01*
X026800Y014522D02*
X026570Y014522D01*
X026570Y014369D02*
X026570Y014829D01*
X026800Y014829D01*
X026877Y014753D01*
X026877Y014599D01*
X026800Y014522D01*
X027030Y014676D02*
X027030Y014753D01*
X027107Y014829D01*
X027261Y014829D01*
X027337Y014753D01*
X027337Y014676D01*
X027261Y014599D01*
X027107Y014599D02*
X027030Y014676D01*
X031939Y014201D02*
X032451Y014201D01*
X032451Y014031D02*
X032451Y014372D01*
X032110Y014031D02*
X031939Y014201D01*
X021405Y014074D02*
X021098Y014074D01*
X020945Y014074D02*
X020638Y014074D01*
X020791Y014074D02*
X020791Y014534D01*
X020638Y014380D01*
X020484Y014304D02*
X020408Y014227D01*
X020178Y014227D01*
X020331Y014227D02*
X020484Y014074D01*
X020484Y014304D02*
X020484Y014457D01*
X020408Y014534D01*
X020178Y014534D01*
X020178Y014074D01*
X021098Y014380D02*
X021252Y014534D01*
X021252Y014074D01*
X021104Y015380D02*
X021410Y015687D01*
X021410Y015763D01*
X021334Y015840D01*
X021180Y015840D01*
X021104Y015763D01*
X020797Y015840D02*
X020797Y015380D01*
X020950Y015380D02*
X020643Y015380D01*
X020490Y015380D02*
X020336Y015533D01*
X020413Y015533D02*
X020183Y015533D01*
X020183Y015380D02*
X020183Y015840D01*
X020413Y015840D01*
X020490Y015763D01*
X020490Y015610D01*
X020413Y015533D01*
X020643Y015687D02*
X020797Y015840D01*
X021104Y015380D02*
X021410Y015380D01*
X019949Y016436D02*
X019489Y016436D01*
X019489Y016666D01*
X019565Y016743D01*
X019719Y016743D01*
X019795Y016666D01*
X019795Y016436D01*
X019795Y016589D02*
X019949Y016743D01*
X019949Y016896D02*
X019872Y016896D01*
X019565Y017203D01*
X019489Y017203D01*
X019489Y016896D01*
X018024Y012494D02*
X017718Y012494D01*
X018024Y012187D01*
X018101Y012264D01*
X018101Y012417D01*
X018024Y012494D01*
X017718Y012494D02*
X017641Y012417D01*
X017641Y012264D01*
X017718Y012187D01*
X018024Y012187D01*
X018101Y012034D02*
X018101Y011727D01*
X017794Y012034D01*
X017718Y012034D01*
X017641Y011957D01*
X017641Y011803D01*
X017718Y011727D01*
X017718Y011573D02*
X017641Y011497D01*
X017641Y011343D01*
X017718Y011266D01*
X018024Y011266D01*
X018101Y011343D01*
X018101Y011497D01*
X018024Y011573D01*
X013881Y010019D02*
X013881Y009866D01*
X013805Y009789D01*
X013498Y010096D01*
X013805Y010096D01*
X013881Y010019D01*
X013805Y009789D02*
X013498Y009789D01*
X013421Y009866D01*
X013421Y010019D01*
X013498Y010096D01*
X013881Y009635D02*
X013881Y009329D01*
X013881Y009482D02*
X013421Y009482D01*
X013574Y009329D01*
X013498Y009175D02*
X013421Y009098D01*
X013421Y008945D01*
X013498Y008868D01*
X013805Y008868D01*
X013881Y008945D01*
X013881Y009098D01*
X013805Y009175D01*
X012927Y007510D02*
X012851Y007510D01*
X012774Y007434D01*
X012774Y007204D01*
X012927Y007204D01*
X013004Y007280D01*
X013004Y007434D01*
X012927Y007510D01*
X012774Y007204D02*
X012620Y007357D01*
X012544Y007510D01*
X013004Y007050D02*
X013004Y006743D01*
X013004Y006897D02*
X012544Y006897D01*
X012697Y006743D01*
X012620Y006590D02*
X012544Y006513D01*
X012544Y006360D01*
X012620Y006283D01*
X012927Y006283D01*
X013004Y006360D01*
X013004Y006513D01*
X012927Y006590D01*
X012105Y006489D02*
X012105Y006028D01*
X011952Y006028D02*
X012259Y006028D01*
X011798Y006105D02*
X011798Y006412D01*
X011722Y006489D01*
X011492Y006489D01*
X011492Y006028D01*
X011722Y006028D01*
X011798Y006105D01*
X011952Y006335D02*
X012105Y006489D01*
X010362Y006580D02*
X010362Y006733D01*
X010362Y006656D02*
X009901Y006656D01*
X009901Y006580D02*
X009901Y006733D01*
X009978Y006887D02*
X010285Y006887D01*
X010362Y006963D01*
X010362Y007117D01*
X010285Y007193D01*
X010131Y007347D02*
X010131Y007654D01*
X009901Y007577D02*
X010131Y007347D01*
X009978Y007193D02*
X009901Y007117D01*
X009901Y006963D01*
X009978Y006887D01*
X009901Y007577D02*
X010362Y007577D01*
X006440Y006466D02*
X006364Y006543D01*
X006210Y006543D01*
X006134Y006466D01*
X005980Y006466D02*
X005903Y006543D01*
X005750Y006543D01*
X005673Y006466D01*
X005673Y006160D01*
X005750Y006083D01*
X005903Y006083D01*
X005980Y006160D01*
X006134Y006083D02*
X006440Y006390D01*
X006440Y006466D01*
X006440Y006083D02*
X006134Y006083D01*
X005520Y006083D02*
X005366Y006083D01*
X005443Y006083D02*
X005443Y006543D01*
X005366Y006543D02*
X005520Y006543D01*
X008605Y004885D02*
X008605Y004578D01*
X008681Y004424D02*
X008605Y004348D01*
X008605Y004194D01*
X008681Y004118D01*
X008988Y004118D01*
X009065Y004194D01*
X009065Y004348D01*
X008988Y004424D01*
X008988Y004578D02*
X009065Y004578D01*
X008988Y004578D02*
X008681Y004885D01*
X008605Y004885D01*
X011643Y004842D02*
X011720Y004689D01*
X011874Y004536D01*
X011874Y004766D01*
X011950Y004842D01*
X012027Y004842D01*
X012104Y004766D01*
X012104Y004612D01*
X012027Y004536D01*
X011874Y004536D01*
X012027Y004382D02*
X012104Y004305D01*
X012104Y004152D01*
X012027Y004075D01*
X011720Y004075D01*
X011643Y004152D01*
X011643Y004305D01*
X011720Y004382D01*
X013589Y004730D02*
X013666Y004653D01*
X013819Y004653D01*
X013896Y004730D01*
X014049Y004730D02*
X014126Y004653D01*
X014279Y004653D01*
X014356Y004730D01*
X014356Y004883D01*
X014279Y004960D01*
X014203Y004960D01*
X014049Y004883D01*
X014049Y005113D01*
X014356Y005113D01*
X013896Y005036D02*
X013819Y005113D01*
X013666Y005113D01*
X013589Y005036D01*
X013589Y004730D01*
X003754Y013310D02*
X003754Y013463D01*
X003677Y013540D01*
X003754Y013693D02*
X003754Y014000D01*
X003754Y013847D02*
X003294Y013847D01*
X003447Y013693D01*
X003370Y013540D02*
X003294Y013463D01*
X003294Y013310D01*
X003370Y013233D01*
X003677Y013233D01*
X003754Y013310D01*
X003677Y014154D02*
X003754Y014230D01*
X003754Y014384D01*
X003677Y014460D01*
X003370Y014460D01*
X003294Y014384D01*
X003294Y014230D01*
X003370Y014154D01*
X003447Y014154D01*
X003524Y014230D01*
X003524Y014460D01*
X003370Y015752D02*
X003677Y015752D01*
X003754Y015828D01*
X003754Y015982D01*
X003677Y016059D01*
X003754Y016212D02*
X003754Y016519D01*
X003754Y016365D02*
X003294Y016365D01*
X003447Y016212D01*
X003370Y016059D02*
X003294Y015982D01*
X003294Y015828D01*
X003370Y015752D01*
X003370Y016672D02*
X003447Y016672D01*
X003524Y016749D01*
X003524Y016903D01*
X003601Y016979D01*
X003677Y016979D01*
X003754Y016903D01*
X003754Y016749D01*
X003677Y016672D01*
X003601Y016672D01*
X003524Y016749D01*
X003524Y016903D02*
X003447Y016979D01*
X003370Y016979D01*
X003294Y016903D01*
X003294Y016749D01*
X003370Y016672D01*
X007594Y017883D02*
X007594Y018113D01*
X007670Y018190D01*
X007824Y018190D01*
X007901Y018113D01*
X007901Y017883D01*
X008054Y017883D02*
X007594Y017883D01*
X007901Y018036D02*
X008054Y018190D01*
X007824Y018343D02*
X007824Y018650D01*
X008054Y018573D02*
X007594Y018573D01*
X007824Y018343D01*
X011933Y019103D02*
X011933Y019563D01*
X012163Y019563D01*
X012240Y019486D01*
X012240Y019333D01*
X012163Y019256D01*
X011933Y019256D01*
X012087Y019256D02*
X012240Y019103D01*
X012394Y019103D02*
X012701Y019563D01*
X012394Y019563D02*
X012701Y019103D01*
X012594Y016023D02*
X012901Y015563D01*
X012594Y015563D02*
X012901Y016023D01*
X012441Y016023D02*
X012134Y016023D01*
X012287Y016023D02*
X012287Y015563D01*
X008054Y021393D02*
X007594Y021393D01*
X007594Y021623D01*
X007670Y021700D01*
X007824Y021700D01*
X007901Y021623D01*
X007901Y021393D01*
X007901Y021546D02*
X008054Y021700D01*
X007977Y021853D02*
X008054Y021930D01*
X008054Y022083D01*
X007977Y022160D01*
X007901Y022160D01*
X007824Y022083D01*
X007824Y022007D01*
X007824Y022083D02*
X007747Y022160D01*
X007670Y022160D01*
X007594Y022083D01*
X007594Y021930D01*
X007670Y021853D01*
D13*
X003741Y001726D02*
X003421Y001726D01*
X003421Y002366D01*
X003741Y002366D01*
X003848Y002259D01*
X003848Y001832D01*
X003741Y001726D01*
X004065Y001832D02*
X004172Y001726D01*
X004386Y001726D01*
X004492Y001832D01*
X004710Y001726D02*
X005137Y001726D01*
X004924Y001726D02*
X004924Y002366D01*
X004710Y002153D01*
X004492Y002259D02*
X004386Y002366D01*
X004172Y002366D01*
X004065Y002259D01*
X004065Y001832D01*
X020084Y003162D02*
X020084Y003332D01*
X020141Y003389D01*
X020254Y003389D01*
X020311Y003332D01*
X020311Y003162D01*
X020424Y003162D02*
X020084Y003162D01*
X020311Y003275D02*
X020424Y003389D01*
X020424Y003530D02*
X020084Y003530D01*
X020084Y003757D01*
X020141Y003898D02*
X020197Y003898D01*
X020254Y003955D01*
X020254Y004069D01*
X020311Y004125D01*
X020367Y004125D01*
X020424Y004069D01*
X020424Y003955D01*
X020367Y003898D01*
X020424Y003757D02*
X020424Y003530D01*
X020254Y003530D02*
X020254Y003644D01*
X020141Y003898D02*
X020084Y003955D01*
X020084Y004069D01*
X020141Y004125D01*
X020084Y004267D02*
X020424Y004267D01*
X020424Y004494D01*
X020254Y004380D02*
X020254Y004267D01*
X020084Y004267D02*
X020084Y004494D01*
X020084Y004635D02*
X020084Y004862D01*
X020084Y004749D02*
X020424Y004749D01*
X021074Y004040D02*
X021131Y004096D01*
X021187Y004096D01*
X021244Y004040D01*
X021301Y004096D01*
X021357Y004096D01*
X021414Y004040D01*
X021414Y003926D01*
X021357Y003869D01*
X021301Y003728D02*
X021074Y003728D01*
X021131Y003869D02*
X021074Y003926D01*
X021074Y004040D01*
X021244Y004040D02*
X021244Y003983D01*
X021301Y003728D02*
X021414Y003615D01*
X021301Y003501D01*
X021074Y003501D01*
X021131Y003360D02*
X021074Y003303D01*
X021074Y003190D01*
X021131Y003133D01*
X021244Y003246D02*
X021244Y003303D01*
X021301Y003360D01*
X021357Y003360D01*
X021414Y003303D01*
X021414Y003190D01*
X021357Y003133D01*
X021244Y003303D02*
X021187Y003360D01*
X021131Y003360D01*
X031032Y018966D02*
X031032Y019186D01*
X031106Y019260D01*
X031253Y019260D01*
X031326Y019186D01*
X031326Y018966D01*
X031473Y018966D02*
X031032Y018966D01*
X031326Y019113D02*
X031473Y019260D01*
X031473Y019427D02*
X031032Y019720D01*
X031032Y019427D02*
X031473Y019720D01*
X032282Y019720D02*
X032722Y019427D01*
X032722Y019113D02*
X032282Y019113D01*
X032282Y018966D02*
X032282Y019260D01*
X032282Y019427D02*
X032722Y019720D01*
D14*
X029468Y019100D02*
X029038Y019100D01*
X029181Y018957D01*
X029038Y018813D01*
X029468Y018813D01*
X029468Y018640D02*
X029038Y018640D01*
X029038Y018353D02*
X029468Y018353D01*
X029325Y018496D01*
X029468Y018640D01*
X029253Y018180D02*
X029110Y018180D01*
X029038Y018108D01*
X029038Y017893D01*
X029468Y017893D01*
X029325Y017893D02*
X029325Y018108D01*
X029253Y018180D01*
X027469Y018353D02*
X027325Y018496D01*
X027469Y018640D01*
X027038Y018640D01*
X027038Y018813D02*
X027182Y018957D01*
X027038Y019100D01*
X027469Y019100D01*
X027469Y018813D02*
X027038Y018813D01*
X026469Y018813D02*
X026039Y018813D01*
X026182Y018957D01*
X026039Y019100D01*
X026469Y019100D01*
X026469Y018640D02*
X026039Y018640D01*
X026039Y018353D02*
X026469Y018353D01*
X026326Y018496D01*
X026469Y018640D01*
X027038Y018353D02*
X027469Y018353D01*
X027254Y018180D02*
X027325Y018108D01*
X027325Y017893D01*
X027469Y017893D02*
X027038Y017893D01*
X027038Y018108D01*
X027110Y018180D01*
X027254Y018180D01*
X026469Y017893D02*
X026039Y017893D01*
X026039Y018108D01*
X026111Y018180D01*
X026254Y018180D01*
X026326Y018108D01*
X026326Y017893D01*
X022970Y017893D02*
X022540Y017893D01*
X022540Y018108D01*
X022612Y018180D01*
X022755Y018180D01*
X022827Y018108D01*
X022827Y017893D01*
X022970Y018353D02*
X022827Y018496D01*
X022970Y018640D01*
X022540Y018640D01*
X022540Y018813D02*
X022683Y018957D01*
X022540Y019100D01*
X022970Y019100D01*
X022970Y018813D02*
X022540Y018813D01*
X022540Y018353D02*
X022970Y018353D01*
X021971Y018353D02*
X021827Y018496D01*
X021971Y018640D01*
X021540Y018640D01*
X021540Y018813D02*
X021684Y018957D01*
X021540Y019100D01*
X021971Y019100D01*
X021971Y018813D02*
X021540Y018813D01*
X021540Y018353D02*
X021971Y018353D01*
X021755Y018180D02*
X021827Y018108D01*
X021827Y017893D01*
X021971Y017893D02*
X021540Y017893D01*
X021540Y018108D01*
X021612Y018180D01*
X021755Y018180D01*
X020971Y018353D02*
X020827Y018496D01*
X020971Y018640D01*
X020541Y018640D01*
X020541Y018813D02*
X020684Y018957D01*
X020541Y019100D01*
X020971Y019100D01*
X020971Y018813D02*
X020541Y018813D01*
X020541Y018353D02*
X020971Y018353D01*
X020756Y018180D02*
X020612Y018180D01*
X020541Y018108D01*
X020541Y017893D01*
X020971Y017893D01*
X020827Y017893D02*
X020827Y018108D01*
X020756Y018180D01*
D15*
X032379Y017828D02*
X032689Y017828D01*
X032689Y017740D02*
X032534Y017740D01*
X032482Y017688D01*
X032482Y017533D01*
X032689Y017533D01*
X032689Y017445D02*
X032689Y017290D01*
X032637Y017238D01*
X032586Y017290D01*
X032586Y017445D01*
X032534Y017445D02*
X032689Y017445D01*
X032534Y017445D02*
X032482Y017393D01*
X032482Y017290D01*
X032534Y017150D02*
X032482Y017099D01*
X032482Y016944D01*
X032482Y016856D02*
X032689Y016649D01*
X032689Y016856D01*
X032689Y016944D02*
X032379Y016944D01*
X032482Y016856D02*
X032482Y016649D01*
X032689Y016944D02*
X032689Y017099D01*
X032637Y017150D01*
X032534Y017150D01*
X032586Y017828D02*
X032482Y017983D01*
X032534Y018073D02*
X032482Y018125D01*
X032482Y018280D01*
X032586Y018228D02*
X032637Y018280D01*
X032689Y018228D01*
X032689Y018073D01*
X032689Y017983D02*
X032586Y017828D01*
X032534Y018073D02*
X032586Y018125D01*
X032586Y018228D01*
X032689Y016267D02*
X032689Y016111D01*
X032637Y016060D01*
X032482Y016060D01*
X032534Y015972D02*
X032482Y015920D01*
X032482Y015765D01*
X032379Y015765D02*
X032689Y015765D01*
X032689Y015920D01*
X032637Y015972D01*
X032534Y015972D01*
X032482Y016267D02*
X032741Y016267D01*
X032792Y016215D01*
X032792Y016163D01*
X032637Y015383D02*
X032689Y015331D01*
X032689Y015176D01*
X032379Y015176D01*
X032379Y015331D01*
X032430Y015383D01*
X032482Y015383D01*
X032534Y015331D01*
X032534Y015176D01*
X032637Y015088D02*
X032689Y015036D01*
X032689Y014933D01*
X032637Y014881D01*
X032430Y014881D01*
X032379Y014933D01*
X032379Y015036D01*
X032430Y015088D01*
X032534Y015331D02*
X032586Y015383D01*
X032637Y015383D01*
X032534Y014793D02*
X032586Y014742D01*
X032586Y014586D01*
X032689Y014586D02*
X032379Y014586D01*
X032379Y014742D01*
X032430Y014793D01*
X032534Y014793D01*
X003576Y020618D02*
X003476Y020618D01*
X003576Y020718D01*
X003576Y020743D01*
X003551Y020768D01*
X003501Y020768D01*
X003476Y020743D01*
X003429Y020768D02*
X003329Y020618D01*
X003429Y020618D02*
X003329Y020768D01*
D16*
X031210Y015724D02*
X031289Y015724D01*
X031445Y015724D02*
X031759Y015724D01*
X031759Y015646D02*
X031759Y015803D01*
X031681Y015953D02*
X031524Y015953D01*
X031445Y016031D01*
X031445Y016188D01*
X031524Y016266D01*
X031602Y016266D01*
X031602Y015953D01*
X031681Y015953D02*
X031759Y016031D01*
X031759Y016188D01*
X031759Y016413D02*
X031759Y016648D01*
X031681Y016727D01*
X031602Y016648D01*
X031602Y016492D01*
X031524Y016413D01*
X031445Y016492D01*
X031445Y016727D01*
X031445Y015724D02*
X031445Y015646D01*
X031445Y015498D02*
X031445Y015419D01*
X031602Y015262D01*
X031759Y015262D02*
X031445Y015262D01*
X031445Y015112D02*
X031445Y014956D01*
X031367Y015034D02*
X031681Y015034D01*
X031759Y015112D01*
X031681Y014809D02*
X031602Y014730D01*
X031602Y014574D01*
X031524Y014495D01*
X031445Y014574D01*
X031445Y014809D01*
X031681Y014809D02*
X031759Y014730D01*
X031759Y014495D01*
X031759Y014348D02*
X031445Y014348D01*
X031759Y014348D02*
X031759Y014113D01*
X031681Y014035D01*
X031445Y014035D01*
X031445Y013888D02*
X031445Y013653D01*
X031524Y013574D01*
X031681Y013574D01*
X031759Y013653D01*
X031759Y013888D01*
X031289Y013888D01*
X031524Y013428D02*
X031759Y013428D01*
X031524Y013428D02*
X031445Y013349D01*
X031445Y013114D01*
X031759Y013114D01*
X031759Y012964D02*
X031759Y012807D01*
X031759Y012886D02*
X031445Y012886D01*
X031445Y012807D01*
X031289Y012886D02*
X031210Y012886D01*
X031524Y012200D02*
X031602Y012200D01*
X031602Y011886D01*
X031524Y011886D02*
X031445Y011965D01*
X031445Y012122D01*
X031524Y012200D01*
X031759Y012122D02*
X031759Y011965D01*
X031681Y011886D01*
X031524Y011886D01*
X031445Y011740D02*
X031445Y011505D01*
X031524Y011426D01*
X031681Y011426D01*
X031759Y011505D01*
X031759Y011740D01*
X031289Y011740D01*
X031524Y011279D02*
X031602Y011279D01*
X031602Y010966D01*
X031524Y010966D02*
X031445Y011044D01*
X031445Y011201D01*
X031524Y011279D01*
X031759Y011201D02*
X031759Y011044D01*
X031681Y010966D01*
X031524Y010966D01*
X031524Y010819D02*
X031681Y010819D01*
X031759Y010741D01*
X031759Y010505D01*
X031916Y010505D02*
X031445Y010505D01*
X031445Y010741D01*
X031524Y010819D01*
X031524Y010359D02*
X031445Y010280D01*
X031445Y010123D01*
X031524Y010045D01*
X031681Y010045D01*
X031759Y010123D01*
X031759Y010280D01*
X031681Y010359D01*
X031524Y010359D01*
X031759Y009895D02*
X031759Y009738D01*
X031759Y009817D02*
X031289Y009817D01*
X031289Y009738D01*
X031445Y009513D02*
X031445Y009356D01*
X031524Y009278D01*
X031681Y009278D01*
X031759Y009356D01*
X031759Y009513D01*
X031681Y009591D01*
X031524Y009591D01*
X031445Y009513D01*
X033689Y008879D02*
X034159Y008879D01*
X034159Y009114D01*
X034081Y009192D01*
X033924Y009192D01*
X033845Y009114D01*
X033845Y008879D01*
X033845Y008732D02*
X034159Y008732D01*
X034159Y008497D01*
X034081Y008418D01*
X033845Y008418D01*
X033689Y008272D02*
X034159Y007958D01*
X034159Y007811D02*
X033924Y007811D01*
X033845Y007733D01*
X033924Y007654D01*
X034159Y007654D01*
X034159Y007498D02*
X033845Y007498D01*
X033845Y007576D01*
X033924Y007654D01*
X033924Y007351D02*
X033845Y007273D01*
X033845Y007116D01*
X033924Y007037D01*
X034081Y007037D01*
X034159Y007116D01*
X034159Y007273D01*
X034081Y007351D01*
X033924Y007351D01*
X033845Y006891D02*
X033845Y006655D01*
X033924Y006577D01*
X034081Y006577D01*
X034159Y006655D01*
X034159Y006891D01*
X034159Y006425D02*
X034081Y006425D01*
X034081Y006347D01*
X034159Y006347D01*
X034159Y006425D01*
X034002Y006200D02*
X034002Y005886D01*
X033924Y005886D02*
X033845Y005965D01*
X033845Y006122D01*
X033924Y006200D01*
X034002Y006200D01*
X034159Y006122D02*
X034159Y005965D01*
X034081Y005886D01*
X033924Y005886D01*
X033845Y005740D02*
X033845Y005505D01*
X033924Y005426D01*
X034081Y005426D01*
X034159Y005505D01*
X034159Y005740D01*
X033689Y005740D01*
X033924Y005279D02*
X034002Y005279D01*
X034002Y004966D01*
X033924Y004966D02*
X033845Y005044D01*
X033845Y005201D01*
X033924Y005279D01*
X034159Y005201D02*
X034159Y005044D01*
X034081Y004966D01*
X033924Y004966D01*
X033924Y004819D02*
X034081Y004819D01*
X034159Y004741D01*
X034159Y004505D01*
X034316Y004505D02*
X033845Y004505D01*
X033845Y004741D01*
X033924Y004819D01*
X033924Y004359D02*
X033845Y004280D01*
X033845Y004123D01*
X033924Y004045D01*
X034081Y004045D01*
X034159Y004123D01*
X034159Y004280D01*
X034081Y004359D01*
X033924Y004359D01*
X034159Y003895D02*
X034159Y003738D01*
X034159Y003817D02*
X033689Y003817D01*
X033689Y003738D01*
X033845Y003513D02*
X033845Y003356D01*
X033924Y003278D01*
X034081Y003278D01*
X034159Y003356D01*
X034159Y003513D01*
X034081Y003591D01*
X033924Y003591D01*
X033845Y003513D01*
X033924Y009339D02*
X033845Y009418D01*
X033845Y009574D01*
X033924Y009653D01*
X034002Y009653D01*
X034002Y009339D01*
X033924Y009339D02*
X034081Y009339D01*
X034159Y009418D01*
X034159Y009574D01*
X034159Y009799D02*
X033845Y009799D01*
X034002Y009799D02*
X033845Y009956D01*
X033845Y010035D01*
D17*
X032910Y011948D02*
X032910Y012748D01*
X032510Y012348D02*
X033310Y012348D01*
X030721Y013675D02*
X029928Y013675D01*
X030324Y013278D02*
X030324Y014071D01*
X028513Y014605D02*
X027975Y014605D01*
X028244Y014337D02*
X028244Y014874D01*
X028242Y013785D02*
X028242Y013248D01*
X027973Y013517D02*
X028511Y013517D01*
X029107Y011918D02*
X029107Y011118D01*
X028707Y011518D02*
X029507Y011518D01*
X026350Y010731D02*
X025813Y010731D01*
X026081Y010463D02*
X026081Y011000D01*
X024770Y011700D02*
X023970Y011700D01*
X024370Y011300D02*
X024370Y012100D01*
X025811Y012713D02*
X026348Y012713D01*
X026080Y012444D02*
X026080Y012982D01*
X025852Y016238D02*
X025852Y017038D01*
X025452Y016638D02*
X026252Y016638D01*
X028850Y019978D02*
X028850Y020778D01*
X028849Y020978D02*
X028849Y021778D01*
X028449Y021378D02*
X029249Y021378D01*
X029250Y020378D02*
X028450Y020378D01*
X020570Y020378D02*
X019770Y020378D01*
X020170Y019978D02*
X020170Y020778D01*
X019849Y020978D02*
X019849Y021778D01*
X019449Y021378D02*
X020249Y021378D01*
X019725Y018599D02*
X019725Y018061D01*
X019456Y018330D02*
X019994Y018330D01*
X018725Y018330D02*
X017932Y018330D01*
X018328Y017934D02*
X018328Y018727D01*
X019123Y015854D02*
X019123Y015317D01*
X019391Y015586D02*
X018854Y015586D01*
X019123Y014482D02*
X019123Y013945D01*
X019391Y014214D02*
X018854Y014214D01*
X016974Y015463D02*
X016174Y015463D01*
X016574Y015063D02*
X016574Y015863D01*
X014874Y015463D02*
X014074Y015463D01*
X014474Y015063D02*
X014474Y015863D01*
X013360Y016843D02*
X012568Y016843D01*
X012964Y016446D02*
X012964Y017239D01*
X012964Y017946D02*
X012964Y018739D01*
X012568Y018343D02*
X013360Y018343D01*
X013324Y021163D02*
X013324Y021963D01*
X012924Y021563D02*
X013724Y021563D01*
X011974Y022313D02*
X011174Y022313D01*
X011574Y021913D02*
X011574Y022713D01*
X007393Y021223D02*
X006855Y021223D01*
X007124Y020954D02*
X007124Y021492D01*
X005224Y020113D02*
X004424Y020113D01*
X004824Y019713D02*
X004824Y020513D01*
X006855Y018913D02*
X007393Y018913D01*
X007124Y018644D02*
X007124Y019182D01*
X004224Y016682D02*
X004224Y016144D01*
X003955Y016413D02*
X004493Y016413D01*
X006274Y015363D02*
X006274Y014563D01*
X005874Y014963D02*
X006674Y014963D01*
X004493Y013713D02*
X003955Y013713D01*
X004224Y013444D02*
X004224Y013982D01*
X010151Y009578D02*
X010151Y008778D01*
X009751Y009178D02*
X010551Y009178D01*
X012579Y009472D02*
X013117Y009472D01*
X012848Y009204D02*
X012848Y009741D01*
X014074Y009463D02*
X014874Y009463D01*
X014474Y009063D02*
X014474Y009863D01*
X016174Y009463D02*
X016974Y009463D01*
X016574Y009063D02*
X016574Y009863D01*
X018659Y011712D02*
X018659Y012249D01*
X018390Y011981D02*
X018928Y011981D01*
X013219Y011958D02*
X012419Y011958D01*
X012819Y011558D02*
X012819Y012358D01*
X005974Y008063D02*
X005174Y008063D01*
X005574Y007663D02*
X005574Y008463D01*
X009755Y005772D02*
X010555Y005772D01*
X010155Y005372D02*
X010155Y006172D01*
X010051Y003523D02*
X010051Y002723D01*
X009651Y003123D02*
X010451Y003123D01*
X012879Y003207D02*
X013679Y003207D01*
X013279Y002807D02*
X013279Y003607D01*
X013999Y005492D02*
X013999Y006029D01*
X013730Y005760D02*
X014268Y005760D01*
X013974Y006494D02*
X013974Y007032D01*
X013705Y006763D02*
X014243Y006763D01*
X022358Y002348D02*
X023158Y002348D01*
X022758Y001948D02*
X022758Y002748D01*
X022759Y001748D02*
X022759Y000948D01*
X022359Y001348D02*
X023159Y001348D01*
X023929Y003779D02*
X023929Y004317D01*
X024197Y004048D02*
X023660Y004048D01*
X025817Y004285D02*
X026354Y004285D01*
X026085Y004017D02*
X026085Y004554D01*
X026062Y006689D02*
X026062Y007489D01*
X025662Y007089D02*
X026462Y007089D01*
X029730Y002768D02*
X029730Y001968D01*
X029729Y001768D02*
X029729Y000968D01*
X029329Y001368D02*
X030129Y001368D01*
X030130Y002368D02*
X029330Y002368D01*
X004943Y004707D02*
X004143Y004707D01*
X004543Y004307D02*
X004543Y005107D01*
D18*
X013279Y007608D02*
X013279Y007758D01*
X013279Y007683D02*
X013654Y007683D01*
X013729Y007608D01*
X013729Y007533D01*
X013654Y007458D01*
X013729Y007918D02*
X013279Y007918D01*
X013279Y008143D01*
X013354Y008218D01*
X013504Y008218D01*
X013579Y008143D01*
X013579Y007918D01*
X013654Y008379D02*
X013729Y008454D01*
X013729Y008604D01*
X013654Y008679D01*
X013504Y008679D01*
X013429Y008604D01*
X013429Y008529D01*
X013504Y008379D01*
X013279Y008379D01*
X013279Y008679D01*
X015379Y008604D02*
X015379Y008454D01*
X015454Y008379D01*
X015454Y008218D02*
X015604Y008218D01*
X015679Y008143D01*
X015679Y007918D01*
X015829Y007918D02*
X015379Y007918D01*
X015379Y008143D01*
X015454Y008218D01*
X015379Y008604D02*
X015454Y008679D01*
X015529Y008679D01*
X015829Y008379D01*
X015829Y008679D01*
X015379Y007758D02*
X015379Y007608D01*
X015379Y007683D02*
X015754Y007683D01*
X015829Y007608D01*
X015829Y007533D01*
X015754Y007458D01*
X019904Y002543D02*
X020054Y002543D01*
X019979Y002543D02*
X019979Y002168D01*
X019904Y002093D01*
X019829Y002093D01*
X019754Y002168D01*
X020214Y002093D02*
X020214Y002543D01*
X020440Y002543D01*
X020515Y002468D01*
X020515Y002318D01*
X020440Y002243D01*
X020214Y002243D01*
X020675Y002318D02*
X020900Y002318D01*
X020975Y002243D01*
X020975Y002168D01*
X020900Y002093D01*
X020750Y002093D01*
X020675Y002168D01*
X020675Y002318D01*
X020825Y002468D01*
X020975Y002543D01*
X026724Y002188D02*
X026799Y002113D01*
X026874Y002113D01*
X026949Y002188D01*
X026949Y002563D01*
X026874Y002563D02*
X027024Y002563D01*
X027184Y002563D02*
X027184Y002338D01*
X027334Y002413D01*
X027410Y002413D01*
X027485Y002338D01*
X027485Y002188D01*
X027410Y002113D01*
X027259Y002113D01*
X027184Y002188D01*
X027184Y002563D02*
X027485Y002563D01*
X015829Y012533D02*
X015754Y012458D01*
X015829Y012533D02*
X015829Y012608D01*
X015754Y012683D01*
X015379Y012683D01*
X015379Y012608D02*
X015379Y012758D01*
X015379Y012918D02*
X015379Y013143D01*
X015454Y013218D01*
X015604Y013218D01*
X015679Y013143D01*
X015679Y012918D01*
X015829Y012918D02*
X015379Y012918D01*
X015604Y013379D02*
X015604Y013679D01*
X015829Y013604D02*
X015379Y013604D01*
X015604Y013379D01*
X013729Y013454D02*
X013654Y013379D01*
X013729Y013454D02*
X013729Y013604D01*
X013654Y013679D01*
X013579Y013679D01*
X013504Y013604D01*
X013504Y013529D01*
X013504Y013604D02*
X013429Y013679D01*
X013354Y013679D01*
X013279Y013604D01*
X013279Y013454D01*
X013354Y013379D01*
X013354Y013218D02*
X013504Y013218D01*
X013579Y013143D01*
X013579Y012918D01*
X013729Y012918D02*
X013279Y012918D01*
X013279Y013143D01*
X013354Y013218D01*
X013279Y012758D02*
X013279Y012608D01*
X013279Y012683D02*
X013654Y012683D01*
X013729Y012608D01*
X013729Y012533D01*
X013654Y012458D01*
X007899Y016142D02*
X007899Y016292D01*
X007824Y016367D01*
X007524Y016367D01*
X007449Y016292D01*
X007449Y016142D01*
X007524Y016067D01*
X007824Y016067D01*
X007899Y016142D01*
X007749Y016217D02*
X007899Y016367D01*
X007899Y016527D02*
X007599Y016828D01*
X007524Y016828D01*
X007449Y016753D01*
X007449Y016602D01*
X007524Y016527D01*
X007899Y016527D02*
X007899Y016828D01*
X012099Y019779D02*
X012099Y019929D01*
X012099Y019854D02*
X012549Y019854D01*
X012549Y019779D02*
X012549Y019929D01*
X012474Y020086D02*
X012549Y020161D01*
X012549Y020311D01*
X012474Y020386D01*
X012399Y020386D01*
X012324Y020311D01*
X012324Y020161D01*
X012249Y020086D01*
X012174Y020086D01*
X012099Y020161D01*
X012099Y020311D01*
X012174Y020386D01*
X012174Y020546D02*
X012474Y020546D01*
X012549Y020621D01*
X012549Y020771D01*
X012474Y020846D01*
X012549Y021007D02*
X012099Y021007D01*
X012099Y021232D01*
X012174Y021307D01*
X012324Y021307D01*
X012399Y021232D01*
X012399Y021007D01*
X012174Y020846D02*
X012099Y020771D01*
X012099Y020621D01*
X012174Y020546D01*
X012324Y021467D02*
X012324Y021767D01*
X012174Y021927D02*
X012474Y021927D01*
X012549Y022002D01*
X012549Y022152D01*
X012474Y022228D01*
X012174Y022228D01*
X012099Y022152D01*
X012099Y022002D01*
X012174Y021927D01*
X022983Y020258D02*
X023058Y020183D01*
X023133Y020183D01*
X023208Y020258D01*
X023208Y020633D01*
X023133Y020633D02*
X023284Y020633D01*
X023444Y020408D02*
X023744Y020408D01*
X023669Y020183D02*
X023669Y020633D01*
X023444Y020408D01*
X031983Y020258D02*
X032058Y020183D01*
X032133Y020183D01*
X032208Y020258D01*
X032208Y020633D01*
X032133Y020633D02*
X032284Y020633D01*
X032444Y020408D02*
X032669Y020408D01*
X032744Y020333D01*
X032744Y020258D01*
X032669Y020183D01*
X032519Y020183D01*
X032444Y020258D01*
X032444Y020408D01*
X032594Y020558D01*
X032744Y020633D01*
M02*
