%
M48
M72
T01C0.0197
T02C0.0236
T03C0.0315
T04C0.0320
T05C0.0354
T06C0.0400
T07C0.0472
T08C0.1300
%
T01
X4574Y1063
X7274Y1063
X10074Y1063
X13274Y1063
X17574Y1563
X11874Y5163
X11874Y6963
X14424Y6763
X12854Y9013
X12859Y9923
X11574Y9963
X11074Y9963
X10574Y9963
X10574Y10463
X11074Y10463
X11574Y10463
X11574Y10963
X11074Y10963
X10574Y10963
X10074Y10963
X9574Y10963
X9074Y10963
X8574Y10963
X8074Y10963
X7574Y10963
X7074Y10963
X6574Y10963
X6074Y10963
X5574Y10963
X5074Y10963
X4574Y10963
X4074Y10963
X3574Y10963
X3574Y9563
X4074Y9563
X4574Y9563
X5074Y9563
X5574Y9563
X6074Y9563
X6574Y9563
X5574Y8563
X5074Y8563
X4574Y8563
X4074Y8563
X3574Y8563
X3574Y8063
X4074Y8063
X4574Y8063
X5074Y8063
X5574Y8063
X5574Y7563
X5074Y7563
X4574Y7563
X4074Y7563
X3574Y7563
X9074Y9463
X9074Y9963
X9074Y10463
X9574Y10463
X10074Y10463
X10074Y9963
X9574Y9963
X9574Y9463
X10074Y9463
X10574Y9463
X11074Y9463
X11574Y9463
X13774Y11963
X14374Y11963
X14974Y11963
X15574Y11963
X10114Y12678
X7614Y13978
X6274Y12963
X6274Y16963
X5274Y17163
X4774Y20063
X4774Y21963
X13574Y18363
X13574Y16863
X19174Y16963
X24374Y21863
X32410Y18927
X33174Y16063
X33274Y9563
X33074Y3263
T02
X21874Y6463
X22074Y7763
X18874Y10463
X19574Y11363
X19474Y12263
X19174Y13363
X21174Y12963
X22174Y13963
X23074Y14963
X23074Y15963
X21174Y17063
X20574Y17563
X20974Y16363
X17774Y15963
X15574Y15963
X15574Y16963
X15574Y17963
X15574Y14963
X15574Y13963
X15574Y12963
X15574Y12463
X15574Y11463
X15574Y10963
X15574Y9963
X15574Y8963
X15574Y7963
X19474Y4463
X13474Y13763
X12574Y14263
X7774Y19363
X7774Y20363
X27674Y19563
X27674Y18863
X27674Y18063
X27674Y17163
X27674Y16263
X30574Y16263
X31874Y17163
X30674Y18063
T03
X15574Y17463
X15574Y16463
X15574Y15463
X15574Y14463
X15574Y13463
X15574Y10463
X15574Y9463
X15574Y8463
X24274Y7163
X33374Y4263
T04
X32562Y5589
X31562Y5589
X30562Y5589
X29562Y5589
X28562Y5589
X27562Y5589
X26562Y5589
X25562Y5589
X24562Y5589
X23562Y5589
X22562Y5589
X21562Y5589
X20562Y5589
X19562Y5589
X19562Y8589
X20562Y8589
X21562Y8589
X22562Y8589
X23562Y8589
X24562Y8589
X25562Y8589
X26562Y8589
X27562Y8589
X28562Y8589
X29562Y8589
X30562Y8589
X31562Y8589
X32562Y8589
X24370Y10750
X24370Y12650
X11574Y12813
X11574Y13813
X11574Y14813
X11574Y15813
X11574Y16813
X11574Y17813
X11574Y18813
X11574Y19813
X11574Y20813
X11574Y21813
X8574Y21813
X8574Y20813
X8574Y19813
X8574Y18813
X8574Y17813
X8574Y16813
X8574Y15813
X8574Y14813
X8574Y13813
X8574Y12813
X6274Y14013
X6274Y15913
T05
X4824Y19247
X4824Y20979
T06
X13324Y20563
X14324Y20563
X14324Y19563
X13324Y19563
X14474Y17963
X14474Y16963
X14474Y15963
X14474Y14963
X14474Y13963
X14474Y12963
X12819Y12958
X12819Y11958
X12819Y10958
X14474Y10963
X14474Y9963
X14474Y8963
X14474Y7963
X16574Y7963
X16574Y8963
X16574Y9963
X16574Y10963
X16574Y12963
X16574Y13963
X16574Y14963
X16574Y15963
X16574Y16963
X16574Y17963
X16670Y20378
X17670Y20378
X18670Y20378
X19670Y20378
X20670Y20378
X21670Y20378
X22670Y20378
X23670Y20378
X23349Y21378
X22349Y21378
X21349Y21378
X20349Y21378
X19349Y21378
X18349Y21378
X17349Y21378
X16349Y21378
X14324Y21563
X13324Y21563
X25349Y21378
X26349Y21378
X27349Y21378
X28349Y21378
X29349Y21378
X30349Y21378
X31349Y21378
X32349Y21378
X32350Y20378
X31350Y20378
X30350Y20378
X29350Y20378
X28350Y20378
X27350Y20378
X26350Y20378
X25350Y20378
X32410Y13348
X33410Y13348
X33410Y12348
X32410Y12348
X32410Y11348
X33410Y11348
X30387Y10628
X30387Y12408
X27827Y12408
X27827Y10628
X28230Y2368
X27230Y2368
X27229Y1368
X28229Y1368
X29229Y1368
X30229Y1368
X31229Y1368
X32229Y1368
X32230Y2368
X31230Y2368
X30230Y2368
X29230Y2368
X25258Y2348
X24258Y2348
X23258Y2348
X22258Y2348
X21258Y2348
X20258Y2348
X20259Y1348
X21259Y1348
X22259Y1348
X23259Y1348
X24259Y1348
X25259Y1348
T07
X15574Y1563
X15574Y2263
X15574Y2963
X15574Y3663
X15574Y4363
X15574Y5063
X15574Y5763
X15574Y6463
X15574Y7163
X12055Y5772
X8055Y5772
X15574Y863
X11774Y11963
X11074Y11963
X10374Y11963
X9674Y11963
X8974Y11963
X8274Y11963
X7574Y11963
X6874Y11963
X6174Y11963
X5474Y11963
X4774Y11963
X4074Y11963
X3374Y11963
X15574Y18563
X15574Y19263
X15574Y19963
X15574Y20663
X15574Y21363
X15574Y22063
T08
X7043Y4677
X4683Y4677
X5863Y2707
M30
