G75*
G70*
%OFA0B0*%
%FSLAX24Y24*%
%IPPOS*%
%LPD*%
%AMOC8*
5,1,8,0,0,1.08239X$1,22.5*
%
%ADD10C,0.0000*%
D10*
X003054Y000449D02*
X032291Y000449D01*
X033301Y000445D01*
X033297Y001365D01*
X033305Y001359D02*
X033311Y001369D01*
X033310Y002348D01*
X034337Y003355D01*
X034338Y003355D02*
X034332Y016305D01*
X033291Y017305D01*
X033310Y017304D02*
X033310Y021854D01*
X032590Y022383D01*
X032611Y022385D02*
X003054Y022385D01*
X003054Y000449D01*
X015338Y000863D02*
X015340Y000893D01*
X015346Y000923D01*
X015355Y000952D01*
X015368Y000979D01*
X015385Y001004D01*
X015404Y001027D01*
X015427Y001048D01*
X015452Y001065D01*
X015478Y001079D01*
X015507Y001089D01*
X015536Y001096D01*
X015566Y001099D01*
X015597Y001098D01*
X015627Y001093D01*
X015656Y001084D01*
X015683Y001072D01*
X015709Y001057D01*
X015733Y001038D01*
X015754Y001016D01*
X015772Y000992D01*
X015787Y000965D01*
X015798Y000937D01*
X015806Y000908D01*
X015810Y000878D01*
X015810Y000848D01*
X015806Y000818D01*
X015798Y000789D01*
X015787Y000761D01*
X015772Y000734D01*
X015754Y000710D01*
X015733Y000688D01*
X015709Y000669D01*
X015683Y000654D01*
X015656Y000642D01*
X015627Y000633D01*
X015597Y000628D01*
X015566Y000627D01*
X015536Y000630D01*
X015507Y000637D01*
X015478Y000647D01*
X015452Y000661D01*
X015427Y000678D01*
X015404Y000699D01*
X015385Y000722D01*
X015368Y000747D01*
X015355Y000774D01*
X015346Y000803D01*
X015340Y000833D01*
X015338Y000863D01*
X015338Y001563D02*
X015340Y001593D01*
X015346Y001623D01*
X015355Y001652D01*
X015368Y001679D01*
X015385Y001704D01*
X015404Y001727D01*
X015427Y001748D01*
X015452Y001765D01*
X015478Y001779D01*
X015507Y001789D01*
X015536Y001796D01*
X015566Y001799D01*
X015597Y001798D01*
X015627Y001793D01*
X015656Y001784D01*
X015683Y001772D01*
X015709Y001757D01*
X015733Y001738D01*
X015754Y001716D01*
X015772Y001692D01*
X015787Y001665D01*
X015798Y001637D01*
X015806Y001608D01*
X015810Y001578D01*
X015810Y001548D01*
X015806Y001518D01*
X015798Y001489D01*
X015787Y001461D01*
X015772Y001434D01*
X015754Y001410D01*
X015733Y001388D01*
X015709Y001369D01*
X015683Y001354D01*
X015656Y001342D01*
X015627Y001333D01*
X015597Y001328D01*
X015566Y001327D01*
X015536Y001330D01*
X015507Y001337D01*
X015478Y001347D01*
X015452Y001361D01*
X015427Y001378D01*
X015404Y001399D01*
X015385Y001422D01*
X015368Y001447D01*
X015355Y001474D01*
X015346Y001503D01*
X015340Y001533D01*
X015338Y001563D01*
X015338Y002263D02*
X015340Y002293D01*
X015346Y002323D01*
X015355Y002352D01*
X015368Y002379D01*
X015385Y002404D01*
X015404Y002427D01*
X015427Y002448D01*
X015452Y002465D01*
X015478Y002479D01*
X015507Y002489D01*
X015536Y002496D01*
X015566Y002499D01*
X015597Y002498D01*
X015627Y002493D01*
X015656Y002484D01*
X015683Y002472D01*
X015709Y002457D01*
X015733Y002438D01*
X015754Y002416D01*
X015772Y002392D01*
X015787Y002365D01*
X015798Y002337D01*
X015806Y002308D01*
X015810Y002278D01*
X015810Y002248D01*
X015806Y002218D01*
X015798Y002189D01*
X015787Y002161D01*
X015772Y002134D01*
X015754Y002110D01*
X015733Y002088D01*
X015709Y002069D01*
X015683Y002054D01*
X015656Y002042D01*
X015627Y002033D01*
X015597Y002028D01*
X015566Y002027D01*
X015536Y002030D01*
X015507Y002037D01*
X015478Y002047D01*
X015452Y002061D01*
X015427Y002078D01*
X015404Y002099D01*
X015385Y002122D01*
X015368Y002147D01*
X015355Y002174D01*
X015346Y002203D01*
X015340Y002233D01*
X015338Y002263D01*
X015338Y002963D02*
X015340Y002993D01*
X015346Y003023D01*
X015355Y003052D01*
X015368Y003079D01*
X015385Y003104D01*
X015404Y003127D01*
X015427Y003148D01*
X015452Y003165D01*
X015478Y003179D01*
X015507Y003189D01*
X015536Y003196D01*
X015566Y003199D01*
X015597Y003198D01*
X015627Y003193D01*
X015656Y003184D01*
X015683Y003172D01*
X015709Y003157D01*
X015733Y003138D01*
X015754Y003116D01*
X015772Y003092D01*
X015787Y003065D01*
X015798Y003037D01*
X015806Y003008D01*
X015810Y002978D01*
X015810Y002948D01*
X015806Y002918D01*
X015798Y002889D01*
X015787Y002861D01*
X015772Y002834D01*
X015754Y002810D01*
X015733Y002788D01*
X015709Y002769D01*
X015683Y002754D01*
X015656Y002742D01*
X015627Y002733D01*
X015597Y002728D01*
X015566Y002727D01*
X015536Y002730D01*
X015507Y002737D01*
X015478Y002747D01*
X015452Y002761D01*
X015427Y002778D01*
X015404Y002799D01*
X015385Y002822D01*
X015368Y002847D01*
X015355Y002874D01*
X015346Y002903D01*
X015340Y002933D01*
X015338Y002963D01*
X015338Y003663D02*
X015340Y003693D01*
X015346Y003723D01*
X015355Y003752D01*
X015368Y003779D01*
X015385Y003804D01*
X015404Y003827D01*
X015427Y003848D01*
X015452Y003865D01*
X015478Y003879D01*
X015507Y003889D01*
X015536Y003896D01*
X015566Y003899D01*
X015597Y003898D01*
X015627Y003893D01*
X015656Y003884D01*
X015683Y003872D01*
X015709Y003857D01*
X015733Y003838D01*
X015754Y003816D01*
X015772Y003792D01*
X015787Y003765D01*
X015798Y003737D01*
X015806Y003708D01*
X015810Y003678D01*
X015810Y003648D01*
X015806Y003618D01*
X015798Y003589D01*
X015787Y003561D01*
X015772Y003534D01*
X015754Y003510D01*
X015733Y003488D01*
X015709Y003469D01*
X015683Y003454D01*
X015656Y003442D01*
X015627Y003433D01*
X015597Y003428D01*
X015566Y003427D01*
X015536Y003430D01*
X015507Y003437D01*
X015478Y003447D01*
X015452Y003461D01*
X015427Y003478D01*
X015404Y003499D01*
X015385Y003522D01*
X015368Y003547D01*
X015355Y003574D01*
X015346Y003603D01*
X015340Y003633D01*
X015338Y003663D01*
X015338Y004363D02*
X015340Y004393D01*
X015346Y004423D01*
X015355Y004452D01*
X015368Y004479D01*
X015385Y004504D01*
X015404Y004527D01*
X015427Y004548D01*
X015452Y004565D01*
X015478Y004579D01*
X015507Y004589D01*
X015536Y004596D01*
X015566Y004599D01*
X015597Y004598D01*
X015627Y004593D01*
X015656Y004584D01*
X015683Y004572D01*
X015709Y004557D01*
X015733Y004538D01*
X015754Y004516D01*
X015772Y004492D01*
X015787Y004465D01*
X015798Y004437D01*
X015806Y004408D01*
X015810Y004378D01*
X015810Y004348D01*
X015806Y004318D01*
X015798Y004289D01*
X015787Y004261D01*
X015772Y004234D01*
X015754Y004210D01*
X015733Y004188D01*
X015709Y004169D01*
X015683Y004154D01*
X015656Y004142D01*
X015627Y004133D01*
X015597Y004128D01*
X015566Y004127D01*
X015536Y004130D01*
X015507Y004137D01*
X015478Y004147D01*
X015452Y004161D01*
X015427Y004178D01*
X015404Y004199D01*
X015385Y004222D01*
X015368Y004247D01*
X015355Y004274D01*
X015346Y004303D01*
X015340Y004333D01*
X015338Y004363D01*
X015338Y005063D02*
X015340Y005093D01*
X015346Y005123D01*
X015355Y005152D01*
X015368Y005179D01*
X015385Y005204D01*
X015404Y005227D01*
X015427Y005248D01*
X015452Y005265D01*
X015478Y005279D01*
X015507Y005289D01*
X015536Y005296D01*
X015566Y005299D01*
X015597Y005298D01*
X015627Y005293D01*
X015656Y005284D01*
X015683Y005272D01*
X015709Y005257D01*
X015733Y005238D01*
X015754Y005216D01*
X015772Y005192D01*
X015787Y005165D01*
X015798Y005137D01*
X015806Y005108D01*
X015810Y005078D01*
X015810Y005048D01*
X015806Y005018D01*
X015798Y004989D01*
X015787Y004961D01*
X015772Y004934D01*
X015754Y004910D01*
X015733Y004888D01*
X015709Y004869D01*
X015683Y004854D01*
X015656Y004842D01*
X015627Y004833D01*
X015597Y004828D01*
X015566Y004827D01*
X015536Y004830D01*
X015507Y004837D01*
X015478Y004847D01*
X015452Y004861D01*
X015427Y004878D01*
X015404Y004899D01*
X015385Y004922D01*
X015368Y004947D01*
X015355Y004974D01*
X015346Y005003D01*
X015340Y005033D01*
X015338Y005063D01*
X015338Y005763D02*
X015340Y005793D01*
X015346Y005823D01*
X015355Y005852D01*
X015368Y005879D01*
X015385Y005904D01*
X015404Y005927D01*
X015427Y005948D01*
X015452Y005965D01*
X015478Y005979D01*
X015507Y005989D01*
X015536Y005996D01*
X015566Y005999D01*
X015597Y005998D01*
X015627Y005993D01*
X015656Y005984D01*
X015683Y005972D01*
X015709Y005957D01*
X015733Y005938D01*
X015754Y005916D01*
X015772Y005892D01*
X015787Y005865D01*
X015798Y005837D01*
X015806Y005808D01*
X015810Y005778D01*
X015810Y005748D01*
X015806Y005718D01*
X015798Y005689D01*
X015787Y005661D01*
X015772Y005634D01*
X015754Y005610D01*
X015733Y005588D01*
X015709Y005569D01*
X015683Y005554D01*
X015656Y005542D01*
X015627Y005533D01*
X015597Y005528D01*
X015566Y005527D01*
X015536Y005530D01*
X015507Y005537D01*
X015478Y005547D01*
X015452Y005561D01*
X015427Y005578D01*
X015404Y005599D01*
X015385Y005622D01*
X015368Y005647D01*
X015355Y005674D01*
X015346Y005703D01*
X015340Y005733D01*
X015338Y005763D01*
X015338Y006463D02*
X015340Y006493D01*
X015346Y006523D01*
X015355Y006552D01*
X015368Y006579D01*
X015385Y006604D01*
X015404Y006627D01*
X015427Y006648D01*
X015452Y006665D01*
X015478Y006679D01*
X015507Y006689D01*
X015536Y006696D01*
X015566Y006699D01*
X015597Y006698D01*
X015627Y006693D01*
X015656Y006684D01*
X015683Y006672D01*
X015709Y006657D01*
X015733Y006638D01*
X015754Y006616D01*
X015772Y006592D01*
X015787Y006565D01*
X015798Y006537D01*
X015806Y006508D01*
X015810Y006478D01*
X015810Y006448D01*
X015806Y006418D01*
X015798Y006389D01*
X015787Y006361D01*
X015772Y006334D01*
X015754Y006310D01*
X015733Y006288D01*
X015709Y006269D01*
X015683Y006254D01*
X015656Y006242D01*
X015627Y006233D01*
X015597Y006228D01*
X015566Y006227D01*
X015536Y006230D01*
X015507Y006237D01*
X015478Y006247D01*
X015452Y006261D01*
X015427Y006278D01*
X015404Y006299D01*
X015385Y006322D01*
X015368Y006347D01*
X015355Y006374D01*
X015346Y006403D01*
X015340Y006433D01*
X015338Y006463D01*
X015338Y007163D02*
X015340Y007193D01*
X015346Y007223D01*
X015355Y007252D01*
X015368Y007279D01*
X015385Y007304D01*
X015404Y007327D01*
X015427Y007348D01*
X015452Y007365D01*
X015478Y007379D01*
X015507Y007389D01*
X015536Y007396D01*
X015566Y007399D01*
X015597Y007398D01*
X015627Y007393D01*
X015656Y007384D01*
X015683Y007372D01*
X015709Y007357D01*
X015733Y007338D01*
X015754Y007316D01*
X015772Y007292D01*
X015787Y007265D01*
X015798Y007237D01*
X015806Y007208D01*
X015810Y007178D01*
X015810Y007148D01*
X015806Y007118D01*
X015798Y007089D01*
X015787Y007061D01*
X015772Y007034D01*
X015754Y007010D01*
X015733Y006988D01*
X015709Y006969D01*
X015683Y006954D01*
X015656Y006942D01*
X015627Y006933D01*
X015597Y006928D01*
X015566Y006927D01*
X015536Y006930D01*
X015507Y006937D01*
X015478Y006947D01*
X015452Y006961D01*
X015427Y006978D01*
X015404Y006999D01*
X015385Y007022D01*
X015368Y007047D01*
X015355Y007074D01*
X015346Y007103D01*
X015340Y007133D01*
X015338Y007163D01*
X015417Y008463D02*
X015419Y008488D01*
X015425Y008512D01*
X015434Y008534D01*
X015447Y008555D01*
X015463Y008574D01*
X015482Y008590D01*
X015503Y008603D01*
X015525Y008612D01*
X015549Y008618D01*
X015574Y008620D01*
X015599Y008618D01*
X015623Y008612D01*
X015645Y008603D01*
X015666Y008590D01*
X015685Y008574D01*
X015701Y008555D01*
X015714Y008534D01*
X015723Y008512D01*
X015729Y008488D01*
X015731Y008463D01*
X015729Y008438D01*
X015723Y008414D01*
X015714Y008392D01*
X015701Y008371D01*
X015685Y008352D01*
X015666Y008336D01*
X015645Y008323D01*
X015623Y008314D01*
X015599Y008308D01*
X015574Y008306D01*
X015549Y008308D01*
X015525Y008314D01*
X015503Y008323D01*
X015482Y008336D01*
X015463Y008352D01*
X015447Y008371D01*
X015434Y008392D01*
X015425Y008414D01*
X015419Y008438D01*
X015417Y008463D01*
X015417Y009463D02*
X015419Y009488D01*
X015425Y009512D01*
X015434Y009534D01*
X015447Y009555D01*
X015463Y009574D01*
X015482Y009590D01*
X015503Y009603D01*
X015525Y009612D01*
X015549Y009618D01*
X015574Y009620D01*
X015599Y009618D01*
X015623Y009612D01*
X015645Y009603D01*
X015666Y009590D01*
X015685Y009574D01*
X015701Y009555D01*
X015714Y009534D01*
X015723Y009512D01*
X015729Y009488D01*
X015731Y009463D01*
X015729Y009438D01*
X015723Y009414D01*
X015714Y009392D01*
X015701Y009371D01*
X015685Y009352D01*
X015666Y009336D01*
X015645Y009323D01*
X015623Y009314D01*
X015599Y009308D01*
X015574Y009306D01*
X015549Y009308D01*
X015525Y009314D01*
X015503Y009323D01*
X015482Y009336D01*
X015463Y009352D01*
X015447Y009371D01*
X015434Y009392D01*
X015425Y009414D01*
X015419Y009438D01*
X015417Y009463D01*
X015417Y010463D02*
X015419Y010488D01*
X015425Y010512D01*
X015434Y010534D01*
X015447Y010555D01*
X015463Y010574D01*
X015482Y010590D01*
X015503Y010603D01*
X015525Y010612D01*
X015549Y010618D01*
X015574Y010620D01*
X015599Y010618D01*
X015623Y010612D01*
X015645Y010603D01*
X015666Y010590D01*
X015685Y010574D01*
X015701Y010555D01*
X015714Y010534D01*
X015723Y010512D01*
X015729Y010488D01*
X015731Y010463D01*
X015729Y010438D01*
X015723Y010414D01*
X015714Y010392D01*
X015701Y010371D01*
X015685Y010352D01*
X015666Y010336D01*
X015645Y010323D01*
X015623Y010314D01*
X015599Y010308D01*
X015574Y010306D01*
X015549Y010308D01*
X015525Y010314D01*
X015503Y010323D01*
X015482Y010336D01*
X015463Y010352D01*
X015447Y010371D01*
X015434Y010392D01*
X015425Y010414D01*
X015419Y010438D01*
X015417Y010463D01*
X015456Y011463D02*
X015458Y011484D01*
X015464Y011504D01*
X015473Y011524D01*
X015485Y011541D01*
X015500Y011555D01*
X015518Y011567D01*
X015538Y011575D01*
X015558Y011580D01*
X015579Y011581D01*
X015600Y011578D01*
X015620Y011572D01*
X015639Y011561D01*
X015656Y011548D01*
X015669Y011532D01*
X015680Y011514D01*
X015688Y011494D01*
X015692Y011474D01*
X015692Y011452D01*
X015688Y011432D01*
X015680Y011412D01*
X015669Y011394D01*
X015656Y011378D01*
X015639Y011365D01*
X015620Y011354D01*
X015600Y011348D01*
X015579Y011345D01*
X015558Y011346D01*
X015538Y011351D01*
X015518Y011359D01*
X015500Y011371D01*
X015485Y011385D01*
X015473Y011402D01*
X015464Y011422D01*
X015458Y011442D01*
X015456Y011463D01*
X015456Y012463D02*
X015458Y012484D01*
X015464Y012504D01*
X015473Y012524D01*
X015485Y012541D01*
X015500Y012555D01*
X015518Y012567D01*
X015538Y012575D01*
X015558Y012580D01*
X015579Y012581D01*
X015600Y012578D01*
X015620Y012572D01*
X015639Y012561D01*
X015656Y012548D01*
X015669Y012532D01*
X015680Y012514D01*
X015688Y012494D01*
X015692Y012474D01*
X015692Y012452D01*
X015688Y012432D01*
X015680Y012412D01*
X015669Y012394D01*
X015656Y012378D01*
X015639Y012365D01*
X015620Y012354D01*
X015600Y012348D01*
X015579Y012345D01*
X015558Y012346D01*
X015538Y012351D01*
X015518Y012359D01*
X015500Y012371D01*
X015485Y012385D01*
X015473Y012402D01*
X015464Y012422D01*
X015458Y012442D01*
X015456Y012463D01*
X015417Y013463D02*
X015419Y013488D01*
X015425Y013512D01*
X015434Y013534D01*
X015447Y013555D01*
X015463Y013574D01*
X015482Y013590D01*
X015503Y013603D01*
X015525Y013612D01*
X015549Y013618D01*
X015574Y013620D01*
X015599Y013618D01*
X015623Y013612D01*
X015645Y013603D01*
X015666Y013590D01*
X015685Y013574D01*
X015701Y013555D01*
X015714Y013534D01*
X015723Y013512D01*
X015729Y013488D01*
X015731Y013463D01*
X015729Y013438D01*
X015723Y013414D01*
X015714Y013392D01*
X015701Y013371D01*
X015685Y013352D01*
X015666Y013336D01*
X015645Y013323D01*
X015623Y013314D01*
X015599Y013308D01*
X015574Y013306D01*
X015549Y013308D01*
X015525Y013314D01*
X015503Y013323D01*
X015482Y013336D01*
X015463Y013352D01*
X015447Y013371D01*
X015434Y013392D01*
X015425Y013414D01*
X015419Y013438D01*
X015417Y013463D01*
X015417Y014463D02*
X015419Y014488D01*
X015425Y014512D01*
X015434Y014534D01*
X015447Y014555D01*
X015463Y014574D01*
X015482Y014590D01*
X015503Y014603D01*
X015525Y014612D01*
X015549Y014618D01*
X015574Y014620D01*
X015599Y014618D01*
X015623Y014612D01*
X015645Y014603D01*
X015666Y014590D01*
X015685Y014574D01*
X015701Y014555D01*
X015714Y014534D01*
X015723Y014512D01*
X015729Y014488D01*
X015731Y014463D01*
X015729Y014438D01*
X015723Y014414D01*
X015714Y014392D01*
X015701Y014371D01*
X015685Y014352D01*
X015666Y014336D01*
X015645Y014323D01*
X015623Y014314D01*
X015599Y014308D01*
X015574Y014306D01*
X015549Y014308D01*
X015525Y014314D01*
X015503Y014323D01*
X015482Y014336D01*
X015463Y014352D01*
X015447Y014371D01*
X015434Y014392D01*
X015425Y014414D01*
X015419Y014438D01*
X015417Y014463D01*
X015417Y015463D02*
X015419Y015488D01*
X015425Y015512D01*
X015434Y015534D01*
X015447Y015555D01*
X015463Y015574D01*
X015482Y015590D01*
X015503Y015603D01*
X015525Y015612D01*
X015549Y015618D01*
X015574Y015620D01*
X015599Y015618D01*
X015623Y015612D01*
X015645Y015603D01*
X015666Y015590D01*
X015685Y015574D01*
X015701Y015555D01*
X015714Y015534D01*
X015723Y015512D01*
X015729Y015488D01*
X015731Y015463D01*
X015729Y015438D01*
X015723Y015414D01*
X015714Y015392D01*
X015701Y015371D01*
X015685Y015352D01*
X015666Y015336D01*
X015645Y015323D01*
X015623Y015314D01*
X015599Y015308D01*
X015574Y015306D01*
X015549Y015308D01*
X015525Y015314D01*
X015503Y015323D01*
X015482Y015336D01*
X015463Y015352D01*
X015447Y015371D01*
X015434Y015392D01*
X015425Y015414D01*
X015419Y015438D01*
X015417Y015463D01*
X015417Y016463D02*
X015419Y016488D01*
X015425Y016512D01*
X015434Y016534D01*
X015447Y016555D01*
X015463Y016574D01*
X015482Y016590D01*
X015503Y016603D01*
X015525Y016612D01*
X015549Y016618D01*
X015574Y016620D01*
X015599Y016618D01*
X015623Y016612D01*
X015645Y016603D01*
X015666Y016590D01*
X015685Y016574D01*
X015701Y016555D01*
X015714Y016534D01*
X015723Y016512D01*
X015729Y016488D01*
X015731Y016463D01*
X015729Y016438D01*
X015723Y016414D01*
X015714Y016392D01*
X015701Y016371D01*
X015685Y016352D01*
X015666Y016336D01*
X015645Y016323D01*
X015623Y016314D01*
X015599Y016308D01*
X015574Y016306D01*
X015549Y016308D01*
X015525Y016314D01*
X015503Y016323D01*
X015482Y016336D01*
X015463Y016352D01*
X015447Y016371D01*
X015434Y016392D01*
X015425Y016414D01*
X015419Y016438D01*
X015417Y016463D01*
X015417Y017463D02*
X015419Y017488D01*
X015425Y017512D01*
X015434Y017534D01*
X015447Y017555D01*
X015463Y017574D01*
X015482Y017590D01*
X015503Y017603D01*
X015525Y017612D01*
X015549Y017618D01*
X015574Y017620D01*
X015599Y017618D01*
X015623Y017612D01*
X015645Y017603D01*
X015666Y017590D01*
X015685Y017574D01*
X015701Y017555D01*
X015714Y017534D01*
X015723Y017512D01*
X015729Y017488D01*
X015731Y017463D01*
X015729Y017438D01*
X015723Y017414D01*
X015714Y017392D01*
X015701Y017371D01*
X015685Y017352D01*
X015666Y017336D01*
X015645Y017323D01*
X015623Y017314D01*
X015599Y017308D01*
X015574Y017306D01*
X015549Y017308D01*
X015525Y017314D01*
X015503Y017323D01*
X015482Y017336D01*
X015463Y017352D01*
X015447Y017371D01*
X015434Y017392D01*
X015425Y017414D01*
X015419Y017438D01*
X015417Y017463D01*
X015338Y018563D02*
X015340Y018593D01*
X015346Y018623D01*
X015355Y018652D01*
X015368Y018679D01*
X015385Y018704D01*
X015404Y018727D01*
X015427Y018748D01*
X015452Y018765D01*
X015478Y018779D01*
X015507Y018789D01*
X015536Y018796D01*
X015566Y018799D01*
X015597Y018798D01*
X015627Y018793D01*
X015656Y018784D01*
X015683Y018772D01*
X015709Y018757D01*
X015733Y018738D01*
X015754Y018716D01*
X015772Y018692D01*
X015787Y018665D01*
X015798Y018637D01*
X015806Y018608D01*
X015810Y018578D01*
X015810Y018548D01*
X015806Y018518D01*
X015798Y018489D01*
X015787Y018461D01*
X015772Y018434D01*
X015754Y018410D01*
X015733Y018388D01*
X015709Y018369D01*
X015683Y018354D01*
X015656Y018342D01*
X015627Y018333D01*
X015597Y018328D01*
X015566Y018327D01*
X015536Y018330D01*
X015507Y018337D01*
X015478Y018347D01*
X015452Y018361D01*
X015427Y018378D01*
X015404Y018399D01*
X015385Y018422D01*
X015368Y018447D01*
X015355Y018474D01*
X015346Y018503D01*
X015340Y018533D01*
X015338Y018563D01*
X015338Y019263D02*
X015340Y019293D01*
X015346Y019323D01*
X015355Y019352D01*
X015368Y019379D01*
X015385Y019404D01*
X015404Y019427D01*
X015427Y019448D01*
X015452Y019465D01*
X015478Y019479D01*
X015507Y019489D01*
X015536Y019496D01*
X015566Y019499D01*
X015597Y019498D01*
X015627Y019493D01*
X015656Y019484D01*
X015683Y019472D01*
X015709Y019457D01*
X015733Y019438D01*
X015754Y019416D01*
X015772Y019392D01*
X015787Y019365D01*
X015798Y019337D01*
X015806Y019308D01*
X015810Y019278D01*
X015810Y019248D01*
X015806Y019218D01*
X015798Y019189D01*
X015787Y019161D01*
X015772Y019134D01*
X015754Y019110D01*
X015733Y019088D01*
X015709Y019069D01*
X015683Y019054D01*
X015656Y019042D01*
X015627Y019033D01*
X015597Y019028D01*
X015566Y019027D01*
X015536Y019030D01*
X015507Y019037D01*
X015478Y019047D01*
X015452Y019061D01*
X015427Y019078D01*
X015404Y019099D01*
X015385Y019122D01*
X015368Y019147D01*
X015355Y019174D01*
X015346Y019203D01*
X015340Y019233D01*
X015338Y019263D01*
X015338Y019963D02*
X015340Y019993D01*
X015346Y020023D01*
X015355Y020052D01*
X015368Y020079D01*
X015385Y020104D01*
X015404Y020127D01*
X015427Y020148D01*
X015452Y020165D01*
X015478Y020179D01*
X015507Y020189D01*
X015536Y020196D01*
X015566Y020199D01*
X015597Y020198D01*
X015627Y020193D01*
X015656Y020184D01*
X015683Y020172D01*
X015709Y020157D01*
X015733Y020138D01*
X015754Y020116D01*
X015772Y020092D01*
X015787Y020065D01*
X015798Y020037D01*
X015806Y020008D01*
X015810Y019978D01*
X015810Y019948D01*
X015806Y019918D01*
X015798Y019889D01*
X015787Y019861D01*
X015772Y019834D01*
X015754Y019810D01*
X015733Y019788D01*
X015709Y019769D01*
X015683Y019754D01*
X015656Y019742D01*
X015627Y019733D01*
X015597Y019728D01*
X015566Y019727D01*
X015536Y019730D01*
X015507Y019737D01*
X015478Y019747D01*
X015452Y019761D01*
X015427Y019778D01*
X015404Y019799D01*
X015385Y019822D01*
X015368Y019847D01*
X015355Y019874D01*
X015346Y019903D01*
X015340Y019933D01*
X015338Y019963D01*
X015338Y020663D02*
X015340Y020693D01*
X015346Y020723D01*
X015355Y020752D01*
X015368Y020779D01*
X015385Y020804D01*
X015404Y020827D01*
X015427Y020848D01*
X015452Y020865D01*
X015478Y020879D01*
X015507Y020889D01*
X015536Y020896D01*
X015566Y020899D01*
X015597Y020898D01*
X015627Y020893D01*
X015656Y020884D01*
X015683Y020872D01*
X015709Y020857D01*
X015733Y020838D01*
X015754Y020816D01*
X015772Y020792D01*
X015787Y020765D01*
X015798Y020737D01*
X015806Y020708D01*
X015810Y020678D01*
X015810Y020648D01*
X015806Y020618D01*
X015798Y020589D01*
X015787Y020561D01*
X015772Y020534D01*
X015754Y020510D01*
X015733Y020488D01*
X015709Y020469D01*
X015683Y020454D01*
X015656Y020442D01*
X015627Y020433D01*
X015597Y020428D01*
X015566Y020427D01*
X015536Y020430D01*
X015507Y020437D01*
X015478Y020447D01*
X015452Y020461D01*
X015427Y020478D01*
X015404Y020499D01*
X015385Y020522D01*
X015368Y020547D01*
X015355Y020574D01*
X015346Y020603D01*
X015340Y020633D01*
X015338Y020663D01*
X015338Y021363D02*
X015340Y021393D01*
X015346Y021423D01*
X015355Y021452D01*
X015368Y021479D01*
X015385Y021504D01*
X015404Y021527D01*
X015427Y021548D01*
X015452Y021565D01*
X015478Y021579D01*
X015507Y021589D01*
X015536Y021596D01*
X015566Y021599D01*
X015597Y021598D01*
X015627Y021593D01*
X015656Y021584D01*
X015683Y021572D01*
X015709Y021557D01*
X015733Y021538D01*
X015754Y021516D01*
X015772Y021492D01*
X015787Y021465D01*
X015798Y021437D01*
X015806Y021408D01*
X015810Y021378D01*
X015810Y021348D01*
X015806Y021318D01*
X015798Y021289D01*
X015787Y021261D01*
X015772Y021234D01*
X015754Y021210D01*
X015733Y021188D01*
X015709Y021169D01*
X015683Y021154D01*
X015656Y021142D01*
X015627Y021133D01*
X015597Y021128D01*
X015566Y021127D01*
X015536Y021130D01*
X015507Y021137D01*
X015478Y021147D01*
X015452Y021161D01*
X015427Y021178D01*
X015404Y021199D01*
X015385Y021222D01*
X015368Y021247D01*
X015355Y021274D01*
X015346Y021303D01*
X015340Y021333D01*
X015338Y021363D01*
X015338Y022063D02*
X015340Y022093D01*
X015346Y022123D01*
X015355Y022152D01*
X015368Y022179D01*
X015385Y022204D01*
X015404Y022227D01*
X015427Y022248D01*
X015452Y022265D01*
X015478Y022279D01*
X015507Y022289D01*
X015536Y022296D01*
X015566Y022299D01*
X015597Y022298D01*
X015627Y022293D01*
X015656Y022284D01*
X015683Y022272D01*
X015709Y022257D01*
X015733Y022238D01*
X015754Y022216D01*
X015772Y022192D01*
X015787Y022165D01*
X015798Y022137D01*
X015806Y022108D01*
X015810Y022078D01*
X015810Y022048D01*
X015806Y022018D01*
X015798Y021989D01*
X015787Y021961D01*
X015772Y021934D01*
X015754Y021910D01*
X015733Y021888D01*
X015709Y021869D01*
X015683Y021854D01*
X015656Y021842D01*
X015627Y021833D01*
X015597Y021828D01*
X015566Y021827D01*
X015536Y021830D01*
X015507Y021837D01*
X015478Y021847D01*
X015452Y021861D01*
X015427Y021878D01*
X015404Y021899D01*
X015385Y021922D01*
X015368Y021947D01*
X015355Y021974D01*
X015346Y022003D01*
X015340Y022033D01*
X015338Y022063D01*
X004647Y020979D02*
X004649Y021005D01*
X004655Y021031D01*
X004665Y021056D01*
X004678Y021079D01*
X004694Y021099D01*
X004714Y021117D01*
X004736Y021132D01*
X004759Y021144D01*
X004785Y021152D01*
X004811Y021156D01*
X004837Y021156D01*
X004863Y021152D01*
X004889Y021144D01*
X004913Y021132D01*
X004934Y021117D01*
X004954Y021099D01*
X004970Y021079D01*
X004983Y021056D01*
X004993Y021031D01*
X004999Y021005D01*
X005001Y020979D01*
X004999Y020953D01*
X004993Y020927D01*
X004983Y020902D01*
X004970Y020879D01*
X004954Y020859D01*
X004934Y020841D01*
X004912Y020826D01*
X004889Y020814D01*
X004863Y020806D01*
X004837Y020802D01*
X004811Y020802D01*
X004785Y020806D01*
X004759Y020814D01*
X004735Y020826D01*
X004714Y020841D01*
X004694Y020859D01*
X004678Y020879D01*
X004665Y020902D01*
X004655Y020927D01*
X004649Y020953D01*
X004647Y020979D01*
X004647Y019247D02*
X004649Y019273D01*
X004655Y019299D01*
X004665Y019324D01*
X004678Y019347D01*
X004694Y019367D01*
X004714Y019385D01*
X004736Y019400D01*
X004759Y019412D01*
X004785Y019420D01*
X004811Y019424D01*
X004837Y019424D01*
X004863Y019420D01*
X004889Y019412D01*
X004913Y019400D01*
X004934Y019385D01*
X004954Y019367D01*
X004970Y019347D01*
X004983Y019324D01*
X004993Y019299D01*
X004999Y019273D01*
X005001Y019247D01*
X004999Y019221D01*
X004993Y019195D01*
X004983Y019170D01*
X004970Y019147D01*
X004954Y019127D01*
X004934Y019109D01*
X004912Y019094D01*
X004889Y019082D01*
X004863Y019074D01*
X004837Y019070D01*
X004811Y019070D01*
X004785Y019074D01*
X004759Y019082D01*
X004735Y019094D01*
X004714Y019109D01*
X004694Y019127D01*
X004678Y019147D01*
X004665Y019170D01*
X004655Y019195D01*
X004649Y019221D01*
X004647Y019247D01*
X004538Y011963D02*
X004540Y011993D01*
X004546Y012023D01*
X004555Y012052D01*
X004568Y012079D01*
X004585Y012104D01*
X004604Y012127D01*
X004627Y012148D01*
X004652Y012165D01*
X004678Y012179D01*
X004707Y012189D01*
X004736Y012196D01*
X004766Y012199D01*
X004797Y012198D01*
X004827Y012193D01*
X004856Y012184D01*
X004883Y012172D01*
X004909Y012157D01*
X004933Y012138D01*
X004954Y012116D01*
X004972Y012092D01*
X004987Y012065D01*
X004998Y012037D01*
X005006Y012008D01*
X005010Y011978D01*
X005010Y011948D01*
X005006Y011918D01*
X004998Y011889D01*
X004987Y011861D01*
X004972Y011834D01*
X004954Y011810D01*
X004933Y011788D01*
X004909Y011769D01*
X004883Y011754D01*
X004856Y011742D01*
X004827Y011733D01*
X004797Y011728D01*
X004766Y011727D01*
X004736Y011730D01*
X004707Y011737D01*
X004678Y011747D01*
X004652Y011761D01*
X004627Y011778D01*
X004604Y011799D01*
X004585Y011822D01*
X004568Y011847D01*
X004555Y011874D01*
X004546Y011903D01*
X004540Y011933D01*
X004538Y011963D01*
X003838Y011963D02*
X003840Y011993D01*
X003846Y012023D01*
X003855Y012052D01*
X003868Y012079D01*
X003885Y012104D01*
X003904Y012127D01*
X003927Y012148D01*
X003952Y012165D01*
X003978Y012179D01*
X004007Y012189D01*
X004036Y012196D01*
X004066Y012199D01*
X004097Y012198D01*
X004127Y012193D01*
X004156Y012184D01*
X004183Y012172D01*
X004209Y012157D01*
X004233Y012138D01*
X004254Y012116D01*
X004272Y012092D01*
X004287Y012065D01*
X004298Y012037D01*
X004306Y012008D01*
X004310Y011978D01*
X004310Y011948D01*
X004306Y011918D01*
X004298Y011889D01*
X004287Y011861D01*
X004272Y011834D01*
X004254Y011810D01*
X004233Y011788D01*
X004209Y011769D01*
X004183Y011754D01*
X004156Y011742D01*
X004127Y011733D01*
X004097Y011728D01*
X004066Y011727D01*
X004036Y011730D01*
X004007Y011737D01*
X003978Y011747D01*
X003952Y011761D01*
X003927Y011778D01*
X003904Y011799D01*
X003885Y011822D01*
X003868Y011847D01*
X003855Y011874D01*
X003846Y011903D01*
X003840Y011933D01*
X003838Y011963D01*
X003138Y011963D02*
X003140Y011993D01*
X003146Y012023D01*
X003155Y012052D01*
X003168Y012079D01*
X003185Y012104D01*
X003204Y012127D01*
X003227Y012148D01*
X003252Y012165D01*
X003278Y012179D01*
X003307Y012189D01*
X003336Y012196D01*
X003366Y012199D01*
X003397Y012198D01*
X003427Y012193D01*
X003456Y012184D01*
X003483Y012172D01*
X003509Y012157D01*
X003533Y012138D01*
X003554Y012116D01*
X003572Y012092D01*
X003587Y012065D01*
X003598Y012037D01*
X003606Y012008D01*
X003610Y011978D01*
X003610Y011948D01*
X003606Y011918D01*
X003598Y011889D01*
X003587Y011861D01*
X003572Y011834D01*
X003554Y011810D01*
X003533Y011788D01*
X003509Y011769D01*
X003483Y011754D01*
X003456Y011742D01*
X003427Y011733D01*
X003397Y011728D01*
X003366Y011727D01*
X003336Y011730D01*
X003307Y011737D01*
X003278Y011747D01*
X003252Y011761D01*
X003227Y011778D01*
X003204Y011799D01*
X003185Y011822D01*
X003168Y011847D01*
X003155Y011874D01*
X003146Y011903D01*
X003140Y011933D01*
X003138Y011963D01*
X005238Y011963D02*
X005240Y011993D01*
X005246Y012023D01*
X005255Y012052D01*
X005268Y012079D01*
X005285Y012104D01*
X005304Y012127D01*
X005327Y012148D01*
X005352Y012165D01*
X005378Y012179D01*
X005407Y012189D01*
X005436Y012196D01*
X005466Y012199D01*
X005497Y012198D01*
X005527Y012193D01*
X005556Y012184D01*
X005583Y012172D01*
X005609Y012157D01*
X005633Y012138D01*
X005654Y012116D01*
X005672Y012092D01*
X005687Y012065D01*
X005698Y012037D01*
X005706Y012008D01*
X005710Y011978D01*
X005710Y011948D01*
X005706Y011918D01*
X005698Y011889D01*
X005687Y011861D01*
X005672Y011834D01*
X005654Y011810D01*
X005633Y011788D01*
X005609Y011769D01*
X005583Y011754D01*
X005556Y011742D01*
X005527Y011733D01*
X005497Y011728D01*
X005466Y011727D01*
X005436Y011730D01*
X005407Y011737D01*
X005378Y011747D01*
X005352Y011761D01*
X005327Y011778D01*
X005304Y011799D01*
X005285Y011822D01*
X005268Y011847D01*
X005255Y011874D01*
X005246Y011903D01*
X005240Y011933D01*
X005238Y011963D01*
X005938Y011963D02*
X005940Y011993D01*
X005946Y012023D01*
X005955Y012052D01*
X005968Y012079D01*
X005985Y012104D01*
X006004Y012127D01*
X006027Y012148D01*
X006052Y012165D01*
X006078Y012179D01*
X006107Y012189D01*
X006136Y012196D01*
X006166Y012199D01*
X006197Y012198D01*
X006227Y012193D01*
X006256Y012184D01*
X006283Y012172D01*
X006309Y012157D01*
X006333Y012138D01*
X006354Y012116D01*
X006372Y012092D01*
X006387Y012065D01*
X006398Y012037D01*
X006406Y012008D01*
X006410Y011978D01*
X006410Y011948D01*
X006406Y011918D01*
X006398Y011889D01*
X006387Y011861D01*
X006372Y011834D01*
X006354Y011810D01*
X006333Y011788D01*
X006309Y011769D01*
X006283Y011754D01*
X006256Y011742D01*
X006227Y011733D01*
X006197Y011728D01*
X006166Y011727D01*
X006136Y011730D01*
X006107Y011737D01*
X006078Y011747D01*
X006052Y011761D01*
X006027Y011778D01*
X006004Y011799D01*
X005985Y011822D01*
X005968Y011847D01*
X005955Y011874D01*
X005946Y011903D01*
X005940Y011933D01*
X005938Y011963D01*
X006638Y011963D02*
X006640Y011993D01*
X006646Y012023D01*
X006655Y012052D01*
X006668Y012079D01*
X006685Y012104D01*
X006704Y012127D01*
X006727Y012148D01*
X006752Y012165D01*
X006778Y012179D01*
X006807Y012189D01*
X006836Y012196D01*
X006866Y012199D01*
X006897Y012198D01*
X006927Y012193D01*
X006956Y012184D01*
X006983Y012172D01*
X007009Y012157D01*
X007033Y012138D01*
X007054Y012116D01*
X007072Y012092D01*
X007087Y012065D01*
X007098Y012037D01*
X007106Y012008D01*
X007110Y011978D01*
X007110Y011948D01*
X007106Y011918D01*
X007098Y011889D01*
X007087Y011861D01*
X007072Y011834D01*
X007054Y011810D01*
X007033Y011788D01*
X007009Y011769D01*
X006983Y011754D01*
X006956Y011742D01*
X006927Y011733D01*
X006897Y011728D01*
X006866Y011727D01*
X006836Y011730D01*
X006807Y011737D01*
X006778Y011747D01*
X006752Y011761D01*
X006727Y011778D01*
X006704Y011799D01*
X006685Y011822D01*
X006668Y011847D01*
X006655Y011874D01*
X006646Y011903D01*
X006640Y011933D01*
X006638Y011963D01*
X007338Y011963D02*
X007340Y011993D01*
X007346Y012023D01*
X007355Y012052D01*
X007368Y012079D01*
X007385Y012104D01*
X007404Y012127D01*
X007427Y012148D01*
X007452Y012165D01*
X007478Y012179D01*
X007507Y012189D01*
X007536Y012196D01*
X007566Y012199D01*
X007597Y012198D01*
X007627Y012193D01*
X007656Y012184D01*
X007683Y012172D01*
X007709Y012157D01*
X007733Y012138D01*
X007754Y012116D01*
X007772Y012092D01*
X007787Y012065D01*
X007798Y012037D01*
X007806Y012008D01*
X007810Y011978D01*
X007810Y011948D01*
X007806Y011918D01*
X007798Y011889D01*
X007787Y011861D01*
X007772Y011834D01*
X007754Y011810D01*
X007733Y011788D01*
X007709Y011769D01*
X007683Y011754D01*
X007656Y011742D01*
X007627Y011733D01*
X007597Y011728D01*
X007566Y011727D01*
X007536Y011730D01*
X007507Y011737D01*
X007478Y011747D01*
X007452Y011761D01*
X007427Y011778D01*
X007404Y011799D01*
X007385Y011822D01*
X007368Y011847D01*
X007355Y011874D01*
X007346Y011903D01*
X007340Y011933D01*
X007338Y011963D01*
X008038Y011963D02*
X008040Y011993D01*
X008046Y012023D01*
X008055Y012052D01*
X008068Y012079D01*
X008085Y012104D01*
X008104Y012127D01*
X008127Y012148D01*
X008152Y012165D01*
X008178Y012179D01*
X008207Y012189D01*
X008236Y012196D01*
X008266Y012199D01*
X008297Y012198D01*
X008327Y012193D01*
X008356Y012184D01*
X008383Y012172D01*
X008409Y012157D01*
X008433Y012138D01*
X008454Y012116D01*
X008472Y012092D01*
X008487Y012065D01*
X008498Y012037D01*
X008506Y012008D01*
X008510Y011978D01*
X008510Y011948D01*
X008506Y011918D01*
X008498Y011889D01*
X008487Y011861D01*
X008472Y011834D01*
X008454Y011810D01*
X008433Y011788D01*
X008409Y011769D01*
X008383Y011754D01*
X008356Y011742D01*
X008327Y011733D01*
X008297Y011728D01*
X008266Y011727D01*
X008236Y011730D01*
X008207Y011737D01*
X008178Y011747D01*
X008152Y011761D01*
X008127Y011778D01*
X008104Y011799D01*
X008085Y011822D01*
X008068Y011847D01*
X008055Y011874D01*
X008046Y011903D01*
X008040Y011933D01*
X008038Y011963D01*
X008738Y011963D02*
X008740Y011993D01*
X008746Y012023D01*
X008755Y012052D01*
X008768Y012079D01*
X008785Y012104D01*
X008804Y012127D01*
X008827Y012148D01*
X008852Y012165D01*
X008878Y012179D01*
X008907Y012189D01*
X008936Y012196D01*
X008966Y012199D01*
X008997Y012198D01*
X009027Y012193D01*
X009056Y012184D01*
X009083Y012172D01*
X009109Y012157D01*
X009133Y012138D01*
X009154Y012116D01*
X009172Y012092D01*
X009187Y012065D01*
X009198Y012037D01*
X009206Y012008D01*
X009210Y011978D01*
X009210Y011948D01*
X009206Y011918D01*
X009198Y011889D01*
X009187Y011861D01*
X009172Y011834D01*
X009154Y011810D01*
X009133Y011788D01*
X009109Y011769D01*
X009083Y011754D01*
X009056Y011742D01*
X009027Y011733D01*
X008997Y011728D01*
X008966Y011727D01*
X008936Y011730D01*
X008907Y011737D01*
X008878Y011747D01*
X008852Y011761D01*
X008827Y011778D01*
X008804Y011799D01*
X008785Y011822D01*
X008768Y011847D01*
X008755Y011874D01*
X008746Y011903D01*
X008740Y011933D01*
X008738Y011963D01*
X009438Y011963D02*
X009440Y011993D01*
X009446Y012023D01*
X009455Y012052D01*
X009468Y012079D01*
X009485Y012104D01*
X009504Y012127D01*
X009527Y012148D01*
X009552Y012165D01*
X009578Y012179D01*
X009607Y012189D01*
X009636Y012196D01*
X009666Y012199D01*
X009697Y012198D01*
X009727Y012193D01*
X009756Y012184D01*
X009783Y012172D01*
X009809Y012157D01*
X009833Y012138D01*
X009854Y012116D01*
X009872Y012092D01*
X009887Y012065D01*
X009898Y012037D01*
X009906Y012008D01*
X009910Y011978D01*
X009910Y011948D01*
X009906Y011918D01*
X009898Y011889D01*
X009887Y011861D01*
X009872Y011834D01*
X009854Y011810D01*
X009833Y011788D01*
X009809Y011769D01*
X009783Y011754D01*
X009756Y011742D01*
X009727Y011733D01*
X009697Y011728D01*
X009666Y011727D01*
X009636Y011730D01*
X009607Y011737D01*
X009578Y011747D01*
X009552Y011761D01*
X009527Y011778D01*
X009504Y011799D01*
X009485Y011822D01*
X009468Y011847D01*
X009455Y011874D01*
X009446Y011903D01*
X009440Y011933D01*
X009438Y011963D01*
X010138Y011963D02*
X010140Y011993D01*
X010146Y012023D01*
X010155Y012052D01*
X010168Y012079D01*
X010185Y012104D01*
X010204Y012127D01*
X010227Y012148D01*
X010252Y012165D01*
X010278Y012179D01*
X010307Y012189D01*
X010336Y012196D01*
X010366Y012199D01*
X010397Y012198D01*
X010427Y012193D01*
X010456Y012184D01*
X010483Y012172D01*
X010509Y012157D01*
X010533Y012138D01*
X010554Y012116D01*
X010572Y012092D01*
X010587Y012065D01*
X010598Y012037D01*
X010606Y012008D01*
X010610Y011978D01*
X010610Y011948D01*
X010606Y011918D01*
X010598Y011889D01*
X010587Y011861D01*
X010572Y011834D01*
X010554Y011810D01*
X010533Y011788D01*
X010509Y011769D01*
X010483Y011754D01*
X010456Y011742D01*
X010427Y011733D01*
X010397Y011728D01*
X010366Y011727D01*
X010336Y011730D01*
X010307Y011737D01*
X010278Y011747D01*
X010252Y011761D01*
X010227Y011778D01*
X010204Y011799D01*
X010185Y011822D01*
X010168Y011847D01*
X010155Y011874D01*
X010146Y011903D01*
X010140Y011933D01*
X010138Y011963D01*
X010838Y011963D02*
X010840Y011993D01*
X010846Y012023D01*
X010855Y012052D01*
X010868Y012079D01*
X010885Y012104D01*
X010904Y012127D01*
X010927Y012148D01*
X010952Y012165D01*
X010978Y012179D01*
X011007Y012189D01*
X011036Y012196D01*
X011066Y012199D01*
X011097Y012198D01*
X011127Y012193D01*
X011156Y012184D01*
X011183Y012172D01*
X011209Y012157D01*
X011233Y012138D01*
X011254Y012116D01*
X011272Y012092D01*
X011287Y012065D01*
X011298Y012037D01*
X011306Y012008D01*
X011310Y011978D01*
X011310Y011948D01*
X011306Y011918D01*
X011298Y011889D01*
X011287Y011861D01*
X011272Y011834D01*
X011254Y011810D01*
X011233Y011788D01*
X011209Y011769D01*
X011183Y011754D01*
X011156Y011742D01*
X011127Y011733D01*
X011097Y011728D01*
X011066Y011727D01*
X011036Y011730D01*
X011007Y011737D01*
X010978Y011747D01*
X010952Y011761D01*
X010927Y011778D01*
X010904Y011799D01*
X010885Y011822D01*
X010868Y011847D01*
X010855Y011874D01*
X010846Y011903D01*
X010840Y011933D01*
X010838Y011963D01*
X011538Y011963D02*
X011540Y011993D01*
X011546Y012023D01*
X011555Y012052D01*
X011568Y012079D01*
X011585Y012104D01*
X011604Y012127D01*
X011627Y012148D01*
X011652Y012165D01*
X011678Y012179D01*
X011707Y012189D01*
X011736Y012196D01*
X011766Y012199D01*
X011797Y012198D01*
X011827Y012193D01*
X011856Y012184D01*
X011883Y012172D01*
X011909Y012157D01*
X011933Y012138D01*
X011954Y012116D01*
X011972Y012092D01*
X011987Y012065D01*
X011998Y012037D01*
X012006Y012008D01*
X012010Y011978D01*
X012010Y011948D01*
X012006Y011918D01*
X011998Y011889D01*
X011987Y011861D01*
X011972Y011834D01*
X011954Y011810D01*
X011933Y011788D01*
X011909Y011769D01*
X011883Y011754D01*
X011856Y011742D01*
X011827Y011733D01*
X011797Y011728D01*
X011766Y011727D01*
X011736Y011730D01*
X011707Y011737D01*
X011678Y011747D01*
X011652Y011761D01*
X011627Y011778D01*
X011604Y011799D01*
X011585Y011822D01*
X011568Y011847D01*
X011555Y011874D01*
X011546Y011903D01*
X011540Y011933D01*
X011538Y011963D01*
M02*
