G75*
G70*
%OFA0B0*%
%FSLAX24Y24*%
%IPPOS*%
%LPD*%
%AMOC8*
5,1,8,0,0,1.08239X$1,22.5*
%
%ADD10C,0.0552*%
%ADD11C,0.0395*%
%ADD12C,0.0316*%
%ADD13OC8,0.0680*%
%ADD14C,0.0680*%
%ADD15C,0.0600*%
%ADD16R,0.0789X0.0710*%
%ADD17R,0.1419X0.0828*%
%ADD18C,0.0600*%
%ADD19C,0.0789*%
%ADD20R,0.0710X0.0789*%
%ADD21OC8,0.1980*%
%ADD22R,0.0790X0.0710*%
%ADD23R,0.0789X0.0631*%
%ADD24R,0.0710X0.0790*%
%ADD25C,0.0434*%
%ADD26C,0.0635*%
D10*
X015574Y000863D03*
X015574Y001563D03*
X015574Y002263D03*
X015574Y002963D03*
X015574Y003663D03*
X015574Y004363D03*
X015574Y005063D03*
X015574Y005763D03*
X015574Y006463D03*
X015574Y007163D03*
X011774Y011963D03*
X011074Y011963D03*
X010374Y011963D03*
X009674Y011963D03*
X008974Y011963D03*
X008274Y011963D03*
X007574Y011963D03*
X006874Y011963D03*
X006174Y011963D03*
X005474Y011963D03*
X004774Y011963D03*
X004074Y011963D03*
X003374Y011963D03*
X015574Y018563D03*
X015574Y019263D03*
X015574Y019963D03*
X015574Y020663D03*
X015574Y021363D03*
X015574Y022063D03*
D11*
X015574Y017463D03*
X015574Y016463D03*
X015574Y015463D03*
X015574Y014463D03*
X015574Y013463D03*
X015574Y010463D03*
X015574Y009463D03*
X015574Y008463D03*
D12*
X015574Y011463D03*
X015574Y012463D03*
D13*
X014324Y019563D03*
X013324Y019563D03*
X013324Y020563D03*
X014324Y020563D03*
X014324Y021563D03*
X013324Y021563D03*
X032410Y013348D03*
X033410Y013348D03*
X033410Y012348D03*
X032410Y012348D03*
X032410Y011348D03*
X033410Y011348D03*
D14*
X030567Y010628D02*
X030207Y010628D01*
X028007Y010628D02*
X027647Y010628D01*
X027647Y012408D02*
X028007Y012408D01*
X030207Y012408D02*
X030567Y012408D01*
X030350Y020198D02*
X030350Y020558D01*
X030349Y021198D02*
X030349Y021558D01*
X029349Y021558D02*
X029349Y021198D01*
X029350Y020558D02*
X029350Y020198D01*
X028350Y020198D02*
X028350Y020558D01*
X028349Y021198D02*
X028349Y021558D01*
X027349Y021558D02*
X027349Y021198D01*
X027350Y020558D02*
X027350Y020198D01*
X026350Y020198D02*
X026350Y020558D01*
X025350Y020558D02*
X025350Y020198D01*
X025349Y021198D02*
X025349Y021558D01*
X026349Y021558D02*
X026349Y021198D01*
X023670Y020558D02*
X023670Y020198D01*
X022670Y020198D02*
X022670Y020558D01*
X022349Y021198D02*
X022349Y021558D01*
X021349Y021558D02*
X021349Y021198D01*
X021670Y020558D02*
X021670Y020198D01*
X020670Y020198D02*
X020670Y020558D01*
X020349Y021198D02*
X020349Y021558D01*
X019349Y021558D02*
X019349Y021198D01*
X019670Y020558D02*
X019670Y020198D01*
X018670Y020198D02*
X018670Y020558D01*
X018349Y021198D02*
X018349Y021558D01*
X017349Y021558D02*
X017349Y021198D01*
X017670Y020558D02*
X017670Y020198D01*
X016670Y020198D02*
X016670Y020558D01*
X016349Y021198D02*
X016349Y021558D01*
X016394Y017963D02*
X016754Y017963D01*
X016754Y016963D02*
X016394Y016963D01*
X016394Y015963D02*
X016754Y015963D01*
X016754Y014963D02*
X016394Y014963D01*
X016394Y013963D02*
X016754Y013963D01*
X016754Y012963D02*
X016394Y012963D01*
X014654Y012963D02*
X014294Y012963D01*
X014294Y013963D02*
X014654Y013963D01*
X014654Y014963D02*
X014294Y014963D01*
X014294Y015963D02*
X014654Y015963D01*
X014654Y016963D02*
X014294Y016963D01*
X014294Y017963D02*
X014654Y017963D01*
X012999Y012958D02*
X012639Y012958D01*
X012639Y011958D02*
X012999Y011958D01*
X012999Y010958D02*
X012639Y010958D01*
X014294Y010963D02*
X014654Y010963D01*
X014654Y009963D02*
X014294Y009963D01*
X014294Y008963D02*
X014654Y008963D01*
X014654Y007963D02*
X014294Y007963D01*
X016394Y007963D02*
X016754Y007963D01*
X016754Y008963D02*
X016394Y008963D01*
X016394Y009963D02*
X016754Y009963D01*
X016754Y010963D02*
X016394Y010963D01*
X020258Y002528D02*
X020258Y002168D01*
X020259Y001528D02*
X020259Y001168D01*
X021259Y001168D02*
X021259Y001528D01*
X021258Y002168D02*
X021258Y002528D01*
X022258Y002528D02*
X022258Y002168D01*
X022259Y001528D02*
X022259Y001168D01*
X023259Y001168D02*
X023259Y001528D01*
X023258Y002168D02*
X023258Y002528D01*
X024258Y002528D02*
X024258Y002168D01*
X025258Y002168D02*
X025258Y002528D01*
X025259Y001528D02*
X025259Y001168D01*
X024259Y001168D02*
X024259Y001528D01*
X027229Y001548D02*
X027229Y001188D01*
X028229Y001188D02*
X028229Y001548D01*
X028230Y002188D02*
X028230Y002548D01*
X027230Y002548D02*
X027230Y002188D01*
X029230Y002188D02*
X029230Y002548D01*
X030230Y002548D02*
X030230Y002188D01*
X031230Y002188D02*
X031230Y002548D01*
X032230Y002548D02*
X032230Y002188D01*
X032229Y001548D02*
X032229Y001188D01*
X031229Y001188D02*
X031229Y001548D01*
X030229Y001548D02*
X030229Y001188D01*
X029229Y001188D02*
X029229Y001548D01*
X031350Y020198D02*
X031350Y020558D01*
X031349Y021198D02*
X031349Y021558D01*
X032349Y021558D02*
X032349Y021198D01*
X032350Y020558D02*
X032350Y020198D01*
X023349Y021198D02*
X023349Y021558D01*
D15*
X011730Y021813D02*
X011418Y021813D01*
X011418Y020813D02*
X011730Y020813D01*
X011730Y019813D02*
X011418Y019813D01*
X011418Y018813D02*
X011730Y018813D01*
X011730Y017813D02*
X011418Y017813D01*
X011418Y016813D02*
X011730Y016813D01*
X011730Y015813D02*
X011418Y015813D01*
X011418Y014813D02*
X011730Y014813D01*
X011730Y013813D02*
X011418Y013813D01*
X011418Y012813D02*
X011730Y012813D01*
X008730Y012813D02*
X008418Y012813D01*
X008418Y013813D02*
X008730Y013813D01*
X008730Y014813D02*
X008418Y014813D01*
X008418Y015813D02*
X008730Y015813D01*
X008730Y016813D02*
X008418Y016813D01*
X008418Y017813D02*
X008730Y017813D01*
X008730Y018813D02*
X008418Y018813D01*
X008418Y019813D02*
X008730Y019813D01*
X008730Y020813D02*
X008418Y020813D01*
X008418Y021813D02*
X008730Y021813D01*
X019562Y008745D02*
X019562Y008433D01*
X020562Y008433D02*
X020562Y008745D01*
X021562Y008745D02*
X021562Y008433D01*
X022562Y008433D02*
X022562Y008745D01*
X023562Y008745D02*
X023562Y008433D01*
X024562Y008433D02*
X024562Y008745D01*
X025562Y008745D02*
X025562Y008433D01*
X026562Y008433D02*
X026562Y008745D01*
X027562Y008745D02*
X027562Y008433D01*
X028562Y008433D02*
X028562Y008745D01*
X029562Y008745D02*
X029562Y008433D01*
X030562Y008433D02*
X030562Y008745D01*
X031562Y008745D02*
X031562Y008433D01*
X032562Y008433D02*
X032562Y008745D01*
X032562Y005745D02*
X032562Y005433D01*
X031562Y005433D02*
X031562Y005745D01*
X030562Y005745D02*
X030562Y005433D01*
X029562Y005433D02*
X029562Y005745D01*
X028562Y005745D02*
X028562Y005433D01*
X027562Y005433D02*
X027562Y005745D01*
X026562Y005745D02*
X026562Y005433D01*
X025562Y005433D02*
X025562Y005745D01*
X024562Y005745D02*
X024562Y005433D01*
X023562Y005433D02*
X023562Y005745D01*
X022562Y005745D02*
X022562Y005433D01*
X021562Y005433D02*
X021562Y005745D01*
X020562Y005745D02*
X020562Y005433D01*
X019562Y005433D02*
X019562Y005745D01*
D16*
X012860Y008918D03*
X012860Y010020D03*
X010126Y013565D03*
X010126Y014668D03*
D17*
X010095Y015949D03*
X010095Y017485D03*
D18*
X006274Y015913D03*
X006274Y014013D03*
X024370Y012650D03*
X024370Y010750D03*
D19*
X012055Y005772D03*
X008055Y005772D03*
D20*
X013423Y006763D03*
X014525Y006763D03*
X027124Y007095D03*
X028226Y007095D03*
D21*
X005863Y002707D03*
X007043Y004677D03*
X004683Y004677D03*
D22*
X003524Y019553D03*
X003524Y020673D03*
D23*
X007124Y020644D03*
X007124Y019482D03*
X007124Y018144D03*
X007124Y021982D03*
D24*
X012404Y018393D03*
X013524Y018393D03*
X013524Y016843D03*
X012404Y016843D03*
D25*
X004824Y019247D03*
X004824Y020979D03*
D26*
X024274Y007163D03*
X033374Y004263D03*
M02*
