G75*
G70*
%OFA0B0*%
%FSLAX24Y24*%
%IPPOS*%
%LPD*%
%AMOC8*
5,1,8,0,0,1.08239X$1,22.5*
%
%ADD10R,0.5000X0.1500*%
%ADD11OC8,0.0600*%
%ADD12R,0.0630X0.0710*%
%ADD13R,0.0630X0.0709*%
%ADD14C,0.0600*%
%ADD15R,0.0551X0.1181*%
%ADD16R,0.0630X0.1024*%
%ADD17R,0.0710X0.0630*%
%ADD18R,0.1024X0.0630*%
%ADD19R,0.2126X0.2441*%
%ADD20R,0.0394X0.0630*%
%ADD21R,0.0709X0.0630*%
%ADD22C,0.0520*%
%ADD23C,0.0520*%
%ADD24R,0.0500X0.0579*%
%ADD25OC8,0.1900*%
%ADD26R,0.2441X0.2126*%
%ADD27R,0.0630X0.0394*%
%ADD28R,0.0984X0.0197*%
%ADD29R,0.0984X0.0787*%
%ADD30C,0.0240*%
%ADD31C,0.0100*%
%ADD32C,0.0476*%
%ADD33C,0.0120*%
%ADD34C,0.0160*%
%ADD35C,0.0437*%
%ADD36C,0.0555*%
D10*
X005774Y010913D03*
D11*
X013324Y019563D03*
X014324Y019563D03*
X014324Y020563D03*
X013324Y020563D03*
X013324Y021563D03*
X014324Y021563D03*
X032410Y013348D03*
X033410Y013348D03*
X033410Y012348D03*
X032410Y012348D03*
X032410Y011348D03*
X033410Y011348D03*
D12*
X028802Y013517D03*
X027682Y013517D03*
X027684Y014605D03*
X028804Y014605D03*
X019683Y014214D03*
X018563Y014214D03*
X018563Y015586D03*
X019683Y015586D03*
D13*
X014525Y006763D03*
X013423Y006763D03*
X013448Y005760D03*
X014550Y005760D03*
X023378Y004048D03*
X024480Y004048D03*
X025534Y004285D03*
X026636Y004285D03*
D14*
X027230Y002548D02*
X027230Y002188D01*
X027229Y001548D02*
X027229Y001188D01*
X028229Y001188D02*
X028229Y001548D01*
X028230Y002188D02*
X028230Y002548D01*
X029230Y002548D02*
X029230Y002188D01*
X029229Y001548D02*
X029229Y001188D01*
X030229Y001188D02*
X030229Y001548D01*
X031229Y001548D02*
X031229Y001188D01*
X032229Y001188D02*
X032229Y001548D01*
X032230Y002188D02*
X032230Y002548D01*
X031230Y002548D02*
X031230Y002188D01*
X030230Y002188D02*
X030230Y002548D01*
X025258Y002528D02*
X025258Y002168D01*
X024258Y002168D02*
X024258Y002528D01*
X023258Y002528D02*
X023258Y002168D01*
X023259Y001528D02*
X023259Y001168D01*
X022259Y001168D02*
X022259Y001528D01*
X022258Y002168D02*
X022258Y002528D01*
X021258Y002528D02*
X021258Y002168D01*
X021259Y001528D02*
X021259Y001168D01*
X020259Y001168D02*
X020259Y001528D01*
X020258Y002168D02*
X020258Y002528D01*
X024259Y001528D02*
X024259Y001168D01*
X025259Y001168D02*
X025259Y001528D01*
X016754Y007963D02*
X016394Y007963D01*
X016394Y008963D02*
X016754Y008963D01*
X016754Y009963D02*
X016394Y009963D01*
X016394Y010963D02*
X016754Y010963D01*
X014654Y010963D02*
X014294Y010963D01*
X014294Y009963D02*
X014654Y009963D01*
X014654Y008963D02*
X014294Y008963D01*
X014294Y007963D02*
X014654Y007963D01*
X012999Y010958D02*
X012639Y010958D01*
X012639Y011958D02*
X012999Y011958D01*
X012999Y012958D02*
X012639Y012958D01*
X014294Y012963D02*
X014654Y012963D01*
X014654Y013963D02*
X014294Y013963D01*
X014294Y014963D02*
X014654Y014963D01*
X014654Y015963D02*
X014294Y015963D01*
X014294Y016963D02*
X014654Y016963D01*
X014654Y017963D02*
X014294Y017963D01*
X016394Y017963D02*
X016754Y017963D01*
X016754Y016963D02*
X016394Y016963D01*
X016394Y015963D02*
X016754Y015963D01*
X016754Y014963D02*
X016394Y014963D01*
X016394Y013963D02*
X016754Y013963D01*
X016754Y012963D02*
X016394Y012963D01*
X016670Y020198D02*
X016670Y020558D01*
X016349Y021198D02*
X016349Y021558D01*
X017349Y021558D02*
X017349Y021198D01*
X017670Y020558D02*
X017670Y020198D01*
X018670Y020198D02*
X018670Y020558D01*
X019670Y020558D02*
X019670Y020198D01*
X020670Y020198D02*
X020670Y020558D01*
X020349Y021198D02*
X020349Y021558D01*
X019349Y021558D02*
X019349Y021198D01*
X018349Y021198D02*
X018349Y021558D01*
X021349Y021558D02*
X021349Y021198D01*
X021670Y020558D02*
X021670Y020198D01*
X022670Y020198D02*
X022670Y020558D01*
X022349Y021198D02*
X022349Y021558D01*
X023349Y021558D02*
X023349Y021198D01*
X023670Y020558D02*
X023670Y020198D01*
X025350Y020198D02*
X025350Y020558D01*
X026350Y020558D02*
X026350Y020198D01*
X027350Y020198D02*
X027350Y020558D01*
X027349Y021198D02*
X027349Y021558D01*
X026349Y021558D02*
X026349Y021198D01*
X025349Y021198D02*
X025349Y021558D01*
X028349Y021558D02*
X028349Y021198D01*
X028350Y020558D02*
X028350Y020198D01*
X029350Y020198D02*
X029350Y020558D01*
X029349Y021198D02*
X029349Y021558D01*
X030349Y021558D02*
X030349Y021198D01*
X030350Y020558D02*
X030350Y020198D01*
X031350Y020198D02*
X031350Y020558D01*
X031349Y021198D02*
X031349Y021558D01*
X032349Y021558D02*
X032349Y021198D01*
X032350Y020558D02*
X032350Y020198D01*
X030567Y012408D02*
X030207Y012408D01*
X028007Y012408D02*
X027647Y012408D01*
X027647Y010628D02*
X028007Y010628D01*
X030207Y010628D02*
X030567Y010628D01*
D15*
X013279Y004152D03*
X013279Y002262D03*
X010051Y002178D03*
X010051Y004068D03*
D16*
X012383Y016853D03*
X013505Y016853D03*
X013505Y018353D03*
X012383Y018353D03*
X029783Y013665D03*
X030905Y013665D03*
D17*
X019725Y017770D03*
X019725Y018890D03*
X007124Y018353D03*
X007124Y019473D03*
X007124Y020663D03*
X007124Y021783D03*
D18*
X018338Y018911D03*
X018338Y017789D03*
D19*
X010151Y010162D03*
D20*
X009253Y007288D03*
X011049Y007288D03*
D21*
X012848Y008921D03*
X012848Y010024D03*
X018659Y011429D03*
X018659Y012532D03*
X026080Y012162D03*
X026081Y011283D03*
X026081Y010180D03*
X026080Y013264D03*
X004224Y013162D03*
X004224Y014264D03*
X004224Y015862D03*
X004224Y016964D03*
D22*
X008418Y016813D02*
X008730Y016813D01*
X008730Y015813D02*
X008418Y015813D01*
X008418Y014813D02*
X008730Y014813D01*
X008730Y013813D02*
X008418Y013813D01*
X008418Y012813D02*
X008730Y012813D01*
X011418Y012813D02*
X011730Y012813D01*
X011730Y013813D02*
X011418Y013813D01*
X011418Y014813D02*
X011730Y014813D01*
X011730Y015813D02*
X011418Y015813D01*
X011418Y016813D02*
X011730Y016813D01*
X011730Y017813D02*
X011418Y017813D01*
X011418Y018813D02*
X011730Y018813D01*
X011730Y019813D02*
X011418Y019813D01*
X011418Y020813D02*
X011730Y020813D01*
X011730Y021813D02*
X011418Y021813D01*
X008730Y021813D02*
X008418Y021813D01*
X008418Y020813D02*
X008730Y020813D01*
X008730Y019813D02*
X008418Y019813D01*
X008418Y018813D02*
X008730Y018813D01*
X008730Y017813D02*
X008418Y017813D01*
X019562Y008745D02*
X019562Y008433D01*
X020562Y008433D02*
X020562Y008745D01*
X021562Y008745D02*
X021562Y008433D01*
X022562Y008433D02*
X022562Y008745D01*
X023562Y008745D02*
X023562Y008433D01*
X024562Y008433D02*
X024562Y008745D01*
X025562Y008745D02*
X025562Y008433D01*
X026562Y008433D02*
X026562Y008745D01*
X027562Y008745D02*
X027562Y008433D01*
X028562Y008433D02*
X028562Y008745D01*
X029562Y008745D02*
X029562Y008433D01*
X030562Y008433D02*
X030562Y008745D01*
X031562Y008745D02*
X031562Y008433D01*
X032562Y008433D02*
X032562Y008745D01*
X032562Y005745D02*
X032562Y005433D01*
X031562Y005433D02*
X031562Y005745D01*
X030562Y005745D02*
X030562Y005433D01*
X029562Y005433D02*
X029562Y005745D01*
X028562Y005745D02*
X028562Y005433D01*
X027562Y005433D02*
X027562Y005745D01*
X026562Y005745D02*
X026562Y005433D01*
X025562Y005433D02*
X025562Y005745D01*
X024562Y005745D02*
X024562Y005433D01*
X023562Y005433D02*
X023562Y005745D01*
X022562Y005745D02*
X022562Y005433D01*
X021562Y005433D02*
X021562Y005745D01*
X020562Y005745D02*
X020562Y005433D01*
X019562Y005433D02*
X019562Y005745D01*
D23*
X024370Y010750D03*
X024370Y012650D03*
X006274Y014013D03*
X006274Y015913D03*
D24*
X009309Y005772D03*
X011002Y005772D03*
D25*
X007043Y004677D03*
X004683Y004677D03*
X005863Y002707D03*
D26*
X004590Y008063D03*
D27*
X007464Y008960D03*
X007464Y007165D03*
D28*
X005808Y019483D03*
X005808Y019798D03*
X005808Y020113D03*
X005808Y020428D03*
X005808Y020743D03*
D29*
X005808Y021884D03*
X003643Y021884D03*
X003643Y018341D03*
X005808Y018341D03*
D30*
X014474Y017963D02*
X015574Y017963D01*
X016674Y017963D01*
X016674Y016963D02*
X015574Y016963D01*
X014474Y016963D01*
X014474Y015963D02*
X014674Y015963D01*
X014574Y015863D01*
X014674Y015963D02*
X015574Y015963D01*
X016574Y015963D01*
X016574Y014963D02*
X015574Y014963D01*
X014474Y014963D01*
X014474Y013963D02*
X015574Y013963D01*
X016574Y013963D01*
X016574Y012963D02*
X015574Y012963D01*
X014474Y012963D01*
X014474Y010963D02*
X014074Y010963D01*
X014474Y010963D02*
X015574Y010963D01*
X016574Y010963D01*
X016574Y009963D02*
X015574Y009963D01*
X014474Y009963D01*
X014474Y008963D02*
X015574Y008963D01*
X016574Y008963D01*
X017374Y008563D01*
X017374Y004763D01*
X018074Y003663D01*
X022274Y003663D01*
X022274Y002364D01*
X022258Y002348D01*
X022274Y003663D02*
X022659Y004048D01*
X023378Y004048D01*
X016574Y007963D02*
X015674Y007963D01*
X015574Y007963D02*
X014674Y007963D01*
X014525Y007963D01*
X014525Y006763D01*
X013448Y005760D02*
X013448Y004152D01*
X013279Y004152D01*
X013448Y005760D02*
X011002Y005760D01*
X011002Y005772D01*
X011002Y007288D01*
X011049Y007288D01*
X010051Y008963D02*
X007464Y008963D01*
X007464Y008960D01*
X010051Y008963D02*
X010051Y010162D01*
X010151Y010162D01*
X010074Y010162D01*
X010074Y010963D01*
X012819Y010963D01*
X012819Y010958D01*
X010051Y008963D02*
X010051Y004068D01*
X009309Y005772D02*
X008158Y005792D01*
X007043Y004677D01*
X014474Y007963D02*
X014674Y007963D01*
D31*
X019562Y008589D02*
X019562Y010351D01*
X023674Y014463D01*
X023674Y020863D01*
X022670Y020559D02*
X022670Y020378D01*
X022670Y020559D02*
X022474Y020363D01*
X022470Y014459D01*
X022174Y013963D01*
X021670Y013459D02*
X021174Y012963D01*
X021670Y013459D02*
X021670Y020378D01*
X019725Y019012D02*
X019725Y018890D01*
X020647Y018890D01*
X021174Y018763D01*
X021174Y017063D01*
X020574Y017463D02*
X020574Y017563D01*
X020574Y017463D02*
X019683Y016571D01*
X019683Y015586D01*
X018563Y014214D02*
X018563Y013674D01*
X018874Y013363D01*
X019174Y013363D01*
X019274Y013363D01*
X018659Y012532D02*
X018928Y012263D01*
X019474Y012263D01*
X019574Y011363D02*
X018725Y011363D01*
X018659Y011429D01*
X020562Y010751D02*
X025274Y015463D01*
X025274Y020302D01*
X026350Y020378D02*
X026374Y020254D01*
X026374Y015963D01*
X021562Y011151D01*
X021562Y008589D01*
X020562Y008589D02*
X020562Y010751D01*
X022562Y011551D02*
X027074Y016063D01*
X027074Y020263D01*
X027674Y018063D02*
X030674Y018063D01*
X031874Y017163D02*
X027674Y017163D01*
X027682Y013517D02*
X026874Y012708D01*
X026874Y009163D01*
X026562Y008851D01*
X026562Y008589D01*
X024562Y008589D02*
X024562Y010558D01*
X024370Y010750D01*
X024903Y011283D01*
X026081Y011283D01*
X026080Y012162D02*
X026078Y012163D01*
X024674Y012163D01*
X024624Y012213D01*
X024370Y012467D01*
X024370Y012650D01*
X022562Y011551D02*
X022562Y008589D01*
X025562Y005589D02*
X025534Y004285D01*
X012819Y012958D02*
X012824Y014263D01*
X012574Y014263D01*
X013374Y013763D02*
X013374Y015863D01*
X014474Y015863D01*
X014474Y015963D01*
X014474Y016963D02*
X014474Y017463D01*
X013974Y017463D01*
X013974Y017563D01*
X013074Y017563D01*
X012974Y017463D01*
X012974Y015363D01*
X010874Y015363D01*
X010874Y013813D01*
X011574Y013813D01*
X013374Y013763D02*
X013474Y013763D01*
X009274Y013813D02*
X008574Y013813D01*
X009274Y013813D02*
X009274Y021263D01*
X007124Y021263D01*
X007124Y021783D01*
X007124Y020663D02*
X007874Y020663D01*
X007774Y020363D01*
X007124Y020428D02*
X007124Y020663D01*
X007124Y020428D02*
X005808Y020428D01*
X005808Y020163D02*
X006974Y020163D01*
X006974Y019473D01*
X007124Y019473D01*
X007124Y019463D01*
X007774Y019363D01*
X008574Y018813D02*
X008574Y018353D01*
X007124Y018353D01*
X005074Y019663D02*
X005074Y020113D01*
X005808Y020113D01*
X005808Y020163D01*
X005808Y020743D02*
X005174Y020743D01*
X005174Y020563D01*
X004274Y020563D01*
X004274Y020363D01*
X004274Y019663D02*
X005074Y019663D01*
X008574Y021813D02*
X010874Y021813D01*
X010874Y020263D01*
X012674Y020263D01*
X012674Y020063D01*
X014324Y020063D01*
X014324Y020563D01*
X013324Y019563D02*
X013324Y019063D01*
X014374Y019063D01*
X014374Y017963D01*
X014474Y017963D01*
X014374Y019063D02*
X014874Y019063D01*
X014874Y022163D01*
X012574Y022163D01*
X012574Y021813D01*
X011574Y021813D01*
X011574Y019813D02*
X011024Y019813D01*
X010974Y019763D01*
X010974Y017263D01*
X011973Y017263D01*
X012383Y016853D01*
X012383Y018353D02*
X012383Y018813D01*
X011574Y018813D01*
X016670Y019567D02*
X017374Y018863D01*
X016670Y019567D02*
X016670Y020378D01*
X018338Y017789D02*
X019706Y017789D01*
X019725Y017770D01*
D32*
X020574Y017563D03*
X021174Y017063D03*
X020974Y016363D03*
X023074Y015963D03*
X023074Y014963D03*
X022174Y013963D03*
X021174Y012963D03*
X019474Y012263D03*
X019574Y011363D03*
X018874Y010463D03*
X015574Y010963D03*
X015574Y009963D03*
X015574Y008963D03*
X015574Y007963D03*
X019474Y004463D03*
X021874Y006463D03*
X022074Y007763D03*
X015574Y012963D03*
X015574Y013963D03*
X015574Y014963D03*
X015574Y015963D03*
X015574Y016963D03*
X015574Y017963D03*
X017774Y015963D03*
X019174Y013363D03*
X013474Y013763D03*
X012574Y014263D03*
X007774Y019363D03*
X007774Y020363D03*
X004274Y020363D03*
X004274Y019663D03*
X027674Y019563D03*
X027674Y018863D03*
X027674Y018063D03*
X027674Y017163D03*
X027674Y016263D03*
X030574Y016263D03*
X031874Y017163D03*
X030674Y018063D03*
D33*
X003214Y006163D02*
X003214Y000609D01*
X015267Y000609D01*
X015238Y000638D01*
X015178Y000784D01*
X015178Y000942D01*
X015238Y001087D01*
X015350Y001199D01*
X015384Y001213D01*
X015350Y001227D01*
X015238Y001338D01*
X015178Y001484D01*
X015178Y001642D01*
X015238Y001787D01*
X015350Y001899D01*
X015384Y001913D01*
X015350Y001927D01*
X015238Y002038D01*
X015178Y002184D01*
X015178Y002342D01*
X015238Y002487D01*
X015350Y002599D01*
X015384Y002613D01*
X015350Y002627D01*
X015238Y002738D01*
X015178Y002884D01*
X015178Y003042D01*
X015238Y003187D01*
X015350Y003299D01*
X015384Y003313D01*
X015350Y003327D01*
X015238Y003438D01*
X015178Y003584D01*
X015178Y003742D01*
X015238Y003887D01*
X015350Y003999D01*
X015384Y004013D01*
X015350Y004027D01*
X015238Y004138D01*
X015178Y004284D01*
X015178Y004442D01*
X015238Y004587D01*
X015350Y004699D01*
X015384Y004713D01*
X015350Y004727D01*
X015238Y004838D01*
X015178Y004984D01*
X015178Y005142D01*
X015238Y005287D01*
X015350Y005399D01*
X015384Y005413D01*
X015350Y005427D01*
X015238Y005538D01*
X015178Y005684D01*
X015178Y005842D01*
X015238Y005987D01*
X015350Y006099D01*
X015384Y006113D01*
X015350Y006127D01*
X015238Y006238D01*
X015178Y006384D01*
X015178Y006542D01*
X015238Y006687D01*
X015350Y006799D01*
X015384Y006813D01*
X015350Y006827D01*
X015238Y006938D01*
X015178Y007084D01*
X015178Y007242D01*
X015238Y007387D01*
X015350Y007499D01*
X015476Y007551D01*
X015337Y007608D01*
X015283Y007663D01*
X015033Y007663D01*
X014926Y007556D01*
X014825Y007514D01*
X014825Y007297D01*
X014915Y007297D01*
X015020Y007192D01*
X015020Y006334D01*
X014946Y006260D01*
X015025Y006181D01*
X015025Y005820D01*
X014610Y005820D01*
X014610Y005700D01*
X014610Y005246D01*
X014931Y005246D01*
X015025Y005340D01*
X015025Y005700D01*
X014610Y005700D01*
X014490Y005700D01*
X014490Y005246D01*
X014169Y005246D01*
X014075Y005340D01*
X014075Y005700D01*
X014490Y005700D01*
X014490Y005820D01*
X014075Y005820D01*
X014075Y006181D01*
X014129Y006235D01*
X014030Y006334D01*
X014030Y006672D01*
X014026Y006684D01*
X014026Y006842D01*
X014030Y006853D01*
X014030Y007192D01*
X014136Y007297D01*
X014225Y007297D01*
X014225Y007483D01*
X014199Y007483D01*
X014022Y007556D01*
X013887Y007691D01*
X013834Y007819D01*
X013834Y007511D01*
X013794Y007416D01*
X013721Y007342D01*
X013626Y007303D01*
X013522Y007303D01*
X012834Y007303D01*
X012834Y006060D01*
X012953Y006060D01*
X012953Y006189D01*
X013027Y006263D01*
X012948Y006342D01*
X012948Y006703D01*
X013363Y006703D01*
X013363Y006823D01*
X013363Y007277D01*
X013042Y007277D01*
X012948Y007183D01*
X012948Y006823D01*
X013363Y006823D01*
X013483Y006823D01*
X013483Y007277D01*
X013804Y007277D01*
X013898Y007183D01*
X013898Y006823D01*
X013483Y006823D01*
X013483Y006703D01*
X013898Y006703D01*
X013898Y006342D01*
X013844Y006288D01*
X013943Y006189D01*
X013943Y005331D01*
X013837Y005226D01*
X013748Y005226D01*
X013748Y004212D01*
X013748Y004092D01*
X013735Y004061D01*
X013735Y003487D01*
X013629Y003381D01*
X013551Y003381D01*
X013545Y003376D01*
X013496Y003376D01*
X013490Y003381D01*
X012929Y003381D01*
X012824Y003487D01*
X012824Y004817D01*
X012929Y004923D01*
X013148Y004923D01*
X013148Y005226D01*
X013058Y005226D01*
X012953Y005331D01*
X012953Y005460D01*
X011432Y005460D01*
X012953Y005460D01*
X012953Y005342D02*
X011366Y005342D01*
X011326Y005302D02*
X011432Y005408D01*
X011432Y005460D01*
X011326Y005302D02*
X010677Y005302D01*
X010572Y005408D01*
X010572Y006135D01*
X010677Y006241D01*
X010702Y006241D01*
X010702Y006869D01*
X010672Y006899D01*
X010672Y007678D01*
X010777Y007783D01*
X011320Y007783D01*
X011425Y007678D01*
X011425Y006899D01*
X011320Y006793D01*
X011302Y006793D01*
X011302Y006241D01*
X011326Y006241D01*
X011432Y006135D01*
X011432Y006082D01*
X012314Y006082D01*
X012314Y007511D01*
X012314Y007615D01*
X012354Y007710D01*
X012427Y007783D01*
X012522Y007823D01*
X013314Y007823D01*
X013314Y008464D01*
X013277Y008426D01*
X012474Y008426D01*
X012474Y008063D01*
X010350Y008063D01*
X010350Y007484D01*
X010492Y007484D01*
X010527Y007449D01*
X010527Y006649D01*
X010492Y006614D01*
X010350Y006614D01*
X010350Y004838D01*
X010401Y004838D01*
X010506Y004733D01*
X010506Y003403D01*
X010401Y003297D01*
X009700Y003297D01*
X009595Y003403D01*
X009595Y004733D01*
X009700Y004838D01*
X009751Y004838D01*
X009751Y007399D01*
X009610Y007399D01*
X009610Y007326D01*
X009292Y007326D01*
X009292Y007250D01*
X009610Y007250D01*
X009610Y006907D01*
X009516Y006813D01*
X009292Y006813D01*
X009292Y007249D01*
X009215Y007249D01*
X009215Y006813D01*
X008990Y006813D01*
X008897Y006907D01*
X008897Y007250D01*
X009215Y007250D01*
X009215Y007326D01*
X008897Y007326D01*
X008897Y007669D01*
X008990Y007763D01*
X009215Y007763D01*
X009215Y007519D01*
X009292Y007519D01*
X009292Y007763D01*
X009516Y007763D01*
X009610Y007669D01*
X009610Y007519D01*
X009751Y007519D01*
X009751Y008063D01*
X007074Y008063D01*
X007074Y007513D01*
X007083Y007522D01*
X007425Y007522D01*
X007425Y007204D01*
X007502Y007204D01*
X007502Y007522D01*
X007845Y007522D01*
X007939Y007428D01*
X007939Y007204D01*
X007502Y007204D01*
X007502Y007127D01*
X007939Y007127D01*
X007939Y006902D01*
X007845Y006808D01*
X007502Y006808D01*
X007502Y007126D01*
X007425Y007126D01*
X007425Y006808D01*
X007083Y006808D01*
X007074Y006817D01*
X007074Y006163D01*
X003759Y006163D01*
X003759Y005965D01*
X003724Y005930D01*
X003674Y005930D01*
X003639Y005965D01*
X003639Y006163D01*
X003214Y006163D01*
X003214Y006053D02*
X003639Y006053D01*
X003759Y006053D02*
X008003Y006053D01*
X007992Y006049D02*
X007990Y006047D01*
X007988Y006046D01*
X007947Y006005D01*
X007906Y005966D01*
X007905Y005963D01*
X007836Y005894D01*
X007388Y005894D01*
X007353Y005859D01*
X007353Y005809D01*
X007355Y005807D01*
X006575Y005807D01*
X005913Y005145D01*
X005913Y004715D01*
X004743Y004715D01*
X004743Y004736D01*
X005793Y004736D01*
X005793Y005136D01*
X005142Y005787D01*
X004743Y005787D01*
X004743Y004737D01*
X004623Y004737D01*
X004623Y005787D01*
X004223Y005787D01*
X003573Y005136D01*
X003573Y004736D01*
X004623Y004736D01*
X004623Y004715D01*
X004248Y004715D01*
X004213Y004680D01*
X004213Y004630D01*
X004226Y004617D01*
X003573Y004617D01*
X003573Y004217D01*
X004223Y003567D01*
X004623Y003567D01*
X004623Y004595D01*
X004743Y004595D01*
X004743Y003567D01*
X005142Y003567D01*
X005793Y004217D01*
X005793Y004595D01*
X005913Y004595D01*
X005913Y004209D01*
X006305Y003817D01*
X005923Y003817D01*
X005923Y002966D01*
X005803Y002966D01*
X005803Y003817D01*
X005403Y003817D01*
X004753Y003166D01*
X004753Y002766D01*
X005803Y002766D01*
X005803Y002647D01*
X004753Y002647D01*
X004753Y002247D01*
X005403Y001597D01*
X005803Y001597D01*
X005803Y002646D01*
X005923Y002646D01*
X005923Y001597D01*
X006322Y001597D01*
X006973Y002247D01*
X006973Y002462D01*
X009615Y002459D01*
X009615Y002238D01*
X009990Y002238D01*
X009990Y002118D01*
X009615Y002118D01*
X009615Y001521D01*
X009709Y001427D01*
X009991Y001427D01*
X009991Y002118D01*
X010110Y002118D01*
X010110Y001427D01*
X010392Y001427D01*
X010486Y001521D01*
X010486Y002118D01*
X010111Y002118D01*
X010111Y002238D01*
X010486Y002238D01*
X010486Y002458D01*
X012844Y002456D01*
X012844Y002322D01*
X013219Y002322D01*
X013219Y002202D01*
X013339Y002202D01*
X013339Y001512D01*
X013621Y001512D01*
X013715Y001605D01*
X013715Y002202D01*
X013616Y002202D01*
X013616Y002322D01*
X013715Y002322D01*
X013715Y002919D01*
X013621Y003013D01*
X013339Y003013D01*
X013339Y002575D01*
X013219Y002575D01*
X013219Y003013D01*
X012937Y003013D01*
X012844Y002919D01*
X012844Y002576D01*
X010486Y002578D01*
X010486Y002835D01*
X010392Y002928D01*
X010110Y002928D01*
X010110Y002579D01*
X009991Y002579D01*
X009991Y002928D01*
X009709Y002928D01*
X009615Y002835D01*
X009615Y002579D01*
X006973Y002582D01*
X006973Y002647D01*
X005923Y002647D01*
X005923Y002766D01*
X006973Y002766D01*
X006973Y003166D01*
X006592Y003547D01*
X007511Y003547D01*
X008173Y004209D01*
X008173Y004595D01*
X008469Y004595D01*
X008504Y004630D01*
X008504Y004680D01*
X008469Y004715D01*
X008173Y004715D01*
X008173Y005145D01*
X008054Y005263D01*
X008280Y005489D01*
X008879Y005479D01*
X008879Y005408D01*
X008984Y005302D01*
X009633Y005302D01*
X009739Y005408D01*
X009739Y006135D01*
X009633Y006241D01*
X009035Y006241D01*
X009035Y006517D01*
X009000Y006552D01*
X008200Y006552D01*
X008165Y006517D01*
X008165Y006093D01*
X008166Y006092D01*
X008160Y006092D01*
X008103Y006093D01*
X008101Y006092D01*
X008098Y006092D01*
X008045Y006070D01*
X007992Y006049D01*
X007876Y005934D02*
X003729Y005934D01*
X003670Y005934D02*
X003214Y005934D01*
X003214Y005816D02*
X007353Y005816D01*
X007074Y006171D02*
X008165Y006171D01*
X008165Y006290D02*
X007074Y006290D01*
X007074Y006409D02*
X008165Y006409D01*
X008174Y006527D02*
X007074Y006527D01*
X007074Y006646D02*
X009751Y006646D01*
X009751Y006764D02*
X007074Y006764D01*
X007425Y006883D02*
X007502Y006883D01*
X007502Y007001D02*
X007425Y007001D01*
X007425Y007120D02*
X007502Y007120D01*
X007502Y007238D02*
X007425Y007238D01*
X007425Y007357D02*
X007502Y007357D01*
X007502Y007475D02*
X007425Y007475D01*
X007074Y007594D02*
X008897Y007594D01*
X008897Y007475D02*
X007892Y007475D01*
X007939Y007357D02*
X008897Y007357D01*
X008897Y007238D02*
X007939Y007238D01*
X007939Y007120D02*
X008897Y007120D01*
X008897Y007001D02*
X007939Y007001D01*
X007919Y006883D02*
X008921Y006883D01*
X009215Y006883D02*
X009292Y006883D01*
X009292Y007001D02*
X009215Y007001D01*
X009215Y007120D02*
X009292Y007120D01*
X009292Y007238D02*
X009215Y007238D01*
X009610Y007238D02*
X009751Y007238D01*
X009751Y007120D02*
X009610Y007120D01*
X009610Y007001D02*
X009751Y007001D01*
X009751Y006883D02*
X009586Y006883D01*
X009751Y006527D02*
X009025Y006527D01*
X009035Y006409D02*
X009751Y006409D01*
X009751Y006290D02*
X009035Y006290D01*
X009703Y006171D02*
X009751Y006171D01*
X009739Y006053D02*
X009751Y006053D01*
X009739Y005934D02*
X009751Y005934D01*
X009739Y005816D02*
X009751Y005816D01*
X009739Y005697D02*
X009751Y005697D01*
X009739Y005579D02*
X009751Y005579D01*
X009739Y005460D02*
X009751Y005460D01*
X009751Y005342D02*
X009673Y005342D01*
X009751Y005223D02*
X008094Y005223D01*
X008132Y005342D02*
X008945Y005342D01*
X008879Y005460D02*
X008251Y005460D01*
X008173Y005105D02*
X009751Y005105D01*
X009751Y004986D02*
X008173Y004986D01*
X008173Y004867D02*
X009751Y004867D01*
X009611Y004749D02*
X008173Y004749D01*
X008173Y004512D02*
X009595Y004512D01*
X009595Y004630D02*
X008504Y004630D01*
X008173Y004393D02*
X009595Y004393D01*
X009595Y004275D02*
X008173Y004275D01*
X008120Y004156D02*
X009595Y004156D01*
X009595Y004038D02*
X008002Y004038D01*
X007883Y003919D02*
X009595Y003919D01*
X009595Y003801D02*
X007765Y003801D01*
X007646Y003682D02*
X009595Y003682D01*
X009595Y003564D02*
X007528Y003564D01*
X006931Y003208D02*
X015259Y003208D01*
X015198Y003089D02*
X006973Y003089D01*
X006973Y002971D02*
X012895Y002971D01*
X012844Y002852D02*
X010469Y002852D01*
X010486Y002734D02*
X012844Y002734D01*
X012844Y002615D02*
X010486Y002615D01*
X010486Y002378D02*
X012844Y002378D01*
X012844Y002202D02*
X012844Y001605D01*
X012937Y001512D01*
X013219Y001512D01*
X013219Y002202D01*
X012844Y002202D01*
X012844Y002141D02*
X010111Y002141D01*
X010110Y002022D02*
X009991Y002022D01*
X009991Y001904D02*
X010110Y001904D01*
X010110Y001785D02*
X009991Y001785D01*
X009991Y001667D02*
X010110Y001667D01*
X010110Y001548D02*
X009991Y001548D01*
X009991Y001430D02*
X010110Y001430D01*
X010395Y001430D02*
X015200Y001430D01*
X015178Y001548D02*
X013658Y001548D01*
X013715Y001667D02*
X015188Y001667D01*
X015237Y001785D02*
X013715Y001785D01*
X013715Y001904D02*
X015362Y001904D01*
X015254Y002022D02*
X013715Y002022D01*
X013715Y002141D02*
X015196Y002141D01*
X015178Y002260D02*
X013616Y002260D01*
X013715Y002378D02*
X015193Y002378D01*
X015247Y002497D02*
X013715Y002497D01*
X013715Y002615D02*
X015378Y002615D01*
X015243Y002734D02*
X013715Y002734D01*
X013715Y002852D02*
X015191Y002852D01*
X015178Y002971D02*
X013663Y002971D01*
X013339Y002971D02*
X013219Y002971D01*
X013219Y002852D02*
X013339Y002852D01*
X013339Y002734D02*
X013219Y002734D01*
X013219Y002615D02*
X013339Y002615D01*
X013219Y002260D02*
X010486Y002260D01*
X010486Y002022D02*
X012844Y002022D01*
X012844Y001904D02*
X010486Y001904D01*
X010486Y001785D02*
X012844Y001785D01*
X012844Y001667D02*
X010486Y001667D01*
X010486Y001548D02*
X012901Y001548D01*
X013219Y001548D02*
X013339Y001548D01*
X013339Y001667D02*
X013219Y001667D01*
X013219Y001785D02*
X013339Y001785D01*
X013339Y001904D02*
X013219Y001904D01*
X013219Y002022D02*
X013339Y002022D01*
X013339Y002141D02*
X013219Y002141D01*
X012866Y003445D02*
X010506Y003445D01*
X010506Y003564D02*
X012824Y003564D01*
X012824Y003682D02*
X010506Y003682D01*
X010506Y003801D02*
X012824Y003801D01*
X012824Y003919D02*
X010506Y003919D01*
X010506Y004038D02*
X012824Y004038D01*
X012824Y004156D02*
X010506Y004156D01*
X010506Y004275D02*
X012824Y004275D01*
X012824Y004393D02*
X010506Y004393D01*
X010506Y004512D02*
X012824Y004512D01*
X012824Y004630D02*
X010506Y004630D01*
X010490Y004749D02*
X012824Y004749D01*
X012874Y004867D02*
X010542Y004867D01*
X010542Y004824D02*
X010507Y004789D01*
X010457Y004789D01*
X010422Y004824D01*
X010422Y005421D01*
X010457Y005456D01*
X010507Y005456D01*
X010542Y005421D01*
X010542Y004824D01*
X010422Y004867D02*
X010350Y004867D01*
X010350Y004986D02*
X010422Y004986D01*
X010422Y005105D02*
X010350Y005105D01*
X010350Y005223D02*
X010422Y005223D01*
X010422Y005342D02*
X010350Y005342D01*
X010350Y005460D02*
X010572Y005460D01*
X010572Y005579D02*
X010350Y005579D01*
X010350Y005697D02*
X010572Y005697D01*
X010572Y005816D02*
X010350Y005816D01*
X010350Y005934D02*
X010572Y005934D01*
X010572Y006053D02*
X010350Y006053D01*
X010350Y006171D02*
X010608Y006171D01*
X010702Y006290D02*
X010350Y006290D01*
X010350Y006409D02*
X010702Y006409D01*
X010702Y006527D02*
X010350Y006527D01*
X010523Y006646D02*
X010702Y006646D01*
X010702Y006764D02*
X010527Y006764D01*
X010527Y006883D02*
X010688Y006883D01*
X010672Y007001D02*
X010527Y007001D01*
X010527Y007120D02*
X010672Y007120D01*
X010672Y007238D02*
X010527Y007238D01*
X010527Y007357D02*
X010672Y007357D01*
X010672Y007475D02*
X010500Y007475D01*
X010350Y007594D02*
X010672Y007594D01*
X010707Y007713D02*
X010350Y007713D01*
X010350Y007831D02*
X013314Y007831D01*
X013314Y007950D02*
X010350Y007950D01*
X009751Y007950D02*
X007074Y007950D01*
X007074Y007831D02*
X009751Y007831D01*
X009751Y007713D02*
X009567Y007713D01*
X009610Y007594D02*
X009751Y007594D01*
X009751Y007357D02*
X009610Y007357D01*
X009292Y007594D02*
X009215Y007594D01*
X009215Y007713D02*
X009292Y007713D01*
X008940Y007713D02*
X007074Y007713D01*
X006465Y005697D02*
X005232Y005697D01*
X005350Y005579D02*
X006347Y005579D01*
X006228Y005460D02*
X005469Y005460D01*
X005587Y005342D02*
X006110Y005342D01*
X005991Y005223D02*
X005706Y005223D01*
X005793Y005105D02*
X005913Y005105D01*
X005913Y004986D02*
X005793Y004986D01*
X005793Y004867D02*
X005913Y004867D01*
X005913Y004749D02*
X005793Y004749D01*
X005793Y004512D02*
X005913Y004512D01*
X005913Y004393D02*
X005793Y004393D01*
X005793Y004275D02*
X005913Y004275D01*
X005965Y004156D02*
X005732Y004156D01*
X005614Y004038D02*
X006084Y004038D01*
X006202Y003919D02*
X005495Y003919D01*
X005387Y003801D02*
X005376Y003801D01*
X005269Y003682D02*
X005258Y003682D01*
X005150Y003564D02*
X003214Y003564D01*
X003214Y003682D02*
X004108Y003682D01*
X003989Y003801D02*
X003214Y003801D01*
X003214Y003919D02*
X003870Y003919D01*
X003752Y004038D02*
X003214Y004038D01*
X003214Y004156D02*
X003633Y004156D01*
X003573Y004275D02*
X003214Y004275D01*
X003214Y004393D02*
X003573Y004393D01*
X003573Y004512D02*
X003214Y004512D01*
X003214Y004630D02*
X004213Y004630D01*
X003573Y004749D02*
X003214Y004749D01*
X003214Y004867D02*
X003573Y004867D01*
X003573Y004986D02*
X003214Y004986D01*
X003214Y005105D02*
X003573Y005105D01*
X003660Y005223D02*
X003214Y005223D01*
X003214Y005342D02*
X003778Y005342D01*
X003897Y005460D02*
X003214Y005460D01*
X003214Y005579D02*
X004015Y005579D01*
X004134Y005697D02*
X003214Y005697D01*
X004623Y005697D02*
X004743Y005697D01*
X004743Y005579D02*
X004623Y005579D01*
X004623Y005460D02*
X004743Y005460D01*
X004743Y005342D02*
X004623Y005342D01*
X004623Y005223D02*
X004743Y005223D01*
X004743Y005105D02*
X004623Y005105D01*
X004623Y004986D02*
X004743Y004986D01*
X004743Y004867D02*
X004623Y004867D01*
X004623Y004749D02*
X004743Y004749D01*
X004743Y004512D02*
X004623Y004512D01*
X004623Y004393D02*
X004743Y004393D01*
X004743Y004275D02*
X004623Y004275D01*
X004623Y004156D02*
X004743Y004156D01*
X004743Y004038D02*
X004623Y004038D01*
X004623Y003919D02*
X004743Y003919D01*
X004743Y003801D02*
X004623Y003801D01*
X004623Y003682D02*
X004743Y003682D01*
X005031Y003445D02*
X003214Y003445D01*
X003214Y003326D02*
X004913Y003326D01*
X004794Y003208D02*
X003214Y003208D01*
X003214Y003089D02*
X004753Y003089D01*
X004753Y002971D02*
X003214Y002971D01*
X003214Y002852D02*
X004753Y002852D01*
X004753Y002615D02*
X003214Y002615D01*
X003214Y002497D02*
X004753Y002497D01*
X004753Y002378D02*
X003214Y002378D01*
X003214Y002260D02*
X004753Y002260D01*
X004859Y002141D02*
X003214Y002141D01*
X003214Y002022D02*
X004977Y002022D01*
X005096Y001904D02*
X003214Y001904D01*
X003214Y001785D02*
X005214Y001785D01*
X005333Y001667D02*
X003214Y001667D01*
X003214Y001548D02*
X009615Y001548D01*
X009615Y001667D02*
X006393Y001667D01*
X006511Y001785D02*
X009615Y001785D01*
X009615Y001904D02*
X006630Y001904D01*
X006748Y002022D02*
X009615Y002022D01*
X009615Y002260D02*
X006973Y002260D01*
X006973Y002378D02*
X009615Y002378D01*
X009615Y002615D02*
X006973Y002615D01*
X006973Y002852D02*
X009632Y002852D01*
X009615Y002734D02*
X005923Y002734D01*
X005923Y002615D02*
X005803Y002615D01*
X005803Y002497D02*
X005923Y002497D01*
X005923Y002378D02*
X005803Y002378D01*
X005803Y002260D02*
X005923Y002260D01*
X005923Y002141D02*
X005803Y002141D01*
X005803Y002022D02*
X005923Y002022D01*
X005923Y001904D02*
X005803Y001904D01*
X005803Y001785D02*
X005923Y001785D01*
X005923Y001667D02*
X005803Y001667D01*
X006867Y002141D02*
X009990Y002141D01*
X009991Y002615D02*
X010110Y002615D01*
X010110Y002734D02*
X009991Y002734D01*
X009991Y002852D02*
X010110Y002852D01*
X010430Y003326D02*
X015351Y003326D01*
X015235Y003445D02*
X013693Y003445D01*
X013735Y003564D02*
X015186Y003564D01*
X015178Y003682D02*
X013735Y003682D01*
X013735Y003801D02*
X015202Y003801D01*
X015270Y003919D02*
X013735Y003919D01*
X013735Y004038D02*
X015339Y004038D01*
X015231Y004156D02*
X013748Y004156D01*
X013748Y004275D02*
X015182Y004275D01*
X015178Y004393D02*
X013748Y004393D01*
X013748Y004512D02*
X015207Y004512D01*
X015281Y004630D02*
X013748Y004630D01*
X013748Y004749D02*
X015328Y004749D01*
X015226Y004867D02*
X013748Y004867D01*
X013748Y004986D02*
X015178Y004986D01*
X015178Y005105D02*
X013748Y005105D01*
X013748Y005223D02*
X015212Y005223D01*
X015293Y005342D02*
X015025Y005342D01*
X015025Y005460D02*
X015316Y005460D01*
X015221Y005579D02*
X015025Y005579D01*
X015025Y005697D02*
X015178Y005697D01*
X015178Y005816D02*
X014610Y005816D01*
X014610Y005697D02*
X014490Y005697D01*
X014490Y005579D02*
X014610Y005579D01*
X014610Y005460D02*
X014490Y005460D01*
X014490Y005342D02*
X014610Y005342D01*
X014075Y005342D02*
X013943Y005342D01*
X013943Y005460D02*
X014075Y005460D01*
X014075Y005579D02*
X013943Y005579D01*
X013943Y005697D02*
X014075Y005697D01*
X013943Y005816D02*
X014490Y005816D01*
X014075Y005934D02*
X013943Y005934D01*
X013943Y006053D02*
X014075Y006053D01*
X014075Y006171D02*
X013943Y006171D01*
X013846Y006290D02*
X014074Y006290D01*
X014030Y006409D02*
X013898Y006409D01*
X013898Y006527D02*
X014030Y006527D01*
X014030Y006646D02*
X013898Y006646D01*
X014026Y006764D02*
X013483Y006764D01*
X013483Y006883D02*
X013363Y006883D01*
X013363Y007001D02*
X013483Y007001D01*
X013483Y007120D02*
X013363Y007120D01*
X013363Y007238D02*
X013483Y007238D01*
X013736Y007357D02*
X014225Y007357D01*
X014225Y007475D02*
X013819Y007475D01*
X013834Y007594D02*
X013984Y007594D01*
X013878Y007713D02*
X013834Y007713D01*
X013843Y007238D02*
X014077Y007238D01*
X014030Y007120D02*
X013898Y007120D01*
X013898Y007001D02*
X014030Y007001D01*
X014030Y006883D02*
X013898Y006883D01*
X013363Y006764D02*
X012834Y006764D01*
X012834Y006646D02*
X012948Y006646D01*
X012948Y006527D02*
X012834Y006527D01*
X012834Y006409D02*
X012948Y006409D01*
X013000Y006290D02*
X012834Y006290D01*
X012834Y006171D02*
X012953Y006171D01*
X012314Y006171D02*
X011396Y006171D01*
X011302Y006290D02*
X012314Y006290D01*
X012314Y006409D02*
X011302Y006409D01*
X011302Y006527D02*
X012314Y006527D01*
X012314Y006646D02*
X011302Y006646D01*
X011302Y006764D02*
X012314Y006764D01*
X012314Y006883D02*
X011410Y006883D01*
X011425Y007001D02*
X012314Y007001D01*
X012314Y007120D02*
X011425Y007120D01*
X011425Y007238D02*
X012314Y007238D01*
X012314Y007357D02*
X011425Y007357D01*
X011425Y007475D02*
X012314Y007475D01*
X012314Y007594D02*
X011425Y007594D01*
X011391Y007713D02*
X012356Y007713D01*
X012474Y008068D02*
X013314Y008068D01*
X013314Y008187D02*
X012474Y008187D01*
X012474Y008305D02*
X013314Y008305D01*
X013314Y008424D02*
X012474Y008424D01*
X013834Y009106D02*
X013887Y009235D01*
X014022Y009370D01*
X014199Y009443D01*
X014749Y009443D01*
X014926Y009370D01*
X015033Y009263D01*
X015283Y009263D01*
X015304Y009284D01*
X015257Y009400D01*
X015257Y009526D01*
X015305Y009643D01*
X015394Y009732D01*
X015511Y009780D01*
X015637Y009780D01*
X015754Y009732D01*
X015843Y009643D01*
X015891Y009526D01*
X015891Y009400D01*
X015844Y009284D01*
X015865Y009263D01*
X016015Y009263D01*
X016122Y009370D01*
X016299Y009443D01*
X016849Y009443D01*
X017026Y009370D01*
X017161Y009235D01*
X017234Y009058D01*
X017234Y008968D01*
X017499Y008836D01*
X017544Y008817D01*
X017552Y008809D01*
X017562Y008804D01*
X017594Y008767D01*
X017628Y008733D01*
X017632Y008723D01*
X017640Y008714D01*
X017655Y008668D01*
X017674Y008623D01*
X017674Y008611D01*
X017677Y008601D01*
X017674Y008552D01*
X017674Y004850D01*
X018239Y003963D01*
X022150Y003963D01*
X022489Y004302D01*
X022599Y004348D01*
X022719Y004348D01*
X022883Y004348D01*
X022883Y004477D01*
X022988Y004582D01*
X023118Y004582D01*
X023118Y004618D01*
X023157Y004714D01*
X023354Y004910D01*
X023427Y004983D01*
X023462Y004998D01*
X023313Y005060D01*
X023189Y005184D01*
X023122Y005345D01*
X023122Y005832D01*
X023189Y005994D01*
X023313Y006118D01*
X023475Y006185D01*
X023650Y006185D01*
X023811Y006118D01*
X023935Y005994D01*
X024002Y005832D01*
X024002Y005345D01*
X023935Y005184D01*
X023811Y005060D01*
X023722Y005023D01*
X024166Y005023D01*
X024258Y005115D01*
X024189Y005184D01*
X024122Y005345D01*
X024122Y005832D01*
X024189Y005994D01*
X024313Y006118D01*
X024475Y006185D01*
X024650Y006185D01*
X024811Y006118D01*
X024935Y005994D01*
X025002Y005832D01*
X025002Y005345D01*
X024935Y005184D01*
X024834Y005082D01*
X024834Y005011D01*
X024794Y004916D01*
X024721Y004842D01*
X024421Y004542D01*
X024420Y004542D01*
X024420Y004108D01*
X024540Y004108D01*
X024540Y004562D01*
X024861Y004562D01*
X024955Y004468D01*
X024955Y004108D01*
X024540Y004108D01*
X024540Y003988D01*
X024955Y003988D01*
X024955Y003627D01*
X024861Y003534D01*
X024540Y003534D01*
X024540Y003988D01*
X024420Y003988D01*
X024005Y003988D01*
X024005Y003627D01*
X024099Y003534D01*
X024420Y003534D01*
X024420Y003988D01*
X024420Y004108D01*
X024005Y004108D01*
X024005Y004468D01*
X024039Y004503D01*
X023846Y004503D01*
X023872Y004477D01*
X023872Y003619D01*
X023767Y003514D01*
X022988Y003514D01*
X022883Y003619D01*
X022883Y003748D01*
X022783Y003748D01*
X022574Y003539D01*
X022574Y002891D01*
X022665Y002800D01*
X022738Y002623D01*
X022738Y002072D01*
X022665Y001896D01*
X022617Y001848D01*
X022666Y001800D01*
X022739Y001623D01*
X022739Y001072D01*
X022666Y000896D01*
X022531Y000761D01*
X022354Y000688D01*
X022164Y000688D01*
X021987Y000761D01*
X021852Y000896D01*
X021779Y001072D01*
X021779Y001623D01*
X021852Y001800D01*
X021900Y001847D01*
X021851Y001896D01*
X021778Y002072D01*
X021778Y002623D01*
X021851Y002800D01*
X021907Y002856D01*
X021687Y002856D01*
X021652Y002891D01*
X021652Y003363D01*
X021042Y003363D01*
X021094Y003310D01*
X021427Y002977D01*
X021530Y002935D01*
X021665Y002800D01*
X021738Y002623D01*
X021738Y002072D01*
X021665Y001896D01*
X021617Y001848D01*
X021666Y001800D01*
X021739Y001623D01*
X021739Y001072D01*
X021666Y000896D01*
X021531Y000761D01*
X021354Y000688D01*
X021164Y000688D01*
X020987Y000761D01*
X020852Y000896D01*
X020779Y001072D01*
X020779Y001623D01*
X020852Y001800D01*
X020900Y001847D01*
X020851Y001896D01*
X020778Y002072D01*
X020778Y002623D01*
X020851Y002800D01*
X020860Y002809D01*
X020766Y002903D01*
X020562Y002903D01*
X020665Y002800D01*
X020738Y002623D01*
X020738Y002072D01*
X020665Y001896D01*
X020617Y001848D01*
X020666Y001800D01*
X020739Y001623D01*
X020739Y001072D01*
X020666Y000896D01*
X020531Y000761D01*
X020354Y000688D01*
X020164Y000688D01*
X019987Y000761D01*
X019852Y000896D01*
X019779Y001072D01*
X019779Y001623D01*
X019852Y001800D01*
X019900Y001847D01*
X019851Y001896D01*
X019778Y002072D01*
X019778Y002614D01*
X019539Y002614D01*
X019504Y002649D01*
X019504Y002903D01*
X016626Y002903D01*
X016522Y002903D01*
X016427Y002942D01*
X016354Y003016D01*
X016314Y003111D01*
X016314Y007483D01*
X016299Y007483D01*
X016122Y007556D01*
X016015Y007663D01*
X015865Y007663D01*
X015811Y007608D01*
X015672Y007551D01*
X015798Y007499D01*
X015910Y007387D01*
X015970Y007242D01*
X015970Y007084D01*
X015910Y006938D01*
X015798Y006827D01*
X015764Y006813D01*
X015798Y006799D01*
X015910Y006687D01*
X015970Y006542D01*
X015970Y006384D01*
X015910Y006238D01*
X015798Y006127D01*
X015764Y006113D01*
X015798Y006099D01*
X015910Y005987D01*
X015970Y005842D01*
X015970Y005684D01*
X015910Y005538D01*
X015798Y005427D01*
X015764Y005413D01*
X015798Y005399D01*
X015910Y005287D01*
X015970Y005142D01*
X015970Y004984D01*
X015910Y004838D01*
X015798Y004727D01*
X015764Y004713D01*
X015798Y004699D01*
X015910Y004587D01*
X015970Y004442D01*
X015970Y004284D01*
X015910Y004138D01*
X015798Y004027D01*
X015764Y004013D01*
X015798Y003999D01*
X015910Y003887D01*
X015970Y003742D01*
X015970Y003584D01*
X015910Y003438D01*
X015798Y003327D01*
X015764Y003313D01*
X015798Y003299D01*
X015910Y003187D01*
X015970Y003042D01*
X015970Y002884D01*
X015910Y002738D01*
X015798Y002627D01*
X015764Y002613D01*
X015798Y002599D01*
X015910Y002487D01*
X015970Y002342D01*
X015970Y002184D01*
X015910Y002038D01*
X015798Y001927D01*
X015764Y001913D01*
X015798Y001899D01*
X015910Y001787D01*
X015970Y001642D01*
X015970Y001484D01*
X015910Y001338D01*
X015798Y001227D01*
X015764Y001213D01*
X015798Y001199D01*
X015910Y001087D01*
X015970Y000942D01*
X015970Y000784D01*
X015910Y000638D01*
X015881Y000609D01*
X032226Y000609D01*
X032226Y000610D01*
X032291Y000609D01*
X032358Y000609D01*
X032358Y000609D01*
X033141Y000606D01*
X033137Y001367D01*
X033133Y001381D01*
X033137Y001387D01*
X033137Y001431D01*
X033151Y001445D01*
X033150Y002282D01*
X033150Y002283D01*
X033150Y002350D01*
X033150Y002414D01*
X033151Y002415D01*
X033151Y002416D01*
X033197Y002461D01*
X033244Y002508D01*
X033245Y002508D01*
X034178Y003422D01*
X034176Y007625D01*
X034110Y007559D01*
X034022Y007523D01*
X033926Y007523D01*
X032953Y007523D01*
X032977Y007499D01*
X033577Y006899D01*
X033614Y006811D01*
X033614Y006715D01*
X033614Y004659D01*
X033633Y004651D01*
X033762Y004522D01*
X033831Y004354D01*
X033831Y004172D01*
X033762Y004004D01*
X033633Y003875D01*
X033465Y003805D01*
X033283Y003805D01*
X033115Y003875D01*
X032986Y004004D01*
X032917Y004172D01*
X032917Y004354D01*
X032986Y004522D01*
X033115Y004651D01*
X033134Y004659D01*
X033134Y006663D01*
X032675Y007123D01*
X024731Y007123D01*
X024731Y007072D01*
X024662Y006904D01*
X024533Y006775D01*
X024476Y006751D01*
X024977Y006704D01*
X025005Y006706D01*
X025024Y006699D01*
X025044Y006697D01*
X025069Y006684D01*
X025613Y006503D01*
X025622Y006503D01*
X025658Y006488D01*
X025695Y006475D01*
X025702Y006470D01*
X025710Y006466D01*
X025738Y006438D01*
X025767Y006413D01*
X025771Y006405D01*
X025777Y006399D01*
X025792Y006362D01*
X025810Y006327D01*
X025811Y006319D01*
X025814Y006311D01*
X025814Y006271D01*
X025817Y006232D01*
X025814Y006224D01*
X025814Y006115D01*
X025935Y005994D01*
X026002Y005832D01*
X026002Y005345D01*
X025935Y005184D01*
X025811Y005060D01*
X025781Y005047D01*
X025776Y004820D01*
X025924Y004820D01*
X026029Y004714D01*
X026029Y003856D01*
X025924Y003751D01*
X025145Y003751D01*
X025039Y003856D01*
X025039Y004714D01*
X025145Y004820D01*
X025316Y004820D01*
X025321Y005057D01*
X025313Y005060D01*
X025189Y005184D01*
X025122Y005345D01*
X025122Y005832D01*
X025189Y005994D01*
X025297Y006102D01*
X024924Y006227D01*
X022862Y006423D01*
X022826Y006423D01*
X022815Y006427D01*
X022804Y006428D01*
X022772Y006446D01*
X022738Y006459D01*
X022730Y006468D01*
X022719Y006473D01*
X022696Y006501D01*
X022671Y006527D01*
X022666Y006538D01*
X022659Y006547D01*
X022648Y006581D01*
X022634Y006615D01*
X022634Y006627D01*
X022631Y006638D01*
X022634Y006674D01*
X022634Y006823D01*
X022097Y006823D01*
X022111Y006817D01*
X022228Y006700D01*
X022292Y006546D01*
X022292Y006380D01*
X022228Y006226D01*
X022111Y006108D01*
X021978Y006053D01*
X022248Y006053D01*
X022189Y005994D02*
X022122Y005832D01*
X022122Y005345D01*
X022189Y005184D01*
X022313Y005060D01*
X022475Y004993D01*
X022650Y004993D01*
X022811Y005060D01*
X022935Y005184D01*
X023002Y005345D01*
X023002Y005832D01*
X022935Y005994D01*
X022811Y006118D01*
X022650Y006185D01*
X022475Y006185D01*
X022313Y006118D01*
X022189Y005994D01*
X022164Y005934D02*
X021960Y005934D01*
X021947Y005965D02*
X021978Y006053D01*
X021947Y005965D02*
X022002Y005832D01*
X022002Y005345D01*
X021935Y005184D01*
X021811Y005060D01*
X021650Y004993D01*
X021475Y004993D01*
X021313Y005060D01*
X021189Y005184D01*
X021122Y005345D01*
X021122Y005832D01*
X021189Y005994D01*
X021313Y006118D01*
X021475Y006185D01*
X021515Y006185D01*
X021527Y006218D01*
X021520Y006226D01*
X021456Y006380D01*
X021456Y006546D01*
X021520Y006700D01*
X021637Y006817D01*
X021651Y006823D01*
X018622Y006823D01*
X018526Y006823D01*
X018438Y006859D01*
X018371Y006927D01*
X018334Y007015D01*
X018334Y009726D01*
X018334Y009726D01*
X018334Y005445D01*
X018895Y004643D01*
X019109Y004673D01*
X019120Y004700D01*
X019237Y004817D01*
X019391Y004881D01*
X019557Y004881D01*
X019711Y004817D01*
X019828Y004700D01*
X019892Y004546D01*
X019892Y004380D01*
X019828Y004226D01*
X019711Y004108D01*
X019557Y004045D01*
X019391Y004045D01*
X019237Y004108D01*
X019186Y004159D01*
X018821Y004107D01*
X018780Y004098D01*
X018770Y004100D01*
X018760Y004098D01*
X018719Y004108D01*
X018678Y004116D01*
X018669Y004121D01*
X018659Y004124D01*
X018626Y004149D01*
X018591Y004171D01*
X018585Y004180D01*
X018577Y004186D01*
X018555Y004222D01*
X017874Y005195D01*
X017854Y005216D01*
X017845Y005237D01*
X017831Y005256D01*
X017825Y005284D01*
X017814Y005311D01*
X017814Y005334D01*
X017809Y005357D01*
X017814Y005386D01*
X017814Y009638D01*
X017175Y010149D01*
X017214Y010054D01*
X017214Y010003D01*
X016829Y010003D01*
X016829Y009923D01*
X017214Y009923D01*
X017214Y009871D01*
X017144Y009702D01*
X017015Y009573D01*
X016846Y009503D01*
X016614Y009503D01*
X016614Y009617D01*
X016534Y009617D01*
X016534Y009503D01*
X016302Y009503D01*
X016133Y009573D01*
X016004Y009702D01*
X015934Y009871D01*
X015934Y009923D01*
X016335Y009923D01*
X016335Y010003D01*
X015934Y010003D01*
X015934Y010054D01*
X016004Y010223D01*
X016133Y010353D01*
X016302Y010423D01*
X016335Y010423D01*
X016335Y010452D01*
X016353Y010471D01*
X015891Y010471D01*
X015891Y010400D01*
X015843Y010283D01*
X015754Y010194D01*
X015637Y010145D01*
X015511Y010145D01*
X015394Y010194D01*
X015305Y010283D01*
X015257Y010400D01*
X015257Y010526D01*
X015304Y010641D01*
X015283Y010663D01*
X015033Y010663D01*
X014926Y010556D01*
X014818Y010511D01*
X014818Y010393D01*
X014915Y010353D01*
X015044Y010223D01*
X015114Y010054D01*
X015114Y010003D01*
X014514Y010003D01*
X014434Y010003D01*
X014434Y010423D01*
X014202Y010423D01*
X014071Y010368D01*
X014071Y010482D01*
X014036Y010517D01*
X013834Y010517D01*
X013834Y010703D01*
X013882Y010703D01*
X013887Y010691D01*
X014022Y010556D01*
X014199Y010483D01*
X014698Y010483D01*
X014698Y010423D01*
X014514Y010423D01*
X014514Y010003D01*
X014514Y009923D01*
X015114Y009923D01*
X015114Y009871D01*
X015044Y009702D01*
X014915Y009573D01*
X014746Y009503D01*
X014514Y009503D01*
X014514Y009923D01*
X014434Y009923D01*
X014434Y009503D01*
X014202Y009503D01*
X014033Y009573D01*
X013959Y009647D01*
X013834Y009647D01*
X013834Y009106D01*
X013834Y009135D02*
X013846Y009135D01*
X013834Y009254D02*
X013906Y009254D01*
X013834Y009372D02*
X014028Y009372D01*
X013834Y009491D02*
X015257Y009491D01*
X015268Y009372D02*
X014920Y009372D01*
X014951Y009609D02*
X015291Y009609D01*
X015390Y009728D02*
X015054Y009728D01*
X015104Y009846D02*
X015944Y009846D01*
X015993Y009728D02*
X015758Y009728D01*
X015857Y009609D02*
X016097Y009609D01*
X015891Y009491D02*
X017814Y009491D01*
X017814Y009609D02*
X017051Y009609D01*
X017154Y009728D02*
X017702Y009728D01*
X017553Y009846D02*
X017204Y009846D01*
X017405Y009965D02*
X016829Y009965D01*
X017202Y010083D02*
X017257Y010083D01*
X017645Y010439D02*
X018334Y010439D01*
X018334Y010511D02*
X018334Y009777D01*
X018334Y009777D01*
X018334Y009815D01*
X018328Y009828D01*
X018327Y009843D01*
X018309Y009876D01*
X018294Y009910D01*
X018284Y009921D01*
X018277Y009934D01*
X018248Y009957D01*
X018221Y009983D01*
X018208Y009989D01*
X017203Y010793D01*
X017234Y010867D01*
X017234Y011058D01*
X017161Y011235D01*
X017026Y011370D01*
X016849Y011443D01*
X016299Y011443D01*
X016122Y011370D01*
X016015Y011263D01*
X015865Y011263D01*
X015814Y011314D01*
X015852Y011407D01*
X015852Y011518D01*
X015810Y011620D01*
X015802Y011628D01*
X015912Y011737D01*
X015972Y011884D01*
X015972Y012042D01*
X015912Y012189D01*
X015802Y012298D01*
X015810Y012305D01*
X015852Y012407D01*
X015852Y012518D01*
X015810Y012620D01*
X015732Y012699D01*
X015629Y012741D01*
X015519Y012741D01*
X015416Y012699D01*
X015338Y012620D01*
X015296Y012518D01*
X015296Y012407D01*
X015338Y012305D01*
X015346Y012298D01*
X015274Y012226D01*
X015200Y012301D01*
X015053Y012361D01*
X014895Y012361D01*
X014818Y012329D01*
X014818Y012533D01*
X014915Y012573D01*
X015044Y012702D01*
X015114Y012871D01*
X015114Y012923D01*
X014818Y012923D01*
X014818Y013003D01*
X015114Y013003D01*
X015114Y013054D01*
X015044Y013223D01*
X014915Y013353D01*
X014818Y013393D01*
X014818Y013511D01*
X014926Y013556D01*
X015033Y013663D01*
X015283Y013663D01*
X015304Y013641D01*
X015257Y013526D01*
X015257Y013400D01*
X015305Y013283D01*
X015394Y013194D01*
X015511Y013145D01*
X015637Y013145D01*
X015754Y013194D01*
X015843Y013283D01*
X015891Y013400D01*
X015891Y013526D01*
X015844Y013641D01*
X015865Y013663D01*
X016015Y013663D01*
X016122Y013556D01*
X016299Y013483D01*
X016849Y013483D01*
X017026Y013556D01*
X017161Y013691D01*
X017234Y013867D01*
X017234Y014058D01*
X017161Y014235D01*
X017026Y014370D01*
X016849Y014443D01*
X016299Y014443D01*
X016122Y014370D01*
X016015Y014263D01*
X015865Y014263D01*
X015844Y014284D01*
X015891Y014400D01*
X015891Y014526D01*
X015844Y014641D01*
X015865Y014663D01*
X016015Y014663D01*
X016122Y014556D01*
X016299Y014483D01*
X016849Y014483D01*
X017026Y014556D01*
X017161Y014691D01*
X017234Y014867D01*
X017234Y015058D01*
X017161Y015235D01*
X017026Y015370D01*
X016849Y015443D01*
X016299Y015443D01*
X016122Y015370D01*
X016015Y015263D01*
X015865Y015263D01*
X015844Y015284D01*
X015891Y015400D01*
X015891Y015526D01*
X015844Y015641D01*
X015865Y015663D01*
X016015Y015663D01*
X016122Y015556D01*
X016299Y015483D01*
X016849Y015483D01*
X017026Y015556D01*
X017034Y015564D01*
X017371Y015227D01*
X017438Y015159D01*
X017526Y015123D01*
X018101Y015123D01*
X018173Y015051D01*
X018952Y015051D01*
X019058Y015156D01*
X019058Y016015D01*
X018952Y016120D01*
X018173Y016120D01*
X018165Y016112D01*
X018128Y016200D01*
X018011Y016317D01*
X017857Y016381D01*
X017785Y016381D01*
X017777Y016399D01*
X017761Y016416D01*
X017747Y016436D01*
X017727Y016449D01*
X017714Y016462D01*
X017714Y017332D01*
X017752Y017294D01*
X018924Y017294D01*
X019030Y017400D01*
X019030Y017559D01*
X019190Y017559D01*
X019190Y017380D01*
X019295Y017275D01*
X020061Y017275D01*
X019453Y016667D01*
X019453Y016476D01*
X019453Y016120D01*
X019293Y016120D01*
X019188Y016015D01*
X019188Y015156D01*
X019293Y015051D01*
X020072Y015051D01*
X020177Y015156D01*
X020177Y016015D01*
X020072Y016120D01*
X019913Y016120D01*
X019913Y016476D01*
X020581Y017145D01*
X020657Y017145D01*
X020776Y017194D01*
X020756Y017146D01*
X020756Y016980D01*
X020820Y016826D01*
X020872Y016773D01*
X020737Y016717D01*
X020620Y016600D01*
X020556Y016446D01*
X020556Y016280D01*
X020620Y016126D01*
X020734Y016012D01*
X020734Y014562D01*
X020625Y014454D01*
X020177Y014454D01*
X020177Y014643D01*
X020072Y014749D01*
X019293Y014749D01*
X019188Y014643D01*
X019188Y013784D01*
X019191Y013781D01*
X019091Y013781D01*
X019029Y013755D01*
X019058Y013784D01*
X019058Y014643D01*
X018952Y014749D01*
X018173Y014749D01*
X018068Y014643D01*
X018068Y013784D01*
X018173Y013679D01*
X018333Y013679D01*
X018333Y013579D01*
X018644Y013268D01*
X018779Y013133D01*
X018817Y013133D01*
X018820Y013126D01*
X018919Y013027D01*
X018230Y013027D01*
X018124Y012921D01*
X018124Y012142D01*
X018230Y012037D01*
X018829Y012037D01*
X018833Y012033D01*
X019023Y012033D01*
X019117Y012033D01*
X019120Y012026D01*
X019237Y011908D01*
X019391Y011845D01*
X019557Y011845D01*
X019711Y011908D01*
X019828Y012026D01*
X019892Y012180D01*
X019892Y012346D01*
X019828Y012500D01*
X019711Y012617D01*
X019557Y012681D01*
X019391Y012681D01*
X019237Y012617D01*
X019193Y012573D01*
X019193Y012921D01*
X019170Y012945D01*
X019257Y012945D01*
X019411Y013008D01*
X019528Y013126D01*
X019592Y013280D01*
X019592Y013446D01*
X019528Y013600D01*
X019449Y013679D01*
X020072Y013679D01*
X020177Y013784D01*
X020177Y013974D01*
X020677Y013974D01*
X020773Y013974D01*
X020861Y014010D01*
X021110Y014259D01*
X021177Y014327D01*
X021214Y014415D01*
X021214Y016012D01*
X021328Y016126D01*
X021392Y016280D01*
X021392Y016446D01*
X021328Y016600D01*
X021276Y016652D01*
X021411Y016708D01*
X021440Y016738D01*
X021440Y013554D01*
X021264Y013378D01*
X021257Y013381D01*
X021091Y013381D01*
X020937Y013317D01*
X020820Y013200D01*
X020756Y013046D01*
X020756Y012880D01*
X020820Y012726D01*
X020937Y012608D01*
X021091Y012545D01*
X021257Y012545D01*
X021411Y012608D01*
X021528Y012726D01*
X021592Y012880D01*
X021592Y013046D01*
X021589Y013053D01*
X021900Y013364D01*
X021900Y013554D01*
X021900Y013645D01*
X021937Y013608D01*
X022091Y013545D01*
X022257Y013545D01*
X022411Y013608D01*
X022528Y013726D01*
X022592Y013880D01*
X022592Y013956D01*
X022842Y013956D01*
X019332Y010446D01*
X019332Y010256D01*
X019332Y009126D01*
X019313Y009118D01*
X019189Y008994D01*
X019122Y008832D01*
X019122Y008345D01*
X019189Y008184D01*
X019313Y008060D01*
X019475Y007993D01*
X019650Y007993D01*
X019811Y008060D01*
X019935Y008184D01*
X020002Y008345D01*
X020002Y008832D01*
X019935Y008994D01*
X019811Y009118D01*
X019792Y009126D01*
X019792Y010256D01*
X020332Y010796D01*
X020332Y010656D01*
X020332Y009126D01*
X020313Y009118D01*
X020189Y008994D01*
X020122Y008832D01*
X020122Y008345D01*
X020189Y008184D01*
X020313Y008060D01*
X020475Y007993D01*
X020650Y007993D01*
X020811Y008060D01*
X020935Y008184D01*
X021002Y008345D01*
X021002Y008832D01*
X020935Y008994D01*
X020811Y009118D01*
X020792Y009126D01*
X020792Y010656D01*
X021332Y011196D01*
X021332Y011056D01*
X021332Y009126D01*
X021313Y009118D01*
X021189Y008994D01*
X021122Y008832D01*
X021122Y008345D01*
X021189Y008184D01*
X021313Y008060D01*
X021475Y007993D01*
X021650Y007993D01*
X021757Y008038D01*
X021720Y008000D01*
X021656Y007846D01*
X021656Y007680D01*
X021720Y007526D01*
X021837Y007408D01*
X021991Y007345D01*
X022157Y007345D01*
X022311Y007408D01*
X022425Y007523D01*
X023987Y007523D01*
X023886Y007422D01*
X023817Y007254D01*
X023817Y007072D01*
X023886Y006904D01*
X023993Y006797D01*
X023114Y006881D01*
X023114Y007111D01*
X023077Y007199D01*
X023010Y007266D01*
X022922Y007303D01*
X022826Y007303D01*
X018814Y007303D01*
X018814Y010045D01*
X018957Y010045D01*
X019111Y010108D01*
X019228Y010226D01*
X019292Y010380D01*
X019292Y010546D01*
X019228Y010700D01*
X019111Y010817D01*
X018957Y010881D01*
X018791Y010881D01*
X018637Y010817D01*
X018520Y010700D01*
X018438Y010666D01*
X018371Y010599D01*
X018334Y010511D01*
X018354Y010558D02*
X017497Y010558D01*
X017349Y010676D02*
X018462Y010676D01*
X018615Y010795D02*
X017204Y010795D01*
X017234Y010913D02*
X019799Y010913D01*
X019811Y011008D02*
X019928Y011126D01*
X019992Y011280D01*
X019992Y011446D01*
X019928Y011600D01*
X019811Y011717D01*
X019657Y011781D01*
X019491Y011781D01*
X019337Y011717D01*
X019220Y011600D01*
X019217Y011593D01*
X019193Y011593D01*
X019193Y011819D01*
X019088Y011924D01*
X018230Y011924D01*
X018124Y011819D01*
X018124Y011040D01*
X018230Y010934D01*
X019088Y010934D01*
X019193Y011040D01*
X019193Y011133D01*
X019217Y011133D01*
X019220Y011126D01*
X019337Y011008D01*
X019491Y010945D01*
X019657Y010945D01*
X019811Y011008D01*
X019834Y011032D02*
X019918Y011032D01*
X019938Y011150D02*
X020036Y011150D01*
X019988Y011269D02*
X020155Y011269D01*
X020273Y011387D02*
X019992Y011387D01*
X019967Y011506D02*
X020392Y011506D01*
X020510Y011624D02*
X019904Y011624D01*
X019749Y011743D02*
X020629Y011743D01*
X020748Y011862D02*
X019598Y011862D01*
X019783Y011980D02*
X020866Y011980D01*
X020985Y012099D02*
X019859Y012099D01*
X019892Y012217D02*
X021103Y012217D01*
X021222Y012336D02*
X019892Y012336D01*
X019847Y012454D02*
X021340Y012454D01*
X021325Y012573D02*
X021459Y012573D01*
X021494Y012691D02*
X021577Y012691D01*
X021563Y012810D02*
X021696Y012810D01*
X021592Y012928D02*
X021814Y012928D01*
X021933Y013047D02*
X021592Y013047D01*
X021702Y013166D02*
X022051Y013166D01*
X022170Y013284D02*
X021820Y013284D01*
X021900Y013403D02*
X022289Y013403D01*
X022407Y013521D02*
X021900Y013521D01*
X021900Y013640D02*
X021906Y013640D01*
X021440Y013640D02*
X019488Y013640D01*
X019561Y013521D02*
X021407Y013521D01*
X021289Y013403D02*
X019592Y013403D01*
X019592Y013284D02*
X020904Y013284D01*
X020805Y013166D02*
X019545Y013166D01*
X019449Y013047D02*
X020756Y013047D01*
X020756Y012928D02*
X019186Y012928D01*
X019193Y012810D02*
X020785Y012810D01*
X020854Y012691D02*
X019193Y012691D01*
X018899Y013047D02*
X017214Y013047D01*
X017214Y013054D02*
X017144Y013223D01*
X017015Y013353D01*
X016846Y013423D01*
X016614Y013423D01*
X016614Y013003D01*
X016534Y013003D01*
X016534Y013423D01*
X016302Y013423D01*
X016133Y013353D01*
X016004Y013223D01*
X015934Y013054D01*
X015934Y013003D01*
X016534Y013003D01*
X016534Y012923D01*
X015934Y012923D01*
X015934Y012871D01*
X016004Y012702D01*
X016133Y012573D01*
X016302Y012503D01*
X016534Y012503D01*
X016534Y012923D01*
X016614Y012923D01*
X016614Y013003D01*
X017214Y013003D01*
X017214Y013054D01*
X017168Y013166D02*
X018746Y013166D01*
X018628Y013284D02*
X017083Y013284D01*
X016894Y013403D02*
X018509Y013403D01*
X018390Y013521D02*
X016942Y013521D01*
X017110Y013640D02*
X018333Y013640D01*
X018094Y013758D02*
X017189Y013758D01*
X017234Y013877D02*
X018068Y013877D01*
X018068Y013995D02*
X017234Y013995D01*
X017211Y014114D02*
X018068Y014114D01*
X018068Y014232D02*
X017162Y014232D01*
X017045Y014351D02*
X018068Y014351D01*
X018068Y014469D02*
X015891Y014469D01*
X015871Y014351D02*
X016103Y014351D01*
X016090Y014588D02*
X015866Y014588D01*
X015850Y015299D02*
X016052Y015299D01*
X015891Y015418D02*
X016238Y015418D01*
X016169Y015536D02*
X015887Y015536D01*
X015857Y015655D02*
X016023Y015655D01*
X016574Y015963D02*
X016974Y015963D01*
X017574Y015363D01*
X018340Y015363D01*
X018563Y015586D01*
X019058Y015536D02*
X019188Y015536D01*
X019188Y015418D02*
X019058Y015418D01*
X019058Y015299D02*
X019188Y015299D01*
X019188Y015181D02*
X019058Y015181D01*
X018964Y015062D02*
X019281Y015062D01*
X019251Y014707D02*
X018994Y014707D01*
X019058Y014588D02*
X019188Y014588D01*
X019188Y014469D02*
X019058Y014469D01*
X019058Y014351D02*
X019188Y014351D01*
X019188Y014232D02*
X019058Y014232D01*
X019058Y014114D02*
X019188Y014114D01*
X019188Y013995D02*
X019058Y013995D01*
X019058Y013877D02*
X019188Y013877D01*
X019036Y013758D02*
X019032Y013758D01*
X019683Y014214D02*
X020725Y014214D01*
X020974Y014463D01*
X020974Y016363D01*
X021392Y016366D02*
X021440Y016366D01*
X021440Y016248D02*
X021379Y016248D01*
X021330Y016129D02*
X021440Y016129D01*
X021440Y016011D02*
X021214Y016011D01*
X021214Y015892D02*
X021440Y015892D01*
X021440Y015773D02*
X021214Y015773D01*
X021214Y015655D02*
X021440Y015655D01*
X021440Y015536D02*
X021214Y015536D01*
X021214Y015418D02*
X021440Y015418D01*
X021440Y015299D02*
X021214Y015299D01*
X021214Y015181D02*
X021440Y015181D01*
X021440Y015062D02*
X021214Y015062D01*
X021214Y014944D02*
X021440Y014944D01*
X021440Y014825D02*
X021214Y014825D01*
X021214Y014707D02*
X021440Y014707D01*
X021440Y014588D02*
X021214Y014588D01*
X021214Y014469D02*
X021440Y014469D01*
X021440Y014351D02*
X021187Y014351D01*
X021083Y014232D02*
X021440Y014232D01*
X021440Y014114D02*
X020964Y014114D01*
X020825Y013995D02*
X021440Y013995D01*
X021440Y013877D02*
X020177Y013877D01*
X020152Y013758D02*
X021440Y013758D01*
X022442Y013640D02*
X022526Y013640D01*
X022542Y013758D02*
X022644Y013758D01*
X022591Y013877D02*
X022763Y013877D01*
X023074Y014963D02*
X023074Y015963D01*
X023904Y016011D02*
X025044Y016011D01*
X025044Y016129D02*
X023904Y016129D01*
X023904Y016248D02*
X025044Y016248D01*
X025044Y016366D02*
X023904Y016366D01*
X023904Y016485D02*
X025044Y016485D01*
X025044Y016603D02*
X023904Y016603D01*
X023904Y016722D02*
X025044Y016722D01*
X025044Y016840D02*
X023904Y016840D01*
X023904Y016959D02*
X025044Y016959D01*
X025044Y017077D02*
X023904Y017077D01*
X023904Y017196D02*
X025044Y017196D01*
X025044Y017315D02*
X023904Y017315D01*
X023904Y017433D02*
X025044Y017433D01*
X025044Y017552D02*
X023904Y017552D01*
X023904Y017670D02*
X025044Y017670D01*
X025044Y017789D02*
X023904Y017789D01*
X023904Y017907D02*
X025044Y017907D01*
X025044Y018026D02*
X023904Y018026D01*
X023904Y018144D02*
X025044Y018144D01*
X025044Y018263D02*
X023904Y018263D01*
X023904Y018381D02*
X025044Y018381D01*
X025044Y018500D02*
X023904Y018500D01*
X023904Y018619D02*
X025044Y018619D01*
X025044Y018737D02*
X023904Y018737D01*
X023904Y018856D02*
X025044Y018856D01*
X025044Y018974D02*
X023904Y018974D01*
X023904Y019093D02*
X025044Y019093D01*
X025044Y019211D02*
X023904Y019211D01*
X023904Y019330D02*
X025044Y019330D01*
X025044Y019448D02*
X023904Y019448D01*
X023904Y019567D02*
X025044Y019567D01*
X025044Y019685D02*
X023904Y019685D01*
X023904Y019775D02*
X023942Y019791D01*
X024077Y019926D01*
X024150Y020102D01*
X024150Y020653D01*
X024077Y020830D01*
X023942Y020965D01*
X023907Y020979D01*
X023894Y021010D01*
X023821Y021083D01*
X023829Y021102D01*
X023829Y021653D01*
X023756Y021830D01*
X023621Y021965D01*
X023444Y022038D01*
X023254Y022038D01*
X023077Y021965D01*
X022942Y021830D01*
X022869Y021653D01*
X022869Y021102D01*
X022923Y020973D01*
X022797Y021025D01*
X022829Y021102D01*
X022829Y021653D01*
X022756Y021830D01*
X022621Y021965D01*
X022444Y022038D01*
X022254Y022038D01*
X022077Y021965D01*
X021942Y021830D01*
X021869Y021653D01*
X021869Y021102D01*
X021923Y020973D01*
X021797Y021025D01*
X021829Y021102D01*
X021829Y021653D01*
X021756Y021830D01*
X021621Y021965D01*
X021444Y022038D01*
X021254Y022038D01*
X021077Y021965D01*
X020942Y021830D01*
X020869Y021653D01*
X020869Y021102D01*
X020923Y020973D01*
X020907Y020979D01*
X020894Y021010D01*
X020821Y021083D01*
X020829Y021102D01*
X020829Y021653D01*
X020756Y021830D01*
X020621Y021965D01*
X020444Y022038D01*
X020254Y022038D01*
X020077Y021965D01*
X019942Y021830D01*
X019869Y021653D01*
X019869Y021102D01*
X019923Y020973D01*
X019907Y020979D01*
X019894Y021010D01*
X019821Y021083D01*
X019829Y021102D01*
X019829Y021653D01*
X019756Y021830D01*
X019621Y021965D01*
X019444Y022038D01*
X019254Y022038D01*
X019077Y021965D01*
X018942Y021830D01*
X018869Y021653D01*
X018869Y021102D01*
X018923Y020973D01*
X018903Y020981D01*
X018891Y021010D01*
X018820Y021081D01*
X018829Y021102D01*
X018829Y021653D01*
X018756Y021830D01*
X018621Y021965D01*
X018444Y022038D01*
X018254Y022038D01*
X018077Y021965D01*
X017942Y021830D01*
X017869Y021653D01*
X017869Y021102D01*
X017935Y020944D01*
X017931Y020948D01*
X017771Y021014D01*
X017809Y021106D01*
X017809Y021338D01*
X017389Y021338D01*
X017389Y021418D01*
X017309Y021418D01*
X017309Y022018D01*
X017257Y022018D01*
X017088Y021948D01*
X016959Y021818D01*
X016889Y021649D01*
X016889Y021418D01*
X017309Y021418D01*
X017309Y021338D01*
X016889Y021338D01*
X016889Y021106D01*
X016952Y020955D01*
X016942Y020965D01*
X016903Y020981D01*
X016891Y021010D01*
X016820Y021081D01*
X016829Y021102D01*
X016829Y021653D01*
X016756Y021830D01*
X016621Y021965D01*
X016444Y022038D01*
X016254Y022038D01*
X016077Y021965D01*
X015942Y021830D01*
X015869Y021653D01*
X015869Y021628D01*
X015798Y021699D01*
X015764Y021713D01*
X015798Y021727D01*
X015910Y021838D01*
X015970Y021984D01*
X015970Y022142D01*
X015936Y022225D01*
X032535Y022225D01*
X033150Y021773D01*
X033150Y017389D01*
X033130Y017368D01*
X033133Y017244D01*
X033114Y017262D01*
X033114Y019515D01*
X033114Y019611D01*
X033077Y019699D01*
X033010Y019766D01*
X032922Y019803D01*
X032634Y019803D01*
X032757Y019926D01*
X032830Y020102D01*
X032830Y020653D01*
X032757Y020830D01*
X032708Y020878D01*
X032756Y020926D01*
X032829Y021102D01*
X032829Y021653D01*
X032756Y021830D01*
X032621Y021965D01*
X032444Y022038D01*
X032254Y022038D01*
X032077Y021965D01*
X031942Y021830D01*
X031869Y021653D01*
X031869Y021102D01*
X031942Y020926D01*
X031991Y020877D01*
X031943Y020830D01*
X031870Y020653D01*
X031870Y020102D01*
X031943Y019926D01*
X032066Y019803D01*
X031634Y019803D01*
X031757Y019926D01*
X031830Y020102D01*
X031830Y020653D01*
X031757Y020830D01*
X031708Y020878D01*
X031756Y020926D01*
X031829Y021102D01*
X031829Y021653D01*
X031756Y021830D01*
X031621Y021965D01*
X031444Y022038D01*
X031254Y022038D01*
X031077Y021965D01*
X030942Y021830D01*
X030869Y021653D01*
X030869Y021102D01*
X030942Y020926D01*
X030991Y020877D01*
X030943Y020830D01*
X030870Y020653D01*
X030870Y020102D01*
X030943Y019926D01*
X031066Y019803D01*
X030634Y019803D01*
X030757Y019926D01*
X030830Y020102D01*
X030830Y020653D01*
X030757Y020830D01*
X030708Y020878D01*
X030756Y020926D01*
X030829Y021102D01*
X030829Y021653D01*
X030756Y021830D01*
X030621Y021965D01*
X030444Y022038D01*
X030254Y022038D01*
X030077Y021965D01*
X029942Y021830D01*
X029869Y021653D01*
X029869Y021102D01*
X029942Y020926D01*
X029991Y020877D01*
X029943Y020830D01*
X029870Y020653D01*
X029870Y020102D01*
X029943Y019926D01*
X030066Y019803D01*
X029634Y019803D01*
X029757Y019926D01*
X029830Y020102D01*
X029830Y020653D01*
X029757Y020830D01*
X029708Y020878D01*
X029756Y020926D01*
X029829Y021102D01*
X029829Y021653D01*
X029756Y021830D01*
X029621Y021965D01*
X029444Y022038D01*
X029254Y022038D01*
X029077Y021965D01*
X028942Y021830D01*
X028869Y021653D01*
X028869Y021102D01*
X028942Y020926D01*
X028991Y020877D01*
X028943Y020830D01*
X028870Y020653D01*
X028870Y020102D01*
X028943Y019926D01*
X029066Y019803D01*
X028634Y019803D01*
X028757Y019926D01*
X028830Y020102D01*
X028830Y020653D01*
X028757Y020830D01*
X028708Y020878D01*
X028756Y020926D01*
X028829Y021102D01*
X028829Y021653D01*
X028756Y021830D01*
X028621Y021965D01*
X028444Y022038D01*
X028254Y022038D01*
X028077Y021965D01*
X027942Y021830D01*
X027869Y021653D01*
X027869Y021102D01*
X027942Y020926D01*
X027991Y020877D01*
X027943Y020830D01*
X027870Y020653D01*
X027870Y020102D01*
X027943Y019926D01*
X028066Y019803D01*
X028025Y019803D01*
X027911Y019917D01*
X027777Y019973D01*
X027830Y020102D01*
X027830Y020653D01*
X027757Y020830D01*
X027708Y020878D01*
X027756Y020926D01*
X027829Y021102D01*
X027829Y021653D01*
X027756Y021830D01*
X027621Y021965D01*
X027444Y022038D01*
X027254Y022038D01*
X027077Y021965D01*
X026942Y021830D01*
X026869Y021653D01*
X026869Y021102D01*
X026942Y020926D01*
X026991Y020877D01*
X026943Y020830D01*
X026870Y020653D01*
X026870Y020427D01*
X026854Y020410D01*
X026830Y020353D01*
X026830Y020653D01*
X026757Y020830D01*
X026708Y020878D01*
X026756Y020926D01*
X026829Y021102D01*
X026829Y021653D01*
X026756Y021830D01*
X026621Y021965D01*
X026444Y022038D01*
X026254Y022038D01*
X026077Y021965D01*
X025942Y021830D01*
X025869Y021653D01*
X025869Y021102D01*
X025942Y020926D01*
X025991Y020877D01*
X025943Y020830D01*
X025870Y020653D01*
X025870Y020102D01*
X025943Y019926D01*
X026078Y019791D01*
X026144Y019764D01*
X026144Y016058D01*
X025504Y015418D01*
X025504Y019742D01*
X025622Y019791D01*
X025757Y019926D01*
X025830Y020102D01*
X025830Y020653D01*
X025757Y020830D01*
X025708Y020878D01*
X025756Y020926D01*
X025829Y021102D01*
X025829Y021653D01*
X025756Y021830D01*
X025621Y021965D01*
X025444Y022038D01*
X025254Y022038D01*
X025077Y021965D01*
X024942Y021830D01*
X024869Y021653D01*
X024869Y021102D01*
X024942Y020926D01*
X024991Y020877D01*
X024943Y020830D01*
X024870Y020653D01*
X024870Y020102D01*
X024943Y019926D01*
X025044Y019825D01*
X025044Y015558D01*
X023904Y014418D01*
X023904Y019775D01*
X023955Y019804D02*
X025044Y019804D01*
X024947Y019922D02*
X024074Y019922D01*
X024125Y020041D02*
X024896Y020041D01*
X024870Y020160D02*
X024150Y020160D01*
X024150Y020278D02*
X024870Y020278D01*
X024870Y020397D02*
X024150Y020397D01*
X024150Y020515D02*
X024870Y020515D01*
X024870Y020634D02*
X024150Y020634D01*
X024109Y020752D02*
X024911Y020752D01*
X024984Y020871D02*
X024036Y020871D01*
X023903Y020989D02*
X024916Y020989D01*
X024869Y021108D02*
X023829Y021108D01*
X023821Y021083D02*
X023821Y021083D01*
X023829Y021226D02*
X024869Y021226D01*
X024869Y021345D02*
X023829Y021345D01*
X023829Y021464D02*
X024869Y021464D01*
X024869Y021582D02*
X023829Y021582D01*
X023809Y021701D02*
X024889Y021701D01*
X024938Y021819D02*
X023760Y021819D01*
X023648Y021938D02*
X025050Y021938D01*
X025648Y021938D02*
X026050Y021938D01*
X025938Y021819D02*
X025760Y021819D01*
X025809Y021701D02*
X025889Y021701D01*
X025869Y021582D02*
X025829Y021582D01*
X025829Y021464D02*
X025869Y021464D01*
X025869Y021345D02*
X025829Y021345D01*
X025829Y021226D02*
X025869Y021226D01*
X025869Y021108D02*
X025829Y021108D01*
X025782Y020989D02*
X025916Y020989D01*
X025984Y020871D02*
X025716Y020871D01*
X025789Y020752D02*
X025911Y020752D01*
X025870Y020634D02*
X025830Y020634D01*
X025830Y020515D02*
X025870Y020515D01*
X025870Y020397D02*
X025830Y020397D01*
X025830Y020278D02*
X025870Y020278D01*
X025870Y020160D02*
X025830Y020160D01*
X025805Y020041D02*
X025896Y020041D01*
X025947Y019922D02*
X025754Y019922D01*
X025635Y019804D02*
X026065Y019804D01*
X026144Y019685D02*
X025504Y019685D01*
X025504Y019567D02*
X026144Y019567D01*
X026144Y019448D02*
X025504Y019448D01*
X025504Y019330D02*
X026144Y019330D01*
X026144Y019211D02*
X025504Y019211D01*
X025504Y019093D02*
X026144Y019093D01*
X026144Y018974D02*
X025504Y018974D01*
X025504Y018856D02*
X026144Y018856D01*
X026144Y018737D02*
X025504Y018737D01*
X025504Y018619D02*
X026144Y018619D01*
X026144Y018500D02*
X025504Y018500D01*
X025504Y018381D02*
X026144Y018381D01*
X026144Y018263D02*
X025504Y018263D01*
X025504Y018144D02*
X026144Y018144D01*
X026144Y018026D02*
X025504Y018026D01*
X025504Y017907D02*
X026144Y017907D01*
X026144Y017789D02*
X025504Y017789D01*
X025504Y017670D02*
X026144Y017670D01*
X026144Y017552D02*
X025504Y017552D01*
X025504Y017433D02*
X026144Y017433D01*
X026144Y017315D02*
X025504Y017315D01*
X025504Y017196D02*
X026144Y017196D01*
X026144Y017077D02*
X025504Y017077D01*
X025504Y016959D02*
X026144Y016959D01*
X026144Y016840D02*
X025504Y016840D01*
X025504Y016722D02*
X026144Y016722D01*
X026144Y016603D02*
X025504Y016603D01*
X025504Y016485D02*
X026144Y016485D01*
X026144Y016366D02*
X025504Y016366D01*
X025504Y016248D02*
X026144Y016248D01*
X026144Y016129D02*
X025504Y016129D01*
X025504Y016011D02*
X026097Y016011D01*
X025978Y015892D02*
X025504Y015892D01*
X025504Y015773D02*
X025859Y015773D01*
X025741Y015655D02*
X025504Y015655D01*
X025504Y015536D02*
X025622Y015536D01*
X025044Y015655D02*
X023904Y015655D01*
X023904Y015773D02*
X025044Y015773D01*
X025044Y015892D02*
X023904Y015892D01*
X023904Y015536D02*
X025022Y015536D01*
X024904Y015418D02*
X023904Y015418D01*
X023904Y015299D02*
X024785Y015299D01*
X024667Y015181D02*
X023904Y015181D01*
X023904Y015062D02*
X024548Y015062D01*
X024430Y014944D02*
X023904Y014944D01*
X023904Y014825D02*
X024311Y014825D01*
X024193Y014707D02*
X023904Y014707D01*
X023904Y014588D02*
X024074Y014588D01*
X023955Y014469D02*
X023904Y014469D01*
X024976Y013640D02*
X025565Y013640D01*
X025565Y013645D02*
X025565Y013324D01*
X026020Y013324D01*
X026020Y013739D01*
X025659Y013739D01*
X025565Y013645D01*
X025565Y013521D02*
X024858Y013521D01*
X024739Y013403D02*
X025565Y013403D01*
X025565Y013204D02*
X025565Y012883D01*
X025659Y012789D01*
X026020Y012789D01*
X026020Y013204D01*
X026140Y013204D01*
X026140Y013324D01*
X026594Y013324D01*
X026594Y013645D01*
X026500Y013739D01*
X026140Y013739D01*
X026140Y013324D01*
X026020Y013324D01*
X026020Y013204D01*
X025565Y013204D01*
X025565Y013166D02*
X024502Y013166D01*
X024458Y013090D02*
X024427Y013090D01*
X027169Y015833D01*
X027304Y015968D01*
X027304Y016064D01*
X027320Y016026D01*
X027437Y015908D01*
X027591Y015845D01*
X027757Y015845D01*
X027911Y015908D01*
X028025Y016023D01*
X030223Y016023D01*
X030337Y015908D01*
X030491Y015845D01*
X030657Y015845D01*
X030811Y015908D01*
X030928Y016026D01*
X030992Y016180D01*
X030992Y016346D01*
X030928Y016500D01*
X030811Y016617D01*
X030657Y016681D01*
X030491Y016681D01*
X030337Y016617D01*
X030223Y016503D01*
X028025Y016503D01*
X027911Y016617D01*
X027757Y016681D01*
X027591Y016681D01*
X027437Y016617D01*
X027320Y016500D01*
X027304Y016462D01*
X027304Y016964D01*
X027320Y016926D01*
X027437Y016808D01*
X027591Y016745D01*
X027757Y016745D01*
X027911Y016808D01*
X028028Y016926D01*
X028031Y016933D01*
X031517Y016933D01*
X031520Y016926D01*
X031637Y016808D01*
X031791Y016745D01*
X031957Y016745D01*
X032111Y016808D01*
X032228Y016926D01*
X032292Y017080D01*
X032292Y017246D01*
X032228Y017400D01*
X032111Y017517D01*
X031957Y017581D01*
X031791Y017581D01*
X031637Y017517D01*
X031520Y017400D01*
X031517Y017393D01*
X028031Y017393D01*
X028028Y017400D01*
X027911Y017517D01*
X027757Y017581D01*
X027591Y017581D01*
X027437Y017517D01*
X027320Y017400D01*
X027304Y017362D01*
X027304Y017864D01*
X027320Y017826D01*
X027437Y017708D01*
X027591Y017645D01*
X027757Y017645D01*
X027911Y017708D01*
X028028Y017826D01*
X028031Y017833D01*
X030317Y017833D01*
X030320Y017826D01*
X030437Y017708D01*
X030591Y017645D01*
X030757Y017645D01*
X030911Y017708D01*
X031028Y017826D01*
X031092Y017980D01*
X031092Y018146D01*
X031028Y018300D01*
X030911Y018417D01*
X030757Y018481D01*
X030591Y018481D01*
X030437Y018417D01*
X030320Y018300D01*
X030317Y018293D01*
X028031Y018293D01*
X028028Y018300D01*
X027911Y018417D01*
X027801Y018463D01*
X027911Y018508D01*
X028025Y018623D01*
X032151Y018623D01*
X032184Y018589D01*
X032331Y018528D01*
X032489Y018528D01*
X032634Y018588D01*
X032634Y017115D01*
X032671Y017027D01*
X032738Y016959D01*
X033734Y015963D01*
X033734Y013703D01*
X033650Y013787D01*
X033650Y015411D01*
X033614Y015499D01*
X033546Y015566D01*
X033458Y015603D01*
X033362Y015603D01*
X027722Y015603D01*
X027626Y015603D01*
X027538Y015566D01*
X027471Y015499D01*
X027434Y015411D01*
X027434Y015140D01*
X027294Y015140D01*
X027189Y015035D01*
X027189Y014176D01*
X027294Y014070D01*
X027444Y014070D01*
X027444Y014051D01*
X027293Y014051D01*
X027187Y013946D01*
X027187Y013347D01*
X026779Y012938D01*
X026644Y012803D01*
X026644Y009258D01*
X026571Y009185D01*
X026475Y009185D01*
X026313Y009118D01*
X026189Y008994D01*
X026122Y008832D01*
X026122Y008345D01*
X026189Y008184D01*
X026313Y008060D01*
X026451Y008003D01*
X024674Y008003D01*
X024811Y008060D01*
X024935Y008184D01*
X025002Y008345D01*
X025002Y008832D01*
X024935Y008994D01*
X024811Y009118D01*
X024792Y009126D01*
X024792Y010619D01*
X024810Y010663D01*
X024810Y010838D01*
X024802Y010857D01*
X024998Y011053D01*
X025547Y011053D01*
X025547Y010893D01*
X025653Y010788D01*
X026510Y010788D01*
X026616Y010893D01*
X026616Y011672D01*
X026565Y011723D01*
X026614Y011772D01*
X026614Y012551D01*
X026509Y012657D01*
X025651Y012657D01*
X025545Y012551D01*
X025545Y012393D01*
X024783Y012393D01*
X024760Y012416D01*
X024751Y012420D01*
X024810Y012563D01*
X024810Y012738D01*
X024743Y012900D01*
X024619Y013023D01*
X024458Y013090D01*
X024562Y013047D02*
X025565Y013047D01*
X025565Y012928D02*
X024714Y012928D01*
X024780Y012810D02*
X025638Y012810D01*
X025567Y012573D02*
X024810Y012573D01*
X024810Y012691D02*
X026644Y012691D01*
X026644Y012573D02*
X026592Y012573D01*
X026614Y012454D02*
X026644Y012454D01*
X026644Y012336D02*
X026614Y012336D01*
X026614Y012217D02*
X026644Y012217D01*
X026644Y012099D02*
X026614Y012099D01*
X026614Y011980D02*
X026644Y011980D01*
X026644Y011862D02*
X026614Y011862D01*
X026585Y011743D02*
X026644Y011743D01*
X026644Y011624D02*
X026616Y011624D01*
X026616Y011506D02*
X026644Y011506D01*
X026644Y011387D02*
X026616Y011387D01*
X026616Y011269D02*
X026644Y011269D01*
X026644Y011150D02*
X026616Y011150D01*
X026616Y011032D02*
X026644Y011032D01*
X026644Y010913D02*
X026616Y010913D01*
X026644Y010795D02*
X026517Y010795D01*
X026502Y010655D02*
X026141Y010655D01*
X026141Y010240D01*
X026022Y010240D01*
X026022Y010655D01*
X025661Y010655D01*
X025567Y010562D01*
X025567Y010240D01*
X026021Y010240D01*
X026021Y010120D01*
X025567Y010120D01*
X025567Y009799D01*
X025661Y009705D01*
X026022Y009705D01*
X026022Y010120D01*
X026141Y010120D01*
X026141Y009705D01*
X026502Y009705D01*
X026596Y009799D01*
X026596Y010120D01*
X026142Y010120D01*
X026142Y010240D01*
X026596Y010240D01*
X026596Y010562D01*
X026502Y010655D01*
X026596Y010558D02*
X026644Y010558D01*
X026644Y010676D02*
X024810Y010676D01*
X024810Y010795D02*
X025646Y010795D01*
X025547Y010913D02*
X024858Y010913D01*
X024977Y011032D02*
X025547Y011032D01*
X025567Y010558D02*
X024792Y010558D01*
X024792Y010439D02*
X025567Y010439D01*
X025567Y010320D02*
X024792Y010320D01*
X024792Y010202D02*
X026021Y010202D01*
X026022Y010320D02*
X026141Y010320D01*
X026142Y010202D02*
X026644Y010202D01*
X026644Y010320D02*
X026596Y010320D01*
X026596Y010439D02*
X026644Y010439D01*
X026644Y010083D02*
X026596Y010083D01*
X026596Y009965D02*
X026644Y009965D01*
X026644Y009846D02*
X026596Y009846D01*
X026644Y009728D02*
X026524Y009728D01*
X026644Y009609D02*
X024792Y009609D01*
X024792Y009491D02*
X026644Y009491D01*
X026644Y009372D02*
X024792Y009372D01*
X024792Y009254D02*
X026640Y009254D01*
X026355Y009135D02*
X025718Y009135D01*
X025646Y009165D02*
X025800Y009101D01*
X025918Y008983D01*
X025982Y008828D01*
X025982Y008609D01*
X025582Y008609D01*
X025542Y008609D01*
X025542Y009165D01*
X025479Y009165D01*
X025324Y009101D01*
X025206Y008983D01*
X025142Y008828D01*
X025142Y008609D01*
X025542Y008609D01*
X025542Y008569D01*
X025142Y008569D01*
X025142Y008349D01*
X025206Y008195D01*
X025324Y008077D01*
X025479Y008013D01*
X025542Y008013D01*
X025542Y008569D01*
X025582Y008569D01*
X025582Y008609D01*
X025582Y009165D01*
X025646Y009165D01*
X025582Y009135D02*
X025542Y009135D01*
X025542Y009016D02*
X025582Y009016D01*
X025582Y008898D02*
X025542Y008898D01*
X025542Y008779D02*
X025582Y008779D01*
X025582Y008661D02*
X025542Y008661D01*
X025582Y008569D02*
X025982Y008569D01*
X025982Y008349D01*
X025918Y008195D01*
X025800Y008077D01*
X025646Y008013D01*
X025582Y008013D01*
X025582Y008569D01*
X025582Y008542D02*
X025542Y008542D01*
X025542Y008424D02*
X025582Y008424D01*
X025582Y008305D02*
X025542Y008305D01*
X025542Y008187D02*
X025582Y008187D01*
X025582Y008068D02*
X025542Y008068D01*
X025345Y008068D02*
X024820Y008068D01*
X024936Y008187D02*
X025214Y008187D01*
X025160Y008305D02*
X024986Y008305D01*
X025002Y008424D02*
X025142Y008424D01*
X025142Y008542D02*
X025002Y008542D01*
X025002Y008661D02*
X025142Y008661D01*
X025142Y008779D02*
X025002Y008779D01*
X024975Y008898D02*
X025171Y008898D01*
X025240Y009016D02*
X024913Y009016D01*
X024792Y009135D02*
X025407Y009135D01*
X025884Y009016D02*
X026212Y009016D01*
X026149Y008898D02*
X025953Y008898D01*
X025982Y008779D02*
X026122Y008779D01*
X026122Y008661D02*
X025982Y008661D01*
X025982Y008542D02*
X026122Y008542D01*
X026122Y008424D02*
X025982Y008424D01*
X025964Y008305D02*
X026139Y008305D01*
X026188Y008187D02*
X025910Y008187D01*
X025779Y008068D02*
X026305Y008068D01*
X026674Y008003D02*
X026811Y008060D01*
X026935Y008184D01*
X027002Y008345D01*
X027002Y008832D01*
X026963Y008927D01*
X027104Y009068D01*
X027104Y009258D01*
X027104Y012613D01*
X027473Y012982D01*
X028072Y012982D01*
X028177Y013087D01*
X028177Y013946D01*
X028072Y014051D01*
X027924Y014051D01*
X027924Y014070D01*
X028073Y014070D01*
X028179Y014176D01*
X028179Y015035D01*
X028091Y015123D01*
X028397Y015123D01*
X028309Y015035D01*
X028309Y014176D01*
X028414Y014070D01*
X029193Y014070D01*
X029288Y014165D01*
X029288Y013955D01*
X029192Y014051D01*
X028413Y014051D01*
X028307Y013946D01*
X028307Y013087D01*
X028413Y012982D01*
X028562Y012982D01*
X028562Y012648D01*
X028427Y012648D01*
X028414Y012680D01*
X028279Y012815D01*
X028103Y012888D01*
X027552Y012888D01*
X027375Y012815D01*
X027240Y012680D01*
X027167Y012503D01*
X027167Y012312D01*
X027240Y012136D01*
X027375Y012001D01*
X027552Y011928D01*
X028103Y011928D01*
X028279Y012001D01*
X028414Y012136D01*
X028427Y012168D01*
X028703Y012168D01*
X029659Y011212D01*
X029726Y011144D01*
X029814Y011108D01*
X029910Y011108D01*
X031971Y011108D01*
X032211Y010868D01*
X032609Y010868D01*
X032890Y011149D01*
X032890Y011547D01*
X032609Y011828D01*
X032211Y011828D01*
X031971Y011588D01*
X030441Y011588D01*
X030591Y011737D01*
X030627Y011825D01*
X030627Y011921D01*
X030627Y011928D01*
X030663Y011928D01*
X030839Y012001D01*
X030974Y012136D01*
X031047Y012312D01*
X031047Y012503D01*
X030974Y012680D01*
X030839Y012815D01*
X030663Y012888D01*
X030509Y012888D01*
X030509Y013008D01*
X030524Y012993D01*
X030845Y012993D01*
X030845Y013605D01*
X030430Y013605D01*
X030430Y013468D01*
X030424Y013468D01*
X030389Y013433D01*
X030389Y012888D01*
X030112Y012888D01*
X029935Y012815D01*
X029800Y012680D01*
X029727Y012503D01*
X029727Y012312D01*
X029800Y012136D01*
X029935Y012001D01*
X030105Y011930D01*
X029862Y011687D01*
X029042Y012507D01*
X029042Y012982D01*
X029192Y012982D01*
X029288Y013078D01*
X029393Y012973D01*
X030172Y012973D01*
X030278Y013078D01*
X030278Y014251D01*
X030172Y014357D01*
X030023Y014357D01*
X030023Y014653D01*
X029986Y014741D01*
X029919Y014809D01*
X029831Y014845D01*
X029735Y014845D01*
X029299Y014845D01*
X029299Y015035D01*
X029210Y015123D01*
X033170Y015123D01*
X033170Y013787D01*
X032930Y013547D01*
X032930Y013149D01*
X033211Y012868D01*
X033609Y012868D01*
X033734Y012993D01*
X033734Y012862D01*
X033654Y012782D01*
X033609Y012828D01*
X033211Y012828D01*
X032930Y012547D01*
X032930Y012149D01*
X033211Y011868D01*
X033609Y011868D01*
X033734Y011993D01*
X033734Y011674D01*
X033601Y011808D01*
X033450Y011808D01*
X033450Y011388D01*
X033370Y011388D01*
X033370Y011808D01*
X033220Y011808D01*
X032950Y011538D01*
X032950Y011388D01*
X033370Y011388D01*
X033370Y011308D01*
X032950Y011308D01*
X032950Y011157D01*
X033220Y010888D01*
X033370Y010888D01*
X033370Y011308D01*
X033450Y011308D01*
X033450Y010888D01*
X033601Y010888D01*
X033734Y011021D01*
X033734Y008003D01*
X032674Y008003D01*
X032811Y008060D01*
X032935Y008184D01*
X033002Y008345D01*
X033002Y008832D01*
X032935Y008994D01*
X032811Y009118D01*
X032650Y009185D01*
X032475Y009185D01*
X032313Y009118D01*
X032189Y008994D01*
X032122Y008832D01*
X032122Y008345D01*
X032189Y008184D01*
X032313Y008060D01*
X032451Y008003D01*
X031674Y008003D01*
X031811Y008060D01*
X031935Y008184D01*
X032002Y008345D01*
X032002Y008832D01*
X031935Y008994D01*
X031811Y009118D01*
X031650Y009185D01*
X031475Y009185D01*
X031313Y009118D01*
X031189Y008994D01*
X031122Y008832D01*
X031122Y008345D01*
X031189Y008184D01*
X031313Y008060D01*
X031451Y008003D01*
X030674Y008003D01*
X030811Y008060D01*
X030935Y008184D01*
X031002Y008345D01*
X031002Y008832D01*
X030935Y008994D01*
X030811Y009118D01*
X030650Y009185D01*
X030475Y009185D01*
X030313Y009118D01*
X030189Y008994D01*
X030122Y008832D01*
X030122Y008345D01*
X030189Y008184D01*
X030313Y008060D01*
X030451Y008003D01*
X029674Y008003D01*
X029811Y008060D01*
X029935Y008184D01*
X030002Y008345D01*
X030002Y008832D01*
X029935Y008994D01*
X029811Y009118D01*
X029650Y009185D01*
X029475Y009185D01*
X029313Y009118D01*
X029189Y008994D01*
X029122Y008832D01*
X029122Y008345D01*
X029189Y008184D01*
X029313Y008060D01*
X029451Y008003D01*
X028674Y008003D01*
X028811Y008060D01*
X028935Y008184D01*
X029002Y008345D01*
X029002Y008832D01*
X028935Y008994D01*
X028811Y009118D01*
X028650Y009185D01*
X028475Y009185D01*
X028313Y009118D01*
X028189Y008994D01*
X028122Y008832D01*
X028122Y008345D01*
X028189Y008184D01*
X028313Y008060D01*
X028451Y008003D01*
X027674Y008003D01*
X027811Y008060D01*
X027935Y008184D01*
X028002Y008345D01*
X028002Y008832D01*
X027935Y008994D01*
X027811Y009118D01*
X027650Y009185D01*
X027475Y009185D01*
X027313Y009118D01*
X027189Y008994D01*
X027122Y008832D01*
X027122Y008345D01*
X027189Y008184D01*
X027313Y008060D01*
X027451Y008003D01*
X026674Y008003D01*
X026820Y008068D02*
X027305Y008068D01*
X027188Y008187D02*
X026936Y008187D01*
X026986Y008305D02*
X027139Y008305D01*
X027122Y008424D02*
X027002Y008424D01*
X027002Y008542D02*
X027122Y008542D01*
X027122Y008661D02*
X027002Y008661D01*
X027002Y008779D02*
X027122Y008779D01*
X027149Y008898D02*
X026975Y008898D01*
X027053Y009016D02*
X027212Y009016D01*
X027104Y009135D02*
X027355Y009135D01*
X027104Y009254D02*
X033734Y009254D01*
X033734Y009372D02*
X027104Y009372D01*
X027104Y009491D02*
X033734Y009491D01*
X033734Y009609D02*
X027104Y009609D01*
X027104Y009728D02*
X033734Y009728D01*
X033734Y009846D02*
X027104Y009846D01*
X027104Y009965D02*
X033734Y009965D01*
X033734Y010083D02*
X027104Y010083D01*
X027104Y010202D02*
X027473Y010202D01*
X027556Y010168D02*
X027787Y010168D01*
X027787Y010588D01*
X027187Y010588D01*
X027187Y010536D01*
X027257Y010367D01*
X027387Y010238D01*
X027556Y010168D01*
X027787Y010202D02*
X027867Y010202D01*
X027867Y010168D02*
X028099Y010168D01*
X028268Y010238D01*
X028397Y010367D01*
X028467Y010536D01*
X028467Y010588D01*
X027867Y010588D01*
X027867Y010168D01*
X027867Y010320D02*
X027787Y010320D01*
X027787Y010439D02*
X027867Y010439D01*
X027867Y010558D02*
X027787Y010558D01*
X027787Y010588D02*
X027867Y010588D01*
X027867Y010668D01*
X027787Y010668D01*
X027787Y011088D01*
X027556Y011088D01*
X027387Y011018D01*
X027257Y010888D01*
X027187Y010719D01*
X027187Y010668D01*
X027787Y010668D01*
X027787Y010588D01*
X027787Y010676D02*
X027867Y010676D01*
X027867Y010668D02*
X027867Y011088D01*
X028099Y011088D01*
X028268Y011018D01*
X028397Y010888D01*
X028467Y010719D01*
X028467Y010668D01*
X027867Y010668D01*
X027867Y010795D02*
X027787Y010795D01*
X027787Y010913D02*
X027867Y010913D01*
X027867Y011032D02*
X027787Y011032D01*
X027420Y011032D02*
X027104Y011032D01*
X027104Y011150D02*
X029720Y011150D01*
X029602Y011269D02*
X027104Y011269D01*
X027104Y011387D02*
X029483Y011387D01*
X029365Y011506D02*
X027104Y011506D01*
X027104Y011624D02*
X029246Y011624D01*
X029127Y011743D02*
X027104Y011743D01*
X027104Y011862D02*
X029009Y011862D01*
X028890Y011980D02*
X028229Y011980D01*
X028377Y012099D02*
X028772Y012099D01*
X028802Y012408D02*
X029862Y011348D01*
X030387Y011873D01*
X030387Y012408D01*
X029986Y011980D02*
X029569Y011980D01*
X029451Y012099D02*
X029838Y012099D01*
X029767Y012217D02*
X029332Y012217D01*
X029214Y012336D02*
X029727Y012336D01*
X029727Y012454D02*
X029095Y012454D01*
X029042Y012573D02*
X029756Y012573D01*
X029812Y012691D02*
X029042Y012691D01*
X029042Y012810D02*
X029930Y012810D01*
X030246Y013047D02*
X030389Y013047D01*
X030389Y013166D02*
X030278Y013166D01*
X030278Y013284D02*
X030389Y013284D01*
X030389Y013403D02*
X030278Y013403D01*
X030278Y013521D02*
X030430Y013521D01*
X030278Y013640D02*
X030845Y013640D01*
X030845Y013605D02*
X030845Y013725D01*
X030845Y014337D01*
X030524Y014337D01*
X030430Y014243D01*
X030430Y013725D01*
X030845Y013725D01*
X030965Y013725D01*
X030965Y014337D01*
X031286Y014337D01*
X031380Y014243D01*
X031380Y013725D01*
X030965Y013725D01*
X030965Y013605D01*
X031380Y013605D01*
X031380Y013087D01*
X031286Y012993D01*
X030965Y012993D01*
X030965Y013605D01*
X030845Y013605D01*
X030845Y013521D02*
X030965Y013521D01*
X030965Y013403D02*
X030845Y013403D01*
X030845Y013284D02*
X030965Y013284D01*
X030965Y013166D02*
X030845Y013166D01*
X030845Y013047D02*
X030965Y013047D01*
X030844Y012810D02*
X032193Y012810D01*
X032211Y012828D02*
X031930Y012547D01*
X031930Y012149D01*
X032211Y011868D01*
X032609Y011868D01*
X032890Y012149D01*
X032890Y012547D01*
X032609Y012828D01*
X032211Y012828D01*
X032211Y012868D02*
X032609Y012868D01*
X032890Y013149D01*
X032890Y013547D01*
X032609Y013828D01*
X032211Y013828D01*
X031930Y013547D01*
X031930Y013149D01*
X032211Y012868D01*
X032151Y012928D02*
X030509Y012928D01*
X030389Y012928D02*
X029042Y012928D01*
X029257Y013047D02*
X029319Y013047D01*
X028802Y013517D02*
X028802Y012408D01*
X027827Y012408D01*
X027426Y011980D02*
X027104Y011980D01*
X027104Y012099D02*
X027278Y012099D01*
X027207Y012217D02*
X027104Y012217D01*
X027104Y012336D02*
X027167Y012336D01*
X027167Y012454D02*
X027104Y012454D01*
X027104Y012573D02*
X027196Y012573D01*
X027182Y012691D02*
X027252Y012691D01*
X027301Y012810D02*
X027370Y012810D01*
X027419Y012928D02*
X028562Y012928D01*
X028562Y012810D02*
X028284Y012810D01*
X028402Y012691D02*
X028562Y012691D01*
X028347Y013047D02*
X028137Y013047D01*
X028177Y013166D02*
X028307Y013166D01*
X028307Y013284D02*
X028177Y013284D01*
X028177Y013403D02*
X028307Y013403D01*
X028307Y013521D02*
X028177Y013521D01*
X028177Y013640D02*
X028307Y013640D01*
X028307Y013758D02*
X028177Y013758D01*
X028177Y013877D02*
X028307Y013877D01*
X028356Y013995D02*
X028128Y013995D01*
X028117Y014114D02*
X028371Y014114D01*
X028309Y014232D02*
X028179Y014232D01*
X028179Y014351D02*
X028309Y014351D01*
X028309Y014469D02*
X028179Y014469D01*
X028179Y014588D02*
X028309Y014588D01*
X028309Y014707D02*
X028179Y014707D01*
X028179Y014825D02*
X028309Y014825D01*
X028309Y014944D02*
X028179Y014944D01*
X028151Y015062D02*
X028336Y015062D01*
X028804Y014605D02*
X029783Y014605D01*
X029783Y013665D01*
X029288Y013995D02*
X029248Y013995D01*
X029237Y014114D02*
X029288Y014114D01*
X030023Y014469D02*
X033170Y014469D01*
X033170Y014351D02*
X030178Y014351D01*
X030278Y014232D02*
X030430Y014232D01*
X030430Y014114D02*
X030278Y014114D01*
X030278Y013995D02*
X030430Y013995D01*
X030430Y013877D02*
X030278Y013877D01*
X030278Y013758D02*
X030430Y013758D01*
X030845Y013758D02*
X030965Y013758D01*
X030965Y013640D02*
X032023Y013640D01*
X031930Y013521D02*
X031380Y013521D01*
X031380Y013403D02*
X031930Y013403D01*
X031930Y013284D02*
X031380Y013284D01*
X031380Y013166D02*
X031930Y013166D01*
X032032Y013047D02*
X031340Y013047D01*
X030962Y012691D02*
X032075Y012691D01*
X031956Y012573D02*
X031018Y012573D01*
X031047Y012454D02*
X031930Y012454D01*
X031930Y012336D02*
X031047Y012336D01*
X031008Y012217D02*
X031930Y012217D01*
X031981Y012099D02*
X030937Y012099D01*
X030789Y011980D02*
X032099Y011980D01*
X032127Y011743D02*
X030593Y011743D01*
X030627Y011862D02*
X033734Y011862D01*
X033721Y011980D02*
X033734Y011980D01*
X033734Y011743D02*
X033666Y011743D01*
X033450Y011743D02*
X033370Y011743D01*
X033370Y011624D02*
X033450Y011624D01*
X033450Y011506D02*
X033370Y011506D01*
X033370Y011387D02*
X032890Y011387D01*
X032890Y011269D02*
X032950Y011269D01*
X032957Y011150D02*
X032890Y011150D01*
X032773Y011032D02*
X033076Y011032D01*
X033194Y010913D02*
X032654Y010913D01*
X032166Y010913D02*
X030932Y010913D01*
X030957Y010888D02*
X030828Y011018D01*
X030659Y011088D01*
X030427Y011088D01*
X030427Y010668D01*
X030347Y010668D01*
X030347Y011088D01*
X030116Y011088D01*
X029947Y011018D01*
X029817Y010888D01*
X029747Y010719D01*
X029747Y010668D01*
X030347Y010668D01*
X030347Y010588D01*
X029747Y010588D01*
X029747Y010536D01*
X029817Y010367D01*
X029947Y010238D01*
X030116Y010168D01*
X030347Y010168D01*
X030347Y010588D01*
X030427Y010588D01*
X030427Y010168D01*
X030659Y010168D01*
X030828Y010238D01*
X030957Y010367D01*
X031027Y010536D01*
X031027Y010588D01*
X030427Y010588D01*
X030427Y010668D01*
X031027Y010668D01*
X031027Y010719D01*
X030957Y010888D01*
X030996Y010795D02*
X033734Y010795D01*
X033734Y010913D02*
X033626Y010913D01*
X033450Y010913D02*
X033370Y010913D01*
X033370Y011032D02*
X033450Y011032D01*
X033450Y011150D02*
X033370Y011150D01*
X033370Y011269D02*
X033450Y011269D01*
X033036Y011624D02*
X032812Y011624D01*
X032890Y011506D02*
X032950Y011506D01*
X033155Y011743D02*
X032694Y011743D01*
X032721Y011980D02*
X033099Y011980D01*
X032981Y012099D02*
X032840Y012099D01*
X032890Y012217D02*
X032930Y012217D01*
X032930Y012336D02*
X032890Y012336D01*
X032890Y012454D02*
X032930Y012454D01*
X032956Y012573D02*
X032864Y012573D01*
X032745Y012691D02*
X033075Y012691D01*
X033193Y012810D02*
X032627Y012810D01*
X032670Y012928D02*
X033151Y012928D01*
X033032Y013047D02*
X032788Y013047D01*
X032890Y013166D02*
X032930Y013166D01*
X032930Y013284D02*
X032890Y013284D01*
X032890Y013403D02*
X032930Y013403D01*
X032930Y013521D02*
X032890Y013521D01*
X032797Y013640D02*
X033023Y013640D01*
X033142Y013758D02*
X032679Y013758D01*
X032142Y013758D02*
X031380Y013758D01*
X031380Y013877D02*
X033170Y013877D01*
X033170Y013995D02*
X031380Y013995D01*
X031380Y014114D02*
X033170Y014114D01*
X033170Y014232D02*
X031380Y014232D01*
X030965Y014232D02*
X030845Y014232D01*
X030845Y014114D02*
X030965Y014114D01*
X030965Y013995D02*
X030845Y013995D01*
X030845Y013877D02*
X030965Y013877D01*
X030023Y014588D02*
X033170Y014588D01*
X033170Y014707D02*
X030001Y014707D01*
X029879Y014825D02*
X033170Y014825D01*
X033170Y014944D02*
X029299Y014944D01*
X029271Y015062D02*
X033170Y015062D01*
X033410Y015363D02*
X027674Y015363D01*
X027674Y014605D01*
X027684Y014605D01*
X027684Y013517D01*
X027682Y013517D01*
X027187Y013521D02*
X026594Y013521D01*
X026594Y013403D02*
X027187Y013403D01*
X027125Y013284D02*
X026140Y013284D01*
X026140Y013204D02*
X026594Y013204D01*
X026594Y012883D01*
X026500Y012789D01*
X026140Y012789D01*
X026140Y013204D01*
X026140Y013166D02*
X026020Y013166D01*
X026020Y013284D02*
X024620Y013284D01*
X025095Y013758D02*
X027187Y013758D01*
X027187Y013640D02*
X026594Y013640D01*
X026140Y013640D02*
X026020Y013640D01*
X026020Y013521D02*
X026140Y013521D01*
X026140Y013403D02*
X026020Y013403D01*
X026594Y013166D02*
X027006Y013166D01*
X026888Y013047D02*
X026594Y013047D01*
X026594Y012928D02*
X026769Y012928D01*
X026650Y012810D02*
X026521Y012810D01*
X026140Y012810D02*
X026020Y012810D01*
X026020Y012928D02*
X026140Y012928D01*
X026140Y013047D02*
X026020Y013047D01*
X025545Y012454D02*
X024765Y012454D01*
X024624Y012213D02*
X023562Y011151D01*
X023562Y008589D01*
X023940Y007475D02*
X022378Y007475D01*
X022186Y007357D02*
X023859Y007357D01*
X023817Y007238D02*
X023038Y007238D01*
X023110Y007120D02*
X023817Y007120D01*
X023846Y007001D02*
X023114Y007001D01*
X023114Y006883D02*
X023907Y006883D01*
X024274Y007163D02*
X024474Y007363D01*
X032774Y007363D01*
X033374Y006763D01*
X033374Y004263D01*
X032917Y004275D02*
X026697Y004275D01*
X026697Y004225D02*
X026697Y004345D01*
X027111Y004345D01*
X027111Y004706D01*
X027018Y004800D01*
X026696Y004800D01*
X026696Y004346D01*
X026576Y004346D01*
X026576Y004800D01*
X026255Y004800D01*
X026161Y004706D01*
X026161Y004345D01*
X026576Y004345D01*
X026576Y004225D01*
X026161Y004225D01*
X026161Y003865D01*
X026255Y003771D01*
X026576Y003771D01*
X026576Y004225D01*
X026696Y004225D01*
X026696Y003771D01*
X027018Y003771D01*
X027111Y003865D01*
X027111Y004225D01*
X026697Y004225D01*
X026696Y004156D02*
X026576Y004156D01*
X026576Y004038D02*
X026696Y004038D01*
X026696Y003919D02*
X026576Y003919D01*
X026576Y003801D02*
X026696Y003801D01*
X027047Y003801D02*
X034177Y003801D01*
X034177Y003919D02*
X033677Y003919D01*
X033776Y004038D02*
X034177Y004038D01*
X034177Y004156D02*
X033825Y004156D01*
X033831Y004275D02*
X034177Y004275D01*
X034177Y004393D02*
X033815Y004393D01*
X033766Y004512D02*
X034177Y004512D01*
X034177Y004630D02*
X033653Y004630D01*
X033614Y004749D02*
X034177Y004749D01*
X034177Y004867D02*
X033614Y004867D01*
X033614Y004986D02*
X034177Y004986D01*
X034177Y005105D02*
X033614Y005105D01*
X033614Y005223D02*
X034177Y005223D01*
X034177Y005342D02*
X033614Y005342D01*
X033614Y005460D02*
X034177Y005460D01*
X034177Y005579D02*
X033614Y005579D01*
X033614Y005697D02*
X034177Y005697D01*
X034177Y005816D02*
X033614Y005816D01*
X033614Y005934D02*
X034176Y005934D01*
X034176Y006053D02*
X033614Y006053D01*
X033614Y006171D02*
X034176Y006171D01*
X034176Y006290D02*
X033614Y006290D01*
X033614Y006409D02*
X034176Y006409D01*
X034176Y006527D02*
X033614Y006527D01*
X033614Y006646D02*
X034176Y006646D01*
X034176Y006764D02*
X033614Y006764D01*
X033584Y006883D02*
X034176Y006883D01*
X034176Y007001D02*
X033475Y007001D01*
X033356Y007120D02*
X034176Y007120D01*
X034176Y007238D02*
X033238Y007238D01*
X033119Y007357D02*
X034176Y007357D01*
X034176Y007475D02*
X033001Y007475D01*
X032678Y007120D02*
X024731Y007120D01*
X024702Y007001D02*
X032796Y007001D01*
X032915Y006883D02*
X024641Y006883D01*
X024507Y006764D02*
X033033Y006764D01*
X033134Y006646D02*
X025184Y006646D01*
X024974Y006463D02*
X025574Y006263D01*
X025574Y005601D01*
X025562Y005589D01*
X025122Y005579D02*
X025002Y005579D01*
X025002Y005697D02*
X025122Y005697D01*
X025122Y005816D02*
X025002Y005816D01*
X024960Y005934D02*
X025164Y005934D01*
X025248Y006053D02*
X024876Y006053D01*
X024682Y006171D02*
X025089Y006171D01*
X024974Y006463D02*
X022874Y006663D01*
X022874Y007063D01*
X018574Y007063D01*
X018574Y010463D01*
X018874Y010463D01*
X019268Y010320D02*
X019332Y010320D01*
X019332Y010202D02*
X019204Y010202D01*
X019332Y010083D02*
X019050Y010083D01*
X018814Y009965D02*
X019332Y009965D01*
X019332Y009846D02*
X018814Y009846D01*
X018814Y009728D02*
X019332Y009728D01*
X019332Y009609D02*
X018814Y009609D01*
X018814Y009491D02*
X019332Y009491D01*
X019332Y009372D02*
X018814Y009372D01*
X018814Y009254D02*
X019332Y009254D01*
X019332Y009135D02*
X018814Y009135D01*
X018814Y009016D02*
X019212Y009016D01*
X019149Y008898D02*
X018814Y008898D01*
X018814Y008779D02*
X019122Y008779D01*
X019122Y008661D02*
X018814Y008661D01*
X018814Y008542D02*
X019122Y008542D01*
X019122Y008424D02*
X018814Y008424D01*
X018814Y008305D02*
X019139Y008305D01*
X019188Y008187D02*
X018814Y008187D01*
X018814Y008068D02*
X019305Y008068D01*
X018814Y007950D02*
X021699Y007950D01*
X021656Y007831D02*
X018814Y007831D01*
X018814Y007713D02*
X021656Y007713D01*
X021691Y007594D02*
X018814Y007594D01*
X018814Y007475D02*
X021770Y007475D01*
X021961Y007357D02*
X018814Y007357D01*
X018334Y007357D02*
X018334Y007357D01*
X018334Y007475D02*
X018334Y007475D01*
X018334Y007594D02*
X018334Y007594D01*
X018334Y007713D02*
X018334Y007713D01*
X018334Y007831D02*
X018334Y007831D01*
X018334Y007950D02*
X018334Y007950D01*
X018334Y008068D02*
X018334Y008068D01*
X018334Y008187D02*
X018334Y008187D01*
X018334Y008305D02*
X018334Y008305D01*
X018334Y008424D02*
X018334Y008424D01*
X018334Y008542D02*
X018334Y008542D01*
X018334Y008661D02*
X018334Y008661D01*
X018334Y008779D02*
X018334Y008779D01*
X018334Y008898D02*
X018334Y008898D01*
X018334Y009016D02*
X018334Y009016D01*
X018334Y009135D02*
X018334Y009135D01*
X018334Y009254D02*
X018334Y009254D01*
X018334Y009372D02*
X018334Y009372D01*
X018334Y009491D02*
X018334Y009491D01*
X018334Y009609D02*
X018334Y009609D01*
X018325Y009846D02*
X018334Y009846D01*
X018334Y009965D02*
X018240Y009965D01*
X018334Y010083D02*
X018089Y010083D01*
X017941Y010202D02*
X018334Y010202D01*
X018334Y010320D02*
X017793Y010320D01*
X018133Y011032D02*
X017234Y011032D01*
X017196Y011150D02*
X018124Y011150D01*
X018124Y011269D02*
X017127Y011269D01*
X016983Y011387D02*
X018124Y011387D01*
X018124Y011506D02*
X015852Y011506D01*
X015844Y011387D02*
X016165Y011387D01*
X016021Y011269D02*
X015859Y011269D01*
X015806Y011624D02*
X018124Y011624D01*
X018124Y011743D02*
X015914Y011743D01*
X015963Y011862D02*
X018167Y011862D01*
X018168Y012099D02*
X015949Y012099D01*
X015972Y011980D02*
X019165Y011980D01*
X019151Y011862D02*
X019350Y011862D01*
X019399Y011743D02*
X019193Y011743D01*
X019193Y011624D02*
X019244Y011624D01*
X019185Y011032D02*
X019314Y011032D01*
X019133Y010795D02*
X019681Y010795D01*
X019562Y010676D02*
X019238Y010676D01*
X019287Y010558D02*
X019444Y010558D01*
X019332Y010439D02*
X019292Y010439D01*
X019792Y010202D02*
X020332Y010202D01*
X020332Y010320D02*
X019857Y010320D01*
X019975Y010439D02*
X020332Y010439D01*
X020332Y010558D02*
X020094Y010558D01*
X020212Y010676D02*
X020332Y010676D01*
X020331Y010795D02*
X020332Y010795D01*
X020812Y010676D02*
X021332Y010676D01*
X021332Y010558D02*
X020792Y010558D01*
X020792Y010439D02*
X021332Y010439D01*
X021332Y010320D02*
X020792Y010320D01*
X020792Y010202D02*
X021332Y010202D01*
X021332Y010083D02*
X020792Y010083D01*
X020792Y009965D02*
X021332Y009965D01*
X021332Y009846D02*
X020792Y009846D01*
X020792Y009728D02*
X021332Y009728D01*
X021332Y009609D02*
X020792Y009609D01*
X020792Y009491D02*
X021332Y009491D01*
X021332Y009372D02*
X020792Y009372D01*
X020792Y009254D02*
X021332Y009254D01*
X021332Y009135D02*
X020792Y009135D01*
X020913Y009016D02*
X021212Y009016D01*
X021149Y008898D02*
X020975Y008898D01*
X021002Y008779D02*
X021122Y008779D01*
X021122Y008661D02*
X021002Y008661D01*
X021002Y008542D02*
X021122Y008542D01*
X021122Y008424D02*
X021002Y008424D01*
X020986Y008305D02*
X021139Y008305D01*
X021188Y008187D02*
X020936Y008187D01*
X020820Y008068D02*
X021305Y008068D01*
X022074Y007763D02*
X033974Y007763D01*
X033974Y012763D01*
X033974Y016063D01*
X032874Y017163D01*
X032874Y019563D01*
X027674Y019563D01*
X028024Y019804D02*
X028065Y019804D01*
X027947Y019922D02*
X027898Y019922D01*
X027896Y020041D02*
X027805Y020041D01*
X027830Y020160D02*
X027870Y020160D01*
X027870Y020278D02*
X027830Y020278D01*
X027830Y020397D02*
X027870Y020397D01*
X027870Y020515D02*
X027830Y020515D01*
X027830Y020634D02*
X027870Y020634D01*
X027911Y020752D02*
X027789Y020752D01*
X027716Y020871D02*
X027984Y020871D01*
X027916Y020989D02*
X027782Y020989D01*
X027829Y021108D02*
X027869Y021108D01*
X027869Y021226D02*
X027829Y021226D01*
X027829Y021345D02*
X027869Y021345D01*
X027869Y021464D02*
X027829Y021464D01*
X027829Y021582D02*
X027869Y021582D01*
X027889Y021701D02*
X027809Y021701D01*
X027760Y021819D02*
X027938Y021819D01*
X028050Y021938D02*
X027648Y021938D01*
X027050Y021938D02*
X026648Y021938D01*
X026760Y021819D02*
X026938Y021819D01*
X026889Y021701D02*
X026809Y021701D01*
X026829Y021582D02*
X026869Y021582D01*
X026869Y021464D02*
X026829Y021464D01*
X026829Y021345D02*
X026869Y021345D01*
X026869Y021226D02*
X026829Y021226D01*
X026829Y021108D02*
X026869Y021108D01*
X026916Y020989D02*
X026782Y020989D01*
X026716Y020871D02*
X026984Y020871D01*
X026911Y020752D02*
X026789Y020752D01*
X026830Y020634D02*
X026870Y020634D01*
X026870Y020515D02*
X026830Y020515D01*
X026830Y020397D02*
X026848Y020397D01*
X028635Y019804D02*
X029065Y019804D01*
X028947Y019922D02*
X028754Y019922D01*
X028805Y020041D02*
X028896Y020041D01*
X028870Y020160D02*
X028830Y020160D01*
X028830Y020278D02*
X028870Y020278D01*
X028870Y020397D02*
X028830Y020397D01*
X028830Y020515D02*
X028870Y020515D01*
X028870Y020634D02*
X028830Y020634D01*
X028789Y020752D02*
X028911Y020752D01*
X028984Y020871D02*
X028716Y020871D01*
X028782Y020989D02*
X028916Y020989D01*
X028869Y021108D02*
X028829Y021108D01*
X028829Y021226D02*
X028869Y021226D01*
X028869Y021345D02*
X028829Y021345D01*
X028829Y021464D02*
X028869Y021464D01*
X028869Y021582D02*
X028829Y021582D01*
X028809Y021701D02*
X028889Y021701D01*
X028938Y021819D02*
X028760Y021819D01*
X028648Y021938D02*
X029050Y021938D01*
X029648Y021938D02*
X030050Y021938D01*
X029938Y021819D02*
X029760Y021819D01*
X029809Y021701D02*
X029889Y021701D01*
X029869Y021582D02*
X029829Y021582D01*
X029829Y021464D02*
X029869Y021464D01*
X029869Y021345D02*
X029829Y021345D01*
X029829Y021226D02*
X029869Y021226D01*
X029869Y021108D02*
X029829Y021108D01*
X029782Y020989D02*
X029916Y020989D01*
X029984Y020871D02*
X029716Y020871D01*
X029789Y020752D02*
X029911Y020752D01*
X029870Y020634D02*
X029830Y020634D01*
X029830Y020515D02*
X029870Y020515D01*
X029870Y020397D02*
X029830Y020397D01*
X029830Y020278D02*
X029870Y020278D01*
X029870Y020160D02*
X029830Y020160D01*
X029805Y020041D02*
X029896Y020041D01*
X029947Y019922D02*
X029754Y019922D01*
X029635Y019804D02*
X030065Y019804D01*
X030635Y019804D02*
X031065Y019804D01*
X030947Y019922D02*
X030754Y019922D01*
X030805Y020041D02*
X030896Y020041D01*
X030870Y020160D02*
X030830Y020160D01*
X030830Y020278D02*
X030870Y020278D01*
X030870Y020397D02*
X030830Y020397D01*
X030830Y020515D02*
X030870Y020515D01*
X030870Y020634D02*
X030830Y020634D01*
X030789Y020752D02*
X030911Y020752D01*
X030984Y020871D02*
X030716Y020871D01*
X030782Y020989D02*
X030916Y020989D01*
X030869Y021108D02*
X030829Y021108D01*
X030829Y021226D02*
X030869Y021226D01*
X030869Y021345D02*
X030829Y021345D01*
X030829Y021464D02*
X030869Y021464D01*
X030869Y021582D02*
X030829Y021582D01*
X030809Y021701D02*
X030889Y021701D01*
X030938Y021819D02*
X030760Y021819D01*
X030648Y021938D02*
X031050Y021938D01*
X031648Y021938D02*
X032050Y021938D01*
X031938Y021819D02*
X031760Y021819D01*
X031809Y021701D02*
X031889Y021701D01*
X031869Y021582D02*
X031829Y021582D01*
X031829Y021464D02*
X031869Y021464D01*
X031869Y021345D02*
X031829Y021345D01*
X031829Y021226D02*
X031869Y021226D01*
X031869Y021108D02*
X031829Y021108D01*
X031782Y020989D02*
X031916Y020989D01*
X031984Y020871D02*
X031716Y020871D01*
X031789Y020752D02*
X031911Y020752D01*
X031870Y020634D02*
X031830Y020634D01*
X031830Y020515D02*
X031870Y020515D01*
X031870Y020397D02*
X031830Y020397D01*
X031830Y020278D02*
X031870Y020278D01*
X031870Y020160D02*
X031830Y020160D01*
X031805Y020041D02*
X031896Y020041D01*
X031947Y019922D02*
X031754Y019922D01*
X031635Y019804D02*
X032065Y019804D01*
X032635Y019804D02*
X033150Y019804D01*
X033150Y019922D02*
X032754Y019922D01*
X032805Y020041D02*
X033150Y020041D01*
X033150Y020160D02*
X032830Y020160D01*
X032830Y020278D02*
X033150Y020278D01*
X033150Y020397D02*
X032830Y020397D01*
X032830Y020515D02*
X033150Y020515D01*
X033150Y020634D02*
X032830Y020634D01*
X032789Y020752D02*
X033150Y020752D01*
X033150Y020871D02*
X032716Y020871D01*
X032782Y020989D02*
X033150Y020989D01*
X033150Y021108D02*
X032829Y021108D01*
X032829Y021226D02*
X033150Y021226D01*
X033150Y021345D02*
X032829Y021345D01*
X032829Y021464D02*
X033150Y021464D01*
X033150Y021582D02*
X032829Y021582D01*
X032809Y021701D02*
X033150Y021701D01*
X033087Y021819D02*
X032760Y021819D01*
X032648Y021938D02*
X032926Y021938D01*
X032764Y022056D02*
X015970Y022056D01*
X015956Y022175D02*
X032603Y022175D01*
X033083Y019685D02*
X033150Y019685D01*
X033150Y019567D02*
X033114Y019567D01*
X033114Y019448D02*
X033150Y019448D01*
X033150Y019330D02*
X033114Y019330D01*
X033114Y019211D02*
X033150Y019211D01*
X033150Y019093D02*
X033114Y019093D01*
X033114Y018974D02*
X033150Y018974D01*
X033150Y018856D02*
X033114Y018856D01*
X033114Y018737D02*
X033150Y018737D01*
X033150Y018619D02*
X033114Y018619D01*
X033114Y018500D02*
X033150Y018500D01*
X033150Y018381D02*
X033114Y018381D01*
X033114Y018263D02*
X033150Y018263D01*
X033150Y018144D02*
X033114Y018144D01*
X033114Y018026D02*
X033150Y018026D01*
X033150Y017907D02*
X033114Y017907D01*
X033114Y017789D02*
X033150Y017789D01*
X033150Y017670D02*
X033114Y017670D01*
X033114Y017552D02*
X033150Y017552D01*
X033150Y017433D02*
X033114Y017433D01*
X033114Y017315D02*
X033131Y017315D01*
X032739Y016959D02*
X032242Y016959D01*
X032291Y017077D02*
X032650Y017077D01*
X032634Y017196D02*
X032292Y017196D01*
X032264Y017315D02*
X032634Y017315D01*
X032634Y017433D02*
X032195Y017433D01*
X032028Y017552D02*
X032634Y017552D01*
X032634Y017670D02*
X030819Y017670D01*
X030991Y017789D02*
X032634Y017789D01*
X032634Y017907D02*
X031062Y017907D01*
X031092Y018026D02*
X032634Y018026D01*
X032634Y018144D02*
X031092Y018144D01*
X031044Y018263D02*
X032634Y018263D01*
X032634Y018381D02*
X030947Y018381D01*
X030401Y018381D02*
X027947Y018381D01*
X027890Y018500D02*
X032634Y018500D01*
X032155Y018619D02*
X028021Y018619D01*
X027674Y018863D02*
X032274Y018863D01*
X032410Y018963D01*
X032410Y018927D01*
X032274Y018863D01*
X030529Y017670D02*
X027819Y017670D01*
X027828Y017552D02*
X031720Y017552D01*
X031553Y017433D02*
X027995Y017433D01*
X027991Y017789D02*
X030357Y017789D01*
X031605Y016840D02*
X027943Y016840D01*
X027925Y016603D02*
X030323Y016603D01*
X030574Y016263D02*
X027674Y016263D01*
X028013Y016011D02*
X030235Y016011D01*
X030377Y015892D02*
X027871Y015892D01*
X027477Y015892D02*
X027228Y015892D01*
X027304Y016011D02*
X027335Y016011D01*
X027110Y015773D02*
X033734Y015773D01*
X033734Y015655D02*
X026991Y015655D01*
X026873Y015536D02*
X027508Y015536D01*
X027437Y015418D02*
X026754Y015418D01*
X026636Y015299D02*
X027434Y015299D01*
X027434Y015181D02*
X026517Y015181D01*
X026399Y015062D02*
X027216Y015062D01*
X027189Y014944D02*
X026280Y014944D01*
X026161Y014825D02*
X027189Y014825D01*
X027189Y014707D02*
X026043Y014707D01*
X025924Y014588D02*
X027189Y014588D01*
X027189Y014469D02*
X025806Y014469D01*
X025687Y014351D02*
X027189Y014351D01*
X027189Y014232D02*
X025569Y014232D01*
X025450Y014114D02*
X027251Y014114D01*
X027237Y013995D02*
X025332Y013995D01*
X025213Y013877D02*
X027187Y013877D01*
X029688Y011862D02*
X030036Y011862D01*
X029918Y011743D02*
X029806Y011743D01*
X029862Y011348D02*
X032410Y011348D01*
X032047Y011032D02*
X030794Y011032D01*
X030427Y011032D02*
X030347Y011032D01*
X030347Y010913D02*
X030427Y010913D01*
X030427Y010795D02*
X030347Y010795D01*
X030347Y010676D02*
X030427Y010676D01*
X030427Y010558D02*
X030347Y010558D01*
X030347Y010439D02*
X030427Y010439D01*
X030427Y010320D02*
X030347Y010320D01*
X030347Y010202D02*
X030427Y010202D01*
X030741Y010202D02*
X033734Y010202D01*
X033734Y010320D02*
X030910Y010320D01*
X030987Y010439D02*
X033734Y010439D01*
X033734Y010558D02*
X031027Y010558D01*
X031027Y010676D02*
X033734Y010676D01*
X032008Y011624D02*
X030478Y011624D01*
X029980Y011032D02*
X028234Y011032D01*
X028372Y010913D02*
X029842Y010913D01*
X029778Y010795D02*
X028436Y010795D01*
X028467Y010676D02*
X029747Y010676D01*
X029747Y010558D02*
X028467Y010558D01*
X028427Y010439D02*
X029787Y010439D01*
X029864Y010320D02*
X028350Y010320D01*
X028181Y010202D02*
X030033Y010202D01*
X029770Y009135D02*
X030355Y009135D01*
X030212Y009016D02*
X029913Y009016D01*
X029975Y008898D02*
X030149Y008898D01*
X030122Y008779D02*
X030002Y008779D01*
X030002Y008661D02*
X030122Y008661D01*
X030122Y008542D02*
X030002Y008542D01*
X030002Y008424D02*
X030122Y008424D01*
X030139Y008305D02*
X029986Y008305D01*
X029936Y008187D02*
X030188Y008187D01*
X030305Y008068D02*
X029820Y008068D01*
X029305Y008068D02*
X028820Y008068D01*
X028936Y008187D02*
X029188Y008187D01*
X029139Y008305D02*
X028986Y008305D01*
X029002Y008424D02*
X029122Y008424D01*
X029122Y008542D02*
X029002Y008542D01*
X029002Y008661D02*
X029122Y008661D01*
X029122Y008779D02*
X029002Y008779D01*
X028975Y008898D02*
X029149Y008898D01*
X029212Y009016D02*
X028913Y009016D01*
X028770Y009135D02*
X029355Y009135D01*
X028355Y009135D02*
X027770Y009135D01*
X027913Y009016D02*
X028212Y009016D01*
X028149Y008898D02*
X027975Y008898D01*
X028002Y008779D02*
X028122Y008779D01*
X028122Y008661D02*
X028002Y008661D01*
X028002Y008542D02*
X028122Y008542D01*
X028122Y008424D02*
X028002Y008424D01*
X027986Y008305D02*
X028139Y008305D01*
X028188Y008187D02*
X027936Y008187D01*
X027820Y008068D02*
X028305Y008068D01*
X030820Y008068D02*
X031305Y008068D01*
X031188Y008187D02*
X030936Y008187D01*
X030986Y008305D02*
X031139Y008305D01*
X031122Y008424D02*
X031002Y008424D01*
X031002Y008542D02*
X031122Y008542D01*
X031122Y008661D02*
X031002Y008661D01*
X031002Y008779D02*
X031122Y008779D01*
X031149Y008898D02*
X030975Y008898D01*
X030913Y009016D02*
X031212Y009016D01*
X031355Y009135D02*
X030770Y009135D01*
X031770Y009135D02*
X032355Y009135D01*
X032212Y009016D02*
X031913Y009016D01*
X031975Y008898D02*
X032149Y008898D01*
X032122Y008779D02*
X032002Y008779D01*
X032002Y008661D02*
X032122Y008661D01*
X032122Y008542D02*
X032002Y008542D01*
X032002Y008424D02*
X032122Y008424D01*
X032139Y008305D02*
X031986Y008305D01*
X031936Y008187D02*
X032188Y008187D01*
X032305Y008068D02*
X031820Y008068D01*
X032820Y008068D02*
X033734Y008068D01*
X033734Y008187D02*
X032936Y008187D01*
X032986Y008305D02*
X033734Y008305D01*
X033734Y008424D02*
X033002Y008424D01*
X033002Y008542D02*
X033734Y008542D01*
X033734Y008661D02*
X033002Y008661D01*
X033002Y008779D02*
X033734Y008779D01*
X033734Y008898D02*
X032975Y008898D01*
X032913Y009016D02*
X033734Y009016D01*
X033734Y009135D02*
X032770Y009135D01*
X034145Y007594D02*
X034176Y007594D01*
X033134Y006527D02*
X025540Y006527D01*
X025769Y006409D02*
X033134Y006409D01*
X033134Y006290D02*
X025814Y006290D01*
X025814Y006171D02*
X027442Y006171D01*
X027475Y006185D02*
X027313Y006118D01*
X027189Y005994D01*
X027122Y005832D01*
X027122Y005345D01*
X027189Y005184D01*
X027313Y005060D01*
X027475Y004993D01*
X027650Y004993D01*
X027811Y005060D01*
X027935Y005184D01*
X028002Y005345D01*
X028002Y005832D01*
X027935Y005994D01*
X027811Y006118D01*
X027650Y006185D01*
X027475Y006185D01*
X027682Y006171D02*
X028442Y006171D01*
X028475Y006185D02*
X028313Y006118D01*
X028189Y005994D01*
X028122Y005832D01*
X028122Y005345D01*
X028189Y005184D01*
X028313Y005060D01*
X028475Y004993D01*
X028650Y004993D01*
X028811Y005060D01*
X028935Y005184D01*
X029002Y005345D01*
X029002Y005832D01*
X028935Y005994D01*
X028811Y006118D01*
X028650Y006185D01*
X028475Y006185D01*
X028682Y006171D02*
X029442Y006171D01*
X029475Y006185D02*
X029313Y006118D01*
X029189Y005994D01*
X029122Y005832D01*
X029122Y005345D01*
X029189Y005184D01*
X029313Y005060D01*
X029475Y004993D01*
X029650Y004993D01*
X029811Y005060D01*
X029935Y005184D01*
X030002Y005345D01*
X030002Y005832D01*
X029935Y005994D01*
X029811Y006118D01*
X029650Y006185D01*
X029475Y006185D01*
X029682Y006171D02*
X030442Y006171D01*
X030475Y006185D02*
X030313Y006118D01*
X030189Y005994D01*
X030122Y005832D01*
X030122Y005345D01*
X030189Y005184D01*
X030313Y005060D01*
X030475Y004993D01*
X030650Y004993D01*
X030811Y005060D01*
X030935Y005184D01*
X031002Y005345D01*
X031002Y005832D01*
X030935Y005994D01*
X030811Y006118D01*
X030650Y006185D01*
X030475Y006185D01*
X030682Y006171D02*
X031442Y006171D01*
X031475Y006185D02*
X031313Y006118D01*
X031189Y005994D01*
X031122Y005832D01*
X031122Y005345D01*
X031189Y005184D01*
X031313Y005060D01*
X031475Y004993D01*
X031650Y004993D01*
X031811Y005060D01*
X031935Y005184D01*
X032002Y005345D01*
X032002Y005832D01*
X031935Y005994D01*
X031811Y006118D01*
X031650Y006185D01*
X031475Y006185D01*
X031682Y006171D02*
X032442Y006171D01*
X032475Y006185D02*
X032313Y006118D01*
X032189Y005994D01*
X032122Y005832D01*
X032122Y005345D01*
X032189Y005184D01*
X032313Y005060D01*
X032475Y004993D01*
X032650Y004993D01*
X032811Y005060D01*
X032935Y005184D01*
X033002Y005345D01*
X033002Y005832D01*
X032935Y005994D01*
X032811Y006118D01*
X032650Y006185D01*
X032475Y006185D01*
X032682Y006171D02*
X033134Y006171D01*
X033134Y006053D02*
X032876Y006053D01*
X032960Y005934D02*
X033134Y005934D01*
X033134Y005816D02*
X033002Y005816D01*
X033002Y005697D02*
X033134Y005697D01*
X033134Y005579D02*
X033002Y005579D01*
X033002Y005460D02*
X033134Y005460D01*
X033134Y005342D02*
X033001Y005342D01*
X032952Y005223D02*
X033134Y005223D01*
X033134Y005105D02*
X032856Y005105D01*
X033134Y004986D02*
X025779Y004986D01*
X025777Y004867D02*
X033134Y004867D01*
X033134Y004749D02*
X027068Y004749D01*
X027111Y004630D02*
X033095Y004630D01*
X032982Y004512D02*
X027111Y004512D01*
X027111Y004393D02*
X032933Y004393D01*
X032923Y004156D02*
X027111Y004156D01*
X027111Y004038D02*
X032972Y004038D01*
X033071Y003919D02*
X027111Y003919D01*
X026696Y004393D02*
X026576Y004393D01*
X026576Y004275D02*
X026029Y004275D01*
X026029Y004393D02*
X026161Y004393D01*
X026161Y004512D02*
X026029Y004512D01*
X026029Y004630D02*
X026161Y004630D01*
X026204Y004749D02*
X025994Y004749D01*
X025856Y005105D02*
X026297Y005105D01*
X026324Y005077D02*
X026479Y005013D01*
X026542Y005013D01*
X026542Y005569D01*
X026142Y005569D01*
X026142Y005349D01*
X026206Y005195D01*
X026324Y005077D01*
X026194Y005223D02*
X025952Y005223D01*
X026001Y005342D02*
X026145Y005342D01*
X026142Y005460D02*
X026002Y005460D01*
X026002Y005579D02*
X026542Y005579D01*
X026542Y005569D02*
X026542Y005609D01*
X026542Y006165D01*
X026479Y006165D01*
X026324Y006101D01*
X026206Y005983D01*
X026142Y005828D01*
X026142Y005609D01*
X026542Y005609D01*
X026582Y005609D01*
X026582Y006165D01*
X026646Y006165D01*
X026800Y006101D01*
X026918Y005983D01*
X026982Y005828D01*
X026982Y005609D01*
X026582Y005609D01*
X026582Y005569D01*
X026982Y005569D01*
X026982Y005349D01*
X026918Y005195D01*
X026800Y005077D01*
X026646Y005013D01*
X026582Y005013D01*
X026582Y005569D01*
X026542Y005569D01*
X026582Y005579D02*
X027122Y005579D01*
X027122Y005697D02*
X026982Y005697D01*
X026982Y005816D02*
X027122Y005816D01*
X027164Y005934D02*
X026938Y005934D01*
X026848Y006053D02*
X027248Y006053D01*
X027122Y005460D02*
X026982Y005460D01*
X026979Y005342D02*
X027124Y005342D01*
X027173Y005223D02*
X026930Y005223D01*
X026828Y005105D02*
X027268Y005105D01*
X027856Y005105D02*
X028268Y005105D01*
X028173Y005223D02*
X027952Y005223D01*
X028001Y005342D02*
X028124Y005342D01*
X028122Y005460D02*
X028002Y005460D01*
X028002Y005579D02*
X028122Y005579D01*
X028122Y005697D02*
X028002Y005697D01*
X028002Y005816D02*
X028122Y005816D01*
X028164Y005934D02*
X027960Y005934D01*
X027876Y006053D02*
X028248Y006053D01*
X028876Y006053D02*
X029248Y006053D01*
X029164Y005934D02*
X028960Y005934D01*
X029002Y005816D02*
X029122Y005816D01*
X029122Y005697D02*
X029002Y005697D01*
X029002Y005579D02*
X029122Y005579D01*
X029122Y005460D02*
X029002Y005460D01*
X029001Y005342D02*
X029124Y005342D01*
X029173Y005223D02*
X028952Y005223D01*
X028856Y005105D02*
X029268Y005105D01*
X029856Y005105D02*
X030268Y005105D01*
X030173Y005223D02*
X029952Y005223D01*
X030001Y005342D02*
X030124Y005342D01*
X030122Y005460D02*
X030002Y005460D01*
X030002Y005579D02*
X030122Y005579D01*
X030122Y005697D02*
X030002Y005697D01*
X030002Y005816D02*
X030122Y005816D01*
X030164Y005934D02*
X029960Y005934D01*
X029876Y006053D02*
X030248Y006053D01*
X030876Y006053D02*
X031248Y006053D01*
X031164Y005934D02*
X030960Y005934D01*
X031002Y005816D02*
X031122Y005816D01*
X031122Y005697D02*
X031002Y005697D01*
X031002Y005579D02*
X031122Y005579D01*
X031122Y005460D02*
X031002Y005460D01*
X031001Y005342D02*
X031124Y005342D01*
X031173Y005223D02*
X030952Y005223D01*
X030856Y005105D02*
X031268Y005105D01*
X031856Y005105D02*
X032268Y005105D01*
X032173Y005223D02*
X031952Y005223D01*
X032001Y005342D02*
X032124Y005342D01*
X032122Y005460D02*
X032002Y005460D01*
X032002Y005579D02*
X032122Y005579D01*
X032122Y005697D02*
X032002Y005697D01*
X032002Y005816D02*
X032122Y005816D01*
X032164Y005934D02*
X031960Y005934D01*
X031876Y006053D02*
X032248Y006053D01*
X034177Y003682D02*
X024955Y003682D01*
X024955Y003801D02*
X025095Y003801D01*
X025039Y003919D02*
X024955Y003919D01*
X025039Y004038D02*
X024540Y004038D01*
X024540Y004156D02*
X024420Y004156D01*
X024420Y004038D02*
X023872Y004038D01*
X023872Y004156D02*
X024005Y004156D01*
X024005Y004275D02*
X023872Y004275D01*
X023872Y004393D02*
X024005Y004393D01*
X024420Y004393D02*
X024540Y004393D01*
X024540Y004275D02*
X024420Y004275D01*
X024420Y004512D02*
X024540Y004512D01*
X024509Y004630D02*
X025039Y004630D01*
X025039Y004512D02*
X024911Y004512D01*
X024955Y004393D02*
X025039Y004393D01*
X025039Y004275D02*
X024955Y004275D01*
X024955Y004156D02*
X025039Y004156D01*
X024540Y003919D02*
X024420Y003919D01*
X024420Y003801D02*
X024540Y003801D01*
X024540Y003682D02*
X024420Y003682D01*
X024420Y003564D02*
X024540Y003564D01*
X024891Y003564D02*
X034178Y003564D01*
X034178Y003445D02*
X022574Y003445D01*
X022574Y003326D02*
X034080Y003326D01*
X033959Y003208D02*
X022574Y003208D01*
X022574Y003089D02*
X033838Y003089D01*
X033717Y002971D02*
X032463Y002971D01*
X032502Y002955D02*
X032326Y003028D01*
X032135Y003028D01*
X031958Y002955D01*
X031823Y002820D01*
X031750Y002643D01*
X031750Y002092D01*
X031823Y001916D01*
X031871Y001868D01*
X031822Y001820D01*
X031749Y001643D01*
X031749Y001092D01*
X031822Y000916D01*
X031957Y000781D01*
X032134Y000708D01*
X032324Y000708D01*
X032501Y000781D01*
X032636Y000916D01*
X032709Y001092D01*
X032709Y001643D01*
X032636Y001820D01*
X032588Y001867D01*
X032637Y001916D01*
X032710Y002092D01*
X032710Y002643D01*
X032637Y002820D01*
X032502Y002955D01*
X032605Y002852D02*
X033596Y002852D01*
X033475Y002734D02*
X032673Y002734D01*
X032710Y002615D02*
X033354Y002615D01*
X033233Y002497D02*
X032710Y002497D01*
X032710Y002378D02*
X033150Y002378D01*
X033150Y002260D02*
X032710Y002260D01*
X032710Y002141D02*
X033150Y002141D01*
X033150Y002022D02*
X032681Y002022D01*
X032625Y001904D02*
X033151Y001904D01*
X033151Y001785D02*
X032650Y001785D01*
X032699Y001667D02*
X033151Y001667D01*
X033151Y001548D02*
X032709Y001548D01*
X032709Y001430D02*
X033137Y001430D01*
X033137Y001311D02*
X032709Y001311D01*
X032709Y001193D02*
X033138Y001193D01*
X033139Y001074D02*
X032701Y001074D01*
X032652Y000956D02*
X033139Y000956D01*
X033140Y000837D02*
X032557Y000837D01*
X032350Y000718D02*
X033140Y000718D01*
X032108Y000718D02*
X031350Y000718D01*
X031324Y000708D02*
X031501Y000781D01*
X031636Y000916D01*
X031709Y001092D01*
X031709Y001643D01*
X031636Y001820D01*
X031588Y001867D01*
X031637Y001916D01*
X031710Y002092D01*
X031710Y002643D01*
X031637Y002820D01*
X031502Y002955D01*
X031326Y003028D01*
X031135Y003028D01*
X030958Y002955D01*
X030823Y002820D01*
X030750Y002643D01*
X030750Y002092D01*
X030823Y001916D01*
X030871Y001868D01*
X030822Y001820D01*
X030749Y001643D01*
X030749Y001092D01*
X030822Y000916D01*
X030957Y000781D01*
X031134Y000708D01*
X031324Y000708D01*
X031108Y000718D02*
X030350Y000718D01*
X030324Y000708D02*
X030501Y000781D01*
X030636Y000916D01*
X030709Y001092D01*
X030709Y001643D01*
X030636Y001820D01*
X030588Y001867D01*
X030637Y001916D01*
X030710Y002092D01*
X030710Y002643D01*
X030637Y002820D01*
X030502Y002955D01*
X030326Y003028D01*
X030135Y003028D01*
X029958Y002955D01*
X029823Y002820D01*
X029750Y002643D01*
X029750Y002092D01*
X029823Y001916D01*
X029871Y001868D01*
X029822Y001820D01*
X029749Y001643D01*
X029749Y001092D01*
X029822Y000916D01*
X029957Y000781D01*
X030134Y000708D01*
X030324Y000708D01*
X030108Y000718D02*
X029350Y000718D01*
X029324Y000708D02*
X029501Y000781D01*
X029636Y000916D01*
X029709Y001092D01*
X029709Y001643D01*
X029636Y001820D01*
X029588Y001867D01*
X029637Y001916D01*
X029710Y002092D01*
X029710Y002643D01*
X029637Y002820D01*
X029502Y002955D01*
X029326Y003028D01*
X029135Y003028D01*
X028958Y002955D01*
X028823Y002820D01*
X028750Y002643D01*
X028750Y002092D01*
X028823Y001916D01*
X028871Y001868D01*
X028822Y001820D01*
X028749Y001643D01*
X028749Y001092D01*
X028822Y000916D01*
X028957Y000781D01*
X029134Y000708D01*
X029324Y000708D01*
X029108Y000718D02*
X028350Y000718D01*
X028324Y000708D02*
X028501Y000781D01*
X028636Y000916D01*
X028709Y001092D01*
X028709Y001643D01*
X028636Y001820D01*
X028588Y001867D01*
X028637Y001916D01*
X028710Y002092D01*
X028710Y002643D01*
X028637Y002820D01*
X028502Y002955D01*
X028326Y003028D01*
X028135Y003028D01*
X027958Y002955D01*
X027823Y002820D01*
X027750Y002643D01*
X027750Y002092D01*
X027823Y001916D01*
X027871Y001868D01*
X027822Y001820D01*
X027749Y001643D01*
X027749Y001092D01*
X027822Y000916D01*
X027957Y000781D01*
X028134Y000708D01*
X028324Y000708D01*
X028108Y000718D02*
X027350Y000718D01*
X027324Y000708D02*
X027501Y000781D01*
X027636Y000916D01*
X027709Y001092D01*
X027709Y001643D01*
X027636Y001820D01*
X027588Y001867D01*
X027637Y001916D01*
X027710Y002092D01*
X027710Y002643D01*
X027637Y002820D01*
X027502Y002955D01*
X027326Y003028D01*
X027135Y003028D01*
X026958Y002955D01*
X026823Y002820D01*
X026750Y002643D01*
X026750Y002092D01*
X026823Y001916D01*
X026871Y001868D01*
X026822Y001820D01*
X026749Y001643D01*
X026749Y001092D01*
X026822Y000916D01*
X026957Y000781D01*
X027134Y000708D01*
X027324Y000708D01*
X027108Y000718D02*
X025428Y000718D01*
X025354Y000688D02*
X025531Y000761D01*
X025666Y000896D01*
X025739Y001072D01*
X025739Y001623D01*
X025666Y001800D01*
X025617Y001848D01*
X025665Y001896D01*
X025738Y002072D01*
X025738Y002623D01*
X025665Y002800D01*
X025530Y002935D01*
X025354Y003008D01*
X025163Y003008D01*
X024986Y002935D01*
X024851Y002800D01*
X024778Y002623D01*
X024778Y002072D01*
X024851Y001896D01*
X024900Y001847D01*
X024852Y001800D01*
X024779Y001623D01*
X024779Y001072D01*
X024852Y000896D01*
X024987Y000761D01*
X025164Y000688D01*
X025354Y000688D01*
X025090Y000718D02*
X024376Y000718D01*
X024351Y000708D02*
X024520Y000778D01*
X024649Y000907D01*
X024719Y001076D01*
X024719Y001308D01*
X024299Y001308D01*
X024299Y001388D01*
X024219Y001388D01*
X024219Y001988D01*
X024218Y001988D01*
X024218Y002308D01*
X023798Y002308D01*
X023798Y002076D01*
X023868Y001907D01*
X023928Y001847D01*
X023869Y001788D01*
X023799Y001619D01*
X023799Y001388D01*
X024219Y001388D01*
X024219Y001308D01*
X023799Y001308D01*
X023799Y001076D01*
X023869Y000907D01*
X023998Y000778D01*
X024167Y000708D01*
X024219Y000708D01*
X024219Y001308D01*
X024299Y001308D01*
X024299Y000708D01*
X024351Y000708D01*
X024299Y000718D02*
X024219Y000718D01*
X024142Y000718D02*
X023376Y000718D01*
X023351Y000708D02*
X023520Y000778D01*
X023649Y000907D01*
X023719Y001076D01*
X023719Y001308D01*
X023299Y001308D01*
X023299Y001388D01*
X023219Y001388D01*
X023219Y001988D01*
X023218Y001988D01*
X023218Y002308D01*
X022798Y002308D01*
X022798Y002076D01*
X022868Y001907D01*
X022928Y001847D01*
X022869Y001788D01*
X022799Y001619D01*
X022799Y001388D01*
X023219Y001388D01*
X023219Y001308D01*
X022799Y001308D01*
X022799Y001076D01*
X022869Y000907D01*
X022998Y000778D01*
X023167Y000708D01*
X023219Y000708D01*
X023219Y001308D01*
X023299Y001308D01*
X023299Y000708D01*
X023351Y000708D01*
X023299Y000718D02*
X023219Y000718D01*
X023142Y000718D02*
X022428Y000718D01*
X022607Y000837D02*
X022939Y000837D01*
X022849Y000956D02*
X022691Y000956D01*
X022739Y001074D02*
X022800Y001074D01*
X022799Y001193D02*
X022739Y001193D01*
X022739Y001311D02*
X023219Y001311D01*
X023299Y001311D02*
X024219Y001311D01*
X024299Y001311D02*
X024779Y001311D01*
X024719Y001388D02*
X024719Y001619D01*
X024649Y001788D01*
X024589Y001848D01*
X024648Y001907D01*
X024718Y002076D01*
X024718Y002308D01*
X024298Y002308D01*
X024298Y002388D01*
X024218Y002388D01*
X024218Y002988D01*
X024167Y002988D01*
X023998Y002918D01*
X023868Y002788D01*
X023798Y002619D01*
X023798Y002388D01*
X024218Y002388D01*
X024218Y002308D01*
X024298Y002308D01*
X024298Y001708D01*
X024299Y001708D01*
X024299Y001388D01*
X024719Y001388D01*
X024719Y001430D02*
X024779Y001430D01*
X024779Y001548D02*
X024719Y001548D01*
X024699Y001667D02*
X024797Y001667D01*
X024846Y001785D02*
X024650Y001785D01*
X024645Y001904D02*
X024848Y001904D01*
X024799Y002022D02*
X024696Y002022D01*
X024718Y002141D02*
X024778Y002141D01*
X024778Y002260D02*
X024718Y002260D01*
X024718Y002388D02*
X024298Y002388D01*
X024298Y002988D01*
X024350Y002988D01*
X024519Y002918D01*
X024648Y002788D01*
X024718Y002619D01*
X024718Y002388D01*
X024778Y002378D02*
X024298Y002378D01*
X024218Y002378D02*
X023298Y002378D01*
X023298Y002388D02*
X023718Y002388D01*
X023718Y002619D01*
X023648Y002788D01*
X023519Y002918D01*
X023350Y002988D01*
X023298Y002988D01*
X023298Y002388D01*
X023218Y002388D01*
X023218Y002988D01*
X023167Y002988D01*
X022998Y002918D01*
X022868Y002788D01*
X022798Y002619D01*
X022798Y002388D01*
X023218Y002388D01*
X023218Y002308D01*
X023298Y002308D01*
X023298Y002388D01*
X023298Y002308D02*
X023718Y002308D01*
X023718Y002076D01*
X023648Y001907D01*
X023589Y001848D01*
X023649Y001788D01*
X023719Y001619D01*
X023719Y001388D01*
X023299Y001388D01*
X023299Y001708D01*
X023298Y001708D01*
X023298Y002308D01*
X023298Y002260D02*
X023218Y002260D01*
X023218Y002378D02*
X022738Y002378D01*
X022738Y002260D02*
X022798Y002260D01*
X022798Y002141D02*
X022738Y002141D01*
X022717Y002022D02*
X022820Y002022D01*
X022872Y001904D02*
X022668Y001904D01*
X022672Y001785D02*
X022868Y001785D01*
X022819Y001667D02*
X022721Y001667D01*
X022739Y001548D02*
X022799Y001548D01*
X022799Y001430D02*
X022739Y001430D01*
X023219Y001430D02*
X023299Y001430D01*
X023299Y001548D02*
X023219Y001548D01*
X023219Y001667D02*
X023299Y001667D01*
X023298Y001785D02*
X023219Y001785D01*
X023219Y001904D02*
X023298Y001904D01*
X023298Y002022D02*
X023218Y002022D01*
X023218Y002141D02*
X023298Y002141D01*
X023298Y002497D02*
X023218Y002497D01*
X023218Y002615D02*
X023298Y002615D01*
X023298Y002734D02*
X023218Y002734D01*
X023218Y002852D02*
X023298Y002852D01*
X023298Y002971D02*
X023218Y002971D01*
X023126Y002971D02*
X022574Y002971D01*
X022613Y002852D02*
X022932Y002852D01*
X022846Y002734D02*
X022692Y002734D01*
X022738Y002615D02*
X022798Y002615D01*
X022798Y002497D02*
X022738Y002497D01*
X023391Y002971D02*
X024126Y002971D01*
X024218Y002971D02*
X024298Y002971D01*
X024391Y002971D02*
X025073Y002971D01*
X024904Y002852D02*
X024584Y002852D01*
X024671Y002734D02*
X024824Y002734D01*
X024778Y002615D02*
X024718Y002615D01*
X024718Y002497D02*
X024778Y002497D01*
X024298Y002497D02*
X024218Y002497D01*
X024218Y002615D02*
X024298Y002615D01*
X024298Y002734D02*
X024218Y002734D01*
X024218Y002852D02*
X024298Y002852D01*
X023932Y002852D02*
X023584Y002852D01*
X023671Y002734D02*
X023846Y002734D01*
X023798Y002615D02*
X023718Y002615D01*
X023718Y002497D02*
X023798Y002497D01*
X023798Y002260D02*
X023718Y002260D01*
X023718Y002141D02*
X023798Y002141D01*
X023820Y002022D02*
X023696Y002022D01*
X023645Y001904D02*
X023872Y001904D01*
X023868Y001785D02*
X023650Y001785D01*
X023699Y001667D02*
X023819Y001667D01*
X023799Y001548D02*
X023719Y001548D01*
X023719Y001430D02*
X023799Y001430D01*
X023799Y001193D02*
X023719Y001193D01*
X023718Y001074D02*
X023800Y001074D01*
X023849Y000956D02*
X023669Y000956D01*
X023579Y000837D02*
X023939Y000837D01*
X024219Y000837D02*
X024299Y000837D01*
X024299Y000956D02*
X024219Y000956D01*
X024219Y001074D02*
X024299Y001074D01*
X024299Y001193D02*
X024219Y001193D01*
X024219Y001430D02*
X024299Y001430D01*
X024299Y001548D02*
X024219Y001548D01*
X024219Y001667D02*
X024299Y001667D01*
X024298Y001785D02*
X024219Y001785D01*
X024219Y001904D02*
X024298Y001904D01*
X024298Y002022D02*
X024218Y002022D01*
X024218Y002141D02*
X024298Y002141D01*
X024298Y002260D02*
X024218Y002260D01*
X024719Y001193D02*
X024779Y001193D01*
X024779Y001074D02*
X024718Y001074D01*
X024669Y000956D02*
X024827Y000956D01*
X024911Y000837D02*
X024579Y000837D01*
X025607Y000837D02*
X026901Y000837D01*
X026806Y000956D02*
X025691Y000956D01*
X025739Y001074D02*
X026757Y001074D01*
X026749Y001193D02*
X025739Y001193D01*
X025739Y001311D02*
X026749Y001311D01*
X026749Y001430D02*
X025739Y001430D01*
X025739Y001548D02*
X026749Y001548D01*
X026759Y001667D02*
X025721Y001667D01*
X025672Y001785D02*
X026808Y001785D01*
X026835Y001904D02*
X025668Y001904D01*
X025717Y002022D02*
X026779Y002022D01*
X026750Y002141D02*
X025738Y002141D01*
X025738Y002260D02*
X026750Y002260D01*
X026750Y002378D02*
X025738Y002378D01*
X025738Y002497D02*
X026750Y002497D01*
X026750Y002615D02*
X025738Y002615D01*
X025692Y002734D02*
X026788Y002734D01*
X026856Y002852D02*
X025613Y002852D01*
X025443Y002971D02*
X026997Y002971D01*
X027463Y002971D02*
X027997Y002971D01*
X027856Y002852D02*
X027605Y002852D01*
X027673Y002734D02*
X027788Y002734D01*
X027750Y002615D02*
X027710Y002615D01*
X027710Y002497D02*
X027750Y002497D01*
X027750Y002378D02*
X027710Y002378D01*
X027710Y002260D02*
X027750Y002260D01*
X027750Y002141D02*
X027710Y002141D01*
X027681Y002022D02*
X027779Y002022D01*
X027835Y001904D02*
X027625Y001904D01*
X027650Y001785D02*
X027808Y001785D01*
X027759Y001667D02*
X027699Y001667D01*
X027709Y001548D02*
X027749Y001548D01*
X027749Y001430D02*
X027709Y001430D01*
X027709Y001311D02*
X027749Y001311D01*
X027749Y001193D02*
X027709Y001193D01*
X027701Y001074D02*
X027757Y001074D01*
X027806Y000956D02*
X027652Y000956D01*
X027557Y000837D02*
X027901Y000837D01*
X028557Y000837D02*
X028901Y000837D01*
X028806Y000956D02*
X028652Y000956D01*
X028701Y001074D02*
X028757Y001074D01*
X028749Y001193D02*
X028709Y001193D01*
X028709Y001311D02*
X028749Y001311D01*
X028749Y001430D02*
X028709Y001430D01*
X028709Y001548D02*
X028749Y001548D01*
X028759Y001667D02*
X028699Y001667D01*
X028650Y001785D02*
X028808Y001785D01*
X028835Y001904D02*
X028625Y001904D01*
X028681Y002022D02*
X028779Y002022D01*
X028750Y002141D02*
X028710Y002141D01*
X028710Y002260D02*
X028750Y002260D01*
X028750Y002378D02*
X028710Y002378D01*
X028710Y002497D02*
X028750Y002497D01*
X028750Y002615D02*
X028710Y002615D01*
X028673Y002734D02*
X028788Y002734D01*
X028856Y002852D02*
X028605Y002852D01*
X028463Y002971D02*
X028997Y002971D01*
X029463Y002971D02*
X029997Y002971D01*
X029856Y002852D02*
X029605Y002852D01*
X029673Y002734D02*
X029788Y002734D01*
X029750Y002615D02*
X029710Y002615D01*
X029710Y002497D02*
X029750Y002497D01*
X029750Y002378D02*
X029710Y002378D01*
X029710Y002260D02*
X029750Y002260D01*
X029750Y002141D02*
X029710Y002141D01*
X029681Y002022D02*
X029779Y002022D01*
X029835Y001904D02*
X029625Y001904D01*
X029650Y001785D02*
X029808Y001785D01*
X029759Y001667D02*
X029699Y001667D01*
X029709Y001548D02*
X029749Y001548D01*
X029749Y001430D02*
X029709Y001430D01*
X029709Y001311D02*
X029749Y001311D01*
X029749Y001193D02*
X029709Y001193D01*
X029701Y001074D02*
X029757Y001074D01*
X029806Y000956D02*
X029652Y000956D01*
X029557Y000837D02*
X029901Y000837D01*
X030557Y000837D02*
X030901Y000837D01*
X030806Y000956D02*
X030652Y000956D01*
X030701Y001074D02*
X030757Y001074D01*
X030749Y001193D02*
X030709Y001193D01*
X030709Y001311D02*
X030749Y001311D01*
X030749Y001430D02*
X030709Y001430D01*
X030709Y001548D02*
X030749Y001548D01*
X030759Y001667D02*
X030699Y001667D01*
X030650Y001785D02*
X030808Y001785D01*
X030835Y001904D02*
X030625Y001904D01*
X030681Y002022D02*
X030779Y002022D01*
X030750Y002141D02*
X030710Y002141D01*
X030710Y002260D02*
X030750Y002260D01*
X030750Y002378D02*
X030710Y002378D01*
X030710Y002497D02*
X030750Y002497D01*
X030750Y002615D02*
X030710Y002615D01*
X030673Y002734D02*
X030788Y002734D01*
X030856Y002852D02*
X030605Y002852D01*
X030463Y002971D02*
X030997Y002971D01*
X031463Y002971D02*
X031997Y002971D01*
X031856Y002852D02*
X031605Y002852D01*
X031673Y002734D02*
X031788Y002734D01*
X031750Y002615D02*
X031710Y002615D01*
X031710Y002497D02*
X031750Y002497D01*
X031750Y002378D02*
X031710Y002378D01*
X031710Y002260D02*
X031750Y002260D01*
X031750Y002141D02*
X031710Y002141D01*
X031681Y002022D02*
X031779Y002022D01*
X031835Y001904D02*
X031625Y001904D01*
X031650Y001785D02*
X031808Y001785D01*
X031759Y001667D02*
X031699Y001667D01*
X031709Y001548D02*
X031749Y001548D01*
X031749Y001430D02*
X031709Y001430D01*
X031709Y001311D02*
X031749Y001311D01*
X031749Y001193D02*
X031709Y001193D01*
X031701Y001074D02*
X031757Y001074D01*
X031806Y000956D02*
X031652Y000956D01*
X031557Y000837D02*
X031901Y000837D01*
X026696Y004512D02*
X026576Y004512D01*
X026576Y004630D02*
X026696Y004630D01*
X026696Y004749D02*
X026576Y004749D01*
X026582Y005105D02*
X026542Y005105D01*
X026542Y005223D02*
X026582Y005223D01*
X026582Y005342D02*
X026542Y005342D01*
X026542Y005460D02*
X026582Y005460D01*
X026582Y005697D02*
X026542Y005697D01*
X026542Y005816D02*
X026582Y005816D01*
X026582Y005934D02*
X026542Y005934D01*
X026542Y006053D02*
X026582Y006053D01*
X026276Y006053D02*
X025876Y006053D01*
X025960Y005934D02*
X026186Y005934D01*
X026142Y005816D02*
X026002Y005816D01*
X026002Y005697D02*
X026142Y005697D01*
X025122Y005460D02*
X025002Y005460D01*
X025001Y005342D02*
X025124Y005342D01*
X025173Y005223D02*
X024952Y005223D01*
X024856Y005105D02*
X025268Y005105D01*
X025319Y004986D02*
X024824Y004986D01*
X024746Y004867D02*
X025317Y004867D01*
X025074Y004749D02*
X024628Y004749D01*
X024248Y005105D02*
X023856Y005105D01*
X023952Y005223D02*
X024173Y005223D01*
X024124Y005342D02*
X024001Y005342D01*
X024002Y005460D02*
X024122Y005460D01*
X024122Y005579D02*
X024002Y005579D01*
X024002Y005697D02*
X024122Y005697D01*
X024122Y005816D02*
X024002Y005816D01*
X023960Y005934D02*
X024164Y005934D01*
X024248Y006053D02*
X023876Y006053D01*
X023682Y006171D02*
X024442Y006171D01*
X024257Y006290D02*
X022255Y006290D01*
X022292Y006409D02*
X023013Y006409D01*
X022670Y006527D02*
X022292Y006527D01*
X022251Y006646D02*
X022631Y006646D01*
X022634Y006764D02*
X022164Y006764D01*
X021874Y006463D02*
X021862Y006451D01*
X021562Y005589D01*
X021122Y005579D02*
X021002Y005579D01*
X021002Y005697D02*
X021122Y005697D01*
X021122Y005816D02*
X021002Y005816D01*
X021002Y005832D02*
X020935Y005994D01*
X020811Y006118D01*
X020650Y006185D01*
X020475Y006185D01*
X020313Y006118D01*
X020189Y005994D01*
X020122Y005832D01*
X020122Y005345D01*
X020189Y005184D01*
X020313Y005060D01*
X020475Y004993D01*
X020650Y004993D01*
X020811Y005060D01*
X020935Y005184D01*
X021002Y005345D01*
X021002Y005832D01*
X020960Y005934D02*
X021164Y005934D01*
X021248Y006053D02*
X020876Y006053D01*
X020682Y006171D02*
X021442Y006171D01*
X021493Y006290D02*
X018334Y006290D01*
X018334Y006171D02*
X019442Y006171D01*
X019475Y006185D02*
X019313Y006118D01*
X019189Y005994D01*
X019122Y005832D01*
X019122Y005345D01*
X019189Y005184D01*
X019313Y005060D01*
X019475Y004993D01*
X019650Y004993D01*
X019811Y005060D01*
X019935Y005184D01*
X020002Y005345D01*
X020002Y005832D01*
X019935Y005994D01*
X019811Y006118D01*
X019650Y006185D01*
X019475Y006185D01*
X019682Y006171D02*
X020442Y006171D01*
X020248Y006053D02*
X019876Y006053D01*
X019960Y005934D02*
X020164Y005934D01*
X020122Y005816D02*
X020002Y005816D01*
X020002Y005697D02*
X020122Y005697D01*
X020122Y005579D02*
X020002Y005579D01*
X020002Y005460D02*
X020122Y005460D01*
X020124Y005342D02*
X020001Y005342D01*
X019952Y005223D02*
X020173Y005223D01*
X020268Y005105D02*
X019856Y005105D01*
X019590Y004867D02*
X023311Y004867D01*
X023192Y004749D02*
X019779Y004749D01*
X019857Y004630D02*
X023123Y004630D01*
X022918Y004512D02*
X019892Y004512D01*
X019892Y004393D02*
X022883Y004393D01*
X022462Y004275D02*
X019849Y004275D01*
X019759Y004156D02*
X022343Y004156D01*
X022225Y004038D02*
X018191Y004038D01*
X018116Y004156D02*
X018614Y004156D01*
X018518Y004275D02*
X018040Y004275D01*
X017965Y004393D02*
X018435Y004393D01*
X018352Y004512D02*
X017889Y004512D01*
X017814Y004630D02*
X018269Y004630D01*
X018186Y004749D02*
X017738Y004749D01*
X017674Y004867D02*
X018103Y004867D01*
X018020Y004986D02*
X017674Y004986D01*
X017674Y005105D02*
X017937Y005105D01*
X017850Y005223D02*
X017674Y005223D01*
X017674Y005342D02*
X017812Y005342D01*
X017814Y005460D02*
X017674Y005460D01*
X017674Y005579D02*
X017814Y005579D01*
X017814Y005697D02*
X017674Y005697D01*
X017674Y005816D02*
X017814Y005816D01*
X017814Y005934D02*
X017674Y005934D01*
X017674Y006053D02*
X017814Y006053D01*
X017814Y006171D02*
X017674Y006171D01*
X017674Y006290D02*
X017814Y006290D01*
X017814Y006409D02*
X017674Y006409D01*
X017674Y006527D02*
X017814Y006527D01*
X017814Y006646D02*
X017674Y006646D01*
X017674Y006764D02*
X017814Y006764D01*
X017814Y006883D02*
X017674Y006883D01*
X017674Y007001D02*
X017814Y007001D01*
X017814Y007120D02*
X017674Y007120D01*
X017674Y007238D02*
X017814Y007238D01*
X017814Y007357D02*
X017674Y007357D01*
X017674Y007475D02*
X017814Y007475D01*
X017814Y007594D02*
X017674Y007594D01*
X017674Y007713D02*
X017814Y007713D01*
X017814Y007831D02*
X017674Y007831D01*
X017674Y007950D02*
X017814Y007950D01*
X017814Y008068D02*
X017674Y008068D01*
X017674Y008187D02*
X017814Y008187D01*
X017814Y008305D02*
X017674Y008305D01*
X017674Y008424D02*
X017814Y008424D01*
X017814Y008542D02*
X017674Y008542D01*
X017658Y008661D02*
X017814Y008661D01*
X017814Y008779D02*
X017583Y008779D01*
X017374Y008898D02*
X017814Y008898D01*
X017814Y009016D02*
X017234Y009016D01*
X017202Y009135D02*
X017814Y009135D01*
X017814Y009254D02*
X017142Y009254D01*
X017020Y009372D02*
X017814Y009372D01*
X016614Y009609D02*
X016534Y009609D01*
X016335Y009965D02*
X014514Y009965D01*
X014514Y010083D02*
X014434Y010083D01*
X014434Y010202D02*
X014514Y010202D01*
X014514Y010320D02*
X014434Y010320D01*
X014698Y010439D02*
X014071Y010439D01*
X014020Y010558D02*
X013834Y010558D01*
X013834Y010676D02*
X013902Y010676D01*
X014818Y010439D02*
X015257Y010439D01*
X015270Y010558D02*
X014928Y010558D01*
X014947Y010320D02*
X015289Y010320D01*
X015386Y010202D02*
X015053Y010202D01*
X015102Y010083D02*
X015946Y010083D01*
X015995Y010202D02*
X015762Y010202D01*
X015859Y010320D02*
X016101Y010320D01*
X015891Y010439D02*
X016335Y010439D01*
X016128Y009372D02*
X015880Y009372D01*
X014514Y009609D02*
X014434Y009609D01*
X014434Y009728D02*
X014514Y009728D01*
X014514Y009846D02*
X014434Y009846D01*
X013997Y009609D02*
X013834Y009609D01*
X014964Y007594D02*
X015372Y007594D01*
X015326Y007475D02*
X014825Y007475D01*
X014825Y007357D02*
X015226Y007357D01*
X015178Y007238D02*
X014973Y007238D01*
X015020Y007120D02*
X015178Y007120D01*
X015212Y007001D02*
X015020Y007001D01*
X015020Y006883D02*
X015294Y006883D01*
X015315Y006764D02*
X015020Y006764D01*
X015020Y006646D02*
X015221Y006646D01*
X015178Y006527D02*
X015020Y006527D01*
X015020Y006409D02*
X015178Y006409D01*
X015217Y006290D02*
X014976Y006290D01*
X015025Y006171D02*
X015305Y006171D01*
X015304Y006053D02*
X015025Y006053D01*
X015025Y005934D02*
X015216Y005934D01*
X015844Y006053D02*
X016314Y006053D01*
X016314Y006171D02*
X015843Y006171D01*
X015931Y006290D02*
X016314Y006290D01*
X016314Y006409D02*
X015970Y006409D01*
X015970Y006527D02*
X016314Y006527D01*
X016314Y006646D02*
X015927Y006646D01*
X015833Y006764D02*
X016314Y006764D01*
X016314Y006883D02*
X015854Y006883D01*
X015936Y007001D02*
X016314Y007001D01*
X016314Y007120D02*
X015970Y007120D01*
X015970Y007238D02*
X016314Y007238D01*
X016314Y007357D02*
X015922Y007357D01*
X015822Y007475D02*
X016314Y007475D01*
X016084Y007594D02*
X015776Y007594D01*
X015932Y005934D02*
X016314Y005934D01*
X016314Y005816D02*
X015970Y005816D01*
X015970Y005697D02*
X016314Y005697D01*
X016314Y005579D02*
X015927Y005579D01*
X015832Y005460D02*
X016314Y005460D01*
X016314Y005342D02*
X015855Y005342D01*
X015936Y005223D02*
X016314Y005223D01*
X016314Y005105D02*
X015970Y005105D01*
X015970Y004986D02*
X016314Y004986D01*
X016314Y004867D02*
X015922Y004867D01*
X015820Y004749D02*
X016314Y004749D01*
X016314Y004630D02*
X015867Y004630D01*
X015941Y004512D02*
X016314Y004512D01*
X016314Y004393D02*
X015970Y004393D01*
X015966Y004275D02*
X016314Y004275D01*
X016314Y004156D02*
X015917Y004156D01*
X015809Y004038D02*
X016314Y004038D01*
X016314Y003919D02*
X015878Y003919D01*
X015946Y003801D02*
X016314Y003801D01*
X016314Y003682D02*
X015970Y003682D01*
X015962Y003564D02*
X016314Y003564D01*
X016314Y003445D02*
X015913Y003445D01*
X015797Y003326D02*
X016314Y003326D01*
X016314Y003208D02*
X015889Y003208D01*
X015950Y003089D02*
X016323Y003089D01*
X016398Y002971D02*
X015970Y002971D01*
X015957Y002852D02*
X019504Y002852D01*
X019504Y002734D02*
X015905Y002734D01*
X015770Y002615D02*
X019538Y002615D01*
X019778Y002497D02*
X015901Y002497D01*
X015955Y002378D02*
X019778Y002378D01*
X019778Y002260D02*
X015970Y002260D01*
X015952Y002141D02*
X019778Y002141D01*
X019799Y002022D02*
X015894Y002022D01*
X015786Y001904D02*
X019848Y001904D01*
X019846Y001785D02*
X015911Y001785D01*
X015960Y001667D02*
X019797Y001667D01*
X019779Y001548D02*
X015970Y001548D01*
X015948Y001430D02*
X019779Y001430D01*
X019779Y001311D02*
X015883Y001311D01*
X015804Y001193D02*
X019779Y001193D01*
X019779Y001074D02*
X015915Y001074D01*
X015964Y000956D02*
X019827Y000956D01*
X019911Y000837D02*
X015970Y000837D01*
X015943Y000718D02*
X020090Y000718D01*
X020428Y000718D02*
X021090Y000718D01*
X020911Y000837D02*
X020607Y000837D01*
X020691Y000956D02*
X020827Y000956D01*
X020779Y001074D02*
X020739Y001074D01*
X020739Y001193D02*
X020779Y001193D01*
X020779Y001311D02*
X020739Y001311D01*
X020739Y001430D02*
X020779Y001430D01*
X020779Y001548D02*
X020739Y001548D01*
X020721Y001667D02*
X020797Y001667D01*
X020846Y001785D02*
X020672Y001785D01*
X020668Y001904D02*
X020848Y001904D01*
X020799Y002022D02*
X020717Y002022D01*
X020738Y002141D02*
X020778Y002141D01*
X020778Y002260D02*
X020738Y002260D01*
X020738Y002378D02*
X020778Y002378D01*
X020778Y002497D02*
X020738Y002497D01*
X020738Y002615D02*
X020778Y002615D01*
X020824Y002734D02*
X020692Y002734D01*
X020613Y002852D02*
X020817Y002852D01*
X021197Y003208D02*
X021652Y003208D01*
X021652Y003326D02*
X021078Y003326D01*
X021315Y003089D02*
X021652Y003089D01*
X021652Y002971D02*
X021443Y002971D01*
X021613Y002852D02*
X021904Y002852D01*
X021824Y002734D02*
X021692Y002734D01*
X021738Y002615D02*
X021778Y002615D01*
X021778Y002497D02*
X021738Y002497D01*
X021738Y002378D02*
X021778Y002378D01*
X021778Y002260D02*
X021738Y002260D01*
X021738Y002141D02*
X021778Y002141D01*
X021799Y002022D02*
X021717Y002022D01*
X021668Y001904D02*
X021848Y001904D01*
X021846Y001785D02*
X021672Y001785D01*
X021721Y001667D02*
X021797Y001667D01*
X021779Y001548D02*
X021739Y001548D01*
X021739Y001430D02*
X021779Y001430D01*
X021779Y001311D02*
X021739Y001311D01*
X021739Y001193D02*
X021779Y001193D01*
X021779Y001074D02*
X021739Y001074D01*
X021691Y000956D02*
X021827Y000956D01*
X021911Y000837D02*
X021607Y000837D01*
X021428Y000718D02*
X022090Y000718D01*
X023219Y000837D02*
X023299Y000837D01*
X023299Y000956D02*
X023219Y000956D01*
X023219Y001074D02*
X023299Y001074D01*
X023299Y001193D02*
X023219Y001193D01*
X022938Y003564D02*
X022599Y003564D01*
X022717Y003682D02*
X022883Y003682D01*
X023817Y003564D02*
X024069Y003564D01*
X024005Y003682D02*
X023872Y003682D01*
X023872Y003801D02*
X024005Y003801D01*
X024005Y003919D02*
X023872Y003919D01*
X023434Y004986D02*
X018655Y004986D01*
X018572Y005105D02*
X019268Y005105D01*
X019173Y005223D02*
X018489Y005223D01*
X018406Y005342D02*
X019124Y005342D01*
X019122Y005460D02*
X018334Y005460D01*
X018334Y005579D02*
X019122Y005579D01*
X019122Y005697D02*
X018334Y005697D01*
X018334Y005816D02*
X019122Y005816D01*
X019164Y005934D02*
X018334Y005934D01*
X018334Y006053D02*
X019248Y006053D01*
X018334Y006409D02*
X021456Y006409D01*
X021456Y006527D02*
X018334Y006527D01*
X018334Y006646D02*
X021497Y006646D01*
X021584Y006764D02*
X018334Y006764D01*
X018334Y006883D02*
X018415Y006883D01*
X018340Y007001D02*
X018334Y007001D01*
X018334Y007120D02*
X018334Y007120D01*
X018334Y007238D02*
X018334Y007238D01*
X019820Y008068D02*
X020305Y008068D01*
X020188Y008187D02*
X019936Y008187D01*
X019986Y008305D02*
X020139Y008305D01*
X020122Y008424D02*
X020002Y008424D01*
X020002Y008542D02*
X020122Y008542D01*
X020122Y008661D02*
X020002Y008661D01*
X020002Y008779D02*
X020122Y008779D01*
X020149Y008898D02*
X019975Y008898D01*
X019913Y009016D02*
X020212Y009016D01*
X020332Y009135D02*
X019792Y009135D01*
X019792Y009254D02*
X020332Y009254D01*
X020332Y009372D02*
X019792Y009372D01*
X019792Y009491D02*
X020332Y009491D01*
X020332Y009609D02*
X019792Y009609D01*
X019792Y009728D02*
X020332Y009728D01*
X020332Y009846D02*
X019792Y009846D01*
X019792Y009965D02*
X020332Y009965D01*
X020332Y010083D02*
X019792Y010083D01*
X020931Y010795D02*
X021332Y010795D01*
X021332Y010913D02*
X021050Y010913D01*
X021168Y011032D02*
X021332Y011032D01*
X021332Y011150D02*
X021287Y011150D01*
X021023Y012573D02*
X019755Y012573D01*
X018124Y012573D02*
X017014Y012573D01*
X017015Y012573D02*
X017144Y012702D01*
X017214Y012871D01*
X017214Y012923D01*
X016614Y012923D01*
X016614Y012503D01*
X016846Y012503D01*
X017015Y012573D01*
X017133Y012691D02*
X018124Y012691D01*
X018124Y012810D02*
X017189Y012810D01*
X016614Y012810D02*
X016534Y012810D01*
X016534Y012928D02*
X014818Y012928D01*
X015089Y012810D02*
X015959Y012810D01*
X016015Y012691D02*
X015739Y012691D01*
X015829Y012573D02*
X016134Y012573D01*
X015852Y012454D02*
X018124Y012454D01*
X018124Y012336D02*
X015822Y012336D01*
X015883Y012217D02*
X018124Y012217D01*
X018132Y012928D02*
X016614Y012928D01*
X016614Y013047D02*
X016534Y013047D01*
X016534Y013166D02*
X016614Y013166D01*
X016614Y013284D02*
X016534Y013284D01*
X016534Y013403D02*
X016614Y013403D01*
X016254Y013403D02*
X015891Y013403D01*
X015891Y013521D02*
X016206Y013521D01*
X016038Y013640D02*
X015844Y013640D01*
X015844Y013284D02*
X016065Y013284D01*
X015980Y013166D02*
X015686Y013166D01*
X015462Y013166D02*
X015068Y013166D01*
X015114Y013047D02*
X015934Y013047D01*
X015409Y012691D02*
X015033Y012691D01*
X014914Y012573D02*
X015319Y012573D01*
X015296Y012454D02*
X014818Y012454D01*
X014818Y012336D02*
X014833Y012336D01*
X014698Y012336D02*
X014515Y012336D01*
X014453Y012361D02*
X014295Y012361D01*
X014148Y012301D01*
X014074Y012226D01*
X014000Y012301D01*
X013853Y012361D01*
X013695Y012361D01*
X013548Y012301D01*
X013436Y012189D01*
X013430Y012172D01*
X013406Y012230D01*
X013271Y012365D01*
X013094Y012438D01*
X012544Y012438D01*
X012367Y012365D01*
X012232Y012230D01*
X012162Y012061D01*
X012110Y012187D01*
X011998Y012299D01*
X011853Y012359D01*
X011695Y012359D01*
X011550Y012299D01*
X011438Y012187D01*
X011424Y012153D01*
X011410Y012187D01*
X011298Y012299D01*
X011153Y012359D01*
X010995Y012359D01*
X010850Y012299D01*
X010738Y012187D01*
X010724Y012153D01*
X010710Y012187D01*
X010598Y012299D01*
X010453Y012359D01*
X010295Y012359D01*
X010150Y012299D01*
X010038Y012187D01*
X010024Y012153D01*
X010010Y012187D01*
X009898Y012299D01*
X009753Y012359D01*
X009595Y012359D01*
X009450Y012299D01*
X009338Y012187D01*
X009324Y012153D01*
X009310Y012187D01*
X009198Y012299D01*
X009053Y012359D01*
X008895Y012359D01*
X008750Y012299D01*
X008638Y012187D01*
X008624Y012153D01*
X008610Y012187D01*
X008498Y012299D01*
X008353Y012359D01*
X008195Y012359D01*
X008050Y012299D01*
X007938Y012187D01*
X007924Y012153D01*
X007910Y012187D01*
X007798Y012299D01*
X007653Y012359D01*
X007495Y012359D01*
X007350Y012299D01*
X007320Y012269D01*
X007320Y012634D01*
X007285Y012669D01*
X007235Y012669D01*
X007200Y012634D01*
X007200Y012197D01*
X007098Y012299D01*
X006953Y012359D01*
X006795Y012359D01*
X006650Y012299D01*
X006538Y012187D01*
X006524Y012153D01*
X006510Y012187D01*
X006398Y012299D01*
X006253Y012359D01*
X006095Y012359D01*
X005950Y012299D01*
X005838Y012187D01*
X005824Y012153D01*
X005810Y012187D01*
X005698Y012299D01*
X005553Y012359D01*
X005395Y012359D01*
X005250Y012299D01*
X005138Y012187D01*
X005124Y012153D01*
X005110Y012187D01*
X004998Y012299D01*
X004853Y012359D01*
X004695Y012359D01*
X004550Y012299D01*
X004438Y012187D01*
X004424Y012153D01*
X004410Y012187D01*
X004298Y012299D01*
X004153Y012359D01*
X003995Y012359D01*
X003850Y012299D01*
X003738Y012187D01*
X003724Y012153D01*
X003710Y012187D01*
X003598Y012299D01*
X003453Y012359D01*
X003295Y012359D01*
X003214Y012325D01*
X003214Y017767D01*
X004210Y017767D01*
X004315Y017873D01*
X004315Y018809D01*
X004210Y018915D01*
X003214Y018915D01*
X003214Y021311D01*
X004210Y021311D01*
X004315Y021416D01*
X004315Y022225D01*
X005136Y022225D01*
X005136Y021416D01*
X005242Y021311D01*
X006375Y021311D01*
X006480Y021416D01*
X006480Y022225D01*
X006642Y022225D01*
X006589Y022172D01*
X006589Y021393D01*
X006695Y021288D01*
X006894Y021288D01*
X006894Y021168D01*
X006904Y021158D01*
X006695Y021158D01*
X006589Y021052D01*
X006589Y020658D01*
X006480Y020658D01*
X006480Y020916D01*
X006375Y021021D01*
X005242Y021021D01*
X005193Y020973D01*
X005161Y020973D01*
X005161Y021046D01*
X005110Y021170D01*
X005015Y021265D01*
X004891Y021316D01*
X004757Y021316D01*
X004633Y021265D01*
X004538Y021170D01*
X004487Y021046D01*
X004487Y020912D01*
X004536Y020793D01*
X004179Y020793D01*
X004150Y020764D01*
X004037Y020717D01*
X003920Y020600D01*
X003856Y020446D01*
X003856Y020280D01*
X003920Y020126D01*
X004033Y020013D01*
X003920Y019900D01*
X003856Y019746D01*
X003856Y019580D01*
X003920Y019426D01*
X004037Y019308D01*
X004191Y019245D01*
X004357Y019245D01*
X004487Y019298D01*
X004487Y019180D01*
X004538Y019056D01*
X004633Y018961D01*
X004757Y018910D01*
X004891Y018910D01*
X005015Y018961D01*
X005110Y019056D01*
X005161Y019180D01*
X005161Y019313D01*
X005250Y019224D01*
X005808Y019224D01*
X005808Y019482D01*
X005808Y019482D01*
X005808Y019224D01*
X006367Y019224D01*
X006460Y019318D01*
X006460Y019483D01*
X006460Y019605D01*
X006480Y019625D01*
X006480Y019933D01*
X006660Y019933D01*
X006589Y019862D01*
X006589Y019083D01*
X006695Y018978D01*
X007553Y018978D01*
X007570Y018995D01*
X007691Y018945D01*
X007857Y018945D01*
X008011Y019008D01*
X008031Y019029D01*
X007978Y018900D01*
X007978Y018725D01*
X008037Y018583D01*
X007659Y018583D01*
X007659Y018742D01*
X007553Y018848D01*
X006695Y018848D01*
X006589Y018742D01*
X006589Y017963D01*
X006695Y017858D01*
X007553Y017858D01*
X007659Y017963D01*
X007659Y018123D01*
X008106Y018123D01*
X008045Y018062D01*
X007978Y017900D01*
X007978Y017725D01*
X008045Y017564D01*
X008169Y017440D01*
X008330Y017373D01*
X008818Y017373D01*
X008979Y017440D01*
X009044Y017505D01*
X009044Y017093D01*
X008968Y017169D01*
X008814Y017233D01*
X008594Y017233D01*
X008594Y016833D01*
X008554Y016833D01*
X008554Y017233D01*
X008334Y017233D01*
X008180Y017169D01*
X008062Y017051D01*
X007998Y016896D01*
X007998Y016833D01*
X008554Y016833D01*
X008554Y016793D01*
X007998Y016793D01*
X007998Y016729D01*
X008062Y016575D01*
X008180Y016457D01*
X008334Y016393D01*
X008554Y016393D01*
X008554Y016793D01*
X008594Y016793D01*
X008594Y016393D01*
X008814Y016393D01*
X008968Y016457D01*
X009044Y016533D01*
X009044Y016121D01*
X008979Y016186D01*
X008818Y016253D01*
X008330Y016253D01*
X008169Y016186D01*
X008056Y016073D01*
X006684Y016073D01*
X006647Y016162D01*
X006523Y016286D01*
X006362Y016353D01*
X006186Y016353D01*
X006025Y016286D01*
X005912Y016173D01*
X004758Y016173D01*
X004758Y016251D01*
X004653Y016357D01*
X003795Y016357D01*
X003690Y016251D01*
X003690Y015472D01*
X003795Y015367D01*
X004653Y015367D01*
X004758Y015472D01*
X004758Y015653D01*
X005912Y015653D01*
X006025Y015540D01*
X006186Y015473D01*
X006362Y015473D01*
X006523Y015540D01*
X006536Y015553D01*
X008056Y015553D01*
X008169Y015440D01*
X008330Y015373D01*
X008818Y015373D01*
X008979Y015440D01*
X009044Y015505D01*
X009044Y015121D01*
X008979Y015186D01*
X008818Y015253D01*
X008330Y015253D01*
X008169Y015186D01*
X008056Y015073D01*
X007022Y015073D01*
X006927Y015033D01*
X006854Y014960D01*
X006695Y014802D01*
X006695Y014821D01*
X006660Y014856D01*
X006611Y014856D01*
X006575Y014821D01*
X006575Y014682D01*
X006346Y014453D01*
X006202Y014453D01*
X006170Y014484D01*
X006075Y014524D01*
X005946Y014524D01*
X005946Y014628D01*
X006116Y014684D01*
X006138Y014729D01*
X006122Y014776D01*
X006078Y014798D01*
X005876Y014731D01*
X005861Y014731D01*
X005853Y014723D01*
X005843Y014720D01*
X005836Y014706D01*
X005826Y014696D01*
X005826Y014685D01*
X005821Y014675D01*
X005826Y014661D01*
X005826Y014524D01*
X004758Y014524D01*
X004758Y014654D01*
X004653Y014759D01*
X003795Y014759D01*
X003690Y014654D01*
X003690Y013874D01*
X003795Y013769D01*
X004653Y013769D01*
X004758Y013874D01*
X004758Y014004D01*
X005826Y014004D01*
X005826Y012794D01*
X005236Y012794D01*
X005201Y012759D01*
X005076Y012634D01*
X005076Y012584D01*
X005111Y012549D01*
X005161Y012549D01*
X005286Y012674D01*
X005861Y012674D01*
X005910Y012674D01*
X005946Y012709D01*
X005946Y013719D01*
X006025Y013640D01*
X006186Y013573D01*
X006325Y013573D01*
X006325Y012884D01*
X006325Y012834D01*
X006450Y012709D01*
X006486Y012674D01*
X006700Y012674D01*
X006700Y012647D01*
X006735Y012611D01*
X007110Y012611D01*
X007160Y012611D01*
X007195Y012647D01*
X007195Y012759D01*
X007160Y012794D01*
X007110Y012794D01*
X006535Y012794D01*
X006445Y012884D01*
X006445Y013608D01*
X006523Y013640D01*
X006647Y013764D01*
X006714Y013925D01*
X006714Y014085D01*
X007182Y014553D01*
X008056Y014553D01*
X008169Y014440D01*
X008330Y014373D01*
X008818Y014373D01*
X008979Y014440D01*
X009044Y014505D01*
X009044Y014121D01*
X008979Y014186D01*
X008818Y014253D01*
X008330Y014253D01*
X008169Y014186D01*
X008045Y014062D01*
X007978Y013900D01*
X007978Y013725D01*
X008045Y013564D01*
X008169Y013440D01*
X008330Y013373D01*
X008818Y013373D01*
X008979Y013440D01*
X009103Y013564D01*
X009111Y013583D01*
X009369Y013583D01*
X009504Y013718D01*
X009504Y013908D01*
X009504Y021358D01*
X009369Y021493D01*
X009179Y021493D01*
X009032Y021493D01*
X009103Y021564D01*
X009111Y021583D01*
X010644Y021583D01*
X010644Y020358D01*
X010644Y020168D01*
X010779Y020033D01*
X010919Y020033D01*
X010794Y019908D01*
X010744Y019858D01*
X010744Y019668D01*
X010744Y019650D01*
X010526Y019650D01*
X010491Y019615D01*
X010491Y019565D01*
X010526Y019530D01*
X010577Y019530D01*
X010577Y018744D01*
X010612Y018709D01*
X010744Y018709D01*
X010744Y017168D01*
X010879Y017033D01*
X011055Y017033D01*
X010998Y016896D01*
X010998Y016833D01*
X011554Y016833D01*
X011554Y016793D01*
X010998Y016793D01*
X010998Y016729D01*
X011062Y016575D01*
X011180Y016457D01*
X011334Y016393D01*
X011554Y016393D01*
X011554Y016793D01*
X011594Y016793D01*
X011594Y016393D01*
X011814Y016393D01*
X011888Y016424D01*
X011888Y016266D01*
X011962Y016193D01*
X011818Y016253D01*
X011330Y016253D01*
X011169Y016186D01*
X011045Y016062D01*
X010978Y015900D01*
X010978Y015725D01*
X011033Y015593D01*
X010779Y015593D01*
X010644Y015458D01*
X010644Y015268D01*
X010644Y013718D01*
X010779Y013583D01*
X010969Y013583D01*
X011037Y013583D01*
X011045Y013564D01*
X011169Y013440D01*
X011330Y013373D01*
X011818Y013373D01*
X011979Y013440D01*
X012103Y013564D01*
X012170Y013725D01*
X012170Y013900D01*
X012103Y014062D01*
X011979Y014186D01*
X011818Y014253D01*
X011330Y014253D01*
X011169Y014186D01*
X011104Y014121D01*
X011104Y014505D01*
X011169Y014440D01*
X011330Y014373D01*
X011818Y014373D01*
X011979Y014440D01*
X012103Y014564D01*
X012170Y014725D01*
X012170Y014900D01*
X012103Y015062D01*
X012032Y015133D01*
X012879Y015133D01*
X013069Y015133D01*
X013144Y015208D01*
X013144Y014024D01*
X013120Y014000D01*
X013056Y013846D01*
X013056Y013680D01*
X013120Y013526D01*
X013237Y013408D01*
X013391Y013345D01*
X013557Y013345D01*
X013711Y013408D01*
X013828Y013526D01*
X013892Y013680D01*
X013892Y013686D01*
X014022Y013556D01*
X014199Y013483D01*
X014698Y013483D01*
X014698Y013423D01*
X014514Y013423D01*
X014514Y013003D01*
X014434Y013003D01*
X014434Y013423D01*
X014202Y013423D01*
X014033Y013353D01*
X013904Y013223D01*
X013834Y013054D01*
X013834Y013003D01*
X014434Y013003D01*
X014434Y012923D01*
X013834Y012923D01*
X013834Y012871D01*
X013904Y012702D01*
X014033Y012573D01*
X014202Y012503D01*
X014434Y012503D01*
X014434Y012923D01*
X014514Y012923D01*
X014514Y012503D01*
X014698Y012503D01*
X014698Y012250D01*
X014674Y012226D01*
X014600Y012301D01*
X014453Y012361D01*
X014434Y012573D02*
X014514Y012573D01*
X014514Y012691D02*
X014434Y012691D01*
X014434Y012810D02*
X014514Y012810D01*
X014434Y012928D02*
X013479Y012928D01*
X013479Y012862D02*
X013479Y013053D01*
X013406Y013230D01*
X013271Y013365D01*
X013094Y013438D01*
X013051Y013438D01*
X013054Y014167D01*
X013054Y014168D01*
X013054Y014264D01*
X013054Y014357D01*
X013054Y014358D01*
X012990Y014422D01*
X012939Y014473D01*
X012928Y014500D01*
X012811Y014617D01*
X012657Y014681D01*
X012491Y014681D01*
X012337Y014617D01*
X012220Y014500D01*
X012156Y014346D01*
X012156Y014180D01*
X012220Y014026D01*
X012337Y013908D01*
X012491Y013845D01*
X012592Y013845D01*
X012591Y013438D01*
X012544Y013438D01*
X012367Y013365D01*
X012232Y013230D01*
X012159Y013053D01*
X012159Y012927D01*
X012103Y013062D01*
X011979Y013186D01*
X011818Y013253D01*
X011330Y013253D01*
X011169Y013186D01*
X011045Y013062D01*
X010978Y012900D01*
X010978Y012725D01*
X011045Y012564D01*
X011169Y012440D01*
X011330Y012373D01*
X011818Y012373D01*
X011979Y012440D01*
X012103Y012564D01*
X012170Y012725D01*
X012170Y012836D01*
X012232Y012686D01*
X012367Y012551D01*
X012544Y012478D01*
X013094Y012478D01*
X013271Y012551D01*
X013406Y012686D01*
X013479Y012862D01*
X013457Y012810D02*
X013859Y012810D01*
X013915Y012691D02*
X013408Y012691D01*
X013293Y012573D02*
X014034Y012573D01*
X013915Y012336D02*
X014233Y012336D01*
X014698Y012454D02*
X011994Y012454D01*
X011909Y012336D02*
X012338Y012336D01*
X012227Y012217D02*
X012080Y012217D01*
X012147Y012099D02*
X012178Y012099D01*
X011639Y012336D02*
X011209Y012336D01*
X011154Y012454D02*
X008994Y012454D01*
X008979Y012440D02*
X009103Y012564D01*
X009170Y012725D01*
X009170Y012900D01*
X009103Y013062D01*
X008979Y013186D01*
X008818Y013253D01*
X008330Y013253D01*
X008169Y013186D01*
X008045Y013062D01*
X007978Y012900D01*
X007978Y012725D01*
X008045Y012564D01*
X008169Y012440D01*
X008330Y012373D01*
X008818Y012373D01*
X008979Y012440D01*
X009109Y012336D02*
X009539Y012336D01*
X009368Y012217D02*
X009280Y012217D01*
X009107Y012573D02*
X011041Y012573D01*
X010992Y012691D02*
X009156Y012691D01*
X009170Y012810D02*
X010978Y012810D01*
X010990Y012928D02*
X009158Y012928D01*
X009109Y013047D02*
X011039Y013047D01*
X011148Y013166D02*
X009000Y013166D01*
X008889Y013403D02*
X011259Y013403D01*
X011087Y013521D02*
X009061Y013521D01*
X009426Y013640D02*
X010722Y013640D01*
X010644Y013758D02*
X009504Y013758D01*
X009504Y013877D02*
X010644Y013877D01*
X010644Y013995D02*
X009504Y013995D01*
X009504Y014114D02*
X010644Y014114D01*
X010644Y014232D02*
X009504Y014232D01*
X009504Y014351D02*
X010644Y014351D01*
X010644Y014469D02*
X009504Y014469D01*
X009504Y014588D02*
X010644Y014588D01*
X010644Y014707D02*
X009504Y014707D01*
X009504Y014825D02*
X010644Y014825D01*
X010644Y014944D02*
X009504Y014944D01*
X009504Y015062D02*
X010644Y015062D01*
X010644Y015181D02*
X009504Y015181D01*
X009504Y015299D02*
X010644Y015299D01*
X010644Y015418D02*
X009504Y015418D01*
X009504Y015536D02*
X010722Y015536D01*
X011007Y015655D02*
X009504Y015655D01*
X009504Y015773D02*
X010978Y015773D01*
X010978Y015892D02*
X009504Y015892D01*
X009504Y016011D02*
X011024Y016011D01*
X011112Y016129D02*
X009504Y016129D01*
X009504Y016248D02*
X011318Y016248D01*
X011152Y016485D02*
X009504Y016485D01*
X009504Y016603D02*
X011050Y016603D01*
X011001Y016722D02*
X009504Y016722D01*
X009504Y016840D02*
X010998Y016840D01*
X011024Y016959D02*
X009504Y016959D01*
X009504Y017077D02*
X010834Y017077D01*
X010744Y017196D02*
X009504Y017196D01*
X009504Y017315D02*
X010744Y017315D01*
X010744Y017433D02*
X009504Y017433D01*
X009504Y017552D02*
X010744Y017552D01*
X010744Y017670D02*
X009504Y017670D01*
X009504Y017789D02*
X010744Y017789D01*
X010744Y017907D02*
X009504Y017907D01*
X009504Y018026D02*
X010744Y018026D01*
X010744Y018144D02*
X009504Y018144D01*
X009504Y018263D02*
X010744Y018263D01*
X010744Y018381D02*
X009504Y018381D01*
X009504Y018500D02*
X010744Y018500D01*
X010744Y018619D02*
X009504Y018619D01*
X009504Y018737D02*
X010584Y018737D01*
X010577Y018856D02*
X009504Y018856D01*
X009504Y018974D02*
X010577Y018974D01*
X010577Y019093D02*
X009504Y019093D01*
X009504Y019211D02*
X010577Y019211D01*
X010577Y019330D02*
X009504Y019330D01*
X009504Y019448D02*
X010577Y019448D01*
X010491Y019567D02*
X009504Y019567D01*
X009504Y019685D02*
X010744Y019685D01*
X010744Y019804D02*
X009504Y019804D01*
X009504Y019922D02*
X010808Y019922D01*
X010771Y020041D02*
X009504Y020041D01*
X009504Y020160D02*
X010652Y020160D01*
X010644Y020278D02*
X009504Y020278D01*
X009504Y020397D02*
X010644Y020397D01*
X010644Y020515D02*
X009504Y020515D01*
X009504Y020634D02*
X010644Y020634D01*
X010644Y020752D02*
X009504Y020752D01*
X009504Y020871D02*
X010644Y020871D01*
X010644Y020989D02*
X009504Y020989D01*
X009504Y021108D02*
X010644Y021108D01*
X010644Y021226D02*
X009504Y021226D01*
X009504Y021345D02*
X010644Y021345D01*
X010644Y021464D02*
X009399Y021464D01*
X009111Y021582D02*
X010644Y021582D01*
X013733Y019833D02*
X013944Y019833D01*
X013864Y019753D01*
X013864Y019603D01*
X014284Y019603D01*
X014284Y019523D01*
X013864Y019523D01*
X013864Y019372D01*
X013944Y019293D01*
X013733Y019293D01*
X013804Y019364D01*
X013804Y019762D01*
X013733Y019833D01*
X013762Y019804D02*
X013915Y019804D01*
X013864Y019685D02*
X013804Y019685D01*
X013804Y019567D02*
X014284Y019567D01*
X013864Y019448D02*
X013804Y019448D01*
X013770Y019330D02*
X013907Y019330D01*
X016829Y021108D02*
X016889Y021108D01*
X016889Y021226D02*
X016829Y021226D01*
X016829Y021345D02*
X017309Y021345D01*
X017309Y021338D02*
X017389Y021338D01*
X017389Y020927D01*
X017309Y020847D01*
X017309Y021338D01*
X017389Y021345D02*
X017869Y021345D01*
X017809Y021418D02*
X017809Y021649D01*
X017739Y021818D01*
X017610Y021948D01*
X017441Y022018D01*
X017389Y022018D01*
X017389Y021418D01*
X017809Y021418D01*
X017809Y021464D02*
X017869Y021464D01*
X017869Y021582D02*
X017809Y021582D01*
X017788Y021701D02*
X017889Y021701D01*
X017938Y021819D02*
X017738Y021819D01*
X017620Y021938D02*
X018050Y021938D01*
X018648Y021938D02*
X019050Y021938D01*
X018938Y021819D02*
X018760Y021819D01*
X018809Y021701D02*
X018889Y021701D01*
X018869Y021582D02*
X018829Y021582D01*
X018829Y021464D02*
X018869Y021464D01*
X018869Y021345D02*
X018829Y021345D01*
X018829Y021226D02*
X018869Y021226D01*
X018869Y021108D02*
X018829Y021108D01*
X018899Y020989D02*
X018916Y020989D01*
X018198Y020671D02*
X018190Y020653D01*
X018190Y020102D01*
X018263Y019926D01*
X018398Y019791D01*
X018410Y019786D01*
X018410Y019515D01*
X018410Y019411D01*
X018421Y019386D01*
X018398Y019386D01*
X018398Y018971D01*
X019010Y018971D01*
X019010Y019203D01*
X019190Y019203D01*
X019190Y018500D01*
X018980Y018500D01*
X019010Y018530D02*
X019010Y018851D01*
X018398Y018851D01*
X018398Y018436D01*
X018916Y018436D01*
X019010Y018530D01*
X019010Y018619D02*
X019190Y018619D01*
X019190Y018737D02*
X019010Y018737D01*
X019190Y018856D02*
X018398Y018856D01*
X018398Y018851D02*
X018398Y018971D01*
X018278Y018971D01*
X018278Y018851D01*
X018398Y018851D01*
X018398Y018737D02*
X018278Y018737D01*
X018278Y018851D02*
X018278Y018436D01*
X017760Y018436D01*
X017714Y018482D01*
X017714Y018246D01*
X017752Y018284D01*
X018924Y018284D01*
X019030Y018179D01*
X019030Y018019D01*
X019190Y018019D01*
X019190Y018159D01*
X019295Y018265D01*
X020154Y018265D01*
X020260Y018159D01*
X020260Y017840D01*
X020337Y017917D01*
X020491Y017981D01*
X020657Y017981D01*
X020811Y017917D01*
X020928Y017800D01*
X020944Y017762D01*
X020944Y018582D01*
X020620Y018660D01*
X020260Y018660D01*
X020260Y018500D01*
X020154Y018395D01*
X019295Y018395D01*
X019190Y018500D01*
X019293Y018263D02*
X018946Y018263D01*
X019030Y018144D02*
X019190Y018144D01*
X019190Y018026D02*
X019030Y018026D01*
X019030Y017552D02*
X019190Y017552D01*
X019190Y017433D02*
X019030Y017433D01*
X018945Y017315D02*
X019256Y017315D01*
X019626Y016840D02*
X017714Y016840D01*
X017714Y016722D02*
X019508Y016722D01*
X019453Y016603D02*
X017714Y016603D01*
X017714Y016485D02*
X019453Y016485D01*
X019453Y016366D02*
X017893Y016366D01*
X018080Y016248D02*
X019453Y016248D01*
X019453Y016129D02*
X018158Y016129D01*
X017774Y015963D02*
X017574Y016263D01*
X017474Y016263D01*
X017474Y018763D01*
X017374Y018863D01*
X017486Y019076D02*
X016900Y019662D01*
X016900Y019774D01*
X016942Y019791D01*
X017077Y019926D01*
X017150Y020102D01*
X017150Y020653D01*
X017084Y020812D01*
X017088Y020808D01*
X017248Y020742D01*
X017210Y020649D01*
X017210Y020418D01*
X017630Y020418D01*
X017630Y020828D01*
X017710Y020909D01*
X017710Y020418D01*
X017630Y020418D01*
X017630Y020338D01*
X017210Y020338D01*
X017210Y020106D01*
X017280Y019937D01*
X017410Y019808D01*
X017579Y019738D01*
X017630Y019738D01*
X017630Y020338D01*
X017710Y020338D01*
X017710Y020418D01*
X018130Y020418D01*
X018130Y020649D01*
X018067Y020801D01*
X018077Y020791D01*
X018132Y020768D01*
X018154Y020716D01*
X018198Y020671D01*
X018190Y020634D02*
X018130Y020634D01*
X018138Y020752D02*
X018087Y020752D01*
X018130Y020515D02*
X018190Y020515D01*
X018190Y020397D02*
X017710Y020397D01*
X017710Y020338D02*
X018130Y020338D01*
X018130Y020106D01*
X018060Y019937D01*
X017931Y019808D01*
X017762Y019738D01*
X017710Y019738D01*
X017710Y020338D01*
X017710Y020278D02*
X017630Y020278D01*
X017630Y020160D02*
X017710Y020160D01*
X017710Y020041D02*
X017630Y020041D01*
X017630Y019922D02*
X017710Y019922D01*
X017710Y019804D02*
X017630Y019804D01*
X017419Y019804D02*
X016955Y019804D01*
X016900Y019685D02*
X018410Y019685D01*
X018410Y019567D02*
X016995Y019567D01*
X017114Y019448D02*
X018410Y019448D01*
X018398Y019330D02*
X018278Y019330D01*
X018278Y019386D02*
X017760Y019386D01*
X017666Y019292D01*
X017666Y018971D01*
X018278Y018971D01*
X018278Y019386D01*
X018278Y019211D02*
X018398Y019211D01*
X018398Y019093D02*
X018278Y019093D01*
X018278Y018974D02*
X018398Y018974D01*
X018278Y018856D02*
X017695Y018856D01*
X017697Y018851D02*
X017677Y018899D01*
X017610Y018966D01*
X017510Y019066D01*
X017486Y019076D01*
X017469Y019093D02*
X017666Y019093D01*
X017666Y019211D02*
X017351Y019211D01*
X017232Y019330D02*
X017704Y019330D01*
X017666Y018974D02*
X017602Y018974D01*
X017697Y018851D02*
X018278Y018851D01*
X018278Y018619D02*
X018398Y018619D01*
X018398Y018500D02*
X018278Y018500D01*
X017714Y018381D02*
X020944Y018381D01*
X020944Y018263D02*
X020156Y018263D01*
X020260Y018144D02*
X020944Y018144D01*
X020944Y018026D02*
X020260Y018026D01*
X020260Y017907D02*
X020327Y017907D01*
X020821Y017907D02*
X020944Y017907D01*
X020933Y017789D02*
X020944Y017789D01*
X020944Y018500D02*
X020259Y018500D01*
X020260Y018619D02*
X020791Y018619D01*
X019190Y018974D02*
X019010Y018974D01*
X019010Y019093D02*
X019190Y019093D01*
X018385Y019804D02*
X017921Y019804D01*
X018045Y019922D02*
X018267Y019922D01*
X018216Y020041D02*
X018103Y020041D01*
X018130Y020160D02*
X018190Y020160D01*
X018190Y020278D02*
X018130Y020278D01*
X017710Y020515D02*
X017630Y020515D01*
X017630Y020397D02*
X017150Y020397D01*
X017150Y020515D02*
X017210Y020515D01*
X017210Y020634D02*
X017150Y020634D01*
X017109Y020752D02*
X017223Y020752D01*
X017309Y020871D02*
X017333Y020871D01*
X017309Y020989D02*
X017389Y020989D01*
X017389Y021108D02*
X017309Y021108D01*
X017309Y021226D02*
X017389Y021226D01*
X017389Y021464D02*
X017309Y021464D01*
X017309Y021582D02*
X017389Y021582D01*
X017389Y021701D02*
X017309Y021701D01*
X017309Y021819D02*
X017389Y021819D01*
X017389Y021938D02*
X017309Y021938D01*
X017078Y021938D02*
X016648Y021938D01*
X016760Y021819D02*
X016960Y021819D01*
X016910Y021701D02*
X016809Y021701D01*
X016829Y021582D02*
X016889Y021582D01*
X016889Y021464D02*
X016829Y021464D01*
X016899Y020989D02*
X016937Y020989D01*
X017630Y020752D02*
X017710Y020752D01*
X017710Y020634D02*
X017630Y020634D01*
X017672Y020871D02*
X017710Y020871D01*
X017830Y020989D02*
X017916Y020989D01*
X017869Y021108D02*
X017809Y021108D01*
X017809Y021226D02*
X017869Y021226D01*
X017210Y020278D02*
X017150Y020278D01*
X017150Y020160D02*
X017210Y020160D01*
X017237Y020041D02*
X017125Y020041D01*
X017074Y019922D02*
X017295Y019922D01*
X015889Y021701D02*
X015794Y021701D01*
X015891Y021819D02*
X015938Y021819D01*
X015951Y021938D02*
X016050Y021938D01*
X019648Y021938D02*
X020050Y021938D01*
X019938Y021819D02*
X019760Y021819D01*
X019809Y021701D02*
X019889Y021701D01*
X019869Y021582D02*
X019829Y021582D01*
X019829Y021464D02*
X019869Y021464D01*
X019869Y021345D02*
X019829Y021345D01*
X019829Y021226D02*
X019869Y021226D01*
X019869Y021108D02*
X019829Y021108D01*
X019821Y021083D02*
X019821Y021083D01*
X019903Y020989D02*
X019916Y020989D01*
X020821Y021083D02*
X020821Y021083D01*
X020829Y021108D02*
X020869Y021108D01*
X020869Y021226D02*
X020829Y021226D01*
X020829Y021345D02*
X020869Y021345D01*
X020869Y021464D02*
X020829Y021464D01*
X020829Y021582D02*
X020869Y021582D01*
X020889Y021701D02*
X020809Y021701D01*
X020760Y021819D02*
X020938Y021819D01*
X021050Y021938D02*
X020648Y021938D01*
X021648Y021938D02*
X022050Y021938D01*
X021938Y021819D02*
X021760Y021819D01*
X021809Y021701D02*
X021889Y021701D01*
X021869Y021582D02*
X021829Y021582D01*
X021829Y021464D02*
X021869Y021464D01*
X021869Y021345D02*
X021829Y021345D01*
X021829Y021226D02*
X021869Y021226D01*
X021869Y021108D02*
X021829Y021108D01*
X021883Y020989D02*
X021916Y020989D01*
X022829Y021108D02*
X022869Y021108D01*
X022869Y021226D02*
X022829Y021226D01*
X022829Y021345D02*
X022869Y021345D01*
X022869Y021464D02*
X022829Y021464D01*
X022829Y021582D02*
X022869Y021582D01*
X022889Y021701D02*
X022809Y021701D01*
X022760Y021819D02*
X022938Y021819D01*
X023050Y021938D02*
X022648Y021938D01*
X022883Y020989D02*
X022916Y020989D01*
X020916Y020989D02*
X020903Y020989D01*
X017731Y018263D02*
X017714Y018263D01*
X017714Y017315D02*
X017731Y017315D01*
X017714Y017196D02*
X019982Y017196D01*
X019863Y017077D02*
X017714Y017077D01*
X017714Y016959D02*
X019745Y016959D01*
X020158Y016722D02*
X020748Y016722D01*
X020814Y016840D02*
X020277Y016840D01*
X020395Y016959D02*
X020764Y016959D01*
X020756Y017077D02*
X020514Y017077D01*
X020623Y016603D02*
X020040Y016603D01*
X019921Y016485D02*
X020572Y016485D01*
X020556Y016366D02*
X019913Y016366D01*
X019913Y016248D02*
X020569Y016248D01*
X020618Y016129D02*
X019913Y016129D01*
X020177Y016011D02*
X020734Y016011D01*
X020734Y015892D02*
X020177Y015892D01*
X020177Y015773D02*
X020734Y015773D01*
X020734Y015655D02*
X020177Y015655D01*
X020177Y015536D02*
X020734Y015536D01*
X020734Y015418D02*
X020177Y015418D01*
X020177Y015299D02*
X020734Y015299D01*
X020734Y015181D02*
X020177Y015181D01*
X020084Y015062D02*
X020734Y015062D01*
X020734Y014944D02*
X017234Y014944D01*
X017232Y015062D02*
X018162Y015062D01*
X018131Y014707D02*
X017167Y014707D01*
X017216Y014825D02*
X020734Y014825D01*
X020734Y014707D02*
X020114Y014707D01*
X020177Y014588D02*
X020734Y014588D01*
X020641Y014469D02*
X020177Y014469D01*
X019188Y015655D02*
X019058Y015655D01*
X019058Y015773D02*
X019188Y015773D01*
X019188Y015892D02*
X019058Y015892D01*
X019058Y016011D02*
X019188Y016011D01*
X017417Y015181D02*
X017183Y015181D01*
X017096Y015299D02*
X017298Y015299D01*
X017371Y015227D02*
X017371Y015227D01*
X017180Y015418D02*
X016910Y015418D01*
X016979Y015536D02*
X017061Y015536D01*
X017058Y014588D02*
X018068Y014588D01*
X016614Y012691D02*
X016534Y012691D01*
X016534Y012573D02*
X016614Y012573D01*
X015326Y012336D02*
X015115Y012336D01*
X014514Y013047D02*
X014434Y013047D01*
X014434Y013166D02*
X014514Y013166D01*
X014514Y013284D02*
X014434Y013284D01*
X014434Y013403D02*
X014514Y013403D01*
X014818Y013403D02*
X015257Y013403D01*
X015257Y013521D02*
X014842Y013521D01*
X015010Y013640D02*
X015304Y013640D01*
X015304Y013284D02*
X014983Y013284D01*
X014154Y013403D02*
X013697Y013403D01*
X013824Y013521D02*
X014106Y013521D01*
X013938Y013640D02*
X013876Y013640D01*
X013965Y013284D02*
X013352Y013284D01*
X013433Y013166D02*
X013880Y013166D01*
X013834Y013047D02*
X013479Y013047D01*
X013251Y013403D02*
X013179Y013403D01*
X013124Y013521D02*
X013051Y013521D01*
X013052Y013640D02*
X013072Y013640D01*
X013052Y013758D02*
X013056Y013758D01*
X013052Y013877D02*
X013069Y013877D01*
X013053Y013995D02*
X013118Y013995D01*
X013144Y014114D02*
X013053Y014114D01*
X013054Y014232D02*
X013144Y014232D01*
X013144Y014351D02*
X013054Y014351D01*
X013054Y014358D02*
X013054Y014358D01*
X013144Y014469D02*
X012943Y014469D01*
X012840Y014588D02*
X013144Y014588D01*
X013144Y014707D02*
X012162Y014707D01*
X012170Y014825D02*
X013144Y014825D01*
X013144Y014944D02*
X012152Y014944D01*
X012103Y015062D02*
X013144Y015062D01*
X013144Y015181D02*
X013117Y015181D01*
X012308Y014588D02*
X012113Y014588D01*
X012207Y014469D02*
X012009Y014469D01*
X012158Y014351D02*
X011104Y014351D01*
X011104Y014469D02*
X011139Y014469D01*
X011104Y014232D02*
X011281Y014232D01*
X011867Y014232D02*
X012156Y014232D01*
X012183Y014114D02*
X012051Y014114D01*
X012131Y013995D02*
X012250Y013995D01*
X012170Y013877D02*
X012413Y013877D01*
X012592Y013758D02*
X012170Y013758D01*
X012134Y013640D02*
X012592Y013640D01*
X012591Y013521D02*
X012061Y013521D01*
X011889Y013403D02*
X012459Y013403D01*
X012286Y013284D02*
X006445Y013284D01*
X006445Y013166D02*
X008148Y013166D01*
X008039Y013047D02*
X006445Y013047D01*
X006445Y012928D02*
X007990Y012928D01*
X007978Y012810D02*
X006519Y012810D01*
X006468Y012691D02*
X005928Y012691D01*
X005946Y012810D02*
X006350Y012810D01*
X006325Y012928D02*
X005946Y012928D01*
X005946Y013047D02*
X006325Y013047D01*
X006325Y013166D02*
X005946Y013166D01*
X005946Y013284D02*
X006325Y013284D01*
X006325Y013403D02*
X005946Y013403D01*
X005946Y013521D02*
X006325Y013521D01*
X006445Y013521D02*
X008087Y013521D01*
X008013Y013640D02*
X006523Y013640D01*
X006642Y013758D02*
X007978Y013758D01*
X007978Y013877D02*
X006694Y013877D01*
X006714Y013995D02*
X008017Y013995D01*
X008097Y014114D02*
X006743Y014114D01*
X006861Y014232D02*
X008281Y014232D01*
X008139Y014469D02*
X007098Y014469D01*
X006980Y014351D02*
X009044Y014351D01*
X009044Y014469D02*
X009009Y014469D01*
X009044Y014232D02*
X008867Y014232D01*
X008259Y013403D02*
X006445Y013403D01*
X006025Y013640D02*
X005946Y013640D01*
X005826Y013640D02*
X003214Y013640D01*
X003214Y013758D02*
X005826Y013758D01*
X005826Y013877D02*
X004758Y013877D01*
X004758Y013995D02*
X005826Y013995D01*
X005826Y013521D02*
X004738Y013521D01*
X004738Y013543D02*
X004645Y013637D01*
X004284Y013637D01*
X004284Y013222D01*
X004164Y013222D01*
X004164Y013637D01*
X003803Y013637D01*
X003710Y013543D01*
X003710Y013222D01*
X004164Y013222D01*
X004164Y013102D01*
X003710Y013102D01*
X003710Y012780D01*
X003803Y012687D01*
X004164Y012687D01*
X004164Y013101D01*
X004284Y013101D01*
X004284Y012687D01*
X004645Y012687D01*
X004738Y012780D01*
X004738Y013102D01*
X004284Y013102D01*
X004284Y013222D01*
X004738Y013222D01*
X004738Y013543D01*
X004738Y013403D02*
X005826Y013403D01*
X005826Y013284D02*
X004738Y013284D01*
X004738Y013047D02*
X005826Y013047D01*
X005826Y013166D02*
X004284Y013166D01*
X004284Y013284D02*
X004164Y013284D01*
X004164Y013166D02*
X003214Y013166D01*
X003214Y013284D02*
X003710Y013284D01*
X003710Y013403D02*
X003214Y013403D01*
X003214Y013521D02*
X003710Y013521D01*
X004164Y013521D02*
X004284Y013521D01*
X004284Y013403D02*
X004164Y013403D01*
X004164Y013047D02*
X004284Y013047D01*
X004284Y012928D02*
X004164Y012928D01*
X004164Y012810D02*
X004284Y012810D01*
X004284Y012691D02*
X004164Y012691D01*
X003799Y012691D02*
X003214Y012691D01*
X003214Y012573D02*
X005087Y012573D01*
X005185Y012573D02*
X007200Y012573D01*
X007195Y012691D02*
X007992Y012691D01*
X008041Y012573D02*
X007320Y012573D01*
X007320Y012454D02*
X008154Y012454D01*
X008139Y012336D02*
X007709Y012336D01*
X007880Y012217D02*
X007968Y012217D01*
X008409Y012336D02*
X008839Y012336D01*
X008668Y012217D02*
X008580Y012217D01*
X007439Y012336D02*
X007320Y012336D01*
X007200Y012336D02*
X007009Y012336D01*
X007180Y012217D02*
X007200Y012217D01*
X007200Y012454D02*
X003214Y012454D01*
X003214Y012336D02*
X003239Y012336D01*
X003509Y012336D02*
X003939Y012336D01*
X003768Y012217D02*
X003680Y012217D01*
X004209Y012336D02*
X004639Y012336D01*
X004468Y012217D02*
X004380Y012217D01*
X004909Y012336D02*
X005339Y012336D01*
X005168Y012217D02*
X005080Y012217D01*
X005609Y012336D02*
X006039Y012336D01*
X005868Y012217D02*
X005780Y012217D01*
X006309Y012336D02*
X006739Y012336D01*
X006568Y012217D02*
X006480Y012217D01*
X005826Y012810D02*
X004738Y012810D01*
X004738Y012928D02*
X005826Y012928D01*
X005133Y012691D02*
X004649Y012691D01*
X003710Y012810D02*
X003214Y012810D01*
X003214Y012928D02*
X003710Y012928D01*
X003710Y013047D02*
X003214Y013047D01*
X003214Y013877D02*
X003690Y013877D01*
X003690Y013995D02*
X003214Y013995D01*
X003214Y014114D02*
X003690Y014114D01*
X003690Y014232D02*
X003214Y014232D01*
X003214Y014351D02*
X003690Y014351D01*
X003690Y014469D02*
X003214Y014469D01*
X003214Y014588D02*
X003690Y014588D01*
X003743Y014707D02*
X003214Y014707D01*
X003214Y014825D02*
X006580Y014825D01*
X006691Y014825D02*
X006719Y014825D01*
X006837Y014944D02*
X003214Y014944D01*
X003214Y015062D02*
X006997Y015062D01*
X006854Y014960D02*
X006854Y014960D01*
X006575Y014707D02*
X006127Y014707D01*
X005946Y014588D02*
X006482Y014588D01*
X006363Y014469D02*
X006185Y014469D01*
X005826Y014588D02*
X004758Y014588D01*
X004705Y014707D02*
X005836Y014707D01*
X004704Y015418D02*
X008222Y015418D01*
X008072Y015536D02*
X006515Y015536D01*
X006033Y015536D02*
X004758Y015536D01*
X004758Y016248D02*
X005987Y016248D01*
X006561Y016248D02*
X008318Y016248D01*
X008112Y016129D02*
X006661Y016129D01*
X008001Y016722D02*
X004738Y016722D01*
X004738Y016840D02*
X007998Y016840D01*
X008024Y016959D02*
X004284Y016959D01*
X004284Y016904D02*
X004284Y017024D01*
X004164Y017024D01*
X004164Y017439D01*
X003803Y017439D01*
X003710Y017345D01*
X003710Y017024D01*
X004164Y017024D01*
X004164Y016904D01*
X004284Y016904D01*
X004738Y016904D01*
X004738Y016583D01*
X004645Y016489D01*
X004284Y016489D01*
X004284Y016904D01*
X004284Y016840D02*
X004164Y016840D01*
X004164Y016904D02*
X004164Y016489D01*
X003803Y016489D01*
X003710Y016583D01*
X003710Y016904D01*
X004164Y016904D01*
X004164Y016959D02*
X003214Y016959D01*
X003214Y017077D02*
X003710Y017077D01*
X003710Y017196D02*
X003214Y017196D01*
X003214Y017315D02*
X003710Y017315D01*
X003798Y017433D02*
X003214Y017433D01*
X003214Y017552D02*
X008057Y017552D01*
X008001Y017670D02*
X003214Y017670D01*
X004164Y017433D02*
X004284Y017433D01*
X004284Y017439D02*
X004284Y017024D01*
X004738Y017024D01*
X004738Y017345D01*
X004645Y017439D01*
X004284Y017439D01*
X004284Y017315D02*
X004164Y017315D01*
X004164Y017196D02*
X004284Y017196D01*
X004284Y017077D02*
X004164Y017077D01*
X004164Y016722D02*
X004284Y016722D01*
X004284Y016603D02*
X004164Y016603D01*
X003710Y016603D02*
X003214Y016603D01*
X003214Y016485D02*
X008152Y016485D01*
X008050Y016603D02*
X004738Y016603D01*
X004738Y017077D02*
X008089Y017077D01*
X008246Y017196D02*
X004738Y017196D01*
X004738Y017315D02*
X009044Y017315D01*
X009044Y017433D02*
X008963Y017433D01*
X008902Y017196D02*
X009044Y017196D01*
X008594Y017196D02*
X008554Y017196D01*
X008554Y017077D02*
X008594Y017077D01*
X008594Y016959D02*
X008554Y016959D01*
X008554Y016840D02*
X008594Y016840D01*
X008594Y016722D02*
X008554Y016722D01*
X008554Y016603D02*
X008594Y016603D01*
X008594Y016485D02*
X008554Y016485D01*
X008830Y016248D02*
X009044Y016248D01*
X009044Y016366D02*
X003214Y016366D01*
X003214Y016248D02*
X003690Y016248D01*
X003690Y016129D02*
X003214Y016129D01*
X003214Y016011D02*
X003690Y016011D01*
X003690Y015892D02*
X003214Y015892D01*
X003214Y015773D02*
X003690Y015773D01*
X003690Y015655D02*
X003214Y015655D01*
X003214Y015536D02*
X003690Y015536D01*
X003744Y015418D02*
X003214Y015418D01*
X003214Y015299D02*
X009044Y015299D01*
X009044Y015181D02*
X008984Y015181D01*
X008926Y015418D02*
X009044Y015418D01*
X008164Y015181D02*
X003214Y015181D01*
X003214Y016722D02*
X003710Y016722D01*
X003710Y016840D02*
X003214Y016840D01*
X004231Y017789D02*
X005220Y017789D01*
X005242Y017767D02*
X006375Y017767D01*
X006480Y017873D01*
X006480Y018809D01*
X006375Y018915D01*
X005242Y018915D01*
X005136Y018809D01*
X005136Y017873D01*
X005242Y017767D01*
X005136Y017907D02*
X004315Y017907D01*
X004315Y018026D02*
X005136Y018026D01*
X005136Y018144D02*
X004315Y018144D01*
X004315Y018263D02*
X005136Y018263D01*
X005136Y018381D02*
X004315Y018381D01*
X004315Y018500D02*
X005136Y018500D01*
X005136Y018619D02*
X004315Y018619D01*
X004315Y018737D02*
X005136Y018737D01*
X005182Y018856D02*
X004269Y018856D01*
X004523Y019093D02*
X003214Y019093D01*
X003214Y019211D02*
X004487Y019211D01*
X004620Y018974D02*
X003214Y018974D01*
X003214Y019330D02*
X004016Y019330D01*
X003910Y019448D02*
X003214Y019448D01*
X003214Y019567D02*
X003861Y019567D01*
X003856Y019685D02*
X003214Y019685D01*
X003214Y019804D02*
X003880Y019804D01*
X003942Y019922D02*
X003214Y019922D01*
X003214Y020041D02*
X004005Y020041D01*
X003906Y020160D02*
X003214Y020160D01*
X003214Y020278D02*
X003857Y020278D01*
X003856Y020397D02*
X003214Y020397D01*
X003214Y020515D02*
X003885Y020515D01*
X003954Y020634D02*
X003214Y020634D01*
X003214Y020752D02*
X004122Y020752D01*
X004504Y020871D02*
X003214Y020871D01*
X003214Y020989D02*
X004487Y020989D01*
X004513Y021108D02*
X003214Y021108D01*
X003214Y021226D02*
X004595Y021226D01*
X004315Y021464D02*
X005136Y021464D01*
X005136Y021582D02*
X004315Y021582D01*
X004315Y021701D02*
X005136Y021701D01*
X005136Y021819D02*
X004315Y021819D01*
X004315Y021938D02*
X005136Y021938D01*
X005136Y022056D02*
X004315Y022056D01*
X004315Y022175D02*
X005136Y022175D01*
X005207Y021345D02*
X004244Y021345D01*
X005053Y021226D02*
X006894Y021226D01*
X006645Y021108D02*
X005136Y021108D01*
X005161Y020989D02*
X005210Y020989D01*
X006407Y020989D02*
X006589Y020989D01*
X006589Y020871D02*
X006480Y020871D01*
X006480Y020752D02*
X006589Y020752D01*
X006637Y021345D02*
X006409Y021345D01*
X006480Y021464D02*
X006589Y021464D01*
X006589Y021582D02*
X006480Y021582D01*
X006480Y021701D02*
X006589Y021701D01*
X006589Y021819D02*
X006480Y021819D01*
X006480Y021938D02*
X006589Y021938D01*
X006589Y022056D02*
X006480Y022056D01*
X006480Y022175D02*
X006592Y022175D01*
X006649Y019922D02*
X006480Y019922D01*
X006480Y019804D02*
X006589Y019804D01*
X006589Y019685D02*
X006480Y019685D01*
X006460Y019567D02*
X006589Y019567D01*
X006589Y019448D02*
X006460Y019448D01*
X006460Y019483D02*
X005809Y019483D01*
X006460Y019483D01*
X006460Y019330D02*
X006589Y019330D01*
X006589Y019211D02*
X005161Y019211D01*
X005125Y019093D02*
X006589Y019093D01*
X006434Y018856D02*
X007978Y018856D01*
X007978Y018737D02*
X007659Y018737D01*
X007659Y018619D02*
X008022Y018619D01*
X008009Y018974D02*
X007928Y018974D01*
X007620Y018974D02*
X005028Y018974D01*
X005808Y019330D02*
X005808Y019330D01*
X005808Y019448D02*
X005808Y019448D01*
X005809Y019483D02*
X005809Y019483D01*
X006480Y018737D02*
X006589Y018737D01*
X006589Y018619D02*
X006480Y018619D01*
X006480Y018500D02*
X006589Y018500D01*
X006589Y018381D02*
X006480Y018381D01*
X006480Y018263D02*
X006589Y018263D01*
X006589Y018144D02*
X006480Y018144D01*
X006480Y018026D02*
X006589Y018026D01*
X006645Y017907D02*
X006480Y017907D01*
X006396Y017789D02*
X007978Y017789D01*
X007981Y017907D02*
X007603Y017907D01*
X007659Y018026D02*
X008030Y018026D01*
X008185Y017433D02*
X004650Y017433D01*
X008996Y016485D02*
X009044Y016485D01*
X009036Y016129D02*
X009044Y016129D01*
X009504Y016366D02*
X011888Y016366D01*
X011907Y016248D02*
X011830Y016248D01*
X011594Y016485D02*
X011554Y016485D01*
X011554Y016603D02*
X011594Y016603D01*
X011594Y016722D02*
X011554Y016722D01*
X012000Y013166D02*
X012206Y013166D01*
X012159Y013047D02*
X012109Y013047D01*
X012158Y012928D02*
X012159Y012928D01*
X012170Y012810D02*
X012181Y012810D01*
X012156Y012691D02*
X012230Y012691D01*
X012345Y012573D02*
X012107Y012573D01*
X011468Y012217D02*
X011380Y012217D01*
X010939Y012336D02*
X010509Y012336D01*
X010680Y012217D02*
X010768Y012217D01*
X010239Y012336D02*
X009809Y012336D01*
X009980Y012217D02*
X010068Y012217D01*
X013300Y012336D02*
X013633Y012336D01*
X013465Y012217D02*
X013411Y012217D01*
X013003Y007238D02*
X012834Y007238D01*
X012834Y007120D02*
X012948Y007120D01*
X012948Y007001D02*
X012834Y007001D01*
X012834Y006883D02*
X012948Y006883D01*
X013148Y005223D02*
X010542Y005223D01*
X010542Y005105D02*
X013148Y005105D01*
X013148Y004986D02*
X010542Y004986D01*
X010542Y005342D02*
X010638Y005342D01*
X009595Y003445D02*
X006694Y003445D01*
X006813Y003326D02*
X009671Y003326D01*
X009706Y001430D02*
X003214Y001430D01*
X003214Y001311D02*
X015265Y001311D01*
X015344Y001193D02*
X003214Y001193D01*
X003214Y001074D02*
X015233Y001074D01*
X015184Y000956D02*
X003214Y000956D01*
X003214Y000837D02*
X015178Y000837D01*
X015205Y000718D02*
X003214Y000718D01*
X003214Y002734D02*
X005803Y002734D01*
X005803Y002971D02*
X005923Y002971D01*
X005923Y003089D02*
X005803Y003089D01*
X005803Y003208D02*
X005923Y003208D01*
X005923Y003326D02*
X005803Y003326D01*
X005803Y003445D02*
X005923Y003445D01*
X005923Y003564D02*
X005803Y003564D01*
X005803Y003682D02*
X005923Y003682D01*
X005923Y003801D02*
X005803Y003801D01*
X018738Y004867D02*
X019358Y004867D01*
X019169Y004749D02*
X018821Y004749D01*
X019166Y004156D02*
X019189Y004156D01*
X020856Y005105D02*
X021268Y005105D01*
X021173Y005223D02*
X020952Y005223D01*
X021001Y005342D02*
X021124Y005342D01*
X021122Y005460D02*
X021002Y005460D01*
X021856Y005105D02*
X022268Y005105D01*
X022173Y005223D02*
X021952Y005223D01*
X022001Y005342D02*
X022124Y005342D01*
X022122Y005460D02*
X022002Y005460D01*
X022002Y005579D02*
X022122Y005579D01*
X022122Y005697D02*
X022002Y005697D01*
X022002Y005816D02*
X022122Y005816D01*
X022174Y006171D02*
X022442Y006171D01*
X022682Y006171D02*
X023442Y006171D01*
X023248Y006053D02*
X022876Y006053D01*
X022960Y005934D02*
X023164Y005934D01*
X023122Y005816D02*
X023002Y005816D01*
X023002Y005697D02*
X023122Y005697D01*
X023122Y005579D02*
X023002Y005579D01*
X023002Y005460D02*
X023122Y005460D01*
X023124Y005342D02*
X023001Y005342D01*
X022952Y005223D02*
X023173Y005223D01*
X023268Y005105D02*
X022856Y005105D01*
X025973Y003801D02*
X026226Y003801D01*
X026161Y003919D02*
X026029Y003919D01*
X026029Y004038D02*
X026161Y004038D01*
X026161Y004156D02*
X026029Y004156D01*
X026022Y009728D02*
X026141Y009728D01*
X026141Y009846D02*
X026022Y009846D01*
X026022Y009965D02*
X026141Y009965D01*
X026141Y010083D02*
X026022Y010083D01*
X026022Y010439D02*
X026141Y010439D01*
X026141Y010558D02*
X026022Y010558D01*
X025567Y010083D02*
X024792Y010083D01*
X024792Y009965D02*
X025567Y009965D01*
X025567Y009846D02*
X024792Y009846D01*
X024792Y009728D02*
X025638Y009728D01*
X027104Y010320D02*
X027304Y010320D01*
X027227Y010439D02*
X027104Y010439D01*
X027104Y010558D02*
X027187Y010558D01*
X027187Y010676D02*
X027104Y010676D01*
X027104Y010795D02*
X027218Y010795D01*
X027282Y010913D02*
X027104Y010913D01*
X033410Y012348D02*
X033559Y012348D01*
X033974Y012763D01*
X033734Y012928D02*
X033670Y012928D01*
X033682Y012810D02*
X033627Y012810D01*
X033410Y013348D02*
X033410Y015363D01*
X033576Y015536D02*
X033734Y015536D01*
X033734Y015418D02*
X033647Y015418D01*
X033650Y015299D02*
X033734Y015299D01*
X033734Y015181D02*
X033650Y015181D01*
X033650Y015062D02*
X033734Y015062D01*
X033734Y014944D02*
X033650Y014944D01*
X033650Y014825D02*
X033734Y014825D01*
X033734Y014707D02*
X033650Y014707D01*
X033650Y014588D02*
X033734Y014588D01*
X033734Y014469D02*
X033650Y014469D01*
X033650Y014351D02*
X033734Y014351D01*
X033734Y014232D02*
X033650Y014232D01*
X033650Y014114D02*
X033734Y014114D01*
X033734Y013995D02*
X033650Y013995D01*
X033650Y013877D02*
X033734Y013877D01*
X033734Y013758D02*
X033679Y013758D01*
X033734Y015892D02*
X030771Y015892D01*
X030913Y016011D02*
X033687Y016011D01*
X033568Y016129D02*
X030971Y016129D01*
X030992Y016248D02*
X033450Y016248D01*
X033331Y016366D02*
X030984Y016366D01*
X030935Y016485D02*
X033213Y016485D01*
X033094Y016603D02*
X030825Y016603D01*
X032143Y016840D02*
X032857Y016840D01*
X032976Y016722D02*
X027304Y016722D01*
X027304Y016840D02*
X027405Y016840D01*
X027306Y016959D02*
X027304Y016959D01*
X027304Y016603D02*
X027423Y016603D01*
X027313Y016485D02*
X027304Y016485D01*
X027304Y017433D02*
X027353Y017433D01*
X027304Y017552D02*
X027520Y017552D01*
X027529Y017670D02*
X027304Y017670D01*
X027304Y017789D02*
X027357Y017789D01*
X021440Y016722D02*
X021424Y016722D01*
X021440Y016603D02*
X021325Y016603D01*
X021376Y016485D02*
X021440Y016485D01*
D34*
X019725Y019012D02*
X019725Y019463D01*
X018670Y019463D01*
X018670Y020378D01*
X018670Y020863D01*
X018374Y020863D01*
X018374Y021378D01*
X018349Y021378D01*
X019349Y021378D02*
X019349Y020863D01*
X019674Y020863D01*
X019674Y020378D01*
X019670Y020378D01*
X020349Y020863D02*
X020674Y020863D01*
X020674Y020378D01*
X020670Y020378D01*
X021349Y020763D02*
X021674Y020763D01*
X021674Y020378D01*
X021670Y020378D01*
X021349Y020763D02*
X021349Y021378D01*
X022349Y021378D02*
X022349Y020763D01*
X022674Y020763D01*
X022674Y020378D01*
X022670Y020378D01*
X023349Y020863D02*
X023674Y020863D01*
X023674Y020378D01*
X023670Y020378D01*
X023349Y020863D02*
X023349Y021378D01*
X025274Y020302D02*
X025350Y020302D01*
X025350Y020378D01*
X025349Y020378D01*
X025349Y021378D01*
X026349Y021378D02*
X026349Y020378D01*
X026350Y020378D01*
X027074Y020263D02*
X027350Y020263D01*
X027350Y020378D01*
X027349Y020378D01*
X027349Y021378D01*
X028349Y021378D02*
X028350Y021378D01*
X028350Y020378D01*
X029350Y020378D02*
X029350Y021378D01*
X029349Y021378D01*
X030349Y021378D02*
X030349Y020378D01*
X030350Y020378D01*
X031349Y020378D02*
X031350Y020378D01*
X031349Y020378D02*
X031349Y021378D01*
X032349Y021378D02*
X032349Y020378D01*
X032350Y020378D01*
X020349Y020863D02*
X020349Y021378D01*
X016670Y020863D02*
X016670Y020378D01*
X016670Y020863D02*
X016374Y020863D01*
X016374Y021378D01*
X016349Y021378D01*
X008574Y015813D02*
X006374Y015813D01*
X006274Y015913D01*
X004275Y015913D01*
X004224Y015862D01*
X004224Y014264D02*
X006023Y014264D01*
X006274Y014013D01*
X007074Y014813D01*
X008574Y014813D01*
X008074Y010963D02*
X010074Y010963D01*
X010674Y010963D01*
X010674Y009463D01*
X010574Y009463D01*
X011074Y009463D02*
X011074Y010963D01*
X011574Y010963D01*
X011574Y009463D01*
X011074Y009463D01*
X010074Y009463D02*
X010074Y010963D01*
X009574Y010963D02*
X009574Y009463D01*
X010074Y009463D01*
X009574Y009463D02*
X009074Y009463D01*
X009074Y010963D01*
X010674Y010963D02*
X011074Y010963D01*
X012274Y009863D02*
X012074Y009663D01*
X012074Y007563D01*
X012574Y007563D02*
X013574Y007563D01*
X013574Y010963D01*
X014474Y010963D01*
X012774Y009963D02*
X012674Y009863D01*
X012274Y009863D01*
X012574Y007563D02*
X012574Y005763D01*
X013448Y005763D01*
X013448Y005760D01*
X016574Y007963D02*
X016574Y003163D01*
X020874Y003163D01*
X021258Y002779D01*
X021258Y002348D01*
X021258Y001348D01*
X021259Y001348D01*
X022258Y001348D02*
X022259Y001348D01*
X022258Y001348D02*
X022258Y002348D01*
X020258Y002348D02*
X020258Y001348D01*
X020259Y001348D01*
X023378Y004048D02*
X023378Y004566D01*
X023574Y004763D01*
X024274Y004763D01*
X024574Y005063D01*
X024574Y005577D01*
X024562Y005589D01*
X025258Y002348D02*
X025259Y002348D01*
X025259Y001348D01*
X027229Y001368D02*
X027230Y001368D01*
X027230Y002368D01*
X028230Y002368D02*
X028230Y001368D01*
X028229Y001368D01*
X029229Y001368D02*
X029230Y001368D01*
X029230Y002368D01*
X030230Y002368D02*
X030230Y001368D01*
X030229Y001368D01*
X031229Y001368D02*
X031230Y001368D01*
X031230Y002368D01*
X032230Y002368D02*
X032230Y001368D01*
X032229Y001368D01*
X019474Y004463D02*
X018774Y004363D01*
X018074Y005363D01*
X018074Y009763D01*
X016574Y010963D01*
X006574Y009563D02*
X003574Y009563D01*
D35*
X003574Y009563D03*
X004074Y009563D03*
X004574Y009563D03*
X005074Y009563D03*
X005574Y009563D03*
X006074Y009563D03*
X006574Y009563D03*
X005574Y008563D03*
X005074Y008563D03*
X004574Y008563D03*
X004074Y008563D03*
X003574Y008563D03*
X003574Y008063D03*
X004074Y008063D03*
X004574Y008063D03*
X005074Y008063D03*
X005574Y008063D03*
X005574Y007563D03*
X005074Y007563D03*
X004574Y007563D03*
X004074Y007563D03*
X003574Y007563D03*
X003574Y010963D03*
X004074Y010963D03*
X004574Y010963D03*
X005074Y010963D03*
X005574Y010963D03*
X006074Y010963D03*
X006574Y010963D03*
X007074Y010963D03*
X007574Y010963D03*
X008074Y010963D03*
X008574Y010963D03*
X009074Y010963D03*
X009574Y010963D03*
X010074Y010963D03*
X010574Y010963D03*
X011074Y010963D03*
X011574Y010963D03*
X011574Y010463D03*
X011074Y010463D03*
X010574Y010463D03*
X010074Y010463D03*
X009574Y010463D03*
X009074Y010463D03*
X009074Y009963D03*
X009574Y009963D03*
X010074Y009963D03*
X010574Y009963D03*
X011074Y009963D03*
X011574Y009963D03*
X011574Y009463D03*
X011074Y009463D03*
X010574Y009463D03*
X010074Y009463D03*
X009574Y009463D03*
X009074Y009463D03*
X011874Y006963D03*
X011874Y005163D03*
X014424Y006763D03*
X012854Y009013D03*
X012859Y009923D03*
X013774Y011963D03*
X014374Y011963D03*
X014974Y011963D03*
X015574Y011963D03*
X010114Y012678D03*
X007614Y013978D03*
X006274Y012963D03*
X004114Y015078D03*
X006274Y016963D03*
X010074Y019563D03*
X013574Y018363D03*
X013574Y016863D03*
X019174Y016963D03*
X024374Y021863D03*
X032410Y018927D03*
X033174Y016063D03*
X033274Y009563D03*
X033074Y003263D03*
X017574Y001563D03*
X013274Y001063D03*
X010074Y001063D03*
X007274Y001063D03*
X004574Y001063D03*
X004774Y021963D03*
D36*
X024274Y007163D03*
X033374Y004263D03*
M02*
