G75*
G70*
%OFA0B0*%
%FSLAX25Y25*%
%IPPOS*%
%LPD*%
%AMOC8*
5,1,8,0,0,1.08239X$1,22.5*
%
%ADD100C,0.04800*%
%ADD102C,0.00820*%
%ADD13OC8,0.06000*%
%ADD22C,0.07300*%
%ADD24R,0.07300X0.07300*%
%ADD26C,0.00810*%
%ADD28OC8,0.06800*%
%ADD30R,0.05000X0.12500*%
%ADD38R,0.06740X0.06740*%
%ADD43C,0.16600*%
%ADD48C,0.00800*%
%ADD49C,0.05200*%
%ADD50OC8,0.19800*%
%ADD55C,0.06800*%
%ADD57C,0.17400*%
%ADD71C,0.07100*%
%ADD72OC8,0.12610*%
%ADD75C,0.00830*%
%ADD78OC8,0.06540*%
%ADD81C,0.06000*%
%ADD88R,0.06800X0.06800*%
%ADD89C,0.09860*%
%ADD90C,0.08200*%
%ADD91C,0.05550*%
%ADD92OC8,0.07100*%
%ADD93C,0.07400*%
%ADD96C,0.04760*%
%ADD98C,0.13400*%
X0020000Y0020000D02*
G75*
%LPD*%
D71*
X0224960Y0035000D03*
X0214960Y0035000D03*
D55*
X0194960Y0035000D03*
X0184960Y0035000D03*
X0174960Y0035000D03*
X0164960Y0035000D03*
X0154960Y0035000D03*
X0144960Y0035000D03*
X0148860Y0212200D03*
X0148860Y0237800D03*
X0148860Y0252200D03*
X0166060Y0252200D03*
X0166060Y0277800D03*
X0148860Y0277800D03*
X0148860Y0292200D03*
X0148860Y0317800D03*
X0131060Y0317800D03*
X0131060Y0292200D03*
X0131060Y0277800D03*
X0131060Y0252200D03*
X0131060Y0237800D03*
X0131060Y0212200D03*
X0113860Y0252200D03*
X0113860Y0277800D03*
X0096060Y0277800D03*
X0096060Y0252200D03*
X0183860Y0252200D03*
X0183860Y0277800D03*
X0206060Y0277200D03*
X0206060Y0252800D03*
X0206060Y0227200D03*
X0223860Y0227200D03*
X0223860Y0252800D03*
X0223860Y0277200D03*
X0223860Y0302800D03*
X0206060Y0302800D03*
D28*
X0140960Y0199000D03*
X0140960Y0189000D03*
X0130960Y0189000D03*
X0130960Y0199000D03*
X0120960Y0199000D03*
X0120960Y0189000D03*
D81*
X0167360Y0190000D02*
X0172560Y0190000D01*
X0172560Y0180000D02*
X0167360Y0180000D01*
X0167360Y0170000D02*
X0172560Y0170000D01*
X0172560Y0160000D02*
X0167360Y0160000D01*
X0167360Y0150000D02*
X0172560Y0150000D01*
X0172560Y0140000D02*
X0167360Y0140000D01*
X0167360Y0130000D02*
X0172560Y0130000D01*
X0172560Y0120000D02*
X0167360Y0120000D01*
X0167360Y0110000D02*
X0172560Y0110000D01*
X0172560Y0100000D02*
X0167360Y0100000D01*
X0167360Y0090000D02*
X0172560Y0090000D01*
X0172560Y0080000D02*
X0167360Y0080000D01*
X0167360Y0070000D02*
X0172560Y0070000D01*
X0172560Y0060000D02*
X0167360Y0060000D01*
X0197360Y0060000D02*
X0202560Y0060000D01*
X0202560Y0070000D02*
X0197360Y0070000D01*
X0197360Y0080000D02*
X0202560Y0080000D01*
X0202560Y0090000D02*
X0197360Y0090000D01*
X0197360Y0100000D02*
X0202560Y0100000D01*
X0202560Y0110000D02*
X0197360Y0110000D01*
X0197360Y0120000D02*
X0202560Y0120000D01*
X0202560Y0130000D02*
X0197360Y0130000D01*
X0197360Y0140000D02*
X0202560Y0140000D01*
X0202560Y0150000D02*
X0197360Y0150000D01*
X0197360Y0160000D02*
X0202560Y0160000D01*
X0202560Y0170000D02*
X0197360Y0170000D01*
X0197360Y0180000D02*
X0202560Y0180000D01*
X0202560Y0190000D02*
X0197360Y0190000D01*
X0102560Y0320000D02*
X0097360Y0320000D01*
X0097360Y0330000D02*
X0102560Y0330000D01*
X0102560Y0340000D02*
X0097360Y0340000D01*
X0097360Y0350000D02*
X0102560Y0350000D01*
X0102560Y0360000D02*
X0097360Y0360000D01*
X0042560Y0360000D02*
X0037360Y0360000D01*
X0037360Y0350000D02*
X0042560Y0350000D01*
X0042560Y0340000D02*
X0037360Y0340000D01*
X0037360Y0330000D02*
X0042560Y0330000D01*
X0042560Y0320000D02*
X0037360Y0320000D01*
D55*
X0037960Y0190000D02*
X0031960Y0190000D01*
X0031960Y0180000D02*
X0037960Y0180000D01*
X0037960Y0170000D02*
X0031960Y0170000D01*
X0031960Y0160000D02*
X0037960Y0160000D01*
X0037960Y0150000D02*
X0031960Y0150000D01*
X0031960Y0140000D02*
X0037960Y0140000D01*
X0037960Y0130000D02*
X0031960Y0130000D01*
X0031960Y0120000D02*
X0037960Y0120000D01*
X0037960Y0104000D02*
X0031960Y0104000D01*
X0031960Y0094000D02*
X0037960Y0094000D01*
X0037960Y0084000D02*
X0031960Y0084000D01*
X0031960Y0074000D02*
X0037960Y0074000D01*
X0037960Y0064000D02*
X0031960Y0064000D01*
X0031960Y0054000D02*
X0037960Y0054000D01*
X0037960Y0044000D02*
X0031960Y0044000D01*
X0031960Y0034000D02*
X0037960Y0034000D01*
X0064960Y0032000D02*
X0064960Y0038000D01*
X0074960Y0038000D02*
X0074960Y0032000D01*
X0084960Y0032000D02*
X0084960Y0038000D01*
X0094960Y0038000D02*
X0094960Y0032000D01*
X0104960Y0032000D02*
X0104960Y0038000D01*
X0114960Y0038000D02*
X0114960Y0032000D01*
X0214960Y0047000D02*
X0214960Y0053000D01*
X0224960Y0053000D02*
X0224960Y0047000D01*
X0227960Y0075000D02*
X0221960Y0075000D01*
X0221960Y0085000D02*
X0227960Y0085000D01*
X0227960Y0095000D02*
X0221960Y0095000D01*
X0221960Y0105000D02*
X0227960Y0105000D01*
X0227960Y0115000D02*
X0221960Y0115000D01*
X0221960Y0125000D02*
X0227960Y0125000D01*
X0227960Y0140000D02*
X0221960Y0140000D01*
X0221960Y0150000D02*
X0227960Y0150000D01*
X0227960Y0160000D02*
X0221960Y0160000D01*
X0221960Y0170000D02*
X0227960Y0170000D01*
X0227960Y0180000D02*
X0221960Y0180000D01*
X0221960Y0190000D02*
X0227960Y0190000D01*
D38*
X0227520Y0340160D03*
X0227520Y0350000D03*
X0227520Y0359840D03*
D72*
X0199960Y0367320D03*
X0199960Y0332680D03*
D13*
X0069960Y0245000D03*
X0059960Y0245000D03*
X0049960Y0245000D03*
X0039960Y0245000D03*
X0044960Y0265000D03*
X0054960Y0265000D03*
X0064960Y0265000D03*
X0064960Y0305000D03*
X0054960Y0305000D03*
X0044960Y0305000D03*
X0049960Y0205000D03*
X0039960Y0205000D03*
X0059960Y0205000D03*
X0069960Y0205000D03*
D100*
X0074960Y0140000D03*
X0049960Y0120000D03*
X0032460Y0112500D03*
X0079960Y0060000D03*
X0084960Y0080000D03*
X0104960Y0090000D03*
X0114960Y0075000D03*
X0122460Y0065000D03*
X0134960Y0055000D03*
X0154960Y0055000D03*
X0162460Y0055000D03*
X0129960Y0105000D03*
X0134960Y0170000D03*
X0179960Y0205000D03*
X0249960Y0020000D02*
G75*
%LPD*%
D13*
X0284960Y0045000D03*
X0284960Y0075000D03*
X0304960Y0080000D03*
X0312460Y0085000D03*
X0304960Y0090000D03*
X0319960Y0100000D03*
X0319960Y0130000D03*
X0414960Y0150000D03*
X0464960Y0150000D03*
X0479960Y0150000D03*
X0479960Y0180000D03*
X0464960Y0180000D03*
X0414960Y0180000D03*
X0514960Y0090000D03*
X0544960Y0090000D03*
X0554960Y0090000D03*
X0584960Y0090000D03*
X0454960Y0065000D03*
X0424960Y0065000D03*
D93*
X0419960Y0080000D03*
X0419960Y0095000D03*
X0459960Y0095000D03*
X0459960Y0080000D03*
X0284960Y0090000D03*
X0269960Y0100000D03*
X0284960Y0130000D03*
X0269960Y0140000D03*
D92*
X0304960Y0070000D03*
X0319960Y0070000D03*
X0319960Y0050000D03*
X0304960Y0050000D03*
X0519960Y0070000D03*
X0539960Y0070000D03*
X0554960Y0070000D03*
X0574960Y0070000D03*
D55*
X0352960Y0075000D02*
X0346960Y0075000D01*
X0346960Y0065000D02*
X0352960Y0065000D01*
X0352960Y0055000D02*
X0346960Y0055000D01*
X0349960Y0167000D02*
X0349960Y0173000D01*
X0339960Y0173000D02*
X0339960Y0167000D01*
X0329960Y0167000D02*
X0329960Y0173000D01*
D81*
X0374960Y0170100D02*
X0374960Y0164900D01*
X0384960Y0164900D02*
X0384960Y0170100D01*
X0394960Y0170100D02*
X0394960Y0164900D01*
X0429960Y0164900D02*
X0429960Y0170100D01*
X0439960Y0170100D02*
X0439960Y0164900D01*
X0449960Y0164900D02*
X0449960Y0170100D01*
X0454960Y0142600D02*
X0454960Y0137400D01*
X0444960Y0137400D02*
X0444960Y0142600D01*
X0434960Y0142600D02*
X0434960Y0137400D01*
X0404960Y0137400D02*
X0404960Y0142600D01*
X0394960Y0142600D02*
X0394960Y0137400D01*
X0384960Y0137400D02*
X0384960Y0142600D01*
X0374960Y0142600D02*
X0374960Y0137400D01*
X0374960Y0112600D02*
X0374960Y0107400D01*
X0384960Y0107400D02*
X0384960Y0112600D01*
X0394960Y0112600D02*
X0394960Y0107400D01*
X0404960Y0107400D02*
X0404960Y0112600D01*
X0434960Y0112600D02*
X0434960Y0107400D01*
X0444960Y0107400D02*
X0444960Y0112600D01*
X0454960Y0112600D02*
X0454960Y0107400D01*
X0464960Y0107400D02*
X0464960Y0112600D01*
X0499960Y0112600D02*
X0499960Y0107400D01*
X0509960Y0107400D02*
X0509960Y0112600D01*
X0519960Y0112600D02*
X0519960Y0107400D01*
X0529960Y0107400D02*
X0529960Y0112600D01*
X0544960Y0112600D02*
X0544960Y0107400D01*
X0554960Y0107400D02*
X0554960Y0112600D01*
X0564960Y0112600D02*
X0564960Y0107400D01*
X0574960Y0107400D02*
X0574960Y0112600D01*
X0574960Y0137400D02*
X0574960Y0142600D01*
X0564960Y0142600D02*
X0564960Y0137400D01*
X0554960Y0137400D02*
X0554960Y0142600D01*
X0544960Y0142600D02*
X0544960Y0137400D01*
X0529960Y0137400D02*
X0529960Y0142600D01*
X0519960Y0142600D02*
X0519960Y0137400D01*
X0509960Y0137400D02*
X0509960Y0142600D01*
X0499960Y0142600D02*
X0499960Y0137400D01*
X0464960Y0137400D02*
X0464960Y0142600D01*
X0404960Y0097600D02*
X0404960Y0092400D01*
X0394960Y0092400D02*
X0394960Y0097600D01*
X0384960Y0097600D02*
X0384960Y0092400D01*
X0374960Y0092400D02*
X0374960Y0097600D01*
X0374960Y0067600D02*
X0374960Y0062400D01*
X0384960Y0062400D02*
X0384960Y0067600D01*
X0394960Y0067600D02*
X0394960Y0062400D01*
X0404960Y0062400D02*
X0404960Y0067600D01*
X0472360Y0065000D02*
X0477560Y0065000D01*
X0477560Y0055000D02*
X0472360Y0055000D01*
X0472360Y0045000D02*
X0477560Y0045000D01*
X0477560Y0035000D02*
X0472360Y0035000D01*
X0502360Y0035000D02*
X0507560Y0035000D01*
X0507560Y0045000D02*
X0502360Y0045000D01*
X0502360Y0055000D02*
X0507560Y0055000D01*
X0507560Y0065000D02*
X0502360Y0065000D01*
X0502360Y0075000D02*
X0507560Y0075000D01*
X0507560Y0085000D02*
X0502360Y0085000D01*
X0502360Y0095000D02*
X0507560Y0095000D01*
X0477560Y0095000D02*
X0472360Y0095000D01*
X0472360Y0085000D02*
X0477560Y0085000D01*
X0477560Y0075000D02*
X0472360Y0075000D01*
D57*
X0304600Y0165000D03*
D43*
X0275970Y0164900D03*
X0292090Y0149990D03*
D24*
X0319960Y0150000D03*
X0354960Y0150000D03*
D22*
X0344960Y0150000D03*
X0329960Y0150000D03*
D28*
X0624960Y0150000D03*
X0634960Y0150000D03*
X0634960Y0160000D03*
X0624960Y0160000D03*
X0624960Y0140000D03*
X0634960Y0140000D03*
X0634960Y0130000D03*
X0624960Y0130000D03*
X0624960Y0120000D03*
X0634960Y0120000D03*
D90*
X0614960Y0120000D03*
X0614960Y0130000D03*
X0614960Y0140000D03*
X0614960Y0150000D03*
X0614960Y0160000D03*
X0339960Y0125000D03*
X0339960Y0115000D03*
X0339960Y0105000D03*
D96*
X0364960Y0102500D03*
X0364960Y0045000D03*
X0249960Y0189960D02*
G75*
%LPD*%
D13*
X0284960Y0214960D03*
X0284960Y0244960D03*
X0304960Y0249960D03*
X0312460Y0254960D03*
X0304960Y0259960D03*
X0319960Y0269960D03*
X0319960Y0299960D03*
X0414960Y0319960D03*
X0464960Y0319960D03*
X0479960Y0319960D03*
X0479960Y0349960D03*
X0464960Y0349960D03*
X0414960Y0349960D03*
X0514960Y0259960D03*
X0544960Y0259960D03*
X0554960Y0259960D03*
X0584960Y0259960D03*
X0454960Y0234960D03*
X0424960Y0234960D03*
D93*
X0419960Y0249960D03*
X0419960Y0264960D03*
X0459960Y0264960D03*
X0459960Y0249960D03*
X0284960Y0259960D03*
X0269960Y0269960D03*
X0284960Y0299960D03*
X0269960Y0309960D03*
D92*
X0304960Y0239960D03*
X0319960Y0239960D03*
X0319960Y0219960D03*
X0304960Y0219960D03*
X0519960Y0239960D03*
X0539960Y0239960D03*
X0554960Y0239960D03*
X0574960Y0239960D03*
D55*
X0352960Y0244960D02*
X0346960Y0244960D01*
X0346960Y0234960D02*
X0352960Y0234960D01*
X0352960Y0224960D02*
X0346960Y0224960D01*
X0349960Y0336960D02*
X0349960Y0342960D01*
X0339960Y0342960D02*
X0339960Y0336960D01*
X0329960Y0336960D02*
X0329960Y0342960D01*
D81*
X0374960Y0340060D02*
X0374960Y0334860D01*
X0384960Y0334860D02*
X0384960Y0340060D01*
X0394960Y0340060D02*
X0394960Y0334860D01*
X0429960Y0334860D02*
X0429960Y0340060D01*
X0439960Y0340060D02*
X0439960Y0334860D01*
X0449960Y0334860D02*
X0449960Y0340060D01*
X0454960Y0312560D02*
X0454960Y0307360D01*
X0444960Y0307360D02*
X0444960Y0312560D01*
X0434960Y0312560D02*
X0434960Y0307360D01*
X0404960Y0307360D02*
X0404960Y0312560D01*
X0394960Y0312560D02*
X0394960Y0307360D01*
X0384960Y0307360D02*
X0384960Y0312560D01*
X0374960Y0312560D02*
X0374960Y0307360D01*
X0374960Y0282560D02*
X0374960Y0277360D01*
X0384960Y0277360D02*
X0384960Y0282560D01*
X0394960Y0282560D02*
X0394960Y0277360D01*
X0404960Y0277360D02*
X0404960Y0282560D01*
X0434960Y0282560D02*
X0434960Y0277360D01*
X0444960Y0277360D02*
X0444960Y0282560D01*
X0454960Y0282560D02*
X0454960Y0277360D01*
X0464960Y0277360D02*
X0464960Y0282560D01*
X0499960Y0282560D02*
X0499960Y0277360D01*
X0509960Y0277360D02*
X0509960Y0282560D01*
X0519960Y0282560D02*
X0519960Y0277360D01*
X0529960Y0277360D02*
X0529960Y0282560D01*
X0544960Y0282560D02*
X0544960Y0277360D01*
X0554960Y0277360D02*
X0554960Y0282560D01*
X0564960Y0282560D02*
X0564960Y0277360D01*
X0574960Y0277360D02*
X0574960Y0282560D01*
X0574960Y0307360D02*
X0574960Y0312560D01*
X0564960Y0312560D02*
X0564960Y0307360D01*
X0554960Y0307360D02*
X0554960Y0312560D01*
X0544960Y0312560D02*
X0544960Y0307360D01*
X0529960Y0307360D02*
X0529960Y0312560D01*
X0519960Y0312560D02*
X0519960Y0307360D01*
X0509960Y0307360D02*
X0509960Y0312560D01*
X0499960Y0312560D02*
X0499960Y0307360D01*
X0464960Y0307360D02*
X0464960Y0312560D01*
X0404960Y0267560D02*
X0404960Y0262360D01*
X0394960Y0262360D02*
X0394960Y0267560D01*
X0384960Y0267560D02*
X0384960Y0262360D01*
X0374960Y0262360D02*
X0374960Y0267560D01*
X0374960Y0237560D02*
X0374960Y0232360D01*
X0384960Y0232360D02*
X0384960Y0237560D01*
X0394960Y0237560D02*
X0394960Y0232360D01*
X0404960Y0232360D02*
X0404960Y0237560D01*
X0472360Y0234960D02*
X0477560Y0234960D01*
X0477560Y0224960D02*
X0472360Y0224960D01*
X0472360Y0214960D02*
X0477560Y0214960D01*
X0477560Y0204960D02*
X0472360Y0204960D01*
X0502360Y0204960D02*
X0507560Y0204960D01*
X0507560Y0214960D02*
X0502360Y0214960D01*
X0502360Y0224960D02*
X0507560Y0224960D01*
X0507560Y0234960D02*
X0502360Y0234960D01*
X0502360Y0244960D02*
X0507560Y0244960D01*
X0507560Y0254960D02*
X0502360Y0254960D01*
X0502360Y0264960D02*
X0507560Y0264960D01*
X0477560Y0264960D02*
X0472360Y0264960D01*
X0472360Y0254960D02*
X0477560Y0254960D01*
X0477560Y0244960D02*
X0472360Y0244960D01*
D57*
X0304600Y0334960D03*
D43*
X0275970Y0334860D03*
X0292090Y0319950D03*
D24*
X0319960Y0319960D03*
X0354960Y0319960D03*
D22*
X0344960Y0319960D03*
X0329960Y0319960D03*
D28*
X0624960Y0319960D03*
X0634960Y0319960D03*
X0634960Y0329960D03*
X0624960Y0329960D03*
X0624960Y0309960D03*
X0634960Y0309960D03*
X0634960Y0299960D03*
X0624960Y0299960D03*
X0624960Y0289960D03*
X0634960Y0289960D03*
D90*
X0614960Y0289960D03*
X0614960Y0299960D03*
X0614960Y0309960D03*
X0614960Y0319960D03*
X0614960Y0329960D03*
X0339960Y0294960D03*
X0339960Y0284960D03*
X0339960Y0274960D03*
D96*
X0364960Y0272460D03*
X0364960Y0214960D03*
X0020000Y0388700D02*
G75*
%LPD*%
D81*
X0092000Y0416100D02*
X0092000Y0421300D01*
X0102000Y0421300D02*
X0102000Y0416100D01*
X0112000Y0416100D02*
X0112000Y0421300D01*
X0122000Y0421300D02*
X0122000Y0416100D01*
X0132000Y0416100D02*
X0132000Y0421300D01*
X0142000Y0421300D02*
X0142000Y0416100D01*
X0152000Y0416100D02*
X0152000Y0421300D01*
X0162000Y0421300D02*
X0162000Y0416100D01*
X0162000Y0446100D02*
X0162000Y0451300D01*
X0152000Y0451300D02*
X0152000Y0446100D01*
X0142000Y0446100D02*
X0142000Y0451300D01*
X0132000Y0451300D02*
X0132000Y0446100D01*
X0122000Y0446100D02*
X0122000Y0451300D01*
X0112000Y0451300D02*
X0112000Y0446100D01*
X0102000Y0446100D02*
X0102000Y0451300D01*
X0092000Y0451300D02*
X0092000Y0446100D01*
D13*
X0077000Y0446200D03*
X0067000Y0446200D03*
X0057000Y0446200D03*
X0047000Y0446200D03*
X0047000Y0416200D03*
X0057000Y0416200D03*
X0067000Y0416200D03*
X0077000Y0416200D03*
X0067000Y0398700D03*
X0057000Y0398700D03*
X0037000Y0398700D03*
X0027000Y0398700D03*
X0087000Y0398700D03*
X0097000Y0398700D03*
X0117000Y0398700D03*
X0127000Y0398700D03*
X0147000Y0398700D03*
X0157000Y0398700D03*
X0177000Y0398700D03*
X0187000Y0398700D03*
X0207000Y0398700D03*
X0217000Y0398700D03*
X0237000Y0398700D03*
X0247000Y0398700D03*
X0204500Y0418700D03*
X0194500Y0418700D03*
X0184500Y0418700D03*
X0174500Y0418700D03*
X0174500Y0448700D03*
X0184500Y0448700D03*
X0194500Y0448700D03*
X0204500Y0448700D03*
D30*
X0027000Y0396200D03*
X0037000Y0396200D03*
X0057000Y0396200D03*
X0067000Y0396200D03*
X0087000Y0396200D03*
X0097000Y0396200D03*
X0117000Y0396200D03*
X0127000Y0396200D03*
X0147000Y0396200D03*
X0157000Y0396200D03*
X0177000Y0396200D03*
X0187000Y0396200D03*
X0207000Y0396200D03*
X0217000Y0396200D03*
X0237000Y0396200D03*
X0247000Y0396200D03*
D55*
X0221000Y0410700D02*
X0215000Y0410700D01*
X0215000Y0420700D02*
X0221000Y0420700D01*
X0221000Y0430700D02*
X0215000Y0430700D01*
X0215000Y0440700D02*
X0221000Y0440700D01*
X0221000Y0450700D02*
X0215000Y0450700D01*
X0038000Y0449700D02*
X0032000Y0449700D01*
X0032000Y0439700D02*
X0038000Y0439700D01*
X0038000Y0429700D02*
X0032000Y0429700D01*
X0032000Y0419700D02*
X0038000Y0419700D01*
X0038000Y0409700D02*
X0032000Y0409700D01*
X0648660Y0020000D02*
G75*
%LPD*%
D102*
X0741790Y0112870D02*
X0739450Y0112870D01*
X0741790Y0112870D02*
X0741790Y0104630D01*
X0739450Y0104630D01*
X0739450Y0112870D01*
X0740980Y0112870D02*
X0740980Y0104630D01*
X0740170Y0104630D02*
X0740170Y0112870D01*
X0736790Y0112870D02*
X0734450Y0112870D01*
X0736790Y0112870D02*
X0736790Y0104630D01*
X0734450Y0104630D01*
X0734450Y0112870D01*
X0735980Y0112870D02*
X0735980Y0104630D01*
X0735170Y0104630D02*
X0735170Y0112870D01*
X0731790Y0112870D02*
X0729450Y0112870D01*
X0731790Y0112870D02*
X0731790Y0104630D01*
X0729450Y0104630D01*
X0729450Y0112870D01*
X0730980Y0112870D02*
X0730980Y0104630D01*
X0730170Y0104630D02*
X0730170Y0112870D01*
X0726790Y0112870D02*
X0724450Y0112870D01*
X0726790Y0112870D02*
X0726790Y0104630D01*
X0724450Y0104630D01*
X0724450Y0112870D01*
X0725980Y0112870D02*
X0725980Y0104630D01*
X0725170Y0104630D02*
X0725170Y0112870D01*
X0721790Y0112870D02*
X0719450Y0112870D01*
X0721790Y0112870D02*
X0721790Y0104630D01*
X0719450Y0104630D01*
X0719450Y0112870D01*
X0720980Y0112870D02*
X0720980Y0104630D01*
X0720170Y0104630D02*
X0720170Y0112870D01*
X0716790Y0112870D02*
X0714450Y0112870D01*
X0716790Y0112870D02*
X0716790Y0104630D01*
X0714450Y0104630D01*
X0714450Y0112870D01*
X0715980Y0112870D02*
X0715980Y0104630D01*
X0715170Y0104630D02*
X0715170Y0112870D01*
X0711790Y0112870D02*
X0709450Y0112870D01*
X0711790Y0112870D02*
X0711790Y0104630D01*
X0709450Y0104630D01*
X0709450Y0112870D01*
X0710980Y0112870D02*
X0710980Y0104630D01*
X0710170Y0104630D02*
X0710170Y0112870D01*
X0706790Y0112870D02*
X0704450Y0112870D01*
X0706790Y0112870D02*
X0706790Y0104630D01*
X0704450Y0104630D01*
X0704450Y0112870D01*
X0705980Y0112870D02*
X0705980Y0104630D01*
X0705170Y0104630D02*
X0705170Y0112870D01*
X0701790Y0112870D02*
X0699450Y0112870D01*
X0701790Y0112870D02*
X0701790Y0104630D01*
X0699450Y0104630D01*
X0699450Y0112870D01*
X0700980Y0112870D02*
X0700980Y0104630D01*
X0700170Y0104630D02*
X0700170Y0112870D01*
X0696790Y0112870D02*
X0694450Y0112870D01*
X0696790Y0112870D02*
X0696790Y0104630D01*
X0694450Y0104630D01*
X0694450Y0112870D01*
X0695980Y0112870D02*
X0695980Y0104630D01*
X0695170Y0104630D02*
X0695170Y0112870D01*
X0679540Y0098670D02*
X0679540Y0096330D01*
X0679540Y0098670D02*
X0688180Y0098670D01*
X0688180Y0096330D01*
X0679540Y0096330D01*
X0687370Y0096330D02*
X0687370Y0098670D01*
X0686560Y0098670D02*
X0686560Y0096330D01*
X0685750Y0096330D02*
X0685750Y0098670D01*
X0684940Y0098670D02*
X0684940Y0096330D01*
X0684130Y0096330D02*
X0684130Y0098670D01*
X0683320Y0098670D02*
X0683320Y0096330D01*
X0682510Y0096330D02*
X0682510Y0098670D01*
X0681700Y0098670D02*
X0681700Y0096330D01*
X0680890Y0096330D02*
X0680890Y0098670D01*
X0680080Y0098670D02*
X0680080Y0096330D01*
X0679540Y0093670D02*
X0679540Y0091330D01*
X0679540Y0093670D02*
X0688180Y0093670D01*
X0688180Y0091330D01*
X0679540Y0091330D01*
X0687370Y0091330D02*
X0687370Y0093670D01*
X0686560Y0093670D02*
X0686560Y0091330D01*
X0685750Y0091330D02*
X0685750Y0093670D01*
X0684940Y0093670D02*
X0684940Y0091330D01*
X0684130Y0091330D02*
X0684130Y0093670D01*
X0683320Y0093670D02*
X0683320Y0091330D01*
X0682510Y0091330D02*
X0682510Y0093670D01*
X0681700Y0093670D02*
X0681700Y0091330D01*
X0680890Y0091330D02*
X0680890Y0093670D01*
X0680080Y0093670D02*
X0680080Y0091330D01*
X0679540Y0088670D02*
X0679540Y0086330D01*
X0679540Y0088670D02*
X0688180Y0088670D01*
X0688180Y0086330D01*
X0679540Y0086330D01*
X0687370Y0086330D02*
X0687370Y0088670D01*
X0686560Y0088670D02*
X0686560Y0086330D01*
X0685750Y0086330D02*
X0685750Y0088670D01*
X0684940Y0088670D02*
X0684940Y0086330D01*
X0684130Y0086330D02*
X0684130Y0088670D01*
X0683320Y0088670D02*
X0683320Y0086330D01*
X0682510Y0086330D02*
X0682510Y0088670D01*
X0681700Y0088670D02*
X0681700Y0086330D01*
X0680890Y0086330D02*
X0680890Y0088670D01*
X0680080Y0088670D02*
X0680080Y0086330D01*
X0679540Y0083670D02*
X0679540Y0081330D01*
X0679540Y0083670D02*
X0688180Y0083670D01*
X0688180Y0081330D01*
X0679540Y0081330D01*
X0687370Y0081330D02*
X0687370Y0083670D01*
X0686560Y0083670D02*
X0686560Y0081330D01*
X0685750Y0081330D02*
X0685750Y0083670D01*
X0684940Y0083670D02*
X0684940Y0081330D01*
X0684130Y0081330D02*
X0684130Y0083670D01*
X0683320Y0083670D02*
X0683320Y0081330D01*
X0682510Y0081330D02*
X0682510Y0083670D01*
X0681700Y0083670D02*
X0681700Y0081330D01*
X0680890Y0081330D02*
X0680890Y0083670D01*
X0680080Y0083670D02*
X0680080Y0081330D01*
X0659070Y0081330D02*
X0659070Y0083670D01*
X0667710Y0083670D01*
X0667710Y0081330D01*
X0659070Y0081330D01*
X0666900Y0081330D02*
X0666900Y0083670D01*
X0666090Y0083670D02*
X0666090Y0081330D01*
X0665280Y0081330D02*
X0665280Y0083670D01*
X0664470Y0083670D02*
X0664470Y0081330D01*
X0663660Y0081330D02*
X0663660Y0083670D01*
X0662850Y0083670D02*
X0662850Y0081330D01*
X0662040Y0081330D02*
X0662040Y0083670D01*
X0661230Y0083670D02*
X0661230Y0081330D01*
X0660420Y0081330D02*
X0660420Y0083670D01*
X0659610Y0083670D02*
X0659610Y0081330D01*
X0659070Y0086330D02*
X0659070Y0088670D01*
X0667710Y0088670D01*
X0667710Y0086330D01*
X0659070Y0086330D01*
X0666900Y0086330D02*
X0666900Y0088670D01*
X0666090Y0088670D02*
X0666090Y0086330D01*
X0665280Y0086330D02*
X0665280Y0088670D01*
X0664470Y0088670D02*
X0664470Y0086330D01*
X0663660Y0086330D02*
X0663660Y0088670D01*
X0662850Y0088670D02*
X0662850Y0086330D01*
X0662040Y0086330D02*
X0662040Y0088670D01*
X0661230Y0088670D02*
X0661230Y0086330D01*
X0660420Y0086330D02*
X0660420Y0088670D01*
X0659610Y0088670D02*
X0659610Y0086330D01*
X0659070Y0091330D02*
X0659070Y0093670D01*
X0667710Y0093670D01*
X0667710Y0091330D01*
X0659070Y0091330D01*
X0666900Y0091330D02*
X0666900Y0093670D01*
X0666090Y0093670D02*
X0666090Y0091330D01*
X0665280Y0091330D02*
X0665280Y0093670D01*
X0664470Y0093670D02*
X0664470Y0091330D01*
X0663660Y0091330D02*
X0663660Y0093670D01*
X0662850Y0093670D02*
X0662850Y0091330D01*
X0662040Y0091330D02*
X0662040Y0093670D01*
X0661230Y0093670D02*
X0661230Y0091330D01*
X0660420Y0091330D02*
X0660420Y0093670D01*
X0659610Y0093670D02*
X0659610Y0091330D01*
X0659070Y0096330D02*
X0659070Y0098670D01*
X0667710Y0098670D01*
X0667710Y0096330D01*
X0659070Y0096330D01*
X0666900Y0096330D02*
X0666900Y0098670D01*
X0666090Y0098670D02*
X0666090Y0096330D01*
X0665280Y0096330D02*
X0665280Y0098670D01*
X0664470Y0098670D02*
X0664470Y0096330D01*
X0663660Y0096330D02*
X0663660Y0098670D01*
X0662850Y0098670D02*
X0662850Y0096330D01*
X0662040Y0096330D02*
X0662040Y0098670D01*
X0661230Y0098670D02*
X0661230Y0096330D01*
X0660420Y0096330D02*
X0660420Y0098670D01*
X0659610Y0098670D02*
X0659610Y0096330D01*
X0694450Y0149370D02*
X0696790Y0149370D01*
X0696790Y0141130D01*
X0694450Y0141130D01*
X0694450Y0149370D01*
X0695980Y0149370D02*
X0695980Y0141130D01*
X0695170Y0141130D02*
X0695170Y0149370D01*
X0699450Y0149370D02*
X0701790Y0149370D01*
X0701790Y0141130D01*
X0699450Y0141130D01*
X0699450Y0149370D01*
X0700980Y0149370D02*
X0700980Y0141130D01*
X0700170Y0141130D02*
X0700170Y0149370D01*
X0704450Y0149370D02*
X0706790Y0149370D01*
X0706790Y0141130D01*
X0704450Y0141130D01*
X0704450Y0149370D01*
X0705980Y0149370D02*
X0705980Y0141130D01*
X0705170Y0141130D02*
X0705170Y0149370D01*
X0709450Y0149370D02*
X0711790Y0149370D01*
X0711790Y0141130D01*
X0709450Y0141130D01*
X0709450Y0149370D01*
X0710980Y0149370D02*
X0710980Y0141130D01*
X0710170Y0141130D02*
X0710170Y0149370D01*
X0714450Y0149370D02*
X0716790Y0149370D01*
X0716790Y0141130D01*
X0714450Y0141130D01*
X0714450Y0149370D01*
X0715980Y0149370D02*
X0715980Y0141130D01*
X0715170Y0141130D02*
X0715170Y0149370D01*
X0719450Y0149370D02*
X0721790Y0149370D01*
X0721790Y0141130D01*
X0719450Y0141130D01*
X0719450Y0149370D01*
X0720980Y0149370D02*
X0720980Y0141130D01*
X0720170Y0141130D02*
X0720170Y0149370D01*
X0724450Y0149370D02*
X0726790Y0149370D01*
X0726790Y0141130D01*
X0724450Y0141130D01*
X0724450Y0149370D01*
X0725980Y0149370D02*
X0725980Y0141130D01*
X0725170Y0141130D02*
X0725170Y0149370D01*
X0729450Y0149370D02*
X0731790Y0149370D01*
X0731790Y0141130D01*
X0729450Y0141130D01*
X0729450Y0149370D01*
X0730980Y0149370D02*
X0730980Y0141130D01*
X0730170Y0141130D02*
X0730170Y0149370D01*
X0734450Y0149370D02*
X0736790Y0149370D01*
X0736790Y0141130D01*
X0734450Y0141130D01*
X0734450Y0149370D01*
X0735980Y0149370D02*
X0735980Y0141130D01*
X0735170Y0141130D02*
X0735170Y0149370D01*
X0739450Y0149370D02*
X0741790Y0149370D01*
X0741790Y0141130D01*
X0739450Y0141130D01*
X0739450Y0149370D01*
X0740980Y0149370D02*
X0740980Y0141130D01*
X0740170Y0141130D02*
X0740170Y0149370D01*
D48*
X0688270Y0073700D02*
X0688270Y0071300D01*
X0679570Y0071300D01*
X0679570Y0073700D01*
X0688270Y0073700D01*
X0687480Y0073700D02*
X0687480Y0071300D01*
X0686690Y0071300D02*
X0686690Y0073700D01*
X0685900Y0073700D02*
X0685900Y0071300D01*
X0685110Y0071300D02*
X0685110Y0073700D01*
X0684320Y0073700D02*
X0684320Y0071300D01*
X0683530Y0071300D02*
X0683530Y0073700D01*
X0682740Y0073700D02*
X0682740Y0071300D01*
X0681950Y0071300D02*
X0681950Y0073700D01*
X0681160Y0073700D02*
X0681160Y0071300D01*
X0680370Y0071300D02*
X0680370Y0073700D01*
X0679580Y0073700D02*
X0679580Y0071300D01*
X0688270Y0068700D02*
X0688270Y0066300D01*
X0679570Y0066300D01*
X0679570Y0068700D01*
X0688270Y0068700D01*
X0687480Y0068700D02*
X0687480Y0066300D01*
X0686690Y0066300D02*
X0686690Y0068700D01*
X0685900Y0068700D02*
X0685900Y0066300D01*
X0685110Y0066300D02*
X0685110Y0068700D01*
X0684320Y0068700D02*
X0684320Y0066300D01*
X0683530Y0066300D02*
X0683530Y0068700D01*
X0682740Y0068700D02*
X0682740Y0066300D01*
X0681950Y0066300D02*
X0681950Y0068700D01*
X0681160Y0068700D02*
X0681160Y0066300D01*
X0680370Y0066300D02*
X0680370Y0068700D01*
X0679580Y0068700D02*
X0679580Y0066300D01*
X0688270Y0063700D02*
X0688270Y0061300D01*
X0679570Y0061300D01*
X0679570Y0063700D01*
X0688270Y0063700D01*
X0687480Y0063700D02*
X0687480Y0061300D01*
X0686690Y0061300D02*
X0686690Y0063700D01*
X0685900Y0063700D02*
X0685900Y0061300D01*
X0685110Y0061300D02*
X0685110Y0063700D01*
X0684320Y0063700D02*
X0684320Y0061300D01*
X0683530Y0061300D02*
X0683530Y0063700D01*
X0682740Y0063700D02*
X0682740Y0061300D01*
X0681950Y0061300D02*
X0681950Y0063700D01*
X0681160Y0063700D02*
X0681160Y0061300D01*
X0680370Y0061300D02*
X0680370Y0063700D01*
X0679580Y0063700D02*
X0679580Y0061300D01*
X0688270Y0058700D02*
X0688270Y0056300D01*
X0679570Y0056300D01*
X0679570Y0058700D01*
X0688270Y0058700D01*
X0687480Y0058700D02*
X0687480Y0056300D01*
X0686690Y0056300D02*
X0686690Y0058700D01*
X0685900Y0058700D02*
X0685900Y0056300D01*
X0685110Y0056300D02*
X0685110Y0058700D01*
X0684320Y0058700D02*
X0684320Y0056300D01*
X0683530Y0056300D02*
X0683530Y0058700D01*
X0682740Y0058700D02*
X0682740Y0056300D01*
X0681950Y0056300D02*
X0681950Y0058700D01*
X0681160Y0058700D02*
X0681160Y0056300D01*
X0680370Y0056300D02*
X0680370Y0058700D01*
X0679580Y0058700D02*
X0679580Y0056300D01*
X0667670Y0056300D02*
X0667670Y0058700D01*
X0667670Y0056300D02*
X0658970Y0056300D01*
X0658970Y0058700D01*
X0667670Y0058700D01*
X0666880Y0058700D02*
X0666880Y0056300D01*
X0666090Y0056300D02*
X0666090Y0058700D01*
X0665300Y0058700D02*
X0665300Y0056300D01*
X0664510Y0056300D02*
X0664510Y0058700D01*
X0663720Y0058700D02*
X0663720Y0056300D01*
X0662930Y0056300D02*
X0662930Y0058700D01*
X0662140Y0058700D02*
X0662140Y0056300D01*
X0661350Y0056300D02*
X0661350Y0058700D01*
X0660560Y0058700D02*
X0660560Y0056300D01*
X0659770Y0056300D02*
X0659770Y0058700D01*
X0658980Y0058700D02*
X0658980Y0056300D01*
X0667670Y0061300D02*
X0667670Y0063700D01*
X0667670Y0061300D02*
X0658970Y0061300D01*
X0658970Y0063700D01*
X0667670Y0063700D01*
X0666880Y0063700D02*
X0666880Y0061300D01*
X0666090Y0061300D02*
X0666090Y0063700D01*
X0665300Y0063700D02*
X0665300Y0061300D01*
X0664510Y0061300D02*
X0664510Y0063700D01*
X0663720Y0063700D02*
X0663720Y0061300D01*
X0662930Y0061300D02*
X0662930Y0063700D01*
X0662140Y0063700D02*
X0662140Y0061300D01*
X0661350Y0061300D02*
X0661350Y0063700D01*
X0660560Y0063700D02*
X0660560Y0061300D01*
X0659770Y0061300D02*
X0659770Y0063700D01*
X0658980Y0063700D02*
X0658980Y0061300D01*
X0667670Y0066300D02*
X0667670Y0068700D01*
X0667670Y0066300D02*
X0658970Y0066300D01*
X0658970Y0068700D01*
X0667670Y0068700D01*
X0666880Y0068700D02*
X0666880Y0066300D01*
X0666090Y0066300D02*
X0666090Y0068700D01*
X0665300Y0068700D02*
X0665300Y0066300D01*
X0664510Y0066300D02*
X0664510Y0068700D01*
X0663720Y0068700D02*
X0663720Y0066300D01*
X0662930Y0066300D02*
X0662930Y0068700D01*
X0662140Y0068700D02*
X0662140Y0066300D01*
X0661350Y0066300D02*
X0661350Y0068700D01*
X0660560Y0068700D02*
X0660560Y0066300D01*
X0659770Y0066300D02*
X0659770Y0068700D01*
X0658980Y0068700D02*
X0658980Y0066300D01*
X0667670Y0071300D02*
X0667670Y0073700D01*
X0667670Y0071300D02*
X0658970Y0071300D01*
X0658970Y0073700D01*
X0667670Y0073700D01*
X0666880Y0073700D02*
X0666880Y0071300D01*
X0666090Y0071300D02*
X0666090Y0073700D01*
X0665300Y0073700D02*
X0665300Y0071300D01*
X0664510Y0071300D02*
X0664510Y0073700D01*
X0663720Y0073700D02*
X0663720Y0071300D01*
X0662930Y0071300D02*
X0662930Y0073700D01*
X0662140Y0073700D02*
X0662140Y0071300D01*
X0661350Y0071300D02*
X0661350Y0073700D01*
X0660560Y0073700D02*
X0660560Y0071300D01*
X0659770Y0071300D02*
X0659770Y0073700D01*
X0658980Y0073700D02*
X0658980Y0071300D01*
D26*
X0705220Y0071530D02*
X0705220Y0069330D01*
X0700220Y0069330D01*
X0700220Y0071530D01*
X0705220Y0071530D01*
X0704420Y0071530D02*
X0704420Y0069330D01*
X0703620Y0069330D02*
X0703620Y0071530D01*
X0702820Y0071530D02*
X0702820Y0069330D01*
X0702020Y0069330D02*
X0702020Y0071530D01*
X0701220Y0071530D02*
X0701220Y0069330D01*
X0700420Y0069330D02*
X0700420Y0071530D01*
X0705220Y0072480D02*
X0705220Y0074680D01*
X0705220Y0072480D02*
X0700220Y0072480D01*
X0700220Y0074680D01*
X0705220Y0074680D01*
X0704420Y0074680D02*
X0704420Y0072480D01*
X0703620Y0072480D02*
X0703620Y0074680D01*
X0702820Y0074680D02*
X0702820Y0072480D01*
X0702020Y0072480D02*
X0702020Y0074680D01*
X0701220Y0074680D02*
X0701220Y0072480D01*
X0700420Y0072480D02*
X0700420Y0074680D01*
X0705220Y0075630D02*
X0705220Y0077830D01*
X0705220Y0075630D02*
X0700220Y0075630D01*
X0700220Y0077830D01*
X0705220Y0077830D01*
X0704420Y0077830D02*
X0704420Y0075630D01*
X0703620Y0075630D02*
X0703620Y0077830D01*
X0702820Y0077830D02*
X0702820Y0075630D01*
X0702020Y0075630D02*
X0702020Y0077830D01*
X0701220Y0077830D02*
X0701220Y0075630D01*
X0700420Y0075630D02*
X0700420Y0077830D01*
X0705220Y0078780D02*
X0705220Y0080980D01*
X0705220Y0078780D02*
X0700220Y0078780D01*
X0700220Y0080980D01*
X0705220Y0080980D01*
X0704420Y0080980D02*
X0704420Y0078780D01*
X0703620Y0078780D02*
X0703620Y0080980D01*
X0702820Y0080980D02*
X0702820Y0078780D01*
X0702020Y0078780D02*
X0702020Y0080980D01*
X0701220Y0080980D02*
X0701220Y0078780D01*
X0700420Y0078780D02*
X0700420Y0080980D01*
X0705220Y0081930D02*
X0705220Y0084130D01*
X0705220Y0081930D02*
X0700220Y0081930D01*
X0700220Y0084130D01*
X0705220Y0084130D01*
X0704420Y0084130D02*
X0704420Y0081930D01*
X0703620Y0081930D02*
X0703620Y0084130D01*
X0702820Y0084130D02*
X0702820Y0081930D01*
X0702020Y0081930D02*
X0702020Y0084130D01*
X0701220Y0084130D02*
X0701220Y0081930D01*
X0700420Y0081930D02*
X0700420Y0084130D01*
X0709700Y0086400D02*
X0709700Y0091400D01*
X0709700Y0086400D02*
X0707500Y0086400D01*
X0707500Y0091400D01*
X0709700Y0091400D01*
X0708900Y0091400D02*
X0708900Y0086400D01*
X0708100Y0086400D02*
X0708100Y0091400D01*
X0712850Y0091400D02*
X0712850Y0086400D01*
X0710650Y0086400D01*
X0710650Y0091400D01*
X0712850Y0091400D01*
X0712050Y0091400D02*
X0712050Y0086400D01*
X0711250Y0086400D02*
X0711250Y0091400D01*
X0716000Y0091400D02*
X0716000Y0086400D01*
X0713800Y0086400D01*
X0713800Y0091400D01*
X0716000Y0091400D01*
X0715200Y0091400D02*
X0715200Y0086400D01*
X0714400Y0086400D02*
X0714400Y0091400D01*
X0719150Y0091400D02*
X0719150Y0086400D01*
X0716950Y0086400D01*
X0716950Y0091400D01*
X0719150Y0091400D01*
X0718350Y0091400D02*
X0718350Y0086400D01*
X0717550Y0086400D02*
X0717550Y0091400D01*
X0722300Y0091400D02*
X0722300Y0086400D01*
X0720100Y0086400D01*
X0720100Y0091400D01*
X0722300Y0091400D01*
X0721500Y0091400D02*
X0721500Y0086400D01*
X0720700Y0086400D02*
X0720700Y0091400D01*
X0725450Y0091400D02*
X0725450Y0086400D01*
X0723250Y0086400D01*
X0723250Y0091400D01*
X0725450Y0091400D01*
X0724650Y0091400D02*
X0724650Y0086400D01*
X0723850Y0086400D02*
X0723850Y0091400D01*
X0728600Y0091400D02*
X0728600Y0086400D01*
X0726400Y0086400D01*
X0726400Y0091400D01*
X0728600Y0091400D01*
X0727800Y0091400D02*
X0727800Y0086400D01*
X0727000Y0086400D02*
X0727000Y0091400D01*
X0731750Y0091400D02*
X0731750Y0086400D01*
X0729550Y0086400D01*
X0729550Y0091400D01*
X0731750Y0091400D01*
X0730950Y0091400D02*
X0730950Y0086400D01*
X0730150Y0086400D02*
X0730150Y0091400D01*
X0739020Y0084130D02*
X0739020Y0081930D01*
X0734020Y0081930D01*
X0734020Y0084130D01*
X0739020Y0084130D01*
X0738220Y0084130D02*
X0738220Y0081930D01*
X0737420Y0081930D02*
X0737420Y0084130D01*
X0736620Y0084130D02*
X0736620Y0081930D01*
X0735820Y0081930D02*
X0735820Y0084130D01*
X0735020Y0084130D02*
X0735020Y0081930D01*
X0734220Y0081930D02*
X0734220Y0084130D01*
X0739020Y0080980D02*
X0739020Y0078780D01*
X0734020Y0078780D01*
X0734020Y0080980D01*
X0739020Y0080980D01*
X0738220Y0080980D02*
X0738220Y0078780D01*
X0737420Y0078780D02*
X0737420Y0080980D01*
X0736620Y0080980D02*
X0736620Y0078780D01*
X0735820Y0078780D02*
X0735820Y0080980D01*
X0735020Y0080980D02*
X0735020Y0078780D01*
X0734220Y0078780D02*
X0734220Y0080980D01*
X0739020Y0077830D02*
X0739020Y0075630D01*
X0734020Y0075630D01*
X0734020Y0077830D01*
X0739020Y0077830D01*
X0738220Y0077830D02*
X0738220Y0075630D01*
X0737420Y0075630D02*
X0737420Y0077830D01*
X0736620Y0077830D02*
X0736620Y0075630D01*
X0735820Y0075630D02*
X0735820Y0077830D01*
X0735020Y0077830D02*
X0735020Y0075630D01*
X0734220Y0075630D02*
X0734220Y0077830D01*
X0739020Y0074680D02*
X0739020Y0072480D01*
X0734020Y0072480D01*
X0734020Y0074680D01*
X0739020Y0074680D01*
X0738220Y0074680D02*
X0738220Y0072480D01*
X0737420Y0072480D02*
X0737420Y0074680D01*
X0736620Y0074680D02*
X0736620Y0072480D01*
X0735820Y0072480D02*
X0735820Y0074680D01*
X0735020Y0074680D02*
X0735020Y0072480D01*
X0734220Y0072480D02*
X0734220Y0074680D01*
X0739020Y0071530D02*
X0739020Y0069330D01*
X0734020Y0069330D01*
X0734020Y0071530D01*
X0739020Y0071530D01*
X0738220Y0071530D02*
X0738220Y0069330D01*
X0737420Y0069330D02*
X0737420Y0071530D01*
X0736620Y0071530D02*
X0736620Y0069330D01*
X0735820Y0069330D02*
X0735820Y0071530D01*
X0735020Y0071530D02*
X0735020Y0069330D01*
X0734220Y0069330D02*
X0734220Y0071530D01*
X0739020Y0068380D02*
X0739020Y0066180D01*
X0734020Y0066180D01*
X0734020Y0068380D01*
X0739020Y0068380D01*
X0738220Y0068380D02*
X0738220Y0066180D01*
X0737420Y0066180D02*
X0737420Y0068380D01*
X0736620Y0068380D02*
X0736620Y0066180D01*
X0735820Y0066180D02*
X0735820Y0068380D01*
X0735020Y0068380D02*
X0735020Y0066180D01*
X0734220Y0066180D02*
X0734220Y0068380D01*
X0739020Y0065230D02*
X0739020Y0063030D01*
X0734020Y0063030D01*
X0734020Y0065230D01*
X0739020Y0065230D01*
X0738220Y0065230D02*
X0738220Y0063030D01*
X0737420Y0063030D02*
X0737420Y0065230D01*
X0736620Y0065230D02*
X0736620Y0063030D01*
X0735820Y0063030D02*
X0735820Y0065230D01*
X0735020Y0065230D02*
X0735020Y0063030D01*
X0734220Y0063030D02*
X0734220Y0065230D01*
X0739020Y0062080D02*
X0739020Y0059880D01*
X0734020Y0059880D01*
X0734020Y0062080D01*
X0739020Y0062080D01*
X0738220Y0062080D02*
X0738220Y0059880D01*
X0737420Y0059880D02*
X0737420Y0062080D01*
X0736620Y0062080D02*
X0736620Y0059880D01*
X0735820Y0059880D02*
X0735820Y0062080D01*
X0735020Y0062080D02*
X0735020Y0059880D01*
X0734220Y0059880D02*
X0734220Y0062080D01*
X0731750Y0057600D02*
X0731750Y0052600D01*
X0729550Y0052600D01*
X0729550Y0057600D01*
X0731750Y0057600D01*
X0730950Y0057600D02*
X0730950Y0052600D01*
X0730150Y0052600D02*
X0730150Y0057600D01*
X0728600Y0057600D02*
X0728600Y0052600D01*
X0726400Y0052600D01*
X0726400Y0057600D01*
X0728600Y0057600D01*
X0727800Y0057600D02*
X0727800Y0052600D01*
X0727000Y0052600D02*
X0727000Y0057600D01*
X0725450Y0057600D02*
X0725450Y0052600D01*
X0723250Y0052600D01*
X0723250Y0057600D01*
X0725450Y0057600D01*
X0724650Y0057600D02*
X0724650Y0052600D01*
X0723850Y0052600D02*
X0723850Y0057600D01*
X0722300Y0057600D02*
X0722300Y0052600D01*
X0720100Y0052600D01*
X0720100Y0057600D01*
X0722300Y0057600D01*
X0721500Y0057600D02*
X0721500Y0052600D01*
X0720700Y0052600D02*
X0720700Y0057600D01*
X0719150Y0057600D02*
X0719150Y0052600D01*
X0716950Y0052600D01*
X0716950Y0057600D01*
X0719150Y0057600D01*
X0718350Y0057600D02*
X0718350Y0052600D01*
X0717550Y0052600D02*
X0717550Y0057600D01*
X0716000Y0057600D02*
X0716000Y0052600D01*
X0713800Y0052600D01*
X0713800Y0057600D01*
X0716000Y0057600D01*
X0715200Y0057600D02*
X0715200Y0052600D01*
X0714400Y0052600D02*
X0714400Y0057600D01*
X0712850Y0057600D02*
X0712850Y0052600D01*
X0710650Y0052600D01*
X0710650Y0057600D01*
X0712850Y0057600D01*
X0712050Y0057600D02*
X0712050Y0052600D01*
X0711250Y0052600D02*
X0711250Y0057600D01*
X0709700Y0057600D02*
X0709700Y0052600D01*
X0707500Y0052600D01*
X0707500Y0057600D01*
X0709700Y0057600D01*
X0708900Y0057600D02*
X0708900Y0052600D01*
X0708100Y0052600D02*
X0708100Y0057600D01*
X0705220Y0059880D02*
X0705220Y0062080D01*
X0705220Y0059880D02*
X0700220Y0059880D01*
X0700220Y0062080D01*
X0705220Y0062080D01*
X0704420Y0062080D02*
X0704420Y0059880D01*
X0703620Y0059880D02*
X0703620Y0062080D01*
X0702820Y0062080D02*
X0702820Y0059880D01*
X0702020Y0059880D02*
X0702020Y0062080D01*
X0701220Y0062080D02*
X0701220Y0059880D01*
X0700420Y0059880D02*
X0700420Y0062080D01*
X0705220Y0063030D02*
X0705220Y0065230D01*
X0705220Y0063030D02*
X0700220Y0063030D01*
X0700220Y0065230D01*
X0705220Y0065230D01*
X0704420Y0065230D02*
X0704420Y0063030D01*
X0703620Y0063030D02*
X0703620Y0065230D01*
X0702820Y0065230D02*
X0702820Y0063030D01*
X0702020Y0063030D02*
X0702020Y0065230D01*
X0701220Y0065230D02*
X0701220Y0063030D01*
X0700420Y0063030D02*
X0700420Y0065230D01*
X0705220Y0066180D02*
X0705220Y0068380D01*
X0705220Y0066180D02*
X0700220Y0066180D01*
X0700220Y0068380D01*
X0705220Y0068380D01*
X0704420Y0068380D02*
X0704420Y0066180D01*
X0703620Y0066180D02*
X0703620Y0068380D01*
X0702820Y0068380D02*
X0702820Y0066180D01*
X0702020Y0066180D02*
X0702020Y0068380D01*
X0701220Y0068380D02*
X0701220Y0066180D01*
X0700420Y0066180D02*
X0700420Y0068380D01*
D48*
X0758520Y0028030D02*
X0758520Y0022130D01*
X0758520Y0028030D02*
X0760480Y0028030D01*
X0760480Y0022130D01*
X0758520Y0022130D01*
X0759690Y0022130D02*
X0759690Y0028030D01*
X0758900Y0028030D02*
X0758900Y0022130D01*
X0742770Y0022130D02*
X0742770Y0028030D01*
X0744730Y0028030D01*
X0744730Y0022130D01*
X0742770Y0022130D01*
X0743940Y0022130D02*
X0743940Y0028030D01*
X0743150Y0028030D02*
X0743150Y0022130D01*
X0738520Y0022130D02*
X0738520Y0028030D01*
X0740480Y0028030D01*
X0740480Y0022130D01*
X0738520Y0022130D01*
X0739690Y0022130D02*
X0739690Y0028030D01*
X0738900Y0028030D02*
X0738900Y0022130D01*
X0722770Y0022130D02*
X0722770Y0028030D01*
X0724730Y0028030D01*
X0724730Y0022130D01*
X0722770Y0022130D01*
X0723940Y0022130D02*
X0723940Y0028030D01*
X0723150Y0028030D02*
X0723150Y0022130D01*
X0718520Y0022130D02*
X0718520Y0028030D01*
X0720480Y0028030D01*
X0720480Y0022130D01*
X0718520Y0022130D01*
X0719690Y0022130D02*
X0719690Y0028030D01*
X0718900Y0028030D02*
X0718900Y0022130D01*
X0702770Y0022130D02*
X0702770Y0028030D01*
X0704730Y0028030D01*
X0704730Y0022130D01*
X0702770Y0022130D01*
X0703940Y0022130D02*
X0703940Y0028030D01*
X0703150Y0028030D02*
X0703150Y0022130D01*
X0698520Y0022130D02*
X0698520Y0028030D01*
X0700480Y0028030D01*
X0700480Y0022130D01*
X0698520Y0022130D01*
X0699690Y0022130D02*
X0699690Y0028030D01*
X0698900Y0028030D02*
X0698900Y0022130D01*
X0682770Y0022130D02*
X0682770Y0028030D01*
X0684730Y0028030D01*
X0684730Y0022130D01*
X0682770Y0022130D01*
X0683940Y0022130D02*
X0683940Y0028030D01*
X0683150Y0028030D02*
X0683150Y0022130D01*
X0669550Y0022190D02*
X0669550Y0028090D01*
X0671510Y0028090D01*
X0671510Y0022190D01*
X0669550Y0022190D01*
X0670720Y0022190D02*
X0670720Y0028090D01*
X0669930Y0028090D02*
X0669930Y0022190D01*
X0657740Y0022190D02*
X0657740Y0028090D01*
X0659700Y0028090D01*
X0659700Y0022190D01*
X0657740Y0022190D01*
X0658910Y0022190D02*
X0658910Y0028090D01*
X0658120Y0028090D02*
X0658120Y0022190D01*
X0656710Y0116080D02*
X0650810Y0116080D01*
X0656710Y0116080D02*
X0656710Y0114120D01*
X0650810Y0114120D01*
X0650810Y0116080D01*
X0655920Y0116080D02*
X0655920Y0114120D01*
X0655130Y0114120D02*
X0655130Y0116080D01*
X0654340Y0116080D02*
X0654340Y0114120D01*
X0653550Y0114120D02*
X0653550Y0116080D01*
X0652760Y0116080D02*
X0652760Y0114120D01*
X0651970Y0114120D02*
X0651970Y0116080D01*
X0651180Y0116080D02*
X0651180Y0114120D01*
X0650810Y0127890D02*
X0656710Y0127890D01*
X0656710Y0125930D01*
X0650810Y0125930D01*
X0650810Y0127890D01*
X0655920Y0127890D02*
X0655920Y0125930D01*
X0655130Y0125930D02*
X0655130Y0127890D01*
X0654340Y0127890D02*
X0654340Y0125930D01*
X0653550Y0125930D02*
X0653550Y0127890D01*
X0652760Y0127890D02*
X0652760Y0125930D01*
X0651970Y0125930D02*
X0651970Y0127890D01*
X0651180Y0127890D02*
X0651180Y0125930D01*
X0650810Y0139080D02*
X0656710Y0139080D01*
X0656710Y0137120D01*
X0650810Y0137120D01*
X0650810Y0139080D01*
X0655920Y0139080D02*
X0655920Y0137120D01*
X0655130Y0137120D02*
X0655130Y0139080D01*
X0654340Y0139080D02*
X0654340Y0137120D01*
X0653550Y0137120D02*
X0653550Y0139080D01*
X0652760Y0139080D02*
X0652760Y0137120D01*
X0651970Y0137120D02*
X0651970Y0139080D01*
X0651180Y0139080D02*
X0651180Y0137120D01*
X0650810Y0150890D02*
X0656710Y0150890D01*
X0656710Y0148930D01*
X0650810Y0148930D01*
X0650810Y0150890D01*
X0655920Y0150890D02*
X0655920Y0148930D01*
X0655130Y0148930D02*
X0655130Y0150890D01*
X0654340Y0150890D02*
X0654340Y0148930D01*
X0653550Y0148930D02*
X0653550Y0150890D01*
X0652760Y0150890D02*
X0652760Y0148930D01*
X0651970Y0148930D02*
X0651970Y0150890D01*
X0651180Y0150890D02*
X0651180Y0148930D01*
D102*
X0666140Y0145550D02*
X0670920Y0145550D01*
X0666140Y0145550D02*
X0666140Y0146390D01*
X0670920Y0146390D01*
X0670920Y0145550D01*
X0670110Y0145550D02*
X0670110Y0146390D01*
X0669300Y0146390D02*
X0669300Y0145550D01*
X0668490Y0145550D02*
X0668490Y0146390D01*
X0667680Y0146390D02*
X0667680Y0145550D01*
X0666870Y0145550D02*
X0666870Y0146390D01*
X0666140Y0141610D02*
X0670920Y0141610D01*
X0666140Y0141610D02*
X0666140Y0142450D01*
X0670920Y0142450D01*
X0670920Y0141610D01*
X0670110Y0141610D02*
X0670110Y0142450D01*
X0669300Y0142450D02*
X0669300Y0141610D01*
X0668490Y0141610D02*
X0668490Y0142450D01*
X0667680Y0142450D02*
X0667680Y0141610D01*
X0666870Y0141610D02*
X0666870Y0142450D01*
X0666140Y0122550D02*
X0670920Y0122550D01*
X0666140Y0122550D02*
X0666140Y0123390D01*
X0670920Y0123390D01*
X0670920Y0122550D01*
X0670110Y0122550D02*
X0670110Y0123390D01*
X0669300Y0123390D02*
X0669300Y0122550D01*
X0668490Y0122550D02*
X0668490Y0123390D01*
X0667680Y0123390D02*
X0667680Y0122550D01*
X0666870Y0122550D02*
X0666870Y0123390D01*
X0666140Y0118610D02*
X0670920Y0118610D01*
X0666140Y0118610D02*
X0666140Y0119450D01*
X0670920Y0119450D01*
X0670920Y0118610D01*
X0670110Y0118610D02*
X0670110Y0119450D01*
X0669300Y0119450D02*
X0669300Y0118610D01*
X0668490Y0118610D02*
X0668490Y0119450D01*
X0667680Y0119450D02*
X0667680Y0118610D01*
X0666870Y0118610D02*
X0666870Y0119450D01*
X0667010Y0042300D02*
X0667010Y0037520D01*
X0666170Y0037520D01*
X0666170Y0042300D01*
X0667010Y0042300D01*
X0666200Y0042300D02*
X0666200Y0037520D01*
X0663070Y0037520D02*
X0663070Y0042300D01*
X0663070Y0037520D02*
X0662230Y0037520D01*
X0662230Y0042300D01*
X0663070Y0042300D01*
X0662260Y0042300D02*
X0662260Y0037520D01*
X0687270Y0036390D02*
X0687270Y0031490D01*
X0687270Y0036390D02*
X0688110Y0036390D01*
X0688110Y0031490D01*
X0687270Y0031490D01*
X0687300Y0031490D02*
X0687300Y0036390D01*
X0691200Y0036390D02*
X0691200Y0031490D01*
X0691200Y0036390D02*
X0692040Y0036390D01*
X0692040Y0031490D01*
X0691200Y0031490D01*
X0691230Y0031490D02*
X0691230Y0036390D01*
X0695140Y0036390D02*
X0695140Y0031490D01*
X0695140Y0036390D02*
X0695980Y0036390D01*
X0695980Y0031490D01*
X0695140Y0031490D01*
X0695170Y0031490D02*
X0695170Y0036390D01*
X0707270Y0036390D02*
X0707270Y0031490D01*
X0707270Y0036390D02*
X0708110Y0036390D01*
X0708110Y0031490D01*
X0707270Y0031490D01*
X0707300Y0031490D02*
X0707300Y0036390D01*
X0711200Y0036390D02*
X0711200Y0031490D01*
X0711200Y0036390D02*
X0712040Y0036390D01*
X0712040Y0031490D01*
X0711200Y0031490D01*
X0711230Y0031490D02*
X0711230Y0036390D01*
X0715140Y0036390D02*
X0715140Y0031490D01*
X0715140Y0036390D02*
X0715980Y0036390D01*
X0715980Y0031490D01*
X0715140Y0031490D01*
X0715170Y0031490D02*
X0715170Y0036390D01*
X0727270Y0036390D02*
X0727270Y0031490D01*
X0727270Y0036390D02*
X0728110Y0036390D01*
X0728110Y0031490D01*
X0727270Y0031490D01*
X0727300Y0031490D02*
X0727300Y0036390D01*
X0731200Y0036390D02*
X0731200Y0031490D01*
X0731200Y0036390D02*
X0732040Y0036390D01*
X0732040Y0031490D01*
X0731200Y0031490D01*
X0731230Y0031490D02*
X0731230Y0036390D01*
X0735140Y0036390D02*
X0735140Y0031490D01*
X0735140Y0036390D02*
X0735980Y0036390D01*
X0735980Y0031490D01*
X0735140Y0031490D01*
X0735170Y0031490D02*
X0735170Y0036390D01*
X0747270Y0036390D02*
X0747270Y0031490D01*
X0747270Y0036390D02*
X0748110Y0036390D01*
X0748110Y0031490D01*
X0747270Y0031490D01*
X0747300Y0031490D02*
X0747300Y0036390D01*
X0751200Y0036390D02*
X0751200Y0031490D01*
X0751200Y0036390D02*
X0752040Y0036390D01*
X0752040Y0031490D01*
X0751200Y0031490D01*
X0751230Y0031490D02*
X0751230Y0036390D01*
X0755140Y0036390D02*
X0755140Y0031490D01*
X0755140Y0036390D02*
X0755980Y0036390D01*
X0755980Y0031490D01*
X0755140Y0031490D01*
X0755170Y0031490D02*
X0755170Y0036390D01*
D75*
X0670730Y0046650D02*
X0667610Y0046650D01*
X0667610Y0051350D01*
X0670730Y0051350D01*
X0670730Y0046650D01*
X0669910Y0046650D02*
X0669910Y0051350D01*
X0669090Y0051350D02*
X0669090Y0046650D01*
X0668270Y0046650D02*
X0668270Y0051350D01*
X0663640Y0046650D02*
X0660520Y0046650D01*
X0660520Y0051350D01*
X0663640Y0051350D01*
X0663640Y0046650D01*
X0662820Y0046650D02*
X0662820Y0051350D01*
X0662000Y0051350D02*
X0662000Y0046650D01*
X0661180Y0046650D02*
X0661180Y0051350D01*
X0655970Y0064900D02*
X0655970Y0068020D01*
X0655970Y0064900D02*
X0651270Y0064900D01*
X0651270Y0068020D01*
X0655970Y0068020D01*
X0655150Y0068020D02*
X0655150Y0064900D01*
X0654330Y0064900D02*
X0654330Y0068020D01*
X0653510Y0068020D02*
X0653510Y0064900D01*
X0652690Y0064900D02*
X0652690Y0068020D01*
X0651870Y0068020D02*
X0651870Y0064900D01*
X0655970Y0071990D02*
X0655970Y0075110D01*
X0655970Y0071990D02*
X0651270Y0071990D01*
X0651270Y0075110D01*
X0655970Y0075110D01*
X0655150Y0075110D02*
X0655150Y0071990D01*
X0654330Y0071990D02*
X0654330Y0075110D01*
X0653510Y0075110D02*
X0653510Y0071990D01*
X0652690Y0071990D02*
X0652690Y0075110D01*
X0651870Y0075110D02*
X0651870Y0071990D01*
X0651270Y0079900D02*
X0651270Y0083020D01*
X0655970Y0083020D01*
X0655970Y0079900D01*
X0651270Y0079900D01*
X0655150Y0079900D02*
X0655150Y0083020D01*
X0654330Y0083020D02*
X0654330Y0079900D01*
X0653510Y0079900D02*
X0653510Y0083020D01*
X0652690Y0083020D02*
X0652690Y0079900D01*
X0651870Y0079900D02*
X0651870Y0083020D01*
X0651270Y0086990D02*
X0651270Y0090110D01*
X0655970Y0090110D01*
X0655970Y0086990D01*
X0651270Y0086990D01*
X0655150Y0086990D02*
X0655150Y0090110D01*
X0654330Y0090110D02*
X0654330Y0086990D01*
X0653510Y0086990D02*
X0653510Y0090110D01*
X0652690Y0090110D02*
X0652690Y0086990D01*
X0651870Y0086990D02*
X0651870Y0090110D01*
X0651270Y0094900D02*
X0651270Y0098020D01*
X0655970Y0098020D01*
X0655970Y0094900D01*
X0651270Y0094900D01*
X0655150Y0094900D02*
X0655150Y0098020D01*
X0654330Y0098020D02*
X0654330Y0094900D01*
X0653510Y0094900D02*
X0653510Y0098020D01*
X0652690Y0098020D02*
X0652690Y0094900D01*
X0651870Y0094900D02*
X0651870Y0098020D01*
X0651270Y0101990D02*
X0651270Y0105110D01*
X0655970Y0105110D01*
X0655970Y0101990D01*
X0651270Y0101990D01*
X0655150Y0101990D02*
X0655150Y0105110D01*
X0654330Y0105110D02*
X0654330Y0101990D01*
X0653510Y0101990D02*
X0653510Y0105110D01*
X0652690Y0105110D02*
X0652690Y0101990D01*
X0651870Y0101990D02*
X0651870Y0105110D01*
D55*
X0753620Y0103000D02*
X0759620Y0103000D01*
X0759620Y0093000D02*
X0753620Y0093000D01*
X0753620Y0083000D02*
X0759620Y0083000D01*
X0759620Y0073000D02*
X0753620Y0073000D01*
X0753620Y0063000D02*
X0759620Y0063000D01*
X0759620Y0053000D02*
X0753620Y0053000D01*
D100*
X0755620Y0044800D03*
X0740420Y0051200D03*
X0743620Y0066400D03*
X0730820Y0071200D03*
X0722020Y0068000D03*
X0717220Y0068000D03*
X0718620Y0061800D03*
X0711620Y0049600D03*
X0719820Y0034000D03*
X0698820Y0036000D03*
X0692020Y0027800D03*
X0698820Y0056800D03*
X0693220Y0064800D03*
X0697220Y0068000D03*
X0718020Y0076800D03*
X0729220Y0083200D03*
X0707620Y0101600D03*
X0700420Y0095200D03*
X0704420Y0092000D03*
X0697220Y0101600D03*
X0708420Y0119200D03*
X0698020Y0127200D03*
X0691620Y0125600D03*
X0695620Y0137600D03*
X0701220Y0137600D03*
X0722820Y0116000D03*
X0733220Y0135400D03*
X0727420Y0138400D03*
X0680220Y0111200D03*
X0648660Y0158700D02*
G75*
%LPD*%
D102*
X0741790Y0251570D02*
X0739450Y0251570D01*
X0741790Y0251570D02*
X0741790Y0243330D01*
X0739450Y0243330D01*
X0739450Y0251570D01*
X0740980Y0251570D02*
X0740980Y0243330D01*
X0740170Y0243330D02*
X0740170Y0251570D01*
X0736790Y0251570D02*
X0734450Y0251570D01*
X0736790Y0251570D02*
X0736790Y0243330D01*
X0734450Y0243330D01*
X0734450Y0251570D01*
X0735980Y0251570D02*
X0735980Y0243330D01*
X0735170Y0243330D02*
X0735170Y0251570D01*
X0731790Y0251570D02*
X0729450Y0251570D01*
X0731790Y0251570D02*
X0731790Y0243330D01*
X0729450Y0243330D01*
X0729450Y0251570D01*
X0730980Y0251570D02*
X0730980Y0243330D01*
X0730170Y0243330D02*
X0730170Y0251570D01*
X0726790Y0251570D02*
X0724450Y0251570D01*
X0726790Y0251570D02*
X0726790Y0243330D01*
X0724450Y0243330D01*
X0724450Y0251570D01*
X0725980Y0251570D02*
X0725980Y0243330D01*
X0725170Y0243330D02*
X0725170Y0251570D01*
X0721790Y0251570D02*
X0719450Y0251570D01*
X0721790Y0251570D02*
X0721790Y0243330D01*
X0719450Y0243330D01*
X0719450Y0251570D01*
X0720980Y0251570D02*
X0720980Y0243330D01*
X0720170Y0243330D02*
X0720170Y0251570D01*
X0716790Y0251570D02*
X0714450Y0251570D01*
X0716790Y0251570D02*
X0716790Y0243330D01*
X0714450Y0243330D01*
X0714450Y0251570D01*
X0715980Y0251570D02*
X0715980Y0243330D01*
X0715170Y0243330D02*
X0715170Y0251570D01*
X0711790Y0251570D02*
X0709450Y0251570D01*
X0711790Y0251570D02*
X0711790Y0243330D01*
X0709450Y0243330D01*
X0709450Y0251570D01*
X0710980Y0251570D02*
X0710980Y0243330D01*
X0710170Y0243330D02*
X0710170Y0251570D01*
X0706790Y0251570D02*
X0704450Y0251570D01*
X0706790Y0251570D02*
X0706790Y0243330D01*
X0704450Y0243330D01*
X0704450Y0251570D01*
X0705980Y0251570D02*
X0705980Y0243330D01*
X0705170Y0243330D02*
X0705170Y0251570D01*
X0701790Y0251570D02*
X0699450Y0251570D01*
X0701790Y0251570D02*
X0701790Y0243330D01*
X0699450Y0243330D01*
X0699450Y0251570D01*
X0700980Y0251570D02*
X0700980Y0243330D01*
X0700170Y0243330D02*
X0700170Y0251570D01*
X0696790Y0251570D02*
X0694450Y0251570D01*
X0696790Y0251570D02*
X0696790Y0243330D01*
X0694450Y0243330D01*
X0694450Y0251570D01*
X0695980Y0251570D02*
X0695980Y0243330D01*
X0695170Y0243330D02*
X0695170Y0251570D01*
X0679540Y0237370D02*
X0679540Y0235030D01*
X0679540Y0237370D02*
X0688180Y0237370D01*
X0688180Y0235030D01*
X0679540Y0235030D01*
X0687370Y0235030D02*
X0687370Y0237370D01*
X0686560Y0237370D02*
X0686560Y0235030D01*
X0685750Y0235030D02*
X0685750Y0237370D01*
X0684940Y0237370D02*
X0684940Y0235030D01*
X0684130Y0235030D02*
X0684130Y0237370D01*
X0683320Y0237370D02*
X0683320Y0235030D01*
X0682510Y0235030D02*
X0682510Y0237370D01*
X0681700Y0237370D02*
X0681700Y0235030D01*
X0680890Y0235030D02*
X0680890Y0237370D01*
X0680080Y0237370D02*
X0680080Y0235030D01*
X0679540Y0232370D02*
X0679540Y0230030D01*
X0679540Y0232370D02*
X0688180Y0232370D01*
X0688180Y0230030D01*
X0679540Y0230030D01*
X0687370Y0230030D02*
X0687370Y0232370D01*
X0686560Y0232370D02*
X0686560Y0230030D01*
X0685750Y0230030D02*
X0685750Y0232370D01*
X0684940Y0232370D02*
X0684940Y0230030D01*
X0684130Y0230030D02*
X0684130Y0232370D01*
X0683320Y0232370D02*
X0683320Y0230030D01*
X0682510Y0230030D02*
X0682510Y0232370D01*
X0681700Y0232370D02*
X0681700Y0230030D01*
X0680890Y0230030D02*
X0680890Y0232370D01*
X0680080Y0232370D02*
X0680080Y0230030D01*
X0679540Y0227370D02*
X0679540Y0225030D01*
X0679540Y0227370D02*
X0688180Y0227370D01*
X0688180Y0225030D01*
X0679540Y0225030D01*
X0687370Y0225030D02*
X0687370Y0227370D01*
X0686560Y0227370D02*
X0686560Y0225030D01*
X0685750Y0225030D02*
X0685750Y0227370D01*
X0684940Y0227370D02*
X0684940Y0225030D01*
X0684130Y0225030D02*
X0684130Y0227370D01*
X0683320Y0227370D02*
X0683320Y0225030D01*
X0682510Y0225030D02*
X0682510Y0227370D01*
X0681700Y0227370D02*
X0681700Y0225030D01*
X0680890Y0225030D02*
X0680890Y0227370D01*
X0680080Y0227370D02*
X0680080Y0225030D01*
X0679540Y0222370D02*
X0679540Y0220030D01*
X0679540Y0222370D02*
X0688180Y0222370D01*
X0688180Y0220030D01*
X0679540Y0220030D01*
X0687370Y0220030D02*
X0687370Y0222370D01*
X0686560Y0222370D02*
X0686560Y0220030D01*
X0685750Y0220030D02*
X0685750Y0222370D01*
X0684940Y0222370D02*
X0684940Y0220030D01*
X0684130Y0220030D02*
X0684130Y0222370D01*
X0683320Y0222370D02*
X0683320Y0220030D01*
X0682510Y0220030D02*
X0682510Y0222370D01*
X0681700Y0222370D02*
X0681700Y0220030D01*
X0680890Y0220030D02*
X0680890Y0222370D01*
X0680080Y0222370D02*
X0680080Y0220030D01*
X0659070Y0220030D02*
X0659070Y0222370D01*
X0667710Y0222370D01*
X0667710Y0220030D01*
X0659070Y0220030D01*
X0666900Y0220030D02*
X0666900Y0222370D01*
X0666090Y0222370D02*
X0666090Y0220030D01*
X0665280Y0220030D02*
X0665280Y0222370D01*
X0664470Y0222370D02*
X0664470Y0220030D01*
X0663660Y0220030D02*
X0663660Y0222370D01*
X0662850Y0222370D02*
X0662850Y0220030D01*
X0662040Y0220030D02*
X0662040Y0222370D01*
X0661230Y0222370D02*
X0661230Y0220030D01*
X0660420Y0220030D02*
X0660420Y0222370D01*
X0659610Y0222370D02*
X0659610Y0220030D01*
X0659070Y0225030D02*
X0659070Y0227370D01*
X0667710Y0227370D01*
X0667710Y0225030D01*
X0659070Y0225030D01*
X0666900Y0225030D02*
X0666900Y0227370D01*
X0666090Y0227370D02*
X0666090Y0225030D01*
X0665280Y0225030D02*
X0665280Y0227370D01*
X0664470Y0227370D02*
X0664470Y0225030D01*
X0663660Y0225030D02*
X0663660Y0227370D01*
X0662850Y0227370D02*
X0662850Y0225030D01*
X0662040Y0225030D02*
X0662040Y0227370D01*
X0661230Y0227370D02*
X0661230Y0225030D01*
X0660420Y0225030D02*
X0660420Y0227370D01*
X0659610Y0227370D02*
X0659610Y0225030D01*
X0659070Y0230030D02*
X0659070Y0232370D01*
X0667710Y0232370D01*
X0667710Y0230030D01*
X0659070Y0230030D01*
X0666900Y0230030D02*
X0666900Y0232370D01*
X0666090Y0232370D02*
X0666090Y0230030D01*
X0665280Y0230030D02*
X0665280Y0232370D01*
X0664470Y0232370D02*
X0664470Y0230030D01*
X0663660Y0230030D02*
X0663660Y0232370D01*
X0662850Y0232370D02*
X0662850Y0230030D01*
X0662040Y0230030D02*
X0662040Y0232370D01*
X0661230Y0232370D02*
X0661230Y0230030D01*
X0660420Y0230030D02*
X0660420Y0232370D01*
X0659610Y0232370D02*
X0659610Y0230030D01*
X0659070Y0235030D02*
X0659070Y0237370D01*
X0667710Y0237370D01*
X0667710Y0235030D01*
X0659070Y0235030D01*
X0666900Y0235030D02*
X0666900Y0237370D01*
X0666090Y0237370D02*
X0666090Y0235030D01*
X0665280Y0235030D02*
X0665280Y0237370D01*
X0664470Y0237370D02*
X0664470Y0235030D01*
X0663660Y0235030D02*
X0663660Y0237370D01*
X0662850Y0237370D02*
X0662850Y0235030D01*
X0662040Y0235030D02*
X0662040Y0237370D01*
X0661230Y0237370D02*
X0661230Y0235030D01*
X0660420Y0235030D02*
X0660420Y0237370D01*
X0659610Y0237370D02*
X0659610Y0235030D01*
X0694450Y0288070D02*
X0696790Y0288070D01*
X0696790Y0279830D01*
X0694450Y0279830D01*
X0694450Y0288070D01*
X0695980Y0288070D02*
X0695980Y0279830D01*
X0695170Y0279830D02*
X0695170Y0288070D01*
X0699450Y0288070D02*
X0701790Y0288070D01*
X0701790Y0279830D01*
X0699450Y0279830D01*
X0699450Y0288070D01*
X0700980Y0288070D02*
X0700980Y0279830D01*
X0700170Y0279830D02*
X0700170Y0288070D01*
X0704450Y0288070D02*
X0706790Y0288070D01*
X0706790Y0279830D01*
X0704450Y0279830D01*
X0704450Y0288070D01*
X0705980Y0288070D02*
X0705980Y0279830D01*
X0705170Y0279830D02*
X0705170Y0288070D01*
X0709450Y0288070D02*
X0711790Y0288070D01*
X0711790Y0279830D01*
X0709450Y0279830D01*
X0709450Y0288070D01*
X0710980Y0288070D02*
X0710980Y0279830D01*
X0710170Y0279830D02*
X0710170Y0288070D01*
X0714450Y0288070D02*
X0716790Y0288070D01*
X0716790Y0279830D01*
X0714450Y0279830D01*
X0714450Y0288070D01*
X0715980Y0288070D02*
X0715980Y0279830D01*
X0715170Y0279830D02*
X0715170Y0288070D01*
X0719450Y0288070D02*
X0721790Y0288070D01*
X0721790Y0279830D01*
X0719450Y0279830D01*
X0719450Y0288070D01*
X0720980Y0288070D02*
X0720980Y0279830D01*
X0720170Y0279830D02*
X0720170Y0288070D01*
X0724450Y0288070D02*
X0726790Y0288070D01*
X0726790Y0279830D01*
X0724450Y0279830D01*
X0724450Y0288070D01*
X0725980Y0288070D02*
X0725980Y0279830D01*
X0725170Y0279830D02*
X0725170Y0288070D01*
X0729450Y0288070D02*
X0731790Y0288070D01*
X0731790Y0279830D01*
X0729450Y0279830D01*
X0729450Y0288070D01*
X0730980Y0288070D02*
X0730980Y0279830D01*
X0730170Y0279830D02*
X0730170Y0288070D01*
X0734450Y0288070D02*
X0736790Y0288070D01*
X0736790Y0279830D01*
X0734450Y0279830D01*
X0734450Y0288070D01*
X0735980Y0288070D02*
X0735980Y0279830D01*
X0735170Y0279830D02*
X0735170Y0288070D01*
X0739450Y0288070D02*
X0741790Y0288070D01*
X0741790Y0279830D01*
X0739450Y0279830D01*
X0739450Y0288070D01*
X0740980Y0288070D02*
X0740980Y0279830D01*
X0740170Y0279830D02*
X0740170Y0288070D01*
D48*
X0688270Y0212400D02*
X0688270Y0210000D01*
X0679570Y0210000D01*
X0679570Y0212400D01*
X0688270Y0212400D01*
X0687480Y0212400D02*
X0687480Y0210000D01*
X0686690Y0210000D02*
X0686690Y0212400D01*
X0685900Y0212400D02*
X0685900Y0210000D01*
X0685110Y0210000D02*
X0685110Y0212400D01*
X0684320Y0212400D02*
X0684320Y0210000D01*
X0683530Y0210000D02*
X0683530Y0212400D01*
X0682740Y0212400D02*
X0682740Y0210000D01*
X0681950Y0210000D02*
X0681950Y0212400D01*
X0681160Y0212400D02*
X0681160Y0210000D01*
X0680370Y0210000D02*
X0680370Y0212400D01*
X0679580Y0212400D02*
X0679580Y0210000D01*
X0688270Y0207400D02*
X0688270Y0205000D01*
X0679570Y0205000D01*
X0679570Y0207400D01*
X0688270Y0207400D01*
X0687480Y0207400D02*
X0687480Y0205000D01*
X0686690Y0205000D02*
X0686690Y0207400D01*
X0685900Y0207400D02*
X0685900Y0205000D01*
X0685110Y0205000D02*
X0685110Y0207400D01*
X0684320Y0207400D02*
X0684320Y0205000D01*
X0683530Y0205000D02*
X0683530Y0207400D01*
X0682740Y0207400D02*
X0682740Y0205000D01*
X0681950Y0205000D02*
X0681950Y0207400D01*
X0681160Y0207400D02*
X0681160Y0205000D01*
X0680370Y0205000D02*
X0680370Y0207400D01*
X0679580Y0207400D02*
X0679580Y0205000D01*
X0688270Y0202400D02*
X0688270Y0200000D01*
X0679570Y0200000D01*
X0679570Y0202400D01*
X0688270Y0202400D01*
X0687480Y0202400D02*
X0687480Y0200000D01*
X0686690Y0200000D02*
X0686690Y0202400D01*
X0685900Y0202400D02*
X0685900Y0200000D01*
X0685110Y0200000D02*
X0685110Y0202400D01*
X0684320Y0202400D02*
X0684320Y0200000D01*
X0683530Y0200000D02*
X0683530Y0202400D01*
X0682740Y0202400D02*
X0682740Y0200000D01*
X0681950Y0200000D02*
X0681950Y0202400D01*
X0681160Y0202400D02*
X0681160Y0200000D01*
X0680370Y0200000D02*
X0680370Y0202400D01*
X0679580Y0202400D02*
X0679580Y0200000D01*
X0688270Y0197400D02*
X0688270Y0195000D01*
X0679570Y0195000D01*
X0679570Y0197400D01*
X0688270Y0197400D01*
X0687480Y0197400D02*
X0687480Y0195000D01*
X0686690Y0195000D02*
X0686690Y0197400D01*
X0685900Y0197400D02*
X0685900Y0195000D01*
X0685110Y0195000D02*
X0685110Y0197400D01*
X0684320Y0197400D02*
X0684320Y0195000D01*
X0683530Y0195000D02*
X0683530Y0197400D01*
X0682740Y0197400D02*
X0682740Y0195000D01*
X0681950Y0195000D02*
X0681950Y0197400D01*
X0681160Y0197400D02*
X0681160Y0195000D01*
X0680370Y0195000D02*
X0680370Y0197400D01*
X0679580Y0197400D02*
X0679580Y0195000D01*
X0667670Y0195000D02*
X0667670Y0197400D01*
X0667670Y0195000D02*
X0658970Y0195000D01*
X0658970Y0197400D01*
X0667670Y0197400D01*
X0666880Y0197400D02*
X0666880Y0195000D01*
X0666090Y0195000D02*
X0666090Y0197400D01*
X0665300Y0197400D02*
X0665300Y0195000D01*
X0664510Y0195000D02*
X0664510Y0197400D01*
X0663720Y0197400D02*
X0663720Y0195000D01*
X0662930Y0195000D02*
X0662930Y0197400D01*
X0662140Y0197400D02*
X0662140Y0195000D01*
X0661350Y0195000D02*
X0661350Y0197400D01*
X0660560Y0197400D02*
X0660560Y0195000D01*
X0659770Y0195000D02*
X0659770Y0197400D01*
X0658980Y0197400D02*
X0658980Y0195000D01*
X0667670Y0200000D02*
X0667670Y0202400D01*
X0667670Y0200000D02*
X0658970Y0200000D01*
X0658970Y0202400D01*
X0667670Y0202400D01*
X0666880Y0202400D02*
X0666880Y0200000D01*
X0666090Y0200000D02*
X0666090Y0202400D01*
X0665300Y0202400D02*
X0665300Y0200000D01*
X0664510Y0200000D02*
X0664510Y0202400D01*
X0663720Y0202400D02*
X0663720Y0200000D01*
X0662930Y0200000D02*
X0662930Y0202400D01*
X0662140Y0202400D02*
X0662140Y0200000D01*
X0661350Y0200000D02*
X0661350Y0202400D01*
X0660560Y0202400D02*
X0660560Y0200000D01*
X0659770Y0200000D02*
X0659770Y0202400D01*
X0658980Y0202400D02*
X0658980Y0200000D01*
X0667670Y0205000D02*
X0667670Y0207400D01*
X0667670Y0205000D02*
X0658970Y0205000D01*
X0658970Y0207400D01*
X0667670Y0207400D01*
X0666880Y0207400D02*
X0666880Y0205000D01*
X0666090Y0205000D02*
X0666090Y0207400D01*
X0665300Y0207400D02*
X0665300Y0205000D01*
X0664510Y0205000D02*
X0664510Y0207400D01*
X0663720Y0207400D02*
X0663720Y0205000D01*
X0662930Y0205000D02*
X0662930Y0207400D01*
X0662140Y0207400D02*
X0662140Y0205000D01*
X0661350Y0205000D02*
X0661350Y0207400D01*
X0660560Y0207400D02*
X0660560Y0205000D01*
X0659770Y0205000D02*
X0659770Y0207400D01*
X0658980Y0207400D02*
X0658980Y0205000D01*
X0667670Y0210000D02*
X0667670Y0212400D01*
X0667670Y0210000D02*
X0658970Y0210000D01*
X0658970Y0212400D01*
X0667670Y0212400D01*
X0666880Y0212400D02*
X0666880Y0210000D01*
X0666090Y0210000D02*
X0666090Y0212400D01*
X0665300Y0212400D02*
X0665300Y0210000D01*
X0664510Y0210000D02*
X0664510Y0212400D01*
X0663720Y0212400D02*
X0663720Y0210000D01*
X0662930Y0210000D02*
X0662930Y0212400D01*
X0662140Y0212400D02*
X0662140Y0210000D01*
X0661350Y0210000D02*
X0661350Y0212400D01*
X0660560Y0212400D02*
X0660560Y0210000D01*
X0659770Y0210000D02*
X0659770Y0212400D01*
X0658980Y0212400D02*
X0658980Y0210000D01*
D26*
X0705220Y0210230D02*
X0705220Y0208030D01*
X0700220Y0208030D01*
X0700220Y0210230D01*
X0705220Y0210230D01*
X0704420Y0210230D02*
X0704420Y0208030D01*
X0703620Y0208030D02*
X0703620Y0210230D01*
X0702820Y0210230D02*
X0702820Y0208030D01*
X0702020Y0208030D02*
X0702020Y0210230D01*
X0701220Y0210230D02*
X0701220Y0208030D01*
X0700420Y0208030D02*
X0700420Y0210230D01*
X0705220Y0211180D02*
X0705220Y0213380D01*
X0705220Y0211180D02*
X0700220Y0211180D01*
X0700220Y0213380D01*
X0705220Y0213380D01*
X0704420Y0213380D02*
X0704420Y0211180D01*
X0703620Y0211180D02*
X0703620Y0213380D01*
X0702820Y0213380D02*
X0702820Y0211180D01*
X0702020Y0211180D02*
X0702020Y0213380D01*
X0701220Y0213380D02*
X0701220Y0211180D01*
X0700420Y0211180D02*
X0700420Y0213380D01*
X0705220Y0214330D02*
X0705220Y0216530D01*
X0705220Y0214330D02*
X0700220Y0214330D01*
X0700220Y0216530D01*
X0705220Y0216530D01*
X0704420Y0216530D02*
X0704420Y0214330D01*
X0703620Y0214330D02*
X0703620Y0216530D01*
X0702820Y0216530D02*
X0702820Y0214330D01*
X0702020Y0214330D02*
X0702020Y0216530D01*
X0701220Y0216530D02*
X0701220Y0214330D01*
X0700420Y0214330D02*
X0700420Y0216530D01*
X0705220Y0217480D02*
X0705220Y0219680D01*
X0705220Y0217480D02*
X0700220Y0217480D01*
X0700220Y0219680D01*
X0705220Y0219680D01*
X0704420Y0219680D02*
X0704420Y0217480D01*
X0703620Y0217480D02*
X0703620Y0219680D01*
X0702820Y0219680D02*
X0702820Y0217480D01*
X0702020Y0217480D02*
X0702020Y0219680D01*
X0701220Y0219680D02*
X0701220Y0217480D01*
X0700420Y0217480D02*
X0700420Y0219680D01*
X0705220Y0220630D02*
X0705220Y0222830D01*
X0705220Y0220630D02*
X0700220Y0220630D01*
X0700220Y0222830D01*
X0705220Y0222830D01*
X0704420Y0222830D02*
X0704420Y0220630D01*
X0703620Y0220630D02*
X0703620Y0222830D01*
X0702820Y0222830D02*
X0702820Y0220630D01*
X0702020Y0220630D02*
X0702020Y0222830D01*
X0701220Y0222830D02*
X0701220Y0220630D01*
X0700420Y0220630D02*
X0700420Y0222830D01*
X0709700Y0225100D02*
X0709700Y0230100D01*
X0709700Y0225100D02*
X0707500Y0225100D01*
X0707500Y0230100D01*
X0709700Y0230100D01*
X0708900Y0230100D02*
X0708900Y0225100D01*
X0708100Y0225100D02*
X0708100Y0230100D01*
X0712850Y0230100D02*
X0712850Y0225100D01*
X0710650Y0225100D01*
X0710650Y0230100D01*
X0712850Y0230100D01*
X0712050Y0230100D02*
X0712050Y0225100D01*
X0711250Y0225100D02*
X0711250Y0230100D01*
X0716000Y0230100D02*
X0716000Y0225100D01*
X0713800Y0225100D01*
X0713800Y0230100D01*
X0716000Y0230100D01*
X0715200Y0230100D02*
X0715200Y0225100D01*
X0714400Y0225100D02*
X0714400Y0230100D01*
X0719150Y0230100D02*
X0719150Y0225100D01*
X0716950Y0225100D01*
X0716950Y0230100D01*
X0719150Y0230100D01*
X0718350Y0230100D02*
X0718350Y0225100D01*
X0717550Y0225100D02*
X0717550Y0230100D01*
X0722300Y0230100D02*
X0722300Y0225100D01*
X0720100Y0225100D01*
X0720100Y0230100D01*
X0722300Y0230100D01*
X0721500Y0230100D02*
X0721500Y0225100D01*
X0720700Y0225100D02*
X0720700Y0230100D01*
X0725450Y0230100D02*
X0725450Y0225100D01*
X0723250Y0225100D01*
X0723250Y0230100D01*
X0725450Y0230100D01*
X0724650Y0230100D02*
X0724650Y0225100D01*
X0723850Y0225100D02*
X0723850Y0230100D01*
X0728600Y0230100D02*
X0728600Y0225100D01*
X0726400Y0225100D01*
X0726400Y0230100D01*
X0728600Y0230100D01*
X0727800Y0230100D02*
X0727800Y0225100D01*
X0727000Y0225100D02*
X0727000Y0230100D01*
X0731750Y0230100D02*
X0731750Y0225100D01*
X0729550Y0225100D01*
X0729550Y0230100D01*
X0731750Y0230100D01*
X0730950Y0230100D02*
X0730950Y0225100D01*
X0730150Y0225100D02*
X0730150Y0230100D01*
X0739020Y0222830D02*
X0739020Y0220630D01*
X0734020Y0220630D01*
X0734020Y0222830D01*
X0739020Y0222830D01*
X0738220Y0222830D02*
X0738220Y0220630D01*
X0737420Y0220630D02*
X0737420Y0222830D01*
X0736620Y0222830D02*
X0736620Y0220630D01*
X0735820Y0220630D02*
X0735820Y0222830D01*
X0735020Y0222830D02*
X0735020Y0220630D01*
X0734220Y0220630D02*
X0734220Y0222830D01*
X0739020Y0219680D02*
X0739020Y0217480D01*
X0734020Y0217480D01*
X0734020Y0219680D01*
X0739020Y0219680D01*
X0738220Y0219680D02*
X0738220Y0217480D01*
X0737420Y0217480D02*
X0737420Y0219680D01*
X0736620Y0219680D02*
X0736620Y0217480D01*
X0735820Y0217480D02*
X0735820Y0219680D01*
X0735020Y0219680D02*
X0735020Y0217480D01*
X0734220Y0217480D02*
X0734220Y0219680D01*
X0739020Y0216530D02*
X0739020Y0214330D01*
X0734020Y0214330D01*
X0734020Y0216530D01*
X0739020Y0216530D01*
X0738220Y0216530D02*
X0738220Y0214330D01*
X0737420Y0214330D02*
X0737420Y0216530D01*
X0736620Y0216530D02*
X0736620Y0214330D01*
X0735820Y0214330D02*
X0735820Y0216530D01*
X0735020Y0216530D02*
X0735020Y0214330D01*
X0734220Y0214330D02*
X0734220Y0216530D01*
X0739020Y0213380D02*
X0739020Y0211180D01*
X0734020Y0211180D01*
X0734020Y0213380D01*
X0739020Y0213380D01*
X0738220Y0213380D02*
X0738220Y0211180D01*
X0737420Y0211180D02*
X0737420Y0213380D01*
X0736620Y0213380D02*
X0736620Y0211180D01*
X0735820Y0211180D02*
X0735820Y0213380D01*
X0735020Y0213380D02*
X0735020Y0211180D01*
X0734220Y0211180D02*
X0734220Y0213380D01*
X0739020Y0210230D02*
X0739020Y0208030D01*
X0734020Y0208030D01*
X0734020Y0210230D01*
X0739020Y0210230D01*
X0738220Y0210230D02*
X0738220Y0208030D01*
X0737420Y0208030D02*
X0737420Y0210230D01*
X0736620Y0210230D02*
X0736620Y0208030D01*
X0735820Y0208030D02*
X0735820Y0210230D01*
X0735020Y0210230D02*
X0735020Y0208030D01*
X0734220Y0208030D02*
X0734220Y0210230D01*
X0739020Y0207080D02*
X0739020Y0204880D01*
X0734020Y0204880D01*
X0734020Y0207080D01*
X0739020Y0207080D01*
X0738220Y0207080D02*
X0738220Y0204880D01*
X0737420Y0204880D02*
X0737420Y0207080D01*
X0736620Y0207080D02*
X0736620Y0204880D01*
X0735820Y0204880D02*
X0735820Y0207080D01*
X0735020Y0207080D02*
X0735020Y0204880D01*
X0734220Y0204880D02*
X0734220Y0207080D01*
X0739020Y0203930D02*
X0739020Y0201730D01*
X0734020Y0201730D01*
X0734020Y0203930D01*
X0739020Y0203930D01*
X0738220Y0203930D02*
X0738220Y0201730D01*
X0737420Y0201730D02*
X0737420Y0203930D01*
X0736620Y0203930D02*
X0736620Y0201730D01*
X0735820Y0201730D02*
X0735820Y0203930D01*
X0735020Y0203930D02*
X0735020Y0201730D01*
X0734220Y0201730D02*
X0734220Y0203930D01*
X0739020Y0200780D02*
X0739020Y0198580D01*
X0734020Y0198580D01*
X0734020Y0200780D01*
X0739020Y0200780D01*
X0738220Y0200780D02*
X0738220Y0198580D01*
X0737420Y0198580D02*
X0737420Y0200780D01*
X0736620Y0200780D02*
X0736620Y0198580D01*
X0735820Y0198580D02*
X0735820Y0200780D01*
X0735020Y0200780D02*
X0735020Y0198580D01*
X0734220Y0198580D02*
X0734220Y0200780D01*
X0731750Y0196300D02*
X0731750Y0191300D01*
X0729550Y0191300D01*
X0729550Y0196300D01*
X0731750Y0196300D01*
X0730950Y0196300D02*
X0730950Y0191300D01*
X0730150Y0191300D02*
X0730150Y0196300D01*
X0728600Y0196300D02*
X0728600Y0191300D01*
X0726400Y0191300D01*
X0726400Y0196300D01*
X0728600Y0196300D01*
X0727800Y0196300D02*
X0727800Y0191300D01*
X0727000Y0191300D02*
X0727000Y0196300D01*
X0725450Y0196300D02*
X0725450Y0191300D01*
X0723250Y0191300D01*
X0723250Y0196300D01*
X0725450Y0196300D01*
X0724650Y0196300D02*
X0724650Y0191300D01*
X0723850Y0191300D02*
X0723850Y0196300D01*
X0722300Y0196300D02*
X0722300Y0191300D01*
X0720100Y0191300D01*
X0720100Y0196300D01*
X0722300Y0196300D01*
X0721500Y0196300D02*
X0721500Y0191300D01*
X0720700Y0191300D02*
X0720700Y0196300D01*
X0719150Y0196300D02*
X0719150Y0191300D01*
X0716950Y0191300D01*
X0716950Y0196300D01*
X0719150Y0196300D01*
X0718350Y0196300D02*
X0718350Y0191300D01*
X0717550Y0191300D02*
X0717550Y0196300D01*
X0716000Y0196300D02*
X0716000Y0191300D01*
X0713800Y0191300D01*
X0713800Y0196300D01*
X0716000Y0196300D01*
X0715200Y0196300D02*
X0715200Y0191300D01*
X0714400Y0191300D02*
X0714400Y0196300D01*
X0712850Y0196300D02*
X0712850Y0191300D01*
X0710650Y0191300D01*
X0710650Y0196300D01*
X0712850Y0196300D01*
X0712050Y0196300D02*
X0712050Y0191300D01*
X0711250Y0191300D02*
X0711250Y0196300D01*
X0709700Y0196300D02*
X0709700Y0191300D01*
X0707500Y0191300D01*
X0707500Y0196300D01*
X0709700Y0196300D01*
X0708900Y0196300D02*
X0708900Y0191300D01*
X0708100Y0191300D02*
X0708100Y0196300D01*
X0705220Y0198580D02*
X0705220Y0200780D01*
X0705220Y0198580D02*
X0700220Y0198580D01*
X0700220Y0200780D01*
X0705220Y0200780D01*
X0704420Y0200780D02*
X0704420Y0198580D01*
X0703620Y0198580D02*
X0703620Y0200780D01*
X0702820Y0200780D02*
X0702820Y0198580D01*
X0702020Y0198580D02*
X0702020Y0200780D01*
X0701220Y0200780D02*
X0701220Y0198580D01*
X0700420Y0198580D02*
X0700420Y0200780D01*
X0705220Y0201730D02*
X0705220Y0203930D01*
X0705220Y0201730D02*
X0700220Y0201730D01*
X0700220Y0203930D01*
X0705220Y0203930D01*
X0704420Y0203930D02*
X0704420Y0201730D01*
X0703620Y0201730D02*
X0703620Y0203930D01*
X0702820Y0203930D02*
X0702820Y0201730D01*
X0702020Y0201730D02*
X0702020Y0203930D01*
X0701220Y0203930D02*
X0701220Y0201730D01*
X0700420Y0201730D02*
X0700420Y0203930D01*
X0705220Y0204880D02*
X0705220Y0207080D01*
X0705220Y0204880D02*
X0700220Y0204880D01*
X0700220Y0207080D01*
X0705220Y0207080D01*
X0704420Y0207080D02*
X0704420Y0204880D01*
X0703620Y0204880D02*
X0703620Y0207080D01*
X0702820Y0207080D02*
X0702820Y0204880D01*
X0702020Y0204880D02*
X0702020Y0207080D01*
X0701220Y0207080D02*
X0701220Y0204880D01*
X0700420Y0204880D02*
X0700420Y0207080D01*
D48*
X0758520Y0166730D02*
X0758520Y0160830D01*
X0758520Y0166730D02*
X0760480Y0166730D01*
X0760480Y0160830D01*
X0758520Y0160830D01*
X0759690Y0160830D02*
X0759690Y0166730D01*
X0758900Y0166730D02*
X0758900Y0160830D01*
X0742770Y0160830D02*
X0742770Y0166730D01*
X0744730Y0166730D01*
X0744730Y0160830D01*
X0742770Y0160830D01*
X0743940Y0160830D02*
X0743940Y0166730D01*
X0743150Y0166730D02*
X0743150Y0160830D01*
X0738520Y0160830D02*
X0738520Y0166730D01*
X0740480Y0166730D01*
X0740480Y0160830D01*
X0738520Y0160830D01*
X0739690Y0160830D02*
X0739690Y0166730D01*
X0738900Y0166730D02*
X0738900Y0160830D01*
X0722770Y0160830D02*
X0722770Y0166730D01*
X0724730Y0166730D01*
X0724730Y0160830D01*
X0722770Y0160830D01*
X0723940Y0160830D02*
X0723940Y0166730D01*
X0723150Y0166730D02*
X0723150Y0160830D01*
X0718520Y0160830D02*
X0718520Y0166730D01*
X0720480Y0166730D01*
X0720480Y0160830D01*
X0718520Y0160830D01*
X0719690Y0160830D02*
X0719690Y0166730D01*
X0718900Y0166730D02*
X0718900Y0160830D01*
X0702770Y0160830D02*
X0702770Y0166730D01*
X0704730Y0166730D01*
X0704730Y0160830D01*
X0702770Y0160830D01*
X0703940Y0160830D02*
X0703940Y0166730D01*
X0703150Y0166730D02*
X0703150Y0160830D01*
X0698520Y0160830D02*
X0698520Y0166730D01*
X0700480Y0166730D01*
X0700480Y0160830D01*
X0698520Y0160830D01*
X0699690Y0160830D02*
X0699690Y0166730D01*
X0698900Y0166730D02*
X0698900Y0160830D01*
X0682770Y0160830D02*
X0682770Y0166730D01*
X0684730Y0166730D01*
X0684730Y0160830D01*
X0682770Y0160830D01*
X0683940Y0160830D02*
X0683940Y0166730D01*
X0683150Y0166730D02*
X0683150Y0160830D01*
X0669550Y0160890D02*
X0669550Y0166790D01*
X0671510Y0166790D01*
X0671510Y0160890D01*
X0669550Y0160890D01*
X0670720Y0160890D02*
X0670720Y0166790D01*
X0669930Y0166790D02*
X0669930Y0160890D01*
X0657740Y0160890D02*
X0657740Y0166790D01*
X0659700Y0166790D01*
X0659700Y0160890D01*
X0657740Y0160890D01*
X0658910Y0160890D02*
X0658910Y0166790D01*
X0658120Y0166790D02*
X0658120Y0160890D01*
X0656710Y0254780D02*
X0650810Y0254780D01*
X0656710Y0254780D02*
X0656710Y0252820D01*
X0650810Y0252820D01*
X0650810Y0254780D01*
X0655920Y0254780D02*
X0655920Y0252820D01*
X0655130Y0252820D02*
X0655130Y0254780D01*
X0654340Y0254780D02*
X0654340Y0252820D01*
X0653550Y0252820D02*
X0653550Y0254780D01*
X0652760Y0254780D02*
X0652760Y0252820D01*
X0651970Y0252820D02*
X0651970Y0254780D01*
X0651180Y0254780D02*
X0651180Y0252820D01*
X0650810Y0266590D02*
X0656710Y0266590D01*
X0656710Y0264630D01*
X0650810Y0264630D01*
X0650810Y0266590D01*
X0655920Y0266590D02*
X0655920Y0264630D01*
X0655130Y0264630D02*
X0655130Y0266590D01*
X0654340Y0266590D02*
X0654340Y0264630D01*
X0653550Y0264630D02*
X0653550Y0266590D01*
X0652760Y0266590D02*
X0652760Y0264630D01*
X0651970Y0264630D02*
X0651970Y0266590D01*
X0651180Y0266590D02*
X0651180Y0264630D01*
X0650810Y0277780D02*
X0656710Y0277780D01*
X0656710Y0275820D01*
X0650810Y0275820D01*
X0650810Y0277780D01*
X0655920Y0277780D02*
X0655920Y0275820D01*
X0655130Y0275820D02*
X0655130Y0277780D01*
X0654340Y0277780D02*
X0654340Y0275820D01*
X0653550Y0275820D02*
X0653550Y0277780D01*
X0652760Y0277780D02*
X0652760Y0275820D01*
X0651970Y0275820D02*
X0651970Y0277780D01*
X0651180Y0277780D02*
X0651180Y0275820D01*
X0650810Y0289590D02*
X0656710Y0289590D01*
X0656710Y0287630D01*
X0650810Y0287630D01*
X0650810Y0289590D01*
X0655920Y0289590D02*
X0655920Y0287630D01*
X0655130Y0287630D02*
X0655130Y0289590D01*
X0654340Y0289590D02*
X0654340Y0287630D01*
X0653550Y0287630D02*
X0653550Y0289590D01*
X0652760Y0289590D02*
X0652760Y0287630D01*
X0651970Y0287630D02*
X0651970Y0289590D01*
X0651180Y0289590D02*
X0651180Y0287630D01*
D102*
X0666140Y0284250D02*
X0670920Y0284250D01*
X0666140Y0284250D02*
X0666140Y0285090D01*
X0670920Y0285090D01*
X0670920Y0284250D01*
X0670110Y0284250D02*
X0670110Y0285090D01*
X0669300Y0285090D02*
X0669300Y0284250D01*
X0668490Y0284250D02*
X0668490Y0285090D01*
X0667680Y0285090D02*
X0667680Y0284250D01*
X0666870Y0284250D02*
X0666870Y0285090D01*
X0666140Y0280310D02*
X0670920Y0280310D01*
X0666140Y0280310D02*
X0666140Y0281150D01*
X0670920Y0281150D01*
X0670920Y0280310D01*
X0670110Y0280310D02*
X0670110Y0281150D01*
X0669300Y0281150D02*
X0669300Y0280310D01*
X0668490Y0280310D02*
X0668490Y0281150D01*
X0667680Y0281150D02*
X0667680Y0280310D01*
X0666870Y0280310D02*
X0666870Y0281150D01*
X0666140Y0261250D02*
X0670920Y0261250D01*
X0666140Y0261250D02*
X0666140Y0262090D01*
X0670920Y0262090D01*
X0670920Y0261250D01*
X0670110Y0261250D02*
X0670110Y0262090D01*
X0669300Y0262090D02*
X0669300Y0261250D01*
X0668490Y0261250D02*
X0668490Y0262090D01*
X0667680Y0262090D02*
X0667680Y0261250D01*
X0666870Y0261250D02*
X0666870Y0262090D01*
X0666140Y0257310D02*
X0670920Y0257310D01*
X0666140Y0257310D02*
X0666140Y0258150D01*
X0670920Y0258150D01*
X0670920Y0257310D01*
X0670110Y0257310D02*
X0670110Y0258150D01*
X0669300Y0258150D02*
X0669300Y0257310D01*
X0668490Y0257310D02*
X0668490Y0258150D01*
X0667680Y0258150D02*
X0667680Y0257310D01*
X0666870Y0257310D02*
X0666870Y0258150D01*
X0667010Y0181000D02*
X0667010Y0176220D01*
X0666170Y0176220D01*
X0666170Y0181000D01*
X0667010Y0181000D01*
X0666200Y0181000D02*
X0666200Y0176220D01*
X0663070Y0176220D02*
X0663070Y0181000D01*
X0663070Y0176220D02*
X0662230Y0176220D01*
X0662230Y0181000D01*
X0663070Y0181000D01*
X0662260Y0181000D02*
X0662260Y0176220D01*
X0687270Y0175090D02*
X0687270Y0170190D01*
X0687270Y0175090D02*
X0688110Y0175090D01*
X0688110Y0170190D01*
X0687270Y0170190D01*
X0687300Y0170190D02*
X0687300Y0175090D01*
X0691200Y0175090D02*
X0691200Y0170190D01*
X0691200Y0175090D02*
X0692040Y0175090D01*
X0692040Y0170190D01*
X0691200Y0170190D01*
X0691230Y0170190D02*
X0691230Y0175090D01*
X0695140Y0175090D02*
X0695140Y0170190D01*
X0695140Y0175090D02*
X0695980Y0175090D01*
X0695980Y0170190D01*
X0695140Y0170190D01*
X0695170Y0170190D02*
X0695170Y0175090D01*
X0707270Y0175090D02*
X0707270Y0170190D01*
X0707270Y0175090D02*
X0708110Y0175090D01*
X0708110Y0170190D01*
X0707270Y0170190D01*
X0707300Y0170190D02*
X0707300Y0175090D01*
X0711200Y0175090D02*
X0711200Y0170190D01*
X0711200Y0175090D02*
X0712040Y0175090D01*
X0712040Y0170190D01*
X0711200Y0170190D01*
X0711230Y0170190D02*
X0711230Y0175090D01*
X0715140Y0175090D02*
X0715140Y0170190D01*
X0715140Y0175090D02*
X0715980Y0175090D01*
X0715980Y0170190D01*
X0715140Y0170190D01*
X0715170Y0170190D02*
X0715170Y0175090D01*
X0727270Y0175090D02*
X0727270Y0170190D01*
X0727270Y0175090D02*
X0728110Y0175090D01*
X0728110Y0170190D01*
X0727270Y0170190D01*
X0727300Y0170190D02*
X0727300Y0175090D01*
X0731200Y0175090D02*
X0731200Y0170190D01*
X0731200Y0175090D02*
X0732040Y0175090D01*
X0732040Y0170190D01*
X0731200Y0170190D01*
X0731230Y0170190D02*
X0731230Y0175090D01*
X0735140Y0175090D02*
X0735140Y0170190D01*
X0735140Y0175090D02*
X0735980Y0175090D01*
X0735980Y0170190D01*
X0735140Y0170190D01*
X0735170Y0170190D02*
X0735170Y0175090D01*
X0747270Y0175090D02*
X0747270Y0170190D01*
X0747270Y0175090D02*
X0748110Y0175090D01*
X0748110Y0170190D01*
X0747270Y0170190D01*
X0747300Y0170190D02*
X0747300Y0175090D01*
X0751200Y0175090D02*
X0751200Y0170190D01*
X0751200Y0175090D02*
X0752040Y0175090D01*
X0752040Y0170190D01*
X0751200Y0170190D01*
X0751230Y0170190D02*
X0751230Y0175090D01*
X0755140Y0175090D02*
X0755140Y0170190D01*
X0755140Y0175090D02*
X0755980Y0175090D01*
X0755980Y0170190D01*
X0755140Y0170190D01*
X0755170Y0170190D02*
X0755170Y0175090D01*
D75*
X0670730Y0185350D02*
X0667610Y0185350D01*
X0667610Y0190050D01*
X0670730Y0190050D01*
X0670730Y0185350D01*
X0669910Y0185350D02*
X0669910Y0190050D01*
X0669090Y0190050D02*
X0669090Y0185350D01*
X0668270Y0185350D02*
X0668270Y0190050D01*
X0663640Y0185350D02*
X0660520Y0185350D01*
X0660520Y0190050D01*
X0663640Y0190050D01*
X0663640Y0185350D01*
X0662820Y0185350D02*
X0662820Y0190050D01*
X0662000Y0190050D02*
X0662000Y0185350D01*
X0661180Y0185350D02*
X0661180Y0190050D01*
X0655970Y0203600D02*
X0655970Y0206720D01*
X0655970Y0203600D02*
X0651270Y0203600D01*
X0651270Y0206720D01*
X0655970Y0206720D01*
X0655150Y0206720D02*
X0655150Y0203600D01*
X0654330Y0203600D02*
X0654330Y0206720D01*
X0653510Y0206720D02*
X0653510Y0203600D01*
X0652690Y0203600D02*
X0652690Y0206720D01*
X0651870Y0206720D02*
X0651870Y0203600D01*
X0655970Y0210690D02*
X0655970Y0213810D01*
X0655970Y0210690D02*
X0651270Y0210690D01*
X0651270Y0213810D01*
X0655970Y0213810D01*
X0655150Y0213810D02*
X0655150Y0210690D01*
X0654330Y0210690D02*
X0654330Y0213810D01*
X0653510Y0213810D02*
X0653510Y0210690D01*
X0652690Y0210690D02*
X0652690Y0213810D01*
X0651870Y0213810D02*
X0651870Y0210690D01*
X0651270Y0218600D02*
X0651270Y0221720D01*
X0655970Y0221720D01*
X0655970Y0218600D01*
X0651270Y0218600D01*
X0655150Y0218600D02*
X0655150Y0221720D01*
X0654330Y0221720D02*
X0654330Y0218600D01*
X0653510Y0218600D02*
X0653510Y0221720D01*
X0652690Y0221720D02*
X0652690Y0218600D01*
X0651870Y0218600D02*
X0651870Y0221720D01*
X0651270Y0225690D02*
X0651270Y0228810D01*
X0655970Y0228810D01*
X0655970Y0225690D01*
X0651270Y0225690D01*
X0655150Y0225690D02*
X0655150Y0228810D01*
X0654330Y0228810D02*
X0654330Y0225690D01*
X0653510Y0225690D02*
X0653510Y0228810D01*
X0652690Y0228810D02*
X0652690Y0225690D01*
X0651870Y0225690D02*
X0651870Y0228810D01*
X0651270Y0233600D02*
X0651270Y0236720D01*
X0655970Y0236720D01*
X0655970Y0233600D01*
X0651270Y0233600D01*
X0655150Y0233600D02*
X0655150Y0236720D01*
X0654330Y0236720D02*
X0654330Y0233600D01*
X0653510Y0233600D02*
X0653510Y0236720D01*
X0652690Y0236720D02*
X0652690Y0233600D01*
X0651870Y0233600D02*
X0651870Y0236720D01*
X0651270Y0240690D02*
X0651270Y0243810D01*
X0655970Y0243810D01*
X0655970Y0240690D01*
X0651270Y0240690D01*
X0655150Y0240690D02*
X0655150Y0243810D01*
X0654330Y0243810D02*
X0654330Y0240690D01*
X0653510Y0240690D02*
X0653510Y0243810D01*
X0652690Y0243810D02*
X0652690Y0240690D01*
X0651870Y0240690D02*
X0651870Y0243810D01*
D55*
X0753620Y0241700D02*
X0759620Y0241700D01*
X0759620Y0231700D02*
X0753620Y0231700D01*
X0753620Y0221700D02*
X0759620Y0221700D01*
X0759620Y0211700D02*
X0753620Y0211700D01*
X0753620Y0201700D02*
X0759620Y0201700D01*
X0759620Y0191700D02*
X0753620Y0191700D01*
D100*
X0755620Y0183500D03*
X0740420Y0189900D03*
X0743620Y0205100D03*
X0730820Y0209900D03*
X0722020Y0206700D03*
X0717220Y0206700D03*
X0718620Y0200500D03*
X0711620Y0188300D03*
X0719820Y0172700D03*
X0698820Y0174700D03*
X0692020Y0166500D03*
X0698820Y0195500D03*
X0693220Y0203500D03*
X0697220Y0206700D03*
X0718020Y0215500D03*
X0729220Y0221900D03*
X0707620Y0240300D03*
X0700420Y0233900D03*
X0704420Y0230700D03*
X0697220Y0240300D03*
X0708420Y0257900D03*
X0698020Y0265900D03*
X0691620Y0264300D03*
X0695620Y0276300D03*
X0701220Y0276300D03*
X0722820Y0254700D03*
X0733220Y0274100D03*
X0727420Y0277100D03*
X0680220Y0249900D03*
X0768620Y0020000D02*
G75*
%LPD*%
D98*
X0948980Y0366510D03*
X0838980Y0366510D03*
D81*
X0896850Y0355550D02*
X0902050Y0355550D01*
X0902050Y0345550D02*
X0896850Y0345550D01*
X0896850Y0335550D02*
X0902050Y0335550D01*
X0902050Y0325550D02*
X0896850Y0325550D01*
X0896850Y0315550D02*
X0902050Y0315550D01*
X0902050Y0305550D02*
X0896850Y0305550D01*
X0896850Y0295550D02*
X0902050Y0295550D01*
X0902050Y0285550D02*
X0896850Y0285550D01*
X0896850Y0275550D02*
X0902050Y0275550D01*
X0902050Y0265550D02*
X0896850Y0265550D01*
X0896850Y0255550D02*
X0902050Y0255550D01*
X0902050Y0245550D02*
X0896850Y0245550D01*
X0896850Y0235550D02*
X0902050Y0235550D01*
X0902050Y0225550D02*
X0896850Y0225550D01*
X0926850Y0225550D02*
X0932050Y0225550D01*
X0932050Y0235550D02*
X0926850Y0235550D01*
X0926850Y0245550D02*
X0932050Y0245550D01*
X0932050Y0255550D02*
X0926850Y0255550D01*
X0926850Y0265550D02*
X0932050Y0265550D01*
X0932050Y0275550D02*
X0926850Y0275550D01*
X0926850Y0285550D02*
X0932050Y0285550D01*
X0932050Y0295550D02*
X0926850Y0295550D01*
X0926850Y0305550D02*
X0932050Y0305550D01*
X0932050Y0315550D02*
X0926850Y0315550D01*
X0926850Y0325550D02*
X0932050Y0325550D01*
X0932050Y0335550D02*
X0926850Y0335550D01*
X0926850Y0345550D02*
X0932050Y0345550D01*
X0932050Y0355550D02*
X0926850Y0355550D01*
X0899980Y0150110D02*
X0899980Y0144910D01*
X0889980Y0144910D02*
X0889980Y0150110D01*
X0879980Y0150110D02*
X0879980Y0144910D01*
X0869980Y0144910D02*
X0869980Y0150110D01*
X0859980Y0150110D02*
X0859980Y0144910D01*
X0849980Y0144910D02*
X0849980Y0150110D01*
X0839980Y0150110D02*
X0839980Y0144910D01*
X0829980Y0144910D02*
X0829980Y0150110D01*
X0819980Y0150110D02*
X0819980Y0144910D01*
X0809980Y0144910D02*
X0809980Y0150110D01*
X0809980Y0120110D02*
X0809980Y0114910D01*
X0819980Y0114910D02*
X0819980Y0120110D01*
X0829980Y0120110D02*
X0829980Y0114910D01*
X0839980Y0114910D02*
X0839980Y0120110D01*
X0849980Y0120110D02*
X0849980Y0114910D01*
X0859980Y0114910D02*
X0859980Y0120110D01*
X0869980Y0120110D02*
X0869980Y0114910D01*
X0879980Y0114910D02*
X0879980Y0120110D01*
X0889980Y0120110D02*
X0889980Y0114910D01*
X0899980Y0114910D02*
X0899980Y0120110D01*
D28*
X0787980Y0131510D03*
X0787980Y0141510D03*
X0777980Y0141510D03*
X0777980Y0131510D03*
X0777980Y0121510D03*
X0859180Y0356060D03*
X0859180Y0366060D03*
X0869180Y0366060D03*
X0869180Y0356060D03*
X0879180Y0356060D03*
X0879180Y0366060D03*
D13*
X0840980Y0345510D03*
X0830980Y0345810D03*
X0821280Y0345750D03*
X0811280Y0345810D03*
X0801380Y0345910D03*
X0801380Y0305910D03*
X0811280Y0305810D03*
X0821280Y0305750D03*
X0830980Y0305810D03*
X0840980Y0305510D03*
X0841090Y0291900D03*
X0841080Y0281180D03*
X0841280Y0270150D03*
X0821280Y0270150D03*
X0821080Y0281180D03*
X0821090Y0291900D03*
X0817580Y0251510D03*
X0807580Y0251510D03*
X0807580Y0233210D03*
X0817580Y0233210D03*
X0867980Y0171510D03*
X0867980Y0161510D03*
X0878980Y0193510D03*
X0898980Y0193510D03*
X0907980Y0171510D03*
X0907980Y0161510D03*
X0930980Y0156510D03*
X0930980Y0147510D03*
X0940980Y0147510D03*
X0940980Y0156510D03*
X0953370Y0160870D03*
X0973370Y0160870D03*
X0905980Y0076510D03*
X0905980Y0066510D03*
X0905980Y0050510D03*
X0905980Y0040510D03*
X0898080Y0029010D03*
X0885980Y0041510D03*
X0885980Y0053210D03*
X0885980Y0064510D03*
X0885980Y0075510D03*
X0865980Y0075510D03*
X0865980Y0064510D03*
X0865980Y0053210D03*
X0865980Y0041510D03*
X0858080Y0029010D03*
X0850980Y0072510D03*
X0850980Y0083510D03*
X0850980Y0094510D03*
X0810980Y0094510D03*
X0810980Y0083510D03*
X0810980Y0072510D03*
D49*
X0869980Y0094310D02*
X0869980Y0098710D01*
X0889980Y0098710D02*
X0889980Y0094310D01*
X0860150Y0265520D02*
X0855750Y0265520D01*
X0855750Y0285520D02*
X0860150Y0285520D01*
D55*
X0863330Y0307010D02*
X0863330Y0313010D01*
X0863330Y0332610D02*
X0863330Y0338610D01*
X0881130Y0338610D02*
X0881130Y0332610D01*
X0881130Y0313010D02*
X0881130Y0307010D01*
X0851980Y0196510D02*
X0851980Y0190510D01*
X0841980Y0190510D02*
X0841980Y0196510D01*
X0831980Y0196510D02*
X0831980Y0190510D01*
X0821980Y0190510D02*
X0821980Y0196510D01*
X0811980Y0196510D02*
X0811980Y0190510D01*
X0801980Y0190510D02*
X0801980Y0196510D01*
X0801980Y0176510D02*
X0801980Y0170510D01*
X0811980Y0170510D02*
X0811980Y0176510D01*
X0821980Y0176510D02*
X0821980Y0170510D01*
X0831980Y0170510D02*
X0831980Y0176510D01*
X0841980Y0176510D02*
X0841980Y0170510D01*
X0851980Y0170510D02*
X0851980Y0176510D01*
X0781910Y0199230D02*
X0775910Y0199230D01*
X0775910Y0209230D02*
X0781910Y0209230D01*
X0781910Y0219230D02*
X0775910Y0219230D01*
X0775910Y0229230D02*
X0781910Y0229230D01*
X0781910Y0239230D02*
X0775910Y0239230D01*
X0775910Y0249230D02*
X0781910Y0249230D01*
X0781910Y0259230D02*
X0775910Y0259230D01*
X0775910Y0269230D02*
X0781910Y0269230D01*
X0782070Y0285220D02*
X0776070Y0285220D01*
X0776070Y0295220D02*
X0782070Y0295220D01*
X0782070Y0305220D02*
X0776070Y0305220D01*
X0776070Y0315220D02*
X0782070Y0315220D01*
X0782070Y0325220D02*
X0776070Y0325220D01*
X0776070Y0335220D02*
X0782070Y0335220D01*
X0782070Y0345220D02*
X0776070Y0345220D01*
X0776070Y0355220D02*
X0782070Y0355220D01*
X0933480Y0122210D02*
X0939480Y0122210D01*
X0939480Y0112210D02*
X0933480Y0112210D01*
X0933480Y0102210D02*
X0939480Y0102210D01*
X0938980Y0170510D02*
X0938980Y0176510D01*
X0938980Y0190510D02*
X0938980Y0196510D01*
X0948980Y0196510D02*
X0948980Y0190510D01*
X0958980Y0190510D02*
X0958980Y0196510D01*
X0968980Y0196510D02*
X0968980Y0190510D01*
X0968980Y0176510D02*
X0968980Y0170510D01*
X0958980Y0170510D02*
X0958980Y0176510D01*
X0948980Y0176510D02*
X0948980Y0170510D01*
X0965980Y0235510D02*
X0971980Y0235510D01*
X0971980Y0245510D02*
X0965980Y0245510D01*
X0965980Y0255510D02*
X0971980Y0255510D01*
X0971980Y0265510D02*
X0965980Y0265510D01*
X0965980Y0275510D02*
X0971980Y0275510D01*
X0971980Y0285510D02*
X0965980Y0285510D01*
X0965870Y0305630D02*
X0971870Y0305630D01*
X0971870Y0315630D02*
X0965870Y0315630D01*
X0965870Y0325630D02*
X0971870Y0325630D01*
X0971870Y0335630D02*
X0965870Y0335630D01*
X0965870Y0345630D02*
X0971870Y0345630D01*
X0971870Y0355630D02*
X0965870Y0355630D01*
X0848980Y0040510D02*
X0842980Y0040510D01*
X0842980Y0030510D02*
X0848980Y0030510D01*
D93*
X0935120Y0082200D03*
X0975120Y0082200D03*
D92*
X0955930Y0104920D03*
X0955910Y0137900D03*
D71*
X0969910Y0137900D03*
X0969930Y0104920D03*
D50*
X0968980Y0054710D03*
X0949280Y0066510D03*
X0949280Y0042910D03*
D78*
X0813900Y0046180D03*
X0813900Y0054050D03*
X0804060Y0054050D03*
X0804060Y0046180D03*
D89*
X0785280Y0035510D03*
X0832680Y0035510D03*
D88*
X0787980Y0121510D03*
D102*
X0791930Y0100220D02*
X0801350Y0100220D01*
X0801350Y0090800D01*
X0791930Y0090800D01*
X0791930Y0100220D01*
X0800540Y0100220D02*
X0800540Y0090800D01*
X0799730Y0090800D02*
X0799730Y0100220D01*
X0798920Y0100220D02*
X0798920Y0090800D01*
X0798110Y0090800D02*
X0798110Y0100220D01*
X0797300Y0100220D02*
X0797300Y0090800D01*
X0796490Y0090800D02*
X0796490Y0100220D01*
X0795680Y0100220D02*
X0795680Y0090800D01*
X0794870Y0090800D02*
X0794870Y0100220D01*
X0794060Y0100220D02*
X0794060Y0090800D01*
X0793250Y0090800D02*
X0793250Y0100220D01*
X0792440Y0100220D02*
X0792440Y0090800D01*
X0791930Y0077220D02*
X0801350Y0077220D01*
X0801350Y0067800D01*
X0791930Y0067800D01*
X0791930Y0077220D01*
X0800540Y0077220D02*
X0800540Y0067800D01*
X0799730Y0067800D02*
X0799730Y0077220D01*
X0798920Y0077220D02*
X0798920Y0067800D01*
X0798110Y0067800D02*
X0798110Y0077220D01*
X0797300Y0077220D02*
X0797300Y0067800D01*
X0796490Y0067800D02*
X0796490Y0077220D01*
X0795680Y0077220D02*
X0795680Y0067800D01*
X0794870Y0067800D02*
X0794870Y0077220D01*
X0794060Y0077220D02*
X0794060Y0067800D01*
X0793250Y0067800D02*
X0793250Y0077220D01*
X0792440Y0077220D02*
X0792440Y0067800D01*
X0784030Y0077220D02*
X0774610Y0077220D01*
X0784030Y0077220D02*
X0784030Y0067800D01*
X0774610Y0067800D01*
X0774610Y0077220D01*
X0783220Y0077220D02*
X0783220Y0067800D01*
X0782410Y0067800D02*
X0782410Y0077220D01*
X0781600Y0077220D02*
X0781600Y0067800D01*
X0780790Y0067800D02*
X0780790Y0077220D01*
X0779980Y0077220D02*
X0779980Y0067800D01*
X0779170Y0067800D02*
X0779170Y0077220D01*
X0778360Y0077220D02*
X0778360Y0067800D01*
X0777550Y0067800D02*
X0777550Y0077220D01*
X0776740Y0077220D02*
X0776740Y0067800D01*
X0775930Y0067800D02*
X0775930Y0077220D01*
X0775120Y0077220D02*
X0775120Y0067800D01*
X0774610Y0100220D02*
X0784030Y0100220D01*
X0784030Y0090800D01*
X0774610Y0090800D01*
X0774610Y0100220D01*
X0783220Y0100220D02*
X0783220Y0090800D01*
X0782410Y0090800D02*
X0782410Y0100220D01*
X0781600Y0100220D02*
X0781600Y0090800D01*
X0780790Y0090800D02*
X0780790Y0100220D01*
X0779980Y0100220D02*
X0779980Y0090800D01*
X0779170Y0090800D02*
X0779170Y0100220D01*
X0778360Y0100220D02*
X0778360Y0090800D01*
X0777550Y0090800D02*
X0777550Y0100220D01*
X0776740Y0100220D02*
X0776740Y0090800D01*
X0775930Y0090800D02*
X0775930Y0100220D01*
X0775120Y0100220D02*
X0775120Y0090800D01*
D55*
X0777980Y0161510D03*
X0787980Y0161510D03*
D102*
X0939970Y0140000D02*
X0942450Y0140000D01*
X0942450Y0135020D01*
X0939970Y0135020D01*
X0939970Y0140000D01*
X0941640Y0140000D02*
X0941640Y0135020D01*
X0940830Y0135020D02*
X0940830Y0140000D01*
X0940020Y0140000D02*
X0940020Y0135020D01*
X0943510Y0140000D02*
X0945990Y0140000D01*
X0945990Y0135020D01*
X0943510Y0135020D01*
X0943510Y0140000D01*
X0945180Y0140000D02*
X0945180Y0135020D01*
X0944370Y0135020D02*
X0944370Y0140000D01*
X0943560Y0140000D02*
X0943560Y0135020D01*
D96*
X0916980Y0230510D03*
X0911980Y0248510D03*
X0950980Y0296510D03*
X0929980Y0365510D03*
X0834980Y0280510D03*
X0827980Y0270510D03*
X0825980Y0224510D03*
X0835980Y0224510D03*
X0830980Y0204510D03*
X0846980Y0200510D03*
X0822980Y0356510D03*
D91*
X0821980Y0183510D03*
X0831980Y0183510D03*
X0841980Y0183510D03*
X0851980Y0183510D03*
X0811980Y0183510D03*
X0801980Y0183510D03*
X0938980Y0183510D03*
X0948980Y0183510D03*
X0958980Y0183510D03*
X0968980Y0183510D03*
X0020000Y0463660D02*
G75*
%LPD*%
D81*
X0092000Y0491060D02*
X0092000Y0496260D01*
X0102000Y0496260D02*
X0102000Y0491060D01*
X0112000Y0491060D02*
X0112000Y0496260D01*
X0122000Y0496260D02*
X0122000Y0491060D01*
X0132000Y0491060D02*
X0132000Y0496260D01*
X0142000Y0496260D02*
X0142000Y0491060D01*
X0152000Y0491060D02*
X0152000Y0496260D01*
X0162000Y0496260D02*
X0162000Y0491060D01*
X0162000Y0521060D02*
X0162000Y0526260D01*
X0152000Y0526260D02*
X0152000Y0521060D01*
X0142000Y0521060D02*
X0142000Y0526260D01*
X0132000Y0526260D02*
X0132000Y0521060D01*
X0122000Y0521060D02*
X0122000Y0526260D01*
X0112000Y0526260D02*
X0112000Y0521060D01*
X0102000Y0521060D02*
X0102000Y0526260D01*
X0092000Y0526260D02*
X0092000Y0521060D01*
D13*
X0077000Y0521160D03*
X0067000Y0521160D03*
X0057000Y0521160D03*
X0047000Y0521160D03*
X0047000Y0491160D03*
X0057000Y0491160D03*
X0067000Y0491160D03*
X0077000Y0491160D03*
X0067000Y0473660D03*
X0057000Y0473660D03*
X0037000Y0473660D03*
X0027000Y0473660D03*
X0087000Y0473660D03*
X0097000Y0473660D03*
X0117000Y0473660D03*
X0127000Y0473660D03*
X0147000Y0473660D03*
X0157000Y0473660D03*
X0177000Y0473660D03*
X0187000Y0473660D03*
X0207000Y0473660D03*
X0217000Y0473660D03*
X0237000Y0473660D03*
X0247000Y0473660D03*
X0204500Y0493660D03*
X0194500Y0493660D03*
X0184500Y0493660D03*
X0174500Y0493660D03*
X0174500Y0523660D03*
X0184500Y0523660D03*
X0194500Y0523660D03*
X0204500Y0523660D03*
D30*
X0027000Y0471160D03*
X0037000Y0471160D03*
X0057000Y0471160D03*
X0067000Y0471160D03*
X0087000Y0471160D03*
X0097000Y0471160D03*
X0117000Y0471160D03*
X0127000Y0471160D03*
X0147000Y0471160D03*
X0157000Y0471160D03*
X0177000Y0471160D03*
X0187000Y0471160D03*
X0207000Y0471160D03*
X0217000Y0471160D03*
X0237000Y0471160D03*
X0247000Y0471160D03*
D55*
X0221000Y0485660D02*
X0215000Y0485660D01*
X0215000Y0495660D02*
X0221000Y0495660D01*
X0221000Y0505660D02*
X0215000Y0505660D01*
X0215000Y0515660D02*
X0221000Y0515660D01*
X0221000Y0525660D02*
X0215000Y0525660D01*
X0038000Y0524660D02*
X0032000Y0524660D01*
X0032000Y0514660D02*
X0038000Y0514660D01*
X0038000Y0504660D02*
X0032000Y0504660D01*
X0032000Y0494660D02*
X0038000Y0494660D01*
X0038000Y0484660D02*
X0032000Y0484660D01*
X0258210Y0359920D02*
G75*
%LPD*%
D71*
X0273210Y0379920D03*
X0273210Y0389920D03*
D55*
X0273210Y0409920D03*
X0273210Y0419920D03*
X0273210Y0429920D03*
X0273210Y0439920D03*
X0273210Y0449920D03*
X0273210Y0459920D03*
X0450410Y0456020D03*
X0476010Y0456020D03*
X0490410Y0456020D03*
X0490410Y0438820D03*
X0516010Y0438820D03*
X0516010Y0456020D03*
X0530410Y0456020D03*
X0556010Y0456020D03*
X0556010Y0473820D03*
X0530410Y0473820D03*
X0516010Y0473820D03*
X0490410Y0473820D03*
X0476010Y0473820D03*
X0450410Y0473820D03*
X0490410Y0491020D03*
X0516010Y0491020D03*
X0516010Y0508820D03*
X0490410Y0508820D03*
X0490410Y0421020D03*
X0516010Y0421020D03*
X0515410Y0398820D03*
X0491010Y0398820D03*
X0465410Y0398820D03*
X0465410Y0381020D03*
X0491010Y0381020D03*
X0515410Y0381020D03*
X0541010Y0381020D03*
X0541010Y0398820D03*
D28*
X0437210Y0463920D03*
X0427210Y0463920D03*
X0427210Y0473920D03*
X0437210Y0473920D03*
X0437210Y0483920D03*
X0427210Y0483920D03*
D81*
X0428210Y0437520D02*
X0428210Y0432320D01*
X0418210Y0432320D02*
X0418210Y0437520D01*
X0408210Y0437520D02*
X0408210Y0432320D01*
X0398210Y0432320D02*
X0398210Y0437520D01*
X0388210Y0437520D02*
X0388210Y0432320D01*
X0378210Y0432320D02*
X0378210Y0437520D01*
X0368210Y0437520D02*
X0368210Y0432320D01*
X0358210Y0432320D02*
X0358210Y0437520D01*
X0348210Y0437520D02*
X0348210Y0432320D01*
X0338210Y0432320D02*
X0338210Y0437520D01*
X0328210Y0437520D02*
X0328210Y0432320D01*
X0318210Y0432320D02*
X0318210Y0437520D01*
X0308210Y0437520D02*
X0308210Y0432320D01*
X0298210Y0432320D02*
X0298210Y0437520D01*
X0298210Y0407520D02*
X0298210Y0402320D01*
X0308210Y0402320D02*
X0308210Y0407520D01*
X0318210Y0407520D02*
X0318210Y0402320D01*
X0328210Y0402320D02*
X0328210Y0407520D01*
X0338210Y0407520D02*
X0338210Y0402320D01*
X0348210Y0402320D02*
X0348210Y0407520D01*
X0358210Y0407520D02*
X0358210Y0402320D01*
X0368210Y0402320D02*
X0368210Y0407520D01*
X0378210Y0407520D02*
X0378210Y0402320D01*
X0388210Y0402320D02*
X0388210Y0407520D01*
X0398210Y0407520D02*
X0398210Y0402320D01*
X0408210Y0402320D02*
X0408210Y0407520D01*
X0418210Y0407520D02*
X0418210Y0402320D01*
X0428210Y0402320D02*
X0428210Y0407520D01*
X0558210Y0502320D02*
X0558210Y0507520D01*
X0568210Y0507520D02*
X0568210Y0502320D01*
X0578210Y0502320D02*
X0578210Y0507520D01*
X0588210Y0507520D02*
X0588210Y0502320D01*
X0598210Y0502320D02*
X0598210Y0507520D01*
X0598210Y0562320D02*
X0598210Y0567520D01*
X0588210Y0567520D02*
X0588210Y0562320D01*
X0578210Y0562320D02*
X0578210Y0567520D01*
X0568210Y0567520D02*
X0568210Y0562320D01*
X0558210Y0562320D02*
X0558210Y0567520D01*
D55*
X0428210Y0566920D02*
X0428210Y0572920D01*
X0418210Y0572920D02*
X0418210Y0566920D01*
X0408210Y0566920D02*
X0408210Y0572920D01*
X0398210Y0572920D02*
X0398210Y0566920D01*
X0388210Y0566920D02*
X0388210Y0572920D01*
X0378210Y0572920D02*
X0378210Y0566920D01*
X0368210Y0566920D02*
X0368210Y0572920D01*
X0358210Y0572920D02*
X0358210Y0566920D01*
X0342210Y0566920D02*
X0342210Y0572920D01*
X0332210Y0572920D02*
X0332210Y0566920D01*
X0322210Y0566920D02*
X0322210Y0572920D01*
X0312210Y0572920D02*
X0312210Y0566920D01*
X0302210Y0566920D02*
X0302210Y0572920D01*
X0292210Y0572920D02*
X0292210Y0566920D01*
X0282210Y0566920D02*
X0282210Y0572920D01*
X0272210Y0572920D02*
X0272210Y0566920D01*
X0270210Y0539920D02*
X0276210Y0539920D01*
X0276210Y0529920D02*
X0270210Y0529920D01*
X0270210Y0519920D02*
X0276210Y0519920D01*
X0276210Y0509920D02*
X0270210Y0509920D01*
X0270210Y0499920D02*
X0276210Y0499920D01*
X0276210Y0489920D02*
X0270210Y0489920D01*
X0285210Y0389920D02*
X0291210Y0389920D01*
X0291210Y0379920D02*
X0285210Y0379920D01*
X0313210Y0376920D02*
X0313210Y0382920D01*
X0323210Y0382920D02*
X0323210Y0376920D01*
X0333210Y0376920D02*
X0333210Y0382920D01*
X0343210Y0382920D02*
X0343210Y0376920D01*
X0353210Y0376920D02*
X0353210Y0382920D01*
X0363210Y0382920D02*
X0363210Y0376920D01*
X0378210Y0376920D02*
X0378210Y0382920D01*
X0388210Y0382920D02*
X0388210Y0376920D01*
X0398210Y0376920D02*
X0398210Y0382920D01*
X0408210Y0382920D02*
X0408210Y0376920D01*
X0418210Y0376920D02*
X0418210Y0382920D01*
X0428210Y0382920D02*
X0428210Y0376920D01*
D38*
X0578370Y0377360D03*
X0588210Y0377360D03*
X0598050Y0377360D03*
D72*
X0605530Y0404920D03*
X0570890Y0404920D03*
D13*
X0483210Y0534920D03*
X0483210Y0544920D03*
X0483210Y0554920D03*
X0483210Y0564920D03*
X0503210Y0559920D03*
X0503210Y0549920D03*
X0503210Y0539920D03*
X0543210Y0539920D03*
X0543210Y0549920D03*
X0543210Y0559920D03*
X0443210Y0554920D03*
X0443210Y0564920D03*
X0443210Y0544920D03*
X0443210Y0534920D03*
D100*
X0378210Y0529920D03*
X0358210Y0554920D03*
X0350710Y0572420D03*
X0298210Y0524920D03*
X0318210Y0519920D03*
X0328210Y0499920D03*
X0313210Y0489920D03*
X0303210Y0482420D03*
X0293210Y0469920D03*
X0293210Y0449920D03*
X0293210Y0442420D03*
X0343210Y0474920D03*
X0408210Y0469920D03*
X0443210Y0424920D03*
X0626910Y0380760D02*
G75*
%LPD*%
D98*
X0973420Y0412800D03*
X0973420Y0522800D03*
D81*
X0962460Y0464930D02*
X0962460Y0459730D01*
X0952460Y0459730D02*
X0952460Y0464930D01*
X0942460Y0464930D02*
X0942460Y0459730D01*
X0932460Y0459730D02*
X0932460Y0464930D01*
X0922460Y0464930D02*
X0922460Y0459730D01*
X0912460Y0459730D02*
X0912460Y0464930D01*
X0902460Y0464930D02*
X0902460Y0459730D01*
X0892460Y0459730D02*
X0892460Y0464930D01*
X0882460Y0464930D02*
X0882460Y0459730D01*
X0872460Y0459730D02*
X0872460Y0464930D01*
X0862460Y0464930D02*
X0862460Y0459730D01*
X0852460Y0459730D02*
X0852460Y0464930D01*
X0842460Y0464930D02*
X0842460Y0459730D01*
X0832460Y0459730D02*
X0832460Y0464930D01*
X0832460Y0434930D02*
X0832460Y0429730D01*
X0842460Y0429730D02*
X0842460Y0434930D01*
X0852460Y0434930D02*
X0852460Y0429730D01*
X0862460Y0429730D02*
X0862460Y0434930D01*
X0872460Y0434930D02*
X0872460Y0429730D01*
X0882460Y0429730D02*
X0882460Y0434930D01*
X0892460Y0434930D02*
X0892460Y0429730D01*
X0902460Y0429730D02*
X0902460Y0434930D01*
X0912460Y0434930D02*
X0912460Y0429730D01*
X0922460Y0429730D02*
X0922460Y0434930D01*
X0932460Y0434930D02*
X0932460Y0429730D01*
X0942460Y0429730D02*
X0942460Y0434930D01*
X0952460Y0434930D02*
X0952460Y0429730D01*
X0962460Y0429730D02*
X0962460Y0434930D01*
X0757020Y0461800D02*
X0751820Y0461800D01*
X0751820Y0471800D02*
X0757020Y0471800D01*
X0757020Y0481800D02*
X0751820Y0481800D01*
X0751820Y0491800D02*
X0757020Y0491800D01*
X0757020Y0501800D02*
X0751820Y0501800D01*
X0751820Y0511800D02*
X0757020Y0511800D01*
X0757020Y0521800D02*
X0751820Y0521800D01*
X0751820Y0531800D02*
X0757020Y0531800D01*
X0757020Y0541800D02*
X0751820Y0541800D01*
X0751820Y0551800D02*
X0757020Y0551800D01*
X0727020Y0551800D02*
X0721820Y0551800D01*
X0721820Y0541800D02*
X0727020Y0541800D01*
X0727020Y0531800D02*
X0721820Y0531800D01*
X0721820Y0521800D02*
X0727020Y0521800D01*
X0727020Y0511800D02*
X0721820Y0511800D01*
X0721820Y0501800D02*
X0727020Y0501800D01*
X0727020Y0491800D02*
X0721820Y0491800D01*
X0721820Y0481800D02*
X0727020Y0481800D01*
X0727020Y0471800D02*
X0721820Y0471800D01*
X0721820Y0461800D02*
X0727020Y0461800D01*
D28*
X0738420Y0573800D03*
X0748420Y0573800D03*
X0748420Y0583800D03*
X0738420Y0583800D03*
X0728420Y0583800D03*
X0962970Y0502600D03*
X0972970Y0502600D03*
X0972970Y0492600D03*
X0962970Y0492600D03*
X0962970Y0482600D03*
X0972970Y0482600D03*
D13*
X0952420Y0520800D03*
X0952720Y0530800D03*
X0952660Y0540500D03*
X0952720Y0550500D03*
X0952820Y0560400D03*
X0912820Y0560400D03*
X0912720Y0550500D03*
X0912660Y0540500D03*
X0912720Y0530800D03*
X0912420Y0520800D03*
X0898810Y0520690D03*
X0888090Y0520700D03*
X0877060Y0520500D03*
X0877060Y0540500D03*
X0888090Y0540700D03*
X0898810Y0540690D03*
X0858420Y0544200D03*
X0858420Y0554200D03*
X0840120Y0554200D03*
X0840120Y0544200D03*
X0778420Y0493800D03*
X0768420Y0493800D03*
X0800420Y0482800D03*
X0800420Y0462800D03*
X0778420Y0453800D03*
X0768420Y0453800D03*
X0763420Y0430800D03*
X0754420Y0430800D03*
X0754420Y0420800D03*
X0763420Y0420800D03*
X0767780Y0408410D03*
X0767780Y0388410D03*
X0683420Y0455800D03*
X0673420Y0455800D03*
X0657420Y0455800D03*
X0647420Y0455800D03*
X0635920Y0463700D03*
X0648420Y0475800D03*
X0660120Y0475800D03*
X0671420Y0475800D03*
X0682420Y0475800D03*
X0682420Y0495800D03*
X0671420Y0495800D03*
X0660120Y0495800D03*
X0648420Y0495800D03*
X0635920Y0503700D03*
X0679420Y0510800D03*
X0690420Y0510800D03*
X0701420Y0510800D03*
X0701420Y0550800D03*
X0690420Y0550800D03*
X0679420Y0550800D03*
D49*
X0701220Y0491800D02*
X0705620Y0491800D01*
X0705620Y0471800D02*
X0701220Y0471800D01*
X0872430Y0501630D02*
X0872430Y0506030D01*
X0892430Y0506030D02*
X0892430Y0501630D01*
D55*
X0913920Y0498450D02*
X0919920Y0498450D01*
X0939520Y0498450D02*
X0945520Y0498450D01*
X0945520Y0480650D02*
X0939520Y0480650D01*
X0919920Y0480650D02*
X0913920Y0480650D01*
X0803420Y0509800D02*
X0797420Y0509800D01*
X0797420Y0519800D02*
X0803420Y0519800D01*
X0803420Y0529800D02*
X0797420Y0529800D01*
X0797420Y0539800D02*
X0803420Y0539800D01*
X0803420Y0549800D02*
X0797420Y0549800D01*
X0797420Y0559800D02*
X0803420Y0559800D01*
X0783420Y0559800D02*
X0777420Y0559800D01*
X0777420Y0549800D02*
X0783420Y0549800D01*
X0783420Y0539800D02*
X0777420Y0539800D01*
X0777420Y0529800D02*
X0783420Y0529800D01*
X0783420Y0519800D02*
X0777420Y0519800D01*
X0777420Y0509800D02*
X0783420Y0509800D01*
X0806140Y0579870D02*
X0806140Y0585870D01*
X0816140Y0585870D02*
X0816140Y0579870D01*
X0826140Y0579870D02*
X0826140Y0585870D01*
X0836140Y0585870D02*
X0836140Y0579870D01*
X0846140Y0579870D02*
X0846140Y0585870D01*
X0856140Y0585870D02*
X0856140Y0579870D01*
X0866140Y0579870D02*
X0866140Y0585870D01*
X0876140Y0585870D02*
X0876140Y0579870D01*
X0892130Y0579710D02*
X0892130Y0585710D01*
X0902130Y0585710D02*
X0902130Y0579710D01*
X0912130Y0579710D02*
X0912130Y0585710D01*
X0922130Y0585710D02*
X0922130Y0579710D01*
X0932130Y0579710D02*
X0932130Y0585710D01*
X0942130Y0585710D02*
X0942130Y0579710D01*
X0952130Y0579710D02*
X0952130Y0585710D01*
X0962130Y0585710D02*
X0962130Y0579710D01*
X0729120Y0428300D02*
X0729120Y0422300D01*
X0719120Y0422300D02*
X0719120Y0428300D01*
X0709120Y0428300D02*
X0709120Y0422300D01*
X0777420Y0422800D02*
X0783420Y0422800D01*
X0797420Y0422800D02*
X0803420Y0422800D01*
X0803420Y0412800D02*
X0797420Y0412800D01*
X0797420Y0402800D02*
X0803420Y0402800D01*
X0803420Y0392800D02*
X0797420Y0392800D01*
X0783420Y0392800D02*
X0777420Y0392800D01*
X0777420Y0402800D02*
X0783420Y0402800D01*
X0783420Y0412800D02*
X0777420Y0412800D01*
X0842420Y0395800D02*
X0842420Y0389800D01*
X0852420Y0389800D02*
X0852420Y0395800D01*
X0862420Y0395800D02*
X0862420Y0389800D01*
X0872420Y0389800D02*
X0872420Y0395800D01*
X0882420Y0395800D02*
X0882420Y0389800D01*
X0892420Y0389800D02*
X0892420Y0395800D01*
X0912540Y0395910D02*
X0912540Y0389910D01*
X0922540Y0389910D02*
X0922540Y0395910D01*
X0932540Y0395910D02*
X0932540Y0389910D01*
X0942540Y0389910D02*
X0942540Y0395910D01*
X0952540Y0395910D02*
X0952540Y0389910D01*
X0962540Y0389910D02*
X0962540Y0395910D01*
X0647420Y0512800D02*
X0647420Y0518800D01*
X0637420Y0518800D02*
X0637420Y0512800D01*
D93*
X0689110Y0426660D03*
X0689110Y0386660D03*
D92*
X0711830Y0405850D03*
X0744810Y0405870D03*
D71*
X0744810Y0391870D03*
X0711830Y0391850D03*
D50*
X0661620Y0392800D03*
X0673420Y0412500D03*
X0649820Y0412500D03*
D78*
X0653090Y0547880D03*
X0660960Y0547880D03*
X0660960Y0557720D03*
X0653090Y0557720D03*
D89*
X0642420Y0576500D03*
X0642420Y0529100D03*
D88*
X0728420Y0573800D03*
D102*
X0707130Y0569850D02*
X0707130Y0560430D01*
X0697710Y0560430D01*
X0697710Y0569850D01*
X0707130Y0569850D01*
X0707130Y0561240D02*
X0697710Y0561240D01*
X0697710Y0562050D02*
X0707130Y0562050D01*
X0707130Y0562860D02*
X0697710Y0562860D01*
X0697710Y0563670D02*
X0707130Y0563670D01*
X0707130Y0564480D02*
X0697710Y0564480D01*
X0697710Y0565290D02*
X0707130Y0565290D01*
X0707130Y0566100D02*
X0697710Y0566100D01*
X0697710Y0566910D02*
X0707130Y0566910D01*
X0707130Y0567720D02*
X0697710Y0567720D01*
X0697710Y0568530D02*
X0707130Y0568530D01*
X0707130Y0569340D02*
X0697710Y0569340D01*
X0684130Y0569850D02*
X0684130Y0560430D01*
X0674710Y0560430D01*
X0674710Y0569850D01*
X0684130Y0569850D01*
X0684130Y0561240D02*
X0674710Y0561240D01*
X0674710Y0562050D02*
X0684130Y0562050D01*
X0684130Y0562860D02*
X0674710Y0562860D01*
X0674710Y0563670D02*
X0684130Y0563670D01*
X0684130Y0564480D02*
X0674710Y0564480D01*
X0674710Y0565290D02*
X0684130Y0565290D01*
X0684130Y0566100D02*
X0674710Y0566100D01*
X0674710Y0566910D02*
X0684130Y0566910D01*
X0684130Y0567720D02*
X0674710Y0567720D01*
X0674710Y0568530D02*
X0684130Y0568530D01*
X0684130Y0569340D02*
X0674710Y0569340D01*
X0684130Y0577750D02*
X0684130Y0587170D01*
X0684130Y0577750D02*
X0674710Y0577750D01*
X0674710Y0587170D01*
X0684130Y0587170D01*
X0684130Y0578560D02*
X0674710Y0578560D01*
X0674710Y0579370D02*
X0684130Y0579370D01*
X0684130Y0580180D02*
X0674710Y0580180D01*
X0674710Y0580990D02*
X0684130Y0580990D01*
X0684130Y0581800D02*
X0674710Y0581800D01*
X0674710Y0582610D02*
X0684130Y0582610D01*
X0684130Y0583420D02*
X0674710Y0583420D01*
X0674710Y0584230D02*
X0684130Y0584230D01*
X0684130Y0585040D02*
X0674710Y0585040D01*
X0674710Y0585850D02*
X0684130Y0585850D01*
X0684130Y0586660D02*
X0674710Y0586660D01*
X0707130Y0587170D02*
X0707130Y0577750D01*
X0697710Y0577750D01*
X0697710Y0587170D01*
X0707130Y0587170D01*
X0707130Y0578560D02*
X0697710Y0578560D01*
X0697710Y0579370D02*
X0707130Y0579370D01*
X0707130Y0580180D02*
X0697710Y0580180D01*
X0697710Y0580990D02*
X0707130Y0580990D01*
X0707130Y0581800D02*
X0697710Y0581800D01*
X0697710Y0582610D02*
X0707130Y0582610D01*
X0707130Y0583420D02*
X0697710Y0583420D01*
X0697710Y0584230D02*
X0707130Y0584230D01*
X0707130Y0585040D02*
X0697710Y0585040D01*
X0697710Y0585850D02*
X0707130Y0585850D01*
X0707130Y0586660D02*
X0697710Y0586660D01*
D55*
X0768420Y0583800D03*
X0768420Y0573800D03*
D102*
X0746910Y0421810D02*
X0746910Y0419330D01*
X0741930Y0419330D01*
X0741930Y0421810D01*
X0746910Y0421810D01*
X0746910Y0420140D02*
X0741930Y0420140D01*
X0741930Y0420950D02*
X0746910Y0420950D01*
X0746910Y0421760D02*
X0741930Y0421760D01*
X0746910Y0418270D02*
X0746910Y0415790D01*
X0741930Y0415790D01*
X0741930Y0418270D01*
X0746910Y0418270D01*
X0746910Y0416600D02*
X0741930Y0416600D01*
X0741930Y0417410D02*
X0746910Y0417410D01*
X0746910Y0418220D02*
X0741930Y0418220D01*
D96*
X0837420Y0444800D03*
X0855420Y0449800D03*
X0903420Y0410800D03*
X0972420Y0431800D03*
X0887420Y0526800D03*
X0877420Y0533800D03*
X0831420Y0535800D03*
X0831420Y0525800D03*
X0811420Y0530800D03*
X0807420Y0514800D03*
X0963420Y0538800D03*
D91*
X0790420Y0539800D03*
X0790420Y0529800D03*
X0790420Y0519800D03*
X0790420Y0509800D03*
X0790420Y0549800D03*
X0790420Y0559800D03*
X0790420Y0422800D03*
X0790420Y0412800D03*
X0790420Y0402800D03*
X0790420Y0392800D03*
M02*
