G75*
G70*
%OFA0B0*%
%FSLAX25Y25*%
%IPPOS*%
%LPD*%
%AMOC8*
5,1,8,0,0,1.08239X$1,22.5*
%
%ADD105R,0.02500X0.05000*%
%ADD112R,0.12500X0.05000*%
%ADD13OC8,0.06000*%
%ADD14OC8,0.05740*%
%ADD17R,0.00870X0.04800*%
%ADD18C,0.01200*%
%ADD21C,0.02400*%
%ADD27C,0.06600*%
%ADD29R,0.05910X0.01970*%
%ADD30R,0.05000X0.12500*%
%ADD32R,0.06000X0.06000*%
%ADD33C,0.01600*%
%ADD35R,0.05000X0.02500*%
%ADD40C,0.15800*%
%ADD41R,0.02400X0.08700*%
%ADD42R,0.08270X0.02360*%
%ADD43C,0.16600*%
%ADD45C,0.03960*%
%ADD46C,0.06500*%
%ADD48C,0.00800*%
%ADD49C,0.05200*%
%ADD51R,0.04720X0.03150*%
%ADD52C,0.04000*%
%ADD53R,0.04800X0.00870*%
%ADD54R,0.05000X0.02200*%
%ADD56R,0.06500X0.06500*%
%ADD60R,0.02200X0.05000*%
%ADD65C,0.06300*%
%ADD66C,0.05000*%
%ADD67C,0.04750*%
%ADD68R,0.05940X0.05940*%
%ADD69R,0.03150X0.04720*%
%ADD70C,0.03200*%
%ADD74R,0.09450X0.09450*%
%ADD77OC8,0.05200*%
%ADD79OC8,0.19000*%
%ADD81C,0.06000*%
%ADD82R,0.04920X0.00870*%
%ADD83C,0.01000*%
%ADD84C,0.04400*%
%ADD85R,0.02360X0.08660*%
%ADD87OC8,0.11810*%
%ADD93C,0.07400*%
%ADD94R,0.01970X0.05910*%
%ADD97OC8,0.06300*%
X0020000Y0020000D02*
G75*
%LPD*%
D49*
X0062560Y0092000D02*
X0057360Y0092000D01*
X0057360Y0102000D02*
X0062560Y0102000D01*
X0062560Y0112000D02*
X0057360Y0112000D01*
X0057360Y0122000D02*
X0062560Y0122000D01*
X0062560Y0132000D02*
X0057360Y0132000D01*
X0057360Y0142000D02*
X0062560Y0142000D01*
X0062560Y0152000D02*
X0057360Y0152000D01*
X0057360Y0162000D02*
X0062560Y0162000D01*
X0032560Y0162000D02*
X0027360Y0162000D01*
X0027360Y0152000D02*
X0032560Y0152000D01*
X0032560Y0142000D02*
X0027360Y0142000D01*
X0027360Y0132000D02*
X0032560Y0132000D01*
X0032560Y0122000D02*
X0027360Y0122000D01*
X0027360Y0112000D02*
X0032560Y0112000D01*
X0032560Y0102000D02*
X0027360Y0102000D01*
X0027360Y0092000D02*
X0032560Y0092000D01*
D77*
X0032460Y0077000D03*
X0032460Y0067000D03*
X0032460Y0057000D03*
X0032460Y0047000D03*
X0062460Y0047000D03*
X0062460Y0057000D03*
X0062460Y0067000D03*
X0062460Y0077000D03*
X0079960Y0067000D03*
X0079960Y0057000D03*
X0079960Y0037000D03*
X0079960Y0027000D03*
X0079960Y0087000D03*
X0079960Y0097000D03*
X0079960Y0117000D03*
X0079960Y0127000D03*
X0079960Y0147000D03*
X0079960Y0157000D03*
X0079960Y0177000D03*
X0079960Y0187000D03*
X0079960Y0207000D03*
X0079960Y0217000D03*
X0079960Y0237000D03*
X0079960Y0247000D03*
X0059960Y0204500D03*
X0059960Y0194500D03*
X0059960Y0184500D03*
X0059960Y0174500D03*
X0029960Y0174500D03*
X0029960Y0184500D03*
X0029960Y0194500D03*
X0029960Y0204500D03*
D112*
X0082460Y0027000D03*
X0082460Y0037000D03*
X0082460Y0057000D03*
X0082460Y0067000D03*
X0082460Y0087000D03*
X0082460Y0097000D03*
X0082460Y0117000D03*
X0082460Y0127000D03*
X0082460Y0147000D03*
X0082460Y0157000D03*
X0082460Y0177000D03*
X0082460Y0187000D03*
X0082460Y0207000D03*
X0082460Y0217000D03*
X0082460Y0237000D03*
X0082460Y0247000D03*
D81*
X0067960Y0221000D02*
X0067960Y0215000D01*
X0057960Y0215000D02*
X0057960Y0221000D01*
X0047960Y0221000D02*
X0047960Y0215000D01*
X0037960Y0215000D02*
X0037960Y0221000D01*
X0027960Y0221000D02*
X0027960Y0215000D01*
X0028960Y0038000D02*
X0028960Y0032000D01*
X0038960Y0032000D02*
X0038960Y0038000D01*
X0048960Y0038000D02*
X0048960Y0032000D01*
X0058960Y0032000D02*
X0058960Y0038000D01*
X0068960Y0038000D02*
X0068960Y0032000D01*
D33*
X0029960Y0092000D02*
X0023960Y0092000D01*
X0023960Y0035000D01*
X0028960Y0035000D01*
D83*
X0032460Y0047000D02*
X0052960Y0047000D01*
X0052960Y0122000D01*
X0059960Y0122000D01*
X0059960Y0132000D02*
X0050960Y0132000D01*
X0050960Y0057000D01*
X0032460Y0057000D01*
X0032460Y0067000D02*
X0048960Y0067000D01*
X0048960Y0142000D01*
X0059960Y0142000D01*
X0059960Y0152000D02*
X0046960Y0152000D01*
X0046960Y0077000D01*
X0032460Y0077000D01*
X0029960Y0092000D02*
X0029960Y0102000D01*
X0029960Y0112000D02*
X0042960Y0112000D01*
X0042960Y0204500D01*
X0029960Y0204500D01*
X0029960Y0194500D02*
X0029960Y0194000D01*
X0040960Y0194000D01*
X0040960Y0122000D01*
X0029960Y0122000D01*
X0029960Y0132000D02*
X0038960Y0132000D01*
X0038960Y0184500D01*
X0029960Y0184500D01*
X0029960Y0174500D02*
X0036960Y0174500D01*
X0036960Y0142000D01*
X0029960Y0142000D01*
X0041960Y0104000D02*
X0044960Y0104000D01*
X0044960Y0154000D01*
X0049960Y0154000D01*
X0049960Y0210000D01*
X0056960Y0210000D01*
X0056960Y0218000D01*
X0057960Y0218000D01*
X0064960Y0206000D02*
X0064960Y0174000D01*
X0059960Y0174000D01*
X0059960Y0174500D01*
X0054960Y0168000D02*
X0066960Y0168000D01*
X0066960Y0102000D01*
X0067960Y0102000D01*
X0067960Y0085000D01*
X0054960Y0085000D01*
X0054960Y0045000D01*
X0048960Y0045000D01*
X0048960Y0035000D01*
X0062460Y0047000D02*
X0074960Y0047000D01*
X0074960Y0027000D01*
X0079960Y0027000D01*
X0079960Y0057000D02*
X0079960Y0058000D01*
X0062460Y0058000D01*
X0062460Y0057000D01*
X0062460Y0067000D02*
X0074960Y0067000D01*
X0074960Y0087000D01*
X0079960Y0087000D01*
X0072960Y0077000D02*
X0062460Y0077000D01*
X0059960Y0102000D02*
X0066960Y0102000D01*
X0072960Y0117000D02*
X0072960Y0077000D01*
X0072960Y0117000D02*
X0079960Y0117000D01*
X0079960Y0147000D02*
X0068960Y0147000D01*
X0068960Y0201000D01*
X0064960Y0206000D02*
X0074960Y0206000D01*
X0074960Y0237000D01*
X0079960Y0237000D01*
X0073960Y0197000D02*
X0073960Y0183000D01*
X0079960Y0177000D01*
X0041960Y0104000D02*
X0041960Y0092000D01*
D45*
X0041960Y0092000D03*
X0041960Y0104000D03*
X0068960Y0201000D03*
X0073960Y0197000D03*
X0094960Y0020000D02*
G75*
%LPD*%
D49*
X0137520Y0092000D02*
X0132320Y0092000D01*
X0132320Y0102000D02*
X0137520Y0102000D01*
X0137520Y0112000D02*
X0132320Y0112000D01*
X0132320Y0122000D02*
X0137520Y0122000D01*
X0137520Y0132000D02*
X0132320Y0132000D01*
X0132320Y0142000D02*
X0137520Y0142000D01*
X0137520Y0152000D02*
X0132320Y0152000D01*
X0132320Y0162000D02*
X0137520Y0162000D01*
X0107520Y0162000D02*
X0102320Y0162000D01*
X0102320Y0152000D02*
X0107520Y0152000D01*
X0107520Y0142000D02*
X0102320Y0142000D01*
X0102320Y0132000D02*
X0107520Y0132000D01*
X0107520Y0122000D02*
X0102320Y0122000D01*
X0102320Y0112000D02*
X0107520Y0112000D01*
X0107520Y0102000D02*
X0102320Y0102000D01*
X0102320Y0092000D02*
X0107520Y0092000D01*
D77*
X0107420Y0077000D03*
X0107420Y0067000D03*
X0107420Y0057000D03*
X0107420Y0047000D03*
X0137420Y0047000D03*
X0137420Y0057000D03*
X0137420Y0067000D03*
X0137420Y0077000D03*
X0154920Y0067000D03*
X0154920Y0057000D03*
X0154920Y0037000D03*
X0154920Y0027000D03*
X0154920Y0087000D03*
X0154920Y0097000D03*
X0154920Y0117000D03*
X0154920Y0127000D03*
X0154920Y0147000D03*
X0154920Y0157000D03*
X0154920Y0177000D03*
X0154920Y0187000D03*
X0154920Y0207000D03*
X0154920Y0217000D03*
X0154920Y0237000D03*
X0154920Y0247000D03*
X0134920Y0204500D03*
X0134920Y0194500D03*
X0134920Y0184500D03*
X0134920Y0174500D03*
X0104920Y0174500D03*
X0104920Y0184500D03*
X0104920Y0194500D03*
X0104920Y0204500D03*
D112*
X0157420Y0027000D03*
X0157420Y0037000D03*
X0157420Y0057000D03*
X0157420Y0067000D03*
X0157420Y0087000D03*
X0157420Y0097000D03*
X0157420Y0117000D03*
X0157420Y0127000D03*
X0157420Y0147000D03*
X0157420Y0157000D03*
X0157420Y0177000D03*
X0157420Y0187000D03*
X0157420Y0207000D03*
X0157420Y0217000D03*
X0157420Y0237000D03*
X0157420Y0247000D03*
D81*
X0142920Y0221000D02*
X0142920Y0215000D01*
X0132920Y0215000D02*
X0132920Y0221000D01*
X0122920Y0221000D02*
X0122920Y0215000D01*
X0112920Y0215000D02*
X0112920Y0221000D01*
X0102920Y0221000D02*
X0102920Y0215000D01*
X0103920Y0038000D02*
X0103920Y0032000D01*
X0113920Y0032000D02*
X0113920Y0038000D01*
X0123920Y0038000D02*
X0123920Y0032000D01*
X0133920Y0032000D02*
X0133920Y0038000D01*
X0143920Y0038000D02*
X0143920Y0032000D01*
D33*
X0104920Y0092000D02*
X0098920Y0092000D01*
X0098920Y0035000D01*
X0103920Y0035000D01*
D83*
X0107420Y0047000D02*
X0127920Y0047000D01*
X0127920Y0122000D01*
X0134920Y0122000D01*
X0134920Y0132000D02*
X0125920Y0132000D01*
X0125920Y0057000D01*
X0107420Y0057000D01*
X0107420Y0067000D02*
X0123920Y0067000D01*
X0123920Y0142000D01*
X0134920Y0142000D01*
X0134920Y0152000D02*
X0121920Y0152000D01*
X0121920Y0077000D01*
X0107420Y0077000D01*
X0104920Y0092000D02*
X0104920Y0102000D01*
X0104920Y0112000D02*
X0117920Y0112000D01*
X0117920Y0204500D01*
X0104920Y0204500D01*
X0104920Y0194500D02*
X0104920Y0194000D01*
X0115920Y0194000D01*
X0115920Y0122000D01*
X0104920Y0122000D01*
X0104920Y0132000D02*
X0113920Y0132000D01*
X0113920Y0184500D01*
X0104920Y0184500D01*
X0104920Y0174500D02*
X0111920Y0174500D01*
X0111920Y0142000D01*
X0104920Y0142000D01*
X0116920Y0104000D02*
X0119920Y0104000D01*
X0119920Y0154000D01*
X0124920Y0154000D01*
X0124920Y0210000D01*
X0131920Y0210000D01*
X0131920Y0218000D01*
X0132920Y0218000D01*
X0139920Y0206000D02*
X0139920Y0174000D01*
X0134920Y0174000D01*
X0134920Y0174500D01*
X0129920Y0168000D02*
X0141920Y0168000D01*
X0141920Y0102000D01*
X0142920Y0102000D01*
X0142920Y0085000D01*
X0129920Y0085000D01*
X0129920Y0045000D01*
X0123920Y0045000D01*
X0123920Y0035000D01*
X0137420Y0047000D02*
X0149920Y0047000D01*
X0149920Y0027000D01*
X0154920Y0027000D01*
X0154920Y0057000D02*
X0154920Y0058000D01*
X0137420Y0058000D01*
X0137420Y0057000D01*
X0137420Y0067000D02*
X0149920Y0067000D01*
X0149920Y0087000D01*
X0154920Y0087000D01*
X0147920Y0077000D02*
X0137420Y0077000D01*
X0134920Y0102000D02*
X0141920Y0102000D01*
X0147920Y0117000D02*
X0147920Y0077000D01*
X0147920Y0117000D02*
X0154920Y0117000D01*
X0154920Y0147000D02*
X0143920Y0147000D01*
X0143920Y0201000D01*
X0139920Y0206000D02*
X0149920Y0206000D01*
X0149920Y0237000D01*
X0154920Y0237000D01*
X0148920Y0197000D02*
X0148920Y0183000D01*
X0154920Y0177000D01*
X0116920Y0104000D02*
X0116920Y0092000D01*
D45*
X0116920Y0092000D03*
X0116920Y0104000D03*
X0143920Y0201000D03*
X0148920Y0197000D03*
X0169920Y0020000D02*
G75*
%LPD*%
D49*
X0212480Y0092000D02*
X0207280Y0092000D01*
X0207280Y0102000D02*
X0212480Y0102000D01*
X0212480Y0112000D02*
X0207280Y0112000D01*
X0207280Y0122000D02*
X0212480Y0122000D01*
X0212480Y0132000D02*
X0207280Y0132000D01*
X0207280Y0142000D02*
X0212480Y0142000D01*
X0212480Y0152000D02*
X0207280Y0152000D01*
X0207280Y0162000D02*
X0212480Y0162000D01*
X0182480Y0162000D02*
X0177280Y0162000D01*
X0177280Y0152000D02*
X0182480Y0152000D01*
X0182480Y0142000D02*
X0177280Y0142000D01*
X0177280Y0132000D02*
X0182480Y0132000D01*
X0182480Y0122000D02*
X0177280Y0122000D01*
X0177280Y0112000D02*
X0182480Y0112000D01*
X0182480Y0102000D02*
X0177280Y0102000D01*
X0177280Y0092000D02*
X0182480Y0092000D01*
D77*
X0182380Y0077000D03*
X0182380Y0067000D03*
X0182380Y0057000D03*
X0182380Y0047000D03*
X0212380Y0047000D03*
X0212380Y0057000D03*
X0212380Y0067000D03*
X0212380Y0077000D03*
X0229880Y0067000D03*
X0229880Y0057000D03*
X0229880Y0037000D03*
X0229880Y0027000D03*
X0229880Y0087000D03*
X0229880Y0097000D03*
X0229880Y0117000D03*
X0229880Y0127000D03*
X0229880Y0147000D03*
X0229880Y0157000D03*
X0229880Y0177000D03*
X0229880Y0187000D03*
X0229880Y0207000D03*
X0229880Y0217000D03*
X0229880Y0237000D03*
X0229880Y0247000D03*
X0209880Y0204500D03*
X0209880Y0194500D03*
X0209880Y0184500D03*
X0209880Y0174500D03*
X0179880Y0174500D03*
X0179880Y0184500D03*
X0179880Y0194500D03*
X0179880Y0204500D03*
D112*
X0232380Y0027000D03*
X0232380Y0037000D03*
X0232380Y0057000D03*
X0232380Y0067000D03*
X0232380Y0087000D03*
X0232380Y0097000D03*
X0232380Y0117000D03*
X0232380Y0127000D03*
X0232380Y0147000D03*
X0232380Y0157000D03*
X0232380Y0177000D03*
X0232380Y0187000D03*
X0232380Y0207000D03*
X0232380Y0217000D03*
X0232380Y0237000D03*
X0232380Y0247000D03*
D81*
X0217880Y0221000D02*
X0217880Y0215000D01*
X0207880Y0215000D02*
X0207880Y0221000D01*
X0197880Y0221000D02*
X0197880Y0215000D01*
X0187880Y0215000D02*
X0187880Y0221000D01*
X0177880Y0221000D02*
X0177880Y0215000D01*
X0178880Y0038000D02*
X0178880Y0032000D01*
X0188880Y0032000D02*
X0188880Y0038000D01*
X0198880Y0038000D02*
X0198880Y0032000D01*
X0208880Y0032000D02*
X0208880Y0038000D01*
X0218880Y0038000D02*
X0218880Y0032000D01*
D33*
X0179880Y0092000D02*
X0173880Y0092000D01*
X0173880Y0035000D01*
X0178880Y0035000D01*
D83*
X0182380Y0047000D02*
X0202880Y0047000D01*
X0202880Y0122000D01*
X0209880Y0122000D01*
X0209880Y0132000D02*
X0200880Y0132000D01*
X0200880Y0057000D01*
X0182380Y0057000D01*
X0182380Y0067000D02*
X0198880Y0067000D01*
X0198880Y0142000D01*
X0209880Y0142000D01*
X0209880Y0152000D02*
X0196880Y0152000D01*
X0196880Y0077000D01*
X0182380Y0077000D01*
X0179880Y0092000D02*
X0179880Y0102000D01*
X0179880Y0112000D02*
X0192880Y0112000D01*
X0192880Y0204500D01*
X0179880Y0204500D01*
X0179880Y0194500D02*
X0179880Y0194000D01*
X0190880Y0194000D01*
X0190880Y0122000D01*
X0179880Y0122000D01*
X0179880Y0132000D02*
X0188880Y0132000D01*
X0188880Y0184500D01*
X0179880Y0184500D01*
X0179880Y0174500D02*
X0186880Y0174500D01*
X0186880Y0142000D01*
X0179880Y0142000D01*
X0191880Y0104000D02*
X0194880Y0104000D01*
X0194880Y0154000D01*
X0199880Y0154000D01*
X0199880Y0210000D01*
X0206880Y0210000D01*
X0206880Y0218000D01*
X0207880Y0218000D01*
X0214880Y0206000D02*
X0214880Y0174000D01*
X0209880Y0174000D01*
X0209880Y0174500D01*
X0204880Y0168000D02*
X0216880Y0168000D01*
X0216880Y0102000D01*
X0217880Y0102000D01*
X0217880Y0085000D01*
X0204880Y0085000D01*
X0204880Y0045000D01*
X0198880Y0045000D01*
X0198880Y0035000D01*
X0212380Y0047000D02*
X0224880Y0047000D01*
X0224880Y0027000D01*
X0229880Y0027000D01*
X0229880Y0057000D02*
X0229880Y0058000D01*
X0212380Y0058000D01*
X0212380Y0057000D01*
X0212380Y0067000D02*
X0224880Y0067000D01*
X0224880Y0087000D01*
X0229880Y0087000D01*
X0222880Y0077000D02*
X0212380Y0077000D01*
X0209880Y0102000D02*
X0216880Y0102000D01*
X0222880Y0117000D02*
X0222880Y0077000D01*
X0222880Y0117000D02*
X0229880Y0117000D01*
X0229880Y0147000D02*
X0218880Y0147000D01*
X0218880Y0201000D01*
X0214880Y0206000D02*
X0224880Y0206000D01*
X0224880Y0237000D01*
X0229880Y0237000D01*
X0223880Y0197000D02*
X0223880Y0183000D01*
X0229880Y0177000D01*
X0191880Y0104000D02*
X0191880Y0092000D01*
D45*
X0191880Y0092000D03*
X0191880Y0104000D03*
X0218880Y0201000D03*
X0223880Y0197000D03*
X0244880Y0020000D02*
G75*
%LPD*%
D49*
X0287440Y0092000D02*
X0282240Y0092000D01*
X0282240Y0102000D02*
X0287440Y0102000D01*
X0287440Y0112000D02*
X0282240Y0112000D01*
X0282240Y0122000D02*
X0287440Y0122000D01*
X0287440Y0132000D02*
X0282240Y0132000D01*
X0282240Y0142000D02*
X0287440Y0142000D01*
X0287440Y0152000D02*
X0282240Y0152000D01*
X0282240Y0162000D02*
X0287440Y0162000D01*
X0257440Y0162000D02*
X0252240Y0162000D01*
X0252240Y0152000D02*
X0257440Y0152000D01*
X0257440Y0142000D02*
X0252240Y0142000D01*
X0252240Y0132000D02*
X0257440Y0132000D01*
X0257440Y0122000D02*
X0252240Y0122000D01*
X0252240Y0112000D02*
X0257440Y0112000D01*
X0257440Y0102000D02*
X0252240Y0102000D01*
X0252240Y0092000D02*
X0257440Y0092000D01*
D77*
X0257340Y0077000D03*
X0257340Y0067000D03*
X0257340Y0057000D03*
X0257340Y0047000D03*
X0287340Y0047000D03*
X0287340Y0057000D03*
X0287340Y0067000D03*
X0287340Y0077000D03*
X0304840Y0067000D03*
X0304840Y0057000D03*
X0304840Y0037000D03*
X0304840Y0027000D03*
X0304840Y0087000D03*
X0304840Y0097000D03*
X0304840Y0117000D03*
X0304840Y0127000D03*
X0304840Y0147000D03*
X0304840Y0157000D03*
X0304840Y0177000D03*
X0304840Y0187000D03*
X0304840Y0207000D03*
X0304840Y0217000D03*
X0304840Y0237000D03*
X0304840Y0247000D03*
X0284840Y0204500D03*
X0284840Y0194500D03*
X0284840Y0184500D03*
X0284840Y0174500D03*
X0254840Y0174500D03*
X0254840Y0184500D03*
X0254840Y0194500D03*
X0254840Y0204500D03*
D112*
X0307340Y0027000D03*
X0307340Y0037000D03*
X0307340Y0057000D03*
X0307340Y0067000D03*
X0307340Y0087000D03*
X0307340Y0097000D03*
X0307340Y0117000D03*
X0307340Y0127000D03*
X0307340Y0147000D03*
X0307340Y0157000D03*
X0307340Y0177000D03*
X0307340Y0187000D03*
X0307340Y0207000D03*
X0307340Y0217000D03*
X0307340Y0237000D03*
X0307340Y0247000D03*
D81*
X0292840Y0221000D02*
X0292840Y0215000D01*
X0282840Y0215000D02*
X0282840Y0221000D01*
X0272840Y0221000D02*
X0272840Y0215000D01*
X0262840Y0215000D02*
X0262840Y0221000D01*
X0252840Y0221000D02*
X0252840Y0215000D01*
X0253840Y0038000D02*
X0253840Y0032000D01*
X0263840Y0032000D02*
X0263840Y0038000D01*
X0273840Y0038000D02*
X0273840Y0032000D01*
X0283840Y0032000D02*
X0283840Y0038000D01*
X0293840Y0038000D02*
X0293840Y0032000D01*
D33*
X0254840Y0092000D02*
X0248840Y0092000D01*
X0248840Y0035000D01*
X0253840Y0035000D01*
D83*
X0257340Y0047000D02*
X0277840Y0047000D01*
X0277840Y0122000D01*
X0284840Y0122000D01*
X0284840Y0132000D02*
X0275840Y0132000D01*
X0275840Y0057000D01*
X0257340Y0057000D01*
X0257340Y0067000D02*
X0273840Y0067000D01*
X0273840Y0142000D01*
X0284840Y0142000D01*
X0284840Y0152000D02*
X0271840Y0152000D01*
X0271840Y0077000D01*
X0257340Y0077000D01*
X0254840Y0092000D02*
X0254840Y0102000D01*
X0254840Y0112000D02*
X0267840Y0112000D01*
X0267840Y0204500D01*
X0254840Y0204500D01*
X0254840Y0194500D02*
X0254840Y0194000D01*
X0265840Y0194000D01*
X0265840Y0122000D01*
X0254840Y0122000D01*
X0254840Y0132000D02*
X0263840Y0132000D01*
X0263840Y0184500D01*
X0254840Y0184500D01*
X0254840Y0174500D02*
X0261840Y0174500D01*
X0261840Y0142000D01*
X0254840Y0142000D01*
X0266840Y0104000D02*
X0269840Y0104000D01*
X0269840Y0154000D01*
X0274840Y0154000D01*
X0274840Y0210000D01*
X0281840Y0210000D01*
X0281840Y0218000D01*
X0282840Y0218000D01*
X0289840Y0206000D02*
X0289840Y0174000D01*
X0284840Y0174000D01*
X0284840Y0174500D01*
X0279840Y0168000D02*
X0291840Y0168000D01*
X0291840Y0102000D01*
X0292840Y0102000D01*
X0292840Y0085000D01*
X0279840Y0085000D01*
X0279840Y0045000D01*
X0273840Y0045000D01*
X0273840Y0035000D01*
X0287340Y0047000D02*
X0299840Y0047000D01*
X0299840Y0027000D01*
X0304840Y0027000D01*
X0304840Y0057000D02*
X0304840Y0058000D01*
X0287340Y0058000D01*
X0287340Y0057000D01*
X0287340Y0067000D02*
X0299840Y0067000D01*
X0299840Y0087000D01*
X0304840Y0087000D01*
X0297840Y0077000D02*
X0287340Y0077000D01*
X0284840Y0102000D02*
X0291840Y0102000D01*
X0297840Y0117000D02*
X0297840Y0077000D01*
X0297840Y0117000D02*
X0304840Y0117000D01*
X0304840Y0147000D02*
X0293840Y0147000D01*
X0293840Y0201000D01*
X0289840Y0206000D02*
X0299840Y0206000D01*
X0299840Y0237000D01*
X0304840Y0237000D01*
X0298840Y0197000D02*
X0298840Y0183000D01*
X0304840Y0177000D01*
X0266840Y0104000D02*
X0266840Y0092000D01*
D45*
X0266840Y0092000D03*
X0266840Y0104000D03*
X0293840Y0201000D03*
X0298840Y0197000D03*
X0319840Y0020000D02*
G75*
%LPD*%
D49*
X0362400Y0092000D02*
X0357200Y0092000D01*
X0357200Y0102000D02*
X0362400Y0102000D01*
X0362400Y0112000D02*
X0357200Y0112000D01*
X0357200Y0122000D02*
X0362400Y0122000D01*
X0362400Y0132000D02*
X0357200Y0132000D01*
X0357200Y0142000D02*
X0362400Y0142000D01*
X0362400Y0152000D02*
X0357200Y0152000D01*
X0357200Y0162000D02*
X0362400Y0162000D01*
X0332400Y0162000D02*
X0327200Y0162000D01*
X0327200Y0152000D02*
X0332400Y0152000D01*
X0332400Y0142000D02*
X0327200Y0142000D01*
X0327200Y0132000D02*
X0332400Y0132000D01*
X0332400Y0122000D02*
X0327200Y0122000D01*
X0327200Y0112000D02*
X0332400Y0112000D01*
X0332400Y0102000D02*
X0327200Y0102000D01*
X0327200Y0092000D02*
X0332400Y0092000D01*
D77*
X0332300Y0077000D03*
X0332300Y0067000D03*
X0332300Y0057000D03*
X0332300Y0047000D03*
X0362300Y0047000D03*
X0362300Y0057000D03*
X0362300Y0067000D03*
X0362300Y0077000D03*
X0379800Y0067000D03*
X0379800Y0057000D03*
X0379800Y0037000D03*
X0379800Y0027000D03*
X0379800Y0087000D03*
X0379800Y0097000D03*
X0379800Y0117000D03*
X0379800Y0127000D03*
X0379800Y0147000D03*
X0379800Y0157000D03*
X0379800Y0177000D03*
X0379800Y0187000D03*
X0379800Y0207000D03*
X0379800Y0217000D03*
X0379800Y0237000D03*
X0379800Y0247000D03*
X0359800Y0204500D03*
X0359800Y0194500D03*
X0359800Y0184500D03*
X0359800Y0174500D03*
X0329800Y0174500D03*
X0329800Y0184500D03*
X0329800Y0194500D03*
X0329800Y0204500D03*
D112*
X0382300Y0027000D03*
X0382300Y0037000D03*
X0382300Y0057000D03*
X0382300Y0067000D03*
X0382300Y0087000D03*
X0382300Y0097000D03*
X0382300Y0117000D03*
X0382300Y0127000D03*
X0382300Y0147000D03*
X0382300Y0157000D03*
X0382300Y0177000D03*
X0382300Y0187000D03*
X0382300Y0207000D03*
X0382300Y0217000D03*
X0382300Y0237000D03*
X0382300Y0247000D03*
D81*
X0367800Y0221000D02*
X0367800Y0215000D01*
X0357800Y0215000D02*
X0357800Y0221000D01*
X0347800Y0221000D02*
X0347800Y0215000D01*
X0337800Y0215000D02*
X0337800Y0221000D01*
X0327800Y0221000D02*
X0327800Y0215000D01*
X0328800Y0038000D02*
X0328800Y0032000D01*
X0338800Y0032000D02*
X0338800Y0038000D01*
X0348800Y0038000D02*
X0348800Y0032000D01*
X0358800Y0032000D02*
X0358800Y0038000D01*
X0368800Y0038000D02*
X0368800Y0032000D01*
D33*
X0329800Y0092000D02*
X0323800Y0092000D01*
X0323800Y0035000D01*
X0328800Y0035000D01*
D83*
X0332300Y0047000D02*
X0352800Y0047000D01*
X0352800Y0122000D01*
X0359800Y0122000D01*
X0359800Y0132000D02*
X0350800Y0132000D01*
X0350800Y0057000D01*
X0332300Y0057000D01*
X0332300Y0067000D02*
X0348800Y0067000D01*
X0348800Y0142000D01*
X0359800Y0142000D01*
X0359800Y0152000D02*
X0346800Y0152000D01*
X0346800Y0077000D01*
X0332300Y0077000D01*
X0329800Y0092000D02*
X0329800Y0102000D01*
X0329800Y0112000D02*
X0342800Y0112000D01*
X0342800Y0204500D01*
X0329800Y0204500D01*
X0329800Y0194500D02*
X0329800Y0194000D01*
X0340800Y0194000D01*
X0340800Y0122000D01*
X0329800Y0122000D01*
X0329800Y0132000D02*
X0338800Y0132000D01*
X0338800Y0184500D01*
X0329800Y0184500D01*
X0329800Y0174500D02*
X0336800Y0174500D01*
X0336800Y0142000D01*
X0329800Y0142000D01*
X0341800Y0104000D02*
X0344800Y0104000D01*
X0344800Y0154000D01*
X0349800Y0154000D01*
X0349800Y0210000D01*
X0356800Y0210000D01*
X0356800Y0218000D01*
X0357800Y0218000D01*
X0364800Y0206000D02*
X0364800Y0174000D01*
X0359800Y0174000D01*
X0359800Y0174500D01*
X0354800Y0168000D02*
X0366800Y0168000D01*
X0366800Y0102000D01*
X0367800Y0102000D01*
X0367800Y0085000D01*
X0354800Y0085000D01*
X0354800Y0045000D01*
X0348800Y0045000D01*
X0348800Y0035000D01*
X0362300Y0047000D02*
X0374800Y0047000D01*
X0374800Y0027000D01*
X0379800Y0027000D01*
X0379800Y0057000D02*
X0379800Y0058000D01*
X0362300Y0058000D01*
X0362300Y0057000D01*
X0362300Y0067000D02*
X0374800Y0067000D01*
X0374800Y0087000D01*
X0379800Y0087000D01*
X0372800Y0077000D02*
X0362300Y0077000D01*
X0359800Y0102000D02*
X0366800Y0102000D01*
X0372800Y0117000D02*
X0372800Y0077000D01*
X0372800Y0117000D02*
X0379800Y0117000D01*
X0379800Y0147000D02*
X0368800Y0147000D01*
X0368800Y0201000D01*
X0364800Y0206000D02*
X0374800Y0206000D01*
X0374800Y0237000D01*
X0379800Y0237000D01*
X0373800Y0197000D02*
X0373800Y0183000D01*
X0379800Y0177000D01*
X0341800Y0104000D02*
X0341800Y0092000D01*
D45*
X0341800Y0092000D03*
X0341800Y0104000D03*
X0368800Y0201000D03*
X0373800Y0197000D03*
X0020000Y0258210D02*
G75*
%LPD*%
D49*
X0092000Y0285610D02*
X0092000Y0290810D01*
X0102000Y0290810D02*
X0102000Y0285610D01*
X0112000Y0285610D02*
X0112000Y0290810D01*
X0122000Y0290810D02*
X0122000Y0285610D01*
X0132000Y0285610D02*
X0132000Y0290810D01*
X0142000Y0290810D02*
X0142000Y0285610D01*
X0152000Y0285610D02*
X0152000Y0290810D01*
X0162000Y0290810D02*
X0162000Y0285610D01*
X0162000Y0315610D02*
X0162000Y0320810D01*
X0152000Y0320810D02*
X0152000Y0315610D01*
X0142000Y0315610D02*
X0142000Y0320810D01*
X0132000Y0320810D02*
X0132000Y0315610D01*
X0122000Y0315610D02*
X0122000Y0320810D01*
X0112000Y0320810D02*
X0112000Y0315610D01*
X0102000Y0315610D02*
X0102000Y0320810D01*
X0092000Y0320810D02*
X0092000Y0315610D01*
D77*
X0077000Y0315710D03*
X0067000Y0315710D03*
X0057000Y0315710D03*
X0047000Y0315710D03*
X0047000Y0285710D03*
X0057000Y0285710D03*
X0067000Y0285710D03*
X0077000Y0285710D03*
X0067000Y0268210D03*
X0057000Y0268210D03*
X0037000Y0268210D03*
X0027000Y0268210D03*
X0087000Y0268210D03*
X0097000Y0268210D03*
X0117000Y0268210D03*
X0127000Y0268210D03*
X0147000Y0268210D03*
X0157000Y0268210D03*
X0177000Y0268210D03*
X0187000Y0268210D03*
X0207000Y0268210D03*
X0217000Y0268210D03*
X0237000Y0268210D03*
X0247000Y0268210D03*
X0204500Y0288210D03*
X0194500Y0288210D03*
X0184500Y0288210D03*
X0174500Y0288210D03*
X0174500Y0318210D03*
X0184500Y0318210D03*
X0194500Y0318210D03*
X0204500Y0318210D03*
D30*
X0027000Y0265710D03*
X0037000Y0265710D03*
X0057000Y0265710D03*
X0067000Y0265710D03*
X0087000Y0265710D03*
X0097000Y0265710D03*
X0117000Y0265710D03*
X0127000Y0265710D03*
X0147000Y0265710D03*
X0157000Y0265710D03*
X0177000Y0265710D03*
X0187000Y0265710D03*
X0207000Y0265710D03*
X0217000Y0265710D03*
X0237000Y0265710D03*
X0247000Y0265710D03*
D81*
X0221000Y0280210D02*
X0215000Y0280210D01*
X0215000Y0290210D02*
X0221000Y0290210D01*
X0221000Y0300210D02*
X0215000Y0300210D01*
X0215000Y0310210D02*
X0221000Y0310210D01*
X0221000Y0320210D02*
X0215000Y0320210D01*
X0038000Y0319210D02*
X0032000Y0319210D01*
X0032000Y0309210D02*
X0038000Y0309210D01*
X0038000Y0299210D02*
X0032000Y0299210D01*
X0032000Y0289210D02*
X0038000Y0289210D01*
X0038000Y0279210D02*
X0032000Y0279210D01*
D33*
X0092000Y0318210D02*
X0092000Y0324210D01*
X0035000Y0324210D01*
X0035000Y0319210D01*
D83*
X0047000Y0315710D02*
X0047000Y0295210D01*
X0122000Y0295210D01*
X0122000Y0288210D01*
X0132000Y0288210D02*
X0132000Y0297210D01*
X0057000Y0297210D01*
X0057000Y0315710D01*
X0067000Y0315710D02*
X0067000Y0299210D01*
X0142000Y0299210D01*
X0142000Y0288210D01*
X0152000Y0288210D02*
X0152000Y0301210D01*
X0077000Y0301210D01*
X0077000Y0315710D01*
X0092000Y0318210D02*
X0102000Y0318210D01*
X0112000Y0318210D02*
X0112000Y0305210D01*
X0204500Y0305210D01*
X0204500Y0318210D01*
X0194500Y0318210D02*
X0194000Y0318210D01*
X0194000Y0307210D01*
X0122000Y0307210D01*
X0122000Y0318210D01*
X0132000Y0318210D02*
X0132000Y0309210D01*
X0184500Y0309210D01*
X0184500Y0318210D01*
X0174500Y0318210D02*
X0174500Y0311210D01*
X0142000Y0311210D01*
X0142000Y0318210D01*
X0104000Y0306210D02*
X0104000Y0303210D01*
X0154000Y0303210D01*
X0154000Y0298210D01*
X0210000Y0298210D01*
X0210000Y0291210D01*
X0218000Y0291210D01*
X0218000Y0290210D01*
X0206000Y0283210D02*
X0174000Y0283210D01*
X0174000Y0288210D01*
X0174500Y0288210D01*
X0168000Y0293210D02*
X0168000Y0281210D01*
X0102000Y0281210D01*
X0102000Y0280210D01*
X0085000Y0280210D01*
X0085000Y0293210D01*
X0045000Y0293210D01*
X0045000Y0299210D01*
X0035000Y0299210D01*
X0047000Y0285710D02*
X0047000Y0273210D01*
X0027000Y0273210D01*
X0027000Y0268210D01*
X0057000Y0268210D02*
X0058000Y0268210D01*
X0058000Y0285710D01*
X0057000Y0285710D01*
X0067000Y0285710D02*
X0067000Y0273210D01*
X0087000Y0273210D01*
X0087000Y0268210D01*
X0077000Y0275210D02*
X0077000Y0285710D01*
X0102000Y0288210D02*
X0102000Y0281210D01*
X0117000Y0275210D02*
X0077000Y0275210D01*
X0117000Y0275210D02*
X0117000Y0268210D01*
X0147000Y0268210D02*
X0147000Y0279210D01*
X0201000Y0279210D01*
X0206000Y0283210D02*
X0206000Y0273210D01*
X0237000Y0273210D01*
X0237000Y0268210D01*
X0197000Y0274210D02*
X0183000Y0274210D01*
X0177000Y0268210D01*
X0104000Y0306210D02*
X0092000Y0306210D01*
D45*
X0092000Y0306210D03*
X0104000Y0306210D03*
X0201000Y0279210D03*
X0197000Y0274210D03*
X0258210Y0258210D02*
G75*
%LPD*%
D81*
X0433170Y0273210D03*
X0423170Y0273210D03*
X0413170Y0273210D03*
X0403170Y0273210D03*
X0393170Y0273210D03*
X0383170Y0273210D03*
X0387070Y0450410D03*
X0387070Y0476010D03*
X0387070Y0490410D03*
X0404270Y0490410D03*
X0404270Y0516010D03*
X0387070Y0516010D03*
X0387070Y0530410D03*
X0387070Y0556010D03*
X0369270Y0556010D03*
X0369270Y0530410D03*
X0369270Y0516010D03*
X0369270Y0490410D03*
X0369270Y0476010D03*
X0369270Y0450410D03*
X0352070Y0490410D03*
X0352070Y0516010D03*
X0334270Y0516010D03*
X0334270Y0490410D03*
X0422070Y0490410D03*
X0422070Y0516010D03*
X0444270Y0515410D03*
X0444270Y0491010D03*
X0444270Y0465410D03*
X0462070Y0465410D03*
X0462070Y0491010D03*
X0462070Y0515410D03*
X0462070Y0541010D03*
X0444270Y0541010D03*
D13*
X0379170Y0437210D03*
X0379170Y0427210D03*
X0369170Y0427210D03*
X0369170Y0437210D03*
X0359170Y0437210D03*
X0359170Y0427210D03*
D49*
X0405570Y0428210D02*
X0410770Y0428210D01*
X0410770Y0418210D02*
X0405570Y0418210D01*
X0405570Y0408210D02*
X0410770Y0408210D01*
X0410770Y0398210D02*
X0405570Y0398210D01*
X0405570Y0388210D02*
X0410770Y0388210D01*
X0410770Y0378210D02*
X0405570Y0378210D01*
X0405570Y0368210D02*
X0410770Y0368210D01*
X0410770Y0358210D02*
X0405570Y0358210D01*
X0405570Y0348210D02*
X0410770Y0348210D01*
X0410770Y0338210D02*
X0405570Y0338210D01*
X0405570Y0328210D02*
X0410770Y0328210D01*
X0410770Y0318210D02*
X0405570Y0318210D01*
X0405570Y0308210D02*
X0410770Y0308210D01*
X0410770Y0298210D02*
X0405570Y0298210D01*
X0435570Y0298210D02*
X0440770Y0298210D01*
X0440770Y0308210D02*
X0435570Y0308210D01*
X0435570Y0318210D02*
X0440770Y0318210D01*
X0440770Y0328210D02*
X0435570Y0328210D01*
X0435570Y0338210D02*
X0440770Y0338210D01*
X0440770Y0348210D02*
X0435570Y0348210D01*
X0435570Y0358210D02*
X0440770Y0358210D01*
X0440770Y0368210D02*
X0435570Y0368210D01*
X0435570Y0378210D02*
X0440770Y0378210D01*
X0440770Y0388210D02*
X0435570Y0388210D01*
X0435570Y0398210D02*
X0440770Y0398210D01*
X0440770Y0408210D02*
X0435570Y0408210D01*
X0435570Y0418210D02*
X0440770Y0418210D01*
X0440770Y0428210D02*
X0435570Y0428210D01*
X0340770Y0558210D02*
X0335570Y0558210D01*
X0335570Y0568210D02*
X0340770Y0568210D01*
X0340770Y0578210D02*
X0335570Y0578210D01*
X0335570Y0588210D02*
X0340770Y0588210D01*
X0340770Y0598210D02*
X0335570Y0598210D01*
X0280770Y0598210D02*
X0275570Y0598210D01*
X0275570Y0588210D02*
X0280770Y0588210D01*
X0280770Y0578210D02*
X0275570Y0578210D01*
X0275570Y0568210D02*
X0280770Y0568210D01*
X0280770Y0558210D02*
X0275570Y0558210D01*
D81*
X0276170Y0428210D02*
X0270170Y0428210D01*
X0270170Y0418210D02*
X0276170Y0418210D01*
X0276170Y0408210D02*
X0270170Y0408210D01*
X0270170Y0398210D02*
X0276170Y0398210D01*
X0276170Y0388210D02*
X0270170Y0388210D01*
X0270170Y0378210D02*
X0276170Y0378210D01*
X0276170Y0368210D02*
X0270170Y0368210D01*
X0270170Y0358210D02*
X0276170Y0358210D01*
X0276170Y0342210D02*
X0270170Y0342210D01*
X0270170Y0332210D02*
X0276170Y0332210D01*
X0276170Y0322210D02*
X0270170Y0322210D01*
X0270170Y0312210D02*
X0276170Y0312210D01*
X0276170Y0302210D02*
X0270170Y0302210D01*
X0270170Y0292210D02*
X0276170Y0292210D01*
X0276170Y0282210D02*
X0270170Y0282210D01*
X0270170Y0272210D02*
X0276170Y0272210D01*
X0303170Y0270210D02*
X0303170Y0276210D01*
X0313170Y0276210D02*
X0313170Y0270210D01*
X0323170Y0270210D02*
X0323170Y0276210D01*
X0333170Y0276210D02*
X0333170Y0270210D01*
X0343170Y0270210D02*
X0343170Y0276210D01*
X0353170Y0276210D02*
X0353170Y0270210D01*
X0453170Y0285210D02*
X0453170Y0291210D01*
X0463170Y0291210D02*
X0463170Y0285210D01*
X0466170Y0313210D02*
X0460170Y0313210D01*
X0460170Y0323210D02*
X0466170Y0323210D01*
X0466170Y0333210D02*
X0460170Y0333210D01*
X0460170Y0343210D02*
X0466170Y0343210D01*
X0466170Y0353210D02*
X0460170Y0353210D01*
X0460170Y0363210D02*
X0466170Y0363210D01*
X0466170Y0378210D02*
X0460170Y0378210D01*
X0460170Y0388210D02*
X0466170Y0388210D01*
X0466170Y0398210D02*
X0460170Y0398210D01*
X0460170Y0408210D02*
X0466170Y0408210D01*
X0466170Y0418210D02*
X0460170Y0418210D01*
X0460170Y0428210D02*
X0466170Y0428210D01*
D68*
X0465730Y0578370D03*
X0465730Y0588210D03*
X0465730Y0598050D03*
D87*
X0438170Y0605530D03*
X0438170Y0570890D03*
D77*
X0308170Y0483210D03*
X0298170Y0483210D03*
X0288170Y0483210D03*
X0278170Y0483210D03*
X0283170Y0503210D03*
X0293170Y0503210D03*
X0303170Y0503210D03*
X0303170Y0543210D03*
X0293170Y0543210D03*
X0283170Y0543210D03*
X0288170Y0443210D03*
X0278170Y0443210D03*
X0298170Y0443210D03*
X0308170Y0443210D03*
D83*
X0330670Y0420710D01*
X0380670Y0420710D01*
X0383170Y0423210D01*
X0433170Y0423210D01*
X0438170Y0418210D01*
X0418170Y0443210D02*
X0468170Y0443210D01*
X0468170Y0578210D01*
X0465730Y0578370D01*
X0462070Y0515410D02*
X0460670Y0513210D01*
X0443170Y0495710D01*
X0440670Y0495710D01*
X0433170Y0488210D01*
X0438170Y0488210D01*
X0460670Y0465710D01*
X0462070Y0465410D01*
X0444270Y0465410D02*
X0443170Y0463210D01*
X0318170Y0463210D01*
X0298170Y0443210D01*
X0288170Y0443210D02*
X0330670Y0485710D01*
X0340670Y0485710D01*
X0350670Y0495710D01*
X0363170Y0495710D01*
X0368170Y0490710D01*
X0369270Y0490410D01*
X0355670Y0485710D02*
X0383170Y0485710D01*
X0385670Y0488210D01*
X0387070Y0490410D01*
X0388170Y0498210D02*
X0400670Y0485710D01*
X0410670Y0485710D01*
X0438170Y0513210D01*
X0443170Y0513210D01*
X0444270Y0515410D01*
X0433170Y0488210D02*
X0423170Y0488210D01*
X0422070Y0490410D01*
X0404270Y0490410D02*
X0403170Y0490710D01*
X0375670Y0518210D01*
X0375670Y0538210D01*
X0298170Y0538210D01*
X0293170Y0543210D01*
X0288170Y0548210D02*
X0283170Y0543210D01*
X0288170Y0548210D02*
X0328170Y0548210D01*
X0338170Y0558210D01*
X0338170Y0578210D02*
X0278170Y0578210D01*
X0278170Y0558210D02*
X0273170Y0558210D01*
X0273170Y0533210D01*
X0303170Y0503210D01*
X0288170Y0498210D02*
X0325670Y0498210D01*
X0355670Y0528210D01*
X0368170Y0528210D01*
X0369270Y0530410D01*
X0388170Y0498210D02*
X0333170Y0498210D01*
X0278170Y0443210D01*
X0273170Y0428210D02*
X0283170Y0418210D01*
X0408170Y0418210D01*
X0400670Y0415710D02*
X0275670Y0415710D01*
X0273170Y0418210D01*
X0273170Y0408210D02*
X0373170Y0408210D01*
X0398170Y0408210D01*
X0408170Y0398210D01*
X0398170Y0398210D02*
X0408170Y0388210D01*
X0400670Y0385710D02*
X0408170Y0378210D01*
X0400670Y0385710D02*
X0275670Y0385710D01*
X0273170Y0388210D01*
X0273170Y0378210D02*
X0265670Y0378210D01*
X0265670Y0268210D01*
X0268170Y0265710D01*
X0305670Y0265710D01*
X0313170Y0273210D01*
X0323170Y0263210D02*
X0265670Y0263210D01*
X0263170Y0265710D01*
X0263170Y0398210D01*
X0273170Y0398210D01*
X0398170Y0398210D01*
X0408170Y0408210D02*
X0400670Y0415710D01*
X0418170Y0443210D02*
X0365670Y0443210D01*
X0360670Y0438210D01*
X0359170Y0437210D01*
X0355670Y0485710D02*
X0353170Y0488210D01*
X0352070Y0490410D01*
X0288170Y0483210D02*
X0270670Y0500710D01*
X0270670Y0598210D01*
X0278170Y0598210D01*
X0283170Y0503210D02*
X0288170Y0498210D01*
X0273170Y0378210D02*
X0313170Y0378210D01*
X0298170Y0373210D02*
X0275670Y0350710D01*
X0270670Y0350710D01*
X0273170Y0343210D02*
X0273170Y0342210D01*
X0273170Y0343210D02*
X0288170Y0358210D01*
X0298170Y0373210D02*
X0423170Y0373210D01*
X0438170Y0358210D01*
X0433170Y0343210D02*
X0368170Y0343210D01*
X0353170Y0313210D02*
X0433170Y0313210D01*
X0438170Y0318210D01*
X0440670Y0325710D02*
X0448170Y0325710D01*
X0448170Y0303210D01*
X0360670Y0303210D01*
X0273170Y0303210D01*
X0273170Y0302210D01*
X0273170Y0312210D02*
X0273170Y0313210D01*
X0353170Y0313210D01*
X0343170Y0328210D02*
X0408170Y0328210D01*
X0408170Y0318210D02*
X0323170Y0318210D01*
X0318170Y0298210D02*
X0408170Y0298210D01*
X0403170Y0293210D02*
X0400670Y0293210D01*
X0403170Y0293210D02*
X0403170Y0273210D01*
X0393170Y0273210D02*
X0393170Y0293210D01*
X0373170Y0293210D02*
X0363170Y0293210D01*
X0343170Y0273210D01*
X0333170Y0273210D02*
X0323170Y0263210D01*
X0273170Y0322210D02*
X0273170Y0323210D01*
X0445670Y0323210D01*
X0445670Y0315710D01*
X0438170Y0308210D01*
X0438170Y0298210D02*
X0450670Y0298210D01*
X0450670Y0328210D01*
X0445670Y0333210D01*
X0273170Y0333210D01*
X0273170Y0332210D01*
X0433170Y0343210D02*
X0438170Y0338210D01*
X0438170Y0328210D02*
X0440670Y0325710D01*
D52*
X0400670Y0293210D03*
X0393170Y0293210D03*
X0373170Y0293210D03*
X0360670Y0303210D03*
X0353170Y0313210D03*
X0343170Y0328210D03*
X0323170Y0318210D03*
X0318170Y0298210D03*
X0288170Y0358210D03*
X0270670Y0350710D03*
X0313170Y0378210D03*
X0368170Y0343210D03*
X0373170Y0408210D03*
X0418170Y0443210D03*
D33*
X0383170Y0263210D02*
X0473170Y0263210D01*
X0473170Y0303210D01*
X0463170Y0303210D01*
X0463170Y0313210D01*
X0463170Y0323210D02*
X0453170Y0323210D01*
X0453170Y0348210D01*
X0438170Y0348210D01*
X0418170Y0348210D01*
X0418170Y0368210D01*
X0408170Y0368210D01*
X0453170Y0323210D02*
X0453170Y0288210D01*
X0413170Y0288210D01*
X0413170Y0273210D01*
X0383170Y0273210D02*
X0383170Y0263210D01*
D18*
X0438170Y0378210D02*
X0463170Y0378210D01*
X0463170Y0388210D02*
X0438170Y0388210D01*
X0438170Y0398210D02*
X0463170Y0398210D01*
X0463170Y0408210D02*
X0438170Y0408210D01*
X0438170Y0418210D02*
X0463170Y0418210D01*
X0463170Y0428210D02*
X0438170Y0428210D01*
X0408170Y0428210D02*
X0408170Y0438210D01*
X0473170Y0438210D01*
X0473170Y0313210D01*
X0463170Y0313210D01*
X0408170Y0427210D02*
X0379170Y0427210D01*
X0408170Y0427210D02*
X0408170Y0428210D01*
X0394800Y0020000D02*
G75*
%LPD*%
D49*
X0489710Y0101040D02*
X0494910Y0101040D01*
X0494910Y0111040D02*
X0489710Y0111040D01*
X0489710Y0121040D02*
X0494910Y0121040D01*
X0494910Y0131040D02*
X0489710Y0131040D01*
X0489710Y0141040D02*
X0494910Y0141040D01*
X0494910Y0151040D02*
X0489710Y0151040D01*
X0489710Y0161040D02*
X0494910Y0161040D01*
X0494910Y0171040D02*
X0489710Y0171040D01*
X0489710Y0181040D02*
X0494910Y0181040D01*
X0494910Y0191040D02*
X0489710Y0191040D01*
X0519710Y0191040D02*
X0524910Y0191040D01*
X0524910Y0181040D02*
X0519710Y0181040D01*
X0519710Y0171040D02*
X0524910Y0171040D01*
X0524910Y0161040D02*
X0519710Y0161040D01*
X0519710Y0151040D02*
X0524910Y0151040D01*
X0524910Y0141040D02*
X0519710Y0141040D01*
X0519710Y0131040D02*
X0524910Y0131040D01*
X0524910Y0121040D02*
X0519710Y0121040D01*
X0519710Y0111040D02*
X0524910Y0111040D01*
X0524910Y0101040D02*
X0519710Y0101040D01*
X0600350Y0098970D02*
X0600350Y0104170D01*
X0610350Y0104170D02*
X0610350Y0098970D01*
X0620350Y0098970D02*
X0620350Y0104170D01*
X0630350Y0104170D02*
X0630350Y0098970D01*
X0640350Y0098970D02*
X0640350Y0104170D01*
X0650350Y0104170D02*
X0650350Y0098970D01*
X0660350Y0098970D02*
X0660350Y0104170D01*
X0670350Y0104170D02*
X0670350Y0098970D01*
X0680350Y0098970D02*
X0680350Y0104170D01*
X0690350Y0104170D02*
X0690350Y0098970D01*
X0700350Y0098970D02*
X0700350Y0104170D01*
X0710350Y0104170D02*
X0710350Y0098970D01*
X0720350Y0098970D02*
X0720350Y0104170D01*
X0730350Y0104170D02*
X0730350Y0098970D01*
X0730350Y0074170D02*
X0730350Y0068970D01*
X0720350Y0068970D02*
X0720350Y0074170D01*
X0710350Y0074170D02*
X0710350Y0068970D01*
X0700350Y0068970D02*
X0700350Y0074170D01*
X0690350Y0074170D02*
X0690350Y0068970D01*
X0680350Y0068970D02*
X0680350Y0074170D01*
X0670350Y0074170D02*
X0670350Y0068970D01*
X0660350Y0068970D02*
X0660350Y0074170D01*
X0650350Y0074170D02*
X0650350Y0068970D01*
X0640350Y0068970D02*
X0640350Y0074170D01*
X0630350Y0074170D02*
X0630350Y0068970D01*
X0620350Y0068970D02*
X0620350Y0074170D01*
X0610350Y0074170D02*
X0610350Y0068970D01*
X0600350Y0068970D02*
X0600350Y0074170D01*
D13*
X0730860Y0121840D03*
X0740860Y0121840D03*
X0740860Y0131840D03*
X0730860Y0131840D03*
X0730860Y0141840D03*
X0740860Y0141840D03*
X0516310Y0213040D03*
X0506310Y0213040D03*
X0506310Y0223040D03*
X0496310Y0223040D03*
X0516310Y0223040D03*
D77*
X0469310Y0190040D03*
X0458310Y0190040D03*
X0447310Y0190040D03*
X0447310Y0150040D03*
X0458310Y0150040D03*
X0469310Y0150040D03*
X0450310Y0135040D03*
X0439310Y0135040D03*
X0428010Y0135040D03*
X0416310Y0135040D03*
X0403810Y0142940D03*
X0416310Y0115040D03*
X0428010Y0115040D03*
X0439310Y0115040D03*
X0450310Y0115040D03*
X0451310Y0095040D03*
X0441310Y0095040D03*
X0425310Y0095040D03*
X0415310Y0095040D03*
X0403810Y0102940D03*
X0522310Y0070040D03*
X0531310Y0070040D03*
X0531310Y0060040D03*
X0522310Y0060040D03*
X0535670Y0047650D03*
X0535670Y0027650D03*
X0536310Y0093040D03*
X0546310Y0093040D03*
X0568310Y0102040D03*
X0568310Y0122040D03*
X0546310Y0133040D03*
X0536310Y0133040D03*
X0608010Y0183440D03*
X0608010Y0193440D03*
X0626310Y0193440D03*
X0626310Y0183440D03*
X0644950Y0179740D03*
X0655980Y0179940D03*
X0666700Y0179930D03*
X0680550Y0179740D03*
X0680610Y0170040D03*
X0680310Y0160040D03*
X0666700Y0159930D03*
X0655980Y0159940D03*
X0644950Y0159740D03*
X0680610Y0189740D03*
X0680710Y0199640D03*
X0720710Y0199640D03*
X0720610Y0189740D03*
X0720550Y0179740D03*
X0720610Y0170040D03*
X0720310Y0160040D03*
D84*
X0660320Y0145270D02*
X0660320Y0140870D01*
X0640320Y0140870D02*
X0640320Y0145270D01*
X0473510Y0131040D02*
X0469110Y0131040D01*
X0469110Y0111040D02*
X0473510Y0111040D01*
D81*
X0415310Y0152040D02*
X0415310Y0158040D01*
X0405310Y0158040D02*
X0405310Y0152040D01*
X0545310Y0149040D02*
X0551310Y0149040D01*
X0551310Y0159040D02*
X0545310Y0159040D01*
X0545310Y0169040D02*
X0551310Y0169040D01*
X0551310Y0179040D02*
X0545310Y0179040D01*
X0545310Y0189040D02*
X0551310Y0189040D01*
X0551310Y0199040D02*
X0545310Y0199040D01*
X0565310Y0199040D02*
X0571310Y0199040D01*
X0571310Y0189040D02*
X0565310Y0189040D01*
X0565310Y0179040D02*
X0571310Y0179040D01*
X0571310Y0169040D02*
X0565310Y0169040D01*
X0565310Y0159040D02*
X0571310Y0159040D01*
X0571310Y0149040D02*
X0565310Y0149040D01*
X0681810Y0137690D02*
X0687810Y0137690D01*
X0707410Y0137690D02*
X0713410Y0137690D01*
X0713410Y0119890D02*
X0707410Y0119890D01*
X0687810Y0119890D02*
X0681810Y0119890D01*
X0571310Y0062040D02*
X0565310Y0062040D01*
X0551310Y0062040D02*
X0545310Y0062040D01*
X0545310Y0052040D02*
X0551310Y0052040D01*
X0551310Y0042040D02*
X0545310Y0042040D01*
X0545310Y0032040D02*
X0551310Y0032040D01*
X0565310Y0032040D02*
X0571310Y0032040D01*
X0571310Y0042040D02*
X0565310Y0042040D01*
X0565310Y0052040D02*
X0571310Y0052040D01*
X0610310Y0035040D02*
X0610310Y0029040D01*
X0620310Y0029040D02*
X0620310Y0035040D01*
X0630310Y0035040D02*
X0630310Y0029040D01*
X0640310Y0029040D02*
X0640310Y0035040D01*
X0650310Y0035040D02*
X0650310Y0029040D01*
X0660310Y0029040D02*
X0660310Y0035040D01*
X0680430Y0035150D02*
X0680430Y0029150D01*
X0690430Y0029150D02*
X0690430Y0035150D01*
X0700430Y0035150D02*
X0700430Y0029150D01*
X0710430Y0029150D02*
X0710430Y0035150D01*
X0720430Y0035150D02*
X0720430Y0029150D01*
X0730430Y0029150D02*
X0730430Y0035150D01*
X0497010Y0061540D02*
X0497010Y0067540D01*
X0487010Y0067540D02*
X0487010Y0061540D01*
X0477010Y0061540D02*
X0477010Y0067540D01*
X0574030Y0219110D02*
X0574030Y0225110D01*
X0584030Y0225110D02*
X0584030Y0219110D01*
X0594030Y0219110D02*
X0594030Y0225110D01*
X0604030Y0225110D02*
X0604030Y0219110D01*
X0614030Y0219110D02*
X0614030Y0225110D01*
X0624030Y0225110D02*
X0624030Y0219110D01*
X0634030Y0219110D02*
X0634030Y0225110D01*
X0644030Y0225110D02*
X0644030Y0219110D01*
X0660020Y0218950D02*
X0660020Y0224950D01*
X0670020Y0224950D02*
X0670020Y0218950D01*
X0680020Y0218950D02*
X0680020Y0224950D01*
X0690020Y0224950D02*
X0690020Y0218950D01*
X0700020Y0218950D02*
X0700020Y0224950D01*
X0710020Y0224950D02*
X0710020Y0218950D01*
X0720020Y0218950D02*
X0720020Y0224950D01*
X0730020Y0224950D02*
X0730020Y0218950D01*
D27*
X0457000Y0065900D03*
X0457000Y0025900D03*
D97*
X0479720Y0045090D03*
X0512700Y0045110D03*
D65*
X0512700Y0031110D03*
X0479720Y0031090D03*
D79*
X0441310Y0051740D03*
X0417710Y0051740D03*
X0429510Y0032040D03*
D14*
X0428850Y0187120D03*
X0420980Y0187120D03*
X0420980Y0196960D03*
X0428850Y0196960D03*
D32*
X0496310Y0213040D03*
D74*
X0470310Y0204380D03*
X0447310Y0204380D03*
X0447310Y0221700D03*
X0470310Y0221700D03*
D81*
X0536310Y0223040D03*
X0536310Y0213040D03*
D35*
X0512310Y0059810D03*
X0512310Y0056270D03*
D83*
X0522080Y0059810D02*
X0522310Y0060040D01*
X0541310Y0088040D02*
X0546310Y0093040D01*
X0541310Y0088040D02*
X0430310Y0088040D01*
X0425310Y0093040D01*
X0425310Y0095040D01*
X0444310Y0109040D02*
X0469310Y0109040D01*
X0471310Y0111040D01*
X0471310Y0117040D01*
X0474310Y0120040D01*
X0491310Y0120040D01*
X0492310Y0121040D01*
X0492310Y0131040D02*
X0471310Y0131040D01*
X0455310Y0115040D01*
X0450310Y0115040D01*
X0444310Y0109040D02*
X0439310Y0114040D01*
X0439310Y0115040D01*
X0451310Y0095040D02*
X0453310Y0093040D01*
X0536310Y0093040D01*
X0568310Y0102040D02*
X0568310Y0074040D01*
X0592310Y0050040D01*
X0671310Y0050040D01*
X0638310Y0064040D02*
X0636880Y0062620D01*
X0633690Y0062620D01*
X0640310Y0069040D01*
X0640350Y0069080D01*
X0640350Y0071570D01*
X0630350Y0071570D02*
X0630350Y0065080D01*
X0621310Y0056040D01*
X0596310Y0056040D01*
X0581310Y0071040D01*
X0581310Y0117040D01*
X0617310Y0153040D01*
X0617310Y0209040D01*
X0605310Y0216040D01*
X0604310Y0217040D01*
X0604310Y0221830D01*
X0604030Y0222110D01*
X0598310Y0214040D02*
X0593030Y0217320D01*
X0594030Y0222110D01*
X0598310Y0214040D02*
X0613310Y0205040D01*
X0613310Y0154040D01*
X0577310Y0118040D01*
X0577310Y0070040D01*
X0594310Y0053040D01*
X0623820Y0053040D01*
X0633690Y0062620D01*
X0638310Y0064040D02*
X0740310Y0064040D01*
X0740310Y0071040D01*
X0747310Y0076040D02*
X0743310Y0080040D01*
X0668820Y0080040D01*
X0660350Y0071570D01*
X0626310Y0086040D02*
X0736310Y0086040D01*
X0736310Y0136390D01*
X0730860Y0141840D01*
X0740860Y0131840D02*
X0746110Y0131840D01*
X0746310Y0132040D01*
X0746310Y0083040D01*
X0606310Y0083040D01*
X0605310Y0084040D01*
X0593310Y0074040D02*
X0595780Y0071570D01*
X0600350Y0071570D01*
X0593310Y0074040D02*
X0593310Y0114040D01*
X0635310Y0156040D01*
X0635310Y0221830D01*
X0634030Y0222110D01*
X0644030Y0222110D02*
X0639310Y0209390D01*
X0639310Y0155040D01*
X0600350Y0116080D01*
X0600350Y0101570D01*
X0589310Y0115040D02*
X0589310Y0073040D01*
X0600310Y0062040D01*
X0608310Y0062040D01*
X0610350Y0064080D01*
X0610350Y0071570D01*
X0620350Y0071570D02*
X0620350Y0060080D01*
X0619310Y0059040D01*
X0598310Y0059040D01*
X0585310Y0072040D01*
X0585310Y0116040D01*
X0621310Y0152040D01*
X0621310Y0208830D01*
X0614030Y0222110D01*
X0624030Y0222110D02*
X0624310Y0221830D01*
X0624310Y0217040D01*
X0631310Y0209040D01*
X0631310Y0157040D01*
X0589310Y0115040D01*
X0623310Y0089040D02*
X0626310Y0086040D01*
X0680350Y0101570D02*
X0680840Y0101570D01*
X0693310Y0113040D01*
X0693310Y0148040D01*
X0704310Y0164040D01*
X0704310Y0205660D01*
X0690020Y0221950D01*
X0700020Y0221950D02*
X0700020Y0217330D01*
X0707310Y0207040D01*
X0707310Y0163040D01*
X0696310Y0147040D01*
X0696310Y0107520D01*
X0690350Y0101570D01*
X0699310Y0103610D02*
X0700350Y0101570D01*
X0699310Y0103610D02*
X0699310Y0146040D01*
X0710310Y0161040D01*
X0710310Y0210040D01*
X0710020Y0214330D01*
X0710020Y0221950D01*
X0730020Y0221950D02*
X0730310Y0221950D01*
X0730310Y0187040D01*
X0726310Y0183040D01*
X0726310Y0171040D01*
X0720610Y0169040D01*
X0720610Y0170040D02*
X0727310Y0161340D01*
X0727310Y0160040D01*
X0723310Y0152040D01*
X0723310Y0103040D01*
X0721840Y0101570D01*
X0720350Y0101570D01*
X0710350Y0101570D02*
X0710350Y0106080D01*
X0719310Y0115040D01*
X0719310Y0159040D01*
X0720310Y0160040D01*
X0713310Y0160040D02*
X0702310Y0145040D01*
X0702310Y0123040D01*
X0706460Y0119890D01*
X0710410Y0119890D01*
X0713310Y0160040D02*
X0713310Y0172500D01*
X0720550Y0179740D01*
X0579310Y0170040D02*
X0579310Y0160040D01*
X0575310Y0156040D01*
X0575310Y0154040D01*
X0568310Y0159040D02*
X0558310Y0159040D01*
X0548310Y0159040D01*
X0548310Y0179040D02*
X0558310Y0179040D01*
X0568310Y0179040D01*
X0568310Y0189040D02*
X0558310Y0189040D01*
X0548310Y0189040D01*
X0548310Y0199040D02*
X0558310Y0199040D01*
X0568310Y0199040D01*
X0522310Y0191040D02*
X0516310Y0197040D01*
X0516310Y0213040D01*
X0506310Y0213040D02*
X0506310Y0180040D01*
X0496310Y0170040D01*
X0493310Y0170040D01*
X0492310Y0171040D01*
X0492310Y0161040D02*
X0491310Y0160040D01*
X0451310Y0160040D01*
X0447310Y0156040D01*
X0447310Y0150040D01*
X0483310Y0187040D02*
X0489310Y0181040D01*
X0492310Y0181040D01*
X0483310Y0187040D02*
X0483310Y0198040D01*
X0496310Y0211040D01*
X0496310Y0213040D01*
X0501310Y0218040D02*
X0501310Y0200040D01*
X0492310Y0191040D01*
X0470310Y0191040D02*
X0470310Y0204380D01*
X0470310Y0191040D02*
X0469310Y0190040D01*
X0458310Y0190040D02*
X0447310Y0190040D01*
X0447310Y0201040D01*
X0446310Y0202040D01*
X0446310Y0203380D01*
X0447310Y0204380D01*
X0445650Y0206040D01*
X0422310Y0206040D01*
X0420980Y0204710D01*
X0420980Y0196960D01*
X0501310Y0218040D02*
X0506310Y0223040D01*
X0536310Y0133040D02*
X0534310Y0131040D01*
X0522310Y0131040D01*
X0522310Y0121040D02*
X0539310Y0121040D01*
X0546310Y0128040D01*
X0546310Y0133040D01*
X0713310Y0042040D02*
X0731310Y0061040D01*
X0744310Y0061040D01*
X0747310Y0063040D01*
X0747310Y0076040D01*
D45*
X0740310Y0071040D03*
X0671310Y0050040D03*
X0623310Y0089040D03*
X0605310Y0084040D03*
X0575310Y0154040D03*
X0579310Y0170040D03*
X0599310Y0165040D03*
X0599310Y0175040D03*
X0645310Y0173040D03*
X0655310Y0166040D03*
X0731310Y0178040D03*
D33*
X0731310Y0152040D01*
X0740860Y0142490D01*
X0740860Y0141840D01*
X0688310Y0157040D02*
X0681310Y0150040D01*
X0670310Y0150040D01*
X0666700Y0153650D01*
X0666700Y0159930D01*
X0675310Y0166040D02*
X0655310Y0166040D01*
X0645310Y0173040D02*
X0677310Y0173040D01*
X0680310Y0170040D01*
X0680610Y0170040D01*
X0675310Y0166040D02*
X0680310Y0162040D01*
X0680310Y0160040D01*
X0688310Y0157040D02*
X0688310Y0179040D01*
X0687310Y0180040D01*
X0681310Y0180040D01*
X0680550Y0179280D01*
X0680550Y0179740D01*
X0670310Y0150040D02*
X0670310Y0101610D01*
X0670350Y0101570D01*
X0670350Y0094080D01*
X0599310Y0094040D01*
X0599310Y0079040D01*
X0650310Y0079040D01*
X0650310Y0071610D01*
X0650350Y0071570D01*
X0660310Y0032040D02*
X0661310Y0031040D01*
X0661310Y0027040D01*
X0657310Y0023040D01*
X0605310Y0023040D01*
X0596310Y0032040D01*
X0568310Y0032040D01*
X0558310Y0032040D01*
X0548310Y0032040D01*
X0537310Y0041040D02*
X0546310Y0052040D01*
X0548310Y0052040D01*
X0535670Y0054400D02*
X0531310Y0058760D01*
X0531310Y0060040D01*
X0515080Y0056270D02*
X0512310Y0056270D01*
X0510540Y0056270D01*
X0548310Y0062040D02*
X0558310Y0062040D01*
X0568310Y0062040D01*
X0568310Y0042040D02*
X0558310Y0042040D01*
X0548310Y0042040D01*
X0451310Y0135040D02*
X0457310Y0141040D01*
X0492310Y0141040D01*
X0485310Y0144040D02*
X0492310Y0151040D01*
X0522310Y0151040D01*
X0527310Y0151040D01*
X0548310Y0149040D02*
X0558310Y0149040D01*
X0568310Y0149040D01*
X0569310Y0150040D01*
X0603310Y0150040D01*
X0608010Y0154740D01*
X0608010Y0183440D01*
X0608010Y0184340D01*
X0584310Y0208040D01*
X0584310Y0221830D01*
X0584030Y0222110D01*
X0591310Y0189040D02*
X0568310Y0189040D01*
X0568310Y0179040D02*
X0587310Y0179040D01*
X0587310Y0173040D01*
X0595310Y0165040D01*
X0599310Y0165040D01*
X0599310Y0175040D02*
X0594310Y0175040D01*
X0591310Y0178040D01*
X0591310Y0189040D01*
X0536310Y0169040D02*
X0535310Y0168040D01*
X0485310Y0144040D02*
X0461310Y0144040D01*
X0458310Y0147040D01*
X0458310Y0150040D01*
X0451310Y0135040D02*
X0450310Y0135040D01*
X0428310Y0135340D02*
X0428010Y0135040D01*
X0406310Y0197040D02*
X0406310Y0199040D01*
X0483970Y0221700D02*
X0490310Y0228040D01*
X0511310Y0228040D01*
X0516310Y0223040D01*
D70*
X0483970Y0221700D02*
X0470310Y0221700D01*
X0447310Y0221700D01*
X0444650Y0219040D01*
X0426310Y0219040D01*
X0406310Y0199040D01*
X0406310Y0197040D02*
X0416230Y0187120D01*
X0420980Y0187120D01*
X0420980Y0174370D01*
X0428310Y0167040D01*
X0428310Y0135340D01*
X0428010Y0135040D02*
X0416310Y0135040D01*
X0428010Y0135040D02*
X0439310Y0135040D01*
X0450310Y0135040D01*
X0492310Y0141040D02*
X0522310Y0141040D01*
X0540310Y0141040D01*
X0548310Y0149040D01*
X0535310Y0159040D02*
X0535310Y0168040D01*
X0536310Y0169040D02*
X0548310Y0169040D01*
X0535310Y0159040D02*
X0527310Y0151040D01*
X0544310Y0062040D02*
X0548310Y0062040D01*
X0544310Y0062040D02*
X0535670Y0054400D01*
X0535670Y0047650D01*
X0497010Y0048380D02*
X0479720Y0031090D01*
X0474520Y0025900D01*
X0457000Y0025900D01*
X0449310Y0032040D02*
X0452310Y0035040D01*
X0465310Y0035040D01*
X0640310Y0032040D02*
X0650310Y0032040D01*
D66*
X0429510Y0032040D02*
X0417710Y0043840D01*
X0417710Y0051740D01*
X0441310Y0051740D02*
X0442840Y0051740D01*
X0457000Y0065900D01*
X0479720Y0045090D02*
X0475670Y0041040D01*
X0471310Y0041040D01*
X0465310Y0035040D01*
X0449310Y0032040D02*
X0429510Y0032040D01*
X0497010Y0048380D02*
X0497010Y0064540D01*
D21*
X0505310Y0051040D02*
X0510540Y0056270D01*
X0515080Y0056270D02*
X0530310Y0041040D01*
X0537310Y0041040D01*
X0512700Y0031110D02*
X0505310Y0038510D01*
X0505310Y0051040D01*
X0512310Y0059810D02*
X0522080Y0059810D01*
X0522310Y0070040D02*
X0531310Y0070040D01*
X0568310Y0062040D02*
X0575310Y0062040D01*
X0590310Y0047040D01*
X0640310Y0047040D01*
X0640310Y0032040D01*
X0620310Y0032040D02*
X0620310Y0039040D01*
X0617310Y0042040D01*
X0568310Y0042040D01*
D67*
X0558310Y0042040D03*
X0558310Y0052040D03*
X0558310Y0062040D03*
X0558310Y0032040D03*
X0558310Y0149040D03*
X0558310Y0159040D03*
X0558310Y0169040D03*
X0558310Y0179040D03*
X0558310Y0189040D03*
X0558310Y0199040D03*
X0183250Y0333170D02*
G75*
%LPD*%
D49*
X0225810Y0405170D02*
X0220610Y0405170D01*
X0220610Y0415170D02*
X0225810Y0415170D01*
X0225810Y0425170D02*
X0220610Y0425170D01*
X0220610Y0435170D02*
X0225810Y0435170D01*
X0225810Y0445170D02*
X0220610Y0445170D01*
X0220610Y0455170D02*
X0225810Y0455170D01*
X0225810Y0465170D02*
X0220610Y0465170D01*
X0220610Y0475170D02*
X0225810Y0475170D01*
X0195810Y0475170D02*
X0190610Y0475170D01*
X0190610Y0465170D02*
X0195810Y0465170D01*
X0195810Y0455170D02*
X0190610Y0455170D01*
X0190610Y0445170D02*
X0195810Y0445170D01*
X0195810Y0435170D02*
X0190610Y0435170D01*
X0190610Y0425170D02*
X0195810Y0425170D01*
X0195810Y0415170D02*
X0190610Y0415170D01*
X0190610Y0405170D02*
X0195810Y0405170D01*
D77*
X0195710Y0390170D03*
X0195710Y0380170D03*
X0195710Y0370170D03*
X0195710Y0360170D03*
X0225710Y0360170D03*
X0225710Y0370170D03*
X0225710Y0380170D03*
X0225710Y0390170D03*
X0243210Y0380170D03*
X0243210Y0370170D03*
X0243210Y0350170D03*
X0243210Y0340170D03*
X0243210Y0400170D03*
X0243210Y0410170D03*
X0243210Y0430170D03*
X0243210Y0440170D03*
X0243210Y0460170D03*
X0243210Y0470170D03*
X0243210Y0490170D03*
X0243210Y0500170D03*
X0243210Y0520170D03*
X0243210Y0530170D03*
X0243210Y0550170D03*
X0243210Y0560170D03*
X0223210Y0517670D03*
X0223210Y0507670D03*
X0223210Y0497670D03*
X0223210Y0487670D03*
X0193210Y0487670D03*
X0193210Y0497670D03*
X0193210Y0507670D03*
X0193210Y0517670D03*
D112*
X0245710Y0340170D03*
X0245710Y0350170D03*
X0245710Y0370170D03*
X0245710Y0380170D03*
X0245710Y0400170D03*
X0245710Y0410170D03*
X0245710Y0430170D03*
X0245710Y0440170D03*
X0245710Y0460170D03*
X0245710Y0470170D03*
X0245710Y0490170D03*
X0245710Y0500170D03*
X0245710Y0520170D03*
X0245710Y0530170D03*
X0245710Y0550170D03*
X0245710Y0560170D03*
D81*
X0231210Y0534170D02*
X0231210Y0528170D01*
X0221210Y0528170D02*
X0221210Y0534170D01*
X0211210Y0534170D02*
X0211210Y0528170D01*
X0201210Y0528170D02*
X0201210Y0534170D01*
X0191210Y0534170D02*
X0191210Y0528170D01*
X0192210Y0351170D02*
X0192210Y0345170D01*
X0202210Y0345170D02*
X0202210Y0351170D01*
X0212210Y0351170D02*
X0212210Y0345170D01*
X0222210Y0345170D02*
X0222210Y0351170D01*
X0232210Y0351170D02*
X0232210Y0345170D01*
D33*
X0193210Y0405170D02*
X0187210Y0405170D01*
X0187210Y0348170D01*
X0192210Y0348170D01*
D83*
X0195710Y0360170D02*
X0216210Y0360170D01*
X0216210Y0435170D01*
X0223210Y0435170D01*
X0223210Y0445170D02*
X0214210Y0445170D01*
X0214210Y0370170D01*
X0195710Y0370170D01*
X0195710Y0380170D02*
X0212210Y0380170D01*
X0212210Y0455170D01*
X0223210Y0455170D01*
X0223210Y0465170D02*
X0210210Y0465170D01*
X0210210Y0390170D01*
X0195710Y0390170D01*
X0193210Y0405170D02*
X0193210Y0415170D01*
X0193210Y0425170D02*
X0206210Y0425170D01*
X0206210Y0517670D01*
X0193210Y0517670D01*
X0193210Y0507670D02*
X0193210Y0507170D01*
X0204210Y0507170D01*
X0204210Y0435170D01*
X0193210Y0435170D01*
X0193210Y0445170D02*
X0202210Y0445170D01*
X0202210Y0497670D01*
X0193210Y0497670D01*
X0193210Y0487670D02*
X0200210Y0487670D01*
X0200210Y0455170D01*
X0193210Y0455170D01*
X0205210Y0417170D02*
X0208210Y0417170D01*
X0208210Y0467170D01*
X0213210Y0467170D01*
X0213210Y0523170D01*
X0220210Y0523170D01*
X0220210Y0531170D01*
X0221210Y0531170D01*
X0228210Y0519170D02*
X0228210Y0487170D01*
X0223210Y0487170D01*
X0223210Y0487670D01*
X0218210Y0481170D02*
X0230210Y0481170D01*
X0230210Y0415170D01*
X0231210Y0415170D01*
X0231210Y0398170D01*
X0218210Y0398170D01*
X0218210Y0358170D01*
X0212210Y0358170D01*
X0212210Y0348170D01*
X0225710Y0360170D02*
X0238210Y0360170D01*
X0238210Y0340170D01*
X0243210Y0340170D01*
X0243210Y0370170D02*
X0243210Y0371170D01*
X0225710Y0371170D01*
X0225710Y0370170D01*
X0225710Y0380170D02*
X0238210Y0380170D01*
X0238210Y0400170D01*
X0243210Y0400170D01*
X0236210Y0390170D02*
X0225710Y0390170D01*
X0223210Y0415170D02*
X0230210Y0415170D01*
X0236210Y0430170D02*
X0236210Y0390170D01*
X0236210Y0430170D02*
X0243210Y0430170D01*
X0243210Y0460170D02*
X0232210Y0460170D01*
X0232210Y0514170D01*
X0228210Y0519170D02*
X0238210Y0519170D01*
X0238210Y0550170D01*
X0243210Y0550170D01*
X0237210Y0510170D02*
X0237210Y0496170D01*
X0243210Y0490170D01*
X0205210Y0417170D02*
X0205210Y0405170D01*
D45*
X0205210Y0405170D03*
X0205210Y0417170D03*
X0232210Y0514170D03*
X0237210Y0510170D03*
X0488170Y0237400D02*
G75*
%LPD*%
D77*
X0628130Y0272400D03*
X0598130Y0272400D03*
X0593130Y0292400D03*
X0588130Y0299900D03*
X0583130Y0292400D03*
X0573130Y0307400D03*
X0543130Y0307400D03*
X0523130Y0402400D03*
X0523130Y0452400D03*
X0523130Y0467400D03*
X0493130Y0467400D03*
X0493130Y0452400D03*
X0493130Y0402400D03*
X0583130Y0502400D03*
X0583130Y0532400D03*
X0583130Y0542400D03*
X0583130Y0572400D03*
X0608130Y0442400D03*
X0608130Y0412400D03*
D27*
X0593130Y0407400D03*
X0578130Y0407400D03*
X0578130Y0447400D03*
X0593130Y0447400D03*
X0583130Y0272400D03*
X0573130Y0257400D03*
X0543130Y0272400D03*
X0533130Y0257400D03*
D97*
X0603130Y0292400D03*
X0603130Y0307400D03*
X0623130Y0307400D03*
X0623130Y0292400D03*
X0603130Y0507400D03*
X0603130Y0527400D03*
X0603130Y0542400D03*
X0603130Y0562400D03*
D81*
X0598130Y0340400D02*
X0598130Y0334400D01*
X0608130Y0334400D02*
X0608130Y0340400D01*
X0618130Y0340400D02*
X0618130Y0334400D01*
X0506130Y0337400D02*
X0500130Y0337400D01*
X0500130Y0327400D02*
X0506130Y0327400D01*
X0506130Y0317400D02*
X0500130Y0317400D01*
D49*
X0503030Y0362400D02*
X0508230Y0362400D01*
X0508230Y0372400D02*
X0503030Y0372400D01*
X0503030Y0382400D02*
X0508230Y0382400D01*
X0508230Y0417400D02*
X0503030Y0417400D01*
X0503030Y0427400D02*
X0508230Y0427400D01*
X0508230Y0437400D02*
X0503030Y0437400D01*
X0530530Y0442400D02*
X0535730Y0442400D01*
X0535730Y0432400D02*
X0530530Y0432400D01*
X0530530Y0422400D02*
X0535730Y0422400D01*
X0535730Y0392400D02*
X0530530Y0392400D01*
X0530530Y0382400D02*
X0535730Y0382400D01*
X0535730Y0372400D02*
X0530530Y0372400D01*
X0530530Y0362400D02*
X0535730Y0362400D01*
X0560530Y0362400D02*
X0565730Y0362400D01*
X0565730Y0372400D02*
X0560530Y0372400D01*
X0560530Y0382400D02*
X0565730Y0382400D01*
X0565730Y0392400D02*
X0560530Y0392400D01*
X0560530Y0422400D02*
X0565730Y0422400D01*
X0565730Y0432400D02*
X0560530Y0432400D01*
X0560530Y0442400D02*
X0565730Y0442400D01*
X0565730Y0452400D02*
X0560530Y0452400D01*
X0560530Y0487400D02*
X0565730Y0487400D01*
X0565730Y0497400D02*
X0560530Y0497400D01*
X0560530Y0507400D02*
X0565730Y0507400D01*
X0565730Y0517400D02*
X0560530Y0517400D01*
X0560530Y0532400D02*
X0565730Y0532400D01*
X0565730Y0542400D02*
X0560530Y0542400D01*
X0560530Y0552400D02*
X0565730Y0552400D01*
X0565730Y0562400D02*
X0560530Y0562400D01*
X0535730Y0562400D02*
X0530530Y0562400D01*
X0530530Y0552400D02*
X0535730Y0552400D01*
X0535730Y0542400D02*
X0530530Y0542400D01*
X0530530Y0532400D02*
X0535730Y0532400D01*
X0535730Y0517400D02*
X0530530Y0517400D01*
X0530530Y0507400D02*
X0535730Y0507400D01*
X0535730Y0497400D02*
X0530530Y0497400D01*
X0530530Y0487400D02*
X0535730Y0487400D01*
X0535730Y0452400D02*
X0530530Y0452400D01*
X0575530Y0392400D02*
X0580730Y0392400D01*
X0580730Y0382400D02*
X0575530Y0382400D01*
X0575530Y0372400D02*
X0580730Y0372400D01*
X0580730Y0362400D02*
X0575530Y0362400D01*
X0605530Y0362400D02*
X0610730Y0362400D01*
X0610730Y0372400D02*
X0605530Y0372400D01*
X0605530Y0382400D02*
X0610730Y0382400D01*
X0610730Y0392400D02*
X0605530Y0392400D01*
X0608130Y0459800D02*
X0608130Y0465000D01*
X0618130Y0465000D02*
X0618130Y0459800D01*
X0628130Y0459800D02*
X0628130Y0465000D01*
X0638130Y0465000D02*
X0638130Y0459800D01*
X0638130Y0489800D02*
X0638130Y0495000D01*
X0628130Y0495000D02*
X0628130Y0489800D01*
X0618130Y0489800D02*
X0618130Y0495000D01*
X0608130Y0495000D02*
X0608130Y0489800D01*
X0598130Y0489800D02*
X0598130Y0495000D01*
X0588130Y0495000D02*
X0588130Y0489800D01*
X0578130Y0489800D02*
X0578130Y0495000D01*
X0578130Y0465000D02*
X0578130Y0459800D01*
X0588130Y0459800D02*
X0588130Y0465000D01*
X0598130Y0465000D02*
X0598130Y0459800D01*
D43*
X0508130Y0292040D03*
D40*
X0508230Y0263410D03*
X0523140Y0279530D03*
D56*
X0523130Y0307400D03*
X0523130Y0342400D03*
D46*
X0523130Y0332400D03*
X0523130Y0317400D03*
D13*
X0523130Y0612400D03*
X0523130Y0622400D03*
X0513130Y0622400D03*
X0513130Y0612400D03*
X0533130Y0612400D03*
X0533130Y0622400D03*
X0543130Y0622400D03*
X0543130Y0612400D03*
X0553130Y0612400D03*
X0553130Y0622400D03*
D93*
X0553130Y0602400D03*
X0543130Y0602400D03*
X0533130Y0602400D03*
X0523130Y0602400D03*
X0513130Y0602400D03*
X0548130Y0327400D03*
X0558130Y0327400D03*
X0568130Y0327400D03*
D33*
X0573130Y0322400D01*
X0581060Y0322400D01*
X0598130Y0305330D01*
X0598130Y0292400D01*
X0603130Y0292400D01*
X0603130Y0307400D02*
X0603130Y0312400D01*
X0593130Y0322400D01*
X0578130Y0334900D01*
X0553720Y0334900D01*
X0548130Y0329310D01*
X0548130Y0327400D01*
X0540630Y0331990D02*
X0548540Y0339900D01*
X0570630Y0339900D01*
X0578130Y0347400D01*
X0608130Y0347400D01*
X0608130Y0337400D01*
X0608130Y0362400D01*
X0601950Y0362400D01*
X0581950Y0382400D01*
X0578130Y0382400D01*
X0573130Y0382400D01*
X0570630Y0384900D01*
X0570630Y0404900D01*
X0563130Y0412400D01*
X0563130Y0422400D01*
X0563130Y0412400D02*
X0528130Y0412400D01*
X0523130Y0417400D01*
X0523130Y0427400D01*
X0528130Y0432400D01*
X0533130Y0432400D01*
X0533130Y0442400D02*
X0530200Y0442400D01*
X0523130Y0449470D01*
X0523130Y0452400D01*
X0523130Y0467400D01*
X0523130Y0477400D02*
X0513130Y0487400D01*
X0513130Y0602400D01*
X0523130Y0602400D02*
X0523130Y0547400D01*
X0528130Y0542400D01*
X0533130Y0542400D01*
X0536950Y0542400D01*
X0548130Y0531220D01*
X0548130Y0449470D01*
X0555200Y0442400D01*
X0563130Y0442400D01*
X0558130Y0437400D02*
X0563130Y0432400D01*
X0568130Y0432400D01*
X0573130Y0437400D01*
X0573130Y0442400D01*
X0568130Y0447400D01*
X0558130Y0447400D01*
X0553130Y0452400D01*
X0553130Y0527400D01*
X0558130Y0532400D01*
X0563130Y0532400D01*
X0563130Y0542400D02*
X0583130Y0542400D01*
X0603130Y0542400D01*
X0598130Y0552400D02*
X0563130Y0552400D01*
X0583130Y0577400D02*
X0578130Y0582400D01*
X0538130Y0582400D01*
X0533130Y0577400D01*
X0533130Y0562400D01*
X0533130Y0552400D01*
X0538130Y0587400D02*
X0608130Y0587400D01*
X0613130Y0582400D01*
X0613130Y0522400D01*
X0608130Y0517400D01*
X0603130Y0517400D01*
X0583130Y0517400D01*
X0573130Y0507400D01*
X0563130Y0507400D01*
X0563130Y0497400D02*
X0568130Y0497400D01*
X0573130Y0502400D01*
X0583130Y0502400D01*
X0588130Y0507400D01*
X0603130Y0507400D01*
X0603130Y0517400D02*
X0603130Y0527400D01*
X0598130Y0552400D02*
X0603130Y0557400D01*
X0603130Y0562400D01*
X0583130Y0572400D02*
X0583130Y0577400D01*
X0538130Y0587400D02*
X0533130Y0592400D01*
X0533130Y0602400D01*
X0533130Y0517400D02*
X0533130Y0507400D01*
X0533130Y0497400D02*
X0528130Y0497400D01*
X0523130Y0492400D01*
X0523130Y0477400D01*
X0533130Y0467400D01*
X0533130Y0452400D01*
X0523130Y0437400D02*
X0558130Y0437400D01*
X0563130Y0452400D02*
X0573130Y0462400D01*
X0578130Y0462400D01*
X0578130Y0447400D02*
X0593130Y0447400D01*
X0598130Y0447400D01*
X0598130Y0462400D01*
X0598130Y0447400D02*
X0603130Y0447400D01*
X0608130Y0442400D01*
X0608130Y0412400D02*
X0638130Y0412400D01*
X0638130Y0362400D01*
X0628130Y0352400D01*
X0628130Y0337400D01*
X0618130Y0337400D01*
X0628130Y0337400D02*
X0628130Y0307400D01*
X0623130Y0307400D01*
X0628130Y0307400D02*
X0628130Y0292400D01*
X0623130Y0292400D01*
X0628130Y0292400D02*
X0628130Y0272400D01*
X0598130Y0272400D02*
X0588130Y0272400D01*
X0588130Y0299900D01*
X0593130Y0302400D02*
X0593130Y0292400D01*
X0593130Y0302400D02*
X0578130Y0317400D01*
X0565200Y0317400D01*
X0543130Y0317400D01*
X0540630Y0319900D01*
X0540630Y0331990D01*
X0535630Y0344900D02*
X0563130Y0344900D01*
X0570630Y0352400D01*
X0578130Y0372400D02*
X0573130Y0377400D01*
X0505630Y0377400D01*
X0505630Y0382400D01*
X0493130Y0394900D01*
X0493130Y0402400D01*
X0493130Y0417400D02*
X0493130Y0452400D01*
X0505630Y0427400D02*
X0513130Y0427400D01*
X0523130Y0437400D01*
X0505630Y0417400D02*
X0505630Y0397990D01*
X0511220Y0392400D01*
X0533130Y0392400D01*
X0533130Y0382400D01*
X0533130Y0372400D02*
X0505630Y0372400D01*
X0505630Y0362400D02*
X0508130Y0359900D01*
X0508130Y0342400D01*
X0523130Y0342400D01*
X0523130Y0344900D01*
X0535630Y0344900D01*
X0535630Y0307400D01*
X0543130Y0307400D01*
X0542100Y0306360D01*
X0535630Y0307400D02*
X0535630Y0259900D01*
X0533130Y0259900D01*
X0533130Y0257400D01*
X0548130Y0267400D02*
X0543130Y0272400D01*
X0548130Y0267400D02*
X0563130Y0267400D01*
X0573130Y0257400D01*
X0583130Y0272400D02*
X0588130Y0272400D01*
X0583130Y0292400D02*
X0578130Y0297400D01*
X0578130Y0302400D01*
X0573130Y0307400D01*
X0565200Y0317400D02*
X0558130Y0324470D01*
X0558130Y0327400D01*
X0578130Y0392400D02*
X0578130Y0407400D01*
X0593130Y0407400D02*
X0598130Y0402400D01*
X0613130Y0402400D01*
X0618130Y0397400D01*
X0618130Y0387400D01*
X0613130Y0382400D01*
X0608130Y0382400D01*
X0638130Y0412400D02*
X0638130Y0462400D01*
X0628130Y0462400D02*
X0628130Y0472400D01*
X0588130Y0472400D01*
X0588130Y0462400D01*
X0523130Y0307400D02*
X0513130Y0307400D01*
X0503130Y0317400D01*
X0503130Y0337400D02*
X0508130Y0342400D01*
X0523130Y0307400D02*
X0523130Y0307040D01*
X0508130Y0292040D01*
X0505630Y0417400D02*
X0493130Y0417400D01*
D45*
X0570630Y0352400D03*
X0628130Y0352400D03*
X0020000Y0333170D02*
G75*
%LPD*%
D49*
X0062560Y0405170D02*
X0057360Y0405170D01*
X0057360Y0415170D02*
X0062560Y0415170D01*
X0062560Y0425170D02*
X0057360Y0425170D01*
X0057360Y0435170D02*
X0062560Y0435170D01*
X0062560Y0445170D02*
X0057360Y0445170D01*
X0057360Y0455170D02*
X0062560Y0455170D01*
X0062560Y0465170D02*
X0057360Y0465170D01*
X0057360Y0475170D02*
X0062560Y0475170D01*
X0032560Y0475170D02*
X0027360Y0475170D01*
X0027360Y0465170D02*
X0032560Y0465170D01*
X0032560Y0455170D02*
X0027360Y0455170D01*
X0027360Y0445170D02*
X0032560Y0445170D01*
X0032560Y0435170D02*
X0027360Y0435170D01*
X0027360Y0425170D02*
X0032560Y0425170D01*
X0032560Y0415170D02*
X0027360Y0415170D01*
X0027360Y0405170D02*
X0032560Y0405170D01*
D77*
X0032460Y0390170D03*
X0032460Y0380170D03*
X0032460Y0370170D03*
X0032460Y0360170D03*
X0062460Y0360170D03*
X0062460Y0370170D03*
X0062460Y0380170D03*
X0062460Y0390170D03*
X0079960Y0380170D03*
X0079960Y0370170D03*
X0079960Y0350170D03*
X0079960Y0340170D03*
X0079960Y0400170D03*
X0079960Y0410170D03*
X0079960Y0430170D03*
X0079960Y0440170D03*
X0079960Y0460170D03*
X0079960Y0470170D03*
X0079960Y0490170D03*
X0079960Y0500170D03*
X0079960Y0520170D03*
X0079960Y0530170D03*
X0079960Y0550170D03*
X0079960Y0560170D03*
X0059960Y0517670D03*
X0059960Y0507670D03*
X0059960Y0497670D03*
X0059960Y0487670D03*
X0029960Y0487670D03*
X0029960Y0497670D03*
X0029960Y0507670D03*
X0029960Y0517670D03*
D112*
X0082460Y0340170D03*
X0082460Y0350170D03*
X0082460Y0370170D03*
X0082460Y0380170D03*
X0082460Y0400170D03*
X0082460Y0410170D03*
X0082460Y0430170D03*
X0082460Y0440170D03*
X0082460Y0460170D03*
X0082460Y0470170D03*
X0082460Y0490170D03*
X0082460Y0500170D03*
X0082460Y0520170D03*
X0082460Y0530170D03*
X0082460Y0550170D03*
X0082460Y0560170D03*
D81*
X0067960Y0534170D02*
X0067960Y0528170D01*
X0057960Y0528170D02*
X0057960Y0534170D01*
X0047960Y0534170D02*
X0047960Y0528170D01*
X0037960Y0528170D02*
X0037960Y0534170D01*
X0027960Y0534170D02*
X0027960Y0528170D01*
X0028960Y0351170D02*
X0028960Y0345170D01*
X0038960Y0345170D02*
X0038960Y0351170D01*
X0048960Y0351170D02*
X0048960Y0345170D01*
X0058960Y0345170D02*
X0058960Y0351170D01*
X0068960Y0351170D02*
X0068960Y0345170D01*
D33*
X0029960Y0405170D02*
X0023960Y0405170D01*
X0023960Y0348170D01*
X0028960Y0348170D01*
D83*
X0032460Y0360170D02*
X0052960Y0360170D01*
X0052960Y0435170D01*
X0059960Y0435170D01*
X0059960Y0445170D02*
X0050960Y0445170D01*
X0050960Y0370170D01*
X0032460Y0370170D01*
X0032460Y0380170D02*
X0048960Y0380170D01*
X0048960Y0455170D01*
X0059960Y0455170D01*
X0059960Y0465170D02*
X0046960Y0465170D01*
X0046960Y0390170D01*
X0032460Y0390170D01*
X0029960Y0405170D02*
X0029960Y0415170D01*
X0029960Y0425170D02*
X0042960Y0425170D01*
X0042960Y0517670D01*
X0029960Y0517670D01*
X0029960Y0507670D02*
X0029960Y0507170D01*
X0040960Y0507170D01*
X0040960Y0435170D01*
X0029960Y0435170D01*
X0029960Y0445170D02*
X0038960Y0445170D01*
X0038960Y0497670D01*
X0029960Y0497670D01*
X0029960Y0487670D02*
X0036960Y0487670D01*
X0036960Y0455170D01*
X0029960Y0455170D01*
X0041960Y0417170D02*
X0044960Y0417170D01*
X0044960Y0467170D01*
X0049960Y0467170D01*
X0049960Y0523170D01*
X0056960Y0523170D01*
X0056960Y0531170D01*
X0057960Y0531170D01*
X0064960Y0519170D02*
X0064960Y0487170D01*
X0059960Y0487170D01*
X0059960Y0487670D01*
X0054960Y0481170D02*
X0066960Y0481170D01*
X0066960Y0415170D01*
X0067960Y0415170D01*
X0067960Y0398170D01*
X0054960Y0398170D01*
X0054960Y0358170D01*
X0048960Y0358170D01*
X0048960Y0348170D01*
X0062460Y0360170D02*
X0074960Y0360170D01*
X0074960Y0340170D01*
X0079960Y0340170D01*
X0079960Y0370170D02*
X0079960Y0371170D01*
X0062460Y0371170D01*
X0062460Y0370170D01*
X0062460Y0380170D02*
X0074960Y0380170D01*
X0074960Y0400170D01*
X0079960Y0400170D01*
X0072960Y0390170D02*
X0062460Y0390170D01*
X0059960Y0415170D02*
X0066960Y0415170D01*
X0072960Y0430170D02*
X0072960Y0390170D01*
X0072960Y0430170D02*
X0079960Y0430170D01*
X0079960Y0460170D02*
X0068960Y0460170D01*
X0068960Y0514170D01*
X0064960Y0519170D02*
X0074960Y0519170D01*
X0074960Y0550170D01*
X0079960Y0550170D01*
X0073960Y0510170D02*
X0073960Y0496170D01*
X0079960Y0490170D01*
X0041960Y0417170D02*
X0041960Y0405170D01*
D45*
X0041960Y0405170D03*
X0041960Y0417170D03*
X0068960Y0514170D03*
X0073960Y0510170D03*
X0094960Y0333170D02*
G75*
%LPD*%
D49*
X0137520Y0405170D02*
X0132320Y0405170D01*
X0132320Y0415170D02*
X0137520Y0415170D01*
X0137520Y0425170D02*
X0132320Y0425170D01*
X0132320Y0435170D02*
X0137520Y0435170D01*
X0137520Y0445170D02*
X0132320Y0445170D01*
X0132320Y0455170D02*
X0137520Y0455170D01*
X0137520Y0465170D02*
X0132320Y0465170D01*
X0132320Y0475170D02*
X0137520Y0475170D01*
X0107520Y0475170D02*
X0102320Y0475170D01*
X0102320Y0465170D02*
X0107520Y0465170D01*
X0107520Y0455170D02*
X0102320Y0455170D01*
X0102320Y0445170D02*
X0107520Y0445170D01*
X0107520Y0435170D02*
X0102320Y0435170D01*
X0102320Y0425170D02*
X0107520Y0425170D01*
X0107520Y0415170D02*
X0102320Y0415170D01*
X0102320Y0405170D02*
X0107520Y0405170D01*
D77*
X0107420Y0390170D03*
X0107420Y0380170D03*
X0107420Y0370170D03*
X0107420Y0360170D03*
X0137420Y0360170D03*
X0137420Y0370170D03*
X0137420Y0380170D03*
X0137420Y0390170D03*
X0154920Y0380170D03*
X0154920Y0370170D03*
X0154920Y0350170D03*
X0154920Y0340170D03*
X0154920Y0400170D03*
X0154920Y0410170D03*
X0154920Y0430170D03*
X0154920Y0440170D03*
X0154920Y0460170D03*
X0154920Y0470170D03*
X0154920Y0490170D03*
X0154920Y0500170D03*
X0154920Y0520170D03*
X0154920Y0530170D03*
X0154920Y0550170D03*
X0154920Y0560170D03*
X0134920Y0517670D03*
X0134920Y0507670D03*
X0134920Y0497670D03*
X0134920Y0487670D03*
X0104920Y0487670D03*
X0104920Y0497670D03*
X0104920Y0507670D03*
X0104920Y0517670D03*
D112*
X0157420Y0340170D03*
X0157420Y0350170D03*
X0157420Y0370170D03*
X0157420Y0380170D03*
X0157420Y0400170D03*
X0157420Y0410170D03*
X0157420Y0430170D03*
X0157420Y0440170D03*
X0157420Y0460170D03*
X0157420Y0470170D03*
X0157420Y0490170D03*
X0157420Y0500170D03*
X0157420Y0520170D03*
X0157420Y0530170D03*
X0157420Y0550170D03*
X0157420Y0560170D03*
D81*
X0142920Y0534170D02*
X0142920Y0528170D01*
X0132920Y0528170D02*
X0132920Y0534170D01*
X0122920Y0534170D02*
X0122920Y0528170D01*
X0112920Y0528170D02*
X0112920Y0534170D01*
X0102920Y0534170D02*
X0102920Y0528170D01*
X0103920Y0351170D02*
X0103920Y0345170D01*
X0113920Y0345170D02*
X0113920Y0351170D01*
X0123920Y0351170D02*
X0123920Y0345170D01*
X0133920Y0345170D02*
X0133920Y0351170D01*
X0143920Y0351170D02*
X0143920Y0345170D01*
D33*
X0104920Y0405170D02*
X0098920Y0405170D01*
X0098920Y0348170D01*
X0103920Y0348170D01*
D83*
X0107420Y0360170D02*
X0127920Y0360170D01*
X0127920Y0435170D01*
X0134920Y0435170D01*
X0134920Y0445170D02*
X0125920Y0445170D01*
X0125920Y0370170D01*
X0107420Y0370170D01*
X0107420Y0380170D02*
X0123920Y0380170D01*
X0123920Y0455170D01*
X0134920Y0455170D01*
X0134920Y0465170D02*
X0121920Y0465170D01*
X0121920Y0390170D01*
X0107420Y0390170D01*
X0104920Y0405170D02*
X0104920Y0415170D01*
X0104920Y0425170D02*
X0117920Y0425170D01*
X0117920Y0517670D01*
X0104920Y0517670D01*
X0104920Y0507670D02*
X0104920Y0507170D01*
X0115920Y0507170D01*
X0115920Y0435170D01*
X0104920Y0435170D01*
X0104920Y0445170D02*
X0113920Y0445170D01*
X0113920Y0497670D01*
X0104920Y0497670D01*
X0104920Y0487670D02*
X0111920Y0487670D01*
X0111920Y0455170D01*
X0104920Y0455170D01*
X0116920Y0417170D02*
X0119920Y0417170D01*
X0119920Y0467170D01*
X0124920Y0467170D01*
X0124920Y0523170D01*
X0131920Y0523170D01*
X0131920Y0531170D01*
X0132920Y0531170D01*
X0139920Y0519170D02*
X0139920Y0487170D01*
X0134920Y0487170D01*
X0134920Y0487670D01*
X0129920Y0481170D02*
X0141920Y0481170D01*
X0141920Y0415170D01*
X0142920Y0415170D01*
X0142920Y0398170D01*
X0129920Y0398170D01*
X0129920Y0358170D01*
X0123920Y0358170D01*
X0123920Y0348170D01*
X0137420Y0360170D02*
X0149920Y0360170D01*
X0149920Y0340170D01*
X0154920Y0340170D01*
X0154920Y0370170D02*
X0154920Y0371170D01*
X0137420Y0371170D01*
X0137420Y0370170D01*
X0137420Y0380170D02*
X0149920Y0380170D01*
X0149920Y0400170D01*
X0154920Y0400170D01*
X0147920Y0390170D02*
X0137420Y0390170D01*
X0134920Y0415170D02*
X0141920Y0415170D01*
X0147920Y0430170D02*
X0147920Y0390170D01*
X0147920Y0430170D02*
X0154920Y0430170D01*
X0154920Y0460170D02*
X0143920Y0460170D01*
X0143920Y0514170D01*
X0139920Y0519170D02*
X0149920Y0519170D01*
X0149920Y0550170D01*
X0154920Y0550170D01*
X0148920Y0510170D02*
X0148920Y0496170D01*
X0154920Y0490170D01*
X0116920Y0417170D02*
X0116920Y0405170D01*
D45*
X0116920Y0405170D03*
X0116920Y0417170D03*
X0143920Y0514170D03*
X0148920Y0510170D03*
X0658130Y0237400D02*
G75*
%LPD*%
D49*
X0789490Y0332310D02*
X0789490Y0337510D01*
X0779490Y0337510D02*
X0779490Y0332310D01*
X0769490Y0332310D02*
X0769490Y0337510D01*
X0759490Y0337510D02*
X0759490Y0332310D01*
X0749490Y0332310D02*
X0749490Y0337510D01*
X0739490Y0337510D02*
X0739490Y0332310D01*
X0729490Y0332310D02*
X0729490Y0337510D01*
X0719490Y0337510D02*
X0719490Y0332310D01*
X0709490Y0332310D02*
X0709490Y0337510D01*
X0699490Y0337510D02*
X0699490Y0332310D01*
X0699490Y0362310D02*
X0699490Y0367510D01*
X0709490Y0367510D02*
X0709490Y0362310D01*
X0719490Y0362310D02*
X0719490Y0367510D01*
X0729490Y0367510D02*
X0729490Y0362310D01*
X0739490Y0362310D02*
X0739490Y0367510D01*
X0749490Y0367510D02*
X0749490Y0362310D01*
X0759490Y0362310D02*
X0759490Y0367510D01*
X0769490Y0367510D02*
X0769490Y0362310D01*
X0779490Y0362310D02*
X0779490Y0367510D01*
X0789490Y0367510D02*
X0789490Y0362310D01*
X0791560Y0442950D02*
X0786360Y0442950D01*
X0786360Y0452950D02*
X0791560Y0452950D01*
X0791560Y0462950D02*
X0786360Y0462950D01*
X0786360Y0472950D02*
X0791560Y0472950D01*
X0791560Y0482950D02*
X0786360Y0482950D01*
X0786360Y0492950D02*
X0791560Y0492950D01*
X0791560Y0502950D02*
X0786360Y0502950D01*
X0786360Y0512950D02*
X0791560Y0512950D01*
X0791560Y0522950D02*
X0786360Y0522950D01*
X0786360Y0532950D02*
X0791560Y0532950D01*
X0791560Y0542950D02*
X0786360Y0542950D01*
X0786360Y0552950D02*
X0791560Y0552950D01*
X0791560Y0562950D02*
X0786360Y0562950D01*
X0786360Y0572950D02*
X0791560Y0572950D01*
X0816360Y0572950D02*
X0821560Y0572950D01*
X0821560Y0562950D02*
X0816360Y0562950D01*
X0816360Y0552950D02*
X0821560Y0552950D01*
X0821560Y0542950D02*
X0816360Y0542950D01*
X0816360Y0532950D02*
X0821560Y0532950D01*
X0821560Y0522950D02*
X0816360Y0522950D01*
X0816360Y0512950D02*
X0821560Y0512950D01*
X0821560Y0502950D02*
X0816360Y0502950D01*
X0816360Y0492950D02*
X0821560Y0492950D01*
X0821560Y0482950D02*
X0816360Y0482950D01*
X0816360Y0472950D02*
X0821560Y0472950D01*
X0821560Y0462950D02*
X0816360Y0462950D01*
X0816360Y0452950D02*
X0821560Y0452950D01*
X0821560Y0442950D02*
X0816360Y0442950D01*
D13*
X0768690Y0573460D03*
X0768690Y0583460D03*
X0758690Y0583460D03*
X0758690Y0573460D03*
X0748690Y0573460D03*
X0748690Y0583460D03*
X0677490Y0358910D03*
X0677490Y0348910D03*
X0667490Y0348910D03*
X0667490Y0338910D03*
X0667490Y0358910D03*
D77*
X0700490Y0311910D03*
X0700490Y0300910D03*
X0700490Y0289910D03*
X0740490Y0289910D03*
X0740490Y0300910D03*
X0740490Y0311910D03*
X0755490Y0292910D03*
X0755490Y0281910D03*
X0755490Y0270610D03*
X0755490Y0258910D03*
X0747590Y0246410D03*
X0775490Y0258910D03*
X0775490Y0270610D03*
X0775490Y0281910D03*
X0775490Y0292910D03*
X0795490Y0293910D03*
X0795490Y0283910D03*
X0795490Y0267910D03*
X0795490Y0257910D03*
X0787590Y0246410D03*
X0820490Y0364910D03*
X0820490Y0373910D03*
X0830490Y0373910D03*
X0830490Y0364910D03*
X0842880Y0378270D03*
X0862880Y0378270D03*
X0797490Y0378910D03*
X0797490Y0388910D03*
X0788490Y0410910D03*
X0768490Y0410910D03*
X0757490Y0388910D03*
X0757490Y0378910D03*
X0707090Y0450610D03*
X0697090Y0450610D03*
X0697090Y0468910D03*
X0707090Y0468910D03*
X0710790Y0487550D03*
X0710590Y0498580D03*
X0710600Y0509300D03*
X0710790Y0523150D03*
X0720490Y0523210D03*
X0730490Y0522910D03*
X0730600Y0509300D03*
X0730590Y0498580D03*
X0730790Y0487550D03*
X0700790Y0523210D03*
X0690890Y0523310D03*
X0690890Y0563310D03*
X0700790Y0563210D03*
X0710790Y0563150D03*
X0720490Y0563210D03*
X0730490Y0562910D03*
D84*
X0745260Y0502920D02*
X0749660Y0502920D01*
X0749660Y0482920D02*
X0745260Y0482920D01*
X0759490Y0316110D02*
X0759490Y0311710D01*
X0779490Y0311710D02*
X0779490Y0316110D01*
D81*
X0738490Y0257910D02*
X0732490Y0257910D01*
X0732490Y0247910D02*
X0738490Y0247910D01*
X0741490Y0387910D02*
X0741490Y0393910D01*
X0731490Y0393910D02*
X0731490Y0387910D01*
X0721490Y0387910D02*
X0721490Y0393910D01*
X0711490Y0393910D02*
X0711490Y0387910D01*
X0701490Y0387910D02*
X0701490Y0393910D01*
X0691490Y0393910D02*
X0691490Y0387910D01*
X0691490Y0407910D02*
X0691490Y0413910D01*
X0701490Y0413910D02*
X0701490Y0407910D01*
X0711490Y0407910D02*
X0711490Y0413910D01*
X0721490Y0413910D02*
X0721490Y0407910D01*
X0731490Y0407910D02*
X0731490Y0413910D01*
X0741490Y0413910D02*
X0741490Y0407910D01*
X0752840Y0524410D02*
X0752840Y0530410D01*
X0752840Y0550010D02*
X0752840Y0556010D01*
X0770640Y0556010D02*
X0770640Y0550010D01*
X0770640Y0530410D02*
X0770640Y0524410D01*
X0828490Y0413910D02*
X0828490Y0407910D01*
X0828490Y0393910D02*
X0828490Y0387910D01*
X0838490Y0387910D02*
X0838490Y0393910D01*
X0848490Y0393910D02*
X0848490Y0387910D01*
X0858490Y0387910D02*
X0858490Y0393910D01*
X0858490Y0407910D02*
X0858490Y0413910D01*
X0848490Y0413910D02*
X0848490Y0407910D01*
X0838490Y0407910D02*
X0838490Y0413910D01*
X0855490Y0452910D02*
X0861490Y0452910D01*
X0861490Y0462910D02*
X0855490Y0462910D01*
X0855490Y0472910D02*
X0861490Y0472910D01*
X0861490Y0482910D02*
X0855490Y0482910D01*
X0855490Y0492910D02*
X0861490Y0492910D01*
X0861490Y0502910D02*
X0855490Y0502910D01*
X0855380Y0523030D02*
X0861380Y0523030D01*
X0861380Y0533030D02*
X0855380Y0533030D01*
X0855380Y0543030D02*
X0861380Y0543030D01*
X0861380Y0553030D02*
X0855380Y0553030D01*
X0855380Y0563030D02*
X0861380Y0563030D01*
X0861380Y0573030D02*
X0855380Y0573030D01*
X0828990Y0339610D02*
X0822990Y0339610D01*
X0822990Y0329610D02*
X0828990Y0329610D01*
X0828990Y0319610D02*
X0822990Y0319610D01*
X0671420Y0416630D02*
X0665420Y0416630D01*
X0665420Y0426630D02*
X0671420Y0426630D01*
X0671420Y0436630D02*
X0665420Y0436630D01*
X0665420Y0446630D02*
X0671420Y0446630D01*
X0671420Y0456630D02*
X0665420Y0456630D01*
X0665420Y0466630D02*
X0671420Y0466630D01*
X0671420Y0476630D02*
X0665420Y0476630D01*
X0665420Y0486630D02*
X0671420Y0486630D01*
X0671580Y0502620D02*
X0665580Y0502620D01*
X0665580Y0512620D02*
X0671580Y0512620D01*
X0671580Y0522620D02*
X0665580Y0522620D01*
X0665580Y0532620D02*
X0671580Y0532620D01*
X0671580Y0542620D02*
X0665580Y0542620D01*
X0665580Y0552620D02*
X0671580Y0552620D01*
X0671580Y0562620D02*
X0665580Y0562620D01*
X0665580Y0572620D02*
X0671580Y0572620D01*
D27*
X0824630Y0299600D03*
X0864630Y0299600D03*
D97*
X0845440Y0322320D03*
X0845420Y0355300D03*
D65*
X0859420Y0355300D03*
X0859440Y0322320D03*
D79*
X0838790Y0283910D03*
X0838790Y0260310D03*
X0858490Y0272110D03*
D14*
X0703410Y0271450D03*
X0703410Y0263580D03*
X0693570Y0263580D03*
X0693570Y0271450D03*
D32*
X0677490Y0338910D03*
D74*
X0686150Y0312910D03*
X0686150Y0289910D03*
X0668830Y0289910D03*
X0668830Y0312910D03*
D81*
X0667490Y0378910D03*
X0677490Y0378910D03*
D105*
X0830720Y0354910D03*
X0834260Y0354910D03*
D83*
X0830720Y0364680D02*
X0830490Y0364910D01*
X0802490Y0383910D02*
X0797490Y0388910D01*
X0802490Y0383910D02*
X0802490Y0272910D01*
X0797490Y0267910D01*
X0795490Y0267910D01*
X0781490Y0286910D02*
X0781490Y0311910D01*
X0779490Y0313910D01*
X0773490Y0313910D01*
X0770490Y0316910D01*
X0770490Y0333910D01*
X0769490Y0334910D01*
X0759490Y0334910D02*
X0759490Y0313910D01*
X0775490Y0297910D01*
X0775490Y0292910D01*
X0781490Y0286910D02*
X0776490Y0281910D01*
X0775490Y0281910D01*
X0795490Y0293910D02*
X0797490Y0295910D01*
X0797490Y0378910D01*
X0788490Y0410910D02*
X0816490Y0410910D01*
X0840490Y0434910D01*
X0840490Y0513910D01*
X0826490Y0480910D02*
X0827910Y0479480D01*
X0827910Y0476290D01*
X0821490Y0482910D01*
X0821450Y0482950D01*
X0818960Y0482950D01*
X0818960Y0472950D02*
X0825450Y0472950D01*
X0834490Y0463910D01*
X0834490Y0438910D01*
X0819490Y0423910D01*
X0773490Y0423910D01*
X0737490Y0459910D01*
X0681490Y0459910D01*
X0674490Y0447910D01*
X0673490Y0446910D01*
X0668700Y0446910D01*
X0668420Y0446630D01*
X0676490Y0440910D02*
X0673210Y0435630D01*
X0668420Y0436630D01*
X0676490Y0440910D02*
X0685490Y0455910D01*
X0736490Y0455910D01*
X0772490Y0419910D01*
X0820490Y0419910D01*
X0837490Y0436910D01*
X0837490Y0466420D01*
X0827910Y0476290D01*
X0826490Y0480910D02*
X0826490Y0582910D01*
X0819490Y0582910D01*
X0814490Y0589910D02*
X0810490Y0585910D01*
X0810490Y0511420D01*
X0818960Y0502950D01*
X0804490Y0468910D02*
X0804490Y0578910D01*
X0754140Y0578910D01*
X0748690Y0573460D01*
X0758690Y0583460D02*
X0758690Y0588710D01*
X0758490Y0588910D01*
X0807490Y0588910D01*
X0807490Y0448910D01*
X0806490Y0447910D01*
X0816490Y0435910D02*
X0818960Y0438380D01*
X0818960Y0442950D01*
X0816490Y0435910D02*
X0776490Y0435910D01*
X0734490Y0477910D01*
X0668700Y0477910D01*
X0668420Y0476630D01*
X0668420Y0486630D02*
X0681140Y0481910D01*
X0735490Y0481910D01*
X0774450Y0442950D01*
X0788960Y0442950D01*
X0775490Y0431910D02*
X0817490Y0431910D01*
X0828490Y0442910D01*
X0828490Y0450910D01*
X0826450Y0452950D01*
X0818960Y0452950D01*
X0818960Y0462950D02*
X0830450Y0462950D01*
X0831490Y0461910D01*
X0831490Y0440910D01*
X0818490Y0427910D01*
X0774490Y0427910D01*
X0738490Y0463910D01*
X0681700Y0463910D01*
X0668420Y0456630D01*
X0668420Y0466630D02*
X0668700Y0466910D01*
X0673490Y0466910D01*
X0681490Y0473910D01*
X0733490Y0473910D01*
X0775490Y0431910D01*
X0801490Y0465910D02*
X0804490Y0468910D01*
X0788960Y0522950D02*
X0788960Y0523440D01*
X0777490Y0535910D01*
X0742490Y0535910D01*
X0726490Y0546910D01*
X0684870Y0546910D01*
X0668580Y0532620D01*
X0668580Y0542620D02*
X0673200Y0542620D01*
X0683490Y0549910D01*
X0727490Y0549910D01*
X0743490Y0538910D01*
X0783010Y0538910D01*
X0788960Y0532950D01*
X0786920Y0541910D02*
X0788960Y0542950D01*
X0786920Y0541910D02*
X0744490Y0541910D01*
X0729490Y0552910D01*
X0680490Y0552910D01*
X0676200Y0552620D01*
X0668580Y0552620D01*
X0668580Y0572620D02*
X0668580Y0572910D01*
X0703490Y0572910D01*
X0707490Y0568910D01*
X0719490Y0568910D01*
X0721490Y0563210D01*
X0720490Y0563210D02*
X0729190Y0569910D01*
X0730490Y0569910D01*
X0738490Y0565910D01*
X0787490Y0565910D01*
X0788960Y0564440D01*
X0788960Y0562950D01*
X0788960Y0552950D02*
X0784450Y0552950D01*
X0775490Y0561910D01*
X0731490Y0561910D01*
X0730490Y0562910D01*
X0730490Y0555910D02*
X0745490Y0544910D01*
X0767490Y0544910D01*
X0770640Y0549060D01*
X0770640Y0553010D01*
X0730490Y0555910D02*
X0718030Y0555910D01*
X0710790Y0563150D01*
X0720490Y0421910D02*
X0730490Y0421910D01*
X0734490Y0417910D01*
X0736490Y0417910D01*
X0731490Y0410910D02*
X0731490Y0400910D01*
X0731490Y0390910D01*
X0711490Y0390910D02*
X0711490Y0400910D01*
X0711490Y0410910D01*
X0701490Y0410910D02*
X0701490Y0400910D01*
X0701490Y0390910D01*
X0691490Y0390910D02*
X0691490Y0400910D01*
X0691490Y0410910D01*
X0699490Y0364910D02*
X0693490Y0358910D01*
X0677490Y0358910D01*
X0677490Y0348910D02*
X0710490Y0348910D01*
X0720490Y0338910D01*
X0720490Y0335910D01*
X0719490Y0334910D01*
X0729490Y0334910D02*
X0730490Y0333910D01*
X0730490Y0293910D01*
X0734490Y0289910D01*
X0740490Y0289910D01*
X0703490Y0325910D02*
X0709490Y0331910D01*
X0709490Y0334910D01*
X0703490Y0325910D02*
X0692490Y0325910D01*
X0679490Y0338910D01*
X0677490Y0338910D01*
X0672490Y0343910D02*
X0690490Y0343910D01*
X0699490Y0334910D01*
X0699490Y0312910D02*
X0686150Y0312910D01*
X0699490Y0312910D02*
X0700490Y0311910D01*
X0700490Y0300910D02*
X0700490Y0289910D01*
X0689490Y0289910D01*
X0688490Y0288910D01*
X0687150Y0288910D01*
X0686150Y0289910D01*
X0684490Y0288250D01*
X0684490Y0264910D01*
X0685820Y0263580D01*
X0693570Y0263580D01*
X0672490Y0343910D02*
X0667490Y0348910D01*
X0757490Y0378910D02*
X0759490Y0376910D01*
X0759490Y0364910D01*
X0769490Y0364910D02*
X0769490Y0381910D01*
X0762490Y0388910D01*
X0757490Y0388910D01*
X0848490Y0555910D02*
X0829490Y0573910D01*
X0829490Y0586910D01*
X0827490Y0589910D01*
X0814490Y0589910D01*
D45*
X0819490Y0582910D03*
X0840490Y0513910D03*
X0801490Y0465910D03*
X0806490Y0447910D03*
X0736490Y0417910D03*
X0720490Y0421910D03*
X0725490Y0441910D03*
X0715490Y0441910D03*
X0717490Y0487910D03*
X0724490Y0497910D03*
X0712490Y0573910D03*
D33*
X0738490Y0573910D01*
X0748040Y0583460D01*
X0748690Y0583460D01*
X0733490Y0530910D02*
X0740490Y0523910D01*
X0740490Y0512910D01*
X0736880Y0509300D01*
X0730600Y0509300D01*
X0724490Y0517910D02*
X0724490Y0497910D01*
X0717490Y0487910D02*
X0717490Y0519910D01*
X0720490Y0522910D01*
X0720490Y0523210D01*
X0724490Y0517910D02*
X0728490Y0522910D01*
X0730490Y0522910D01*
X0733490Y0530910D02*
X0711490Y0530910D01*
X0710490Y0529910D01*
X0710490Y0523910D01*
X0711250Y0523150D01*
X0710790Y0523150D01*
X0740490Y0512910D02*
X0788920Y0512910D01*
X0788960Y0512950D01*
X0796450Y0512950D01*
X0796490Y0441910D01*
X0811490Y0441910D01*
X0811490Y0492910D01*
X0818920Y0492910D01*
X0818960Y0492950D01*
X0858490Y0502910D02*
X0859490Y0503910D01*
X0863490Y0503910D01*
X0867490Y0499910D01*
X0867490Y0447910D01*
X0858490Y0438910D01*
X0858490Y0410910D01*
X0858490Y0400910D01*
X0858490Y0390910D01*
X0849490Y0379910D02*
X0838490Y0388910D01*
X0838490Y0390910D01*
X0836130Y0378270D02*
X0831770Y0373910D01*
X0830490Y0373910D01*
X0834260Y0357680D02*
X0834260Y0354910D01*
X0834260Y0353140D01*
X0828490Y0390910D02*
X0828490Y0400910D01*
X0828490Y0410910D01*
X0848490Y0410910D02*
X0848490Y0400910D01*
X0848490Y0390910D01*
X0755490Y0293910D02*
X0749490Y0299910D01*
X0749490Y0334910D01*
X0746490Y0327910D02*
X0739490Y0334910D01*
X0739490Y0364910D01*
X0739490Y0369910D01*
X0741490Y0390910D02*
X0741490Y0400910D01*
X0741490Y0410910D01*
X0740490Y0411910D01*
X0740490Y0445910D01*
X0735790Y0450610D01*
X0707090Y0450610D01*
X0706190Y0450610D01*
X0682490Y0426910D01*
X0668700Y0426910D01*
X0668420Y0426630D01*
X0701490Y0433910D02*
X0701490Y0410910D01*
X0711490Y0410910D02*
X0711490Y0429910D01*
X0717490Y0429910D01*
X0725490Y0437910D01*
X0725490Y0441910D01*
X0715490Y0441910D02*
X0715490Y0436910D01*
X0712490Y0433910D01*
X0701490Y0433910D01*
X0721490Y0378910D02*
X0722490Y0377910D01*
X0746490Y0327910D02*
X0746490Y0303910D01*
X0743490Y0300910D01*
X0740490Y0300910D01*
X0755490Y0293910D02*
X0755490Y0292910D01*
X0755190Y0270910D02*
X0755490Y0270610D01*
X0693490Y0248910D02*
X0691490Y0248910D01*
X0668830Y0326570D02*
X0662490Y0332910D01*
X0662490Y0353910D01*
X0667490Y0358910D01*
D70*
X0668830Y0326570D02*
X0668830Y0312910D01*
X0668830Y0289910D01*
X0671490Y0287250D01*
X0671490Y0268910D01*
X0691490Y0248910D01*
X0693490Y0248910D02*
X0703410Y0258830D01*
X0703410Y0263580D01*
X0716160Y0263580D01*
X0723490Y0270910D01*
X0755190Y0270910D01*
X0755490Y0270610D02*
X0755490Y0258910D01*
X0755490Y0270610D02*
X0755490Y0281910D01*
X0755490Y0292910D01*
X0749490Y0334910D02*
X0749490Y0364910D01*
X0749490Y0382910D01*
X0741490Y0390910D01*
X0731490Y0377910D02*
X0722490Y0377910D01*
X0721490Y0378910D02*
X0721490Y0390910D01*
X0731490Y0377910D02*
X0739490Y0369910D01*
X0828490Y0386910D02*
X0828490Y0390910D01*
X0828490Y0386910D02*
X0836130Y0378270D01*
X0842880Y0378270D01*
X0842150Y0339610D02*
X0859440Y0322320D01*
X0864630Y0317120D01*
X0864630Y0299600D01*
X0858490Y0291910D02*
X0855490Y0294910D01*
X0855490Y0307910D01*
X0858490Y0482910D02*
X0858490Y0492910D01*
D66*
X0858490Y0272110D02*
X0846690Y0260310D01*
X0838790Y0260310D01*
X0838790Y0283910D02*
X0838790Y0285440D01*
X0824630Y0299600D01*
X0845440Y0322320D02*
X0849490Y0318270D01*
X0849490Y0313910D01*
X0855490Y0307910D01*
X0858490Y0291910D02*
X0858490Y0272110D01*
X0842150Y0339610D02*
X0825990Y0339610D01*
D21*
X0839490Y0347910D02*
X0834260Y0353140D01*
X0834260Y0357680D02*
X0849490Y0372910D01*
X0849490Y0379910D01*
X0859420Y0355300D02*
X0852020Y0347910D01*
X0839490Y0347910D01*
X0830720Y0354910D02*
X0830720Y0364680D01*
X0820490Y0364910D02*
X0820490Y0373910D01*
X0828490Y0410910D02*
X0828490Y0417910D01*
X0843490Y0432910D01*
X0843490Y0482910D01*
X0858490Y0482910D01*
X0858490Y0462910D02*
X0851490Y0462910D01*
X0848490Y0459910D01*
X0848490Y0410910D01*
D67*
X0848490Y0400910D03*
X0838490Y0400910D03*
X0828490Y0400910D03*
X0858490Y0400910D03*
X0741490Y0400910D03*
X0731490Y0400910D03*
X0721490Y0400910D03*
X0711490Y0400910D03*
X0701490Y0400910D03*
X0691490Y0400910D03*
X0755560Y0020000D02*
G75*
%LPD*%
D85*
X0818060Y0099760D03*
X0823060Y0099760D03*
X0828060Y0099760D03*
X0833060Y0099760D03*
X0833060Y0120230D03*
X0828060Y0120230D03*
X0823060Y0120230D03*
X0818060Y0120230D03*
D42*
X0844310Y0088000D03*
X0844310Y0083000D03*
X0844310Y0078000D03*
X0844310Y0073000D03*
X0844310Y0068000D03*
X0844310Y0063000D03*
X0844310Y0058000D03*
X0844310Y0053000D03*
X0844310Y0048000D03*
X0844310Y0043000D03*
X0880810Y0043000D03*
X0880810Y0048000D03*
X0880810Y0053000D03*
X0880810Y0058000D03*
X0880810Y0063000D03*
X0880810Y0068000D03*
X0880810Y0073000D03*
X0880810Y0078000D03*
X0880810Y0083000D03*
X0880810Y0088000D03*
D41*
X0808060Y0099700D03*
X0803060Y0099700D03*
X0798060Y0099700D03*
X0793060Y0099700D03*
X0793060Y0120300D03*
X0798060Y0120300D03*
X0803060Y0120300D03*
X0808060Y0120300D03*
D54*
X0824460Y0075020D03*
X0824460Y0071870D03*
X0824460Y0068720D03*
X0824460Y0065570D03*
X0824460Y0062420D03*
X0824460Y0059270D03*
X0824460Y0056120D03*
X0824460Y0052970D03*
X0790660Y0052970D03*
X0790660Y0056120D03*
X0790660Y0059270D03*
X0790660Y0062420D03*
X0790660Y0065570D03*
X0790660Y0068720D03*
X0790660Y0071870D03*
X0790660Y0075020D03*
D60*
X0796540Y0080900D03*
X0799690Y0080900D03*
X0802840Y0080900D03*
X0805990Y0080900D03*
X0809140Y0080900D03*
X0812290Y0080900D03*
X0815440Y0080900D03*
X0818590Y0080900D03*
X0818590Y0047100D03*
X0815440Y0047100D03*
X0812290Y0047100D03*
X0809140Y0047100D03*
X0805990Y0047100D03*
X0802840Y0047100D03*
X0799690Y0047100D03*
X0796540Y0047100D03*
D29*
X0760640Y0024120D03*
X0760640Y0039870D03*
X0760640Y0044120D03*
X0760640Y0059870D03*
X0760640Y0064120D03*
X0760640Y0079870D03*
X0760640Y0084120D03*
X0760640Y0099870D03*
X0760700Y0113090D03*
X0760700Y0124900D03*
D53*
X0775470Y0120970D03*
X0775470Y0117030D03*
D51*
X0784560Y0114450D03*
X0784560Y0121540D03*
D69*
X0802020Y0130000D03*
X0809110Y0130000D03*
X0817020Y0130000D03*
X0824110Y0130000D03*
X0832020Y0130000D03*
X0839110Y0130000D03*
D82*
X0769500Y0095930D03*
X0769500Y0092000D03*
X0769500Y0088060D03*
X0769500Y0075930D03*
X0769500Y0072000D03*
X0769500Y0068060D03*
X0769500Y0055930D03*
X0769500Y0052000D03*
X0769500Y0048060D03*
X0769500Y0035930D03*
X0769500Y0032000D03*
X0769500Y0028060D03*
D94*
X0850660Y0129860D03*
X0862470Y0129860D03*
X0873660Y0129860D03*
X0885470Y0129860D03*
D17*
X0881530Y0115090D03*
X0877590Y0115090D03*
X0858530Y0115090D03*
X0854590Y0115090D03*
D81*
X0838560Y0030000D02*
X0838560Y0024000D01*
X0828560Y0024000D02*
X0828560Y0030000D01*
X0818560Y0030000D02*
X0818560Y0024000D01*
X0808560Y0024000D02*
X0808560Y0030000D01*
X0798560Y0030000D02*
X0798560Y0024000D01*
X0788560Y0024000D02*
X0788560Y0030000D01*
D48*
X0790760Y0028800D02*
X0789160Y0027200D01*
X0788560Y0027000D01*
X0790760Y0028800D02*
X0790760Y0036000D01*
X0806760Y0036000D01*
X0814760Y0044000D01*
X0814760Y0046400D01*
X0815440Y0047100D01*
X0817960Y0046400D02*
X0817960Y0044000D01*
X0808360Y0034400D01*
X0798760Y0034400D01*
X0798760Y0027200D01*
X0798560Y0027000D01*
X0808560Y0027000D02*
X0809160Y0027200D01*
X0821160Y0039200D01*
X0821160Y0049600D01*
X0824360Y0052800D01*
X0824460Y0052970D01*
X0825160Y0056000D02*
X0824460Y0056120D01*
X0825160Y0056000D02*
X0828360Y0056000D01*
X0828360Y0036800D01*
X0818560Y0027000D01*
X0835160Y0028000D02*
X0837960Y0027200D01*
X0838560Y0027000D01*
X0844310Y0043000D02*
X0844360Y0043200D01*
X0855560Y0049200D01*
X0855560Y0061000D01*
X0855760Y0059200D01*
X0854760Y0075200D01*
X0847760Y0078400D02*
X0844360Y0078400D01*
X0844310Y0078000D01*
X0843560Y0082400D02*
X0841160Y0082400D01*
X0837760Y0080000D01*
X0836760Y0077600D01*
X0837160Y0076000D01*
X0833960Y0072000D02*
X0833960Y0092800D01*
X0836360Y0095200D01*
X0836360Y0127200D01*
X0838760Y0129600D01*
X0839110Y0130000D01*
X0836360Y0127200D02*
X0833160Y0124000D01*
X0833160Y0120800D01*
X0833060Y0120230D01*
X0828360Y0120800D02*
X0828060Y0120230D01*
X0828360Y0120800D02*
X0828360Y0130400D01*
X0824360Y0130400D01*
X0824110Y0130000D01*
X0828360Y0130400D02*
X0831560Y0130400D01*
X0832020Y0130000D01*
X0821160Y0133600D02*
X0821160Y0122400D01*
X0822760Y0120800D01*
X0823060Y0120230D01*
X0818060Y0120230D02*
X0817960Y0120800D01*
X0808360Y0120800D01*
X0808060Y0120300D01*
X0805960Y0122400D01*
X0805960Y0132000D01*
X0804360Y0133600D01*
X0781540Y0133600D01*
X0769560Y0121620D01*
X0769560Y0117000D01*
X0775470Y0117000D01*
X0777560Y0117000D01*
X0779560Y0115000D01*
X0784560Y0115000D01*
X0784560Y0114450D01*
X0784360Y0114400D01*
X0774760Y0104800D01*
X0774760Y0080800D01*
X0773160Y0079200D01*
X0773160Y0068800D01*
X0774760Y0068800D01*
X0774760Y0060000D01*
X0770760Y0056000D01*
X0769500Y0055930D01*
X0769960Y0056000D01*
X0770760Y0056000D01*
X0775160Y0053600D01*
X0775160Y0039200D01*
X0769960Y0036000D01*
X0769500Y0035930D01*
X0769500Y0028060D02*
X0769960Y0028000D01*
X0780360Y0028000D01*
X0784360Y0024800D02*
X0784360Y0032000D01*
X0795560Y0043200D01*
X0802760Y0043200D01*
X0802760Y0046400D01*
X0802840Y0047100D01*
X0800360Y0047200D02*
X0799690Y0047100D01*
X0800360Y0047200D02*
X0800360Y0058400D01*
X0803560Y0061600D01*
X0803560Y0066400D02*
X0797160Y0060000D01*
X0797160Y0047200D01*
X0796540Y0047100D01*
X0801960Y0040000D02*
X0805960Y0044000D01*
X0805960Y0046400D01*
X0805990Y0047100D01*
X0806760Y0052800D02*
X0806760Y0080800D01*
X0805990Y0080900D01*
X0803560Y0081600D02*
X0802840Y0080900D01*
X0803560Y0081600D02*
X0803560Y0086400D01*
X0800360Y0090400D02*
X0800360Y0081600D01*
X0799690Y0080900D01*
X0796540Y0080900D02*
X0796360Y0080800D01*
X0792360Y0084800D01*
X0790660Y0075020D02*
X0789960Y0074400D01*
X0787560Y0074400D01*
X0785160Y0072000D01*
X0789960Y0068800D02*
X0790660Y0068720D01*
X0790760Y0068000D01*
X0793960Y0068000D01*
X0796760Y0067200D01*
X0796760Y0064000D01*
X0797360Y0065000D01*
X0796760Y0064000D02*
X0796760Y0063200D01*
X0790760Y0063200D01*
X0790660Y0062420D01*
X0789960Y0064800D02*
X0787560Y0064800D01*
X0786760Y0064000D01*
X0786760Y0060000D01*
X0786760Y0043200D01*
X0790660Y0059270D02*
X0789960Y0060000D01*
X0786760Y0060000D01*
X0789960Y0064800D02*
X0790660Y0065570D01*
X0789960Y0068800D02*
X0774760Y0068800D01*
X0769560Y0067400D02*
X0769560Y0063800D01*
X0769560Y0067400D02*
X0768960Y0068000D01*
X0769500Y0068060D01*
X0769500Y0075930D02*
X0769960Y0076000D01*
X0773160Y0079200D01*
X0771560Y0084800D02*
X0771560Y0086400D01*
X0769960Y0088000D01*
X0769500Y0088060D01*
X0769500Y0092000D02*
X0764360Y0092000D01*
X0763360Y0091600D01*
X0769500Y0095930D02*
X0769960Y0096000D01*
X0769960Y0100000D01*
X0774760Y0104800D01*
X0775470Y0117000D02*
X0775470Y0117030D01*
X0775470Y0120970D02*
X0784560Y0120970D01*
X0784560Y0121540D01*
X0785160Y0120800D01*
X0792360Y0113600D01*
X0792360Y0100000D01*
X0793060Y0099700D01*
X0793160Y0100000D01*
X0797960Y0100000D01*
X0798060Y0099700D01*
X0803060Y0099700D02*
X0803560Y0100000D01*
X0807560Y0100000D01*
X0808060Y0099700D01*
X0808360Y0099200D01*
X0808360Y0098400D01*
X0827560Y0079200D01*
X0830760Y0083200D02*
X0830760Y0097600D01*
X0832360Y0099200D01*
X0833060Y0099760D01*
X0832360Y0100000D01*
X0830760Y0101600D01*
X0830760Y0104800D01*
X0822760Y0112800D01*
X0793960Y0112800D01*
X0793960Y0119200D01*
X0793160Y0120000D01*
X0793060Y0120300D01*
X0798060Y0120300D02*
X0798760Y0120800D01*
X0798760Y0126400D01*
X0801960Y0129600D01*
X0802020Y0130000D01*
X0809110Y0130000D02*
X0809160Y0130400D01*
X0813960Y0130400D01*
X0813960Y0132800D01*
X0814760Y0133600D01*
X0821160Y0133600D01*
X0817020Y0130000D02*
X0817160Y0129600D01*
X0817960Y0128800D01*
X0817960Y0120800D01*
X0843560Y0088000D02*
X0844310Y0088000D01*
X0843560Y0088000D02*
X0843560Y0086400D01*
X0837160Y0086400D01*
X0843560Y0082400D02*
X0844310Y0083000D01*
X0844310Y0073000D02*
X0844360Y0072800D01*
X0844360Y0068000D01*
X0844310Y0068000D01*
X0843560Y0068000D01*
X0843560Y0064800D01*
X0843560Y0063200D01*
X0844310Y0063000D01*
X0844360Y0062400D01*
X0844360Y0058400D01*
X0844310Y0058000D01*
X0844310Y0053000D02*
X0843560Y0052800D01*
X0841960Y0052800D01*
X0844310Y0048000D02*
X0846760Y0048000D01*
X0851960Y0050200D01*
X0851960Y0058200D01*
X0851560Y0060800D01*
X0843560Y0064800D02*
X0835160Y0064800D01*
X0825160Y0064800D01*
X0824460Y0065570D01*
X0824460Y0071870D02*
X0825160Y0072000D01*
X0833960Y0072000D01*
X0812360Y0065600D02*
X0812360Y0080800D01*
X0812290Y0080900D01*
X0809160Y0080800D02*
X0809140Y0080900D01*
X0809160Y0080800D02*
X0809160Y0064000D01*
X0818760Y0054400D01*
X0818590Y0047100D02*
X0817960Y0046400D01*
X0784360Y0024800D02*
X0767560Y0024800D01*
X0765160Y0027200D01*
X0765160Y0044000D01*
X0769160Y0048000D01*
X0769500Y0048060D01*
X0864760Y0076600D02*
X0862760Y0084600D01*
X0864760Y0076600D02*
X0864760Y0047800D01*
X0876360Y0043200D01*
X0880360Y0043200D01*
X0880810Y0043000D01*
X0880360Y0047400D02*
X0880360Y0048000D01*
X0880810Y0048000D01*
X0880360Y0047400D02*
X0870960Y0050400D01*
X0873960Y0056200D02*
X0873960Y0057600D01*
X0880360Y0057600D01*
X0880810Y0058000D01*
X0881160Y0058400D01*
X0881160Y0062400D01*
X0880810Y0063000D01*
X0881160Y0063200D01*
X0881160Y0068000D01*
X0880810Y0068000D01*
X0881160Y0068000D02*
X0881160Y0072800D01*
X0880810Y0073000D01*
X0880810Y0078000D02*
X0880360Y0078400D01*
X0880360Y0082400D02*
X0880810Y0083000D01*
X0880360Y0082400D02*
X0873160Y0082400D01*
X0873160Y0088000D02*
X0880810Y0088000D01*
X0881960Y0114400D02*
X0881530Y0115090D01*
X0877590Y0115090D02*
X0877160Y0114400D01*
X0881160Y0053600D02*
X0880810Y0053000D01*
X0881160Y0053600D02*
X0883560Y0053600D01*
D33*
X0888760Y0053800D01*
X0888760Y0106600D01*
X0881960Y0114400D01*
X0877160Y0114400D02*
X0867960Y0107200D01*
X0867960Y0080800D01*
X0869360Y0078400D01*
X0880360Y0078400D01*
X0861160Y0092000D02*
X0859560Y0090400D01*
X0857960Y0090400D01*
X0856560Y0089000D01*
X0856560Y0082000D01*
X0859560Y0079000D01*
X0859560Y0048800D01*
X0850760Y0039000D01*
X0837760Y0039000D01*
X0837760Y0049600D01*
X0841960Y0052800D01*
X0835160Y0064800D02*
X0835160Y0028000D01*
X0847760Y0078400D02*
X0852960Y0081600D01*
X0852960Y0105600D01*
X0858760Y0114400D01*
X0858530Y0115090D01*
X0854760Y0114400D02*
X0854590Y0115090D01*
X0854760Y0114400D02*
X0846760Y0103400D01*
D52*
X0846760Y0103400D03*
X0861160Y0092000D03*
X0862760Y0084600D03*
X0873160Y0082400D03*
X0873160Y0088000D03*
X0854760Y0075200D03*
X0851560Y0060800D03*
X0837160Y0076000D03*
X0830760Y0083200D03*
X0827560Y0079200D03*
X0837160Y0086400D03*
X0812360Y0065600D03*
X0803560Y0066400D03*
X0803560Y0061600D03*
X0797360Y0065000D03*
X0785160Y0072000D03*
X0769560Y0063800D03*
X0786760Y0043200D03*
X0801960Y0040000D03*
X0806760Y0052800D03*
X0818760Y0054400D03*
X0792360Y0084800D03*
X0800360Y0090400D03*
X0803560Y0086400D03*
X0771560Y0084800D03*
X0763360Y0091600D03*
X0780360Y0028000D03*
X0870960Y0050400D03*
X0873960Y0056200D03*
X0020000Y0571380D02*
G75*
%LPD*%
D49*
X0092000Y0598780D02*
X0092000Y0603980D01*
X0102000Y0603980D02*
X0102000Y0598780D01*
X0112000Y0598780D02*
X0112000Y0603980D01*
X0122000Y0603980D02*
X0122000Y0598780D01*
X0132000Y0598780D02*
X0132000Y0603980D01*
X0142000Y0603980D02*
X0142000Y0598780D01*
X0152000Y0598780D02*
X0152000Y0603980D01*
X0162000Y0603980D02*
X0162000Y0598780D01*
X0162000Y0628780D02*
X0162000Y0633980D01*
X0152000Y0633980D02*
X0152000Y0628780D01*
X0142000Y0628780D02*
X0142000Y0633980D01*
X0132000Y0633980D02*
X0132000Y0628780D01*
X0122000Y0628780D02*
X0122000Y0633980D01*
X0112000Y0633980D02*
X0112000Y0628780D01*
X0102000Y0628780D02*
X0102000Y0633980D01*
X0092000Y0633980D02*
X0092000Y0628780D01*
D77*
X0077000Y0628880D03*
X0067000Y0628880D03*
X0057000Y0628880D03*
X0047000Y0628880D03*
X0047000Y0598880D03*
X0057000Y0598880D03*
X0067000Y0598880D03*
X0077000Y0598880D03*
X0067000Y0581380D03*
X0057000Y0581380D03*
X0037000Y0581380D03*
X0027000Y0581380D03*
X0087000Y0581380D03*
X0097000Y0581380D03*
X0117000Y0581380D03*
X0127000Y0581380D03*
X0147000Y0581380D03*
X0157000Y0581380D03*
X0177000Y0581380D03*
X0187000Y0581380D03*
X0207000Y0581380D03*
X0217000Y0581380D03*
X0237000Y0581380D03*
X0247000Y0581380D03*
X0204500Y0601380D03*
X0194500Y0601380D03*
X0184500Y0601380D03*
X0174500Y0601380D03*
X0174500Y0631380D03*
X0184500Y0631380D03*
X0194500Y0631380D03*
X0204500Y0631380D03*
D30*
X0027000Y0578880D03*
X0037000Y0578880D03*
X0057000Y0578880D03*
X0067000Y0578880D03*
X0087000Y0578880D03*
X0097000Y0578880D03*
X0117000Y0578880D03*
X0127000Y0578880D03*
X0147000Y0578880D03*
X0157000Y0578880D03*
X0177000Y0578880D03*
X0187000Y0578880D03*
X0207000Y0578880D03*
X0217000Y0578880D03*
X0237000Y0578880D03*
X0247000Y0578880D03*
D81*
X0221000Y0593380D02*
X0215000Y0593380D01*
X0215000Y0603380D02*
X0221000Y0603380D01*
X0221000Y0613380D02*
X0215000Y0613380D01*
X0215000Y0623380D02*
X0221000Y0623380D01*
X0221000Y0633380D02*
X0215000Y0633380D01*
X0038000Y0632380D02*
X0032000Y0632380D01*
X0032000Y0622380D02*
X0038000Y0622380D01*
X0038000Y0612380D02*
X0032000Y0612380D01*
X0032000Y0602380D02*
X0038000Y0602380D01*
X0038000Y0592380D02*
X0032000Y0592380D01*
D33*
X0092000Y0631380D02*
X0092000Y0637380D01*
X0035000Y0637380D01*
X0035000Y0632380D01*
D83*
X0047000Y0628880D02*
X0047000Y0608380D01*
X0122000Y0608380D01*
X0122000Y0601380D01*
X0132000Y0601380D02*
X0132000Y0610380D01*
X0057000Y0610380D01*
X0057000Y0628880D01*
X0067000Y0628880D02*
X0067000Y0612380D01*
X0142000Y0612380D01*
X0142000Y0601380D01*
X0152000Y0601380D02*
X0152000Y0614380D01*
X0077000Y0614380D01*
X0077000Y0628880D01*
X0092000Y0631380D02*
X0102000Y0631380D01*
X0112000Y0631380D02*
X0112000Y0618380D01*
X0204500Y0618380D01*
X0204500Y0631380D01*
X0194500Y0631380D02*
X0194000Y0631380D01*
X0194000Y0620380D01*
X0122000Y0620380D01*
X0122000Y0631380D01*
X0132000Y0631380D02*
X0132000Y0622380D01*
X0184500Y0622380D01*
X0184500Y0631380D01*
X0174500Y0631380D02*
X0174500Y0624380D01*
X0142000Y0624380D01*
X0142000Y0631380D01*
X0104000Y0619380D02*
X0104000Y0616380D01*
X0154000Y0616380D01*
X0154000Y0611380D01*
X0210000Y0611380D01*
X0210000Y0604380D01*
X0218000Y0604380D01*
X0218000Y0603380D01*
X0206000Y0596380D02*
X0174000Y0596380D01*
X0174000Y0601380D01*
X0174500Y0601380D01*
X0168000Y0606380D02*
X0168000Y0594380D01*
X0102000Y0594380D01*
X0102000Y0593380D01*
X0085000Y0593380D01*
X0085000Y0606380D01*
X0045000Y0606380D01*
X0045000Y0612380D01*
X0035000Y0612380D01*
X0047000Y0598880D02*
X0047000Y0586380D01*
X0027000Y0586380D01*
X0027000Y0581380D01*
X0057000Y0581380D02*
X0058000Y0581380D01*
X0058000Y0598880D01*
X0057000Y0598880D01*
X0067000Y0598880D02*
X0067000Y0586380D01*
X0087000Y0586380D01*
X0087000Y0581380D01*
X0077000Y0588380D02*
X0077000Y0598880D01*
X0102000Y0601380D02*
X0102000Y0594380D01*
X0117000Y0588380D02*
X0077000Y0588380D01*
X0117000Y0588380D02*
X0117000Y0581380D01*
X0147000Y0581380D02*
X0147000Y0592380D01*
X0201000Y0592380D01*
X0206000Y0596380D02*
X0206000Y0586380D01*
X0237000Y0586380D01*
X0237000Y0581380D01*
X0197000Y0587380D02*
X0183000Y0587380D01*
X0177000Y0581380D01*
X0104000Y0619380D02*
X0092000Y0619380D01*
D45*
X0092000Y0619380D03*
X0104000Y0619380D03*
X0201000Y0592380D03*
X0197000Y0587380D03*
X0658130Y0598160D02*
G75*
%LPD*%
D49*
X0730130Y0625560D02*
X0730130Y0630760D01*
X0740130Y0630760D02*
X0740130Y0625560D01*
X0750130Y0625560D02*
X0750130Y0630760D01*
X0760130Y0630760D02*
X0760130Y0625560D01*
X0770130Y0625560D02*
X0770130Y0630760D01*
X0780130Y0630760D02*
X0780130Y0625560D01*
X0790130Y0625560D02*
X0790130Y0630760D01*
X0800130Y0630760D02*
X0800130Y0625560D01*
X0800130Y0655560D02*
X0800130Y0660760D01*
X0790130Y0660760D02*
X0790130Y0655560D01*
X0780130Y0655560D02*
X0780130Y0660760D01*
X0770130Y0660760D02*
X0770130Y0655560D01*
X0760130Y0655560D02*
X0760130Y0660760D01*
X0750130Y0660760D02*
X0750130Y0655560D01*
X0740130Y0655560D02*
X0740130Y0660760D01*
X0730130Y0660760D02*
X0730130Y0655560D01*
D77*
X0715130Y0655660D03*
X0705130Y0655660D03*
X0695130Y0655660D03*
X0685130Y0655660D03*
X0685130Y0625660D03*
X0695130Y0625660D03*
X0705130Y0625660D03*
X0715130Y0625660D03*
X0705130Y0608160D03*
X0695130Y0608160D03*
X0675130Y0608160D03*
X0665130Y0608160D03*
X0725130Y0608160D03*
X0735130Y0608160D03*
X0755130Y0608160D03*
X0765130Y0608160D03*
X0785130Y0608160D03*
X0795130Y0608160D03*
X0815130Y0608160D03*
X0825130Y0608160D03*
X0845130Y0608160D03*
X0855130Y0608160D03*
X0875130Y0608160D03*
X0885130Y0608160D03*
X0842630Y0628160D03*
X0832630Y0628160D03*
X0822630Y0628160D03*
X0812630Y0628160D03*
X0812630Y0658160D03*
X0822630Y0658160D03*
X0832630Y0658160D03*
X0842630Y0658160D03*
D30*
X0665130Y0605660D03*
X0675130Y0605660D03*
X0695130Y0605660D03*
X0705130Y0605660D03*
X0725130Y0605660D03*
X0735130Y0605660D03*
X0755130Y0605660D03*
X0765130Y0605660D03*
X0785130Y0605660D03*
X0795130Y0605660D03*
X0815130Y0605660D03*
X0825130Y0605660D03*
X0845130Y0605660D03*
X0855130Y0605660D03*
X0875130Y0605660D03*
X0885130Y0605660D03*
D81*
X0859130Y0620160D02*
X0853130Y0620160D01*
X0853130Y0630160D02*
X0859130Y0630160D01*
X0859130Y0640160D02*
X0853130Y0640160D01*
X0853130Y0650160D02*
X0859130Y0650160D01*
X0859130Y0660160D02*
X0853130Y0660160D01*
X0676130Y0659160D02*
X0670130Y0659160D01*
X0670130Y0649160D02*
X0676130Y0649160D01*
X0676130Y0639160D02*
X0670130Y0639160D01*
X0670130Y0629160D02*
X0676130Y0629160D01*
X0676130Y0619160D02*
X0670130Y0619160D01*
D33*
X0730130Y0658160D02*
X0730130Y0664160D01*
X0673130Y0664160D01*
X0673130Y0659160D01*
D83*
X0685130Y0655660D02*
X0685130Y0635160D01*
X0760130Y0635160D01*
X0760130Y0628160D01*
X0770130Y0628160D02*
X0770130Y0637160D01*
X0695130Y0637160D01*
X0695130Y0655660D01*
X0705130Y0655660D02*
X0705130Y0639160D01*
X0780130Y0639160D01*
X0780130Y0628160D01*
X0790130Y0628160D02*
X0790130Y0641160D01*
X0715130Y0641160D01*
X0715130Y0655660D01*
X0730130Y0658160D02*
X0740130Y0658160D01*
X0750130Y0658160D02*
X0750130Y0645160D01*
X0842630Y0645160D01*
X0842630Y0658160D01*
X0832630Y0658160D02*
X0832130Y0658160D01*
X0832130Y0647160D01*
X0760130Y0647160D01*
X0760130Y0658160D01*
X0770130Y0658160D02*
X0770130Y0649160D01*
X0822630Y0649160D01*
X0822630Y0658160D01*
X0812630Y0658160D02*
X0812630Y0651160D01*
X0780130Y0651160D01*
X0780130Y0658160D01*
X0742130Y0646160D02*
X0742130Y0643160D01*
X0792130Y0643160D01*
X0792130Y0638160D01*
X0848130Y0638160D01*
X0848130Y0631160D01*
X0856130Y0631160D01*
X0856130Y0630160D01*
X0844130Y0623160D02*
X0812130Y0623160D01*
X0812130Y0628160D01*
X0812630Y0628160D01*
X0806130Y0633160D02*
X0806130Y0621160D01*
X0740130Y0621160D01*
X0740130Y0620160D01*
X0723130Y0620160D01*
X0723130Y0633160D01*
X0683130Y0633160D01*
X0683130Y0639160D01*
X0673130Y0639160D01*
X0685130Y0625660D02*
X0685130Y0613160D01*
X0665130Y0613160D01*
X0665130Y0608160D01*
X0695130Y0608160D02*
X0696130Y0608160D01*
X0696130Y0625660D01*
X0695130Y0625660D01*
X0705130Y0625660D02*
X0705130Y0613160D01*
X0725130Y0613160D01*
X0725130Y0608160D01*
X0715130Y0615160D02*
X0715130Y0625660D01*
X0740130Y0628160D02*
X0740130Y0621160D01*
X0755130Y0615160D02*
X0715130Y0615160D01*
X0755130Y0615160D02*
X0755130Y0608160D01*
X0785130Y0608160D02*
X0785130Y0619160D01*
X0839130Y0619160D01*
X0844130Y0623160D02*
X0844130Y0613160D01*
X0875130Y0613160D01*
X0875130Y0608160D01*
X0835130Y0614160D02*
X0821130Y0614160D01*
X0815130Y0608160D01*
X0742130Y0646160D02*
X0730130Y0646160D01*
D45*
X0730130Y0646160D03*
X0742130Y0646160D03*
X0839130Y0619160D03*
X0835130Y0614160D03*
M02*
