G75*
G70*
%OFA0B0*%
%FSLAX25Y25*%
%IPPOS*%
%LPD*%
%AMOC8*
5,1,8,0,0,1.08239X$1,22.5*
%
%ADD100C,0.04800*%
%ADD13OC8,0.06000*%
%ADD22C,0.07300*%
%ADD24R,0.07300X0.07300*%
%ADD28OC8,0.06800*%
%ADD38R,0.06740X0.06740*%
%ADD43C,0.16600*%
%ADD49C,0.05200*%
%ADD50OC8,0.19800*%
%ADD55C,0.06800*%
%ADD57C,0.17400*%
%ADD71C,0.07100*%
%ADD72OC8,0.12610*%
%ADD78OC8,0.06540*%
%ADD81C,0.06000*%
%ADD88R,0.06800X0.06800*%
%ADD89C,0.09860*%
%ADD90C,0.08200*%
%ADD91C,0.05550*%
%ADD92OC8,0.07100*%
%ADD93C,0.07400*%
%ADD96C,0.04760*%
%ADD98C,0.13400*%
X0020000Y0020000D02*
G75*
%LPD*%
D71*
X0224960Y0035000D03*
X0214960Y0035000D03*
D55*
X0194960Y0035000D03*
X0184960Y0035000D03*
X0174960Y0035000D03*
X0164960Y0035000D03*
X0154960Y0035000D03*
X0144960Y0035000D03*
X0148860Y0212200D03*
X0148860Y0237800D03*
X0148860Y0252200D03*
X0166060Y0252200D03*
X0166060Y0277800D03*
X0148860Y0277800D03*
X0148860Y0292200D03*
X0148860Y0317800D03*
X0131060Y0317800D03*
X0131060Y0292200D03*
X0131060Y0277800D03*
X0131060Y0252200D03*
X0131060Y0237800D03*
X0131060Y0212200D03*
X0113860Y0252200D03*
X0113860Y0277800D03*
X0096060Y0277800D03*
X0096060Y0252200D03*
X0183860Y0252200D03*
X0183860Y0277800D03*
X0206060Y0277200D03*
X0206060Y0252800D03*
X0206060Y0227200D03*
X0223860Y0227200D03*
X0223860Y0252800D03*
X0223860Y0277200D03*
X0223860Y0302800D03*
X0206060Y0302800D03*
D28*
X0140960Y0199000D03*
X0140960Y0189000D03*
X0130960Y0189000D03*
X0130960Y0199000D03*
X0120960Y0199000D03*
X0120960Y0189000D03*
D81*
X0167360Y0190000D02*
X0172560Y0190000D01*
X0172560Y0180000D02*
X0167360Y0180000D01*
X0167360Y0170000D02*
X0172560Y0170000D01*
X0172560Y0160000D02*
X0167360Y0160000D01*
X0167360Y0150000D02*
X0172560Y0150000D01*
X0172560Y0140000D02*
X0167360Y0140000D01*
X0167360Y0130000D02*
X0172560Y0130000D01*
X0172560Y0120000D02*
X0167360Y0120000D01*
X0167360Y0110000D02*
X0172560Y0110000D01*
X0172560Y0100000D02*
X0167360Y0100000D01*
X0167360Y0090000D02*
X0172560Y0090000D01*
X0172560Y0080000D02*
X0167360Y0080000D01*
X0167360Y0070000D02*
X0172560Y0070000D01*
X0172560Y0060000D02*
X0167360Y0060000D01*
X0197360Y0060000D02*
X0202560Y0060000D01*
X0202560Y0070000D02*
X0197360Y0070000D01*
X0197360Y0080000D02*
X0202560Y0080000D01*
X0202560Y0090000D02*
X0197360Y0090000D01*
X0197360Y0100000D02*
X0202560Y0100000D01*
X0202560Y0110000D02*
X0197360Y0110000D01*
X0197360Y0120000D02*
X0202560Y0120000D01*
X0202560Y0130000D02*
X0197360Y0130000D01*
X0197360Y0140000D02*
X0202560Y0140000D01*
X0202560Y0150000D02*
X0197360Y0150000D01*
X0197360Y0160000D02*
X0202560Y0160000D01*
X0202560Y0170000D02*
X0197360Y0170000D01*
X0197360Y0180000D02*
X0202560Y0180000D01*
X0202560Y0190000D02*
X0197360Y0190000D01*
X0102560Y0320000D02*
X0097360Y0320000D01*
X0097360Y0330000D02*
X0102560Y0330000D01*
X0102560Y0340000D02*
X0097360Y0340000D01*
X0097360Y0350000D02*
X0102560Y0350000D01*
X0102560Y0360000D02*
X0097360Y0360000D01*
X0042560Y0360000D02*
X0037360Y0360000D01*
X0037360Y0350000D02*
X0042560Y0350000D01*
X0042560Y0340000D02*
X0037360Y0340000D01*
X0037360Y0330000D02*
X0042560Y0330000D01*
X0042560Y0320000D02*
X0037360Y0320000D01*
D55*
X0037960Y0190000D02*
X0031960Y0190000D01*
X0031960Y0180000D02*
X0037960Y0180000D01*
X0037960Y0170000D02*
X0031960Y0170000D01*
X0031960Y0160000D02*
X0037960Y0160000D01*
X0037960Y0150000D02*
X0031960Y0150000D01*
X0031960Y0140000D02*
X0037960Y0140000D01*
X0037960Y0130000D02*
X0031960Y0130000D01*
X0031960Y0120000D02*
X0037960Y0120000D01*
X0037960Y0104000D02*
X0031960Y0104000D01*
X0031960Y0094000D02*
X0037960Y0094000D01*
X0037960Y0084000D02*
X0031960Y0084000D01*
X0031960Y0074000D02*
X0037960Y0074000D01*
X0037960Y0064000D02*
X0031960Y0064000D01*
X0031960Y0054000D02*
X0037960Y0054000D01*
X0037960Y0044000D02*
X0031960Y0044000D01*
X0031960Y0034000D02*
X0037960Y0034000D01*
X0064960Y0032000D02*
X0064960Y0038000D01*
X0074960Y0038000D02*
X0074960Y0032000D01*
X0084960Y0032000D02*
X0084960Y0038000D01*
X0094960Y0038000D02*
X0094960Y0032000D01*
X0104960Y0032000D02*
X0104960Y0038000D01*
X0114960Y0038000D02*
X0114960Y0032000D01*
X0214960Y0047000D02*
X0214960Y0053000D01*
X0224960Y0053000D02*
X0224960Y0047000D01*
X0227960Y0075000D02*
X0221960Y0075000D01*
X0221960Y0085000D02*
X0227960Y0085000D01*
X0227960Y0095000D02*
X0221960Y0095000D01*
X0221960Y0105000D02*
X0227960Y0105000D01*
X0227960Y0115000D02*
X0221960Y0115000D01*
X0221960Y0125000D02*
X0227960Y0125000D01*
X0227960Y0140000D02*
X0221960Y0140000D01*
X0221960Y0150000D02*
X0227960Y0150000D01*
X0227960Y0160000D02*
X0221960Y0160000D01*
X0221960Y0170000D02*
X0227960Y0170000D01*
X0227960Y0180000D02*
X0221960Y0180000D01*
X0221960Y0190000D02*
X0227960Y0190000D01*
D38*
X0227520Y0340160D03*
X0227520Y0350000D03*
X0227520Y0359840D03*
D72*
X0199960Y0367320D03*
X0199960Y0332680D03*
D13*
X0069960Y0245000D03*
X0059960Y0245000D03*
X0049960Y0245000D03*
X0039960Y0245000D03*
X0044960Y0265000D03*
X0054960Y0265000D03*
X0064960Y0265000D03*
X0064960Y0305000D03*
X0054960Y0305000D03*
X0044960Y0305000D03*
X0049960Y0205000D03*
X0039960Y0205000D03*
X0059960Y0205000D03*
X0069960Y0205000D03*
D100*
X0074960Y0140000D03*
X0049960Y0120000D03*
X0032460Y0112500D03*
X0079960Y0060000D03*
X0084960Y0080000D03*
X0104960Y0090000D03*
X0114960Y0075000D03*
X0122460Y0065000D03*
X0134960Y0055000D03*
X0154960Y0055000D03*
X0162460Y0055000D03*
X0129960Y0105000D03*
X0134960Y0170000D03*
X0179960Y0205000D03*
X0249960Y0020000D02*
G75*
%LPD*%
D13*
X0284960Y0045000D03*
X0284960Y0075000D03*
X0304960Y0080000D03*
X0312460Y0085000D03*
X0304960Y0090000D03*
X0319960Y0100000D03*
X0319960Y0130000D03*
X0414960Y0150000D03*
X0464960Y0150000D03*
X0479960Y0150000D03*
X0479960Y0180000D03*
X0464960Y0180000D03*
X0414960Y0180000D03*
X0514960Y0090000D03*
X0544960Y0090000D03*
X0554960Y0090000D03*
X0584960Y0090000D03*
X0454960Y0065000D03*
X0424960Y0065000D03*
D93*
X0419960Y0080000D03*
X0419960Y0095000D03*
X0459960Y0095000D03*
X0459960Y0080000D03*
X0284960Y0090000D03*
X0269960Y0100000D03*
X0284960Y0130000D03*
X0269960Y0140000D03*
D92*
X0304960Y0070000D03*
X0319960Y0070000D03*
X0319960Y0050000D03*
X0304960Y0050000D03*
X0519960Y0070000D03*
X0539960Y0070000D03*
X0554960Y0070000D03*
X0574960Y0070000D03*
D55*
X0352960Y0075000D02*
X0346960Y0075000D01*
X0346960Y0065000D02*
X0352960Y0065000D01*
X0352960Y0055000D02*
X0346960Y0055000D01*
X0349960Y0167000D02*
X0349960Y0173000D01*
X0339960Y0173000D02*
X0339960Y0167000D01*
X0329960Y0167000D02*
X0329960Y0173000D01*
D81*
X0374960Y0170100D02*
X0374960Y0164900D01*
X0384960Y0164900D02*
X0384960Y0170100D01*
X0394960Y0170100D02*
X0394960Y0164900D01*
X0429960Y0164900D02*
X0429960Y0170100D01*
X0439960Y0170100D02*
X0439960Y0164900D01*
X0449960Y0164900D02*
X0449960Y0170100D01*
X0454960Y0142600D02*
X0454960Y0137400D01*
X0444960Y0137400D02*
X0444960Y0142600D01*
X0434960Y0142600D02*
X0434960Y0137400D01*
X0404960Y0137400D02*
X0404960Y0142600D01*
X0394960Y0142600D02*
X0394960Y0137400D01*
X0384960Y0137400D02*
X0384960Y0142600D01*
X0374960Y0142600D02*
X0374960Y0137400D01*
X0374960Y0112600D02*
X0374960Y0107400D01*
X0384960Y0107400D02*
X0384960Y0112600D01*
X0394960Y0112600D02*
X0394960Y0107400D01*
X0404960Y0107400D02*
X0404960Y0112600D01*
X0434960Y0112600D02*
X0434960Y0107400D01*
X0444960Y0107400D02*
X0444960Y0112600D01*
X0454960Y0112600D02*
X0454960Y0107400D01*
X0464960Y0107400D02*
X0464960Y0112600D01*
X0499960Y0112600D02*
X0499960Y0107400D01*
X0509960Y0107400D02*
X0509960Y0112600D01*
X0519960Y0112600D02*
X0519960Y0107400D01*
X0529960Y0107400D02*
X0529960Y0112600D01*
X0544960Y0112600D02*
X0544960Y0107400D01*
X0554960Y0107400D02*
X0554960Y0112600D01*
X0564960Y0112600D02*
X0564960Y0107400D01*
X0574960Y0107400D02*
X0574960Y0112600D01*
X0574960Y0137400D02*
X0574960Y0142600D01*
X0564960Y0142600D02*
X0564960Y0137400D01*
X0554960Y0137400D02*
X0554960Y0142600D01*
X0544960Y0142600D02*
X0544960Y0137400D01*
X0529960Y0137400D02*
X0529960Y0142600D01*
X0519960Y0142600D02*
X0519960Y0137400D01*
X0509960Y0137400D02*
X0509960Y0142600D01*
X0499960Y0142600D02*
X0499960Y0137400D01*
X0464960Y0137400D02*
X0464960Y0142600D01*
X0404960Y0097600D02*
X0404960Y0092400D01*
X0394960Y0092400D02*
X0394960Y0097600D01*
X0384960Y0097600D02*
X0384960Y0092400D01*
X0374960Y0092400D02*
X0374960Y0097600D01*
X0374960Y0067600D02*
X0374960Y0062400D01*
X0384960Y0062400D02*
X0384960Y0067600D01*
X0394960Y0067600D02*
X0394960Y0062400D01*
X0404960Y0062400D02*
X0404960Y0067600D01*
X0472360Y0065000D02*
X0477560Y0065000D01*
X0477560Y0055000D02*
X0472360Y0055000D01*
X0472360Y0045000D02*
X0477560Y0045000D01*
X0477560Y0035000D02*
X0472360Y0035000D01*
X0502360Y0035000D02*
X0507560Y0035000D01*
X0507560Y0045000D02*
X0502360Y0045000D01*
X0502360Y0055000D02*
X0507560Y0055000D01*
X0507560Y0065000D02*
X0502360Y0065000D01*
X0502360Y0075000D02*
X0507560Y0075000D01*
X0507560Y0085000D02*
X0502360Y0085000D01*
X0502360Y0095000D02*
X0507560Y0095000D01*
X0477560Y0095000D02*
X0472360Y0095000D01*
X0472360Y0085000D02*
X0477560Y0085000D01*
X0477560Y0075000D02*
X0472360Y0075000D01*
D57*
X0304600Y0165000D03*
D43*
X0275970Y0164900D03*
X0292090Y0149990D03*
D24*
X0319960Y0150000D03*
X0354960Y0150000D03*
D22*
X0344960Y0150000D03*
X0329960Y0150000D03*
D28*
X0624960Y0150000D03*
X0634960Y0150000D03*
X0634960Y0160000D03*
X0624960Y0160000D03*
X0624960Y0140000D03*
X0634960Y0140000D03*
X0634960Y0130000D03*
X0624960Y0130000D03*
X0624960Y0120000D03*
X0634960Y0120000D03*
D90*
X0614960Y0120000D03*
X0614960Y0130000D03*
X0614960Y0140000D03*
X0614960Y0150000D03*
X0614960Y0160000D03*
X0339960Y0125000D03*
X0339960Y0115000D03*
X0339960Y0105000D03*
D96*
X0364960Y0102500D03*
X0364960Y0045000D03*
X0249960Y0189960D02*
G75*
%LPD*%
D13*
X0284960Y0214960D03*
X0284960Y0244960D03*
X0304960Y0249960D03*
X0312460Y0254960D03*
X0304960Y0259960D03*
X0319960Y0269960D03*
X0319960Y0299960D03*
X0414960Y0319960D03*
X0464960Y0319960D03*
X0479960Y0319960D03*
X0479960Y0349960D03*
X0464960Y0349960D03*
X0414960Y0349960D03*
X0514960Y0259960D03*
X0544960Y0259960D03*
X0554960Y0259960D03*
X0584960Y0259960D03*
X0454960Y0234960D03*
X0424960Y0234960D03*
D93*
X0419960Y0249960D03*
X0419960Y0264960D03*
X0459960Y0264960D03*
X0459960Y0249960D03*
X0284960Y0259960D03*
X0269960Y0269960D03*
X0284960Y0299960D03*
X0269960Y0309960D03*
D92*
X0304960Y0239960D03*
X0319960Y0239960D03*
X0319960Y0219960D03*
X0304960Y0219960D03*
X0519960Y0239960D03*
X0539960Y0239960D03*
X0554960Y0239960D03*
X0574960Y0239960D03*
D55*
X0352960Y0244960D02*
X0346960Y0244960D01*
X0346960Y0234960D02*
X0352960Y0234960D01*
X0352960Y0224960D02*
X0346960Y0224960D01*
X0349960Y0336960D02*
X0349960Y0342960D01*
X0339960Y0342960D02*
X0339960Y0336960D01*
X0329960Y0336960D02*
X0329960Y0342960D01*
D81*
X0374960Y0340060D02*
X0374960Y0334860D01*
X0384960Y0334860D02*
X0384960Y0340060D01*
X0394960Y0340060D02*
X0394960Y0334860D01*
X0429960Y0334860D02*
X0429960Y0340060D01*
X0439960Y0340060D02*
X0439960Y0334860D01*
X0449960Y0334860D02*
X0449960Y0340060D01*
X0454960Y0312560D02*
X0454960Y0307360D01*
X0444960Y0307360D02*
X0444960Y0312560D01*
X0434960Y0312560D02*
X0434960Y0307360D01*
X0404960Y0307360D02*
X0404960Y0312560D01*
X0394960Y0312560D02*
X0394960Y0307360D01*
X0384960Y0307360D02*
X0384960Y0312560D01*
X0374960Y0312560D02*
X0374960Y0307360D01*
X0374960Y0282560D02*
X0374960Y0277360D01*
X0384960Y0277360D02*
X0384960Y0282560D01*
X0394960Y0282560D02*
X0394960Y0277360D01*
X0404960Y0277360D02*
X0404960Y0282560D01*
X0434960Y0282560D02*
X0434960Y0277360D01*
X0444960Y0277360D02*
X0444960Y0282560D01*
X0454960Y0282560D02*
X0454960Y0277360D01*
X0464960Y0277360D02*
X0464960Y0282560D01*
X0499960Y0282560D02*
X0499960Y0277360D01*
X0509960Y0277360D02*
X0509960Y0282560D01*
X0519960Y0282560D02*
X0519960Y0277360D01*
X0529960Y0277360D02*
X0529960Y0282560D01*
X0544960Y0282560D02*
X0544960Y0277360D01*
X0554960Y0277360D02*
X0554960Y0282560D01*
X0564960Y0282560D02*
X0564960Y0277360D01*
X0574960Y0277360D02*
X0574960Y0282560D01*
X0574960Y0307360D02*
X0574960Y0312560D01*
X0564960Y0312560D02*
X0564960Y0307360D01*
X0554960Y0307360D02*
X0554960Y0312560D01*
X0544960Y0312560D02*
X0544960Y0307360D01*
X0529960Y0307360D02*
X0529960Y0312560D01*
X0519960Y0312560D02*
X0519960Y0307360D01*
X0509960Y0307360D02*
X0509960Y0312560D01*
X0499960Y0312560D02*
X0499960Y0307360D01*
X0464960Y0307360D02*
X0464960Y0312560D01*
X0404960Y0267560D02*
X0404960Y0262360D01*
X0394960Y0262360D02*
X0394960Y0267560D01*
X0384960Y0267560D02*
X0384960Y0262360D01*
X0374960Y0262360D02*
X0374960Y0267560D01*
X0374960Y0237560D02*
X0374960Y0232360D01*
X0384960Y0232360D02*
X0384960Y0237560D01*
X0394960Y0237560D02*
X0394960Y0232360D01*
X0404960Y0232360D02*
X0404960Y0237560D01*
X0472360Y0234960D02*
X0477560Y0234960D01*
X0477560Y0224960D02*
X0472360Y0224960D01*
X0472360Y0214960D02*
X0477560Y0214960D01*
X0477560Y0204960D02*
X0472360Y0204960D01*
X0502360Y0204960D02*
X0507560Y0204960D01*
X0507560Y0214960D02*
X0502360Y0214960D01*
X0502360Y0224960D02*
X0507560Y0224960D01*
X0507560Y0234960D02*
X0502360Y0234960D01*
X0502360Y0244960D02*
X0507560Y0244960D01*
X0507560Y0254960D02*
X0502360Y0254960D01*
X0502360Y0264960D02*
X0507560Y0264960D01*
X0477560Y0264960D02*
X0472360Y0264960D01*
X0472360Y0254960D02*
X0477560Y0254960D01*
X0477560Y0244960D02*
X0472360Y0244960D01*
D57*
X0304600Y0334960D03*
D43*
X0275970Y0334860D03*
X0292090Y0319950D03*
D24*
X0319960Y0319960D03*
X0354960Y0319960D03*
D22*
X0344960Y0319960D03*
X0329960Y0319960D03*
D28*
X0624960Y0319960D03*
X0634960Y0319960D03*
X0634960Y0329960D03*
X0624960Y0329960D03*
X0624960Y0309960D03*
X0634960Y0309960D03*
X0634960Y0299960D03*
X0624960Y0299960D03*
X0624960Y0289960D03*
X0634960Y0289960D03*
D90*
X0614960Y0289960D03*
X0614960Y0299960D03*
X0614960Y0309960D03*
X0614960Y0319960D03*
X0614960Y0329960D03*
X0339960Y0294960D03*
X0339960Y0284960D03*
X0339960Y0274960D03*
D96*
X0364960Y0272460D03*
X0364960Y0214960D03*
X0020000Y0388700D02*
G75*
%LPD*%
D81*
X0092000Y0416100D02*
X0092000Y0421300D01*
X0102000Y0421300D02*
X0102000Y0416100D01*
X0112000Y0416100D02*
X0112000Y0421300D01*
X0122000Y0421300D02*
X0122000Y0416100D01*
X0132000Y0416100D02*
X0132000Y0421300D01*
X0142000Y0421300D02*
X0142000Y0416100D01*
X0152000Y0416100D02*
X0152000Y0421300D01*
X0162000Y0421300D02*
X0162000Y0416100D01*
X0162000Y0446100D02*
X0162000Y0451300D01*
X0152000Y0451300D02*
X0152000Y0446100D01*
X0142000Y0446100D02*
X0142000Y0451300D01*
X0132000Y0451300D02*
X0132000Y0446100D01*
X0122000Y0446100D02*
X0122000Y0451300D01*
X0112000Y0451300D02*
X0112000Y0446100D01*
X0102000Y0446100D02*
X0102000Y0451300D01*
X0092000Y0451300D02*
X0092000Y0446100D01*
D13*
X0027000Y0398700D03*
X0037000Y0398700D03*
X0057000Y0398700D03*
X0067000Y0398700D03*
X0087000Y0398700D03*
X0097000Y0398700D03*
X0117000Y0398700D03*
X0127000Y0398700D03*
X0147000Y0398700D03*
X0157000Y0398700D03*
X0177000Y0398700D03*
X0187000Y0398700D03*
X0207000Y0398700D03*
X0217000Y0398700D03*
X0237000Y0398700D03*
X0247000Y0398700D03*
X0204500Y0418700D03*
X0194500Y0418700D03*
X0184500Y0418700D03*
X0174500Y0418700D03*
X0174500Y0448700D03*
X0184500Y0448700D03*
X0194500Y0448700D03*
X0204500Y0448700D03*
X0077000Y0446200D03*
X0067000Y0446200D03*
X0057000Y0446200D03*
X0047000Y0446200D03*
X0047000Y0416200D03*
X0057000Y0416200D03*
X0067000Y0416200D03*
X0077000Y0416200D03*
D55*
X0038000Y0419700D02*
X0032000Y0419700D01*
X0032000Y0429700D02*
X0038000Y0429700D01*
X0038000Y0439700D02*
X0032000Y0439700D01*
X0032000Y0449700D02*
X0038000Y0449700D01*
X0038000Y0409700D02*
X0032000Y0409700D01*
X0215000Y0410700D02*
X0221000Y0410700D01*
X0221000Y0420700D02*
X0215000Y0420700D01*
X0215000Y0430700D02*
X0221000Y0430700D01*
X0221000Y0440700D02*
X0215000Y0440700D01*
X0215000Y0450700D02*
X0221000Y0450700D01*
X0648660Y0020000D02*
G75*
%LPD*%
D55*
X0759620Y0053000D02*
X0753620Y0053000D01*
X0753620Y0063000D02*
X0759620Y0063000D01*
X0759620Y0073000D02*
X0753620Y0073000D01*
X0753620Y0083000D02*
X0759620Y0083000D01*
X0759620Y0093000D02*
X0753620Y0093000D01*
X0753620Y0103000D02*
X0759620Y0103000D01*
D100*
X0755620Y0044800D03*
X0740420Y0051200D03*
X0743620Y0066400D03*
X0730820Y0071200D03*
X0722020Y0068000D03*
X0717220Y0068000D03*
X0718620Y0061800D03*
X0711620Y0049600D03*
X0719820Y0034000D03*
X0698820Y0036000D03*
X0692020Y0027800D03*
X0698820Y0056800D03*
X0693220Y0064800D03*
X0697220Y0068000D03*
X0718020Y0076800D03*
X0729220Y0083200D03*
X0707620Y0101600D03*
X0700420Y0095200D03*
X0704420Y0092000D03*
X0697220Y0101600D03*
X0708420Y0119200D03*
X0698020Y0127200D03*
X0691620Y0125600D03*
X0695620Y0137600D03*
X0701220Y0137600D03*
X0722820Y0116000D03*
X0733220Y0135400D03*
X0727420Y0138400D03*
X0680220Y0111200D03*
X0648660Y0158700D02*
G75*
%LPD*%
D55*
X0759620Y0191700D02*
X0753620Y0191700D01*
X0753620Y0201700D02*
X0759620Y0201700D01*
X0759620Y0211700D02*
X0753620Y0211700D01*
X0753620Y0221700D02*
X0759620Y0221700D01*
X0759620Y0231700D02*
X0753620Y0231700D01*
X0753620Y0241700D02*
X0759620Y0241700D01*
D100*
X0755620Y0183500D03*
X0740420Y0189900D03*
X0743620Y0205100D03*
X0730820Y0209900D03*
X0722020Y0206700D03*
X0717220Y0206700D03*
X0718620Y0200500D03*
X0711620Y0188300D03*
X0719820Y0172700D03*
X0698820Y0174700D03*
X0692020Y0166500D03*
X0698820Y0195500D03*
X0693220Y0203500D03*
X0697220Y0206700D03*
X0718020Y0215500D03*
X0729220Y0221900D03*
X0707620Y0240300D03*
X0700420Y0233900D03*
X0704420Y0230700D03*
X0697220Y0240300D03*
X0708420Y0257900D03*
X0698020Y0265900D03*
X0691620Y0264300D03*
X0695620Y0276300D03*
X0701220Y0276300D03*
X0722820Y0254700D03*
X0733220Y0274100D03*
X0727420Y0277100D03*
X0680220Y0249900D03*
X0768620Y0020000D02*
G75*
%LPD*%
D98*
X0948980Y0366510D03*
X0838980Y0366510D03*
D81*
X0896850Y0355550D02*
X0902050Y0355550D01*
X0902050Y0345550D02*
X0896850Y0345550D01*
X0896850Y0335550D02*
X0902050Y0335550D01*
X0902050Y0325550D02*
X0896850Y0325550D01*
X0896850Y0315550D02*
X0902050Y0315550D01*
X0902050Y0305550D02*
X0896850Y0305550D01*
X0896850Y0295550D02*
X0902050Y0295550D01*
X0902050Y0285550D02*
X0896850Y0285550D01*
X0896850Y0275550D02*
X0902050Y0275550D01*
X0902050Y0265550D02*
X0896850Y0265550D01*
X0896850Y0255550D02*
X0902050Y0255550D01*
X0902050Y0245550D02*
X0896850Y0245550D01*
X0896850Y0235550D02*
X0902050Y0235550D01*
X0902050Y0225550D02*
X0896850Y0225550D01*
X0926850Y0225550D02*
X0932050Y0225550D01*
X0932050Y0235550D02*
X0926850Y0235550D01*
X0926850Y0245550D02*
X0932050Y0245550D01*
X0932050Y0255550D02*
X0926850Y0255550D01*
X0926850Y0265550D02*
X0932050Y0265550D01*
X0932050Y0275550D02*
X0926850Y0275550D01*
X0926850Y0285550D02*
X0932050Y0285550D01*
X0932050Y0295550D02*
X0926850Y0295550D01*
X0926850Y0305550D02*
X0932050Y0305550D01*
X0932050Y0315550D02*
X0926850Y0315550D01*
X0926850Y0325550D02*
X0932050Y0325550D01*
X0932050Y0335550D02*
X0926850Y0335550D01*
X0926850Y0345550D02*
X0932050Y0345550D01*
X0932050Y0355550D02*
X0926850Y0355550D01*
X0899980Y0150110D02*
X0899980Y0144910D01*
X0889980Y0144910D02*
X0889980Y0150110D01*
X0879980Y0150110D02*
X0879980Y0144910D01*
X0869980Y0144910D02*
X0869980Y0150110D01*
X0859980Y0150110D02*
X0859980Y0144910D01*
X0849980Y0144910D02*
X0849980Y0150110D01*
X0839980Y0150110D02*
X0839980Y0144910D01*
X0829980Y0144910D02*
X0829980Y0150110D01*
X0819980Y0150110D02*
X0819980Y0144910D01*
X0809980Y0144910D02*
X0809980Y0150110D01*
X0809980Y0120110D02*
X0809980Y0114910D01*
X0819980Y0114910D02*
X0819980Y0120110D01*
X0829980Y0120110D02*
X0829980Y0114910D01*
X0839980Y0114910D02*
X0839980Y0120110D01*
X0849980Y0120110D02*
X0849980Y0114910D01*
X0859980Y0114910D02*
X0859980Y0120110D01*
X0869980Y0120110D02*
X0869980Y0114910D01*
X0879980Y0114910D02*
X0879980Y0120110D01*
X0889980Y0120110D02*
X0889980Y0114910D01*
X0899980Y0114910D02*
X0899980Y0120110D01*
D28*
X0787980Y0131510D03*
X0787980Y0141510D03*
X0777980Y0141510D03*
X0777980Y0131510D03*
X0777980Y0121510D03*
X0859180Y0356060D03*
X0859180Y0366060D03*
X0869180Y0366060D03*
X0869180Y0356060D03*
X0879180Y0356060D03*
X0879180Y0366060D03*
D13*
X0840980Y0345510D03*
X0830980Y0345810D03*
X0821280Y0345750D03*
X0811280Y0345810D03*
X0801380Y0345910D03*
X0801380Y0305910D03*
X0811280Y0305810D03*
X0821280Y0305750D03*
X0830980Y0305810D03*
X0840980Y0305510D03*
X0841090Y0291900D03*
X0841080Y0281180D03*
X0841280Y0270150D03*
X0821280Y0270150D03*
X0821080Y0281180D03*
X0821090Y0291900D03*
X0817580Y0251510D03*
X0807580Y0251510D03*
X0807580Y0233210D03*
X0817580Y0233210D03*
X0867980Y0171510D03*
X0867980Y0161510D03*
X0878980Y0193510D03*
X0898980Y0193510D03*
X0907980Y0171510D03*
X0907980Y0161510D03*
X0930980Y0156510D03*
X0930980Y0147510D03*
X0940980Y0147510D03*
X0940980Y0156510D03*
X0953370Y0160870D03*
X0973370Y0160870D03*
X0905980Y0076510D03*
X0905980Y0066510D03*
X0905980Y0050510D03*
X0905980Y0040510D03*
X0898080Y0029010D03*
X0885980Y0041510D03*
X0885980Y0053210D03*
X0885980Y0064510D03*
X0885980Y0075510D03*
X0865980Y0075510D03*
X0865980Y0064510D03*
X0865980Y0053210D03*
X0865980Y0041510D03*
X0858080Y0029010D03*
X0850980Y0072510D03*
X0850980Y0083510D03*
X0850980Y0094510D03*
X0810980Y0094510D03*
X0810980Y0083510D03*
X0810980Y0072510D03*
D49*
X0869980Y0094310D02*
X0869980Y0098710D01*
X0889980Y0098710D02*
X0889980Y0094310D01*
X0860150Y0265520D02*
X0855750Y0265520D01*
X0855750Y0285520D02*
X0860150Y0285520D01*
D55*
X0863330Y0307010D02*
X0863330Y0313010D01*
X0863330Y0332610D02*
X0863330Y0338610D01*
X0881130Y0338610D02*
X0881130Y0332610D01*
X0881130Y0313010D02*
X0881130Y0307010D01*
X0851980Y0196510D02*
X0851980Y0190510D01*
X0841980Y0190510D02*
X0841980Y0196510D01*
X0831980Y0196510D02*
X0831980Y0190510D01*
X0821980Y0190510D02*
X0821980Y0196510D01*
X0811980Y0196510D02*
X0811980Y0190510D01*
X0801980Y0190510D02*
X0801980Y0196510D01*
X0801980Y0176510D02*
X0801980Y0170510D01*
X0811980Y0170510D02*
X0811980Y0176510D01*
X0821980Y0176510D02*
X0821980Y0170510D01*
X0831980Y0170510D02*
X0831980Y0176510D01*
X0841980Y0176510D02*
X0841980Y0170510D01*
X0851980Y0170510D02*
X0851980Y0176510D01*
X0781910Y0199230D02*
X0775910Y0199230D01*
X0775910Y0209230D02*
X0781910Y0209230D01*
X0781910Y0219230D02*
X0775910Y0219230D01*
X0775910Y0229230D02*
X0781910Y0229230D01*
X0781910Y0239230D02*
X0775910Y0239230D01*
X0775910Y0249230D02*
X0781910Y0249230D01*
X0781910Y0259230D02*
X0775910Y0259230D01*
X0775910Y0269230D02*
X0781910Y0269230D01*
X0782070Y0285220D02*
X0776070Y0285220D01*
X0776070Y0295220D02*
X0782070Y0295220D01*
X0782070Y0305220D02*
X0776070Y0305220D01*
X0776070Y0315220D02*
X0782070Y0315220D01*
X0782070Y0325220D02*
X0776070Y0325220D01*
X0776070Y0335220D02*
X0782070Y0335220D01*
X0782070Y0345220D02*
X0776070Y0345220D01*
X0776070Y0355220D02*
X0782070Y0355220D01*
X0933480Y0122210D02*
X0939480Y0122210D01*
X0939480Y0112210D02*
X0933480Y0112210D01*
X0933480Y0102210D02*
X0939480Y0102210D01*
X0938980Y0170510D02*
X0938980Y0176510D01*
X0938980Y0190510D02*
X0938980Y0196510D01*
X0948980Y0196510D02*
X0948980Y0190510D01*
X0958980Y0190510D02*
X0958980Y0196510D01*
X0968980Y0196510D02*
X0968980Y0190510D01*
X0968980Y0176510D02*
X0968980Y0170510D01*
X0958980Y0170510D02*
X0958980Y0176510D01*
X0948980Y0176510D02*
X0948980Y0170510D01*
X0965980Y0235510D02*
X0971980Y0235510D01*
X0971980Y0245510D02*
X0965980Y0245510D01*
X0965980Y0255510D02*
X0971980Y0255510D01*
X0971980Y0265510D02*
X0965980Y0265510D01*
X0965980Y0275510D02*
X0971980Y0275510D01*
X0971980Y0285510D02*
X0965980Y0285510D01*
X0965870Y0305630D02*
X0971870Y0305630D01*
X0971870Y0315630D02*
X0965870Y0315630D01*
X0965870Y0325630D02*
X0971870Y0325630D01*
X0971870Y0335630D02*
X0965870Y0335630D01*
X0965870Y0345630D02*
X0971870Y0345630D01*
X0971870Y0355630D02*
X0965870Y0355630D01*
X0848980Y0040510D02*
X0842980Y0040510D01*
X0842980Y0030510D02*
X0848980Y0030510D01*
D93*
X0935120Y0082200D03*
X0975120Y0082200D03*
D92*
X0955930Y0104920D03*
X0955910Y0137900D03*
D71*
X0969910Y0137900D03*
X0969930Y0104920D03*
D50*
X0968980Y0054710D03*
X0949280Y0066510D03*
X0949280Y0042910D03*
D78*
X0813900Y0046180D03*
X0813900Y0054050D03*
X0804060Y0054050D03*
X0804060Y0046180D03*
D89*
X0785280Y0035510D03*
X0832680Y0035510D03*
D88*
X0787980Y0121510D03*
D55*
X0787980Y0161510D03*
X0777980Y0161510D03*
D96*
X0825980Y0224510D03*
X0835980Y0224510D03*
X0830980Y0204510D03*
X0846980Y0200510D03*
X0827980Y0270510D03*
X0834980Y0280510D03*
X0822980Y0356510D03*
X0911980Y0248510D03*
X0916980Y0230510D03*
X0950980Y0296510D03*
X0929980Y0365510D03*
D91*
X0938980Y0183510D03*
X0948980Y0183510D03*
X0958980Y0183510D03*
X0968980Y0183510D03*
X0851980Y0183510D03*
X0841980Y0183510D03*
X0831980Y0183510D03*
X0821980Y0183510D03*
X0811980Y0183510D03*
X0801980Y0183510D03*
X0020000Y0463660D02*
G75*
%LPD*%
D81*
X0092000Y0491060D02*
X0092000Y0496260D01*
X0102000Y0496260D02*
X0102000Y0491060D01*
X0112000Y0491060D02*
X0112000Y0496260D01*
X0122000Y0496260D02*
X0122000Y0491060D01*
X0132000Y0491060D02*
X0132000Y0496260D01*
X0142000Y0496260D02*
X0142000Y0491060D01*
X0152000Y0491060D02*
X0152000Y0496260D01*
X0162000Y0496260D02*
X0162000Y0491060D01*
X0162000Y0521060D02*
X0162000Y0526260D01*
X0152000Y0526260D02*
X0152000Y0521060D01*
X0142000Y0521060D02*
X0142000Y0526260D01*
X0132000Y0526260D02*
X0132000Y0521060D01*
X0122000Y0521060D02*
X0122000Y0526260D01*
X0112000Y0526260D02*
X0112000Y0521060D01*
X0102000Y0521060D02*
X0102000Y0526260D01*
X0092000Y0526260D02*
X0092000Y0521060D01*
D13*
X0027000Y0473660D03*
X0037000Y0473660D03*
X0057000Y0473660D03*
X0067000Y0473660D03*
X0087000Y0473660D03*
X0097000Y0473660D03*
X0117000Y0473660D03*
X0127000Y0473660D03*
X0147000Y0473660D03*
X0157000Y0473660D03*
X0177000Y0473660D03*
X0187000Y0473660D03*
X0207000Y0473660D03*
X0217000Y0473660D03*
X0237000Y0473660D03*
X0247000Y0473660D03*
X0204500Y0493660D03*
X0194500Y0493660D03*
X0184500Y0493660D03*
X0174500Y0493660D03*
X0174500Y0523660D03*
X0184500Y0523660D03*
X0194500Y0523660D03*
X0204500Y0523660D03*
X0077000Y0521160D03*
X0067000Y0521160D03*
X0057000Y0521160D03*
X0047000Y0521160D03*
X0047000Y0491160D03*
X0057000Y0491160D03*
X0067000Y0491160D03*
X0077000Y0491160D03*
D55*
X0038000Y0494660D02*
X0032000Y0494660D01*
X0032000Y0504660D02*
X0038000Y0504660D01*
X0038000Y0514660D02*
X0032000Y0514660D01*
X0032000Y0524660D02*
X0038000Y0524660D01*
X0038000Y0484660D02*
X0032000Y0484660D01*
X0215000Y0485660D02*
X0221000Y0485660D01*
X0221000Y0495660D02*
X0215000Y0495660D01*
X0215000Y0505660D02*
X0221000Y0505660D01*
X0221000Y0515660D02*
X0215000Y0515660D01*
X0215000Y0525660D02*
X0221000Y0525660D01*
X0258210Y0359920D02*
G75*
%LPD*%
D71*
X0273210Y0379920D03*
X0273210Y0389920D03*
D55*
X0273210Y0409920D03*
X0273210Y0419920D03*
X0273210Y0429920D03*
X0273210Y0439920D03*
X0273210Y0449920D03*
X0273210Y0459920D03*
X0450410Y0456020D03*
X0476010Y0456020D03*
X0490410Y0456020D03*
X0490410Y0438820D03*
X0516010Y0438820D03*
X0516010Y0456020D03*
X0530410Y0456020D03*
X0556010Y0456020D03*
X0556010Y0473820D03*
X0530410Y0473820D03*
X0516010Y0473820D03*
X0490410Y0473820D03*
X0476010Y0473820D03*
X0450410Y0473820D03*
X0490410Y0491020D03*
X0516010Y0491020D03*
X0516010Y0508820D03*
X0490410Y0508820D03*
X0490410Y0421020D03*
X0516010Y0421020D03*
X0515410Y0398820D03*
X0491010Y0398820D03*
X0465410Y0398820D03*
X0465410Y0381020D03*
X0491010Y0381020D03*
X0515410Y0381020D03*
X0541010Y0381020D03*
X0541010Y0398820D03*
D28*
X0437210Y0463920D03*
X0427210Y0463920D03*
X0427210Y0473920D03*
X0437210Y0473920D03*
X0437210Y0483920D03*
X0427210Y0483920D03*
D81*
X0428210Y0437520D02*
X0428210Y0432320D01*
X0418210Y0432320D02*
X0418210Y0437520D01*
X0408210Y0437520D02*
X0408210Y0432320D01*
X0398210Y0432320D02*
X0398210Y0437520D01*
X0388210Y0437520D02*
X0388210Y0432320D01*
X0378210Y0432320D02*
X0378210Y0437520D01*
X0368210Y0437520D02*
X0368210Y0432320D01*
X0358210Y0432320D02*
X0358210Y0437520D01*
X0348210Y0437520D02*
X0348210Y0432320D01*
X0338210Y0432320D02*
X0338210Y0437520D01*
X0328210Y0437520D02*
X0328210Y0432320D01*
X0318210Y0432320D02*
X0318210Y0437520D01*
X0308210Y0437520D02*
X0308210Y0432320D01*
X0298210Y0432320D02*
X0298210Y0437520D01*
X0298210Y0407520D02*
X0298210Y0402320D01*
X0308210Y0402320D02*
X0308210Y0407520D01*
X0318210Y0407520D02*
X0318210Y0402320D01*
X0328210Y0402320D02*
X0328210Y0407520D01*
X0338210Y0407520D02*
X0338210Y0402320D01*
X0348210Y0402320D02*
X0348210Y0407520D01*
X0358210Y0407520D02*
X0358210Y0402320D01*
X0368210Y0402320D02*
X0368210Y0407520D01*
X0378210Y0407520D02*
X0378210Y0402320D01*
X0388210Y0402320D02*
X0388210Y0407520D01*
X0398210Y0407520D02*
X0398210Y0402320D01*
X0408210Y0402320D02*
X0408210Y0407520D01*
X0418210Y0407520D02*
X0418210Y0402320D01*
X0428210Y0402320D02*
X0428210Y0407520D01*
X0558210Y0502320D02*
X0558210Y0507520D01*
X0568210Y0507520D02*
X0568210Y0502320D01*
X0578210Y0502320D02*
X0578210Y0507520D01*
X0588210Y0507520D02*
X0588210Y0502320D01*
X0598210Y0502320D02*
X0598210Y0507520D01*
X0598210Y0562320D02*
X0598210Y0567520D01*
X0588210Y0567520D02*
X0588210Y0562320D01*
X0578210Y0562320D02*
X0578210Y0567520D01*
X0568210Y0567520D02*
X0568210Y0562320D01*
X0558210Y0562320D02*
X0558210Y0567520D01*
D55*
X0428210Y0566920D02*
X0428210Y0572920D01*
X0418210Y0572920D02*
X0418210Y0566920D01*
X0408210Y0566920D02*
X0408210Y0572920D01*
X0398210Y0572920D02*
X0398210Y0566920D01*
X0388210Y0566920D02*
X0388210Y0572920D01*
X0378210Y0572920D02*
X0378210Y0566920D01*
X0368210Y0566920D02*
X0368210Y0572920D01*
X0358210Y0572920D02*
X0358210Y0566920D01*
X0342210Y0566920D02*
X0342210Y0572920D01*
X0332210Y0572920D02*
X0332210Y0566920D01*
X0322210Y0566920D02*
X0322210Y0572920D01*
X0312210Y0572920D02*
X0312210Y0566920D01*
X0302210Y0566920D02*
X0302210Y0572920D01*
X0292210Y0572920D02*
X0292210Y0566920D01*
X0282210Y0566920D02*
X0282210Y0572920D01*
X0272210Y0572920D02*
X0272210Y0566920D01*
X0270210Y0539920D02*
X0276210Y0539920D01*
X0276210Y0529920D02*
X0270210Y0529920D01*
X0270210Y0519920D02*
X0276210Y0519920D01*
X0276210Y0509920D02*
X0270210Y0509920D01*
X0270210Y0499920D02*
X0276210Y0499920D01*
X0276210Y0489920D02*
X0270210Y0489920D01*
X0285210Y0389920D02*
X0291210Y0389920D01*
X0291210Y0379920D02*
X0285210Y0379920D01*
X0313210Y0376920D02*
X0313210Y0382920D01*
X0323210Y0382920D02*
X0323210Y0376920D01*
X0333210Y0376920D02*
X0333210Y0382920D01*
X0343210Y0382920D02*
X0343210Y0376920D01*
X0353210Y0376920D02*
X0353210Y0382920D01*
X0363210Y0382920D02*
X0363210Y0376920D01*
X0378210Y0376920D02*
X0378210Y0382920D01*
X0388210Y0382920D02*
X0388210Y0376920D01*
X0398210Y0376920D02*
X0398210Y0382920D01*
X0408210Y0382920D02*
X0408210Y0376920D01*
X0418210Y0376920D02*
X0418210Y0382920D01*
X0428210Y0382920D02*
X0428210Y0376920D01*
D38*
X0578370Y0377360D03*
X0588210Y0377360D03*
X0598050Y0377360D03*
D72*
X0605530Y0404920D03*
X0570890Y0404920D03*
D13*
X0483210Y0534920D03*
X0483210Y0544920D03*
X0483210Y0554920D03*
X0483210Y0564920D03*
X0503210Y0559920D03*
X0503210Y0549920D03*
X0503210Y0539920D03*
X0543210Y0539920D03*
X0543210Y0549920D03*
X0543210Y0559920D03*
X0443210Y0554920D03*
X0443210Y0564920D03*
X0443210Y0544920D03*
X0443210Y0534920D03*
D100*
X0378210Y0529920D03*
X0358210Y0554920D03*
X0350710Y0572420D03*
X0298210Y0524920D03*
X0318210Y0519920D03*
X0328210Y0499920D03*
X0313210Y0489920D03*
X0303210Y0482420D03*
X0293210Y0469920D03*
X0293210Y0449920D03*
X0293210Y0442420D03*
X0343210Y0474920D03*
X0408210Y0469920D03*
X0443210Y0424920D03*
X0626910Y0380760D02*
G75*
%LPD*%
D98*
X0973420Y0412800D03*
X0973420Y0522800D03*
D81*
X0962460Y0464930D02*
X0962460Y0459730D01*
X0952460Y0459730D02*
X0952460Y0464930D01*
X0942460Y0464930D02*
X0942460Y0459730D01*
X0932460Y0459730D02*
X0932460Y0464930D01*
X0922460Y0464930D02*
X0922460Y0459730D01*
X0912460Y0459730D02*
X0912460Y0464930D01*
X0902460Y0464930D02*
X0902460Y0459730D01*
X0892460Y0459730D02*
X0892460Y0464930D01*
X0882460Y0464930D02*
X0882460Y0459730D01*
X0872460Y0459730D02*
X0872460Y0464930D01*
X0862460Y0464930D02*
X0862460Y0459730D01*
X0852460Y0459730D02*
X0852460Y0464930D01*
X0842460Y0464930D02*
X0842460Y0459730D01*
X0832460Y0459730D02*
X0832460Y0464930D01*
X0832460Y0434930D02*
X0832460Y0429730D01*
X0842460Y0429730D02*
X0842460Y0434930D01*
X0852460Y0434930D02*
X0852460Y0429730D01*
X0862460Y0429730D02*
X0862460Y0434930D01*
X0872460Y0434930D02*
X0872460Y0429730D01*
X0882460Y0429730D02*
X0882460Y0434930D01*
X0892460Y0434930D02*
X0892460Y0429730D01*
X0902460Y0429730D02*
X0902460Y0434930D01*
X0912460Y0434930D02*
X0912460Y0429730D01*
X0922460Y0429730D02*
X0922460Y0434930D01*
X0932460Y0434930D02*
X0932460Y0429730D01*
X0942460Y0429730D02*
X0942460Y0434930D01*
X0952460Y0434930D02*
X0952460Y0429730D01*
X0962460Y0429730D02*
X0962460Y0434930D01*
X0757020Y0461800D02*
X0751820Y0461800D01*
X0751820Y0471800D02*
X0757020Y0471800D01*
X0757020Y0481800D02*
X0751820Y0481800D01*
X0751820Y0491800D02*
X0757020Y0491800D01*
X0757020Y0501800D02*
X0751820Y0501800D01*
X0751820Y0511800D02*
X0757020Y0511800D01*
X0757020Y0521800D02*
X0751820Y0521800D01*
X0751820Y0531800D02*
X0757020Y0531800D01*
X0757020Y0541800D02*
X0751820Y0541800D01*
X0751820Y0551800D02*
X0757020Y0551800D01*
X0727020Y0551800D02*
X0721820Y0551800D01*
X0721820Y0541800D02*
X0727020Y0541800D01*
X0727020Y0531800D02*
X0721820Y0531800D01*
X0721820Y0521800D02*
X0727020Y0521800D01*
X0727020Y0511800D02*
X0721820Y0511800D01*
X0721820Y0501800D02*
X0727020Y0501800D01*
X0727020Y0491800D02*
X0721820Y0491800D01*
X0721820Y0481800D02*
X0727020Y0481800D01*
X0727020Y0471800D02*
X0721820Y0471800D01*
X0721820Y0461800D02*
X0727020Y0461800D01*
D28*
X0738420Y0573800D03*
X0748420Y0573800D03*
X0748420Y0583800D03*
X0738420Y0583800D03*
X0728420Y0583800D03*
X0962970Y0502600D03*
X0972970Y0502600D03*
X0972970Y0492600D03*
X0962970Y0492600D03*
X0962970Y0482600D03*
X0972970Y0482600D03*
D13*
X0952420Y0520800D03*
X0952720Y0530800D03*
X0952660Y0540500D03*
X0952720Y0550500D03*
X0952820Y0560400D03*
X0912820Y0560400D03*
X0912720Y0550500D03*
X0912660Y0540500D03*
X0912720Y0530800D03*
X0912420Y0520800D03*
X0898810Y0520690D03*
X0888090Y0520700D03*
X0877060Y0520500D03*
X0877060Y0540500D03*
X0888090Y0540700D03*
X0898810Y0540690D03*
X0858420Y0544200D03*
X0858420Y0554200D03*
X0840120Y0554200D03*
X0840120Y0544200D03*
X0778420Y0493800D03*
X0768420Y0493800D03*
X0800420Y0482800D03*
X0800420Y0462800D03*
X0778420Y0453800D03*
X0768420Y0453800D03*
X0763420Y0430800D03*
X0754420Y0430800D03*
X0754420Y0420800D03*
X0763420Y0420800D03*
X0767780Y0408410D03*
X0767780Y0388410D03*
X0683420Y0455800D03*
X0673420Y0455800D03*
X0657420Y0455800D03*
X0647420Y0455800D03*
X0635920Y0463700D03*
X0648420Y0475800D03*
X0660120Y0475800D03*
X0671420Y0475800D03*
X0682420Y0475800D03*
X0682420Y0495800D03*
X0671420Y0495800D03*
X0660120Y0495800D03*
X0648420Y0495800D03*
X0635920Y0503700D03*
X0679420Y0510800D03*
X0690420Y0510800D03*
X0701420Y0510800D03*
X0701420Y0550800D03*
X0690420Y0550800D03*
X0679420Y0550800D03*
D49*
X0701220Y0491800D02*
X0705620Y0491800D01*
X0705620Y0471800D02*
X0701220Y0471800D01*
X0872430Y0501630D02*
X0872430Y0506030D01*
X0892430Y0506030D02*
X0892430Y0501630D01*
D55*
X0913920Y0498450D02*
X0919920Y0498450D01*
X0939520Y0498450D02*
X0945520Y0498450D01*
X0945520Y0480650D02*
X0939520Y0480650D01*
X0919920Y0480650D02*
X0913920Y0480650D01*
X0803420Y0509800D02*
X0797420Y0509800D01*
X0797420Y0519800D02*
X0803420Y0519800D01*
X0803420Y0529800D02*
X0797420Y0529800D01*
X0797420Y0539800D02*
X0803420Y0539800D01*
X0803420Y0549800D02*
X0797420Y0549800D01*
X0797420Y0559800D02*
X0803420Y0559800D01*
X0783420Y0559800D02*
X0777420Y0559800D01*
X0777420Y0549800D02*
X0783420Y0549800D01*
X0783420Y0539800D02*
X0777420Y0539800D01*
X0777420Y0529800D02*
X0783420Y0529800D01*
X0783420Y0519800D02*
X0777420Y0519800D01*
X0777420Y0509800D02*
X0783420Y0509800D01*
X0806140Y0579870D02*
X0806140Y0585870D01*
X0816140Y0585870D02*
X0816140Y0579870D01*
X0826140Y0579870D02*
X0826140Y0585870D01*
X0836140Y0585870D02*
X0836140Y0579870D01*
X0846140Y0579870D02*
X0846140Y0585870D01*
X0856140Y0585870D02*
X0856140Y0579870D01*
X0866140Y0579870D02*
X0866140Y0585870D01*
X0876140Y0585870D02*
X0876140Y0579870D01*
X0892130Y0579710D02*
X0892130Y0585710D01*
X0902130Y0585710D02*
X0902130Y0579710D01*
X0912130Y0579710D02*
X0912130Y0585710D01*
X0922130Y0585710D02*
X0922130Y0579710D01*
X0932130Y0579710D02*
X0932130Y0585710D01*
X0942130Y0585710D02*
X0942130Y0579710D01*
X0952130Y0579710D02*
X0952130Y0585710D01*
X0962130Y0585710D02*
X0962130Y0579710D01*
X0729120Y0428300D02*
X0729120Y0422300D01*
X0719120Y0422300D02*
X0719120Y0428300D01*
X0709120Y0428300D02*
X0709120Y0422300D01*
X0777420Y0422800D02*
X0783420Y0422800D01*
X0797420Y0422800D02*
X0803420Y0422800D01*
X0803420Y0412800D02*
X0797420Y0412800D01*
X0797420Y0402800D02*
X0803420Y0402800D01*
X0803420Y0392800D02*
X0797420Y0392800D01*
X0783420Y0392800D02*
X0777420Y0392800D01*
X0777420Y0402800D02*
X0783420Y0402800D01*
X0783420Y0412800D02*
X0777420Y0412800D01*
X0842420Y0395800D02*
X0842420Y0389800D01*
X0852420Y0389800D02*
X0852420Y0395800D01*
X0862420Y0395800D02*
X0862420Y0389800D01*
X0872420Y0389800D02*
X0872420Y0395800D01*
X0882420Y0395800D02*
X0882420Y0389800D01*
X0892420Y0389800D02*
X0892420Y0395800D01*
X0912540Y0395910D02*
X0912540Y0389910D01*
X0922540Y0389910D02*
X0922540Y0395910D01*
X0932540Y0395910D02*
X0932540Y0389910D01*
X0942540Y0389910D02*
X0942540Y0395910D01*
X0952540Y0395910D02*
X0952540Y0389910D01*
X0962540Y0389910D02*
X0962540Y0395910D01*
X0647420Y0512800D02*
X0647420Y0518800D01*
X0637420Y0518800D02*
X0637420Y0512800D01*
D93*
X0689110Y0426660D03*
X0689110Y0386660D03*
D92*
X0711830Y0405850D03*
X0744810Y0405870D03*
D71*
X0744810Y0391870D03*
X0711830Y0391850D03*
D50*
X0661620Y0392800D03*
X0673420Y0412500D03*
X0649820Y0412500D03*
D78*
X0653090Y0547880D03*
X0660960Y0547880D03*
X0660960Y0557720D03*
X0653090Y0557720D03*
D89*
X0642420Y0576500D03*
X0642420Y0529100D03*
D88*
X0728420Y0573800D03*
D55*
X0768420Y0573800D03*
X0768420Y0583800D03*
D96*
X0831420Y0535800D03*
X0831420Y0525800D03*
X0811420Y0530800D03*
X0807420Y0514800D03*
X0877420Y0533800D03*
X0887420Y0526800D03*
X0963420Y0538800D03*
X0855420Y0449800D03*
X0837420Y0444800D03*
X0903420Y0410800D03*
X0972420Y0431800D03*
D91*
X0790420Y0422800D03*
X0790420Y0412800D03*
X0790420Y0402800D03*
X0790420Y0392800D03*
X0790420Y0509800D03*
X0790420Y0519800D03*
X0790420Y0529800D03*
X0790420Y0539800D03*
X0790420Y0549800D03*
X0790420Y0559800D03*
M02*
