%
T01C0.025600
X16246Y5500
X15496Y5500
X13496Y5500
X12246Y6500
X11496Y7500
X10496Y9000
X8496Y8000
X7996Y6000
X4996Y12000
X3246Y11250
X7496Y14000
X12996Y10500
X13496Y17000
X17996Y20500
X35496Y15000
X34496Y15000
X32996Y15000
X31996Y15000
X36496Y4500
X36496Y10250
X35496Y31996
X34496Y31996
X32996Y31996
X31996Y31996
X36496Y21496
X36496Y27246
X9200Y43670
X10400Y43670
X20100Y40970
X19700Y40470
X75562Y4480
X74042Y5120
X74362Y6640
X73082Y7120
X72202Y6800
X71722Y6800
X71862Y6180
X71162Y4960
X71982Y3400
X69882Y3600
X69202Y2780
X69882Y5680
X69322Y6480
X69722Y6800
X71802Y7680
X72922Y8320
X70762Y10160
X70042Y9520
X70442Y9200
X69722Y10160
X70842Y11920
X69802Y12720
X69162Y12560
X69562Y13760
X70122Y13760
X72282Y11600
X73322Y13540
X72742Y13840
X68022Y11120
X75562Y18350
X74042Y18990
X74362Y20510
X73082Y20990
X72202Y20670
X71722Y20670
X71862Y20050
X71162Y18830
X71982Y17270
X69882Y17470
X69202Y16650
X69882Y19550
X69322Y20350
X69722Y20670
X71802Y21550
X72922Y22190
X70762Y24030
X70042Y23390
X70442Y23070
X69722Y24030
X70842Y25790
X69802Y26590
X69162Y26430
X69562Y27630
X70122Y27630
X72282Y25470
X73322Y27410
X72742Y27710
X68022Y24990
X85795Y28552
X85795Y26552
X86998Y9651
X88998Y9651
X91698Y23051
X91198Y24851
X95098Y29651
X92998Y36551
X83498Y28051
X82798Y27051
X82598Y22451
X83598Y22451
X83098Y20451
X84698Y20051
X82298Y35651
X9200Y51166
X10400Y51166
X20100Y48466
X19700Y47966
X29321Y44242
X29321Y44992
X29321Y46992
X30321Y48242
X31321Y48992
X32821Y49992
X31821Y51992
X29821Y52492
X35821Y55492
X35071Y57242
X37821Y52992
X34321Y47492
X40821Y46992
X44321Y42492
X89243Y50383
X87243Y50383
X70342Y49180
X70342Y47180
X83742Y44480
X85542Y44980
X90342Y41080
X97242Y43180
X88742Y52680
X87742Y53380
X83142Y53580
X83142Y52580
X81142Y53080
X80742Y51480
X96342Y53880
T02C0.031750
X16996Y19000
X16996Y18000
X16996Y17000
X16996Y16000
X16996Y15000
X16996Y14000
X16996Y13000
X16996Y12000
X16996Y11000
X16996Y10000
X16996Y9000
X16996Y8000
X16996Y7000
X16996Y6000
X19996Y6000
X19996Y7000
X19996Y8000
X19996Y9000
X19996Y10000
X19996Y11000
X19996Y12000
X19996Y13000
X19996Y14000
X19996Y15000
X19996Y16000
X19996Y17000
X19996Y18000
X19996Y19000
X9996Y32000
X9996Y33000
X9996Y34000
X9996Y35000
X9996Y36000
X6496Y30500
X5496Y30500
X4496Y30500
X3996Y32000
X3996Y33000
X3996Y34000
X3996Y35000
X3996Y36000
X4496Y26500
X5496Y26500
X6496Y26500
X5996Y24500
X6996Y24500
X4996Y24500
X3996Y24500
X3996Y20500
X4996Y20500
X5996Y20500
X6996Y20500
X28496Y4500
X30496Y5000
X31996Y5000
X31996Y7000
X30496Y7000
X28496Y7500
X30496Y8000
X31246Y8500
X30496Y9000
X31996Y10000
X37496Y9500
X38496Y9500
X39496Y9500
X40496Y9500
X40496Y11000
X39496Y11000
X38496Y11000
X37496Y11000
X31996Y13000
X37496Y14000
X38496Y14000
X39496Y14000
X40496Y14000
X41496Y15000
X43496Y14000
X44496Y14000
X45496Y14000
X46496Y14000
X46496Y15000
X47996Y15000
X49996Y14000
X50996Y14000
X51996Y14000
X52996Y14000
X54496Y14000
X55496Y14000
X56496Y14000
X57496Y14000
X57496Y11000
X56496Y11000
X55496Y11000
X54496Y11000
X52996Y11000
X51996Y11000
X50996Y11000
X49996Y11000
X46496Y11000
X45496Y11000
X44496Y11000
X43496Y11000
X47496Y9500
X47496Y8500
X47496Y7500
X47496Y6500
X47496Y5500
X45496Y6500
X42496Y6500
X40496Y6500
X39496Y6500
X38496Y6500
X37496Y6500
X47496Y4500
X47496Y3500
X50496Y3500
X50496Y4500
X50496Y5500
X50496Y6500
X51996Y7000
X50496Y7500
X50496Y8500
X51496Y9000
X50496Y9500
X54496Y9000
X55496Y9000
X58496Y9000
X57496Y7000
X55496Y7000
X53996Y7000
X44996Y16750
X43996Y16750
X42996Y16750
X41496Y18000
X39496Y16750
X38496Y16750
X37496Y16750
X46496Y18000
X47996Y18000
X28496Y21496
X30496Y21996
X31996Y21996
X31996Y23996
X30496Y23996
X28496Y24496
X30496Y24996
X31246Y25496
X30496Y25996
X31996Y26996
X37496Y26496
X38496Y26496
X39496Y26496
X40496Y26496
X40496Y27996
X39496Y27996
X38496Y27996
X37496Y27996
X31996Y29996
X37496Y30996
X38496Y30996
X39496Y30996
X40496Y30996
X41496Y31996
X43496Y30996
X44496Y30996
X45496Y30996
X46496Y30996
X46496Y31996
X47996Y31996
X49996Y30996
X50996Y30996
X51996Y30996
X52996Y30996
X54496Y30996
X55496Y30996
X56496Y30996
X57496Y30996
X57496Y27996
X56496Y27996
X55496Y27996
X54496Y27996
X52996Y27996
X51996Y27996
X50996Y27996
X49996Y27996
X46496Y27996
X45496Y27996
X44496Y27996
X43496Y27996
X47496Y26496
X47496Y25496
X47496Y24496
X47496Y23496
X47496Y22496
X45496Y23496
X42496Y23496
X40496Y23496
X39496Y23496
X38496Y23496
X37496Y23496
X47496Y21496
X47496Y20496
X50496Y20496
X50496Y21496
X50496Y22496
X50496Y23496
X51996Y23996
X50496Y24496
X50496Y25496
X51496Y25996
X50496Y26496
X54496Y25996
X55496Y25996
X58496Y25996
X57496Y23996
X55496Y23996
X53996Y23996
X44996Y33746
X43996Y33746
X42996Y33746
X41496Y34996
X39496Y33746
X38496Y33746
X37496Y33746
X46496Y34996
X47996Y34996
X2700Y39870
X3700Y39870
X5700Y39870
X6700Y39870
X8700Y39870
X9700Y39870
X11700Y39870
X12700Y39870
X14700Y39870
X15700Y39870
X17700Y39870
X18700Y39870
X20700Y39870
X21700Y39870
X23700Y39870
X24700Y39870
X20450Y41870
X19450Y41870
X18450Y41870
X17450Y41870
X16200Y41870
X15200Y41870
X14200Y41870
X13200Y41870
X12200Y41870
X11200Y41870
X10200Y41870
X9200Y41870
X7700Y41620
X6700Y41620
X5700Y41620
X4700Y41620
X4700Y44620
X5700Y44620
X6700Y44620
X7700Y44620
X9200Y44870
X10200Y44870
X11200Y44870
X12200Y44870
X13200Y44870
X14200Y44870
X15200Y44870
X16200Y44870
X17450Y44870
X18450Y44870
X19450Y44870
X20450Y44870
X97337Y16087
X96991Y13790
X95591Y13790
X95337Y16087
X94098Y15651
X94098Y14751
X93098Y14751
X93098Y15651
X90798Y16151
X90798Y17151
X89898Y19351
X89945Y22555
X89945Y23555
X89945Y24555
X89945Y25555
X89945Y26555
X89945Y27555
X89945Y28555
X89945Y29555
X89945Y30555
X89945Y31555
X89945Y32555
X89945Y33555
X89945Y34555
X89945Y35555
X92945Y35555
X92945Y34555
X92945Y33555
X92945Y32555
X92945Y31555
X92945Y30555
X92945Y29555
X92945Y28555
X92945Y27555
X92945Y26555
X92945Y25555
X92945Y24555
X92945Y23555
X92945Y22555
X89998Y14751
X88998Y14751
X87998Y14751
X86998Y14751
X86798Y16151
X86798Y17151
X87898Y19351
X85998Y14751
X84998Y14751
X83998Y14751
X82998Y14751
X81998Y14751
X80998Y14751
X80998Y11751
X81998Y11751
X82998Y11751
X83998Y11751
X84998Y11751
X85998Y11751
X86998Y11751
X87998Y11751
X88998Y11751
X89998Y11751
X90598Y7651
X90598Y6651
X90598Y5051
X90598Y4051
X89808Y2901
X88598Y4151
X88598Y5321
X88598Y6451
X88598Y7551
X86598Y7551
X86598Y6451
X86598Y5321
X86598Y4151
X85808Y2901
X85098Y7251
X85098Y8351
X85098Y9451
X81098Y9451
X81098Y8351
X81098Y7251
X80758Y23321
X81758Y23321
X81758Y25151
X80758Y25151
X82128Y27015
X82108Y28118
X82109Y29190
X82128Y30575
X83098Y30581
X84098Y30551
X84109Y29190
X84108Y28118
X84128Y27015
X81128Y30581
X80138Y30591
X80138Y34591
X81128Y34581
X82128Y34575
X83098Y34581
X84098Y34551
X95593Y10492
X96993Y10492
X85198Y18351
X84198Y18351
X83198Y18351
X82198Y18351
X81198Y18351
X80198Y18351
X93898Y18351
X94898Y18351
X95898Y18351
X96898Y18351
X2700Y47366
X3700Y47366
X5700Y47366
X6700Y47366
X8700Y47366
X9700Y47366
X11700Y47366
X12700Y47366
X14700Y47366
X15700Y47366
X17700Y47366
X18700Y47366
X20700Y47366
X21700Y47366
X23700Y47366
X24700Y47366
X20450Y49366
X19450Y49366
X18450Y49366
X17450Y49366
X16200Y49366
X15200Y49366
X14200Y49366
X13200Y49366
X12200Y49366
X11200Y49366
X10200Y49366
X9200Y49366
X7700Y49116
X6700Y49116
X5700Y49116
X4700Y49116
X4700Y52116
X5700Y52116
X6700Y52116
X7700Y52116
X9200Y52366
X10200Y52366
X11200Y52366
X12200Y52366
X13200Y52366
X14200Y52366
X15200Y52366
X16200Y52366
X17450Y52366
X18450Y52366
X19450Y52366
X20450Y52366
X42821Y43492
X41821Y43492
X40821Y43492
X39821Y43492
X38821Y43492
X37821Y43492
X36821Y43492
X35821Y43492
X34821Y43492
X33821Y43492
X32821Y43492
X31821Y43492
X30821Y43492
X29821Y43492
X29821Y40492
X30821Y40492
X31821Y40492
X32821Y40492
X33821Y40492
X34821Y40492
X35821Y40492
X36821Y40492
X37821Y40492
X38821Y40492
X39821Y40492
X40821Y40492
X41821Y40492
X42821Y40492
X55821Y50492
X56821Y50492
X57821Y50492
X58821Y50492
X59821Y50492
X54321Y53992
X54321Y54992
X54321Y55992
X55821Y56492
X56821Y56492
X57821Y56492
X58821Y56492
X59821Y56492
X50321Y55992
X50321Y54992
X50321Y53992
X48321Y54492
X48321Y53492
X48321Y55492
X48321Y56492
X44321Y56492
X44321Y55492
X44321Y54492
X44321Y53492
X76778Y38841
X74481Y39187
X74481Y40587
X76778Y40841
X76342Y42080
X75442Y42080
X75442Y43080
X76342Y43080
X76842Y45380
X77842Y45380
X80042Y46280
X83246Y46233
X84246Y46233
X85246Y46233
X86246Y46233
X87246Y46233
X88246Y46233
X89246Y46233
X90246Y46233
X91246Y46233
X92246Y46233
X93246Y46233
X94246Y46233
X95246Y46233
X96246Y46233
X96246Y43233
X95246Y43233
X94246Y43233
X93246Y43233
X92246Y43233
X91246Y43233
X90246Y43233
X89246Y43233
X88246Y43233
X87246Y43233
X86246Y43233
X85246Y43233
X84246Y43233
X83246Y43233
X75442Y46180
X75442Y47180
X75442Y48180
X75442Y49180
X76842Y49380
X77842Y49380
X80042Y48280
X75442Y50180
X75442Y51180
X75442Y52180
X75442Y53180
X75442Y54180
X75442Y55180
X72442Y55180
X72442Y54180
X72442Y53180
X72442Y52180
X72442Y51180
X72442Y50180
X72442Y49180
X72442Y48180
X72442Y47180
X72442Y46180
X68342Y45580
X67342Y45580
X65742Y45580
X64742Y45580
X63592Y46370
X64842Y47580
X66012Y47580
X67142Y47580
X68242Y47580
X68242Y49580
X67142Y49580
X66012Y49580
X64842Y49580
X63592Y50370
X67942Y51080
X69042Y51080
X70142Y51080
X70142Y55080
X69042Y55080
X67942Y55080
X84012Y55420
X84012Y54420
X85842Y54420
X85842Y55420
X87706Y54050
X88809Y54070
X89881Y54069
X91266Y54050
X91272Y53080
X91242Y52080
X89881Y52069
X88809Y52070
X87706Y52050
X91272Y55050
X91282Y56040
X95282Y56040
X95272Y55050
X95266Y54050
X95272Y53080
X95242Y52080
X71183Y40585
X71183Y39185
X79042Y50980
X79042Y51980
X79042Y52980
X79042Y53980
X79042Y54980
X79042Y55980
X79042Y42280
X79042Y41280
X79042Y40280
X79042Y39280
T03C0.038700
X22386Y30280
X22386Y27720
X22386Y25280
X22386Y22720
X20606Y22720
X20606Y25280
X20606Y27720
X20606Y30280
X18386Y27780
X18386Y25220
X16606Y25220
X14886Y25220
X14886Y23780
X14886Y21220
X14096Y19900
X14096Y18900
X13096Y18900
X13096Y19900
X13106Y21220
X12096Y19900
X12096Y18900
X13106Y23780
X13106Y25220
X13106Y27780
X13106Y29220
X13106Y31780
X14886Y31780
X14886Y29220
X14886Y27780
X16606Y27780
X11386Y27780
X11386Y25220
X9606Y25220
X9606Y27780
X3496Y19000
X3496Y18000
X3496Y17000
X3496Y16000
X3496Y15000
X3496Y14000
X3496Y13000
X3496Y12000
X3496Y10400
X3496Y9400
X3496Y8400
X3496Y7400
X3496Y6400
X3496Y5400
X3496Y4400
X3496Y3400
X6496Y3500
X7496Y3500
X8496Y3500
X9496Y3500
X10496Y3500
X11496Y3500
X14496Y3500
X15496Y3500
X16496Y3500
X17496Y3500
X18496Y3500
X19496Y3500
X21496Y5000
X22496Y5000
X22496Y7500
X22496Y8500
X22496Y9500
X22496Y10500
X22496Y11500
X22496Y12500
X22496Y14000
X22496Y15000
X22496Y16000
X22496Y17000
X22496Y18000
X22496Y19000
X22752Y34016
X22752Y35000
X22752Y35984
X34996Y17000
X33996Y17000
X32996Y17000
X33996Y12500
X33996Y11500
X33996Y10500
X34996Y7500
X34996Y6500
X34996Y5500
X61496Y12000
X62496Y12000
X63496Y12000
X63496Y13000
X62496Y13000
X61496Y13000
X61496Y14000
X62496Y14000
X63496Y14000
X63496Y15000
X62496Y15000
X61496Y15000
X61496Y16000
X62496Y16000
X63496Y16000
X34996Y33996
X33996Y33996
X32996Y33996
X33996Y29496
X33996Y28496
X33996Y27496
X34996Y24496
X34996Y23496
X34996Y22496
X61496Y28996
X62496Y28996
X63496Y28996
X63496Y29996
X62496Y29996
X61496Y29996
X61496Y30996
X62496Y30996
X63496Y30996
X63496Y31996
X62496Y31996
X61496Y31996
X61496Y32996
X62496Y32996
X63496Y32996
X21800Y45070
X21800Y44070
X21800Y43070
X21800Y42070
X21800Y41070
X3500Y40970
X3500Y41970
X3500Y42970
X3500Y43970
X3500Y44970
X75662Y10300
X75662Y9300
X75662Y8300
X75662Y7300
X75662Y6300
X75662Y5300
X75662Y24170
X75662Y23170
X75662Y22170
X75662Y21170
X75662Y20170
X75662Y19170
X78798Y12151
X78798Y13151
X78798Y14151
X77798Y14151
X77798Y13151
X77798Y12151
X77798Y16151
X78798Y16151
X80198Y17351
X81198Y17351
X82198Y17351
X83198Y17351
X84198Y17351
X85198Y17351
X85198Y19351
X84198Y19351
X83198Y19351
X82198Y19351
X81198Y19351
X80198Y19351
X77891Y19923
X77891Y20923
X77891Y21923
X77891Y22923
X77891Y23923
X77891Y24923
X77891Y25923
X77891Y26923
X77907Y28522
X77907Y29522
X77907Y30522
X77907Y31522
X77907Y32522
X77907Y33522
X77907Y34522
X77907Y35522
X85918Y35606
X85918Y36606
X86918Y36606
X86918Y35606
X87918Y35606
X87918Y36606
X88113Y33561
X88113Y31001
X86333Y31001
X86333Y33561
X93898Y19351
X94898Y19351
X95898Y19351
X96898Y19351
X96898Y17351
X95898Y17351
X94898Y17351
X93898Y17351
X93648Y12221
X93648Y11221
X93648Y10221
X96898Y23551
X96898Y24551
X96898Y25551
X96898Y26551
X96898Y27551
X96898Y28551
X96887Y30563
X96887Y31563
X96887Y32563
X96887Y33563
X96887Y34563
X96887Y35563
X84598Y4051
X84598Y3051
X81390Y5405
X81390Y4618
X80406Y4618
X80406Y5405
X21800Y52566
X21800Y51566
X21800Y50566
X21800Y49566
X21800Y48566
X3500Y48466
X3500Y49466
X3500Y50466
X3500Y51466
X3500Y52466
X54101Y38102
X51541Y38102
X49101Y38102
X46541Y38102
X46541Y39882
X49101Y39882
X51541Y39882
X54101Y39882
X51601Y42102
X49041Y42102
X49041Y43882
X49041Y45602
X47601Y45602
X45041Y45602
X43721Y46392
X42721Y46392
X42721Y47392
X43721Y47392
X45041Y47382
X43721Y48392
X42721Y48392
X47601Y47382
X49041Y47382
X51601Y47382
X53041Y47382
X55601Y47382
X55601Y45602
X53041Y45602
X51601Y45602
X51601Y43882
X51601Y49102
X49041Y49102
X49041Y50882
X51601Y50882
X42821Y56992
X41821Y56992
X40821Y56992
X39821Y56992
X38821Y56992
X37821Y56992
X36821Y56992
X35821Y56992
X34221Y56992
X33221Y56992
X32221Y56992
X31221Y56992
X30221Y56992
X29221Y56992
X28221Y56992
X27221Y56992
X27321Y53992
X27321Y52992
X27321Y51992
X27321Y50992
X27321Y49992
X27321Y48992
X27321Y45992
X27321Y44992
X27321Y43992
X27321Y42992
X27321Y41992
X27321Y40992
X28821Y38992
X28821Y37992
X31321Y37992
X32321Y37992
X33321Y37992
X34321Y37992
X35321Y37992
X36321Y37992
X37821Y37992
X38821Y37992
X39821Y37992
X40821Y37992
X41821Y37992
X42821Y37992
X57837Y37736
X58821Y37736
X59805Y37736
X72842Y57380
X73842Y57380
X74842Y57380
X74842Y58380
X73842Y58380
X72842Y58380
X76842Y58380
X76842Y57380
X78042Y55980
X78042Y54980
X78042Y53980
X78042Y52980
X78042Y51980
X78042Y50980
X80042Y50980
X80042Y51980
X80042Y52980
X80042Y53980
X80042Y54980
X80042Y55980
X80614Y58287
X81614Y58287
X82614Y58287
X83614Y58287
X84614Y58287
X85614Y58287
X86614Y58287
X87614Y58287
X89213Y58271
X90213Y58271
X91213Y58271
X92213Y58271
X93213Y58271
X94213Y58271
X95213Y58271
X96213Y58271
X96297Y50260
X97297Y50260
X97297Y49260
X96297Y49260
X96297Y48260
X97297Y48260
X94252Y48065
X91692Y48065
X91692Y49845
X94252Y49845
X80042Y42280
X80042Y41280
X80042Y40280
X80042Y39280
X78042Y39280
X78042Y40280
X78042Y41280
X78042Y42280
X72912Y42530
X71912Y42530
X70912Y42530
X84242Y39280
X85242Y39280
X86242Y39280
X87242Y39280
X88242Y39280
X89242Y39280
X91254Y39291
X92254Y39291
X93254Y39291
X94254Y39291
X95254Y39291
X96254Y39291
X64742Y51580
X63742Y51580
X66096Y54788
X65309Y54788
X65309Y55772
X66096Y55772
T04C0.044000
X45996Y9500
X45996Y8000
X41996Y8000
X41996Y9500
X28496Y9000
X26996Y10000
X28496Y13000
X26996Y14000
X45996Y26496
X45996Y24996
X41996Y24996
X41996Y26496
X28496Y25996
X26996Y26996
X28496Y29996
X26996Y30996
X93512Y8220
X97512Y8220
X68911Y42666
X68911Y38666
T05C0.063000
X22496Y3500
X21496Y3500
X27321Y37992
X27321Y38992
T06C0.078700
X19996Y33268
X19996Y36732
X57089Y40492
X60553Y40492
T07C0.090600
X83268Y3551
X78528Y3551
X64242Y52910
X64242Y57650
T08C0.118000
X29209Y14999
X27597Y16490
X29209Y31995
X27597Y33486
T09C0.128000
X30460Y16500
X30460Y33496
X96898Y5471
X94928Y6651
X94928Y4291
X83898Y36651
X94898Y36651
X66162Y39280
X67342Y41250
X64982Y41250
X97342Y52280
X97342Y41280
M30
