%
T01C0.025600
X4196Y9200
X4196Y10400
X6896Y20100
X7396Y19700
X11692Y9200
X11692Y10400
X14392Y20100
X14892Y19700
X19188Y9200
X19188Y10400
X21888Y20100
X22388Y19700
X26684Y9200
X26684Y10400
X29384Y20100
X29884Y19700
X34180Y9200
X34180Y10400
X36880Y20100
X37380Y19700
X9200Y30621
X10400Y30621
X20100Y27921
X19700Y27421
X40067Y29321
X39317Y29321
X37317Y29321
X36067Y30321
X35317Y31321
X34317Y32821
X32317Y31821
X31817Y29821
X28817Y35821
X27067Y35071
X31317Y37821
X36817Y34321
X37317Y40821
X41817Y44321
X66032Y14307
X64032Y14307
X47131Y13104
X47131Y11104
X60531Y8404
X62331Y8904
X67131Y5004
X74031Y7104
X65531Y16604
X64531Y17304
X59931Y17504
X59931Y16504
X57931Y17004
X57531Y15404
X73131Y17804
X20521Y40517
X20521Y41717
X23221Y51417
X23721Y51017
X52313Y34240
X52313Y33240
X52313Y31740
X52313Y30740
X62813Y35240
X57063Y35240
X4196Y40517
X4196Y41717
X6896Y51417
X7396Y51017
X11692Y40517
X11692Y41717
X14392Y51417
X14892Y51017
X74746Y50292
X74746Y48292
X75949Y31391
X77949Y31391
X80649Y44791
X80149Y46591
X84049Y51391
X81949Y58291
X72449Y49791
X71749Y48791
X71549Y44191
X72549Y44191
X72049Y42191
X73649Y41791
X71249Y57391
X78036Y2800
X78676Y4320
X80196Y4000
X80676Y5280
X80356Y6160
X80356Y6640
X79736Y6500
X78516Y7200
X76956Y6380
X77156Y8480
X76336Y9160
X79236Y8480
X80036Y9040
X80356Y8640
X81236Y6560
X81876Y5440
X83716Y7600
X83076Y8320
X82756Y7920
X83716Y8640
X85476Y7520
X86276Y8460
X86116Y9200
X87316Y8800
X87316Y8240
X85156Y6080
X87096Y5040
X87396Y5620
X84676Y10340
X9200Y61938
X10400Y61938
X20100Y59238
X19700Y58738
X73013Y64616
X74213Y64616
X83913Y61916
X83513Y61416
T02C0.031750
X7996Y2700
X7996Y3700
X7996Y5700
X7996Y6700
X7996Y8700
X7996Y9700
X7996Y11700
X7996Y12700
X7996Y14700
X7996Y15700
X7996Y17700
X7996Y18700
X7996Y20700
X7996Y21700
X7996Y23700
X7996Y24700
X5996Y20450
X5996Y19450
X5996Y18450
X5996Y17450
X5996Y16200
X5996Y15200
X5996Y14200
X5996Y13200
X5996Y12200
X5996Y11200
X5996Y10200
X5996Y9200
X6246Y7700
X6246Y6700
X6246Y5700
X6246Y4700
X3246Y4700
X3246Y5700
X3246Y6700
X3246Y7700
X2996Y9200
X2996Y10200
X2996Y11200
X2996Y12200
X2996Y13200
X2996Y14200
X2996Y15200
X2996Y16200
X2996Y17450
X2996Y18450
X2996Y19450
X2996Y20450
X15492Y2700
X15492Y3700
X15492Y5700
X15492Y6700
X15492Y8700
X15492Y9700
X15492Y11700
X15492Y12700
X15492Y14700
X15492Y15700
X15492Y17700
X15492Y18700
X15492Y20700
X15492Y21700
X15492Y23700
X15492Y24700
X13492Y20450
X13492Y19450
X13492Y18450
X13492Y17450
X13492Y16200
X13492Y15200
X13492Y14200
X13492Y13200
X13492Y12200
X13492Y11200
X13492Y10200
X13492Y9200
X13742Y7700
X13742Y6700
X13742Y5700
X13742Y4700
X10742Y4700
X10742Y5700
X10742Y6700
X10742Y7700
X10492Y9200
X10492Y10200
X10492Y11200
X10492Y12200
X10492Y13200
X10492Y14200
X10492Y15200
X10492Y16200
X10492Y17450
X10492Y18450
X10492Y19450
X10492Y20450
X22988Y2700
X22988Y3700
X22988Y5700
X22988Y6700
X22988Y8700
X22988Y9700
X22988Y11700
X22988Y12700
X22988Y14700
X22988Y15700
X22988Y17700
X22988Y18700
X22988Y20700
X22988Y21700
X22988Y23700
X22988Y24700
X20988Y20450
X20988Y19450
X20988Y18450
X20988Y17450
X20988Y16200
X20988Y15200
X20988Y14200
X20988Y13200
X20988Y12200
X20988Y11200
X20988Y10200
X20988Y9200
X21238Y7700
X21238Y6700
X21238Y5700
X21238Y4700
X18238Y4700
X18238Y5700
X18238Y6700
X18238Y7700
X17988Y9200
X17988Y10200
X17988Y11200
X17988Y12200
X17988Y13200
X17988Y14200
X17988Y15200
X17988Y16200
X17988Y17450
X17988Y18450
X17988Y19450
X17988Y20450
X30484Y2700
X30484Y3700
X30484Y5700
X30484Y6700
X30484Y8700
X30484Y9700
X30484Y11700
X30484Y12700
X30484Y14700
X30484Y15700
X30484Y17700
X30484Y18700
X30484Y20700
X30484Y21700
X30484Y23700
X30484Y24700
X28484Y20450
X28484Y19450
X28484Y18450
X28484Y17450
X28484Y16200
X28484Y15200
X28484Y14200
X28484Y13200
X28484Y12200
X28484Y11200
X28484Y10200
X28484Y9200
X28734Y7700
X28734Y6700
X28734Y5700
X28734Y4700
X25734Y4700
X25734Y5700
X25734Y6700
X25734Y7700
X25484Y9200
X25484Y10200
X25484Y11200
X25484Y12200
X25484Y13200
X25484Y14200
X25484Y15200
X25484Y16200
X25484Y17450
X25484Y18450
X25484Y19450
X25484Y20450
X37980Y2700
X37980Y3700
X37980Y5700
X37980Y6700
X37980Y8700
X37980Y9700
X37980Y11700
X37980Y12700
X37980Y14700
X37980Y15700
X37980Y17700
X37980Y18700
X37980Y20700
X37980Y21700
X37980Y23700
X37980Y24700
X35980Y20450
X35980Y19450
X35980Y18450
X35980Y17450
X35980Y16200
X35980Y15200
X35980Y14200
X35980Y13200
X35980Y12200
X35980Y11200
X35980Y10200
X35980Y9200
X36230Y7700
X36230Y6700
X36230Y5700
X36230Y4700
X33230Y4700
X33230Y5700
X33230Y6700
X33230Y7700
X32980Y9200
X32980Y10200
X32980Y11200
X32980Y12200
X32980Y13200
X32980Y14200
X32980Y15200
X32980Y16200
X32980Y17450
X32980Y18450
X32980Y19450
X32980Y20450
X2700Y26821
X3700Y26821
X5700Y26821
X6700Y26821
X8700Y26821
X9700Y26821
X11700Y26821
X12700Y26821
X14700Y26821
X15700Y26821
X17700Y26821
X18700Y26821
X20700Y26821
X21700Y26821
X23700Y26821
X24700Y26821
X20450Y28821
X19450Y28821
X18450Y28821
X17450Y28821
X16200Y28821
X15200Y28821
X14200Y28821
X13200Y28821
X12200Y28821
X11200Y28821
X10200Y28821
X9200Y28821
X7700Y28571
X6700Y28571
X5700Y28571
X4700Y28571
X4700Y31571
X5700Y31571
X6700Y31571
X7700Y31571
X9200Y31821
X10200Y31821
X11200Y31821
X12200Y31821
X13200Y31821
X14200Y31821
X15200Y31821
X16200Y31821
X17450Y31821
X18450Y31821
X19450Y31821
X20450Y31821
X40817Y42821
X40817Y41821
X40817Y40821
X40817Y39821
X40817Y38821
X40817Y37821
X40817Y36821
X40817Y35821
X40817Y34821
X40817Y33821
X40817Y32821
X40817Y31821
X40817Y30821
X40817Y29821
X43817Y29821
X43817Y30821
X43817Y31821
X43817Y32821
X43817Y33821
X43817Y34821
X43817Y35821
X43817Y36821
X43817Y37821
X43817Y38821
X43817Y39821
X43817Y40821
X43817Y41821
X43817Y42821
X33817Y55821
X33817Y56821
X33817Y57821
X33817Y58821
X33817Y59821
X30317Y54321
X29317Y54321
X28317Y54321
X27817Y55821
X27817Y56821
X27817Y57821
X27817Y58821
X27817Y59821
X28317Y50321
X29317Y50321
X30317Y50321
X29817Y48321
X30817Y48321
X28817Y48321
X27817Y48321
X27817Y44321
X28817Y44321
X29817Y44321
X30817Y44321
X53567Y2765
X51270Y3111
X51270Y4511
X53567Y4765
X53131Y6004
X52231Y6004
X52231Y7004
X53131Y7004
X53631Y9304
X54631Y9304
X56831Y10204
X60035Y10157
X61035Y10157
X62035Y10157
X63035Y10157
X64035Y10157
X65035Y10157
X66035Y10157
X67035Y10157
X68035Y10157
X69035Y10157
X70035Y10157
X71035Y10157
X72035Y10157
X73035Y10157
X73035Y7157
X72035Y7157
X71035Y7157
X70035Y7157
X69035Y7157
X68035Y7157
X67035Y7157
X66035Y7157
X65035Y7157
X64035Y7157
X63035Y7157
X62035Y7157
X61035Y7157
X60035Y7157
X52231Y10104
X52231Y11104
X52231Y12104
X52231Y13104
X53631Y13304
X54631Y13304
X56831Y12204
X52231Y14104
X52231Y15104
X52231Y16104
X52231Y17104
X52231Y18104
X52231Y19104
X49231Y19104
X49231Y18104
X49231Y17104
X49231Y16104
X49231Y15104
X49231Y14104
X49231Y13104
X49231Y12104
X49231Y11104
X49231Y10104
X45131Y9504
X44131Y9504
X42531Y9504
X41531Y9504
X40381Y10294
X41631Y11504
X42801Y11504
X43931Y11504
X45031Y11504
X45031Y13504
X43931Y13504
X42801Y13504
X41631Y13504
X40381Y14294
X44731Y15004
X45831Y15004
X46931Y15004
X46931Y19004
X45831Y19004
X44731Y19004
X60801Y19344
X60801Y18344
X62631Y18344
X62631Y19344
X64495Y17974
X65598Y17994
X66670Y17993
X68055Y17974
X68061Y17004
X68031Y16004
X66670Y15993
X65598Y15994
X64495Y15974
X68061Y18974
X68071Y19964
X72071Y19964
X72061Y18974
X72055Y17974
X72061Y17004
X72031Y16004
X47972Y4509
X47972Y3109
X55831Y14904
X55831Y15904
X55831Y16904
X55831Y17904
X55831Y18904
X55831Y19904
X55831Y6204
X55831Y5204
X55831Y4204
X55831Y3204
X24321Y34017
X24321Y35017
X24321Y37017
X24321Y38017
X24321Y40017
X24321Y41017
X24321Y43017
X24321Y44017
X24321Y46017
X24321Y47017
X24321Y49017
X24321Y50017
X24321Y52017
X24321Y53017
X24321Y55017
X24321Y56017
X22321Y51767
X22321Y50767
X22321Y49767
X22321Y48767
X22321Y47517
X22321Y46517
X22321Y45517
X22321Y44517
X22321Y43517
X22321Y42517
X22321Y41517
X22321Y40517
X22571Y39017
X22571Y38017
X22571Y37017
X22571Y36017
X19571Y36017
X19571Y37017
X19571Y38017
X19571Y39017
X19321Y40517
X19321Y41517
X19321Y42517
X19321Y43517
X19321Y44517
X19321Y45517
X19321Y46517
X19321Y47517
X19321Y48767
X19321Y49767
X19321Y50767
X19321Y51767
X62813Y27240
X62313Y29240
X62313Y30740
X60313Y30740
X60313Y29240
X59813Y27240
X59313Y29240
X58813Y29990
X58313Y29240
X57313Y30740
X57813Y36240
X57813Y37240
X57813Y38240
X57813Y39240
X56313Y39240
X56313Y38240
X56313Y37240
X56313Y36240
X54313Y30740
X53313Y36240
X53313Y37240
X53313Y38240
X53313Y39240
X52313Y40240
X53313Y42240
X53313Y43240
X53313Y44240
X53313Y45240
X52313Y45240
X52313Y46740
X53313Y48740
X53313Y49740
X53313Y50740
X53313Y51740
X53313Y53240
X53313Y54240
X53313Y55240
X53313Y56240
X56313Y56240
X56313Y55240
X56313Y54240
X56313Y53240
X56313Y51740
X56313Y50740
X56313Y49740
X56313Y48740
X56313Y45240
X56313Y44240
X56313Y43240
X56313Y42240
X57813Y46240
X58813Y46240
X59813Y46240
X60813Y46240
X61813Y46240
X60813Y44240
X60813Y41240
X60813Y39240
X60813Y38240
X60813Y37240
X60813Y36240
X62813Y46240
X63813Y46240
X63813Y49240
X62813Y49240
X61813Y49240
X60813Y49240
X60313Y50740
X59813Y49240
X58813Y49240
X58313Y50240
X57813Y49240
X58313Y53240
X58313Y54240
X58313Y57240
X60313Y56240
X60313Y54240
X60313Y52740
X50563Y43740
X50563Y42740
X50563Y41740
X49313Y40240
X50563Y38240
X50563Y37240
X50563Y36240
X49313Y45240
X49313Y46740
X7996Y34017
X7996Y35017
X7996Y37017
X7996Y38017
X7996Y40017
X7996Y41017
X7996Y43017
X7996Y44017
X7996Y46017
X7996Y47017
X7996Y49017
X7996Y50017
X7996Y52017
X7996Y53017
X7996Y55017
X7996Y56017
X5996Y51767
X5996Y50767
X5996Y49767
X5996Y48767
X5996Y47517
X5996Y46517
X5996Y45517
X5996Y44517
X5996Y43517
X5996Y42517
X5996Y41517
X5996Y40517
X6246Y39017
X6246Y38017
X6246Y37017
X6246Y36017
X3246Y36017
X3246Y37017
X3246Y38017
X3246Y39017
X2996Y40517
X2996Y41517
X2996Y42517
X2996Y43517
X2996Y44517
X2996Y45517
X2996Y46517
X2996Y47517
X2996Y48767
X2996Y49767
X2996Y50767
X2996Y51767
X15492Y34017
X15492Y35017
X15492Y37017
X15492Y38017
X15492Y40017
X15492Y41017
X15492Y43017
X15492Y44017
X15492Y46017
X15492Y47017
X15492Y49017
X15492Y50017
X15492Y52017
X15492Y53017
X15492Y55017
X15492Y56017
X13492Y51767
X13492Y50767
X13492Y49767
X13492Y48767
X13492Y47517
X13492Y46517
X13492Y45517
X13492Y44517
X13492Y43517
X13492Y42517
X13492Y41517
X13492Y40517
X13742Y39017
X13742Y38017
X13742Y37017
X13742Y36017
X10742Y36017
X10742Y37017
X10742Y38017
X10742Y39017
X10492Y40517
X10492Y41517
X10492Y42517
X10492Y43517
X10492Y44517
X10492Y45517
X10492Y46517
X10492Y47517
X10492Y48767
X10492Y49767
X10492Y50767
X10492Y51767
X86288Y37827
X85942Y35530
X84542Y35530
X84288Y37827
X83049Y37391
X83049Y36491
X82049Y36491
X82049Y37391
X79749Y37891
X79749Y38891
X78849Y41091
X78896Y44295
X78896Y45295
X78896Y46295
X78896Y47295
X78896Y48295
X78896Y49295
X78896Y50295
X78896Y51295
X78896Y52295
X78896Y53295
X78896Y54295
X78896Y55295
X78896Y56295
X78896Y57295
X81896Y57295
X81896Y56295
X81896Y55295
X81896Y54295
X81896Y53295
X81896Y52295
X81896Y51295
X81896Y50295
X81896Y49295
X81896Y48295
X81896Y47295
X81896Y46295
X81896Y45295
X81896Y44295
X78949Y36491
X77949Y36491
X76949Y36491
X75949Y36491
X75749Y37891
X75749Y38891
X76849Y41091
X74949Y36491
X73949Y36491
X72949Y36491
X71949Y36491
X70949Y36491
X69949Y36491
X69949Y33491
X70949Y33491
X71949Y33491
X72949Y33491
X73949Y33491
X74949Y33491
X75949Y33491
X76949Y33491
X77949Y33491
X78949Y33491
X79549Y29391
X79549Y28391
X79549Y26791
X79549Y25791
X78759Y24641
X77549Y25891
X77549Y27061
X77549Y28191
X77549Y29291
X75549Y29291
X75549Y28191
X75549Y27061
X75549Y25891
X74759Y24641
X74049Y28991
X74049Y30091
X74049Y31191
X70049Y31191
X70049Y30091
X70049Y28991
X69709Y45061
X70709Y45061
X70709Y46891
X69709Y46891
X71079Y48755
X71059Y49858
X71060Y50930
X71079Y52315
X72049Y52321
X73049Y52291
X73060Y50930
X73059Y49858
X73079Y48755
X70079Y52321
X69089Y52331
X69089Y56331
X70079Y56321
X71079Y56315
X72049Y56321
X73049Y56291
X84544Y32232
X85944Y32232
X74149Y40091
X73149Y40091
X72149Y40091
X71149Y40091
X70149Y40091
X69149Y40091
X82849Y40091
X83849Y40091
X84849Y40091
X85849Y40091
X2700Y58138
X3700Y58138
X5700Y58138
X6700Y58138
X8700Y58138
X9700Y58138
X11700Y58138
X12700Y58138
X14700Y58138
X15700Y58138
X17700Y58138
X18700Y58138
X20700Y58138
X21700Y58138
X23700Y58138
X24700Y58138
X20450Y60138
X19450Y60138
X18450Y60138
X17450Y60138
X16200Y60138
X15200Y60138
X14200Y60138
X13200Y60138
X12200Y60138
X11200Y60138
X10200Y60138
X9200Y60138
X7700Y59888
X6700Y59888
X5700Y59888
X4700Y59888
X4700Y62888
X5700Y62888
X6700Y62888
X7700Y62888
X9200Y63138
X10200Y63138
X11200Y63138
X12200Y63138
X13200Y63138
X14200Y63138
X15200Y63138
X16200Y63138
X17450Y63138
X18450Y63138
X19450Y63138
X20450Y63138
X66513Y60816
X67513Y60816
X69513Y60816
X70513Y60816
X72513Y60816
X73513Y60816
X75513Y60816
X76513Y60816
X78513Y60816
X79513Y60816
X81513Y60816
X82513Y60816
X84513Y60816
X85513Y60816
X87513Y60816
X88513Y60816
X84263Y62816
X83263Y62816
X82263Y62816
X81263Y62816
X80013Y62816
X79013Y62816
X78013Y62816
X77013Y62816
X76013Y62816
X75013Y62816
X74013Y62816
X73013Y62816
X71513Y62566
X70513Y62566
X69513Y62566
X68513Y62566
X68513Y65566
X69513Y65566
X70513Y65566
X71513Y65566
X73013Y65816
X74013Y65816
X75013Y65816
X76013Y65816
X77013Y65816
X78013Y65816
X79013Y65816
X80013Y65816
X81263Y65816
X82263Y65816
X83263Y65816
X84263Y65816
T03C0.038700
X2796Y21800
X3796Y21800
X4796Y21800
X5796Y21800
X6796Y21800
X6896Y3500
X5896Y3500
X4896Y3500
X3896Y3500
X2896Y3500
X10292Y21800
X11292Y21800
X12292Y21800
X13292Y21800
X14292Y21800
X14392Y3500
X13392Y3500
X12392Y3500
X11392Y3500
X10392Y3500
X17788Y21800
X18788Y21800
X19788Y21800
X20788Y21800
X21788Y21800
X21888Y3500
X20888Y3500
X19888Y3500
X18888Y3500
X17888Y3500
X25284Y21800
X26284Y21800
X27284Y21800
X28284Y21800
X29284Y21800
X29384Y3500
X28384Y3500
X27384Y3500
X26384Y3500
X25384Y3500
X32780Y21800
X33780Y21800
X34780Y21800
X35780Y21800
X36780Y21800
X36880Y3500
X35880Y3500
X34880Y3500
X33880Y3500
X32880Y3500
X21800Y32021
X21800Y31021
X21800Y30021
X21800Y29021
X21800Y28021
X3500Y27921
X3500Y28921
X3500Y29921
X3500Y30921
X3500Y31921
X46207Y54101
X46207Y51541
X46207Y49101
X46207Y46541
X44427Y46541
X44427Y49101
X44427Y51541
X44427Y54101
X42207Y51601
X42207Y49041
X40427Y49041
X38707Y49041
X38707Y47601
X38707Y45041
X37917Y43721
X37917Y42721
X36917Y42721
X36917Y43721
X36927Y45041
X35917Y43721
X35917Y42721
X36927Y47601
X36927Y49041
X36927Y51601
X36927Y53041
X36927Y55601
X38707Y55601
X38707Y53041
X38707Y51601
X40427Y51601
X35207Y51601
X35207Y49041
X33427Y49041
X33427Y51601
X27317Y42821
X27317Y41821
X27317Y40821
X27317Y39821
X27317Y38821
X27317Y37821
X27317Y36821
X27317Y35821
X27317Y34221
X27317Y33221
X27317Y32221
X27317Y31221
X27317Y30221
X27317Y29221
X27317Y28221
X27317Y27221
X30317Y27321
X31317Y27321
X32317Y27321
X33317Y27321
X34317Y27321
X35317Y27321
X38317Y27321
X39317Y27321
X40317Y27321
X41317Y27321
X42317Y27321
X43317Y27321
X45317Y28821
X46317Y28821
X46317Y31321
X46317Y32321
X46317Y33321
X46317Y34321
X46317Y35321
X46317Y36321
X46317Y37821
X46317Y38821
X46317Y39821
X46317Y40821
X46317Y41821
X46317Y42821
X46573Y57837
X46573Y58821
X46573Y59805
X49631Y21304
X50631Y21304
X51631Y21304
X51631Y22304
X50631Y22304
X49631Y22304
X53631Y22304
X53631Y21304
X54831Y19904
X54831Y18904
X54831Y17904
X54831Y16904
X54831Y15904
X54831Y14904
X56831Y14904
X56831Y15904
X56831Y16904
X56831Y17904
X56831Y18904
X56831Y19904
X57403Y22211
X58403Y22211
X59403Y22211
X60403Y22211
X61403Y22211
X62403Y22211
X63403Y22211
X64403Y22211
X66002Y22195
X67002Y22195
X68002Y22195
X69002Y22195
X70002Y22195
X71002Y22195
X72002Y22195
X73002Y22195
X73086Y14184
X74086Y14184
X74086Y13184
X73086Y13184
X73086Y12184
X74086Y12184
X71041Y11989
X68481Y11989
X68481Y13769
X71041Y13769
X56831Y6204
X56831Y5204
X56831Y4204
X56831Y3204
X54831Y3204
X54831Y4204
X54831Y5204
X54831Y6204
X49701Y6454
X48701Y6454
X47701Y6454
X61031Y3204
X62031Y3204
X63031Y3204
X64031Y3204
X65031Y3204
X66031Y3204
X68043Y3215
X69043Y3215
X70043Y3215
X71043Y3215
X72043Y3215
X73043Y3215
X41531Y15504
X40531Y15504
X42885Y18712
X42098Y18712
X42098Y19696
X42885Y19696
X19121Y53117
X20121Y53117
X21121Y53117
X22121Y53117
X23121Y53117
X23221Y34817
X22221Y34817
X21221Y34817
X20221Y34817
X19221Y34817
X50313Y33740
X50313Y32740
X50313Y31740
X54813Y32740
X55813Y32740
X56813Y32740
X59813Y33740
X60813Y33740
X61813Y33740
X55313Y60240
X55313Y61240
X55313Y62240
X54313Y62240
X54313Y61240
X54313Y60240
X53313Y60240
X53313Y61240
X53313Y62240
X52313Y62240
X52313Y61240
X52313Y60240
X51313Y60240
X51313Y61240
X51313Y62240
X2796Y53117
X3796Y53117
X4796Y53117
X5796Y53117
X6796Y53117
X6896Y34817
X5896Y34817
X4896Y34817
X3896Y34817
X2896Y34817
X10292Y53117
X11292Y53117
X12292Y53117
X13292Y53117
X14292Y53117
X14392Y34817
X13392Y34817
X12392Y34817
X11392Y34817
X10392Y34817
X67749Y33891
X67749Y34891
X67749Y35891
X66749Y35891
X66749Y34891
X66749Y33891
X66749Y37891
X67749Y37891
X69149Y39091
X70149Y39091
X71149Y39091
X72149Y39091
X73149Y39091
X74149Y39091
X74149Y41091
X73149Y41091
X72149Y41091
X71149Y41091
X70149Y41091
X69149Y41091
X66842Y41663
X66842Y42663
X66842Y43663
X66842Y44663
X66842Y45663
X66842Y46663
X66842Y47663
X66842Y48663
X66858Y50262
X66858Y51262
X66858Y52262
X66858Y53262
X66858Y54262
X66858Y55262
X66858Y56262
X66858Y57262
X74869Y57346
X74869Y58346
X75869Y58346
X75869Y57346
X76869Y57346
X76869Y58346
X77064Y55301
X77064Y52741
X75284Y52741
X75284Y55301
X82849Y41091
X83849Y41091
X84849Y41091
X85849Y41091
X85849Y39091
X84849Y39091
X83849Y39091
X82849Y39091
X82599Y33961
X82599Y32961
X82599Y31961
X85849Y45291
X85849Y46291
X85849Y47291
X85849Y48291
X85849Y49291
X85849Y50291
X85838Y52303
X85838Y53303
X85838Y54303
X85838Y55303
X85838Y56303
X85838Y57303
X73549Y25791
X73549Y24791
X70341Y27145
X70341Y26358
X69357Y26358
X69357Y27145
X83856Y2700
X82856Y2700
X81856Y2700
X80856Y2700
X79856Y2700
X78856Y2700
X21800Y63338
X21800Y62338
X21800Y61338
X21800Y60338
X21800Y59338
X3500Y59238
X3500Y60238
X3500Y61238
X3500Y62238
X3500Y63238
X85613Y66016
X85613Y65016
X85613Y64016
X85613Y63016
X85613Y62016
X67313Y61916
X67313Y62916
X67313Y63916
X67313Y64916
X67313Y65916
T04C0.044000
X45700Y6590
X45700Y2590
X57813Y44740
X59313Y44740
X59313Y40740
X57813Y40740
X58313Y27240
X57313Y25740
X54313Y27240
X53313Y25740
X82463Y29960
X86463Y29960
T05C0.063000
X46317Y27321
X45317Y27321
T06C0.078700
X43817Y57089
X43817Y60553
T07C0.090600
X41031Y16834
X41031Y21574
X72219Y25291
X67479Y25291
T08C0.118000
X52314Y27953
X50823Y26341
T09C0.128000
X42951Y3204
X44131Y5174
X41771Y5174
X74131Y16204
X74131Y5204
X50813Y29204
X85849Y27211
X83879Y28391
X83879Y26031
X72849Y58391
X83849Y58391
M30
