G75*
G70*
%OFA0B0*%
%FSLAX25Y25*%
%IPPOS*%
%LPD*%
%AMOC8*
5,1,8,0,0,1.08239X$1,22.5*
%
%ADD39C,0.00000*%
%ADD61C,0.00500*%
X0020000Y0020000D02*
G75*
%LPD*%
D39*
X0244960Y0020000D02*
X0020000Y0020000D01*
X0020000Y0383700D01*
X0244960Y0383700D01*
X0244960Y0020000D01*
X0224960Y0031850D02*
X0224610Y0031870D01*
X0224260Y0031930D01*
X0223920Y0032030D01*
X0223590Y0032160D01*
X0223280Y0032330D01*
X0223000Y0032540D01*
X0222730Y0032770D01*
X0222500Y0033040D01*
X0222290Y0033320D01*
X0222120Y0033630D01*
X0221990Y0033960D01*
X0221890Y0034300D01*
X0221830Y0034650D01*
X0221810Y0035000D01*
X0221830Y0035350D01*
X0221890Y0035700D01*
X0221990Y0036040D01*
X0222120Y0036370D01*
X0222290Y0036680D01*
X0222500Y0036960D01*
X0222730Y0037230D01*
X0223000Y0037460D01*
X0223280Y0037670D01*
X0223590Y0037840D01*
X0223920Y0037970D01*
X0224260Y0038070D01*
X0224610Y0038130D01*
X0224960Y0038150D01*
X0225310Y0038130D01*
X0225660Y0038070D01*
X0226000Y0037970D01*
X0226330Y0037840D01*
X0226640Y0037670D01*
X0226920Y0037460D01*
X0227190Y0037230D01*
X0227420Y0036960D01*
X0227630Y0036680D01*
X0227800Y0036370D01*
X0227930Y0036040D01*
X0228030Y0035700D01*
X0228090Y0035350D01*
X0228110Y0035000D01*
X0228090Y0034650D01*
X0228030Y0034300D01*
X0227930Y0033960D01*
X0227800Y0033630D01*
X0227630Y0033320D01*
X0227420Y0033040D01*
X0227190Y0032770D01*
X0226920Y0032540D01*
X0226640Y0032330D01*
X0226330Y0032160D01*
X0226000Y0032030D01*
X0225660Y0031930D01*
X0225310Y0031870D01*
X0224960Y0031850D01*
X0214960Y0031850D02*
X0214610Y0031870D01*
X0214260Y0031930D01*
X0213920Y0032030D01*
X0213590Y0032160D01*
X0213280Y0032330D01*
X0213000Y0032540D01*
X0212730Y0032770D01*
X0212500Y0033040D01*
X0212290Y0033320D01*
X0212120Y0033630D01*
X0211990Y0033960D01*
X0211890Y0034300D01*
X0211830Y0034650D01*
X0211810Y0035000D01*
X0211830Y0035350D01*
X0211890Y0035700D01*
X0211990Y0036040D01*
X0212120Y0036370D01*
X0212290Y0036680D01*
X0212500Y0036960D01*
X0212730Y0037230D01*
X0213000Y0037460D01*
X0213280Y0037670D01*
X0213590Y0037840D01*
X0213920Y0037970D01*
X0214260Y0038070D01*
X0214610Y0038130D01*
X0214960Y0038150D01*
X0215310Y0038130D01*
X0215660Y0038070D01*
X0216000Y0037970D01*
X0216330Y0037840D01*
X0216640Y0037670D01*
X0216920Y0037460D01*
X0217190Y0037230D01*
X0217420Y0036960D01*
X0217630Y0036680D01*
X0217800Y0036370D01*
X0217930Y0036040D01*
X0218030Y0035700D01*
X0218090Y0035350D01*
X0218110Y0035000D01*
X0218090Y0034650D01*
X0218030Y0034300D01*
X0217930Y0033960D01*
X0217800Y0033630D01*
X0217630Y0033320D01*
X0217420Y0033040D01*
X0217190Y0032770D01*
X0216920Y0032540D01*
X0216640Y0032330D01*
X0216330Y0032160D01*
X0216000Y0032030D01*
X0215660Y0031930D01*
X0215310Y0031870D01*
X0214960Y0031850D01*
X0249960Y0020000D02*
G75*
%LPD*%
D39*
X0249960Y0020000D02*
X0249960Y0184960D01*
X0643660Y0184960D01*
X0643660Y0020000D01*
X0249960Y0020000D01*
X0249960Y0189960D02*
G75*
%LPD*%
D39*
X0249960Y0189960D02*
X0249960Y0354920D01*
X0643660Y0354920D01*
X0643660Y0189960D01*
X0249960Y0189960D01*
X0020000Y0388700D02*
G75*
%LPD*%
D39*
X0020000Y0389700D02*
X0020000Y0458660D01*
X0253210Y0458660D01*
X0253210Y0388700D01*
X0020000Y0389700D01*
X0648660Y0020000D02*
G75*
%LPD*%
D39*
X0763620Y0020000D02*
X0648660Y0020000D01*
X0648660Y0153700D01*
X0763620Y0153700D01*
X0763620Y0020000D01*
D61*
X0671510Y0022190D02*
X0671510Y0038920D01*
X0657730Y0038920D01*
X0657730Y0022190D01*
X0671510Y0022190D01*
X0667540Y0114110D02*
X0650810Y0114110D01*
X0650810Y0127890D01*
X0667540Y0127890D01*
X0667540Y0114110D01*
X0667540Y0137110D02*
X0650810Y0137110D01*
X0650810Y0150890D01*
X0667540Y0150890D01*
X0667540Y0137110D01*
X0648660Y0158700D02*
G75*
%LPD*%
D39*
X0763620Y0158700D02*
X0648660Y0158700D01*
X0648660Y0292400D01*
X0763620Y0292400D01*
X0763620Y0158700D01*
D61*
X0671510Y0160890D02*
X0671510Y0177620D01*
X0657730Y0177620D01*
X0657730Y0160890D01*
X0671510Y0160890D01*
X0667540Y0252810D02*
X0650810Y0252810D01*
X0650810Y0266590D01*
X0667540Y0266590D01*
X0667540Y0252810D01*
X0667540Y0275810D02*
X0650810Y0275810D01*
X0650810Y0289590D01*
X0667540Y0289590D01*
X0667540Y0275810D01*
X0768620Y0020000D02*
G75*
%LPD*%
D39*
X0980820Y0020000D02*
X0980980Y0355510D01*
X0981020Y0365610D01*
X0980820Y0365570D01*
X0968980Y0365510D01*
X0958920Y0375660D01*
X0829420Y0375760D01*
X0819420Y0365510D01*
X0773920Y0365510D01*
X0768780Y0358710D01*
X0768620Y0020000D01*
X0980820Y0020000D01*
X0832680Y0030980D02*
X0832260Y0031000D01*
X0831840Y0031060D01*
X0831420Y0031160D01*
X0831020Y0031290D01*
X0830630Y0031470D01*
X0830260Y0031680D01*
X0829920Y0031920D01*
X0829590Y0032200D01*
X0829290Y0032500D01*
X0829030Y0032830D01*
X0828790Y0033180D01*
X0828590Y0033560D01*
X0828430Y0033950D01*
X0828300Y0034350D01*
X0828210Y0034770D01*
X0828160Y0035190D01*
X0828150Y0035620D01*
X0828180Y0036040D01*
X0828250Y0036460D01*
X0828360Y0036870D01*
X0828510Y0037270D01*
X0828690Y0037650D01*
X0828910Y0038020D01*
X0829160Y0038360D01*
X0829440Y0038680D01*
X0829750Y0038960D01*
X0830090Y0039220D01*
X0830450Y0039450D01*
X0830820Y0039640D01*
X0831220Y0039800D01*
X0831630Y0039920D01*
X0832040Y0040000D01*
X0832470Y0040040D01*
X0832890Y0040040D01*
X0833320Y0040000D01*
X0833730Y0039920D01*
X0834140Y0039800D01*
X0834540Y0039640D01*
X0834910Y0039450D01*
X0835270Y0039220D01*
X0835610Y0038960D01*
X0835920Y0038680D01*
X0836200Y0038360D01*
X0836450Y0038020D01*
X0836670Y0037650D01*
X0836850Y0037270D01*
X0837000Y0036870D01*
X0837110Y0036460D01*
X0837180Y0036040D01*
X0837210Y0035620D01*
X0837200Y0035190D01*
X0837150Y0034770D01*
X0837060Y0034350D01*
X0836930Y0033950D01*
X0836770Y0033560D01*
X0836570Y0033180D01*
X0836330Y0032830D01*
X0836070Y0032500D01*
X0835770Y0032200D01*
X0835440Y0031920D01*
X0835100Y0031680D01*
X0834730Y0031470D01*
X0834340Y0031290D01*
X0833940Y0031160D01*
X0833520Y0031060D01*
X0833100Y0031000D01*
X0832680Y0030980D01*
X0785280Y0030980D02*
X0784860Y0031000D01*
X0784440Y0031060D01*
X0784020Y0031160D01*
X0783620Y0031290D01*
X0783230Y0031470D01*
X0782860Y0031680D01*
X0782520Y0031920D01*
X0782190Y0032200D01*
X0781890Y0032500D01*
X0781630Y0032830D01*
X0781390Y0033180D01*
X0781190Y0033560D01*
X0781030Y0033950D01*
X0780900Y0034350D01*
X0780810Y0034770D01*
X0780760Y0035190D01*
X0780750Y0035620D01*
X0780780Y0036040D01*
X0780850Y0036460D01*
X0780960Y0036870D01*
X0781110Y0037270D01*
X0781290Y0037650D01*
X0781510Y0038020D01*
X0781760Y0038360D01*
X0782040Y0038680D01*
X0782350Y0038960D01*
X0782690Y0039220D01*
X0783050Y0039450D01*
X0783420Y0039640D01*
X0783820Y0039800D01*
X0784230Y0039920D01*
X0784640Y0040000D01*
X0785070Y0040040D01*
X0785490Y0040040D01*
X0785920Y0040000D01*
X0786330Y0039920D01*
X0786740Y0039800D01*
X0787140Y0039640D01*
X0787510Y0039450D01*
X0787870Y0039220D01*
X0788210Y0038960D01*
X0788520Y0038680D01*
X0788800Y0038360D01*
X0789050Y0038020D01*
X0789270Y0037650D01*
X0789450Y0037270D01*
X0789600Y0036870D01*
X0789710Y0036460D01*
X0789780Y0036040D01*
X0789810Y0035620D01*
X0789800Y0035190D01*
X0789750Y0034770D01*
X0789660Y0034350D01*
X0789530Y0033950D01*
X0789370Y0033560D01*
X0789170Y0033180D01*
X0788930Y0032830D01*
X0788670Y0032500D01*
X0788370Y0032200D01*
X0788040Y0031920D01*
X0787700Y0031680D01*
X0787330Y0031470D01*
X0786940Y0031290D01*
X0786540Y0031160D01*
X0786120Y0031060D01*
X0785700Y0031000D01*
X0785280Y0030980D01*
X0838980Y0360210D02*
X0838480Y0360230D01*
X0837980Y0360290D01*
X0837490Y0360390D01*
X0837010Y0360530D01*
X0836540Y0360700D01*
X0836090Y0360910D01*
X0835650Y0361160D01*
X0835240Y0361440D01*
X0834850Y0361760D01*
X0834480Y0362100D01*
X0834140Y0362470D01*
X0833840Y0362870D01*
X0833570Y0363290D01*
X0833330Y0363730D01*
X0833120Y0364190D01*
X0832960Y0364660D01*
X0832830Y0365140D01*
X0832740Y0365640D01*
X0832690Y0366130D01*
X0832680Y0366640D01*
X0832710Y0367140D01*
X0832780Y0367630D01*
X0832890Y0368120D01*
X0833040Y0368600D01*
X0833220Y0369060D01*
X0833440Y0369510D01*
X0833700Y0369940D01*
X0833990Y0370350D01*
X0834310Y0370740D01*
X0834660Y0371100D01*
X0835040Y0371420D01*
X0835440Y0371720D01*
X0835870Y0371990D01*
X0836310Y0372220D01*
X0836770Y0372410D01*
X0837250Y0372570D01*
X0837740Y0372690D01*
X0838230Y0372770D01*
X0838730Y0372810D01*
X0839230Y0372810D01*
X0839730Y0372770D01*
X0840220Y0372690D01*
X0840710Y0372570D01*
X0841190Y0372410D01*
X0841650Y0372220D01*
X0842090Y0371990D01*
X0842520Y0371720D01*
X0842920Y0371420D01*
X0843300Y0371100D01*
X0843650Y0370740D01*
X0843970Y0370350D01*
X0844260Y0369940D01*
X0844520Y0369510D01*
X0844740Y0369060D01*
X0844920Y0368600D01*
X0845070Y0368120D01*
X0845180Y0367630D01*
X0845250Y0367140D01*
X0845280Y0366640D01*
X0845270Y0366130D01*
X0845220Y0365640D01*
X0845130Y0365140D01*
X0845000Y0364660D01*
X0844840Y0364190D01*
X0844630Y0363730D01*
X0844390Y0363290D01*
X0844120Y0362870D01*
X0843820Y0362470D01*
X0843480Y0362100D01*
X0843110Y0361760D01*
X0842720Y0361440D01*
X0842310Y0361160D01*
X0841870Y0360910D01*
X0841420Y0360700D01*
X0840950Y0360530D01*
X0840470Y0360390D01*
X0839980Y0360290D01*
X0839480Y0360230D01*
X0838980Y0360210D01*
X0948980Y0360210D02*
X0948480Y0360230D01*
X0947980Y0360290D01*
X0947490Y0360390D01*
X0947010Y0360530D01*
X0946540Y0360700D01*
X0946090Y0360910D01*
X0945650Y0361160D01*
X0945240Y0361440D01*
X0944850Y0361760D01*
X0944480Y0362100D01*
X0944140Y0362470D01*
X0943840Y0362870D01*
X0943570Y0363290D01*
X0943330Y0363730D01*
X0943120Y0364190D01*
X0942960Y0364660D01*
X0942830Y0365140D01*
X0942740Y0365640D01*
X0942690Y0366130D01*
X0942680Y0366640D01*
X0942710Y0367140D01*
X0942780Y0367630D01*
X0942890Y0368120D01*
X0943040Y0368600D01*
X0943220Y0369060D01*
X0943440Y0369510D01*
X0943700Y0369940D01*
X0943990Y0370350D01*
X0944310Y0370740D01*
X0944660Y0371100D01*
X0945040Y0371420D01*
X0945440Y0371720D01*
X0945870Y0371990D01*
X0946310Y0372220D01*
X0946770Y0372410D01*
X0947250Y0372570D01*
X0947740Y0372690D01*
X0948230Y0372770D01*
X0948730Y0372810D01*
X0949230Y0372810D01*
X0949730Y0372770D01*
X0950220Y0372690D01*
X0950710Y0372570D01*
X0951190Y0372410D01*
X0951650Y0372220D01*
X0952090Y0371990D01*
X0952520Y0371720D01*
X0952920Y0371420D01*
X0953300Y0371100D01*
X0953650Y0370740D01*
X0953970Y0370350D01*
X0954260Y0369940D01*
X0954520Y0369510D01*
X0954740Y0369060D01*
X0954920Y0368600D01*
X0955070Y0368120D01*
X0955180Y0367630D01*
X0955250Y0367140D01*
X0955280Y0366640D01*
X0955270Y0366130D01*
X0955220Y0365640D01*
X0955130Y0365140D01*
X0955000Y0364660D01*
X0954840Y0364190D01*
X0954630Y0363730D01*
X0954390Y0363290D01*
X0954120Y0362870D01*
X0953820Y0362470D01*
X0953480Y0362100D01*
X0953110Y0361760D01*
X0952720Y0361440D01*
X0952310Y0361160D01*
X0951870Y0360910D01*
X0951420Y0360700D01*
X0950950Y0360530D01*
X0950470Y0360390D01*
X0949980Y0360290D01*
X0949480Y0360230D01*
X0948980Y0360210D01*
X0020000Y0463660D02*
G75*
%LPD*%
D39*
X0020000Y0464660D02*
X0020000Y0533620D01*
X0253210Y0533620D01*
X0253210Y0463660D01*
X0020000Y0464660D01*
X0258210Y0359920D02*
G75*
%LPD*%
D39*
X0258210Y0359920D02*
X0258210Y0584880D01*
X0621910Y0584880D01*
X0621910Y0359920D01*
X0258210Y0359920D01*
X0270060Y0379920D02*
X0270080Y0380270D01*
X0270140Y0380620D01*
X0270240Y0380960D01*
X0270370Y0381290D01*
X0270540Y0381600D01*
X0270750Y0381880D01*
X0270980Y0382150D01*
X0271250Y0382380D01*
X0271530Y0382590D01*
X0271840Y0382760D01*
X0272170Y0382890D01*
X0272510Y0382990D01*
X0272860Y0383050D01*
X0273210Y0383070D01*
X0273560Y0383050D01*
X0273910Y0382990D01*
X0274250Y0382890D01*
X0274580Y0382760D01*
X0274890Y0382590D01*
X0275170Y0382380D01*
X0275440Y0382150D01*
X0275670Y0381880D01*
X0275880Y0381600D01*
X0276050Y0381290D01*
X0276180Y0380960D01*
X0276280Y0380620D01*
X0276340Y0380270D01*
X0276360Y0379920D01*
X0276340Y0379570D01*
X0276280Y0379220D01*
X0276180Y0378880D01*
X0276050Y0378550D01*
X0275880Y0378240D01*
X0275670Y0377960D01*
X0275440Y0377690D01*
X0275170Y0377460D01*
X0274890Y0377250D01*
X0274580Y0377080D01*
X0274250Y0376950D01*
X0273910Y0376850D01*
X0273560Y0376790D01*
X0273210Y0376770D01*
X0272860Y0376790D01*
X0272510Y0376850D01*
X0272170Y0376950D01*
X0271840Y0377080D01*
X0271530Y0377250D01*
X0271250Y0377460D01*
X0270980Y0377690D01*
X0270750Y0377960D01*
X0270540Y0378240D01*
X0270370Y0378550D01*
X0270240Y0378880D01*
X0270140Y0379220D01*
X0270080Y0379570D01*
X0270060Y0379920D01*
X0270060Y0389920D02*
X0270080Y0390270D01*
X0270140Y0390620D01*
X0270240Y0390960D01*
X0270370Y0391290D01*
X0270540Y0391600D01*
X0270750Y0391880D01*
X0270980Y0392150D01*
X0271250Y0392380D01*
X0271530Y0392590D01*
X0271840Y0392760D01*
X0272170Y0392890D01*
X0272510Y0392990D01*
X0272860Y0393050D01*
X0273210Y0393070D01*
X0273560Y0393050D01*
X0273910Y0392990D01*
X0274250Y0392890D01*
X0274580Y0392760D01*
X0274890Y0392590D01*
X0275170Y0392380D01*
X0275440Y0392150D01*
X0275670Y0391880D01*
X0275880Y0391600D01*
X0276050Y0391290D01*
X0276180Y0390960D01*
X0276280Y0390620D01*
X0276340Y0390270D01*
X0276360Y0389920D01*
X0276340Y0389570D01*
X0276280Y0389220D01*
X0276180Y0388880D01*
X0276050Y0388550D01*
X0275880Y0388240D01*
X0275670Y0387960D01*
X0275440Y0387690D01*
X0275170Y0387460D01*
X0274890Y0387250D01*
X0274580Y0387080D01*
X0274250Y0386950D01*
X0273910Y0386850D01*
X0273560Y0386790D01*
X0273210Y0386770D01*
X0272860Y0386790D01*
X0272510Y0386850D01*
X0272170Y0386950D01*
X0271840Y0387080D01*
X0271530Y0387250D01*
X0271250Y0387460D01*
X0270980Y0387690D01*
X0270750Y0387960D01*
X0270540Y0388240D01*
X0270370Y0388550D01*
X0270240Y0388880D01*
X0270140Y0389220D01*
X0270080Y0389570D01*
X0270060Y0389920D01*
X0626910Y0380760D02*
G75*
%LPD*%
D39*
X0626910Y0380960D02*
X0962420Y0380800D01*
X0972520Y0380760D01*
X0972480Y0380960D01*
X0972420Y0392800D01*
X0982570Y0402860D01*
X0982670Y0532360D01*
X0972420Y0542360D01*
X0972420Y0587860D01*
X0965620Y0593000D01*
X0626910Y0593160D01*
X0626910Y0380960D01*
X0637890Y0529100D02*
X0637910Y0529520D01*
X0637970Y0529940D01*
X0638070Y0530360D01*
X0638200Y0530760D01*
X0638380Y0531150D01*
X0638590Y0531520D01*
X0638830Y0531860D01*
X0639110Y0532190D01*
X0639410Y0532490D01*
X0639740Y0532750D01*
X0640090Y0532990D01*
X0640470Y0533190D01*
X0640860Y0533350D01*
X0641260Y0533480D01*
X0641680Y0533570D01*
X0642100Y0533620D01*
X0642530Y0533630D01*
X0642950Y0533600D01*
X0643370Y0533530D01*
X0643780Y0533420D01*
X0644180Y0533270D01*
X0644560Y0533090D01*
X0644930Y0532870D01*
X0645270Y0532620D01*
X0645590Y0532340D01*
X0645870Y0532030D01*
X0646130Y0531690D01*
X0646360Y0531330D01*
X0646550Y0530960D01*
X0646710Y0530560D01*
X0646830Y0530150D01*
X0646910Y0529740D01*
X0646950Y0529310D01*
X0646950Y0528890D01*
X0646910Y0528460D01*
X0646830Y0528050D01*
X0646710Y0527640D01*
X0646550Y0527240D01*
X0646360Y0526870D01*
X0646130Y0526510D01*
X0645870Y0526170D01*
X0645590Y0525860D01*
X0645270Y0525580D01*
X0644930Y0525330D01*
X0644560Y0525110D01*
X0644180Y0524930D01*
X0643780Y0524780D01*
X0643370Y0524670D01*
X0642950Y0524600D01*
X0642530Y0524570D01*
X0642100Y0524580D01*
X0641680Y0524630D01*
X0641260Y0524720D01*
X0640860Y0524850D01*
X0640470Y0525010D01*
X0640090Y0525210D01*
X0639740Y0525450D01*
X0639410Y0525710D01*
X0639110Y0526010D01*
X0638830Y0526340D01*
X0638590Y0526680D01*
X0638380Y0527050D01*
X0638200Y0527440D01*
X0638070Y0527840D01*
X0637970Y0528260D01*
X0637910Y0528680D01*
X0637890Y0529100D01*
X0637890Y0576500D02*
X0637910Y0576920D01*
X0637970Y0577340D01*
X0638070Y0577760D01*
X0638200Y0578160D01*
X0638380Y0578550D01*
X0638590Y0578920D01*
X0638830Y0579260D01*
X0639110Y0579590D01*
X0639410Y0579890D01*
X0639740Y0580150D01*
X0640090Y0580390D01*
X0640470Y0580590D01*
X0640860Y0580750D01*
X0641260Y0580880D01*
X0641680Y0580970D01*
X0642100Y0581020D01*
X0642530Y0581030D01*
X0642950Y0581000D01*
X0643370Y0580930D01*
X0643780Y0580820D01*
X0644180Y0580670D01*
X0644560Y0580490D01*
X0644930Y0580270D01*
X0645270Y0580020D01*
X0645590Y0579740D01*
X0645870Y0579430D01*
X0646130Y0579090D01*
X0646360Y0578730D01*
X0646550Y0578360D01*
X0646710Y0577960D01*
X0646830Y0577550D01*
X0646910Y0577140D01*
X0646950Y0576710D01*
X0646950Y0576290D01*
X0646910Y0575860D01*
X0646830Y0575450D01*
X0646710Y0575040D01*
X0646550Y0574640D01*
X0646360Y0574270D01*
X0646130Y0573910D01*
X0645870Y0573570D01*
X0645590Y0573260D01*
X0645270Y0572980D01*
X0644930Y0572730D01*
X0644560Y0572510D01*
X0644180Y0572330D01*
X0643780Y0572180D01*
X0643370Y0572070D01*
X0642950Y0572000D01*
X0642530Y0571970D01*
X0642100Y0571980D01*
X0641680Y0572030D01*
X0641260Y0572120D01*
X0640860Y0572250D01*
X0640470Y0572410D01*
X0640090Y0572610D01*
X0639740Y0572850D01*
X0639410Y0573110D01*
X0639110Y0573410D01*
X0638830Y0573740D01*
X0638590Y0574080D01*
X0638380Y0574450D01*
X0638200Y0574840D01*
X0638070Y0575240D01*
X0637970Y0575660D01*
X0637910Y0576080D01*
X0637890Y0576500D01*
X0967120Y0522800D02*
X0967140Y0523300D01*
X0967200Y0523800D01*
X0967300Y0524290D01*
X0967440Y0524770D01*
X0967610Y0525240D01*
X0967820Y0525690D01*
X0968070Y0526130D01*
X0968350Y0526540D01*
X0968670Y0526930D01*
X0969010Y0527300D01*
X0969380Y0527640D01*
X0969780Y0527940D01*
X0970200Y0528210D01*
X0970640Y0528450D01*
X0971100Y0528660D01*
X0971570Y0528820D01*
X0972050Y0528950D01*
X0972550Y0529040D01*
X0973040Y0529090D01*
X0973550Y0529100D01*
X0974050Y0529070D01*
X0974540Y0529000D01*
X0975030Y0528890D01*
X0975510Y0528740D01*
X0975970Y0528560D01*
X0976420Y0528340D01*
X0976850Y0528080D01*
X0977260Y0527790D01*
X0977650Y0527470D01*
X0978010Y0527120D01*
X0978330Y0526740D01*
X0978630Y0526340D01*
X0978900Y0525910D01*
X0979130Y0525470D01*
X0979320Y0525010D01*
X0979480Y0524530D01*
X0979600Y0524040D01*
X0979680Y0523550D01*
X0979720Y0523050D01*
X0979720Y0522550D01*
X0979680Y0522050D01*
X0979600Y0521560D01*
X0979480Y0521070D01*
X0979320Y0520590D01*
X0979130Y0520130D01*
X0978900Y0519690D01*
X0978630Y0519260D01*
X0978330Y0518860D01*
X0978010Y0518480D01*
X0977650Y0518130D01*
X0977260Y0517810D01*
X0976850Y0517520D01*
X0976420Y0517260D01*
X0975970Y0517040D01*
X0975510Y0516860D01*
X0975030Y0516710D01*
X0974540Y0516600D01*
X0974050Y0516530D01*
X0973550Y0516500D01*
X0973040Y0516510D01*
X0972550Y0516560D01*
X0972050Y0516650D01*
X0971570Y0516780D01*
X0971100Y0516940D01*
X0970640Y0517150D01*
X0970200Y0517390D01*
X0969780Y0517660D01*
X0969380Y0517960D01*
X0969010Y0518300D01*
X0968670Y0518670D01*
X0968350Y0519060D01*
X0968070Y0519470D01*
X0967820Y0519910D01*
X0967610Y0520360D01*
X0967440Y0520830D01*
X0967300Y0521310D01*
X0967200Y0521800D01*
X0967140Y0522300D01*
X0967120Y0522800D01*
X0967120Y0412800D02*
X0967140Y0413300D01*
X0967200Y0413800D01*
X0967300Y0414290D01*
X0967440Y0414770D01*
X0967610Y0415240D01*
X0967820Y0415690D01*
X0968070Y0416130D01*
X0968350Y0416540D01*
X0968670Y0416930D01*
X0969010Y0417300D01*
X0969380Y0417640D01*
X0969780Y0417940D01*
X0970200Y0418210D01*
X0970640Y0418450D01*
X0971100Y0418660D01*
X0971570Y0418820D01*
X0972050Y0418950D01*
X0972550Y0419040D01*
X0973040Y0419090D01*
X0973550Y0419100D01*
X0974050Y0419070D01*
X0974540Y0419000D01*
X0975030Y0418890D01*
X0975510Y0418740D01*
X0975970Y0418560D01*
X0976420Y0418340D01*
X0976850Y0418080D01*
X0977260Y0417790D01*
X0977650Y0417470D01*
X0978010Y0417120D01*
X0978330Y0416740D01*
X0978630Y0416340D01*
X0978900Y0415910D01*
X0979130Y0415470D01*
X0979320Y0415010D01*
X0979480Y0414530D01*
X0979600Y0414040D01*
X0979680Y0413550D01*
X0979720Y0413050D01*
X0979720Y0412550D01*
X0979680Y0412050D01*
X0979600Y0411560D01*
X0979480Y0411070D01*
X0979320Y0410590D01*
X0979130Y0410130D01*
X0978900Y0409690D01*
X0978630Y0409260D01*
X0978330Y0408860D01*
X0978010Y0408480D01*
X0977650Y0408130D01*
X0977260Y0407810D01*
X0976850Y0407520D01*
X0976420Y0407260D01*
X0975970Y0407040D01*
X0975510Y0406860D01*
X0975030Y0406710D01*
X0974540Y0406600D01*
X0974050Y0406530D01*
X0973550Y0406500D01*
X0973040Y0406510D01*
X0972550Y0406560D01*
X0972050Y0406650D01*
X0971570Y0406780D01*
X0971100Y0406940D01*
X0970640Y0407150D01*
X0970200Y0407390D01*
X0969780Y0407660D01*
X0969380Y0407960D01*
X0969010Y0408300D01*
X0968670Y0408670D01*
X0968350Y0409060D01*
X0968070Y0409470D01*
X0967820Y0409910D01*
X0967610Y0410360D01*
X0967440Y0410830D01*
X0967300Y0411310D01*
X0967200Y0411800D01*
X0967140Y0412300D01*
X0967120Y0412800D01*
M02*
