G75*
G70*
%OFA0B0*%
%FSLAX25Y25*%
%IPPOS*%
%LPD*%
%AMOC8*
5,1,8,0,0,1.08239X$1,22.5*
%
%ADD80C,0.00600*%
X0020000Y0020000D02*
G75*
%LPD*%
X0094960Y0020000D02*
G75*
%LPD*%
X0169920Y0020000D02*
G75*
%LPD*%
X0244880Y0020000D02*
G75*
%LPD*%
X0319840Y0020000D02*
G75*
%LPD*%
X0020000Y0258210D02*
G75*
%LPD*%
X0258210Y0258210D02*
G75*
%LPD*%
X0394800Y0020000D02*
G75*
%LPD*%
D80*
X0553710Y0096340D02*
X0553710Y0097410D01*
X0553710Y0099540D02*
X0553710Y0103810D01*
X0555860Y0103810D02*
X0555860Y0099540D01*
X0555860Y0097410D02*
X0555860Y0096340D01*
X0558010Y0096340D02*
X0558010Y0097410D01*
X0558010Y0099540D02*
X0558010Y0103810D01*
X0183250Y0333170D02*
G75*
%LPD*%
X0488170Y0237400D02*
G75*
%LPD*%
X0020000Y0333170D02*
G75*
%LPD*%
X0094960Y0333170D02*
G75*
%LPD*%
X0658130Y0237400D02*
G75*
%LPD*%
D80*
X0794190Y0396310D02*
X0793120Y0396310D01*
X0790990Y0396310D02*
X0786720Y0396310D01*
X0786720Y0398460D02*
X0790990Y0398460D01*
X0793120Y0398460D02*
X0794190Y0398460D01*
X0794190Y0400610D02*
X0793120Y0400610D01*
X0790990Y0400610D02*
X0786720Y0400610D01*
X0755560Y0020000D02*
G75*
%LPD*%
X0020000Y0571380D02*
G75*
%LPD*%
X0658130Y0598160D02*
G75*
%LPD*%
M02*
