G75*
G70*
%OFA0B0*%
%FSLAX25Y25*%
%IPPOS*%
%LPD*%
%AMOC8*
5,1,8,0,0,1.08239X$1,22.5*
%
%ADD100C,0.04800*%
%ADD13OC8,0.06000*%
%ADD22C,0.07300*%
%ADD24R,0.07300X0.07300*%
%ADD28OC8,0.06800*%
%ADD38R,0.06740X0.06740*%
%ADD43C,0.16600*%
%ADD49C,0.05200*%
%ADD50OC8,0.19800*%
%ADD55C,0.06800*%
%ADD57C,0.17400*%
%ADD71C,0.07100*%
%ADD72OC8,0.12610*%
%ADD78OC8,0.06540*%
%ADD81C,0.06000*%
%ADD88R,0.06800X0.06800*%
%ADD89C,0.09860*%
%ADD90C,0.08200*%
%ADD91C,0.05550*%
%ADD92OC8,0.07100*%
%ADD93C,0.07400*%
%ADD96C,0.04760*%
%ADD98C,0.13400*%
X0020000Y0020000D02*
G75*
%LPD*%
D81*
X0062560Y0092000D02*
X0057360Y0092000D01*
X0057360Y0102000D02*
X0062560Y0102000D01*
X0062560Y0112000D02*
X0057360Y0112000D01*
X0057360Y0122000D02*
X0062560Y0122000D01*
X0062560Y0132000D02*
X0057360Y0132000D01*
X0057360Y0142000D02*
X0062560Y0142000D01*
X0062560Y0152000D02*
X0057360Y0152000D01*
X0057360Y0162000D02*
X0062560Y0162000D01*
X0032560Y0162000D02*
X0027360Y0162000D01*
X0027360Y0152000D02*
X0032560Y0152000D01*
X0032560Y0142000D02*
X0027360Y0142000D01*
X0027360Y0132000D02*
X0032560Y0132000D01*
X0032560Y0122000D02*
X0027360Y0122000D01*
X0027360Y0112000D02*
X0032560Y0112000D01*
X0032560Y0102000D02*
X0027360Y0102000D01*
X0027360Y0092000D02*
X0032560Y0092000D01*
D13*
X0079960Y0027000D03*
X0079960Y0037000D03*
X0079960Y0057000D03*
X0079960Y0067000D03*
X0079960Y0087000D03*
X0079960Y0097000D03*
X0079960Y0117000D03*
X0079960Y0127000D03*
X0079960Y0147000D03*
X0079960Y0157000D03*
X0079960Y0177000D03*
X0079960Y0187000D03*
X0079960Y0207000D03*
X0079960Y0217000D03*
X0079960Y0237000D03*
X0079960Y0247000D03*
X0059960Y0204500D03*
X0059960Y0194500D03*
X0059960Y0184500D03*
X0059960Y0174500D03*
X0029960Y0174500D03*
X0029960Y0184500D03*
X0029960Y0194500D03*
X0029960Y0204500D03*
X0032460Y0077000D03*
X0032460Y0067000D03*
X0032460Y0057000D03*
X0032460Y0047000D03*
X0062460Y0047000D03*
X0062460Y0057000D03*
X0062460Y0067000D03*
X0062460Y0077000D03*
D55*
X0058960Y0038000D02*
X0058960Y0032000D01*
X0048960Y0032000D02*
X0048960Y0038000D01*
X0038960Y0038000D02*
X0038960Y0032000D01*
X0028960Y0032000D02*
X0028960Y0038000D01*
X0068960Y0038000D02*
X0068960Y0032000D01*
X0067960Y0215000D02*
X0067960Y0221000D01*
X0057960Y0221000D02*
X0057960Y0215000D01*
X0047960Y0215000D02*
X0047960Y0221000D01*
X0037960Y0221000D02*
X0037960Y0215000D01*
X0027960Y0215000D02*
X0027960Y0221000D01*
X0094960Y0020000D02*
G75*
%LPD*%
D81*
X0137520Y0092000D02*
X0132320Y0092000D01*
X0132320Y0102000D02*
X0137520Y0102000D01*
X0137520Y0112000D02*
X0132320Y0112000D01*
X0132320Y0122000D02*
X0137520Y0122000D01*
X0137520Y0132000D02*
X0132320Y0132000D01*
X0132320Y0142000D02*
X0137520Y0142000D01*
X0137520Y0152000D02*
X0132320Y0152000D01*
X0132320Y0162000D02*
X0137520Y0162000D01*
X0107520Y0162000D02*
X0102320Y0162000D01*
X0102320Y0152000D02*
X0107520Y0152000D01*
X0107520Y0142000D02*
X0102320Y0142000D01*
X0102320Y0132000D02*
X0107520Y0132000D01*
X0107520Y0122000D02*
X0102320Y0122000D01*
X0102320Y0112000D02*
X0107520Y0112000D01*
X0107520Y0102000D02*
X0102320Y0102000D01*
X0102320Y0092000D02*
X0107520Y0092000D01*
D13*
X0154920Y0027000D03*
X0154920Y0037000D03*
X0154920Y0057000D03*
X0154920Y0067000D03*
X0154920Y0087000D03*
X0154920Y0097000D03*
X0154920Y0117000D03*
X0154920Y0127000D03*
X0154920Y0147000D03*
X0154920Y0157000D03*
X0154920Y0177000D03*
X0154920Y0187000D03*
X0154920Y0207000D03*
X0154920Y0217000D03*
X0154920Y0237000D03*
X0154920Y0247000D03*
X0134920Y0204500D03*
X0134920Y0194500D03*
X0134920Y0184500D03*
X0134920Y0174500D03*
X0104920Y0174500D03*
X0104920Y0184500D03*
X0104920Y0194500D03*
X0104920Y0204500D03*
X0107420Y0077000D03*
X0107420Y0067000D03*
X0107420Y0057000D03*
X0107420Y0047000D03*
X0137420Y0047000D03*
X0137420Y0057000D03*
X0137420Y0067000D03*
X0137420Y0077000D03*
D55*
X0133920Y0038000D02*
X0133920Y0032000D01*
X0123920Y0032000D02*
X0123920Y0038000D01*
X0113920Y0038000D02*
X0113920Y0032000D01*
X0103920Y0032000D02*
X0103920Y0038000D01*
X0143920Y0038000D02*
X0143920Y0032000D01*
X0142920Y0215000D02*
X0142920Y0221000D01*
X0132920Y0221000D02*
X0132920Y0215000D01*
X0122920Y0215000D02*
X0122920Y0221000D01*
X0112920Y0221000D02*
X0112920Y0215000D01*
X0102920Y0215000D02*
X0102920Y0221000D01*
X0169920Y0020000D02*
G75*
%LPD*%
D81*
X0212480Y0092000D02*
X0207280Y0092000D01*
X0207280Y0102000D02*
X0212480Y0102000D01*
X0212480Y0112000D02*
X0207280Y0112000D01*
X0207280Y0122000D02*
X0212480Y0122000D01*
X0212480Y0132000D02*
X0207280Y0132000D01*
X0207280Y0142000D02*
X0212480Y0142000D01*
X0212480Y0152000D02*
X0207280Y0152000D01*
X0207280Y0162000D02*
X0212480Y0162000D01*
X0182480Y0162000D02*
X0177280Y0162000D01*
X0177280Y0152000D02*
X0182480Y0152000D01*
X0182480Y0142000D02*
X0177280Y0142000D01*
X0177280Y0132000D02*
X0182480Y0132000D01*
X0182480Y0122000D02*
X0177280Y0122000D01*
X0177280Y0112000D02*
X0182480Y0112000D01*
X0182480Y0102000D02*
X0177280Y0102000D01*
X0177280Y0092000D02*
X0182480Y0092000D01*
D13*
X0229880Y0027000D03*
X0229880Y0037000D03*
X0229880Y0057000D03*
X0229880Y0067000D03*
X0229880Y0087000D03*
X0229880Y0097000D03*
X0229880Y0117000D03*
X0229880Y0127000D03*
X0229880Y0147000D03*
X0229880Y0157000D03*
X0229880Y0177000D03*
X0229880Y0187000D03*
X0229880Y0207000D03*
X0229880Y0217000D03*
X0229880Y0237000D03*
X0229880Y0247000D03*
X0209880Y0204500D03*
X0209880Y0194500D03*
X0209880Y0184500D03*
X0209880Y0174500D03*
X0179880Y0174500D03*
X0179880Y0184500D03*
X0179880Y0194500D03*
X0179880Y0204500D03*
X0182380Y0077000D03*
X0182380Y0067000D03*
X0182380Y0057000D03*
X0182380Y0047000D03*
X0212380Y0047000D03*
X0212380Y0057000D03*
X0212380Y0067000D03*
X0212380Y0077000D03*
D55*
X0208880Y0038000D02*
X0208880Y0032000D01*
X0198880Y0032000D02*
X0198880Y0038000D01*
X0188880Y0038000D02*
X0188880Y0032000D01*
X0178880Y0032000D02*
X0178880Y0038000D01*
X0218880Y0038000D02*
X0218880Y0032000D01*
X0217880Y0215000D02*
X0217880Y0221000D01*
X0207880Y0221000D02*
X0207880Y0215000D01*
X0197880Y0215000D02*
X0197880Y0221000D01*
X0187880Y0221000D02*
X0187880Y0215000D01*
X0177880Y0215000D02*
X0177880Y0221000D01*
X0244880Y0020000D02*
G75*
%LPD*%
D81*
X0287440Y0092000D02*
X0282240Y0092000D01*
X0282240Y0102000D02*
X0287440Y0102000D01*
X0287440Y0112000D02*
X0282240Y0112000D01*
X0282240Y0122000D02*
X0287440Y0122000D01*
X0287440Y0132000D02*
X0282240Y0132000D01*
X0282240Y0142000D02*
X0287440Y0142000D01*
X0287440Y0152000D02*
X0282240Y0152000D01*
X0282240Y0162000D02*
X0287440Y0162000D01*
X0257440Y0162000D02*
X0252240Y0162000D01*
X0252240Y0152000D02*
X0257440Y0152000D01*
X0257440Y0142000D02*
X0252240Y0142000D01*
X0252240Y0132000D02*
X0257440Y0132000D01*
X0257440Y0122000D02*
X0252240Y0122000D01*
X0252240Y0112000D02*
X0257440Y0112000D01*
X0257440Y0102000D02*
X0252240Y0102000D01*
X0252240Y0092000D02*
X0257440Y0092000D01*
D13*
X0304840Y0027000D03*
X0304840Y0037000D03*
X0304840Y0057000D03*
X0304840Y0067000D03*
X0304840Y0087000D03*
X0304840Y0097000D03*
X0304840Y0117000D03*
X0304840Y0127000D03*
X0304840Y0147000D03*
X0304840Y0157000D03*
X0304840Y0177000D03*
X0304840Y0187000D03*
X0304840Y0207000D03*
X0304840Y0217000D03*
X0304840Y0237000D03*
X0304840Y0247000D03*
X0284840Y0204500D03*
X0284840Y0194500D03*
X0284840Y0184500D03*
X0284840Y0174500D03*
X0254840Y0174500D03*
X0254840Y0184500D03*
X0254840Y0194500D03*
X0254840Y0204500D03*
X0257340Y0077000D03*
X0257340Y0067000D03*
X0257340Y0057000D03*
X0257340Y0047000D03*
X0287340Y0047000D03*
X0287340Y0057000D03*
X0287340Y0067000D03*
X0287340Y0077000D03*
D55*
X0283840Y0038000D02*
X0283840Y0032000D01*
X0273840Y0032000D02*
X0273840Y0038000D01*
X0263840Y0038000D02*
X0263840Y0032000D01*
X0253840Y0032000D02*
X0253840Y0038000D01*
X0293840Y0038000D02*
X0293840Y0032000D01*
X0292840Y0215000D02*
X0292840Y0221000D01*
X0282840Y0221000D02*
X0282840Y0215000D01*
X0272840Y0215000D02*
X0272840Y0221000D01*
X0262840Y0221000D02*
X0262840Y0215000D01*
X0252840Y0215000D02*
X0252840Y0221000D01*
X0319840Y0020000D02*
G75*
%LPD*%
D81*
X0362400Y0092000D02*
X0357200Y0092000D01*
X0357200Y0102000D02*
X0362400Y0102000D01*
X0362400Y0112000D02*
X0357200Y0112000D01*
X0357200Y0122000D02*
X0362400Y0122000D01*
X0362400Y0132000D02*
X0357200Y0132000D01*
X0357200Y0142000D02*
X0362400Y0142000D01*
X0362400Y0152000D02*
X0357200Y0152000D01*
X0357200Y0162000D02*
X0362400Y0162000D01*
X0332400Y0162000D02*
X0327200Y0162000D01*
X0327200Y0152000D02*
X0332400Y0152000D01*
X0332400Y0142000D02*
X0327200Y0142000D01*
X0327200Y0132000D02*
X0332400Y0132000D01*
X0332400Y0122000D02*
X0327200Y0122000D01*
X0327200Y0112000D02*
X0332400Y0112000D01*
X0332400Y0102000D02*
X0327200Y0102000D01*
X0327200Y0092000D02*
X0332400Y0092000D01*
D13*
X0379800Y0027000D03*
X0379800Y0037000D03*
X0379800Y0057000D03*
X0379800Y0067000D03*
X0379800Y0087000D03*
X0379800Y0097000D03*
X0379800Y0117000D03*
X0379800Y0127000D03*
X0379800Y0147000D03*
X0379800Y0157000D03*
X0379800Y0177000D03*
X0379800Y0187000D03*
X0379800Y0207000D03*
X0379800Y0217000D03*
X0379800Y0237000D03*
X0379800Y0247000D03*
X0359800Y0204500D03*
X0359800Y0194500D03*
X0359800Y0184500D03*
X0359800Y0174500D03*
X0329800Y0174500D03*
X0329800Y0184500D03*
X0329800Y0194500D03*
X0329800Y0204500D03*
X0332300Y0077000D03*
X0332300Y0067000D03*
X0332300Y0057000D03*
X0332300Y0047000D03*
X0362300Y0047000D03*
X0362300Y0057000D03*
X0362300Y0067000D03*
X0362300Y0077000D03*
D55*
X0358800Y0038000D02*
X0358800Y0032000D01*
X0348800Y0032000D02*
X0348800Y0038000D01*
X0338800Y0038000D02*
X0338800Y0032000D01*
X0328800Y0032000D02*
X0328800Y0038000D01*
X0368800Y0038000D02*
X0368800Y0032000D01*
X0367800Y0215000D02*
X0367800Y0221000D01*
X0357800Y0221000D02*
X0357800Y0215000D01*
X0347800Y0215000D02*
X0347800Y0221000D01*
X0337800Y0221000D02*
X0337800Y0215000D01*
X0327800Y0215000D02*
X0327800Y0221000D01*
X0020000Y0258210D02*
G75*
%LPD*%
D81*
X0092000Y0285610D02*
X0092000Y0290810D01*
X0102000Y0290810D02*
X0102000Y0285610D01*
X0112000Y0285610D02*
X0112000Y0290810D01*
X0122000Y0290810D02*
X0122000Y0285610D01*
X0132000Y0285610D02*
X0132000Y0290810D01*
X0142000Y0290810D02*
X0142000Y0285610D01*
X0152000Y0285610D02*
X0152000Y0290810D01*
X0162000Y0290810D02*
X0162000Y0285610D01*
X0162000Y0315610D02*
X0162000Y0320810D01*
X0152000Y0320810D02*
X0152000Y0315610D01*
X0142000Y0315610D02*
X0142000Y0320810D01*
X0132000Y0320810D02*
X0132000Y0315610D01*
X0122000Y0315610D02*
X0122000Y0320810D01*
X0112000Y0320810D02*
X0112000Y0315610D01*
X0102000Y0315610D02*
X0102000Y0320810D01*
X0092000Y0320810D02*
X0092000Y0315610D01*
D13*
X0027000Y0268210D03*
X0037000Y0268210D03*
X0057000Y0268210D03*
X0067000Y0268210D03*
X0087000Y0268210D03*
X0097000Y0268210D03*
X0117000Y0268210D03*
X0127000Y0268210D03*
X0147000Y0268210D03*
X0157000Y0268210D03*
X0177000Y0268210D03*
X0187000Y0268210D03*
X0207000Y0268210D03*
X0217000Y0268210D03*
X0237000Y0268210D03*
X0247000Y0268210D03*
X0204500Y0288210D03*
X0194500Y0288210D03*
X0184500Y0288210D03*
X0174500Y0288210D03*
X0174500Y0318210D03*
X0184500Y0318210D03*
X0194500Y0318210D03*
X0204500Y0318210D03*
X0077000Y0315710D03*
X0067000Y0315710D03*
X0057000Y0315710D03*
X0047000Y0315710D03*
X0047000Y0285710D03*
X0057000Y0285710D03*
X0067000Y0285710D03*
X0077000Y0285710D03*
D55*
X0038000Y0289210D02*
X0032000Y0289210D01*
X0032000Y0299210D02*
X0038000Y0299210D01*
X0038000Y0309210D02*
X0032000Y0309210D01*
X0032000Y0319210D02*
X0038000Y0319210D01*
X0038000Y0279210D02*
X0032000Y0279210D01*
X0215000Y0280210D02*
X0221000Y0280210D01*
X0221000Y0290210D02*
X0215000Y0290210D01*
X0215000Y0300210D02*
X0221000Y0300210D01*
X0221000Y0310210D02*
X0215000Y0310210D01*
X0215000Y0320210D02*
X0221000Y0320210D01*
X0258210Y0258210D02*
G75*
%LPD*%
D71*
X0463170Y0273210D03*
X0453170Y0273210D03*
D55*
X0433170Y0273210D03*
X0423170Y0273210D03*
X0413170Y0273210D03*
X0403170Y0273210D03*
X0393170Y0273210D03*
X0383170Y0273210D03*
X0387070Y0450410D03*
X0387070Y0476010D03*
X0387070Y0490410D03*
X0404270Y0490410D03*
X0404270Y0516010D03*
X0387070Y0516010D03*
X0387070Y0530410D03*
X0387070Y0556010D03*
X0369270Y0556010D03*
X0369270Y0530410D03*
X0369270Y0516010D03*
X0369270Y0490410D03*
X0369270Y0476010D03*
X0369270Y0450410D03*
X0352070Y0490410D03*
X0352070Y0516010D03*
X0334270Y0516010D03*
X0334270Y0490410D03*
X0422070Y0490410D03*
X0422070Y0516010D03*
X0444270Y0515410D03*
X0444270Y0491010D03*
X0444270Y0465410D03*
X0462070Y0465410D03*
X0462070Y0491010D03*
X0462070Y0515410D03*
X0462070Y0541010D03*
X0444270Y0541010D03*
D28*
X0379170Y0437210D03*
X0379170Y0427210D03*
X0369170Y0427210D03*
X0369170Y0437210D03*
X0359170Y0437210D03*
X0359170Y0427210D03*
D81*
X0405570Y0428210D02*
X0410770Y0428210D01*
X0410770Y0418210D02*
X0405570Y0418210D01*
X0405570Y0408210D02*
X0410770Y0408210D01*
X0410770Y0398210D02*
X0405570Y0398210D01*
X0405570Y0388210D02*
X0410770Y0388210D01*
X0410770Y0378210D02*
X0405570Y0378210D01*
X0405570Y0368210D02*
X0410770Y0368210D01*
X0410770Y0358210D02*
X0405570Y0358210D01*
X0405570Y0348210D02*
X0410770Y0348210D01*
X0410770Y0338210D02*
X0405570Y0338210D01*
X0405570Y0328210D02*
X0410770Y0328210D01*
X0410770Y0318210D02*
X0405570Y0318210D01*
X0405570Y0308210D02*
X0410770Y0308210D01*
X0410770Y0298210D02*
X0405570Y0298210D01*
X0435570Y0298210D02*
X0440770Y0298210D01*
X0440770Y0308210D02*
X0435570Y0308210D01*
X0435570Y0318210D02*
X0440770Y0318210D01*
X0440770Y0328210D02*
X0435570Y0328210D01*
X0435570Y0338210D02*
X0440770Y0338210D01*
X0440770Y0348210D02*
X0435570Y0348210D01*
X0435570Y0358210D02*
X0440770Y0358210D01*
X0440770Y0368210D02*
X0435570Y0368210D01*
X0435570Y0378210D02*
X0440770Y0378210D01*
X0440770Y0388210D02*
X0435570Y0388210D01*
X0435570Y0398210D02*
X0440770Y0398210D01*
X0440770Y0408210D02*
X0435570Y0408210D01*
X0435570Y0418210D02*
X0440770Y0418210D01*
X0440770Y0428210D02*
X0435570Y0428210D01*
X0340770Y0558210D02*
X0335570Y0558210D01*
X0335570Y0568210D02*
X0340770Y0568210D01*
X0340770Y0578210D02*
X0335570Y0578210D01*
X0335570Y0588210D02*
X0340770Y0588210D01*
X0340770Y0598210D02*
X0335570Y0598210D01*
X0280770Y0598210D02*
X0275570Y0598210D01*
X0275570Y0588210D02*
X0280770Y0588210D01*
X0280770Y0578210D02*
X0275570Y0578210D01*
X0275570Y0568210D02*
X0280770Y0568210D01*
X0280770Y0558210D02*
X0275570Y0558210D01*
D55*
X0276170Y0428210D02*
X0270170Y0428210D01*
X0270170Y0418210D02*
X0276170Y0418210D01*
X0276170Y0408210D02*
X0270170Y0408210D01*
X0270170Y0398210D02*
X0276170Y0398210D01*
X0276170Y0388210D02*
X0270170Y0388210D01*
X0270170Y0378210D02*
X0276170Y0378210D01*
X0276170Y0368210D02*
X0270170Y0368210D01*
X0270170Y0358210D02*
X0276170Y0358210D01*
X0276170Y0342210D02*
X0270170Y0342210D01*
X0270170Y0332210D02*
X0276170Y0332210D01*
X0276170Y0322210D02*
X0270170Y0322210D01*
X0270170Y0312210D02*
X0276170Y0312210D01*
X0276170Y0302210D02*
X0270170Y0302210D01*
X0270170Y0292210D02*
X0276170Y0292210D01*
X0276170Y0282210D02*
X0270170Y0282210D01*
X0270170Y0272210D02*
X0276170Y0272210D01*
X0303170Y0270210D02*
X0303170Y0276210D01*
X0313170Y0276210D02*
X0313170Y0270210D01*
X0323170Y0270210D02*
X0323170Y0276210D01*
X0333170Y0276210D02*
X0333170Y0270210D01*
X0343170Y0270210D02*
X0343170Y0276210D01*
X0353170Y0276210D02*
X0353170Y0270210D01*
X0453170Y0285210D02*
X0453170Y0291210D01*
X0463170Y0291210D02*
X0463170Y0285210D01*
X0466170Y0313210D02*
X0460170Y0313210D01*
X0460170Y0323210D02*
X0466170Y0323210D01*
X0466170Y0333210D02*
X0460170Y0333210D01*
X0460170Y0343210D02*
X0466170Y0343210D01*
X0466170Y0353210D02*
X0460170Y0353210D01*
X0460170Y0363210D02*
X0466170Y0363210D01*
X0466170Y0378210D02*
X0460170Y0378210D01*
X0460170Y0388210D02*
X0466170Y0388210D01*
X0466170Y0398210D02*
X0460170Y0398210D01*
X0460170Y0408210D02*
X0466170Y0408210D01*
X0466170Y0418210D02*
X0460170Y0418210D01*
X0460170Y0428210D02*
X0466170Y0428210D01*
D38*
X0465730Y0578370D03*
X0465730Y0588210D03*
X0465730Y0598050D03*
D72*
X0438170Y0605530D03*
X0438170Y0570890D03*
D13*
X0308170Y0483210D03*
X0298170Y0483210D03*
X0288170Y0483210D03*
X0278170Y0483210D03*
X0283170Y0503210D03*
X0293170Y0503210D03*
X0303170Y0503210D03*
X0303170Y0543210D03*
X0293170Y0543210D03*
X0283170Y0543210D03*
X0288170Y0443210D03*
X0278170Y0443210D03*
X0298170Y0443210D03*
X0308170Y0443210D03*
D100*
X0313170Y0378210D03*
X0288170Y0358210D03*
X0270670Y0350710D03*
X0318170Y0298210D03*
X0323170Y0318210D03*
X0343170Y0328210D03*
X0353170Y0313210D03*
X0360670Y0303210D03*
X0373170Y0293210D03*
X0393170Y0293210D03*
X0400670Y0293210D03*
X0368170Y0343210D03*
X0373170Y0408210D03*
X0418170Y0443210D03*
X0394800Y0020000D02*
G75*
%LPD*%
D98*
X0741310Y0052040D03*
X0741310Y0162040D03*
D81*
X0730350Y0104170D02*
X0730350Y0098970D01*
X0720350Y0098970D02*
X0720350Y0104170D01*
X0710350Y0104170D02*
X0710350Y0098970D01*
X0700350Y0098970D02*
X0700350Y0104170D01*
X0690350Y0104170D02*
X0690350Y0098970D01*
X0680350Y0098970D02*
X0680350Y0104170D01*
X0670350Y0104170D02*
X0670350Y0098970D01*
X0660350Y0098970D02*
X0660350Y0104170D01*
X0650350Y0104170D02*
X0650350Y0098970D01*
X0640350Y0098970D02*
X0640350Y0104170D01*
X0630350Y0104170D02*
X0630350Y0098970D01*
X0620350Y0098970D02*
X0620350Y0104170D01*
X0610350Y0104170D02*
X0610350Y0098970D01*
X0600350Y0098970D02*
X0600350Y0104170D01*
X0600350Y0074170D02*
X0600350Y0068970D01*
X0610350Y0068970D02*
X0610350Y0074170D01*
X0620350Y0074170D02*
X0620350Y0068970D01*
X0630350Y0068970D02*
X0630350Y0074170D01*
X0640350Y0074170D02*
X0640350Y0068970D01*
X0650350Y0068970D02*
X0650350Y0074170D01*
X0660350Y0074170D02*
X0660350Y0068970D01*
X0670350Y0068970D02*
X0670350Y0074170D01*
X0680350Y0074170D02*
X0680350Y0068970D01*
X0690350Y0068970D02*
X0690350Y0074170D01*
X0700350Y0074170D02*
X0700350Y0068970D01*
X0710350Y0068970D02*
X0710350Y0074170D01*
X0720350Y0074170D02*
X0720350Y0068970D01*
X0730350Y0068970D02*
X0730350Y0074170D01*
X0524910Y0101040D02*
X0519710Y0101040D01*
X0519710Y0111040D02*
X0524910Y0111040D01*
X0524910Y0121040D02*
X0519710Y0121040D01*
X0519710Y0131040D02*
X0524910Y0131040D01*
X0524910Y0141040D02*
X0519710Y0141040D01*
X0519710Y0151040D02*
X0524910Y0151040D01*
X0524910Y0161040D02*
X0519710Y0161040D01*
X0519710Y0171040D02*
X0524910Y0171040D01*
X0524910Y0181040D02*
X0519710Y0181040D01*
X0519710Y0191040D02*
X0524910Y0191040D01*
X0494910Y0191040D02*
X0489710Y0191040D01*
X0489710Y0181040D02*
X0494910Y0181040D01*
X0494910Y0171040D02*
X0489710Y0171040D01*
X0489710Y0161040D02*
X0494910Y0161040D01*
X0494910Y0151040D02*
X0489710Y0151040D01*
X0489710Y0141040D02*
X0494910Y0141040D01*
X0494910Y0131040D02*
X0489710Y0131040D01*
X0489710Y0121040D02*
X0494910Y0121040D01*
X0494910Y0111040D02*
X0489710Y0111040D01*
X0489710Y0101040D02*
X0494910Y0101040D01*
D28*
X0506310Y0213040D03*
X0516310Y0213040D03*
X0516310Y0223040D03*
X0506310Y0223040D03*
X0496310Y0223040D03*
X0730860Y0141840D03*
X0740860Y0141840D03*
X0740860Y0131840D03*
X0730860Y0131840D03*
X0730860Y0121840D03*
X0740860Y0121840D03*
D13*
X0720310Y0160040D03*
X0720610Y0170040D03*
X0720550Y0179740D03*
X0720610Y0189740D03*
X0720710Y0199640D03*
X0680710Y0199640D03*
X0680610Y0189740D03*
X0680550Y0179740D03*
X0680610Y0170040D03*
X0680310Y0160040D03*
X0666700Y0159930D03*
X0655980Y0159940D03*
X0644950Y0159740D03*
X0644950Y0179740D03*
X0655980Y0179940D03*
X0666700Y0179930D03*
X0626310Y0183440D03*
X0626310Y0193440D03*
X0608010Y0193440D03*
X0608010Y0183440D03*
X0546310Y0133040D03*
X0536310Y0133040D03*
X0568310Y0122040D03*
X0568310Y0102040D03*
X0546310Y0093040D03*
X0536310Y0093040D03*
X0531310Y0070040D03*
X0522310Y0070040D03*
X0522310Y0060040D03*
X0531310Y0060040D03*
X0535670Y0047650D03*
X0535670Y0027650D03*
X0451310Y0095040D03*
X0441310Y0095040D03*
X0425310Y0095040D03*
X0415310Y0095040D03*
X0403810Y0102940D03*
X0416310Y0115040D03*
X0428010Y0115040D03*
X0439310Y0115040D03*
X0450310Y0115040D03*
X0450310Y0135040D03*
X0439310Y0135040D03*
X0428010Y0135040D03*
X0416310Y0135040D03*
X0403810Y0142940D03*
X0447310Y0150040D03*
X0458310Y0150040D03*
X0469310Y0150040D03*
X0469310Y0190040D03*
X0458310Y0190040D03*
X0447310Y0190040D03*
D49*
X0469110Y0131040D02*
X0473510Y0131040D01*
X0473510Y0111040D02*
X0469110Y0111040D01*
X0640320Y0140870D02*
X0640320Y0145270D01*
X0660320Y0145270D02*
X0660320Y0140870D01*
D55*
X0681810Y0137690D02*
X0687810Y0137690D01*
X0707410Y0137690D02*
X0713410Y0137690D01*
X0713410Y0119890D02*
X0707410Y0119890D01*
X0687810Y0119890D02*
X0681810Y0119890D01*
X0571310Y0149040D02*
X0565310Y0149040D01*
X0565310Y0159040D02*
X0571310Y0159040D01*
X0571310Y0169040D02*
X0565310Y0169040D01*
X0565310Y0179040D02*
X0571310Y0179040D01*
X0571310Y0189040D02*
X0565310Y0189040D01*
X0565310Y0199040D02*
X0571310Y0199040D01*
X0551310Y0199040D02*
X0545310Y0199040D01*
X0545310Y0189040D02*
X0551310Y0189040D01*
X0551310Y0179040D02*
X0545310Y0179040D01*
X0545310Y0169040D02*
X0551310Y0169040D01*
X0551310Y0159040D02*
X0545310Y0159040D01*
X0545310Y0149040D02*
X0551310Y0149040D01*
X0574030Y0219110D02*
X0574030Y0225110D01*
X0584030Y0225110D02*
X0584030Y0219110D01*
X0594030Y0219110D02*
X0594030Y0225110D01*
X0604030Y0225110D02*
X0604030Y0219110D01*
X0614030Y0219110D02*
X0614030Y0225110D01*
X0624030Y0225110D02*
X0624030Y0219110D01*
X0634030Y0219110D02*
X0634030Y0225110D01*
X0644030Y0225110D02*
X0644030Y0219110D01*
X0660020Y0218950D02*
X0660020Y0224950D01*
X0670020Y0224950D02*
X0670020Y0218950D01*
X0680020Y0218950D02*
X0680020Y0224950D01*
X0690020Y0224950D02*
X0690020Y0218950D01*
X0700020Y0218950D02*
X0700020Y0224950D01*
X0710020Y0224950D02*
X0710020Y0218950D01*
X0720020Y0218950D02*
X0720020Y0224950D01*
X0730020Y0224950D02*
X0730020Y0218950D01*
X0497010Y0067540D02*
X0497010Y0061540D01*
X0487010Y0061540D02*
X0487010Y0067540D01*
X0477010Y0067540D02*
X0477010Y0061540D01*
X0545310Y0062040D02*
X0551310Y0062040D01*
X0565310Y0062040D02*
X0571310Y0062040D01*
X0571310Y0052040D02*
X0565310Y0052040D01*
X0565310Y0042040D02*
X0571310Y0042040D01*
X0571310Y0032040D02*
X0565310Y0032040D01*
X0551310Y0032040D02*
X0545310Y0032040D01*
X0545310Y0042040D02*
X0551310Y0042040D01*
X0551310Y0052040D02*
X0545310Y0052040D01*
X0610310Y0035040D02*
X0610310Y0029040D01*
X0620310Y0029040D02*
X0620310Y0035040D01*
X0630310Y0035040D02*
X0630310Y0029040D01*
X0640310Y0029040D02*
X0640310Y0035040D01*
X0650310Y0035040D02*
X0650310Y0029040D01*
X0660310Y0029040D02*
X0660310Y0035040D01*
X0680430Y0035150D02*
X0680430Y0029150D01*
X0690430Y0029150D02*
X0690430Y0035150D01*
X0700430Y0035150D02*
X0700430Y0029150D01*
X0710430Y0029150D02*
X0710430Y0035150D01*
X0720430Y0035150D02*
X0720430Y0029150D01*
X0730430Y0029150D02*
X0730430Y0035150D01*
X0415310Y0152040D02*
X0415310Y0158040D01*
X0405310Y0158040D02*
X0405310Y0152040D01*
D93*
X0457000Y0065900D03*
X0457000Y0025900D03*
D92*
X0479720Y0045090D03*
X0512700Y0045110D03*
D71*
X0512700Y0031110D03*
X0479720Y0031090D03*
D50*
X0429510Y0032040D03*
X0441310Y0051740D03*
X0417710Y0051740D03*
D78*
X0420980Y0187120D03*
X0428850Y0187120D03*
X0428850Y0196960D03*
X0420980Y0196960D03*
D89*
X0410310Y0215740D03*
X0410310Y0168340D03*
D88*
X0496310Y0213040D03*
D55*
X0536310Y0213040D03*
X0536310Y0223040D03*
D96*
X0599310Y0175040D03*
X0599310Y0165040D03*
X0579310Y0170040D03*
X0575310Y0154040D03*
X0645310Y0173040D03*
X0655310Y0166040D03*
X0731310Y0178040D03*
X0623310Y0089040D03*
X0605310Y0084040D03*
X0671310Y0050040D03*
X0740310Y0071040D03*
D91*
X0558310Y0062040D03*
X0558310Y0052040D03*
X0558310Y0042040D03*
X0558310Y0032040D03*
X0558310Y0149040D03*
X0558310Y0159040D03*
X0558310Y0169040D03*
X0558310Y0179040D03*
X0558310Y0189040D03*
X0558310Y0199040D03*
X0183250Y0333170D02*
G75*
%LPD*%
D81*
X0225810Y0405170D02*
X0220610Y0405170D01*
X0220610Y0415170D02*
X0225810Y0415170D01*
X0225810Y0425170D02*
X0220610Y0425170D01*
X0220610Y0435170D02*
X0225810Y0435170D01*
X0225810Y0445170D02*
X0220610Y0445170D01*
X0220610Y0455170D02*
X0225810Y0455170D01*
X0225810Y0465170D02*
X0220610Y0465170D01*
X0220610Y0475170D02*
X0225810Y0475170D01*
X0195810Y0475170D02*
X0190610Y0475170D01*
X0190610Y0465170D02*
X0195810Y0465170D01*
X0195810Y0455170D02*
X0190610Y0455170D01*
X0190610Y0445170D02*
X0195810Y0445170D01*
X0195810Y0435170D02*
X0190610Y0435170D01*
X0190610Y0425170D02*
X0195810Y0425170D01*
X0195810Y0415170D02*
X0190610Y0415170D01*
X0190610Y0405170D02*
X0195810Y0405170D01*
D13*
X0243210Y0340170D03*
X0243210Y0350170D03*
X0243210Y0370170D03*
X0243210Y0380170D03*
X0243210Y0400170D03*
X0243210Y0410170D03*
X0243210Y0430170D03*
X0243210Y0440170D03*
X0243210Y0460170D03*
X0243210Y0470170D03*
X0243210Y0490170D03*
X0243210Y0500170D03*
X0243210Y0520170D03*
X0243210Y0530170D03*
X0243210Y0550170D03*
X0243210Y0560170D03*
X0223210Y0517670D03*
X0223210Y0507670D03*
X0223210Y0497670D03*
X0223210Y0487670D03*
X0193210Y0487670D03*
X0193210Y0497670D03*
X0193210Y0507670D03*
X0193210Y0517670D03*
X0195710Y0390170D03*
X0195710Y0380170D03*
X0195710Y0370170D03*
X0195710Y0360170D03*
X0225710Y0360170D03*
X0225710Y0370170D03*
X0225710Y0380170D03*
X0225710Y0390170D03*
D55*
X0222210Y0351170D02*
X0222210Y0345170D01*
X0212210Y0345170D02*
X0212210Y0351170D01*
X0202210Y0351170D02*
X0202210Y0345170D01*
X0192210Y0345170D02*
X0192210Y0351170D01*
X0232210Y0351170D02*
X0232210Y0345170D01*
X0231210Y0528170D02*
X0231210Y0534170D01*
X0221210Y0534170D02*
X0221210Y0528170D01*
X0211210Y0528170D02*
X0211210Y0534170D01*
X0201210Y0534170D02*
X0201210Y0528170D01*
X0191210Y0528170D02*
X0191210Y0534170D01*
X0488170Y0237400D02*
G75*
%LPD*%
D13*
X0628130Y0272400D03*
X0598130Y0272400D03*
X0593130Y0292400D03*
X0588130Y0299900D03*
X0583130Y0292400D03*
X0573130Y0307400D03*
X0543130Y0307400D03*
X0523130Y0402400D03*
X0523130Y0452400D03*
X0523130Y0467400D03*
X0493130Y0467400D03*
X0493130Y0452400D03*
X0493130Y0402400D03*
X0583130Y0502400D03*
X0583130Y0532400D03*
X0583130Y0542400D03*
X0583130Y0572400D03*
X0608130Y0442400D03*
X0608130Y0412400D03*
D93*
X0593130Y0407400D03*
X0578130Y0407400D03*
X0578130Y0447400D03*
X0593130Y0447400D03*
X0583130Y0272400D03*
X0573130Y0257400D03*
X0543130Y0272400D03*
X0533130Y0257400D03*
D92*
X0603130Y0292400D03*
X0603130Y0307400D03*
X0623130Y0307400D03*
X0623130Y0292400D03*
X0603130Y0507400D03*
X0603130Y0527400D03*
X0603130Y0542400D03*
X0603130Y0562400D03*
D55*
X0598130Y0340400D02*
X0598130Y0334400D01*
X0608130Y0334400D02*
X0608130Y0340400D01*
X0618130Y0340400D02*
X0618130Y0334400D01*
X0506130Y0337400D02*
X0500130Y0337400D01*
X0500130Y0327400D02*
X0506130Y0327400D01*
X0506130Y0317400D02*
X0500130Y0317400D01*
D81*
X0503030Y0362400D02*
X0508230Y0362400D01*
X0508230Y0372400D02*
X0503030Y0372400D01*
X0503030Y0382400D02*
X0508230Y0382400D01*
X0508230Y0417400D02*
X0503030Y0417400D01*
X0503030Y0427400D02*
X0508230Y0427400D01*
X0508230Y0437400D02*
X0503030Y0437400D01*
X0530530Y0442400D02*
X0535730Y0442400D01*
X0535730Y0432400D02*
X0530530Y0432400D01*
X0530530Y0422400D02*
X0535730Y0422400D01*
X0535730Y0392400D02*
X0530530Y0392400D01*
X0530530Y0382400D02*
X0535730Y0382400D01*
X0535730Y0372400D02*
X0530530Y0372400D01*
X0530530Y0362400D02*
X0535730Y0362400D01*
X0560530Y0362400D02*
X0565730Y0362400D01*
X0565730Y0372400D02*
X0560530Y0372400D01*
X0560530Y0382400D02*
X0565730Y0382400D01*
X0565730Y0392400D02*
X0560530Y0392400D01*
X0560530Y0422400D02*
X0565730Y0422400D01*
X0565730Y0432400D02*
X0560530Y0432400D01*
X0560530Y0442400D02*
X0565730Y0442400D01*
X0565730Y0452400D02*
X0560530Y0452400D01*
X0560530Y0487400D02*
X0565730Y0487400D01*
X0565730Y0497400D02*
X0560530Y0497400D01*
X0560530Y0507400D02*
X0565730Y0507400D01*
X0565730Y0517400D02*
X0560530Y0517400D01*
X0560530Y0532400D02*
X0565730Y0532400D01*
X0565730Y0542400D02*
X0560530Y0542400D01*
X0560530Y0552400D02*
X0565730Y0552400D01*
X0565730Y0562400D02*
X0560530Y0562400D01*
X0535730Y0562400D02*
X0530530Y0562400D01*
X0530530Y0552400D02*
X0535730Y0552400D01*
X0535730Y0542400D02*
X0530530Y0542400D01*
X0530530Y0532400D02*
X0535730Y0532400D01*
X0535730Y0517400D02*
X0530530Y0517400D01*
X0530530Y0507400D02*
X0535730Y0507400D01*
X0535730Y0497400D02*
X0530530Y0497400D01*
X0530530Y0487400D02*
X0535730Y0487400D01*
X0535730Y0452400D02*
X0530530Y0452400D01*
X0575530Y0392400D02*
X0580730Y0392400D01*
X0580730Y0382400D02*
X0575530Y0382400D01*
X0575530Y0372400D02*
X0580730Y0372400D01*
X0580730Y0362400D02*
X0575530Y0362400D01*
X0605530Y0362400D02*
X0610730Y0362400D01*
X0610730Y0372400D02*
X0605530Y0372400D01*
X0605530Y0382400D02*
X0610730Y0382400D01*
X0610730Y0392400D02*
X0605530Y0392400D01*
X0608130Y0459800D02*
X0608130Y0465000D01*
X0618130Y0465000D02*
X0618130Y0459800D01*
X0628130Y0459800D02*
X0628130Y0465000D01*
X0638130Y0465000D02*
X0638130Y0459800D01*
X0638130Y0489800D02*
X0638130Y0495000D01*
X0628130Y0495000D02*
X0628130Y0489800D01*
X0618130Y0489800D02*
X0618130Y0495000D01*
X0608130Y0495000D02*
X0608130Y0489800D01*
X0598130Y0489800D02*
X0598130Y0495000D01*
X0588130Y0495000D02*
X0588130Y0489800D01*
X0578130Y0489800D02*
X0578130Y0495000D01*
X0578130Y0465000D02*
X0578130Y0459800D01*
X0588130Y0459800D02*
X0588130Y0465000D01*
X0598130Y0465000D02*
X0598130Y0459800D01*
D57*
X0508130Y0292040D03*
D43*
X0508230Y0263410D03*
X0523140Y0279530D03*
D24*
X0523130Y0307400D03*
X0523130Y0342400D03*
D22*
X0523130Y0332400D03*
X0523130Y0317400D03*
D28*
X0523130Y0612400D03*
X0523130Y0622400D03*
X0513130Y0622400D03*
X0513130Y0612400D03*
X0533130Y0612400D03*
X0533130Y0622400D03*
X0543130Y0622400D03*
X0543130Y0612400D03*
X0553130Y0612400D03*
X0553130Y0622400D03*
D90*
X0553130Y0602400D03*
X0543130Y0602400D03*
X0533130Y0602400D03*
X0523130Y0602400D03*
X0513130Y0602400D03*
X0548130Y0327400D03*
X0558130Y0327400D03*
X0568130Y0327400D03*
D96*
X0570630Y0352400D03*
X0628130Y0352400D03*
X0020000Y0333170D02*
G75*
%LPD*%
D81*
X0062560Y0405170D02*
X0057360Y0405170D01*
X0057360Y0415170D02*
X0062560Y0415170D01*
X0062560Y0425170D02*
X0057360Y0425170D01*
X0057360Y0435170D02*
X0062560Y0435170D01*
X0062560Y0445170D02*
X0057360Y0445170D01*
X0057360Y0455170D02*
X0062560Y0455170D01*
X0062560Y0465170D02*
X0057360Y0465170D01*
X0057360Y0475170D02*
X0062560Y0475170D01*
X0032560Y0475170D02*
X0027360Y0475170D01*
X0027360Y0465170D02*
X0032560Y0465170D01*
X0032560Y0455170D02*
X0027360Y0455170D01*
X0027360Y0445170D02*
X0032560Y0445170D01*
X0032560Y0435170D02*
X0027360Y0435170D01*
X0027360Y0425170D02*
X0032560Y0425170D01*
X0032560Y0415170D02*
X0027360Y0415170D01*
X0027360Y0405170D02*
X0032560Y0405170D01*
D13*
X0079960Y0340170D03*
X0079960Y0350170D03*
X0079960Y0370170D03*
X0079960Y0380170D03*
X0079960Y0400170D03*
X0079960Y0410170D03*
X0079960Y0430170D03*
X0079960Y0440170D03*
X0079960Y0460170D03*
X0079960Y0470170D03*
X0079960Y0490170D03*
X0079960Y0500170D03*
X0079960Y0520170D03*
X0079960Y0530170D03*
X0079960Y0550170D03*
X0079960Y0560170D03*
X0059960Y0517670D03*
X0059960Y0507670D03*
X0059960Y0497670D03*
X0059960Y0487670D03*
X0029960Y0487670D03*
X0029960Y0497670D03*
X0029960Y0507670D03*
X0029960Y0517670D03*
X0032460Y0390170D03*
X0032460Y0380170D03*
X0032460Y0370170D03*
X0032460Y0360170D03*
X0062460Y0360170D03*
X0062460Y0370170D03*
X0062460Y0380170D03*
X0062460Y0390170D03*
D55*
X0058960Y0351170D02*
X0058960Y0345170D01*
X0048960Y0345170D02*
X0048960Y0351170D01*
X0038960Y0351170D02*
X0038960Y0345170D01*
X0028960Y0345170D02*
X0028960Y0351170D01*
X0068960Y0351170D02*
X0068960Y0345170D01*
X0067960Y0528170D02*
X0067960Y0534170D01*
X0057960Y0534170D02*
X0057960Y0528170D01*
X0047960Y0528170D02*
X0047960Y0534170D01*
X0037960Y0534170D02*
X0037960Y0528170D01*
X0027960Y0528170D02*
X0027960Y0534170D01*
X0094960Y0333170D02*
G75*
%LPD*%
D81*
X0137520Y0405170D02*
X0132320Y0405170D01*
X0132320Y0415170D02*
X0137520Y0415170D01*
X0137520Y0425170D02*
X0132320Y0425170D01*
X0132320Y0435170D02*
X0137520Y0435170D01*
X0137520Y0445170D02*
X0132320Y0445170D01*
X0132320Y0455170D02*
X0137520Y0455170D01*
X0137520Y0465170D02*
X0132320Y0465170D01*
X0132320Y0475170D02*
X0137520Y0475170D01*
X0107520Y0475170D02*
X0102320Y0475170D01*
X0102320Y0465170D02*
X0107520Y0465170D01*
X0107520Y0455170D02*
X0102320Y0455170D01*
X0102320Y0445170D02*
X0107520Y0445170D01*
X0107520Y0435170D02*
X0102320Y0435170D01*
X0102320Y0425170D02*
X0107520Y0425170D01*
X0107520Y0415170D02*
X0102320Y0415170D01*
X0102320Y0405170D02*
X0107520Y0405170D01*
D13*
X0154920Y0340170D03*
X0154920Y0350170D03*
X0154920Y0370170D03*
X0154920Y0380170D03*
X0154920Y0400170D03*
X0154920Y0410170D03*
X0154920Y0430170D03*
X0154920Y0440170D03*
X0154920Y0460170D03*
X0154920Y0470170D03*
X0154920Y0490170D03*
X0154920Y0500170D03*
X0154920Y0520170D03*
X0154920Y0530170D03*
X0154920Y0550170D03*
X0154920Y0560170D03*
X0134920Y0517670D03*
X0134920Y0507670D03*
X0134920Y0497670D03*
X0134920Y0487670D03*
X0104920Y0487670D03*
X0104920Y0497670D03*
X0104920Y0507670D03*
X0104920Y0517670D03*
X0107420Y0390170D03*
X0107420Y0380170D03*
X0107420Y0370170D03*
X0107420Y0360170D03*
X0137420Y0360170D03*
X0137420Y0370170D03*
X0137420Y0380170D03*
X0137420Y0390170D03*
D55*
X0133920Y0351170D02*
X0133920Y0345170D01*
X0123920Y0345170D02*
X0123920Y0351170D01*
X0113920Y0351170D02*
X0113920Y0345170D01*
X0103920Y0345170D02*
X0103920Y0351170D01*
X0143920Y0351170D02*
X0143920Y0345170D01*
X0142920Y0528170D02*
X0142920Y0534170D01*
X0132920Y0534170D02*
X0132920Y0528170D01*
X0122920Y0528170D02*
X0122920Y0534170D01*
X0112920Y0534170D02*
X0112920Y0528170D01*
X0102920Y0528170D02*
X0102920Y0534170D01*
X0658130Y0237400D02*
G75*
%LPD*%
D98*
X0838490Y0583910D03*
X0728490Y0583910D03*
D81*
X0786360Y0572950D02*
X0791560Y0572950D01*
X0791560Y0562950D02*
X0786360Y0562950D01*
X0786360Y0552950D02*
X0791560Y0552950D01*
X0791560Y0542950D02*
X0786360Y0542950D01*
X0786360Y0532950D02*
X0791560Y0532950D01*
X0791560Y0522950D02*
X0786360Y0522950D01*
X0786360Y0512950D02*
X0791560Y0512950D01*
X0791560Y0502950D02*
X0786360Y0502950D01*
X0786360Y0492950D02*
X0791560Y0492950D01*
X0791560Y0482950D02*
X0786360Y0482950D01*
X0786360Y0472950D02*
X0791560Y0472950D01*
X0791560Y0462950D02*
X0786360Y0462950D01*
X0786360Y0452950D02*
X0791560Y0452950D01*
X0791560Y0442950D02*
X0786360Y0442950D01*
X0816360Y0442950D02*
X0821560Y0442950D01*
X0821560Y0452950D02*
X0816360Y0452950D01*
X0816360Y0462950D02*
X0821560Y0462950D01*
X0821560Y0472950D02*
X0816360Y0472950D01*
X0816360Y0482950D02*
X0821560Y0482950D01*
X0821560Y0492950D02*
X0816360Y0492950D01*
X0816360Y0502950D02*
X0821560Y0502950D01*
X0821560Y0512950D02*
X0816360Y0512950D01*
X0816360Y0522950D02*
X0821560Y0522950D01*
X0821560Y0532950D02*
X0816360Y0532950D01*
X0816360Y0542950D02*
X0821560Y0542950D01*
X0821560Y0552950D02*
X0816360Y0552950D01*
X0816360Y0562950D02*
X0821560Y0562950D01*
X0821560Y0572950D02*
X0816360Y0572950D01*
X0789490Y0367510D02*
X0789490Y0362310D01*
X0779490Y0362310D02*
X0779490Y0367510D01*
X0769490Y0367510D02*
X0769490Y0362310D01*
X0759490Y0362310D02*
X0759490Y0367510D01*
X0749490Y0367510D02*
X0749490Y0362310D01*
X0739490Y0362310D02*
X0739490Y0367510D01*
X0729490Y0367510D02*
X0729490Y0362310D01*
X0719490Y0362310D02*
X0719490Y0367510D01*
X0709490Y0367510D02*
X0709490Y0362310D01*
X0699490Y0362310D02*
X0699490Y0367510D01*
X0699490Y0337510D02*
X0699490Y0332310D01*
X0709490Y0332310D02*
X0709490Y0337510D01*
X0719490Y0337510D02*
X0719490Y0332310D01*
X0729490Y0332310D02*
X0729490Y0337510D01*
X0739490Y0337510D02*
X0739490Y0332310D01*
X0749490Y0332310D02*
X0749490Y0337510D01*
X0759490Y0337510D02*
X0759490Y0332310D01*
X0769490Y0332310D02*
X0769490Y0337510D01*
X0779490Y0337510D02*
X0779490Y0332310D01*
X0789490Y0332310D02*
X0789490Y0337510D01*
D28*
X0677490Y0348910D03*
X0677490Y0358910D03*
X0667490Y0358910D03*
X0667490Y0348910D03*
X0667490Y0338910D03*
X0748690Y0573460D03*
X0748690Y0583460D03*
X0758690Y0583460D03*
X0758690Y0573460D03*
X0768690Y0573460D03*
X0768690Y0583460D03*
D13*
X0730490Y0562910D03*
X0720490Y0563210D03*
X0710790Y0563150D03*
X0700790Y0563210D03*
X0690890Y0563310D03*
X0690890Y0523310D03*
X0700790Y0523210D03*
X0710790Y0523150D03*
X0720490Y0523210D03*
X0730490Y0522910D03*
X0730600Y0509300D03*
X0730590Y0498580D03*
X0730790Y0487550D03*
X0710790Y0487550D03*
X0710590Y0498580D03*
X0710600Y0509300D03*
X0707090Y0468910D03*
X0697090Y0468910D03*
X0697090Y0450610D03*
X0707090Y0450610D03*
X0757490Y0388910D03*
X0757490Y0378910D03*
X0768490Y0410910D03*
X0788490Y0410910D03*
X0797490Y0388910D03*
X0797490Y0378910D03*
X0820490Y0373910D03*
X0820490Y0364910D03*
X0830490Y0364910D03*
X0830490Y0373910D03*
X0842880Y0378270D03*
X0862880Y0378270D03*
X0795490Y0293910D03*
X0795490Y0283910D03*
X0795490Y0267910D03*
X0795490Y0257910D03*
X0787590Y0246410D03*
X0775490Y0258910D03*
X0775490Y0270610D03*
X0775490Y0281910D03*
X0775490Y0292910D03*
X0755490Y0292910D03*
X0755490Y0281910D03*
X0755490Y0270610D03*
X0755490Y0258910D03*
X0747590Y0246410D03*
X0740490Y0289910D03*
X0740490Y0300910D03*
X0740490Y0311910D03*
X0700490Y0311910D03*
X0700490Y0300910D03*
X0700490Y0289910D03*
D49*
X0759490Y0311710D02*
X0759490Y0316110D01*
X0779490Y0316110D02*
X0779490Y0311710D01*
X0749660Y0482920D02*
X0745260Y0482920D01*
X0745260Y0502920D02*
X0749660Y0502920D01*
D55*
X0752840Y0524410D02*
X0752840Y0530410D01*
X0752840Y0550010D02*
X0752840Y0556010D01*
X0770640Y0556010D02*
X0770640Y0550010D01*
X0770640Y0530410D02*
X0770640Y0524410D01*
X0741490Y0413910D02*
X0741490Y0407910D01*
X0731490Y0407910D02*
X0731490Y0413910D01*
X0721490Y0413910D02*
X0721490Y0407910D01*
X0711490Y0407910D02*
X0711490Y0413910D01*
X0701490Y0413910D02*
X0701490Y0407910D01*
X0691490Y0407910D02*
X0691490Y0413910D01*
X0691490Y0393910D02*
X0691490Y0387910D01*
X0701490Y0387910D02*
X0701490Y0393910D01*
X0711490Y0393910D02*
X0711490Y0387910D01*
X0721490Y0387910D02*
X0721490Y0393910D01*
X0731490Y0393910D02*
X0731490Y0387910D01*
X0741490Y0387910D02*
X0741490Y0393910D01*
X0671420Y0416630D02*
X0665420Y0416630D01*
X0665420Y0426630D02*
X0671420Y0426630D01*
X0671420Y0436630D02*
X0665420Y0436630D01*
X0665420Y0446630D02*
X0671420Y0446630D01*
X0671420Y0456630D02*
X0665420Y0456630D01*
X0665420Y0466630D02*
X0671420Y0466630D01*
X0671420Y0476630D02*
X0665420Y0476630D01*
X0665420Y0486630D02*
X0671420Y0486630D01*
X0671580Y0502620D02*
X0665580Y0502620D01*
X0665580Y0512620D02*
X0671580Y0512620D01*
X0671580Y0522620D02*
X0665580Y0522620D01*
X0665580Y0532620D02*
X0671580Y0532620D01*
X0671580Y0542620D02*
X0665580Y0542620D01*
X0665580Y0552620D02*
X0671580Y0552620D01*
X0671580Y0562620D02*
X0665580Y0562620D01*
X0665580Y0572620D02*
X0671580Y0572620D01*
X0822990Y0339610D02*
X0828990Y0339610D01*
X0828990Y0329610D02*
X0822990Y0329610D01*
X0822990Y0319610D02*
X0828990Y0319610D01*
X0828490Y0387910D02*
X0828490Y0393910D01*
X0828490Y0407910D02*
X0828490Y0413910D01*
X0838490Y0413910D02*
X0838490Y0407910D01*
X0848490Y0407910D02*
X0848490Y0413910D01*
X0858490Y0413910D02*
X0858490Y0407910D01*
X0858490Y0393910D02*
X0858490Y0387910D01*
X0848490Y0387910D02*
X0848490Y0393910D01*
X0838490Y0393910D02*
X0838490Y0387910D01*
X0855490Y0452910D02*
X0861490Y0452910D01*
X0861490Y0462910D02*
X0855490Y0462910D01*
X0855490Y0472910D02*
X0861490Y0472910D01*
X0861490Y0482910D02*
X0855490Y0482910D01*
X0855490Y0492910D02*
X0861490Y0492910D01*
X0861490Y0502910D02*
X0855490Y0502910D01*
X0855380Y0523030D02*
X0861380Y0523030D01*
X0861380Y0533030D02*
X0855380Y0533030D01*
X0855380Y0543030D02*
X0861380Y0543030D01*
X0861380Y0553030D02*
X0855380Y0553030D01*
X0855380Y0563030D02*
X0861380Y0563030D01*
X0861380Y0573030D02*
X0855380Y0573030D01*
X0738490Y0257910D02*
X0732490Y0257910D01*
X0732490Y0247910D02*
X0738490Y0247910D01*
D93*
X0824630Y0299600D03*
X0864630Y0299600D03*
D92*
X0845440Y0322320D03*
X0845420Y0355300D03*
D71*
X0859420Y0355300D03*
X0859440Y0322320D03*
D50*
X0858490Y0272110D03*
X0838790Y0283910D03*
X0838790Y0260310D03*
D78*
X0703410Y0263580D03*
X0703410Y0271450D03*
X0693570Y0271450D03*
X0693570Y0263580D03*
D89*
X0674790Y0252910D03*
X0722190Y0252910D03*
D88*
X0677490Y0338910D03*
D55*
X0677490Y0378910D03*
X0667490Y0378910D03*
D96*
X0715490Y0441910D03*
X0725490Y0441910D03*
X0720490Y0421910D03*
X0736490Y0417910D03*
X0717490Y0487910D03*
X0724490Y0497910D03*
X0712490Y0573910D03*
X0801490Y0465910D03*
X0806490Y0447910D03*
X0840490Y0513910D03*
X0819490Y0582910D03*
D91*
X0828490Y0400910D03*
X0838490Y0400910D03*
X0848490Y0400910D03*
X0858490Y0400910D03*
X0741490Y0400910D03*
X0731490Y0400910D03*
X0721490Y0400910D03*
X0711490Y0400910D03*
X0701490Y0400910D03*
X0691490Y0400910D03*
X0755560Y0020000D02*
G75*
%LPD*%
D55*
X0788560Y0024000D02*
X0788560Y0030000D01*
X0798560Y0030000D02*
X0798560Y0024000D01*
X0808560Y0024000D02*
X0808560Y0030000D01*
X0818560Y0030000D02*
X0818560Y0024000D01*
X0828560Y0024000D02*
X0828560Y0030000D01*
X0838560Y0030000D02*
X0838560Y0024000D01*
D100*
X0780360Y0028000D03*
X0786760Y0043200D03*
X0801960Y0040000D03*
X0806760Y0052800D03*
X0803560Y0061600D03*
X0803560Y0066400D03*
X0797360Y0065000D03*
X0785160Y0072000D03*
X0769560Y0063800D03*
X0771560Y0084800D03*
X0763360Y0091600D03*
X0792360Y0084800D03*
X0800360Y0090400D03*
X0803560Y0086400D03*
X0812360Y0065600D03*
X0818760Y0054400D03*
X0837160Y0076000D03*
X0830760Y0083200D03*
X0827560Y0079200D03*
X0837160Y0086400D03*
X0854760Y0075200D03*
X0862760Y0084600D03*
X0861160Y0092000D03*
X0873160Y0088000D03*
X0873160Y0082400D03*
X0851560Y0060800D03*
X0870960Y0050400D03*
X0873960Y0056200D03*
X0846760Y0103400D03*
X0020000Y0571380D02*
G75*
%LPD*%
D81*
X0092000Y0598780D02*
X0092000Y0603980D01*
X0102000Y0603980D02*
X0102000Y0598780D01*
X0112000Y0598780D02*
X0112000Y0603980D01*
X0122000Y0603980D02*
X0122000Y0598780D01*
X0132000Y0598780D02*
X0132000Y0603980D01*
X0142000Y0603980D02*
X0142000Y0598780D01*
X0152000Y0598780D02*
X0152000Y0603980D01*
X0162000Y0603980D02*
X0162000Y0598780D01*
X0162000Y0628780D02*
X0162000Y0633980D01*
X0152000Y0633980D02*
X0152000Y0628780D01*
X0142000Y0628780D02*
X0142000Y0633980D01*
X0132000Y0633980D02*
X0132000Y0628780D01*
X0122000Y0628780D02*
X0122000Y0633980D01*
X0112000Y0633980D02*
X0112000Y0628780D01*
X0102000Y0628780D02*
X0102000Y0633980D01*
X0092000Y0633980D02*
X0092000Y0628780D01*
D13*
X0027000Y0581380D03*
X0037000Y0581380D03*
X0057000Y0581380D03*
X0067000Y0581380D03*
X0087000Y0581380D03*
X0097000Y0581380D03*
X0117000Y0581380D03*
X0127000Y0581380D03*
X0147000Y0581380D03*
X0157000Y0581380D03*
X0177000Y0581380D03*
X0187000Y0581380D03*
X0207000Y0581380D03*
X0217000Y0581380D03*
X0237000Y0581380D03*
X0247000Y0581380D03*
X0204500Y0601380D03*
X0194500Y0601380D03*
X0184500Y0601380D03*
X0174500Y0601380D03*
X0174500Y0631380D03*
X0184500Y0631380D03*
X0194500Y0631380D03*
X0204500Y0631380D03*
X0077000Y0628880D03*
X0067000Y0628880D03*
X0057000Y0628880D03*
X0047000Y0628880D03*
X0047000Y0598880D03*
X0057000Y0598880D03*
X0067000Y0598880D03*
X0077000Y0598880D03*
D55*
X0038000Y0602380D02*
X0032000Y0602380D01*
X0032000Y0612380D02*
X0038000Y0612380D01*
X0038000Y0622380D02*
X0032000Y0622380D01*
X0032000Y0632380D02*
X0038000Y0632380D01*
X0038000Y0592380D02*
X0032000Y0592380D01*
X0215000Y0593380D02*
X0221000Y0593380D01*
X0221000Y0603380D02*
X0215000Y0603380D01*
X0215000Y0613380D02*
X0221000Y0613380D01*
X0221000Y0623380D02*
X0215000Y0623380D01*
X0215000Y0633380D02*
X0221000Y0633380D01*
X0658130Y0598160D02*
G75*
%LPD*%
D81*
X0730130Y0625560D02*
X0730130Y0630760D01*
X0740130Y0630760D02*
X0740130Y0625560D01*
X0750130Y0625560D02*
X0750130Y0630760D01*
X0760130Y0630760D02*
X0760130Y0625560D01*
X0770130Y0625560D02*
X0770130Y0630760D01*
X0780130Y0630760D02*
X0780130Y0625560D01*
X0790130Y0625560D02*
X0790130Y0630760D01*
X0800130Y0630760D02*
X0800130Y0625560D01*
X0800130Y0655560D02*
X0800130Y0660760D01*
X0790130Y0660760D02*
X0790130Y0655560D01*
X0780130Y0655560D02*
X0780130Y0660760D01*
X0770130Y0660760D02*
X0770130Y0655560D01*
X0760130Y0655560D02*
X0760130Y0660760D01*
X0750130Y0660760D02*
X0750130Y0655560D01*
X0740130Y0655560D02*
X0740130Y0660760D01*
X0730130Y0660760D02*
X0730130Y0655560D01*
D13*
X0665130Y0608160D03*
X0675130Y0608160D03*
X0695130Y0608160D03*
X0705130Y0608160D03*
X0725130Y0608160D03*
X0735130Y0608160D03*
X0755130Y0608160D03*
X0765130Y0608160D03*
X0785130Y0608160D03*
X0795130Y0608160D03*
X0815130Y0608160D03*
X0825130Y0608160D03*
X0845130Y0608160D03*
X0855130Y0608160D03*
X0875130Y0608160D03*
X0885130Y0608160D03*
X0842630Y0628160D03*
X0832630Y0628160D03*
X0822630Y0628160D03*
X0812630Y0628160D03*
X0812630Y0658160D03*
X0822630Y0658160D03*
X0832630Y0658160D03*
X0842630Y0658160D03*
X0715130Y0655660D03*
X0705130Y0655660D03*
X0695130Y0655660D03*
X0685130Y0655660D03*
X0685130Y0625660D03*
X0695130Y0625660D03*
X0705130Y0625660D03*
X0715130Y0625660D03*
D55*
X0676130Y0629160D02*
X0670130Y0629160D01*
X0670130Y0639160D02*
X0676130Y0639160D01*
X0676130Y0649160D02*
X0670130Y0649160D01*
X0670130Y0659160D02*
X0676130Y0659160D01*
X0676130Y0619160D02*
X0670130Y0619160D01*
X0853130Y0620160D02*
X0859130Y0620160D01*
X0859130Y0630160D02*
X0853130Y0630160D01*
X0853130Y0640160D02*
X0859130Y0640160D01*
X0859130Y0650160D02*
X0853130Y0650160D01*
X0853130Y0660160D02*
X0859130Y0660160D01*
M02*
