%
T01C0.021650
X99231Y3520
X99231Y6220
X99231Y9020
X99231Y12220
X98731Y16520
X95131Y10820
X93331Y10820
X93531Y13370
X91281Y11800
X90371Y11805
X90331Y10520
X90331Y10020
X90331Y9520
X89831Y9520
X89831Y10020
X89831Y10520
X89331Y10520
X89331Y10020
X89331Y9520
X89331Y9020
X89331Y8520
X89331Y8020
X89331Y7520
X89331Y7020
X89331Y6520
X89331Y6020
X89331Y5520
X89331Y5020
X89331Y4520
X89331Y4020
X89331Y3520
X89331Y3020
X89331Y2520
X90731Y2520
X90731Y3020
X90731Y3520
X90731Y4020
X90731Y4520
X90731Y5020
X90731Y5520
X91731Y4520
X91731Y4020
X91731Y3520
X91731Y3020
X91731Y2520
X92231Y2520
X92231Y3020
X92231Y3520
X92231Y4020
X92231Y4520
X92731Y4520
X92731Y4020
X92731Y3520
X92731Y3020
X92731Y2520
X90831Y8020
X90331Y8020
X89831Y8020
X89831Y8520
X89831Y9020
X90331Y9020
X90331Y8520
X90831Y8520
X90831Y9020
X90831Y9520
X90831Y10020
X90831Y10520
X88331Y12720
X88331Y13320
X88331Y13920
X88331Y14520
X87616Y9060
X86316Y6560
X87331Y5220
X83331Y5220
X80731Y9020
X81931Y12520
X83431Y12520
X83331Y18120
X78431Y23320
X81367Y31356
X84231Y32120
X90731Y32220
X97031Y32020
X78331Y3720
X35437Y27988
X38137Y27988
X40937Y27988
X44137Y27988
X48437Y28488
X42737Y32088
X42737Y33888
X45287Y33688
X43717Y35938
X43722Y36848
X42437Y36888
X41937Y36888
X41437Y36888
X41437Y37388
X41937Y37388
X42437Y37388
X42437Y37888
X41937Y37888
X41437Y37888
X40937Y37888
X40437Y37888
X39937Y37888
X39437Y37888
X38937Y37888
X38437Y37888
X37937Y37888
X37437Y37888
X36937Y37888
X36437Y37888
X35937Y37888
X35437Y37888
X34937Y37888
X34437Y37888
X34437Y36488
X34937Y36488
X35437Y36488
X35937Y36488
X36437Y36488
X36937Y36488
X37437Y36488
X36437Y35488
X35937Y35488
X35437Y35488
X34937Y35488
X34437Y35488
X34437Y34988
X34937Y34988
X35437Y34988
X35937Y34988
X36437Y34988
X36437Y34488
X35937Y34488
X35437Y34488
X34937Y34488
X34437Y34488
X39937Y36388
X39937Y36888
X39937Y37388
X40437Y37388
X40937Y37388
X40937Y36888
X40437Y36888
X40437Y36388
X40937Y36388
X41437Y36388
X41937Y36388
X42437Y36388
X44637Y38888
X45237Y38888
X45837Y38888
X46437Y38888
X40977Y39603
X38477Y40903
X37137Y39888
X37137Y43888
X40937Y46488
X44437Y45288
X44437Y43788
X50037Y43888
X55237Y48788
X63273Y45852
X64037Y42988
X64137Y36488
X63937Y30188
X35637Y48888
T02C0.024000
X4796Y9200
X4796Y10400
X7996Y19700
X7496Y20100
X17296Y6800
X18496Y6800
X27796Y3600
X28196Y4100
X9200Y30621
X10400Y30621
X19700Y27421
X20100Y27921
X48133Y5140
X44933Y3460
X44933Y8260
X44293Y9460
X45493Y10820
X41573Y8820
X41013Y13140
X39813Y14180
X37573Y18580
X45733Y17380
X46293Y24900
X17296Y14896
X18496Y14896
X27796Y11696
X28196Y12196
X9200Y38717
X10400Y38717
X19700Y35517
X20100Y36017
X9200Y46813
X10400Y46813
X19700Y43613
X20100Y44113
X9200Y54909
X10400Y54909
X19700Y51709
X20100Y52209
X9200Y63005
X10400Y63005
X19700Y59805
X20100Y60305
X70129Y5140
X66929Y3460
X66929Y8260
X66289Y9460
X67489Y10820
X63569Y8820
X63009Y13140
X61809Y14180
X59569Y18580
X67729Y17380
X68289Y24900
X79931Y3220
X80631Y3220
X80931Y6720
X79931Y6720
X82331Y14520
X83331Y14520
X84331Y14520
X85331Y14520
X86331Y14520
X87331Y14520
X87831Y14520
X88831Y14520
X89331Y14520
X90331Y14520
X91331Y14520
X92331Y14520
X89831Y17820
X88931Y18520
X88031Y18420
X86931Y18120
X87331Y20120
X86331Y21120
X85331Y22020
X84331Y22020
X83231Y20120
X82731Y19520
X83931Y19920
X84331Y16720
X86531Y12420
X86031Y11520
X92531Y21020
X93831Y20820
X95831Y18420
X84031Y26620
X83131Y26620
X82231Y26620
X81431Y26620
X80731Y26620
X82231Y29620
X83131Y30820
X84031Y29520
X103145Y9200
X103145Y10400
X106345Y19700
X105845Y20100
X107549Y30621
X108749Y30621
X118049Y27421
X118449Y27921
X9200Y71101
X10400Y71101
X19700Y67901
X20100Y68401
X83728Y38584
X84928Y38584
X94228Y35384
X94628Y35884
X114565Y37057
X111365Y35377
X111365Y40177
X110725Y41377
X111925Y42737
X108005Y40737
X107445Y45057
X106245Y46097
X104005Y50497
X112165Y49297
X112725Y56817
X71228Y34570
X71228Y35770
X74428Y45070
X73928Y45470
X28617Y25392
X28617Y26592
X31817Y35892
X31317Y36292
X35137Y47288
X35137Y46588
X38637Y46288
X38637Y47288
X46437Y44888
X46437Y43888
X46437Y42888
X46437Y41888
X46437Y40888
X46437Y39888
X46437Y39388
X46437Y38388
X46437Y37888
X46437Y36888
X46437Y35888
X46437Y34888
X49737Y37388
X50437Y38288
X50337Y39188
X50037Y40288
X52037Y39888
X53037Y40888
X53937Y41888
X53937Y42888
X52037Y43988
X51437Y44488
X51837Y43288
X48637Y42888
X44337Y40688
X43437Y41188
X52937Y34688
X52737Y33388
X50337Y31388
X58537Y43188
X58537Y44088
X58537Y44988
X58537Y45788
X58537Y46488
X61537Y44988
X62737Y44088
X61437Y43188
X83728Y46680
X84928Y46680
X94228Y43480
X94628Y43980
X83728Y54776
X84928Y54776
X94228Y51576
X94628Y52076
X28617Y49213
X28617Y50413
X31817Y59713
X31317Y60113
X41117Y54610
X42317Y54610
X51617Y51410
X52017Y51910
X83728Y62872
X84928Y62872
X94228Y59672
X94628Y60172
X41117Y62706
X42317Y62706
X51617Y59506
X52017Y60006
X63132Y57010
X63132Y58210
X66332Y67510
X65832Y67910
X107549Y64087
X108749Y64087
X118049Y60887
X118449Y61387
X83728Y70968
X84928Y70968
X94228Y67768
X94628Y68268
X111241Y9200
X111241Y10400
X114441Y19700
X113941Y20100
X107549Y72183
X108749Y72183
X118049Y68983
X118449Y69483
X43715Y70802
X44915Y70802
X54215Y67602
X54615Y68102
X71228Y58391
X71228Y59591
X74428Y68891
X73928Y69291
X119337Y9200
X119337Y10400
X122537Y19700
X122037Y20100
T03C0.033450
X8596Y2700
X8596Y3700
X8596Y5700
X8596Y6700
X8596Y8700
X8596Y9700
X8596Y11700
X8596Y12700
X8596Y14700
X8596Y15700
X8596Y17700
X8596Y18700
X8596Y20700
X8596Y21700
X8596Y23700
X8596Y24700
X6596Y20450
X6596Y19450
X6596Y18450
X6596Y17450
X6596Y16200
X6596Y15200
X6596Y14200
X6596Y13200
X6596Y12200
X6596Y11200
X6596Y10200
X6596Y9200
X6846Y7700
X6846Y6700
X6846Y5700
X6846Y4700
X3846Y4700
X3846Y5700
X3846Y6700
X3846Y7700
X3596Y9200
X3596Y10200
X3596Y11200
X3596Y12200
X3596Y13200
X3596Y14200
X3596Y15200
X3596Y16200
X3596Y17450
X3596Y18450
X3596Y19450
X3596Y20450
X10796Y3000
X11796Y3000
X13796Y3000
X14796Y3000
X16796Y3000
X17796Y3000
X19796Y3000
X20796Y3000
X22796Y3000
X23796Y3000
X25796Y3000
X26796Y3000
X28796Y3000
X29796Y3000
X31796Y3000
X32796Y3000
X28546Y5000
X27546Y5000
X26546Y5000
X25546Y5000
X24296Y5000
X23296Y5000
X22296Y5000
X21296Y5000
X20296Y5000
X19296Y5000
X18296Y5000
X17296Y5000
X15796Y4750
X14796Y4750
X13796Y4750
X12796Y4750
X12796Y7750
X13796Y7750
X14796Y7750
X15796Y7750
X17296Y8000
X18296Y8000
X19296Y8000
X20296Y8000
X21296Y8000
X22296Y8000
X23296Y8000
X24296Y8000
X25546Y8000
X26546Y8000
X27546Y8000
X28546Y8000
X2700Y26821
X3700Y26821
X5700Y26821
X6700Y26821
X8700Y26821
X9700Y26821
X11700Y26821
X12700Y26821
X14700Y26821
X15700Y26821
X17700Y26821
X18700Y26821
X20700Y26821
X21700Y26821
X23700Y26821
X24700Y26821
X20450Y28821
X19450Y28821
X18450Y28821
X17450Y28821
X16200Y28821
X15200Y28821
X14200Y28821
X13200Y28821
X12200Y28821
X11200Y28821
X10200Y28821
X9200Y28821
X7700Y28571
X6700Y28571
X5700Y28571
X4700Y28571
X4700Y31571
X5700Y31571
X6700Y31571
X7700Y31571
X9200Y31821
X10200Y31821
X11200Y31821
X12200Y31821
X13200Y31821
X14200Y31821
X15200Y31821
X16200Y31821
X17450Y31821
X18450Y31821
X19450Y31821
X20450Y31821
X41413Y21500
X40413Y21500
X39413Y21500
X38413Y21500
X37413Y21500
X37413Y15500
X38413Y15500
X39413Y15500
X40413Y15500
X41413Y15500
X47413Y16000
X47413Y17000
X47413Y18000
X47413Y19000
X50413Y19000
X50413Y18000
X50413Y17000
X50413Y16000
X50413Y15000
X50413Y14000
X50413Y13000
X50413Y12000
X50413Y11000
X50413Y10000
X50413Y9000
X50413Y8000
X50413Y7000
X50413Y6000
X47413Y6000
X47413Y7000
X47413Y8000
X47413Y9000
X47413Y10000
X47413Y11000
X47413Y12000
X47413Y13000
X47413Y14000
X47413Y15000
X10796Y11096
X11796Y11096
X13796Y11096
X14796Y11096
X16796Y11096
X17796Y11096
X19796Y11096
X20796Y11096
X22796Y11096
X23796Y11096
X25796Y11096
X26796Y11096
X28796Y11096
X29796Y11096
X31796Y11096
X32796Y11096
X28546Y13096
X27546Y13096
X26546Y13096
X25546Y13096
X24296Y13096
X23296Y13096
X22296Y13096
X21296Y13096
X20296Y13096
X19296Y13096
X18296Y13096
X17296Y13096
X15796Y12846
X14796Y12846
X13796Y12846
X12796Y12846
X12796Y15846
X13796Y15846
X14796Y15846
X15796Y15846
X17296Y16096
X18296Y16096
X19296Y16096
X20296Y16096
X21296Y16096
X22296Y16096
X23296Y16096
X24296Y16096
X25546Y16096
X26546Y16096
X27546Y16096
X28546Y16096
X2700Y34917
X3700Y34917
X5700Y34917
X6700Y34917
X8700Y34917
X9700Y34917
X11700Y34917
X12700Y34917
X14700Y34917
X15700Y34917
X17700Y34917
X18700Y34917
X20700Y34917
X21700Y34917
X23700Y34917
X24700Y34917
X20450Y36917
X19450Y36917
X18450Y36917
X17450Y36917
X16200Y36917
X15200Y36917
X14200Y36917
X13200Y36917
X12200Y36917
X11200Y36917
X10200Y36917
X9200Y36917
X7700Y36667
X6700Y36667
X5700Y36667
X4700Y36667
X4700Y39667
X5700Y39667
X6700Y39667
X7700Y39667
X9200Y39917
X10200Y39917
X11200Y39917
X12200Y39917
X13200Y39917
X14200Y39917
X15200Y39917
X16200Y39917
X17450Y39917
X18450Y39917
X19450Y39917
X20450Y39917
X2700Y43013
X3700Y43013
X5700Y43013
X6700Y43013
X8700Y43013
X9700Y43013
X11700Y43013
X12700Y43013
X14700Y43013
X15700Y43013
X17700Y43013
X18700Y43013
X20700Y43013
X21700Y43013
X23700Y43013
X24700Y43013
X20450Y45013
X19450Y45013
X18450Y45013
X17450Y45013
X16200Y45013
X15200Y45013
X14200Y45013
X13200Y45013
X12200Y45013
X11200Y45013
X10200Y45013
X9200Y45013
X7700Y44763
X6700Y44763
X5700Y44763
X4700Y44763
X4700Y47763
X5700Y47763
X6700Y47763
X7700Y47763
X9200Y48013
X10200Y48013
X11200Y48013
X12200Y48013
X13200Y48013
X14200Y48013
X15200Y48013
X16200Y48013
X17450Y48013
X18450Y48013
X19450Y48013
X20450Y48013
X2700Y51109
X3700Y51109
X5700Y51109
X6700Y51109
X8700Y51109
X9700Y51109
X11700Y51109
X12700Y51109
X14700Y51109
X15700Y51109
X17700Y51109
X18700Y51109
X20700Y51109
X21700Y51109
X23700Y51109
X24700Y51109
X20450Y53109
X19450Y53109
X18450Y53109
X17450Y53109
X16200Y53109
X15200Y53109
X14200Y53109
X13200Y53109
X12200Y53109
X11200Y53109
X10200Y53109
X9200Y53109
X7700Y52859
X6700Y52859
X5700Y52859
X4700Y52859
X4700Y55859
X5700Y55859
X6700Y55859
X7700Y55859
X9200Y56109
X10200Y56109
X11200Y56109
X12200Y56109
X13200Y56109
X14200Y56109
X15200Y56109
X16200Y56109
X17450Y56109
X18450Y56109
X19450Y56109
X20450Y56109
X2700Y59205
X3700Y59205
X5700Y59205
X6700Y59205
X8700Y59205
X9700Y59205
X11700Y59205
X12700Y59205
X14700Y59205
X15700Y59205
X17700Y59205
X18700Y59205
X20700Y59205
X21700Y59205
X23700Y59205
X24700Y59205
X20450Y61205
X19450Y61205
X18450Y61205
X17450Y61205
X16200Y61205
X15200Y61205
X14200Y61205
X13200Y61205
X12200Y61205
X11200Y61205
X10200Y61205
X9200Y61205
X7700Y60955
X6700Y60955
X5700Y60955
X4700Y60955
X4700Y63955
X5700Y63955
X6700Y63955
X7700Y63955
X9200Y64205
X10200Y64205
X11200Y64205
X12200Y64205
X13200Y64205
X14200Y64205
X15200Y64205
X16200Y64205
X17450Y64205
X18450Y64205
X19450Y64205
X20450Y64205
X63409Y21500
X62409Y21500
X61409Y21500
X60409Y21500
X59409Y21500
X59409Y15500
X60409Y15500
X61409Y15500
X62409Y15500
X63409Y15500
X69409Y16000
X69409Y17000
X69409Y18000
X69409Y19000
X72409Y19000
X72409Y18000
X72409Y17000
X72409Y16000
X72409Y15000
X72409Y14000
X72409Y13000
X72409Y12000
X72409Y11000
X72409Y10000
X72409Y9000
X72409Y8000
X72409Y7000
X72409Y6000
X69409Y6000
X69409Y7000
X69409Y8000
X69409Y9000
X69409Y10000
X69409Y11000
X69409Y12000
X69409Y13000
X69409Y14000
X69409Y15000
X81047Y3770
X79315Y3770
X94705Y31508
X94705Y30508
X94705Y29508
X94705Y28508
X94705Y27508
X94705Y26508
X94705Y25508
X94705Y24508
X94705Y23508
X94705Y22508
X94705Y21508
X94705Y20508
X94705Y19508
X94705Y18508
X91705Y18508
X91705Y19508
X91705Y20508
X91705Y21508
X91705Y22508
X91705Y23508
X91705Y24508
X91705Y25508
X91705Y26508
X91705Y27508
X91705Y28508
X91705Y29508
X91705Y30508
X91705Y31508
X89544Y23316
X87644Y23316
X87481Y10520
X86481Y10520
X85481Y10520
X84481Y10520
X83481Y10520
X82481Y10520
X81481Y10520
X80481Y10520
X79481Y10520
X78481Y10520
X78481Y7520
X79481Y7520
X80481Y7520
X81481Y7520
X82481Y7520
X83481Y7520
X84481Y7520
X85481Y7520
X86481Y7520
X87481Y7520
X86281Y5220
X84381Y5220
X93131Y23220
X91831Y14520
X90831Y14520
X89831Y14520
X86831Y14520
X85831Y14520
X84831Y14520
X83831Y14520
X82831Y14520
X96031Y32320
X106945Y2700
X106945Y3700
X106945Y5700
X106945Y6700
X106945Y8700
X106945Y9700
X106945Y11700
X106945Y12700
X106945Y14700
X106945Y15700
X106945Y17700
X106945Y18700
X106945Y20700
X106945Y21700
X106945Y23700
X106945Y24700
X104945Y20450
X104945Y19450
X104945Y18450
X104945Y17450
X104945Y16200
X104945Y15200
X104945Y14200
X104945Y13200
X104945Y12200
X104945Y11200
X104945Y10200
X104945Y9200
X105195Y7700
X105195Y6700
X105195Y5700
X105195Y4700
X102195Y4700
X102195Y5700
X102195Y6700
X102195Y7700
X101945Y9200
X101945Y10200
X101945Y11200
X101945Y12200
X101945Y13200
X101945Y14200
X101945Y15200
X101945Y16200
X101945Y17450
X101945Y18450
X101945Y19450
X101945Y20450
X101049Y26821
X102049Y26821
X104049Y26821
X105049Y26821
X107049Y26821
X108049Y26821
X110049Y26821
X111049Y26821
X113049Y26821
X114049Y26821
X116049Y26821
X117049Y26821
X119049Y26821
X120049Y26821
X122049Y26821
X123049Y26821
X118799Y28821
X117799Y28821
X116799Y28821
X115799Y28821
X114549Y28821
X113549Y28821
X112549Y28821
X111549Y28821
X110549Y28821
X109549Y28821
X108549Y28821
X107549Y28821
X106049Y28571
X105049Y28571
X104049Y28571
X103049Y28571
X103049Y31571
X104049Y31571
X105049Y31571
X106049Y31571
X107549Y31821
X108549Y31821
X109549Y31821
X110549Y31821
X111549Y31821
X112549Y31821
X113549Y31821
X114549Y31821
X115799Y31821
X116799Y31821
X117799Y31821
X118799Y31821
X2700Y67301
X3700Y67301
X5700Y67301
X6700Y67301
X8700Y67301
X9700Y67301
X11700Y67301
X12700Y67301
X14700Y67301
X15700Y67301
X17700Y67301
X18700Y67301
X20700Y67301
X21700Y67301
X23700Y67301
X24700Y67301
X20450Y69301
X19450Y69301
X18450Y69301
X17450Y69301
X16200Y69301
X15200Y69301
X14200Y69301
X13200Y69301
X12200Y69301
X11200Y69301
X10200Y69301
X9200Y69301
X7700Y69051
X6700Y69051
X5700Y69051
X4700Y69051
X4700Y72051
X5700Y72051
X6700Y72051
X7700Y72051
X9200Y72301
X10200Y72301
X11200Y72301
X12200Y72301
X13200Y72301
X14200Y72301
X15200Y72301
X16200Y72301
X17450Y72301
X18450Y72301
X19450Y72301
X20450Y72301
X77228Y34784
X78228Y34784
X80228Y34784
X81228Y34784
X83228Y34784
X84228Y34784
X86228Y34784
X87228Y34784
X89228Y34784
X90228Y34784
X92228Y34784
X93228Y34784
X95228Y34784
X96228Y34784
X98228Y34784
X99228Y34784
X94978Y36784
X93978Y36784
X92978Y36784
X91978Y36784
X90728Y36784
X89728Y36784
X88728Y36784
X87728Y36784
X86728Y36784
X85728Y36784
X84728Y36784
X83728Y36784
X82228Y36534
X81228Y36534
X80228Y36534
X79228Y36534
X79228Y39534
X80228Y39534
X81228Y39534
X82228Y39534
X83728Y39784
X84728Y39784
X85728Y39784
X86728Y39784
X87728Y39784
X88728Y39784
X89728Y39784
X90728Y39784
X91978Y39784
X92978Y39784
X93978Y39784
X94978Y39784
X107845Y53417
X106845Y53417
X105845Y53417
X104845Y53417
X103845Y53417
X103845Y47417
X104845Y47417
X105845Y47417
X106845Y47417
X107845Y47417
X113845Y47917
X113845Y48917
X113845Y49917
X113845Y50917
X116845Y50917
X116845Y49917
X116845Y48917
X116845Y47917
X116845Y46917
X116845Y45917
X116845Y44917
X116845Y43917
X116845Y42917
X116845Y41917
X116845Y40917
X116845Y39917
X116845Y38917
X116845Y37917
X113845Y37917
X113845Y38917
X113845Y39917
X113845Y40917
X113845Y41917
X113845Y42917
X113845Y43917
X113845Y44917
X113845Y45917
X113845Y46917
X75028Y28070
X75028Y29070
X75028Y31070
X75028Y32070
X75028Y34070
X75028Y35070
X75028Y37070
X75028Y38070
X75028Y40070
X75028Y41070
X75028Y43070
X75028Y44070
X75028Y46070
X75028Y47070
X75028Y49070
X75028Y50070
X73028Y45820
X73028Y44820
X73028Y43820
X73028Y42820
X73028Y41570
X73028Y40570
X73028Y39570
X73028Y38570
X73028Y37570
X73028Y36570
X73028Y35570
X73028Y34570
X73278Y33070
X73278Y32070
X73278Y31070
X73278Y30070
X70278Y30070
X70278Y31070
X70278Y32070
X70278Y33070
X70028Y34570
X70028Y35570
X70028Y36570
X70028Y37570
X70028Y38570
X70028Y39570
X70028Y40570
X70028Y41570
X70028Y42820
X70028Y43820
X70028Y44820
X70028Y45820
X32417Y18892
X32417Y19892
X32417Y21892
X32417Y22892
X32417Y24892
X32417Y25892
X32417Y27892
X32417Y28892
X32417Y30892
X32417Y31892
X32417Y33892
X32417Y34892
X32417Y36892
X32417Y37892
X32417Y39892
X32417Y40892
X30417Y36642
X30417Y35642
X30417Y34642
X30417Y33642
X30417Y32392
X30417Y31392
X30417Y30392
X30417Y29392
X30417Y28392
X30417Y27392
X30417Y26392
X30417Y25392
X30667Y23892
X30667Y22892
X30667Y21892
X30667Y20892
X27667Y20892
X27667Y21892
X27667Y22892
X27667Y23892
X27417Y25392
X27417Y26392
X27417Y27392
X27417Y28392
X27417Y29392
X27417Y30392
X27417Y31392
X27417Y32392
X27417Y33642
X27417Y34642
X27417Y35642
X27417Y36642
X35687Y46172
X35687Y47904
X63425Y32514
X62425Y32514
X61425Y32514
X60425Y32514
X59425Y32514
X58425Y32514
X57425Y32514
X56425Y32514
X55425Y32514
X54425Y32514
X53425Y32514
X52425Y32514
X51425Y32514
X50425Y32514
X50425Y35514
X51425Y35514
X52425Y35514
X53425Y35514
X54425Y35514
X55425Y35514
X56425Y35514
X57425Y35514
X58425Y35514
X59425Y35514
X60425Y35514
X61425Y35514
X62425Y35514
X63425Y35514
X55233Y37675
X55233Y39575
X42437Y39738
X42437Y40738
X42437Y41738
X42437Y42738
X42437Y43738
X42437Y44738
X42437Y45738
X42437Y46738
X42437Y47738
X42437Y48738
X39437Y48738
X39437Y47738
X39437Y46738
X39437Y45738
X39437Y44738
X39437Y43738
X39437Y42738
X39437Y41738
X39437Y40738
X39437Y39738
X37137Y40938
X37137Y42838
X55137Y34088
X46437Y35388
X46437Y36388
X46437Y37388
X46437Y40388
X46437Y41388
X46437Y42388
X46437Y43388
X46437Y44388
X64237Y31188
X77228Y42880
X78228Y42880
X80228Y42880
X81228Y42880
X83228Y42880
X84228Y42880
X86228Y42880
X87228Y42880
X89228Y42880
X90228Y42880
X92228Y42880
X93228Y42880
X95228Y42880
X96228Y42880
X98228Y42880
X99228Y42880
X94978Y44880
X93978Y44880
X92978Y44880
X91978Y44880
X90728Y44880
X89728Y44880
X88728Y44880
X87728Y44880
X86728Y44880
X85728Y44880
X84728Y44880
X83728Y44880
X82228Y44630
X81228Y44630
X80228Y44630
X79228Y44630
X79228Y47630
X80228Y47630
X81228Y47630
X82228Y47630
X83728Y47880
X84728Y47880
X85728Y47880
X86728Y47880
X87728Y47880
X88728Y47880
X89728Y47880
X90728Y47880
X91978Y47880
X92978Y47880
X93978Y47880
X94978Y47880
X77228Y50976
X78228Y50976
X80228Y50976
X81228Y50976
X83228Y50976
X84228Y50976
X86228Y50976
X87228Y50976
X89228Y50976
X90228Y50976
X92228Y50976
X93228Y50976
X95228Y50976
X96228Y50976
X98228Y50976
X99228Y50976
X94978Y52976
X93978Y52976
X92978Y52976
X91978Y52976
X90728Y52976
X89728Y52976
X88728Y52976
X87728Y52976
X86728Y52976
X85728Y52976
X84728Y52976
X83728Y52976
X82228Y52726
X81228Y52726
X80228Y52726
X79228Y52726
X79228Y55726
X80228Y55726
X81228Y55726
X82228Y55726
X83728Y55976
X84728Y55976
X85728Y55976
X86728Y55976
X87728Y55976
X88728Y55976
X89728Y55976
X90728Y55976
X91978Y55976
X92978Y55976
X93978Y55976
X94978Y55976
X32417Y42713
X32417Y43713
X32417Y45713
X32417Y46713
X32417Y48713
X32417Y49713
X32417Y51713
X32417Y52713
X32417Y54713
X32417Y55713
X32417Y57713
X32417Y58713
X32417Y60713
X32417Y61713
X32417Y63713
X32417Y64713
X30417Y60463
X30417Y59463
X30417Y58463
X30417Y57463
X30417Y56213
X30417Y55213
X30417Y54213
X30417Y53213
X30417Y52213
X30417Y51213
X30417Y50213
X30417Y49213
X30667Y47713
X30667Y46713
X30667Y45713
X30667Y44713
X27667Y44713
X27667Y45713
X27667Y46713
X27667Y47713
X27417Y49213
X27417Y50213
X27417Y51213
X27417Y52213
X27417Y53213
X27417Y54213
X27417Y55213
X27417Y56213
X27417Y57463
X27417Y58463
X27417Y59463
X27417Y60463
X34617Y50810
X35617Y50810
X37617Y50810
X38617Y50810
X40617Y50810
X41617Y50810
X43617Y50810
X44617Y50810
X46617Y50810
X47617Y50810
X49617Y50810
X50617Y50810
X52617Y50810
X53617Y50810
X55617Y50810
X56617Y50810
X52367Y52810
X51367Y52810
X50367Y52810
X49367Y52810
X48117Y52810
X47117Y52810
X46117Y52810
X45117Y52810
X44117Y52810
X43117Y52810
X42117Y52810
X41117Y52810
X39617Y52560
X38617Y52560
X37617Y52560
X36617Y52560
X36617Y55560
X37617Y55560
X38617Y55560
X39617Y55560
X41117Y55810
X42117Y55810
X43117Y55810
X44117Y55810
X45117Y55810
X46117Y55810
X47117Y55810
X48117Y55810
X49367Y55810
X50367Y55810
X51367Y55810
X52367Y55810
X77228Y59072
X78228Y59072
X80228Y59072
X81228Y59072
X83228Y59072
X84228Y59072
X86228Y59072
X87228Y59072
X89228Y59072
X90228Y59072
X92228Y59072
X93228Y59072
X95228Y59072
X96228Y59072
X98228Y59072
X99228Y59072
X94978Y61072
X93978Y61072
X92978Y61072
X91978Y61072
X90728Y61072
X89728Y61072
X88728Y61072
X87728Y61072
X86728Y61072
X85728Y61072
X84728Y61072
X83728Y61072
X82228Y60822
X81228Y60822
X80228Y60822
X79228Y60822
X79228Y63822
X80228Y63822
X81228Y63822
X82228Y63822
X83728Y64072
X84728Y64072
X85728Y64072
X86728Y64072
X87728Y64072
X88728Y64072
X89728Y64072
X90728Y64072
X91978Y64072
X92978Y64072
X93978Y64072
X94978Y64072
X34617Y58906
X35617Y58906
X37617Y58906
X38617Y58906
X40617Y58906
X41617Y58906
X43617Y58906
X44617Y58906
X46617Y58906
X47617Y58906
X49617Y58906
X50617Y58906
X52617Y58906
X53617Y58906
X55617Y58906
X56617Y58906
X52367Y60906
X51367Y60906
X50367Y60906
X49367Y60906
X48117Y60906
X47117Y60906
X46117Y60906
X45117Y60906
X44117Y60906
X43117Y60906
X42117Y60906
X41117Y60906
X39617Y60656
X38617Y60656
X37617Y60656
X36617Y60656
X36617Y63656
X37617Y63656
X38617Y63656
X39617Y63656
X41117Y63906
X42117Y63906
X43117Y63906
X44117Y63906
X45117Y63906
X46117Y63906
X47117Y63906
X48117Y63906
X49367Y63906
X50367Y63906
X51367Y63906
X52367Y63906
X66932Y50510
X66932Y51510
X66932Y53510
X66932Y54510
X66932Y56510
X66932Y57510
X66932Y59510
X66932Y60510
X66932Y62510
X66932Y63510
X66932Y65510
X66932Y66510
X66932Y68510
X66932Y69510
X66932Y71510
X66932Y72510
X64932Y68260
X64932Y67260
X64932Y66260
X64932Y65260
X64932Y64010
X64932Y63010
X64932Y62010
X64932Y61010
X64932Y60010
X64932Y59010
X64932Y58010
X64932Y57010
X65182Y55510
X65182Y54510
X65182Y53510
X65182Y52510
X62182Y52510
X62182Y53510
X62182Y54510
X62182Y55510
X61932Y57010
X61932Y58010
X61932Y59010
X61932Y60010
X61932Y61010
X61932Y62010
X61932Y63010
X61932Y64010
X61932Y65260
X61932Y66260
X61932Y67260
X61932Y68260
X101049Y60287
X102049Y60287
X104049Y60287
X105049Y60287
X107049Y60287
X108049Y60287
X110049Y60287
X111049Y60287
X113049Y60287
X114049Y60287
X116049Y60287
X117049Y60287
X119049Y60287
X120049Y60287
X122049Y60287
X123049Y60287
X118799Y62287
X117799Y62287
X116799Y62287
X115799Y62287
X114549Y62287
X113549Y62287
X112549Y62287
X111549Y62287
X110549Y62287
X109549Y62287
X108549Y62287
X107549Y62287
X106049Y62037
X105049Y62037
X104049Y62037
X103049Y62037
X103049Y65037
X104049Y65037
X105049Y65037
X106049Y65037
X107549Y65287
X108549Y65287
X109549Y65287
X110549Y65287
X111549Y65287
X112549Y65287
X113549Y65287
X114549Y65287
X115799Y65287
X116799Y65287
X117799Y65287
X118799Y65287
X77228Y67168
X78228Y67168
X80228Y67168
X81228Y67168
X83228Y67168
X84228Y67168
X86228Y67168
X87228Y67168
X89228Y67168
X90228Y67168
X92228Y67168
X93228Y67168
X95228Y67168
X96228Y67168
X98228Y67168
X99228Y67168
X94978Y69168
X93978Y69168
X92978Y69168
X91978Y69168
X90728Y69168
X89728Y69168
X88728Y69168
X87728Y69168
X86728Y69168
X85728Y69168
X84728Y69168
X83728Y69168
X82228Y68918
X81228Y68918
X80228Y68918
X79228Y68918
X79228Y71918
X80228Y71918
X81228Y71918
X82228Y71918
X83728Y72168
X84728Y72168
X85728Y72168
X86728Y72168
X87728Y72168
X88728Y72168
X89728Y72168
X90728Y72168
X91978Y72168
X92978Y72168
X93978Y72168
X94978Y72168
X115041Y2700
X115041Y3700
X115041Y5700
X115041Y6700
X115041Y8700
X115041Y9700
X115041Y11700
X115041Y12700
X115041Y14700
X115041Y15700
X115041Y17700
X115041Y18700
X115041Y20700
X115041Y21700
X115041Y23700
X115041Y24700
X113041Y20450
X113041Y19450
X113041Y18450
X113041Y17450
X113041Y16200
X113041Y15200
X113041Y14200
X113041Y13200
X113041Y12200
X113041Y11200
X113041Y10200
X113041Y9200
X113291Y7700
X113291Y6700
X113291Y5700
X113291Y4700
X110291Y4700
X110291Y5700
X110291Y6700
X110291Y7700
X110041Y9200
X110041Y10200
X110041Y11200
X110041Y12200
X110041Y13200
X110041Y14200
X110041Y15200
X110041Y16200
X110041Y17450
X110041Y18450
X110041Y19450
X110041Y20450
X101049Y68383
X102049Y68383
X104049Y68383
X105049Y68383
X107049Y68383
X108049Y68383
X110049Y68383
X111049Y68383
X113049Y68383
X114049Y68383
X116049Y68383
X117049Y68383
X119049Y68383
X120049Y68383
X122049Y68383
X123049Y68383
X118799Y70383
X117799Y70383
X116799Y70383
X115799Y70383
X114549Y70383
X113549Y70383
X112549Y70383
X111549Y70383
X110549Y70383
X109549Y70383
X108549Y70383
X107549Y70383
X106049Y70133
X105049Y70133
X104049Y70133
X103049Y70133
X103049Y73133
X104049Y73133
X105049Y73133
X106049Y73133
X107549Y73383
X108549Y73383
X109549Y73383
X110549Y73383
X111549Y73383
X112549Y73383
X113549Y73383
X114549Y73383
X115799Y73383
X116799Y73383
X117799Y73383
X118799Y73383
X37215Y67002
X38215Y67002
X40215Y67002
X41215Y67002
X43215Y67002
X44215Y67002
X46215Y67002
X47215Y67002
X49215Y67002
X50215Y67002
X52215Y67002
X53215Y67002
X55215Y67002
X56215Y67002
X58215Y67002
X59215Y67002
X54965Y69002
X53965Y69002
X52965Y69002
X51965Y69002
X50715Y69002
X49715Y69002
X48715Y69002
X47715Y69002
X46715Y69002
X45715Y69002
X44715Y69002
X43715Y69002
X42215Y68752
X41215Y68752
X40215Y68752
X39215Y68752
X39215Y71752
X40215Y71752
X41215Y71752
X42215Y71752
X43715Y72002
X44715Y72002
X45715Y72002
X46715Y72002
X47715Y72002
X48715Y72002
X49715Y72002
X50715Y72002
X51965Y72002
X52965Y72002
X53965Y72002
X54965Y72002
X75028Y51891
X75028Y52891
X75028Y54891
X75028Y55891
X75028Y57891
X75028Y58891
X75028Y60891
X75028Y61891
X75028Y63891
X75028Y64891
X75028Y66891
X75028Y67891
X75028Y69891
X75028Y70891
X75028Y72891
X75028Y73891
X73028Y69641
X73028Y68641
X73028Y67641
X73028Y66641
X73028Y65391
X73028Y64391
X73028Y63391
X73028Y62391
X73028Y61391
X73028Y60391
X73028Y59391
X73028Y58391
X73278Y56891
X73278Y55891
X73278Y54891
X73278Y53891
X70278Y53891
X70278Y54891
X70278Y55891
X70278Y56891
X70028Y58391
X70028Y59391
X70028Y60391
X70028Y61391
X70028Y62391
X70028Y63391
X70028Y64391
X70028Y65391
X70028Y66641
X70028Y67641
X70028Y68641
X70028Y69641
X123137Y2700
X123137Y3700
X123137Y5700
X123137Y6700
X123137Y8700
X123137Y9700
X123137Y11700
X123137Y12700
X123137Y14700
X123137Y15700
X123137Y17700
X123137Y18700
X123137Y20700
X123137Y21700
X123137Y23700
X123137Y24700
X121137Y20450
X121137Y19450
X121137Y18450
X121137Y17450
X121137Y16200
X121137Y15200
X121137Y14200
X121137Y13200
X121137Y12200
X121137Y11200
X121137Y10200
X121137Y9200
X121387Y7700
X121387Y6700
X121387Y5700
X121387Y4700
X118387Y4700
X118387Y5700
X118387Y6700
X118387Y7700
X118137Y9200
X118137Y10200
X118137Y11200
X118137Y12200
X118137Y13200
X118137Y14200
X118137Y15200
X118137Y16200
X118137Y17450
X118137Y18450
X118137Y19450
X118137Y20450
T04C0.039700
X3596Y21700
X4596Y21700
X5596Y21700
X6596Y21700
X7596Y21700
X2596Y21700
X2596Y3450
X3596Y3450
X4596Y3450
X5596Y3450
X6596Y3450
X7596Y3450
X29796Y8000
X29796Y7000
X29796Y6000
X29796Y5000
X29796Y4000
X29796Y9000
X11546Y9000
X11546Y8000
X11546Y7000
X11546Y6000
X11546Y5000
X11546Y4000
X21700Y31821
X21700Y30821
X21700Y29821
X21700Y28821
X21700Y27821
X21700Y32821
X3450Y32821
X3450Y31821
X3450Y30821
X3450Y29821
X3450Y28821
X3450Y27821
X54413Y3500
X54413Y4500
X54413Y7000
X54413Y8000
X54413Y9000
X54413Y10000
X54413Y11000
X54413Y12000
X54413Y14000
X54413Y15000
X54413Y16000
X54413Y17000
X54413Y18000
X54413Y19000
X46193Y9890
X46193Y8110
X43633Y8110
X42693Y8110
X42693Y6890
X42693Y5110
X42413Y3000
X41413Y3000
X40413Y3000
X39413Y3000
X38413Y3000
X40133Y5110
X40133Y6890
X40133Y8110
X39193Y8110
X39193Y9890
X40133Y9890
X40133Y11110
X40133Y12890
X42693Y12890
X43133Y14610
X43133Y16390
X43433Y19055
X43433Y20055
X44433Y20055
X45433Y20055
X45433Y19055
X44433Y19055
X45693Y16390
X45693Y14610
X42693Y11110
X42693Y9890
X43633Y9890
X43413Y3000
X36633Y8110
X35413Y8400
X35413Y9400
X35413Y10400
X36633Y9890
X35413Y12000
X35413Y13000
X35413Y14000
X35413Y15000
X35413Y16000
X35413Y17000
X35413Y18000
X35413Y19000
X36913Y25500
X37913Y25500
X38913Y25500
X39913Y25500
X40913Y25500
X41913Y25500
X35413Y7400
X35413Y6400
X35413Y5400
X35413Y4400
X35413Y3400
X47397Y25756
X46413Y25756
X45429Y25756
X50929Y25756
X51913Y25756
X52897Y25756
X29796Y16096
X29796Y15096
X29796Y14096
X29796Y13096
X29796Y12096
X29796Y17096
X11546Y17096
X11546Y16096
X11546Y15096
X11546Y14096
X11546Y13096
X11546Y12096
X21700Y39917
X21700Y38917
X21700Y37917
X21700Y36917
X21700Y35917
X21700Y40917
X3450Y40917
X3450Y39917
X3450Y38917
X3450Y37917
X3450Y36917
X3450Y35917
X21700Y48013
X21700Y47013
X21700Y46013
X21700Y45013
X21700Y44013
X21700Y49013
X3450Y49013
X3450Y48013
X3450Y47013
X3450Y46013
X3450Y45013
X3450Y44013
X21700Y56109
X21700Y55109
X21700Y54109
X21700Y53109
X21700Y52109
X21700Y57109
X3450Y57109
X3450Y56109
X3450Y55109
X3450Y54109
X3450Y53109
X3450Y52109
X21700Y64205
X21700Y63205
X21700Y62205
X21700Y61205
X21700Y60205
X21700Y65205
X3450Y65205
X3450Y64205
X3450Y63205
X3450Y62205
X3450Y61205
X3450Y60205
X76409Y3500
X76409Y4500
X76409Y7000
X76409Y8000
X76409Y9000
X76409Y10000
X76409Y11000
X76409Y12000
X76409Y14000
X76409Y15000
X76409Y16000
X76409Y17000
X76409Y18000
X76409Y19000
X68189Y9890
X68189Y8110
X65629Y8110
X64689Y8110
X64689Y6890
X64689Y5110
X64409Y3000
X63409Y3000
X62409Y3000
X61409Y3000
X60409Y3000
X62129Y5110
X62129Y6890
X62129Y8110
X61189Y8110
X61189Y9890
X62129Y9890
X62129Y11110
X62129Y12890
X64689Y12890
X65129Y14610
X65129Y16390
X65429Y19055
X65429Y20055
X66429Y20055
X67429Y20055
X67429Y19055
X66429Y19055
X67689Y16390
X67689Y14610
X64689Y11110
X64689Y9890
X65629Y9890
X65409Y3000
X58629Y8110
X57409Y8400
X57409Y9400
X57409Y10400
X58629Y9890
X57409Y12000
X57409Y13000
X57409Y14000
X57409Y15000
X57409Y16000
X57409Y17000
X57409Y18000
X57409Y19000
X58909Y25500
X59909Y25500
X60909Y25500
X61909Y25500
X62909Y25500
X63909Y25500
X57409Y7400
X57409Y6400
X57409Y5400
X57409Y4400
X57409Y3400
X69393Y25756
X68409Y25756
X67425Y25756
X72925Y25756
X73909Y25756
X74893Y25756
X79731Y12270
X79731Y13270
X80731Y13270
X80731Y12270
X82331Y13420
X83331Y13420
X84331Y13420
X85331Y13420
X86331Y13420
X87331Y13420
X87336Y11765
X88336Y11765
X89336Y11765
X89331Y13420
X90331Y13420
X91331Y13420
X92331Y13420
X92331Y15520
X91331Y15520
X90331Y15520
X89331Y15520
X87331Y15520
X86331Y15520
X85331Y15520
X84331Y15520
X83331Y15520
X82331Y15520
X79916Y15616
X79916Y16616
X79916Y17616
X79916Y18616
X79916Y19616
X79916Y20616
X79916Y21616
X79916Y22616
X78916Y22295
X78916Y21295
X78916Y20295
X78916Y19295
X78916Y18295
X78916Y17295
X78916Y16295
X78916Y15295
X78731Y13270
X78731Y12270
X78916Y24295
X78916Y25295
X78916Y26295
X78916Y27295
X78916Y28295
X78916Y29295
X78916Y30295
X78916Y31295
X79916Y31296
X79916Y30296
X79916Y29296
X79916Y28296
X79916Y27296
X79916Y26296
X79916Y25296
X79916Y24296
X86946Y31356
X86946Y32356
X87946Y32356
X87946Y31356
X88946Y31356
X88946Y32356
X89666Y29333
X87886Y29333
X87886Y26773
X89666Y26773
X97926Y27176
X97926Y26176
X98926Y26175
X98926Y27175
X98926Y28175
X98926Y29175
X98926Y30175
X98926Y31175
X97926Y31176
X97926Y30176
X97926Y29176
X97926Y28176
X97946Y24204
X97946Y23204
X97946Y22204
X97946Y21204
X97946Y20204
X97946Y19204
X98946Y19205
X98946Y20205
X98946Y21205
X98946Y22205
X98946Y23205
X98946Y24205
X101945Y21700
X102945Y21700
X103945Y21700
X104945Y21700
X105945Y21700
X100945Y21700
X100945Y3450
X101945Y3450
X102945Y3450
X103945Y3450
X104945Y3450
X105945Y3450
X120049Y31821
X120049Y30821
X120049Y29821
X120049Y28821
X120049Y27821
X120049Y32821
X101799Y32821
X101799Y31821
X101799Y30821
X101799Y29821
X101799Y28821
X101799Y27821
X21700Y72301
X21700Y71301
X21700Y70301
X21700Y69301
X21700Y68301
X21700Y73301
X3450Y73301
X3450Y72301
X3450Y71301
X3450Y70301
X3450Y69301
X3450Y68301
X96228Y39784
X96228Y38784
X96228Y37784
X96228Y36784
X96228Y35784
X96228Y40784
X77978Y40784
X77978Y39784
X77978Y38784
X77978Y37784
X77978Y36784
X77978Y35784
X120845Y35417
X120845Y36417
X120845Y38917
X120845Y39917
X120845Y40917
X120845Y41917
X120845Y42917
X120845Y43917
X120845Y45917
X120845Y46917
X120845Y47917
X120845Y48917
X120845Y49917
X120845Y50917
X112625Y41807
X112625Y40027
X110065Y40027
X109125Y40027
X109125Y38807
X109125Y37027
X108845Y34917
X107845Y34917
X106845Y34917
X105845Y34917
X104845Y34917
X106565Y37027
X106565Y38807
X106565Y40027
X105625Y40027
X105625Y41807
X106565Y41807
X106565Y43027
X106565Y44807
X109125Y44807
X109565Y46527
X109565Y48307
X109865Y50972
X109865Y51972
X110865Y51972
X111865Y51972
X111865Y50972
X110865Y50972
X112125Y48307
X112125Y46527
X109125Y43027
X109125Y41807
X110065Y41807
X109845Y34917
X103065Y40027
X101845Y40317
X101845Y41317
X101845Y42317
X103065Y41807
X101845Y43917
X101845Y44917
X101845Y45917
X101845Y46917
X101845Y47917
X101845Y48917
X101845Y49917
X101845Y50917
X103345Y57417
X104345Y57417
X105345Y57417
X106345Y57417
X107345Y57417
X108345Y57417
X101845Y39317
X101845Y38317
X101845Y37317
X101845Y36317
X101845Y35317
X113829Y57673
X112845Y57673
X111861Y57673
X117361Y57673
X118345Y57673
X119329Y57673
X70028Y47070
X71028Y47070
X72028Y47070
X73028Y47070
X74028Y47070
X69028Y47070
X69028Y28820
X70028Y28820
X71028Y28820
X72028Y28820
X73028Y28820
X74028Y28820
X27417Y37892
X28417Y37892
X29417Y37892
X30417Y37892
X31417Y37892
X26417Y37892
X26417Y19642
X27417Y19642
X28417Y19642
X29417Y19642
X30417Y19642
X31417Y19642
X44187Y47488
X45187Y47488
X45187Y46488
X44187Y46488
X45337Y44888
X45337Y43888
X45337Y42888
X45337Y41888
X45337Y40888
X45337Y39888
X43682Y39883
X43682Y38883
X43682Y37883
X45337Y37888
X45337Y36888
X45337Y35888
X45337Y34888
X47437Y34888
X47437Y35888
X47437Y36888
X47437Y37888
X47437Y39888
X47437Y40888
X47437Y41888
X47437Y42888
X47437Y43888
X47437Y44888
X47533Y47303
X48533Y47303
X49533Y47303
X50533Y47303
X51533Y47303
X52533Y47303
X53533Y47303
X54533Y47303
X54212Y48303
X53212Y48303
X52212Y48303
X51212Y48303
X50212Y48303
X49212Y48303
X48212Y48303
X47212Y48303
X45187Y48488
X44187Y48488
X56212Y48303
X57212Y48303
X58212Y48303
X59212Y48303
X60212Y48303
X61212Y48303
X62212Y48303
X63212Y48303
X63213Y47303
X62213Y47303
X61213Y47303
X60213Y47303
X59213Y47303
X58213Y47303
X57213Y47303
X56213Y47303
X63273Y40273
X64273Y40273
X64273Y39273
X63273Y39273
X63273Y38273
X64273Y38273
X61250Y37553
X61250Y39333
X58690Y39333
X58690Y37553
X59093Y29293
X58093Y29293
X58092Y28293
X59092Y28293
X60092Y28293
X61092Y28293
X62092Y28293
X63092Y28293
X63093Y29293
X62093Y29293
X61093Y29293
X60093Y29293
X56121Y29273
X55121Y29273
X54121Y29273
X53121Y29273
X52121Y29273
X51121Y29273
X51122Y28273
X52122Y28273
X53122Y28273
X54122Y28273
X55122Y28273
X56122Y28273
X96228Y47880
X96228Y46880
X96228Y45880
X96228Y44880
X96228Y43880
X96228Y48880
X77978Y48880
X77978Y47880
X77978Y46880
X77978Y45880
X77978Y44880
X77978Y43880
X96228Y55976
X96228Y54976
X96228Y53976
X96228Y52976
X96228Y51976
X96228Y56976
X77978Y56976
X77978Y55976
X77978Y54976
X77978Y53976
X77978Y52976
X77978Y51976
X27417Y61713
X28417Y61713
X29417Y61713
X30417Y61713
X31417Y61713
X26417Y61713
X26417Y43463
X27417Y43463
X28417Y43463
X29417Y43463
X30417Y43463
X31417Y43463
X53617Y55810
X53617Y54810
X53617Y53810
X53617Y52810
X53617Y51810
X53617Y56810
X35367Y56810
X35367Y55810
X35367Y54810
X35367Y53810
X35367Y52810
X35367Y51810
X96228Y64072
X96228Y63072
X96228Y62072
X96228Y61072
X96228Y60072
X96228Y65072
X77978Y65072
X77978Y64072
X77978Y63072
X77978Y62072
X77978Y61072
X77978Y60072
X53617Y63906
X53617Y62906
X53617Y61906
X53617Y60906
X53617Y59906
X53617Y64906
X35367Y64906
X35367Y63906
X35367Y62906
X35367Y61906
X35367Y60906
X35367Y59906
X61932Y69510
X62932Y69510
X63932Y69510
X64932Y69510
X65932Y69510
X60932Y69510
X60932Y51260
X61932Y51260
X62932Y51260
X63932Y51260
X64932Y51260
X65932Y51260
X120049Y65287
X120049Y64287
X120049Y63287
X120049Y62287
X120049Y61287
X120049Y66287
X101799Y66287
X101799Y65287
X101799Y64287
X101799Y63287
X101799Y62287
X101799Y61287
X96228Y72168
X96228Y71168
X96228Y70168
X96228Y69168
X96228Y68168
X96228Y73168
X77978Y73168
X77978Y72168
X77978Y71168
X77978Y70168
X77978Y69168
X77978Y68168
X110041Y21700
X111041Y21700
X112041Y21700
X113041Y21700
X114041Y21700
X109041Y21700
X109041Y3450
X110041Y3450
X111041Y3450
X112041Y3450
X113041Y3450
X114041Y3450
X120049Y73383
X120049Y72383
X120049Y71383
X120049Y70383
X120049Y69383
X120049Y74383
X101799Y74383
X101799Y73383
X101799Y72383
X101799Y71383
X101799Y70383
X101799Y69383
X56215Y72002
X56215Y71002
X56215Y70002
X56215Y69002
X56215Y68002
X56215Y73002
X37965Y73002
X37965Y72002
X37965Y71002
X37965Y70002
X37965Y69002
X37965Y68002
X70028Y70891
X71028Y70891
X72028Y70891
X73028Y70891
X74028Y70891
X69028Y70891
X69028Y52641
X70028Y52641
X71028Y52641
X72028Y52641
X73028Y52641
X74028Y52641
X118137Y21700
X119137Y21700
X120137Y21700
X121137Y21700
X122137Y21700
X117137Y21700
X117137Y3450
X118137Y3450
X119137Y3450
X120137Y3450
X121137Y3450
X122137Y3450
T05C0.047200
X98731Y14520
X98031Y14520
X97331Y14520
X96631Y14520
X95931Y14520
X95231Y14520
X94531Y14520
X93831Y14520
X93131Y14520
X94522Y11001
X94522Y7001
X99431Y14520
X88331Y10720
X88331Y10020
X88331Y9320
X88331Y8620
X88331Y7920
X88331Y7220
X88331Y6520
X88331Y5820
X88331Y5120
X88331Y4420
X88331Y3720
X88331Y3020
X88331Y2320
X81731Y14520
X81031Y14520
X80331Y14520
X79631Y14520
X78931Y14520
X78231Y14520
X46437Y28488
X46437Y29188
X46437Y29888
X46437Y30588
X46437Y31288
X46437Y31988
X46437Y32688
X46437Y33388
X46437Y34088
X42918Y32697
X38918Y32697
X46437Y27788
X42637Y38888
X41937Y38888
X41237Y38888
X40537Y38888
X39837Y38888
X39137Y38888
X38437Y38888
X37737Y38888
X37037Y38888
X36337Y38888
X35637Y38888
X34937Y38888
X34237Y38888
X46437Y45488
X46437Y46188
X46437Y46888
X46437Y47588
X46437Y48288
X46437Y48988
T06C0.078700
X44681Y23000
X48145Y23000
X50181Y23000
X53645Y23000
X66677Y23000
X70141Y23000
X72177Y23000
X75641Y23000
X111113Y54917
X114577Y54917
X116613Y54917
X120077Y54917
T07C0.125000
X51913Y4000
X73909Y4000
X118345Y35917
T08C0.130000
X95617Y5989
X95617Y3629
X97587Y4809
X37906Y31602
X35546Y31602
X36726Y29632
M30
