G75*
G70*
%OFA0B0*%
%FSLAX25Y25*%
%IPPOS*%
%LPD*%
%AMOC8*
5,1,8,0,0,1.08239X$1,22.5*
%
%ADD40C,0.00000*%
X0020000Y0020000D02*
G75*
%LPD*%
D40*
X0094960Y0020000D02*
X0020000Y0020000D01*
X0020000Y0253210D01*
X0095960Y0253210D01*
X0094960Y0020000D01*
X0020000Y0258210D02*
G75*
%LPD*%
D40*
X0094960Y0258210D02*
X0020000Y0258210D01*
X0020000Y0491420D01*
X0095960Y0491420D01*
X0094960Y0258210D01*
X0100960Y0020000D02*
G75*
%LPD*%
D40*
X0320320Y0020000D02*
X0320320Y0312370D01*
X0320360Y0322470D01*
X0311160Y0322430D01*
X0311220Y0322510D02*
X0311120Y0322570D01*
X0301330Y0322560D01*
X0291260Y0332830D01*
X0291260Y0332840D02*
X0161760Y0332780D01*
X0151760Y0322370D01*
X0151770Y0322560D02*
X0106270Y0322560D01*
X0100980Y0315360D01*
X0100960Y0315570D02*
X0100960Y0020000D01*
X0320320Y0020000D01*
X0316180Y0142840D02*
X0315880Y0142860D01*
X0315580Y0142920D01*
X0315290Y0143010D01*
X0315020Y0143140D01*
X0314770Y0143310D01*
X0314540Y0143500D01*
X0314330Y0143730D01*
X0314160Y0143980D01*
X0314020Y0144240D01*
X0313920Y0144530D01*
X0313850Y0144820D01*
X0313820Y0145120D01*
X0313830Y0145430D01*
X0313880Y0145730D01*
X0313970Y0146020D01*
X0314090Y0146290D01*
X0314240Y0146550D01*
X0314430Y0146790D01*
X0314650Y0147000D01*
X0314890Y0147180D01*
X0315160Y0147330D01*
X0315440Y0147440D01*
X0315730Y0147520D01*
X0316030Y0147560D01*
X0316330Y0147560D01*
X0316630Y0147520D01*
X0316920Y0147440D01*
X0317200Y0147330D01*
X0317470Y0147180D01*
X0317710Y0147000D01*
X0317930Y0146790D01*
X0318120Y0146550D01*
X0318270Y0146290D01*
X0318390Y0146020D01*
X0318480Y0145730D01*
X0318530Y0145430D01*
X0318540Y0145120D01*
X0318510Y0144820D01*
X0318440Y0144530D01*
X0318340Y0144240D01*
X0318200Y0143980D01*
X0318030Y0143730D01*
X0317820Y0143500D01*
X0317590Y0143310D01*
X0317340Y0143140D01*
X0317070Y0143010D01*
X0316780Y0142920D01*
X0316480Y0142860D01*
X0316180Y0142840D01*
X0309180Y0142840D02*
X0308880Y0142860D01*
X0308580Y0142920D01*
X0308290Y0143010D01*
X0308020Y0143140D01*
X0307770Y0143310D01*
X0307540Y0143500D01*
X0307330Y0143730D01*
X0307160Y0143980D01*
X0307020Y0144240D01*
X0306920Y0144530D01*
X0306850Y0144820D01*
X0306820Y0145120D01*
X0306830Y0145430D01*
X0306880Y0145730D01*
X0306970Y0146020D01*
X0307090Y0146290D01*
X0307240Y0146550D01*
X0307430Y0146790D01*
X0307650Y0147000D01*
X0307890Y0147180D01*
X0308160Y0147330D01*
X0308440Y0147440D01*
X0308730Y0147520D01*
X0309030Y0147560D01*
X0309330Y0147560D01*
X0309630Y0147520D01*
X0309920Y0147440D01*
X0310200Y0147330D01*
X0310470Y0147180D01*
X0310710Y0147000D01*
X0310930Y0146790D01*
X0311120Y0146550D01*
X0311270Y0146290D01*
X0311390Y0146020D01*
X0311480Y0145730D01*
X0311530Y0145430D01*
X0311540Y0145120D01*
X0311510Y0144820D01*
X0311440Y0144530D01*
X0311340Y0144240D01*
X0311200Y0143980D01*
X0311030Y0143730D01*
X0310820Y0143500D01*
X0310590Y0143310D01*
X0310340Y0143140D01*
X0310070Y0143010D01*
X0309780Y0142920D01*
X0309480Y0142860D01*
X0309180Y0142840D01*
X0302180Y0142840D02*
X0301880Y0142860D01*
X0301580Y0142920D01*
X0301290Y0143010D01*
X0301020Y0143140D01*
X0300770Y0143310D01*
X0300540Y0143500D01*
X0300330Y0143730D01*
X0300160Y0143980D01*
X0300020Y0144240D01*
X0299920Y0144530D01*
X0299850Y0144820D01*
X0299820Y0145120D01*
X0299830Y0145430D01*
X0299880Y0145730D01*
X0299970Y0146020D01*
X0300090Y0146290D01*
X0300240Y0146550D01*
X0300430Y0146790D01*
X0300650Y0147000D01*
X0300890Y0147180D01*
X0301160Y0147330D01*
X0301440Y0147440D01*
X0301730Y0147520D01*
X0302030Y0147560D01*
X0302330Y0147560D01*
X0302630Y0147520D01*
X0302920Y0147440D01*
X0303200Y0147330D01*
X0303470Y0147180D01*
X0303710Y0147000D01*
X0303930Y0146790D01*
X0304120Y0146550D01*
X0304270Y0146290D01*
X0304390Y0146020D01*
X0304480Y0145730D01*
X0304530Y0145430D01*
X0304540Y0145120D01*
X0304510Y0144820D01*
X0304440Y0144530D01*
X0304340Y0144240D01*
X0304200Y0143980D01*
X0304030Y0143730D01*
X0303820Y0143500D01*
X0303590Y0143310D01*
X0303340Y0143140D01*
X0303070Y0143010D01*
X0302780Y0142920D01*
X0302480Y0142860D01*
X0302180Y0142840D01*
X0295180Y0142840D02*
X0294880Y0142860D01*
X0294580Y0142920D01*
X0294290Y0143010D01*
X0294020Y0143140D01*
X0293770Y0143310D01*
X0293540Y0143500D01*
X0293330Y0143730D01*
X0293160Y0143980D01*
X0293020Y0144240D01*
X0292920Y0144530D01*
X0292850Y0144820D01*
X0292820Y0145120D01*
X0292830Y0145430D01*
X0292880Y0145730D01*
X0292970Y0146020D01*
X0293090Y0146290D01*
X0293240Y0146550D01*
X0293430Y0146790D01*
X0293650Y0147000D01*
X0293890Y0147180D01*
X0294160Y0147330D01*
X0294440Y0147440D01*
X0294730Y0147520D01*
X0295030Y0147560D01*
X0295330Y0147560D01*
X0295630Y0147520D01*
X0295920Y0147440D01*
X0296200Y0147330D01*
X0296470Y0147180D01*
X0296710Y0147000D01*
X0296930Y0146790D01*
X0297120Y0146550D01*
X0297270Y0146290D01*
X0297390Y0146020D01*
X0297480Y0145730D01*
X0297530Y0145430D01*
X0297540Y0145120D01*
X0297510Y0144820D01*
X0297440Y0144530D01*
X0297340Y0144240D01*
X0297200Y0143980D01*
X0297030Y0143730D01*
X0296820Y0143500D01*
X0296590Y0143310D01*
X0296340Y0143140D01*
X0296070Y0143010D01*
X0295780Y0142920D01*
X0295480Y0142860D01*
X0295180Y0142840D01*
X0288180Y0142840D02*
X0287880Y0142860D01*
X0287580Y0142920D01*
X0287290Y0143010D01*
X0287020Y0143140D01*
X0286770Y0143310D01*
X0286540Y0143500D01*
X0286330Y0143730D01*
X0286160Y0143980D01*
X0286020Y0144240D01*
X0285920Y0144530D01*
X0285850Y0144820D01*
X0285820Y0145120D01*
X0285830Y0145430D01*
X0285880Y0145730D01*
X0285970Y0146020D01*
X0286090Y0146290D01*
X0286240Y0146550D01*
X0286430Y0146790D01*
X0286650Y0147000D01*
X0286890Y0147180D01*
X0287160Y0147330D01*
X0287440Y0147440D01*
X0287730Y0147520D01*
X0288030Y0147560D01*
X0288330Y0147560D01*
X0288630Y0147520D01*
X0288920Y0147440D01*
X0289200Y0147330D01*
X0289470Y0147180D01*
X0289710Y0147000D01*
X0289930Y0146790D01*
X0290120Y0146550D01*
X0290270Y0146290D01*
X0290390Y0146020D01*
X0290480Y0145730D01*
X0290530Y0145430D01*
X0290540Y0145120D01*
X0290510Y0144820D01*
X0290440Y0144530D01*
X0290340Y0144240D01*
X0290200Y0143980D01*
X0290030Y0143730D01*
X0289820Y0143500D01*
X0289590Y0143310D01*
X0289340Y0143140D01*
X0289070Y0143010D01*
X0288780Y0142920D01*
X0288480Y0142860D01*
X0288180Y0142840D01*
X0281180Y0142840D02*
X0280880Y0142860D01*
X0280580Y0142920D01*
X0280290Y0143010D01*
X0280020Y0143140D01*
X0279770Y0143310D01*
X0279540Y0143500D01*
X0279330Y0143730D01*
X0279160Y0143980D01*
X0279020Y0144240D01*
X0278920Y0144530D01*
X0278850Y0144820D01*
X0278820Y0145120D01*
X0278830Y0145430D01*
X0278880Y0145730D01*
X0278970Y0146020D01*
X0279090Y0146290D01*
X0279240Y0146550D01*
X0279430Y0146790D01*
X0279650Y0147000D01*
X0279890Y0147180D01*
X0280160Y0147330D01*
X0280440Y0147440D01*
X0280730Y0147520D01*
X0281030Y0147560D01*
X0281330Y0147560D01*
X0281630Y0147520D01*
X0281920Y0147440D01*
X0282200Y0147330D01*
X0282470Y0147180D01*
X0282710Y0147000D01*
X0282930Y0146790D01*
X0283120Y0146550D01*
X0283270Y0146290D01*
X0283390Y0146020D01*
X0283480Y0145730D01*
X0283530Y0145430D01*
X0283540Y0145120D01*
X0283510Y0144820D01*
X0283440Y0144530D01*
X0283340Y0144240D01*
X0283200Y0143980D01*
X0283030Y0143730D01*
X0282820Y0143500D01*
X0282590Y0143310D01*
X0282340Y0143140D01*
X0282070Y0143010D01*
X0281780Y0142920D01*
X0281480Y0142860D01*
X0281180Y0142840D01*
X0274180Y0142840D02*
X0273880Y0142860D01*
X0273580Y0142920D01*
X0273290Y0143010D01*
X0273020Y0143140D01*
X0272770Y0143310D01*
X0272540Y0143500D01*
X0272330Y0143730D01*
X0272160Y0143980D01*
X0272020Y0144240D01*
X0271920Y0144530D01*
X0271850Y0144820D01*
X0271820Y0145120D01*
X0271830Y0145430D01*
X0271880Y0145730D01*
X0271970Y0146020D01*
X0272090Y0146290D01*
X0272240Y0146550D01*
X0272430Y0146790D01*
X0272650Y0147000D01*
X0272890Y0147180D01*
X0273160Y0147330D01*
X0273440Y0147440D01*
X0273730Y0147520D01*
X0274030Y0147560D01*
X0274330Y0147560D01*
X0274630Y0147520D01*
X0274920Y0147440D01*
X0275200Y0147330D01*
X0275470Y0147180D01*
X0275710Y0147000D01*
X0275930Y0146790D01*
X0276120Y0146550D01*
X0276270Y0146290D01*
X0276390Y0146020D01*
X0276480Y0145730D01*
X0276530Y0145430D01*
X0276540Y0145120D01*
X0276510Y0144820D01*
X0276440Y0144530D01*
X0276340Y0144240D01*
X0276200Y0143980D01*
X0276030Y0143730D01*
X0275820Y0143500D01*
X0275590Y0143310D01*
X0275340Y0143140D01*
X0275070Y0143010D01*
X0274780Y0142920D01*
X0274480Y0142860D01*
X0274180Y0142840D01*
X0267180Y0142840D02*
X0266880Y0142860D01*
X0266580Y0142920D01*
X0266290Y0143010D01*
X0266020Y0143140D01*
X0265770Y0143310D01*
X0265540Y0143500D01*
X0265330Y0143730D01*
X0265160Y0143980D01*
X0265020Y0144240D01*
X0264920Y0144530D01*
X0264850Y0144820D01*
X0264820Y0145120D01*
X0264830Y0145430D01*
X0264880Y0145730D01*
X0264970Y0146020D01*
X0265090Y0146290D01*
X0265240Y0146550D01*
X0265430Y0146790D01*
X0265650Y0147000D01*
X0265890Y0147180D01*
X0266160Y0147330D01*
X0266440Y0147440D01*
X0266730Y0147520D01*
X0267030Y0147560D01*
X0267330Y0147560D01*
X0267630Y0147520D01*
X0267920Y0147440D01*
X0268200Y0147330D01*
X0268470Y0147180D01*
X0268710Y0147000D01*
X0268930Y0146790D01*
X0269120Y0146550D01*
X0269270Y0146290D01*
X0269390Y0146020D01*
X0269480Y0145730D01*
X0269530Y0145430D01*
X0269540Y0145120D01*
X0269510Y0144820D01*
X0269440Y0144530D01*
X0269340Y0144240D01*
X0269200Y0143980D01*
X0269030Y0143730D01*
X0268820Y0143500D01*
X0268590Y0143310D01*
X0268340Y0143140D01*
X0268070Y0143010D01*
X0267780Y0142920D01*
X0267480Y0142860D01*
X0267180Y0142840D01*
X0260180Y0142840D02*
X0259880Y0142860D01*
X0259580Y0142920D01*
X0259290Y0143010D01*
X0259020Y0143140D01*
X0258770Y0143310D01*
X0258540Y0143500D01*
X0258330Y0143730D01*
X0258160Y0143980D01*
X0258020Y0144240D01*
X0257920Y0144530D01*
X0257850Y0144820D01*
X0257820Y0145120D01*
X0257830Y0145430D01*
X0257880Y0145730D01*
X0257970Y0146020D01*
X0258090Y0146290D01*
X0258240Y0146550D01*
X0258430Y0146790D01*
X0258650Y0147000D01*
X0258890Y0147180D01*
X0259160Y0147330D01*
X0259440Y0147440D01*
X0259730Y0147520D01*
X0260030Y0147560D01*
X0260330Y0147560D01*
X0260630Y0147520D01*
X0260920Y0147440D01*
X0261200Y0147330D01*
X0261470Y0147180D01*
X0261710Y0147000D01*
X0261930Y0146790D01*
X0262120Y0146550D01*
X0262270Y0146290D01*
X0262390Y0146020D01*
X0262480Y0145730D01*
X0262530Y0145430D01*
X0262540Y0145120D01*
X0262510Y0144820D01*
X0262440Y0144530D01*
X0262340Y0144240D01*
X0262200Y0143980D01*
X0262030Y0143730D01*
X0261820Y0143500D01*
X0261590Y0143310D01*
X0261340Y0143140D01*
X0261070Y0143010D01*
X0260780Y0142920D01*
X0260480Y0142860D01*
X0260180Y0142840D01*
X0253180Y0142840D02*
X0252880Y0142860D01*
X0252580Y0142920D01*
X0252290Y0143010D01*
X0252020Y0143140D01*
X0251770Y0143310D01*
X0251540Y0143500D01*
X0251330Y0143730D01*
X0251160Y0143980D01*
X0251020Y0144240D01*
X0250920Y0144530D01*
X0250850Y0144820D01*
X0250820Y0145120D01*
X0250830Y0145430D01*
X0250880Y0145730D01*
X0250970Y0146020D01*
X0251090Y0146290D01*
X0251240Y0146550D01*
X0251430Y0146790D01*
X0251650Y0147000D01*
X0251890Y0147180D01*
X0252160Y0147330D01*
X0252440Y0147440D01*
X0252730Y0147520D01*
X0253030Y0147560D01*
X0253330Y0147560D01*
X0253630Y0147520D01*
X0253920Y0147440D01*
X0254200Y0147330D01*
X0254470Y0147180D01*
X0254710Y0147000D01*
X0254930Y0146790D01*
X0255120Y0146550D01*
X0255270Y0146290D01*
X0255390Y0146020D01*
X0255480Y0145730D01*
X0255530Y0145430D01*
X0255540Y0145120D01*
X0255510Y0144820D01*
X0255440Y0144530D01*
X0255340Y0144240D01*
X0255200Y0143980D01*
X0255030Y0143730D01*
X0254820Y0143500D01*
X0254590Y0143310D01*
X0254340Y0143140D01*
X0254070Y0143010D01*
X0253780Y0142920D01*
X0253480Y0142860D01*
X0253180Y0142840D01*
X0240180Y0143630D02*
X0239930Y0143650D01*
X0239690Y0143710D01*
X0239470Y0143800D01*
X0239260Y0143930D01*
X0239070Y0144090D01*
X0238910Y0144280D01*
X0238780Y0144490D01*
X0238690Y0144710D01*
X0238630Y0144950D01*
X0238610Y0145200D01*
X0238630Y0145450D01*
X0238690Y0145690D01*
X0238780Y0145910D01*
X0238910Y0146120D01*
X0239070Y0146310D01*
X0239260Y0146470D01*
X0239470Y0146600D01*
X0239690Y0146690D01*
X0239930Y0146750D01*
X0240180Y0146770D01*
X0240430Y0146750D01*
X0240670Y0146690D01*
X0240890Y0146600D01*
X0241100Y0146470D01*
X0241290Y0146310D01*
X0241450Y0146120D01*
X0241580Y0145910D01*
X0241670Y0145690D01*
X0241730Y0145450D01*
X0241750Y0145200D01*
X0241730Y0144950D01*
X0241670Y0144710D01*
X0241580Y0144490D01*
X0241450Y0144280D01*
X0241290Y0144090D01*
X0241100Y0143930D01*
X0240890Y0143800D01*
X0240670Y0143710D01*
X0240430Y0143650D01*
X0240180Y0143630D01*
X0230180Y0143630D02*
X0229930Y0143650D01*
X0229690Y0143710D01*
X0229470Y0143800D01*
X0229260Y0143930D01*
X0229070Y0144090D01*
X0228910Y0144280D01*
X0228780Y0144490D01*
X0228690Y0144710D01*
X0228630Y0144950D01*
X0228610Y0145200D01*
X0228630Y0145450D01*
X0228690Y0145690D01*
X0228780Y0145910D01*
X0228910Y0146120D01*
X0229070Y0146310D01*
X0229260Y0146470D01*
X0229470Y0146600D01*
X0229690Y0146690D01*
X0229930Y0146750D01*
X0230180Y0146770D01*
X0230430Y0146750D01*
X0230670Y0146690D01*
X0230890Y0146600D01*
X0231100Y0146470D01*
X0231290Y0146310D01*
X0231450Y0146120D01*
X0231580Y0145910D01*
X0231670Y0145690D01*
X0231730Y0145450D01*
X0231750Y0145200D01*
X0231730Y0144950D01*
X0231670Y0144710D01*
X0231580Y0144490D01*
X0231450Y0144280D01*
X0231290Y0144090D01*
X0231100Y0143930D01*
X0230890Y0143800D01*
X0230670Y0143710D01*
X0230430Y0143650D01*
X0230180Y0143630D01*
X0220180Y0143630D02*
X0219930Y0143650D01*
X0219690Y0143710D01*
X0219470Y0143800D01*
X0219260Y0143930D01*
X0219070Y0144090D01*
X0218910Y0144280D01*
X0218780Y0144490D01*
X0218690Y0144710D01*
X0218630Y0144950D01*
X0218610Y0145200D01*
X0218630Y0145450D01*
X0218690Y0145690D01*
X0218780Y0145910D01*
X0218910Y0146120D01*
X0219070Y0146310D01*
X0219260Y0146470D01*
X0219470Y0146600D01*
X0219690Y0146690D01*
X0219930Y0146750D01*
X0220180Y0146770D01*
X0220430Y0146750D01*
X0220670Y0146690D01*
X0220890Y0146600D01*
X0221100Y0146470D01*
X0221290Y0146310D01*
X0221450Y0146120D01*
X0221580Y0145910D01*
X0221670Y0145690D01*
X0221730Y0145450D01*
X0221750Y0145200D01*
X0221730Y0144950D01*
X0221670Y0144710D01*
X0221580Y0144490D01*
X0221450Y0144280D01*
X0221290Y0144090D01*
X0221100Y0143930D01*
X0220890Y0143800D01*
X0220670Y0143710D01*
X0220430Y0143650D01*
X0220180Y0143630D01*
X0210180Y0144020D02*
X0209970Y0144040D01*
X0209770Y0144100D01*
X0209570Y0144190D01*
X0209400Y0144310D01*
X0209260Y0144460D01*
X0209140Y0144640D01*
X0209060Y0144840D01*
X0209010Y0145040D01*
X0209000Y0145250D01*
X0209030Y0145460D01*
X0209090Y0145660D01*
X0209200Y0145850D01*
X0209330Y0146020D01*
X0209490Y0146150D01*
X0209670Y0146260D01*
X0209870Y0146340D01*
X0210070Y0146380D01*
X0210290Y0146380D01*
X0210490Y0146340D01*
X0210690Y0146260D01*
X0210870Y0146150D01*
X0211030Y0146020D01*
X0211160Y0145850D01*
X0211270Y0145660D01*
X0211330Y0145460D01*
X0211360Y0145250D01*
X0211350Y0145040D01*
X0211300Y0144840D01*
X0211220Y0144640D01*
X0211100Y0144460D01*
X0210960Y0144310D01*
X0210790Y0144190D01*
X0210590Y0144100D01*
X0210390Y0144040D01*
X0210180Y0144020D01*
X0200180Y0144020D02*
X0199970Y0144040D01*
X0199770Y0144100D01*
X0199570Y0144190D01*
X0199400Y0144310D01*
X0199260Y0144460D01*
X0199140Y0144640D01*
X0199060Y0144840D01*
X0199010Y0145040D01*
X0199000Y0145250D01*
X0199030Y0145460D01*
X0199090Y0145660D01*
X0199200Y0145850D01*
X0199330Y0146020D01*
X0199490Y0146150D01*
X0199670Y0146260D01*
X0199870Y0146340D01*
X0200070Y0146380D01*
X0200290Y0146380D01*
X0200490Y0146340D01*
X0200690Y0146260D01*
X0200870Y0146150D01*
X0201030Y0146020D01*
X0201160Y0145850D01*
X0201270Y0145660D01*
X0201330Y0145460D01*
X0201360Y0145250D01*
X0201350Y0145040D01*
X0201300Y0144840D01*
X0201220Y0144640D01*
X0201100Y0144460D01*
X0200960Y0144310D01*
X0200790Y0144190D01*
X0200590Y0144100D01*
X0200390Y0144040D01*
X0200180Y0144020D01*
X0190180Y0143630D02*
X0189930Y0143650D01*
X0189690Y0143710D01*
X0189470Y0143800D01*
X0189260Y0143930D01*
X0189070Y0144090D01*
X0188910Y0144280D01*
X0188780Y0144490D01*
X0188690Y0144710D01*
X0188630Y0144950D01*
X0188610Y0145200D01*
X0188630Y0145450D01*
X0188690Y0145690D01*
X0188780Y0145910D01*
X0188910Y0146120D01*
X0189070Y0146310D01*
X0189260Y0146470D01*
X0189470Y0146600D01*
X0189690Y0146690D01*
X0189930Y0146750D01*
X0190180Y0146770D01*
X0190430Y0146750D01*
X0190670Y0146690D01*
X0190890Y0146600D01*
X0191100Y0146470D01*
X0191290Y0146310D01*
X0191450Y0146120D01*
X0191580Y0145910D01*
X0191670Y0145690D01*
X0191730Y0145450D01*
X0191750Y0145200D01*
X0191730Y0144950D01*
X0191670Y0144710D01*
X0191580Y0144490D01*
X0191450Y0144280D01*
X0191290Y0144090D01*
X0191100Y0143930D01*
X0190890Y0143800D01*
X0190670Y0143710D01*
X0190430Y0143650D01*
X0190180Y0143630D01*
X0180180Y0143630D02*
X0179930Y0143650D01*
X0179690Y0143710D01*
X0179470Y0143800D01*
X0179260Y0143930D01*
X0179070Y0144090D01*
X0178910Y0144280D01*
X0178780Y0144490D01*
X0178690Y0144710D01*
X0178630Y0144950D01*
X0178610Y0145200D01*
X0178630Y0145450D01*
X0178690Y0145690D01*
X0178780Y0145910D01*
X0178910Y0146120D01*
X0179070Y0146310D01*
X0179260Y0146470D01*
X0179470Y0146600D01*
X0179690Y0146690D01*
X0179930Y0146750D01*
X0180180Y0146770D01*
X0180430Y0146750D01*
X0180670Y0146690D01*
X0180890Y0146600D01*
X0181100Y0146470D01*
X0181290Y0146310D01*
X0181450Y0146120D01*
X0181580Y0145910D01*
X0181670Y0145690D01*
X0181730Y0145450D01*
X0181750Y0145200D01*
X0181730Y0144950D01*
X0181670Y0144710D01*
X0181580Y0144490D01*
X0181450Y0144280D01*
X0181290Y0144090D01*
X0181100Y0143930D01*
X0180890Y0143800D01*
X0180670Y0143710D01*
X0180430Y0143650D01*
X0180180Y0143630D01*
X0170180Y0143630D02*
X0169930Y0143650D01*
X0169690Y0143710D01*
X0169470Y0143800D01*
X0169260Y0143930D01*
X0169070Y0144090D01*
X0168910Y0144280D01*
X0168780Y0144490D01*
X0168690Y0144710D01*
X0168630Y0144950D01*
X0168610Y0145200D01*
X0168630Y0145450D01*
X0168690Y0145690D01*
X0168780Y0145910D01*
X0168910Y0146120D01*
X0169070Y0146310D01*
X0169260Y0146470D01*
X0169470Y0146600D01*
X0169690Y0146690D01*
X0169930Y0146750D01*
X0170180Y0146770D01*
X0170430Y0146750D01*
X0170670Y0146690D01*
X0170890Y0146600D01*
X0171100Y0146470D01*
X0171290Y0146310D01*
X0171450Y0146120D01*
X0171580Y0145910D01*
X0171670Y0145690D01*
X0171730Y0145450D01*
X0171750Y0145200D01*
X0171730Y0144950D01*
X0171670Y0144710D01*
X0171580Y0144490D01*
X0171450Y0144280D01*
X0171290Y0144090D01*
X0171100Y0143930D01*
X0170890Y0143800D01*
X0170670Y0143710D01*
X0170430Y0143650D01*
X0170180Y0143630D01*
X0160180Y0143630D02*
X0159930Y0143650D01*
X0159690Y0143710D01*
X0159470Y0143800D01*
X0159260Y0143930D01*
X0159070Y0144090D01*
X0158910Y0144280D01*
X0158780Y0144490D01*
X0158690Y0144710D01*
X0158630Y0144950D01*
X0158610Y0145200D01*
X0158630Y0145450D01*
X0158690Y0145690D01*
X0158780Y0145910D01*
X0158910Y0146120D01*
X0159070Y0146310D01*
X0159260Y0146470D01*
X0159470Y0146600D01*
X0159690Y0146690D01*
X0159930Y0146750D01*
X0160180Y0146770D01*
X0160430Y0146750D01*
X0160670Y0146690D01*
X0160890Y0146600D01*
X0161100Y0146470D01*
X0161290Y0146310D01*
X0161450Y0146120D01*
X0161580Y0145910D01*
X0161670Y0145690D01*
X0161730Y0145450D01*
X0161750Y0145200D01*
X0161730Y0144950D01*
X0161670Y0144710D01*
X0161580Y0144490D01*
X0161450Y0144280D01*
X0161290Y0144090D01*
X0161100Y0143930D01*
X0160890Y0143800D01*
X0160670Y0143710D01*
X0160430Y0143650D01*
X0160180Y0143630D01*
X0150180Y0143630D02*
X0149930Y0143650D01*
X0149690Y0143710D01*
X0149470Y0143800D01*
X0149260Y0143930D01*
X0149070Y0144090D01*
X0148910Y0144280D01*
X0148780Y0144490D01*
X0148690Y0144710D01*
X0148630Y0144950D01*
X0148610Y0145200D01*
X0148630Y0145450D01*
X0148690Y0145690D01*
X0148780Y0145910D01*
X0148910Y0146120D01*
X0149070Y0146310D01*
X0149260Y0146470D01*
X0149470Y0146600D01*
X0149690Y0146690D01*
X0149930Y0146750D01*
X0150180Y0146770D01*
X0150430Y0146750D01*
X0150670Y0146690D01*
X0150890Y0146600D01*
X0151100Y0146470D01*
X0151290Y0146310D01*
X0151450Y0146120D01*
X0151580Y0145910D01*
X0151670Y0145690D01*
X0151730Y0145450D01*
X0151750Y0145200D01*
X0151730Y0144950D01*
X0151670Y0144710D01*
X0151580Y0144490D01*
X0151450Y0144280D01*
X0151290Y0144090D01*
X0151100Y0143930D01*
X0150890Y0143800D01*
X0150670Y0143710D01*
X0150430Y0143650D01*
X0150180Y0143630D01*
X0139180Y0142840D02*
X0138880Y0142860D01*
X0138580Y0142920D01*
X0138290Y0143010D01*
X0138020Y0143140D01*
X0137770Y0143310D01*
X0137540Y0143500D01*
X0137330Y0143730D01*
X0137160Y0143980D01*
X0137020Y0144240D01*
X0136920Y0144530D01*
X0136850Y0144820D01*
X0136820Y0145120D01*
X0136830Y0145430D01*
X0136880Y0145730D01*
X0136970Y0146020D01*
X0137090Y0146290D01*
X0137240Y0146550D01*
X0137430Y0146790D01*
X0137650Y0147000D01*
X0137890Y0147180D01*
X0138160Y0147330D01*
X0138440Y0147440D01*
X0138730Y0147520D01*
X0139030Y0147560D01*
X0139330Y0147560D01*
X0139630Y0147520D01*
X0139920Y0147440D01*
X0140200Y0147330D01*
X0140470Y0147180D01*
X0140710Y0147000D01*
X0140930Y0146790D01*
X0141120Y0146550D01*
X0141270Y0146290D01*
X0141390Y0146020D01*
X0141480Y0145730D01*
X0141530Y0145430D01*
X0141540Y0145120D01*
X0141510Y0144820D01*
X0141440Y0144530D01*
X0141340Y0144240D01*
X0141200Y0143980D01*
X0141030Y0143730D01*
X0140820Y0143500D01*
X0140590Y0143310D01*
X0140340Y0143140D01*
X0140070Y0143010D01*
X0139780Y0142920D01*
X0139480Y0142860D01*
X0139180Y0142840D01*
X0132180Y0142840D02*
X0131880Y0142860D01*
X0131580Y0142920D01*
X0131290Y0143010D01*
X0131020Y0143140D01*
X0130770Y0143310D01*
X0130540Y0143500D01*
X0130330Y0143730D01*
X0130160Y0143980D01*
X0130020Y0144240D01*
X0129920Y0144530D01*
X0129850Y0144820D01*
X0129820Y0145120D01*
X0129830Y0145430D01*
X0129880Y0145730D01*
X0129970Y0146020D01*
X0130090Y0146290D01*
X0130240Y0146550D01*
X0130430Y0146790D01*
X0130650Y0147000D01*
X0130890Y0147180D01*
X0131160Y0147330D01*
X0131440Y0147440D01*
X0131730Y0147520D01*
X0132030Y0147560D01*
X0132330Y0147560D01*
X0132630Y0147520D01*
X0132920Y0147440D01*
X0133200Y0147330D01*
X0133470Y0147180D01*
X0133710Y0147000D01*
X0133930Y0146790D01*
X0134120Y0146550D01*
X0134270Y0146290D01*
X0134390Y0146020D01*
X0134480Y0145730D01*
X0134530Y0145430D01*
X0134540Y0145120D01*
X0134510Y0144820D01*
X0134440Y0144530D01*
X0134340Y0144240D01*
X0134200Y0143980D01*
X0134030Y0143730D01*
X0133820Y0143500D01*
X0133590Y0143310D01*
X0133340Y0143140D01*
X0133070Y0143010D01*
X0132780Y0142920D01*
X0132480Y0142860D01*
X0132180Y0142840D01*
X0125180Y0142840D02*
X0124880Y0142860D01*
X0124580Y0142920D01*
X0124290Y0143010D01*
X0124020Y0143140D01*
X0123770Y0143310D01*
X0123540Y0143500D01*
X0123330Y0143730D01*
X0123160Y0143980D01*
X0123020Y0144240D01*
X0122920Y0144530D01*
X0122850Y0144820D01*
X0122820Y0145120D01*
X0122830Y0145430D01*
X0122880Y0145730D01*
X0122970Y0146020D01*
X0123090Y0146290D01*
X0123240Y0146550D01*
X0123430Y0146790D01*
X0123650Y0147000D01*
X0123890Y0147180D01*
X0124160Y0147330D01*
X0124440Y0147440D01*
X0124730Y0147520D01*
X0125030Y0147560D01*
X0125330Y0147560D01*
X0125630Y0147520D01*
X0125920Y0147440D01*
X0126200Y0147330D01*
X0126470Y0147180D01*
X0126710Y0147000D01*
X0126930Y0146790D01*
X0127120Y0146550D01*
X0127270Y0146290D01*
X0127390Y0146020D01*
X0127480Y0145730D01*
X0127530Y0145430D01*
X0127540Y0145120D01*
X0127510Y0144820D01*
X0127440Y0144530D01*
X0127340Y0144240D01*
X0127200Y0143980D01*
X0127030Y0143730D01*
X0126820Y0143500D01*
X0126590Y0143310D01*
X0126340Y0143140D01*
X0126070Y0143010D01*
X0125780Y0142920D01*
X0125480Y0142860D01*
X0125180Y0142840D01*
X0118180Y0142840D02*
X0117880Y0142860D01*
X0117580Y0142920D01*
X0117290Y0143010D01*
X0117020Y0143140D01*
X0116770Y0143310D01*
X0116540Y0143500D01*
X0116330Y0143730D01*
X0116160Y0143980D01*
X0116020Y0144240D01*
X0115920Y0144530D01*
X0115850Y0144820D01*
X0115820Y0145120D01*
X0115830Y0145430D01*
X0115880Y0145730D01*
X0115970Y0146020D01*
X0116090Y0146290D01*
X0116240Y0146550D01*
X0116430Y0146790D01*
X0116650Y0147000D01*
X0116890Y0147180D01*
X0117160Y0147330D01*
X0117440Y0147440D01*
X0117730Y0147520D01*
X0118030Y0147560D01*
X0118330Y0147560D01*
X0118630Y0147520D01*
X0118920Y0147440D01*
X0119200Y0147330D01*
X0119470Y0147180D01*
X0119710Y0147000D01*
X0119930Y0146790D01*
X0120120Y0146550D01*
X0120270Y0146290D01*
X0120390Y0146020D01*
X0120480Y0145730D01*
X0120530Y0145430D01*
X0120540Y0145120D01*
X0120510Y0144820D01*
X0120440Y0144530D01*
X0120340Y0144240D01*
X0120200Y0143980D01*
X0120030Y0143730D01*
X0119820Y0143500D01*
X0119590Y0143310D01*
X0119340Y0143140D01*
X0119070Y0143010D01*
X0118780Y0142920D01*
X0118480Y0142860D01*
X0118180Y0142840D01*
X0111180Y0142840D02*
X0110880Y0142860D01*
X0110580Y0142920D01*
X0110290Y0143010D01*
X0110020Y0143140D01*
X0109770Y0143310D01*
X0109540Y0143500D01*
X0109330Y0143730D01*
X0109160Y0143980D01*
X0109020Y0144240D01*
X0108920Y0144530D01*
X0108850Y0144820D01*
X0108820Y0145120D01*
X0108830Y0145430D01*
X0108880Y0145730D01*
X0108970Y0146020D01*
X0109090Y0146290D01*
X0109240Y0146550D01*
X0109430Y0146790D01*
X0109650Y0147000D01*
X0109890Y0147180D01*
X0110160Y0147330D01*
X0110440Y0147440D01*
X0110730Y0147520D01*
X0111030Y0147560D01*
X0111330Y0147560D01*
X0111630Y0147520D01*
X0111920Y0147440D01*
X0112200Y0147330D01*
X0112470Y0147180D01*
X0112710Y0147000D01*
X0112930Y0146790D01*
X0113120Y0146550D01*
X0113270Y0146290D01*
X0113390Y0146020D01*
X0113480Y0145730D01*
X0113530Y0145430D01*
X0113540Y0145120D01*
X0113510Y0144820D01*
X0113440Y0144530D01*
X0113340Y0144240D01*
X0113200Y0143980D01*
X0113030Y0143730D01*
X0112820Y0143500D01*
X0112590Y0143310D01*
X0112340Y0143140D01*
X0112070Y0143010D01*
X0111780Y0142920D01*
X0111480Y0142860D01*
X0111180Y0142840D01*
X0104180Y0142840D02*
X0103880Y0142860D01*
X0103580Y0142920D01*
X0103290Y0143010D01*
X0103020Y0143140D01*
X0102770Y0143310D01*
X0102540Y0143500D01*
X0102330Y0143730D01*
X0102160Y0143980D01*
X0102020Y0144240D01*
X0101920Y0144530D01*
X0101850Y0144820D01*
X0101820Y0145120D01*
X0101830Y0145430D01*
X0101880Y0145730D01*
X0101970Y0146020D01*
X0102090Y0146290D01*
X0102240Y0146550D01*
X0102430Y0146790D01*
X0102650Y0147000D01*
X0102890Y0147180D01*
X0103160Y0147330D01*
X0103440Y0147440D01*
X0103730Y0147520D01*
X0104030Y0147560D01*
X0104330Y0147560D01*
X0104630Y0147520D01*
X0104920Y0147440D01*
X0105200Y0147330D01*
X0105470Y0147180D01*
X0105710Y0147000D01*
X0105930Y0146790D01*
X0106120Y0146550D01*
X0106270Y0146290D01*
X0106390Y0146020D01*
X0106480Y0145730D01*
X0106530Y0145430D01*
X0106540Y0145120D01*
X0106510Y0144820D01*
X0106440Y0144530D01*
X0106340Y0144240D01*
X0106200Y0143980D01*
X0106030Y0143730D01*
X0105820Y0143500D01*
X0105590Y0143310D01*
X0105340Y0143140D01*
X0105070Y0143010D01*
X0104780Y0142920D01*
X0104480Y0142860D01*
X0104180Y0142840D01*
X0115020Y0035930D02*
X0114760Y0035950D01*
X0114500Y0036010D01*
X0114250Y0036110D01*
X0114020Y0036240D01*
X0113820Y0036400D01*
X0113640Y0036600D01*
X0113490Y0036820D01*
X0113370Y0037050D01*
X0113290Y0037310D01*
X0113250Y0037570D01*
X0113250Y0037830D01*
X0113290Y0038090D01*
X0113370Y0038350D01*
X0113490Y0038590D01*
X0113640Y0038800D01*
X0113820Y0039000D01*
X0114020Y0039160D01*
X0114250Y0039290D01*
X0114500Y0039390D01*
X0114760Y0039450D01*
X0115020Y0039470D01*
X0115280Y0039450D01*
X0115540Y0039390D01*
X0115790Y0039290D01*
X0116020Y0039160D01*
X0116220Y0039000D01*
X0116400Y0038800D01*
X0116550Y0038580D01*
X0116670Y0038350D01*
X0116750Y0038090D01*
X0116790Y0037830D01*
X0116790Y0037570D01*
X0116750Y0037310D01*
X0116670Y0037050D01*
X0116550Y0036810D01*
X0116400Y0036600D01*
X0116220Y0036400D01*
X0116020Y0036240D01*
X0115790Y0036110D01*
X0115540Y0036010D01*
X0115280Y0035950D01*
X0115020Y0035930D01*
X0132340Y0035930D02*
X0132080Y0035950D01*
X0131820Y0036010D01*
X0131570Y0036110D01*
X0131340Y0036240D01*
X0131140Y0036400D01*
X0130960Y0036600D01*
X0130810Y0036820D01*
X0130690Y0037050D01*
X0130610Y0037310D01*
X0130570Y0037570D01*
X0130570Y0037830D01*
X0130610Y0038090D01*
X0130690Y0038350D01*
X0130810Y0038590D01*
X0130960Y0038800D01*
X0131140Y0039000D01*
X0131340Y0039160D01*
X0131570Y0039290D01*
X0131820Y0039390D01*
X0132080Y0039450D01*
X0132340Y0039470D01*
X0132600Y0039450D01*
X0132860Y0039390D01*
X0133110Y0039290D01*
X0133340Y0039160D01*
X0133540Y0039000D01*
X0133720Y0038800D01*
X0133870Y0038580D01*
X0133990Y0038350D01*
X0134070Y0038090D01*
X0134110Y0037830D01*
X0134110Y0037570D01*
X0134070Y0037310D01*
X0133990Y0037050D01*
X0133870Y0036810D01*
X0133720Y0036600D01*
X0133540Y0036400D01*
X0133340Y0036240D01*
X0133110Y0036110D01*
X0132860Y0036010D01*
X0132600Y0035950D01*
X0132340Y0035930D01*
X0205180Y0034840D02*
X0204880Y0034860D01*
X0204580Y0034920D01*
X0204290Y0035010D01*
X0204020Y0035140D01*
X0203770Y0035310D01*
X0203540Y0035500D01*
X0203330Y0035730D01*
X0203160Y0035980D01*
X0203020Y0036240D01*
X0202920Y0036530D01*
X0202850Y0036820D01*
X0202820Y0037120D01*
X0202830Y0037430D01*
X0202880Y0037730D01*
X0202970Y0038020D01*
X0203090Y0038290D01*
X0203240Y0038550D01*
X0203430Y0038790D01*
X0203650Y0039000D01*
X0203890Y0039180D01*
X0204160Y0039330D01*
X0204440Y0039440D01*
X0204730Y0039520D01*
X0205030Y0039560D01*
X0205330Y0039560D01*
X0205630Y0039520D01*
X0205920Y0039440D01*
X0206200Y0039330D01*
X0206470Y0039180D01*
X0206710Y0039000D01*
X0206930Y0038790D01*
X0207120Y0038550D01*
X0207270Y0038290D01*
X0207390Y0038020D01*
X0207480Y0037730D01*
X0207530Y0037430D01*
X0207540Y0037120D01*
X0207510Y0036820D01*
X0207440Y0036530D01*
X0207340Y0036240D01*
X0207200Y0035980D01*
X0207030Y0035730D01*
X0206820Y0035500D01*
X0206590Y0035310D01*
X0206340Y0035140D01*
X0206070Y0035010D01*
X0205780Y0034920D01*
X0205480Y0034860D01*
X0205180Y0034840D01*
X0205180Y0027840D02*
X0204880Y0027860D01*
X0204580Y0027920D01*
X0204290Y0028010D01*
X0204020Y0028140D01*
X0203770Y0028310D01*
X0203540Y0028500D01*
X0203330Y0028730D01*
X0203160Y0028980D01*
X0203020Y0029240D01*
X0202920Y0029530D01*
X0202850Y0029820D01*
X0202820Y0030120D01*
X0202830Y0030430D01*
X0202880Y0030730D01*
X0202970Y0031020D01*
X0203090Y0031290D01*
X0203240Y0031550D01*
X0203430Y0031790D01*
X0203650Y0032000D01*
X0203890Y0032180D01*
X0204160Y0032330D01*
X0204440Y0032440D01*
X0204730Y0032520D01*
X0205030Y0032560D01*
X0205330Y0032560D01*
X0205630Y0032520D01*
X0205920Y0032440D01*
X0206200Y0032330D01*
X0206470Y0032180D01*
X0206710Y0032000D01*
X0206930Y0031790D01*
X0207120Y0031550D01*
X0207270Y0031290D01*
X0207390Y0031020D01*
X0207480Y0030730D01*
X0207530Y0030430D01*
X0207540Y0030120D01*
X0207510Y0029820D01*
X0207440Y0029530D01*
X0207340Y0029240D01*
X0207200Y0028980D01*
X0207030Y0028730D01*
X0206820Y0028500D01*
X0206590Y0028310D01*
X0206340Y0028140D01*
X0206070Y0028010D01*
X0205780Y0027920D01*
X0205480Y0027860D01*
X0205180Y0027840D01*
X0205180Y0020840D02*
X0204880Y0020860D01*
X0204580Y0020920D01*
X0204290Y0021010D01*
X0204020Y0021140D01*
X0203770Y0021310D01*
X0203540Y0021500D01*
X0203330Y0021730D01*
X0203160Y0021980D01*
X0203020Y0022240D01*
X0202920Y0022530D01*
X0202850Y0022820D01*
X0202820Y0023120D01*
X0202830Y0023430D01*
X0202880Y0023730D01*
X0202970Y0024020D01*
X0203090Y0024290D01*
X0203240Y0024550D01*
X0203430Y0024790D01*
X0203650Y0025000D01*
X0203890Y0025180D01*
X0204160Y0025330D01*
X0204440Y0025440D01*
X0204730Y0025520D01*
X0205030Y0025560D01*
X0205330Y0025560D01*
X0205630Y0025520D01*
X0205920Y0025440D01*
X0206200Y0025330D01*
X0206470Y0025180D01*
X0206710Y0025000D01*
X0206930Y0024790D01*
X0207120Y0024550D01*
X0207270Y0024290D01*
X0207390Y0024020D01*
X0207480Y0023730D01*
X0207530Y0023430D01*
X0207540Y0023120D01*
X0207510Y0022820D01*
X0207440Y0022530D01*
X0207340Y0022240D01*
X0207200Y0021980D01*
X0207030Y0021730D01*
X0206820Y0021500D01*
X0206590Y0021310D01*
X0206340Y0021140D01*
X0206070Y0021010D01*
X0205780Y0020920D01*
X0205480Y0020860D01*
X0205180Y0020840D01*
X0205180Y0041840D02*
X0204880Y0041860D01*
X0204580Y0041920D01*
X0204290Y0042010D01*
X0204020Y0042140D01*
X0203770Y0042310D01*
X0203540Y0042500D01*
X0203330Y0042730D01*
X0203160Y0042980D01*
X0203020Y0043240D01*
X0202920Y0043530D01*
X0202850Y0043820D01*
X0202820Y0044120D01*
X0202830Y0044430D01*
X0202880Y0044730D01*
X0202970Y0045020D01*
X0203090Y0045290D01*
X0203240Y0045550D01*
X0203430Y0045790D01*
X0203650Y0046000D01*
X0203890Y0046180D01*
X0204160Y0046330D01*
X0204440Y0046440D01*
X0204730Y0046520D01*
X0205030Y0046560D01*
X0205330Y0046560D01*
X0205630Y0046520D01*
X0205920Y0046440D01*
X0206200Y0046330D01*
X0206470Y0046180D01*
X0206710Y0046000D01*
X0206930Y0045790D01*
X0207120Y0045550D01*
X0207270Y0045290D01*
X0207390Y0045020D01*
X0207480Y0044730D01*
X0207530Y0044430D01*
X0207540Y0044120D01*
X0207510Y0043820D01*
X0207440Y0043530D01*
X0207340Y0043240D01*
X0207200Y0042980D01*
X0207030Y0042730D01*
X0206820Y0042500D01*
X0206590Y0042310D01*
X0206340Y0042140D01*
X0206070Y0042010D01*
X0205780Y0041920D01*
X0205480Y0041860D01*
X0205180Y0041840D01*
X0205180Y0048840D02*
X0204880Y0048860D01*
X0204580Y0048920D01*
X0204290Y0049010D01*
X0204020Y0049140D01*
X0203770Y0049310D01*
X0203540Y0049500D01*
X0203330Y0049730D01*
X0203160Y0049980D01*
X0203020Y0050240D01*
X0202920Y0050530D01*
X0202850Y0050820D01*
X0202820Y0051120D01*
X0202830Y0051430D01*
X0202880Y0051730D01*
X0202970Y0052020D01*
X0203090Y0052290D01*
X0203240Y0052550D01*
X0203430Y0052790D01*
X0203650Y0053000D01*
X0203890Y0053180D01*
X0204160Y0053330D01*
X0204440Y0053440D01*
X0204730Y0053520D01*
X0205030Y0053560D01*
X0205330Y0053560D01*
X0205630Y0053520D01*
X0205920Y0053440D01*
X0206200Y0053330D01*
X0206470Y0053180D01*
X0206710Y0053000D01*
X0206930Y0052790D01*
X0207120Y0052550D01*
X0207270Y0052290D01*
X0207390Y0052020D01*
X0207480Y0051730D01*
X0207530Y0051430D01*
X0207540Y0051120D01*
X0207510Y0050820D01*
X0207440Y0050530D01*
X0207340Y0050240D01*
X0207200Y0049980D01*
X0207030Y0049730D01*
X0206820Y0049500D01*
X0206590Y0049310D01*
X0206340Y0049140D01*
X0206070Y0049010D01*
X0205780Y0048920D01*
X0205480Y0048860D01*
X0205180Y0048840D01*
X0205180Y0055840D02*
X0204880Y0055860D01*
X0204580Y0055920D01*
X0204290Y0056010D01*
X0204020Y0056140D01*
X0203770Y0056310D01*
X0203540Y0056500D01*
X0203330Y0056730D01*
X0203160Y0056980D01*
X0203020Y0057240D01*
X0202920Y0057530D01*
X0202850Y0057820D01*
X0202820Y0058120D01*
X0202830Y0058430D01*
X0202880Y0058730D01*
X0202970Y0059020D01*
X0203090Y0059290D01*
X0203240Y0059550D01*
X0203430Y0059790D01*
X0203650Y0060000D01*
X0203890Y0060180D01*
X0204160Y0060330D01*
X0204440Y0060440D01*
X0204730Y0060520D01*
X0205030Y0060560D01*
X0205330Y0060560D01*
X0205630Y0060520D01*
X0205920Y0060440D01*
X0206200Y0060330D01*
X0206470Y0060180D01*
X0206710Y0060000D01*
X0206930Y0059790D01*
X0207120Y0059550D01*
X0207270Y0059290D01*
X0207390Y0059020D01*
X0207480Y0058730D01*
X0207530Y0058430D01*
X0207540Y0058120D01*
X0207510Y0057820D01*
X0207440Y0057530D01*
X0207340Y0057240D01*
X0207200Y0056980D01*
X0207030Y0056730D01*
X0206820Y0056500D01*
X0206590Y0056310D01*
X0206340Y0056140D01*
X0206070Y0056010D01*
X0205780Y0055920D01*
X0205480Y0055860D01*
X0205180Y0055840D01*
X0205180Y0062840D02*
X0204880Y0062860D01*
X0204580Y0062920D01*
X0204290Y0063010D01*
X0204020Y0063140D01*
X0203770Y0063310D01*
X0203540Y0063500D01*
X0203330Y0063730D01*
X0203160Y0063980D01*
X0203020Y0064240D01*
X0202920Y0064530D01*
X0202850Y0064820D01*
X0202820Y0065120D01*
X0202830Y0065430D01*
X0202880Y0065730D01*
X0202970Y0066020D01*
X0203090Y0066290D01*
X0203240Y0066550D01*
X0203430Y0066790D01*
X0203650Y0067000D01*
X0203890Y0067180D01*
X0204160Y0067330D01*
X0204440Y0067440D01*
X0204730Y0067520D01*
X0205030Y0067560D01*
X0205330Y0067560D01*
X0205630Y0067520D01*
X0205920Y0067440D01*
X0206200Y0067330D01*
X0206470Y0067180D01*
X0206710Y0067000D01*
X0206930Y0066790D01*
X0207120Y0066550D01*
X0207270Y0066290D01*
X0207390Y0066020D01*
X0207480Y0065730D01*
X0207530Y0065430D01*
X0207540Y0065120D01*
X0207510Y0064820D01*
X0207440Y0064530D01*
X0207340Y0064240D01*
X0207200Y0063980D01*
X0207030Y0063730D01*
X0206820Y0063500D01*
X0206590Y0063310D01*
X0206340Y0063140D01*
X0206070Y0063010D01*
X0205780Y0062920D01*
X0205480Y0062860D01*
X0205180Y0062840D01*
X0205180Y0069840D02*
X0204880Y0069860D01*
X0204580Y0069920D01*
X0204290Y0070010D01*
X0204020Y0070140D01*
X0203770Y0070310D01*
X0203540Y0070500D01*
X0203330Y0070730D01*
X0203160Y0070980D01*
X0203020Y0071240D01*
X0202920Y0071530D01*
X0202850Y0071820D01*
X0202820Y0072120D01*
X0202830Y0072430D01*
X0202880Y0072730D01*
X0202970Y0073020D01*
X0203090Y0073290D01*
X0203240Y0073550D01*
X0203430Y0073790D01*
X0203650Y0074000D01*
X0203890Y0074180D01*
X0204160Y0074330D01*
X0204440Y0074440D01*
X0204730Y0074520D01*
X0205030Y0074560D01*
X0205330Y0074560D01*
X0205630Y0074520D01*
X0205920Y0074440D01*
X0206200Y0074330D01*
X0206470Y0074180D01*
X0206710Y0074000D01*
X0206930Y0073790D01*
X0207120Y0073550D01*
X0207270Y0073290D01*
X0207390Y0073020D01*
X0207480Y0072730D01*
X0207530Y0072430D01*
X0207540Y0072120D01*
X0207510Y0071820D01*
X0207440Y0071530D01*
X0207340Y0071240D01*
X0207200Y0070980D01*
X0207030Y0070730D01*
X0206820Y0070500D01*
X0206590Y0070310D01*
X0206340Y0070140D01*
X0206070Y0070010D01*
X0205780Y0069920D01*
X0205480Y0069860D01*
X0205180Y0069840D01*
X0205180Y0076840D02*
X0204880Y0076860D01*
X0204580Y0076920D01*
X0204290Y0077010D01*
X0204020Y0077140D01*
X0203770Y0077310D01*
X0203540Y0077500D01*
X0203330Y0077730D01*
X0203160Y0077980D01*
X0203020Y0078240D01*
X0202920Y0078530D01*
X0202850Y0078820D01*
X0202820Y0079120D01*
X0202830Y0079430D01*
X0202880Y0079730D01*
X0202970Y0080020D01*
X0203090Y0080290D01*
X0203240Y0080550D01*
X0203430Y0080790D01*
X0203650Y0081000D01*
X0203890Y0081180D01*
X0204160Y0081330D01*
X0204440Y0081440D01*
X0204730Y0081520D01*
X0205030Y0081560D01*
X0205330Y0081560D01*
X0205630Y0081520D01*
X0205920Y0081440D01*
X0206200Y0081330D01*
X0206470Y0081180D01*
X0206710Y0081000D01*
X0206930Y0080790D01*
X0207120Y0080550D01*
X0207270Y0080290D01*
X0207390Y0080020D01*
X0207480Y0079730D01*
X0207530Y0079430D01*
X0207540Y0079120D01*
X0207510Y0078820D01*
X0207440Y0078530D01*
X0207340Y0078240D01*
X0207200Y0077980D01*
X0207030Y0077730D01*
X0206820Y0077500D01*
X0206590Y0077310D01*
X0206340Y0077140D01*
X0206070Y0077010D01*
X0205780Y0076920D01*
X0205480Y0076860D01*
X0205180Y0076840D01*
X0205180Y0083840D02*
X0204880Y0083860D01*
X0204580Y0083920D01*
X0204290Y0084010D01*
X0204020Y0084140D01*
X0203770Y0084310D01*
X0203540Y0084500D01*
X0203330Y0084730D01*
X0203160Y0084980D01*
X0203020Y0085240D01*
X0202920Y0085530D01*
X0202850Y0085820D01*
X0202820Y0086120D01*
X0202830Y0086430D01*
X0202880Y0086730D01*
X0202970Y0087020D01*
X0203090Y0087290D01*
X0203240Y0087550D01*
X0203430Y0087790D01*
X0203650Y0088000D01*
X0203890Y0088180D01*
X0204160Y0088330D01*
X0204440Y0088440D01*
X0204730Y0088520D01*
X0205030Y0088560D01*
X0205330Y0088560D01*
X0205630Y0088520D01*
X0205920Y0088440D01*
X0206200Y0088330D01*
X0206470Y0088180D01*
X0206710Y0088000D01*
X0206930Y0087790D01*
X0207120Y0087550D01*
X0207270Y0087290D01*
X0207390Y0087020D01*
X0207480Y0086730D01*
X0207530Y0086430D01*
X0207540Y0086120D01*
X0207510Y0085820D01*
X0207440Y0085530D01*
X0207340Y0085240D01*
X0207200Y0084980D01*
X0207030Y0084730D01*
X0206820Y0084500D01*
X0206590Y0084310D01*
X0206340Y0084140D01*
X0206070Y0084010D01*
X0205780Y0083920D01*
X0205480Y0083860D01*
X0205180Y0083840D01*
X0205180Y0090840D02*
X0204880Y0090860D01*
X0204580Y0090920D01*
X0204290Y0091010D01*
X0204020Y0091140D01*
X0203770Y0091310D01*
X0203540Y0091500D01*
X0203330Y0091730D01*
X0203160Y0091980D01*
X0203020Y0092240D01*
X0202920Y0092530D01*
X0202850Y0092820D01*
X0202820Y0093120D01*
X0202830Y0093430D01*
X0202880Y0093730D01*
X0202970Y0094020D01*
X0203090Y0094290D01*
X0203240Y0094550D01*
X0203430Y0094790D01*
X0203650Y0095000D01*
X0203890Y0095180D01*
X0204160Y0095330D01*
X0204440Y0095440D01*
X0204730Y0095520D01*
X0205030Y0095560D01*
X0205330Y0095560D01*
X0205630Y0095520D01*
X0205920Y0095440D01*
X0206200Y0095330D01*
X0206470Y0095180D01*
X0206710Y0095000D01*
X0206930Y0094790D01*
X0207120Y0094550D01*
X0207270Y0094290D01*
X0207390Y0094020D01*
X0207480Y0093730D01*
X0207530Y0093430D01*
X0207540Y0093120D01*
X0207510Y0092820D01*
X0207440Y0092530D01*
X0207340Y0092240D01*
X0207200Y0091980D01*
X0207030Y0091730D01*
X0206820Y0091500D01*
X0206590Y0091310D01*
X0206340Y0091140D01*
X0206070Y0091010D01*
X0205780Y0090920D01*
X0205480Y0090860D01*
X0205180Y0090840D01*
X0205180Y0097840D02*
X0204880Y0097860D01*
X0204580Y0097920D01*
X0204290Y0098010D01*
X0204020Y0098140D01*
X0203770Y0098310D01*
X0203540Y0098500D01*
X0203330Y0098730D01*
X0203160Y0098980D01*
X0203020Y0099240D01*
X0202920Y0099530D01*
X0202850Y0099820D01*
X0202820Y0100120D01*
X0202830Y0100430D01*
X0202880Y0100730D01*
X0202970Y0101020D01*
X0203090Y0101290D01*
X0203240Y0101550D01*
X0203430Y0101790D01*
X0203650Y0102000D01*
X0203890Y0102180D01*
X0204160Y0102330D01*
X0204440Y0102440D01*
X0204730Y0102520D01*
X0205030Y0102560D01*
X0205330Y0102560D01*
X0205630Y0102520D01*
X0205920Y0102440D01*
X0206200Y0102330D01*
X0206470Y0102180D01*
X0206710Y0102000D01*
X0206930Y0101790D01*
X0207120Y0101550D01*
X0207270Y0101290D01*
X0207390Y0101020D01*
X0207480Y0100730D01*
X0207530Y0100430D01*
X0207540Y0100120D01*
X0207510Y0099820D01*
X0207440Y0099530D01*
X0207340Y0099240D01*
X0207200Y0098980D01*
X0207030Y0098730D01*
X0206820Y0098500D01*
X0206590Y0098310D01*
X0206340Y0098140D01*
X0206070Y0098010D01*
X0205780Y0097920D01*
X0205480Y0097860D01*
X0205180Y0097840D01*
X0205180Y0104840D02*
X0204880Y0104860D01*
X0204580Y0104920D01*
X0204290Y0105010D01*
X0204020Y0105140D01*
X0203770Y0105310D01*
X0203540Y0105500D01*
X0203330Y0105730D01*
X0203160Y0105980D01*
X0203020Y0106240D01*
X0202920Y0106530D01*
X0202850Y0106820D01*
X0202820Y0107120D01*
X0202830Y0107430D01*
X0202880Y0107730D01*
X0202970Y0108020D01*
X0203090Y0108290D01*
X0203240Y0108550D01*
X0203430Y0108790D01*
X0203650Y0109000D01*
X0203890Y0109180D01*
X0204160Y0109330D01*
X0204440Y0109440D01*
X0204730Y0109520D01*
X0205030Y0109560D01*
X0205330Y0109560D01*
X0205630Y0109520D01*
X0205920Y0109440D01*
X0206200Y0109330D01*
X0206470Y0109180D01*
X0206710Y0109000D01*
X0206930Y0108790D01*
X0207120Y0108550D01*
X0207270Y0108290D01*
X0207390Y0108020D01*
X0207480Y0107730D01*
X0207530Y0107430D01*
X0207540Y0107120D01*
X0207510Y0106820D01*
X0207440Y0106530D01*
X0207340Y0106240D01*
X0207200Y0105980D01*
X0207030Y0105730D01*
X0206820Y0105500D01*
X0206590Y0105310D01*
X0206340Y0105140D01*
X0206070Y0105010D01*
X0205780Y0104920D01*
X0205480Y0104860D01*
X0205180Y0104840D01*
X0020000Y0496420D02*
G75*
%LPD*%
D40*
X0094960Y0496420D02*
X0020000Y0496420D01*
X0020000Y0729630D01*
X0095960Y0729630D01*
X0094960Y0496420D01*
X0325360Y0020000D02*
G75*
%LPD*%
D40*
X0325360Y0021000D02*
X0325360Y0095960D01*
X0558570Y0095960D01*
X0558570Y0020000D01*
X0325360Y0021000D01*
X0325360Y0100960D02*
G75*
%LPD*%
D40*
X0325360Y0101960D02*
X0325360Y0176920D01*
X0558570Y0176920D01*
X0558570Y0100960D01*
X0325360Y0101960D01*
X0563570Y0020000D02*
G75*
%LPD*%
D40*
X0638530Y0020000D02*
X0563570Y0020000D01*
X0563570Y0253210D01*
X0639530Y0253210D01*
X0638530Y0020000D01*
X0325360Y0181920D02*
G75*
%LPD*%
D40*
X0325360Y0182920D02*
X0325360Y0257880D01*
X0558570Y0257880D01*
X0558570Y0181920D01*
X0325360Y0182920D01*
X0325360Y0262880D02*
G75*
%LPD*%
D40*
X0325360Y0263880D02*
X0325360Y0338840D01*
X0558570Y0338840D01*
X0558570Y0262880D01*
X0325360Y0263880D01*
X0100960Y0337840D02*
G75*
%LPD*%
D40*
X0175920Y0337840D02*
X0100960Y0337840D01*
X0100960Y0571050D01*
X0176920Y0571050D01*
X0175920Y0337840D01*
X0181920Y0337840D02*
G75*
%LPD*%
D40*
X0256880Y0337840D02*
X0181920Y0337840D01*
X0181920Y0571050D01*
X0257880Y0571050D01*
X0256880Y0337840D01*
X0100960Y0576050D02*
G75*
%LPD*%
D40*
X0100960Y0577050D02*
X0100960Y0652010D01*
X0334170Y0652010D01*
X0334170Y0576050D01*
X0100960Y0577050D01*
X0563570Y0258210D02*
G75*
%LPD*%
D40*
X0563570Y0259210D02*
X0563570Y0334170D01*
X0796780Y0334170D01*
X0796780Y0258210D01*
X0563570Y0259210D01*
X0262880Y0343840D02*
G75*
%LPD*%
D40*
X0262880Y0343880D02*
X0555250Y0343880D01*
X0565350Y0343840D01*
X0565310Y0353040D01*
X0565390Y0352980D02*
X0565450Y0353080D01*
X0565440Y0362870D01*
X0575710Y0372940D01*
X0575720Y0372940D02*
X0575660Y0502440D01*
X0565250Y0512440D01*
X0565440Y0512430D02*
X0565440Y0557930D01*
X0558240Y0563220D01*
X0558450Y0563240D02*
X0262880Y0563240D01*
X0262880Y0343880D01*
X0385720Y0348020D02*
X0385740Y0348320D01*
X0385800Y0348620D01*
X0385890Y0348910D01*
X0386020Y0349180D01*
X0386190Y0349430D01*
X0386380Y0349660D01*
X0386610Y0349870D01*
X0386860Y0350040D01*
X0387120Y0350180D01*
X0387410Y0350280D01*
X0387700Y0350350D01*
X0388000Y0350380D01*
X0388310Y0350370D01*
X0388610Y0350320D01*
X0388900Y0350230D01*
X0389170Y0350110D01*
X0389430Y0349960D01*
X0389670Y0349770D01*
X0389880Y0349550D01*
X0390060Y0349310D01*
X0390210Y0349040D01*
X0390320Y0348760D01*
X0390400Y0348470D01*
X0390440Y0348170D01*
X0390440Y0347870D01*
X0390400Y0347570D01*
X0390320Y0347280D01*
X0390210Y0347000D01*
X0390060Y0346730D01*
X0389880Y0346490D01*
X0389670Y0346270D01*
X0389430Y0346080D01*
X0389170Y0345930D01*
X0388900Y0345810D01*
X0388610Y0345720D01*
X0388310Y0345670D01*
X0388000Y0345660D01*
X0387700Y0345690D01*
X0387410Y0345760D01*
X0387120Y0345860D01*
X0386860Y0346000D01*
X0386610Y0346170D01*
X0386380Y0346380D01*
X0386190Y0346610D01*
X0386020Y0346860D01*
X0385890Y0347130D01*
X0385800Y0347420D01*
X0385740Y0347720D01*
X0385720Y0348020D01*
X0385720Y0355020D02*
X0385740Y0355320D01*
X0385800Y0355620D01*
X0385890Y0355910D01*
X0386020Y0356180D01*
X0386190Y0356430D01*
X0386380Y0356660D01*
X0386610Y0356870D01*
X0386860Y0357040D01*
X0387120Y0357180D01*
X0387410Y0357280D01*
X0387700Y0357350D01*
X0388000Y0357380D01*
X0388310Y0357370D01*
X0388610Y0357320D01*
X0388900Y0357230D01*
X0389170Y0357110D01*
X0389430Y0356960D01*
X0389670Y0356770D01*
X0389880Y0356550D01*
X0390060Y0356310D01*
X0390210Y0356040D01*
X0390320Y0355760D01*
X0390400Y0355470D01*
X0390440Y0355170D01*
X0390440Y0354870D01*
X0390400Y0354570D01*
X0390320Y0354280D01*
X0390210Y0354000D01*
X0390060Y0353730D01*
X0389880Y0353490D01*
X0389670Y0353270D01*
X0389430Y0353080D01*
X0389170Y0352930D01*
X0388900Y0352810D01*
X0388610Y0352720D01*
X0388310Y0352670D01*
X0388000Y0352660D01*
X0387700Y0352690D01*
X0387410Y0352760D01*
X0387120Y0352860D01*
X0386860Y0353000D01*
X0386610Y0353170D01*
X0386380Y0353380D01*
X0386190Y0353610D01*
X0386020Y0353860D01*
X0385890Y0354130D01*
X0385800Y0354420D01*
X0385740Y0354720D01*
X0385720Y0355020D01*
X0385720Y0362020D02*
X0385740Y0362320D01*
X0385800Y0362620D01*
X0385890Y0362910D01*
X0386020Y0363180D01*
X0386190Y0363430D01*
X0386380Y0363660D01*
X0386610Y0363870D01*
X0386860Y0364040D01*
X0387120Y0364180D01*
X0387410Y0364280D01*
X0387700Y0364350D01*
X0388000Y0364380D01*
X0388310Y0364370D01*
X0388610Y0364320D01*
X0388900Y0364230D01*
X0389170Y0364110D01*
X0389430Y0363960D01*
X0389670Y0363770D01*
X0389880Y0363550D01*
X0390060Y0363310D01*
X0390210Y0363040D01*
X0390320Y0362760D01*
X0390400Y0362470D01*
X0390440Y0362170D01*
X0390440Y0361870D01*
X0390400Y0361570D01*
X0390320Y0361280D01*
X0390210Y0361000D01*
X0390060Y0360730D01*
X0389880Y0360490D01*
X0389670Y0360270D01*
X0389430Y0360080D01*
X0389170Y0359930D01*
X0388900Y0359810D01*
X0388610Y0359720D01*
X0388310Y0359670D01*
X0388000Y0359660D01*
X0387700Y0359690D01*
X0387410Y0359760D01*
X0387120Y0359860D01*
X0386860Y0360000D01*
X0386610Y0360170D01*
X0386380Y0360380D01*
X0386190Y0360610D01*
X0386020Y0360860D01*
X0385890Y0361130D01*
X0385800Y0361420D01*
X0385740Y0361720D01*
X0385720Y0362020D01*
X0385720Y0369020D02*
X0385740Y0369320D01*
X0385800Y0369620D01*
X0385890Y0369910D01*
X0386020Y0370180D01*
X0386190Y0370430D01*
X0386380Y0370660D01*
X0386610Y0370870D01*
X0386860Y0371040D01*
X0387120Y0371180D01*
X0387410Y0371280D01*
X0387700Y0371350D01*
X0388000Y0371380D01*
X0388310Y0371370D01*
X0388610Y0371320D01*
X0388900Y0371230D01*
X0389170Y0371110D01*
X0389430Y0370960D01*
X0389670Y0370770D01*
X0389880Y0370550D01*
X0390060Y0370310D01*
X0390210Y0370040D01*
X0390320Y0369760D01*
X0390400Y0369470D01*
X0390440Y0369170D01*
X0390440Y0368870D01*
X0390400Y0368570D01*
X0390320Y0368280D01*
X0390210Y0368000D01*
X0390060Y0367730D01*
X0389880Y0367490D01*
X0389670Y0367270D01*
X0389430Y0367080D01*
X0389170Y0366930D01*
X0388900Y0366810D01*
X0388610Y0366720D01*
X0388310Y0366670D01*
X0388000Y0366660D01*
X0387700Y0366690D01*
X0387410Y0366760D01*
X0387120Y0366860D01*
X0386860Y0367000D01*
X0386610Y0367170D01*
X0386380Y0367380D01*
X0386190Y0367610D01*
X0386020Y0367860D01*
X0385890Y0368130D01*
X0385800Y0368420D01*
X0385740Y0368720D01*
X0385720Y0369020D01*
X0385720Y0376020D02*
X0385740Y0376320D01*
X0385800Y0376620D01*
X0385890Y0376910D01*
X0386020Y0377180D01*
X0386190Y0377430D01*
X0386380Y0377660D01*
X0386610Y0377870D01*
X0386860Y0378040D01*
X0387120Y0378180D01*
X0387410Y0378280D01*
X0387700Y0378350D01*
X0388000Y0378380D01*
X0388310Y0378370D01*
X0388610Y0378320D01*
X0388900Y0378230D01*
X0389170Y0378110D01*
X0389430Y0377960D01*
X0389670Y0377770D01*
X0389880Y0377550D01*
X0390060Y0377310D01*
X0390210Y0377040D01*
X0390320Y0376760D01*
X0390400Y0376470D01*
X0390440Y0376170D01*
X0390440Y0375870D01*
X0390400Y0375570D01*
X0390320Y0375280D01*
X0390210Y0375000D01*
X0390060Y0374730D01*
X0389880Y0374490D01*
X0389670Y0374270D01*
X0389430Y0374080D01*
X0389170Y0373930D01*
X0388900Y0373810D01*
X0388610Y0373720D01*
X0388310Y0373670D01*
X0388000Y0373660D01*
X0387700Y0373690D01*
X0387410Y0373760D01*
X0387120Y0373860D01*
X0386860Y0374000D01*
X0386610Y0374170D01*
X0386380Y0374380D01*
X0386190Y0374610D01*
X0386020Y0374860D01*
X0385890Y0375130D01*
X0385800Y0375420D01*
X0385740Y0375720D01*
X0385720Y0376020D01*
X0385720Y0383020D02*
X0385740Y0383320D01*
X0385800Y0383620D01*
X0385890Y0383910D01*
X0386020Y0384180D01*
X0386190Y0384430D01*
X0386380Y0384660D01*
X0386610Y0384870D01*
X0386860Y0385040D01*
X0387120Y0385180D01*
X0387410Y0385280D01*
X0387700Y0385350D01*
X0388000Y0385380D01*
X0388310Y0385370D01*
X0388610Y0385320D01*
X0388900Y0385230D01*
X0389170Y0385110D01*
X0389430Y0384960D01*
X0389670Y0384770D01*
X0389880Y0384550D01*
X0390060Y0384310D01*
X0390210Y0384040D01*
X0390320Y0383760D01*
X0390400Y0383470D01*
X0390440Y0383170D01*
X0390440Y0382870D01*
X0390400Y0382570D01*
X0390320Y0382280D01*
X0390210Y0382000D01*
X0390060Y0381730D01*
X0389880Y0381490D01*
X0389670Y0381270D01*
X0389430Y0381080D01*
X0389170Y0380930D01*
X0388900Y0380810D01*
X0388610Y0380720D01*
X0388310Y0380670D01*
X0388000Y0380660D01*
X0387700Y0380690D01*
X0387410Y0380760D01*
X0387120Y0380860D01*
X0386860Y0381000D01*
X0386610Y0381170D01*
X0386380Y0381380D01*
X0386190Y0381610D01*
X0386020Y0381860D01*
X0385890Y0382130D01*
X0385800Y0382420D01*
X0385740Y0382720D01*
X0385720Y0383020D01*
X0385720Y0390020D02*
X0385740Y0390320D01*
X0385800Y0390620D01*
X0385890Y0390910D01*
X0386020Y0391180D01*
X0386190Y0391430D01*
X0386380Y0391660D01*
X0386610Y0391870D01*
X0386860Y0392040D01*
X0387120Y0392180D01*
X0387410Y0392280D01*
X0387700Y0392350D01*
X0388000Y0392380D01*
X0388310Y0392370D01*
X0388610Y0392320D01*
X0388900Y0392230D01*
X0389170Y0392110D01*
X0389430Y0391960D01*
X0389670Y0391770D01*
X0389880Y0391550D01*
X0390060Y0391310D01*
X0390210Y0391040D01*
X0390320Y0390760D01*
X0390400Y0390470D01*
X0390440Y0390170D01*
X0390440Y0389870D01*
X0390400Y0389570D01*
X0390320Y0389280D01*
X0390210Y0389000D01*
X0390060Y0388730D01*
X0389880Y0388490D01*
X0389670Y0388270D01*
X0389430Y0388080D01*
X0389170Y0387930D01*
X0388900Y0387810D01*
X0388610Y0387720D01*
X0388310Y0387670D01*
X0388000Y0387660D01*
X0387700Y0387690D01*
X0387410Y0387760D01*
X0387120Y0387860D01*
X0386860Y0388000D01*
X0386610Y0388170D01*
X0386380Y0388380D01*
X0386190Y0388610D01*
X0386020Y0388860D01*
X0385890Y0389130D01*
X0385800Y0389420D01*
X0385740Y0389720D01*
X0385720Y0390020D01*
X0385720Y0397020D02*
X0385740Y0397320D01*
X0385800Y0397620D01*
X0385890Y0397910D01*
X0386020Y0398180D01*
X0386190Y0398430D01*
X0386380Y0398660D01*
X0386610Y0398870D01*
X0386860Y0399040D01*
X0387120Y0399180D01*
X0387410Y0399280D01*
X0387700Y0399350D01*
X0388000Y0399380D01*
X0388310Y0399370D01*
X0388610Y0399320D01*
X0388900Y0399230D01*
X0389170Y0399110D01*
X0389430Y0398960D01*
X0389670Y0398770D01*
X0389880Y0398550D01*
X0390060Y0398310D01*
X0390210Y0398040D01*
X0390320Y0397760D01*
X0390400Y0397470D01*
X0390440Y0397170D01*
X0390440Y0396870D01*
X0390400Y0396570D01*
X0390320Y0396280D01*
X0390210Y0396000D01*
X0390060Y0395730D01*
X0389880Y0395490D01*
X0389670Y0395270D01*
X0389430Y0395080D01*
X0389170Y0394930D01*
X0388900Y0394810D01*
X0388610Y0394720D01*
X0388310Y0394670D01*
X0388000Y0394660D01*
X0387700Y0394690D01*
X0387410Y0394760D01*
X0387120Y0394860D01*
X0386860Y0395000D01*
X0386610Y0395170D01*
X0386380Y0395380D01*
X0386190Y0395610D01*
X0386020Y0395860D01*
X0385890Y0396130D01*
X0385800Y0396420D01*
X0385740Y0396720D01*
X0385720Y0397020D01*
X0385720Y0404020D02*
X0385740Y0404320D01*
X0385800Y0404620D01*
X0385890Y0404910D01*
X0386020Y0405180D01*
X0386190Y0405430D01*
X0386380Y0405660D01*
X0386610Y0405870D01*
X0386860Y0406040D01*
X0387120Y0406180D01*
X0387410Y0406280D01*
X0387700Y0406350D01*
X0388000Y0406380D01*
X0388310Y0406370D01*
X0388610Y0406320D01*
X0388900Y0406230D01*
X0389170Y0406110D01*
X0389430Y0405960D01*
X0389670Y0405770D01*
X0389880Y0405550D01*
X0390060Y0405310D01*
X0390210Y0405040D01*
X0390320Y0404760D01*
X0390400Y0404470D01*
X0390440Y0404170D01*
X0390440Y0403870D01*
X0390400Y0403570D01*
X0390320Y0403280D01*
X0390210Y0403000D01*
X0390060Y0402730D01*
X0389880Y0402490D01*
X0389670Y0402270D01*
X0389430Y0402080D01*
X0389170Y0401930D01*
X0388900Y0401810D01*
X0388610Y0401720D01*
X0388310Y0401670D01*
X0388000Y0401660D01*
X0387700Y0401690D01*
X0387410Y0401760D01*
X0387120Y0401860D01*
X0386860Y0402000D01*
X0386610Y0402170D01*
X0386380Y0402380D01*
X0386190Y0402610D01*
X0386020Y0402860D01*
X0385890Y0403130D01*
X0385800Y0403420D01*
X0385740Y0403720D01*
X0385720Y0404020D01*
X0385720Y0411020D02*
X0385740Y0411320D01*
X0385800Y0411620D01*
X0385890Y0411910D01*
X0386020Y0412180D01*
X0386190Y0412430D01*
X0386380Y0412660D01*
X0386610Y0412870D01*
X0386860Y0413040D01*
X0387120Y0413180D01*
X0387410Y0413280D01*
X0387700Y0413350D01*
X0388000Y0413380D01*
X0388310Y0413370D01*
X0388610Y0413320D01*
X0388900Y0413230D01*
X0389170Y0413110D01*
X0389430Y0412960D01*
X0389670Y0412770D01*
X0389880Y0412550D01*
X0390060Y0412310D01*
X0390210Y0412040D01*
X0390320Y0411760D01*
X0390400Y0411470D01*
X0390440Y0411170D01*
X0390440Y0410870D01*
X0390400Y0410570D01*
X0390320Y0410280D01*
X0390210Y0410000D01*
X0390060Y0409730D01*
X0389880Y0409490D01*
X0389670Y0409270D01*
X0389430Y0409080D01*
X0389170Y0408930D01*
X0388900Y0408810D01*
X0388610Y0408720D01*
X0388310Y0408670D01*
X0388000Y0408660D01*
X0387700Y0408690D01*
X0387410Y0408760D01*
X0387120Y0408860D01*
X0386860Y0409000D01*
X0386610Y0409170D01*
X0386380Y0409380D01*
X0386190Y0409610D01*
X0386020Y0409860D01*
X0385890Y0410130D01*
X0385800Y0410420D01*
X0385740Y0410720D01*
X0385720Y0411020D01*
X0386510Y0424020D02*
X0386530Y0424270D01*
X0386590Y0424510D01*
X0386680Y0424730D01*
X0386810Y0424940D01*
X0386970Y0425130D01*
X0387160Y0425290D01*
X0387370Y0425420D01*
X0387590Y0425510D01*
X0387830Y0425570D01*
X0388080Y0425590D01*
X0388330Y0425570D01*
X0388570Y0425510D01*
X0388790Y0425420D01*
X0389000Y0425290D01*
X0389190Y0425130D01*
X0389350Y0424940D01*
X0389480Y0424730D01*
X0389570Y0424510D01*
X0389630Y0424270D01*
X0389650Y0424020D01*
X0389630Y0423770D01*
X0389570Y0423530D01*
X0389480Y0423310D01*
X0389350Y0423100D01*
X0389190Y0422910D01*
X0389000Y0422750D01*
X0388790Y0422620D01*
X0388570Y0422530D01*
X0388330Y0422470D01*
X0388080Y0422450D01*
X0387830Y0422470D01*
X0387590Y0422530D01*
X0387370Y0422620D01*
X0387160Y0422750D01*
X0386970Y0422910D01*
X0386810Y0423100D01*
X0386680Y0423310D01*
X0386590Y0423530D01*
X0386530Y0423770D01*
X0386510Y0424020D01*
X0386510Y0434020D02*
X0386530Y0434270D01*
X0386590Y0434510D01*
X0386680Y0434730D01*
X0386810Y0434940D01*
X0386970Y0435130D01*
X0387160Y0435290D01*
X0387370Y0435420D01*
X0387590Y0435510D01*
X0387830Y0435570D01*
X0388080Y0435590D01*
X0388330Y0435570D01*
X0388570Y0435510D01*
X0388790Y0435420D01*
X0389000Y0435290D01*
X0389190Y0435130D01*
X0389350Y0434940D01*
X0389480Y0434730D01*
X0389570Y0434510D01*
X0389630Y0434270D01*
X0389650Y0434020D01*
X0389630Y0433770D01*
X0389570Y0433530D01*
X0389480Y0433310D01*
X0389350Y0433100D01*
X0389190Y0432910D01*
X0389000Y0432750D01*
X0388790Y0432620D01*
X0388570Y0432530D01*
X0388330Y0432470D01*
X0388080Y0432450D01*
X0387830Y0432470D01*
X0387590Y0432530D01*
X0387370Y0432620D01*
X0387160Y0432750D01*
X0386970Y0432910D01*
X0386810Y0433100D01*
X0386680Y0433310D01*
X0386590Y0433530D01*
X0386530Y0433770D01*
X0386510Y0434020D01*
X0386510Y0444020D02*
X0386530Y0444270D01*
X0386590Y0444510D01*
X0386680Y0444730D01*
X0386810Y0444940D01*
X0386970Y0445130D01*
X0387160Y0445290D01*
X0387370Y0445420D01*
X0387590Y0445510D01*
X0387830Y0445570D01*
X0388080Y0445590D01*
X0388330Y0445570D01*
X0388570Y0445510D01*
X0388790Y0445420D01*
X0389000Y0445290D01*
X0389190Y0445130D01*
X0389350Y0444940D01*
X0389480Y0444730D01*
X0389570Y0444510D01*
X0389630Y0444270D01*
X0389650Y0444020D01*
X0389630Y0443770D01*
X0389570Y0443530D01*
X0389480Y0443310D01*
X0389350Y0443100D01*
X0389190Y0442910D01*
X0389000Y0442750D01*
X0388790Y0442620D01*
X0388570Y0442530D01*
X0388330Y0442470D01*
X0388080Y0442450D01*
X0387830Y0442470D01*
X0387590Y0442530D01*
X0387370Y0442620D01*
X0387160Y0442750D01*
X0386970Y0442910D01*
X0386810Y0443100D01*
X0386680Y0443310D01*
X0386590Y0443530D01*
X0386530Y0443770D01*
X0386510Y0444020D01*
X0386900Y0454020D02*
X0386920Y0454230D01*
X0386980Y0454430D01*
X0387070Y0454630D01*
X0387190Y0454800D01*
X0387340Y0454940D01*
X0387520Y0455060D01*
X0387720Y0455140D01*
X0387920Y0455190D01*
X0388130Y0455200D01*
X0388340Y0455170D01*
X0388540Y0455110D01*
X0388730Y0455000D01*
X0388900Y0454870D01*
X0389030Y0454710D01*
X0389140Y0454530D01*
X0389220Y0454330D01*
X0389260Y0454130D01*
X0389260Y0453910D01*
X0389220Y0453710D01*
X0389140Y0453510D01*
X0389030Y0453330D01*
X0388900Y0453170D01*
X0388730Y0453040D01*
X0388540Y0452930D01*
X0388340Y0452870D01*
X0388130Y0452840D01*
X0387920Y0452850D01*
X0387720Y0452900D01*
X0387520Y0452980D01*
X0387340Y0453100D01*
X0387190Y0453240D01*
X0387070Y0453410D01*
X0386980Y0453610D01*
X0386920Y0453810D01*
X0386900Y0454020D01*
X0386900Y0464020D02*
X0386920Y0464230D01*
X0386980Y0464430D01*
X0387070Y0464630D01*
X0387190Y0464800D01*
X0387340Y0464940D01*
X0387520Y0465060D01*
X0387720Y0465140D01*
X0387920Y0465190D01*
X0388130Y0465200D01*
X0388340Y0465170D01*
X0388540Y0465110D01*
X0388730Y0465000D01*
X0388900Y0464870D01*
X0389030Y0464710D01*
X0389140Y0464530D01*
X0389220Y0464330D01*
X0389260Y0464130D01*
X0389260Y0463910D01*
X0389220Y0463710D01*
X0389140Y0463510D01*
X0389030Y0463330D01*
X0388900Y0463170D01*
X0388730Y0463040D01*
X0388540Y0462930D01*
X0388340Y0462870D01*
X0388130Y0462840D01*
X0387920Y0462850D01*
X0387720Y0462900D01*
X0387520Y0462980D01*
X0387340Y0463100D01*
X0387190Y0463240D01*
X0387070Y0463410D01*
X0386980Y0463610D01*
X0386920Y0463810D01*
X0386900Y0464020D01*
X0386510Y0474020D02*
X0386530Y0474270D01*
X0386590Y0474510D01*
X0386680Y0474730D01*
X0386810Y0474940D01*
X0386970Y0475130D01*
X0387160Y0475290D01*
X0387370Y0475420D01*
X0387590Y0475510D01*
X0387830Y0475570D01*
X0388080Y0475590D01*
X0388330Y0475570D01*
X0388570Y0475510D01*
X0388790Y0475420D01*
X0389000Y0475290D01*
X0389190Y0475130D01*
X0389350Y0474940D01*
X0389480Y0474730D01*
X0389570Y0474510D01*
X0389630Y0474270D01*
X0389650Y0474020D01*
X0389630Y0473770D01*
X0389570Y0473530D01*
X0389480Y0473310D01*
X0389350Y0473100D01*
X0389190Y0472910D01*
X0389000Y0472750D01*
X0388790Y0472620D01*
X0388570Y0472530D01*
X0388330Y0472470D01*
X0388080Y0472450D01*
X0387830Y0472470D01*
X0387590Y0472530D01*
X0387370Y0472620D01*
X0387160Y0472750D01*
X0386970Y0472910D01*
X0386810Y0473100D01*
X0386680Y0473310D01*
X0386590Y0473530D01*
X0386530Y0473770D01*
X0386510Y0474020D01*
X0386510Y0484020D02*
X0386530Y0484270D01*
X0386590Y0484510D01*
X0386680Y0484730D01*
X0386810Y0484940D01*
X0386970Y0485130D01*
X0387160Y0485290D01*
X0387370Y0485420D01*
X0387590Y0485510D01*
X0387830Y0485570D01*
X0388080Y0485590D01*
X0388330Y0485570D01*
X0388570Y0485510D01*
X0388790Y0485420D01*
X0389000Y0485290D01*
X0389190Y0485130D01*
X0389350Y0484940D01*
X0389480Y0484730D01*
X0389570Y0484510D01*
X0389630Y0484270D01*
X0389650Y0484020D01*
X0389630Y0483770D01*
X0389570Y0483530D01*
X0389480Y0483310D01*
X0389350Y0483100D01*
X0389190Y0482910D01*
X0389000Y0482750D01*
X0388790Y0482620D01*
X0388570Y0482530D01*
X0388330Y0482470D01*
X0388080Y0482450D01*
X0387830Y0482470D01*
X0387590Y0482530D01*
X0387370Y0482620D01*
X0387160Y0482750D01*
X0386970Y0482910D01*
X0386810Y0483100D01*
X0386680Y0483310D01*
X0386590Y0483530D01*
X0386530Y0483770D01*
X0386510Y0484020D01*
X0386510Y0494020D02*
X0386530Y0494270D01*
X0386590Y0494510D01*
X0386680Y0494730D01*
X0386810Y0494940D01*
X0386970Y0495130D01*
X0387160Y0495290D01*
X0387370Y0495420D01*
X0387590Y0495510D01*
X0387830Y0495570D01*
X0388080Y0495590D01*
X0388330Y0495570D01*
X0388570Y0495510D01*
X0388790Y0495420D01*
X0389000Y0495290D01*
X0389190Y0495130D01*
X0389350Y0494940D01*
X0389480Y0494730D01*
X0389570Y0494510D01*
X0389630Y0494270D01*
X0389650Y0494020D01*
X0389630Y0493770D01*
X0389570Y0493530D01*
X0389480Y0493310D01*
X0389350Y0493100D01*
X0389190Y0492910D01*
X0389000Y0492750D01*
X0388790Y0492620D01*
X0388570Y0492530D01*
X0388330Y0492470D01*
X0388080Y0492450D01*
X0387830Y0492470D01*
X0387590Y0492530D01*
X0387370Y0492620D01*
X0387160Y0492750D01*
X0386970Y0492910D01*
X0386810Y0493100D01*
X0386680Y0493310D01*
X0386590Y0493530D01*
X0386530Y0493770D01*
X0386510Y0494020D01*
X0386510Y0504020D02*
X0386530Y0504270D01*
X0386590Y0504510D01*
X0386680Y0504730D01*
X0386810Y0504940D01*
X0386970Y0505130D01*
X0387160Y0505290D01*
X0387370Y0505420D01*
X0387590Y0505510D01*
X0387830Y0505570D01*
X0388080Y0505590D01*
X0388330Y0505570D01*
X0388570Y0505510D01*
X0388790Y0505420D01*
X0389000Y0505290D01*
X0389190Y0505130D01*
X0389350Y0504940D01*
X0389480Y0504730D01*
X0389570Y0504510D01*
X0389630Y0504270D01*
X0389650Y0504020D01*
X0389630Y0503770D01*
X0389570Y0503530D01*
X0389480Y0503310D01*
X0389350Y0503100D01*
X0389190Y0502910D01*
X0389000Y0502750D01*
X0388790Y0502620D01*
X0388570Y0502530D01*
X0388330Y0502470D01*
X0388080Y0502450D01*
X0387830Y0502470D01*
X0387590Y0502530D01*
X0387370Y0502620D01*
X0387160Y0502750D01*
X0386970Y0502910D01*
X0386810Y0503100D01*
X0386680Y0503310D01*
X0386590Y0503530D01*
X0386530Y0503770D01*
X0386510Y0504020D01*
X0386510Y0514020D02*
X0386530Y0514270D01*
X0386590Y0514510D01*
X0386680Y0514730D01*
X0386810Y0514940D01*
X0386970Y0515130D01*
X0387160Y0515290D01*
X0387370Y0515420D01*
X0387590Y0515510D01*
X0387830Y0515570D01*
X0388080Y0515590D01*
X0388330Y0515570D01*
X0388570Y0515510D01*
X0388790Y0515420D01*
X0389000Y0515290D01*
X0389190Y0515130D01*
X0389350Y0514940D01*
X0389480Y0514730D01*
X0389570Y0514510D01*
X0389630Y0514270D01*
X0389650Y0514020D01*
X0389630Y0513770D01*
X0389570Y0513530D01*
X0389480Y0513310D01*
X0389350Y0513100D01*
X0389190Y0512910D01*
X0389000Y0512750D01*
X0388790Y0512620D01*
X0388570Y0512530D01*
X0388330Y0512470D01*
X0388080Y0512450D01*
X0387830Y0512470D01*
X0387590Y0512530D01*
X0387370Y0512620D01*
X0387160Y0512750D01*
X0386970Y0512910D01*
X0386810Y0513100D01*
X0386680Y0513310D01*
X0386590Y0513530D01*
X0386530Y0513770D01*
X0386510Y0514020D01*
X0385720Y0525020D02*
X0385740Y0525320D01*
X0385800Y0525620D01*
X0385890Y0525910D01*
X0386020Y0526180D01*
X0386190Y0526430D01*
X0386380Y0526660D01*
X0386610Y0526870D01*
X0386860Y0527040D01*
X0387120Y0527180D01*
X0387410Y0527280D01*
X0387700Y0527350D01*
X0388000Y0527380D01*
X0388310Y0527370D01*
X0388610Y0527320D01*
X0388900Y0527230D01*
X0389170Y0527110D01*
X0389430Y0526960D01*
X0389670Y0526770D01*
X0389880Y0526550D01*
X0390060Y0526310D01*
X0390210Y0526040D01*
X0390320Y0525760D01*
X0390400Y0525470D01*
X0390440Y0525170D01*
X0390440Y0524870D01*
X0390400Y0524570D01*
X0390320Y0524280D01*
X0390210Y0524000D01*
X0390060Y0523730D01*
X0389880Y0523490D01*
X0389670Y0523270D01*
X0389430Y0523080D01*
X0389170Y0522930D01*
X0388900Y0522810D01*
X0388610Y0522720D01*
X0388310Y0522670D01*
X0388000Y0522660D01*
X0387700Y0522690D01*
X0387410Y0522760D01*
X0387120Y0522860D01*
X0386860Y0523000D01*
X0386610Y0523170D01*
X0386380Y0523380D01*
X0386190Y0523610D01*
X0386020Y0523860D01*
X0385890Y0524130D01*
X0385800Y0524420D01*
X0385740Y0524720D01*
X0385720Y0525020D01*
X0385720Y0532020D02*
X0385740Y0532320D01*
X0385800Y0532620D01*
X0385890Y0532910D01*
X0386020Y0533180D01*
X0386190Y0533430D01*
X0386380Y0533660D01*
X0386610Y0533870D01*
X0386860Y0534040D01*
X0387120Y0534180D01*
X0387410Y0534280D01*
X0387700Y0534350D01*
X0388000Y0534380D01*
X0388310Y0534370D01*
X0388610Y0534320D01*
X0388900Y0534230D01*
X0389170Y0534110D01*
X0389430Y0533960D01*
X0389670Y0533770D01*
X0389880Y0533550D01*
X0390060Y0533310D01*
X0390210Y0533040D01*
X0390320Y0532760D01*
X0390400Y0532470D01*
X0390440Y0532170D01*
X0390440Y0531870D01*
X0390400Y0531570D01*
X0390320Y0531280D01*
X0390210Y0531000D01*
X0390060Y0530730D01*
X0389880Y0530490D01*
X0389670Y0530270D01*
X0389430Y0530080D01*
X0389170Y0529930D01*
X0388900Y0529810D01*
X0388610Y0529720D01*
X0388310Y0529670D01*
X0388000Y0529660D01*
X0387700Y0529690D01*
X0387410Y0529760D01*
X0387120Y0529860D01*
X0386860Y0530000D01*
X0386610Y0530170D01*
X0386380Y0530380D01*
X0386190Y0530610D01*
X0386020Y0530860D01*
X0385890Y0531130D01*
X0385800Y0531420D01*
X0385740Y0531720D01*
X0385720Y0532020D01*
X0385720Y0539020D02*
X0385740Y0539320D01*
X0385800Y0539620D01*
X0385890Y0539910D01*
X0386020Y0540180D01*
X0386190Y0540430D01*
X0386380Y0540660D01*
X0386610Y0540870D01*
X0386860Y0541040D01*
X0387120Y0541180D01*
X0387410Y0541280D01*
X0387700Y0541350D01*
X0388000Y0541380D01*
X0388310Y0541370D01*
X0388610Y0541320D01*
X0388900Y0541230D01*
X0389170Y0541110D01*
X0389430Y0540960D01*
X0389670Y0540770D01*
X0389880Y0540550D01*
X0390060Y0540310D01*
X0390210Y0540040D01*
X0390320Y0539760D01*
X0390400Y0539470D01*
X0390440Y0539170D01*
X0390440Y0538870D01*
X0390400Y0538570D01*
X0390320Y0538280D01*
X0390210Y0538000D01*
X0390060Y0537730D01*
X0389880Y0537490D01*
X0389670Y0537270D01*
X0389430Y0537080D01*
X0389170Y0536930D01*
X0388900Y0536810D01*
X0388610Y0536720D01*
X0388310Y0536670D01*
X0388000Y0536660D01*
X0387700Y0536690D01*
X0387410Y0536760D01*
X0387120Y0536860D01*
X0386860Y0537000D01*
X0386610Y0537170D01*
X0386380Y0537380D01*
X0386190Y0537610D01*
X0386020Y0537860D01*
X0385890Y0538130D01*
X0385800Y0538420D01*
X0385740Y0538720D01*
X0385720Y0539020D01*
X0385720Y0546020D02*
X0385740Y0546320D01*
X0385800Y0546620D01*
X0385890Y0546910D01*
X0386020Y0547180D01*
X0386190Y0547430D01*
X0386380Y0547660D01*
X0386610Y0547870D01*
X0386860Y0548040D01*
X0387120Y0548180D01*
X0387410Y0548280D01*
X0387700Y0548350D01*
X0388000Y0548380D01*
X0388310Y0548370D01*
X0388610Y0548320D01*
X0388900Y0548230D01*
X0389170Y0548110D01*
X0389430Y0547960D01*
X0389670Y0547770D01*
X0389880Y0547550D01*
X0390060Y0547310D01*
X0390210Y0547040D01*
X0390320Y0546760D01*
X0390400Y0546470D01*
X0390440Y0546170D01*
X0390440Y0545870D01*
X0390400Y0545570D01*
X0390320Y0545280D01*
X0390210Y0545000D01*
X0390060Y0544730D01*
X0389880Y0544490D01*
X0389670Y0544270D01*
X0389430Y0544080D01*
X0389170Y0543930D01*
X0388900Y0543810D01*
X0388610Y0543720D01*
X0388310Y0543670D01*
X0388000Y0543660D01*
X0387700Y0543690D01*
X0387410Y0543760D01*
X0387120Y0543860D01*
X0386860Y0544000D01*
X0386610Y0544170D01*
X0386380Y0544380D01*
X0386190Y0544610D01*
X0386020Y0544860D01*
X0385890Y0545130D01*
X0385800Y0545420D01*
X0385740Y0545720D01*
X0385720Y0546020D01*
X0385720Y0553020D02*
X0385740Y0553320D01*
X0385800Y0553620D01*
X0385890Y0553910D01*
X0386020Y0554180D01*
X0386190Y0554430D01*
X0386380Y0554660D01*
X0386610Y0554870D01*
X0386860Y0555040D01*
X0387120Y0555180D01*
X0387410Y0555280D01*
X0387700Y0555350D01*
X0388000Y0555380D01*
X0388310Y0555370D01*
X0388610Y0555320D01*
X0388900Y0555230D01*
X0389170Y0555110D01*
X0389430Y0554960D01*
X0389670Y0554770D01*
X0389880Y0554550D01*
X0390060Y0554310D01*
X0390210Y0554040D01*
X0390320Y0553760D01*
X0390400Y0553470D01*
X0390440Y0553170D01*
X0390440Y0552870D01*
X0390400Y0552570D01*
X0390320Y0552280D01*
X0390210Y0552000D01*
X0390060Y0551730D01*
X0389880Y0551490D01*
X0389670Y0551270D01*
X0389430Y0551080D01*
X0389170Y0550930D01*
X0388900Y0550810D01*
X0388610Y0550720D01*
X0388310Y0550670D01*
X0388000Y0550660D01*
X0387700Y0550690D01*
X0387410Y0550760D01*
X0387120Y0550860D01*
X0386860Y0551000D01*
X0386610Y0551170D01*
X0386380Y0551380D01*
X0386190Y0551610D01*
X0386020Y0551860D01*
X0385890Y0552130D01*
X0385800Y0552420D01*
X0385740Y0552720D01*
X0385720Y0553020D01*
X0385720Y0560020D02*
X0385740Y0560320D01*
X0385800Y0560620D01*
X0385890Y0560910D01*
X0386020Y0561180D01*
X0386190Y0561430D01*
X0386380Y0561660D01*
X0386610Y0561870D01*
X0386860Y0562040D01*
X0387120Y0562180D01*
X0387410Y0562280D01*
X0387700Y0562350D01*
X0388000Y0562380D01*
X0388310Y0562370D01*
X0388610Y0562320D01*
X0388900Y0562230D01*
X0389170Y0562110D01*
X0389430Y0561960D01*
X0389670Y0561770D01*
X0389880Y0561550D01*
X0390060Y0561310D01*
X0390210Y0561040D01*
X0390320Y0560760D01*
X0390400Y0560470D01*
X0390440Y0560170D01*
X0390440Y0559870D01*
X0390400Y0559570D01*
X0390320Y0559280D01*
X0390210Y0559000D01*
X0390060Y0558730D01*
X0389880Y0558490D01*
X0389670Y0558270D01*
X0389430Y0558080D01*
X0389170Y0557930D01*
X0388900Y0557810D01*
X0388610Y0557720D01*
X0388310Y0557670D01*
X0388000Y0557660D01*
X0387700Y0557690D01*
X0387410Y0557760D01*
X0387120Y0557860D01*
X0386860Y0558000D01*
X0386610Y0558170D01*
X0386380Y0558380D01*
X0386190Y0558610D01*
X0386020Y0558860D01*
X0385890Y0559130D01*
X0385800Y0559420D01*
X0385740Y0559720D01*
X0385720Y0560020D01*
X0278810Y0549180D02*
X0278830Y0549440D01*
X0278890Y0549700D01*
X0278990Y0549950D01*
X0279120Y0550180D01*
X0279280Y0550380D01*
X0279480Y0550560D01*
X0279700Y0550710D01*
X0279930Y0550830D01*
X0280190Y0550910D01*
X0280450Y0550950D01*
X0280710Y0550950D01*
X0280970Y0550910D01*
X0281230Y0550830D01*
X0281470Y0550710D01*
X0281680Y0550560D01*
X0281880Y0550380D01*
X0282040Y0550180D01*
X0282170Y0549950D01*
X0282270Y0549700D01*
X0282330Y0549440D01*
X0282350Y0549180D01*
X0282330Y0548920D01*
X0282270Y0548660D01*
X0282170Y0548410D01*
X0282040Y0548180D01*
X0281880Y0547980D01*
X0281680Y0547800D01*
X0281460Y0547650D01*
X0281230Y0547530D01*
X0280970Y0547450D01*
X0280710Y0547410D01*
X0280450Y0547410D01*
X0280190Y0547450D01*
X0279930Y0547530D01*
X0279690Y0547650D01*
X0279480Y0547800D01*
X0279280Y0547980D01*
X0279120Y0548180D01*
X0278990Y0548410D01*
X0278890Y0548660D01*
X0278830Y0548920D01*
X0278810Y0549180D01*
X0278810Y0531860D02*
X0278830Y0532120D01*
X0278890Y0532380D01*
X0278990Y0532630D01*
X0279120Y0532860D01*
X0279280Y0533060D01*
X0279480Y0533240D01*
X0279700Y0533390D01*
X0279930Y0533510D01*
X0280190Y0533590D01*
X0280450Y0533630D01*
X0280710Y0533630D01*
X0280970Y0533590D01*
X0281230Y0533510D01*
X0281470Y0533390D01*
X0281680Y0533240D01*
X0281880Y0533060D01*
X0282040Y0532860D01*
X0282170Y0532630D01*
X0282270Y0532380D01*
X0282330Y0532120D01*
X0282350Y0531860D01*
X0282330Y0531600D01*
X0282270Y0531340D01*
X0282170Y0531090D01*
X0282040Y0530860D01*
X0281880Y0530660D01*
X0281680Y0530480D01*
X0281460Y0530330D01*
X0281230Y0530210D01*
X0280970Y0530130D01*
X0280710Y0530090D01*
X0280450Y0530090D01*
X0280190Y0530130D01*
X0279930Y0530210D01*
X0279690Y0530330D01*
X0279480Y0530480D01*
X0279280Y0530660D01*
X0279120Y0530860D01*
X0278990Y0531090D01*
X0278890Y0531340D01*
X0278830Y0531600D01*
X0278810Y0531860D01*
X0277720Y0459020D02*
X0277740Y0459320D01*
X0277800Y0459620D01*
X0277890Y0459910D01*
X0278020Y0460180D01*
X0278190Y0460430D01*
X0278380Y0460660D01*
X0278610Y0460870D01*
X0278860Y0461040D01*
X0279120Y0461180D01*
X0279410Y0461280D01*
X0279700Y0461350D01*
X0280000Y0461380D01*
X0280310Y0461370D01*
X0280610Y0461320D01*
X0280900Y0461230D01*
X0281170Y0461110D01*
X0281430Y0460960D01*
X0281670Y0460770D01*
X0281880Y0460550D01*
X0282060Y0460310D01*
X0282210Y0460040D01*
X0282320Y0459760D01*
X0282400Y0459470D01*
X0282440Y0459170D01*
X0282440Y0458870D01*
X0282400Y0458570D01*
X0282320Y0458280D01*
X0282210Y0458000D01*
X0282060Y0457730D01*
X0281880Y0457490D01*
X0281670Y0457270D01*
X0281430Y0457080D01*
X0281170Y0456930D01*
X0280900Y0456810D01*
X0280610Y0456720D01*
X0280310Y0456670D01*
X0280000Y0456660D01*
X0279700Y0456690D01*
X0279410Y0456760D01*
X0279120Y0456860D01*
X0278860Y0457000D01*
X0278610Y0457170D01*
X0278380Y0457380D01*
X0278190Y0457610D01*
X0278020Y0457860D01*
X0277890Y0458130D01*
X0277800Y0458420D01*
X0277740Y0458720D01*
X0277720Y0459020D01*
X0270720Y0459020D02*
X0270740Y0459320D01*
X0270800Y0459620D01*
X0270890Y0459910D01*
X0271020Y0460180D01*
X0271190Y0460430D01*
X0271380Y0460660D01*
X0271610Y0460870D01*
X0271860Y0461040D01*
X0272120Y0461180D01*
X0272410Y0461280D01*
X0272700Y0461350D01*
X0273000Y0461380D01*
X0273310Y0461370D01*
X0273610Y0461320D01*
X0273900Y0461230D01*
X0274170Y0461110D01*
X0274430Y0460960D01*
X0274670Y0460770D01*
X0274880Y0460550D01*
X0275060Y0460310D01*
X0275210Y0460040D01*
X0275320Y0459760D01*
X0275400Y0459470D01*
X0275440Y0459170D01*
X0275440Y0458870D01*
X0275400Y0458570D01*
X0275320Y0458280D01*
X0275210Y0458000D01*
X0275060Y0457730D01*
X0274880Y0457490D01*
X0274670Y0457270D01*
X0274430Y0457080D01*
X0274170Y0456930D01*
X0273900Y0456810D01*
X0273610Y0456720D01*
X0273310Y0456670D01*
X0273000Y0456660D01*
X0272700Y0456690D01*
X0272410Y0456760D01*
X0272120Y0456860D01*
X0271860Y0457000D01*
X0271610Y0457170D01*
X0271380Y0457380D01*
X0271190Y0457610D01*
X0271020Y0457860D01*
X0270890Y0458130D01*
X0270800Y0458420D01*
X0270740Y0458720D01*
X0270720Y0459020D01*
X0263720Y0459020D02*
X0263740Y0459320D01*
X0263800Y0459620D01*
X0263890Y0459910D01*
X0264020Y0460180D01*
X0264190Y0460430D01*
X0264380Y0460660D01*
X0264610Y0460870D01*
X0264860Y0461040D01*
X0265120Y0461180D01*
X0265410Y0461280D01*
X0265700Y0461350D01*
X0266000Y0461380D01*
X0266310Y0461370D01*
X0266610Y0461320D01*
X0266900Y0461230D01*
X0267170Y0461110D01*
X0267430Y0460960D01*
X0267670Y0460770D01*
X0267880Y0460550D01*
X0268060Y0460310D01*
X0268210Y0460040D01*
X0268320Y0459760D01*
X0268400Y0459470D01*
X0268440Y0459170D01*
X0268440Y0458870D01*
X0268400Y0458570D01*
X0268320Y0458280D01*
X0268210Y0458000D01*
X0268060Y0457730D01*
X0267880Y0457490D01*
X0267670Y0457270D01*
X0267430Y0457080D01*
X0267170Y0456930D01*
X0266900Y0456810D01*
X0266610Y0456720D01*
X0266310Y0456670D01*
X0266000Y0456660D01*
X0265700Y0456690D01*
X0265410Y0456760D01*
X0265120Y0456860D01*
X0264860Y0457000D01*
X0264610Y0457170D01*
X0264380Y0457380D01*
X0264190Y0457610D01*
X0264020Y0457860D01*
X0263890Y0458130D01*
X0263800Y0458420D01*
X0263740Y0458720D01*
X0263720Y0459020D01*
X0284720Y0459020D02*
X0284740Y0459320D01*
X0284800Y0459620D01*
X0284890Y0459910D01*
X0285020Y0460180D01*
X0285190Y0460430D01*
X0285380Y0460660D01*
X0285610Y0460870D01*
X0285860Y0461040D01*
X0286120Y0461180D01*
X0286410Y0461280D01*
X0286700Y0461350D01*
X0287000Y0461380D01*
X0287310Y0461370D01*
X0287610Y0461320D01*
X0287900Y0461230D01*
X0288170Y0461110D01*
X0288430Y0460960D01*
X0288670Y0460770D01*
X0288880Y0460550D01*
X0289060Y0460310D01*
X0289210Y0460040D01*
X0289320Y0459760D01*
X0289400Y0459470D01*
X0289440Y0459170D01*
X0289440Y0458870D01*
X0289400Y0458570D01*
X0289320Y0458280D01*
X0289210Y0458000D01*
X0289060Y0457730D01*
X0288880Y0457490D01*
X0288670Y0457270D01*
X0288430Y0457080D01*
X0288170Y0456930D01*
X0287900Y0456810D01*
X0287610Y0456720D01*
X0287310Y0456670D01*
X0287000Y0456660D01*
X0286700Y0456690D01*
X0286410Y0456760D01*
X0286120Y0456860D01*
X0285860Y0457000D01*
X0285610Y0457170D01*
X0285380Y0457380D01*
X0285190Y0457610D01*
X0285020Y0457860D01*
X0284890Y0458130D01*
X0284800Y0458420D01*
X0284740Y0458720D01*
X0284720Y0459020D01*
X0291720Y0459020D02*
X0291740Y0459320D01*
X0291800Y0459620D01*
X0291890Y0459910D01*
X0292020Y0460180D01*
X0292190Y0460430D01*
X0292380Y0460660D01*
X0292610Y0460870D01*
X0292860Y0461040D01*
X0293120Y0461180D01*
X0293410Y0461280D01*
X0293700Y0461350D01*
X0294000Y0461380D01*
X0294310Y0461370D01*
X0294610Y0461320D01*
X0294900Y0461230D01*
X0295170Y0461110D01*
X0295430Y0460960D01*
X0295670Y0460770D01*
X0295880Y0460550D01*
X0296060Y0460310D01*
X0296210Y0460040D01*
X0296320Y0459760D01*
X0296400Y0459470D01*
X0296440Y0459170D01*
X0296440Y0458870D01*
X0296400Y0458570D01*
X0296320Y0458280D01*
X0296210Y0458000D01*
X0296060Y0457730D01*
X0295880Y0457490D01*
X0295670Y0457270D01*
X0295430Y0457080D01*
X0295170Y0456930D01*
X0294900Y0456810D01*
X0294610Y0456720D01*
X0294310Y0456670D01*
X0294000Y0456660D01*
X0293700Y0456690D01*
X0293410Y0456760D01*
X0293120Y0456860D01*
X0292860Y0457000D01*
X0292610Y0457170D01*
X0292380Y0457380D01*
X0292190Y0457610D01*
X0292020Y0457860D01*
X0291890Y0458130D01*
X0291800Y0458420D01*
X0291740Y0458720D01*
X0291720Y0459020D01*
X0298720Y0459020D02*
X0298740Y0459320D01*
X0298800Y0459620D01*
X0298890Y0459910D01*
X0299020Y0460180D01*
X0299190Y0460430D01*
X0299380Y0460660D01*
X0299610Y0460870D01*
X0299860Y0461040D01*
X0300120Y0461180D01*
X0300410Y0461280D01*
X0300700Y0461350D01*
X0301000Y0461380D01*
X0301310Y0461370D01*
X0301610Y0461320D01*
X0301900Y0461230D01*
X0302170Y0461110D01*
X0302430Y0460960D01*
X0302670Y0460770D01*
X0302880Y0460550D01*
X0303060Y0460310D01*
X0303210Y0460040D01*
X0303320Y0459760D01*
X0303400Y0459470D01*
X0303440Y0459170D01*
X0303440Y0458870D01*
X0303400Y0458570D01*
X0303320Y0458280D01*
X0303210Y0458000D01*
X0303060Y0457730D01*
X0302880Y0457490D01*
X0302670Y0457270D01*
X0302430Y0457080D01*
X0302170Y0456930D01*
X0301900Y0456810D01*
X0301610Y0456720D01*
X0301310Y0456670D01*
X0301000Y0456660D01*
X0300700Y0456690D01*
X0300410Y0456760D01*
X0300120Y0456860D01*
X0299860Y0457000D01*
X0299610Y0457170D01*
X0299380Y0457380D01*
X0299190Y0457610D01*
X0299020Y0457860D01*
X0298890Y0458130D01*
X0298800Y0458420D01*
X0298740Y0458720D01*
X0298720Y0459020D01*
X0305720Y0459020D02*
X0305740Y0459320D01*
X0305800Y0459620D01*
X0305890Y0459910D01*
X0306020Y0460180D01*
X0306190Y0460430D01*
X0306380Y0460660D01*
X0306610Y0460870D01*
X0306860Y0461040D01*
X0307120Y0461180D01*
X0307410Y0461280D01*
X0307700Y0461350D01*
X0308000Y0461380D01*
X0308310Y0461370D01*
X0308610Y0461320D01*
X0308900Y0461230D01*
X0309170Y0461110D01*
X0309430Y0460960D01*
X0309670Y0460770D01*
X0309880Y0460550D01*
X0310060Y0460310D01*
X0310210Y0460040D01*
X0310320Y0459760D01*
X0310400Y0459470D01*
X0310440Y0459170D01*
X0310440Y0458870D01*
X0310400Y0458570D01*
X0310320Y0458280D01*
X0310210Y0458000D01*
X0310060Y0457730D01*
X0309880Y0457490D01*
X0309670Y0457270D01*
X0309430Y0457080D01*
X0309170Y0456930D01*
X0308900Y0456810D01*
X0308610Y0456720D01*
X0308310Y0456670D01*
X0308000Y0456660D01*
X0307700Y0456690D01*
X0307410Y0456760D01*
X0307120Y0456860D01*
X0306860Y0457000D01*
X0306610Y0457170D01*
X0306380Y0457380D01*
X0306190Y0457610D01*
X0306020Y0457860D01*
X0305890Y0458130D01*
X0305800Y0458420D01*
X0305740Y0458720D01*
X0305720Y0459020D01*
X0312720Y0459020D02*
X0312740Y0459320D01*
X0312800Y0459620D01*
X0312890Y0459910D01*
X0313020Y0460180D01*
X0313190Y0460430D01*
X0313380Y0460660D01*
X0313610Y0460870D01*
X0313860Y0461040D01*
X0314120Y0461180D01*
X0314410Y0461280D01*
X0314700Y0461350D01*
X0315000Y0461380D01*
X0315310Y0461370D01*
X0315610Y0461320D01*
X0315900Y0461230D01*
X0316170Y0461110D01*
X0316430Y0460960D01*
X0316670Y0460770D01*
X0316880Y0460550D01*
X0317060Y0460310D01*
X0317210Y0460040D01*
X0317320Y0459760D01*
X0317400Y0459470D01*
X0317440Y0459170D01*
X0317440Y0458870D01*
X0317400Y0458570D01*
X0317320Y0458280D01*
X0317210Y0458000D01*
X0317060Y0457730D01*
X0316880Y0457490D01*
X0316670Y0457270D01*
X0316430Y0457080D01*
X0316170Y0456930D01*
X0315900Y0456810D01*
X0315610Y0456720D01*
X0315310Y0456670D01*
X0315000Y0456660D01*
X0314700Y0456690D01*
X0314410Y0456760D01*
X0314120Y0456860D01*
X0313860Y0457000D01*
X0313610Y0457170D01*
X0313380Y0457380D01*
X0313190Y0457610D01*
X0313020Y0457860D01*
X0312890Y0458130D01*
X0312800Y0458420D01*
X0312740Y0458720D01*
X0312720Y0459020D01*
X0319720Y0459020D02*
X0319740Y0459320D01*
X0319800Y0459620D01*
X0319890Y0459910D01*
X0320020Y0460180D01*
X0320190Y0460430D01*
X0320380Y0460660D01*
X0320610Y0460870D01*
X0320860Y0461040D01*
X0321120Y0461180D01*
X0321410Y0461280D01*
X0321700Y0461350D01*
X0322000Y0461380D01*
X0322310Y0461370D01*
X0322610Y0461320D01*
X0322900Y0461230D01*
X0323170Y0461110D01*
X0323430Y0460960D01*
X0323670Y0460770D01*
X0323880Y0460550D01*
X0324060Y0460310D01*
X0324210Y0460040D01*
X0324320Y0459760D01*
X0324400Y0459470D01*
X0324440Y0459170D01*
X0324440Y0458870D01*
X0324400Y0458570D01*
X0324320Y0458280D01*
X0324210Y0458000D01*
X0324060Y0457730D01*
X0323880Y0457490D01*
X0323670Y0457270D01*
X0323430Y0457080D01*
X0323170Y0456930D01*
X0322900Y0456810D01*
X0322610Y0456720D01*
X0322310Y0456670D01*
X0322000Y0456660D01*
X0321700Y0456690D01*
X0321410Y0456760D01*
X0321120Y0456860D01*
X0320860Y0457000D01*
X0320610Y0457170D01*
X0320380Y0457380D01*
X0320190Y0457610D01*
X0320020Y0457860D01*
X0319890Y0458130D01*
X0319800Y0458420D01*
X0319740Y0458720D01*
X0319720Y0459020D01*
X0326720Y0459020D02*
X0326740Y0459320D01*
X0326800Y0459620D01*
X0326890Y0459910D01*
X0327020Y0460180D01*
X0327190Y0460430D01*
X0327380Y0460660D01*
X0327610Y0460870D01*
X0327860Y0461040D01*
X0328120Y0461180D01*
X0328410Y0461280D01*
X0328700Y0461350D01*
X0329000Y0461380D01*
X0329310Y0461370D01*
X0329610Y0461320D01*
X0329900Y0461230D01*
X0330170Y0461110D01*
X0330430Y0460960D01*
X0330670Y0460770D01*
X0330880Y0460550D01*
X0331060Y0460310D01*
X0331210Y0460040D01*
X0331320Y0459760D01*
X0331400Y0459470D01*
X0331440Y0459170D01*
X0331440Y0458870D01*
X0331400Y0458570D01*
X0331320Y0458280D01*
X0331210Y0458000D01*
X0331060Y0457730D01*
X0330880Y0457490D01*
X0330670Y0457270D01*
X0330430Y0457080D01*
X0330170Y0456930D01*
X0329900Y0456810D01*
X0329610Y0456720D01*
X0329310Y0456670D01*
X0329000Y0456660D01*
X0328700Y0456690D01*
X0328410Y0456760D01*
X0328120Y0456860D01*
X0327860Y0457000D01*
X0327610Y0457170D01*
X0327380Y0457380D01*
X0327190Y0457610D01*
X0327020Y0457860D01*
X0326890Y0458130D01*
X0326800Y0458420D01*
X0326740Y0458720D01*
X0326720Y0459020D01*
X0333720Y0459020D02*
X0333740Y0459320D01*
X0333800Y0459620D01*
X0333890Y0459910D01*
X0334020Y0460180D01*
X0334190Y0460430D01*
X0334380Y0460660D01*
X0334610Y0460870D01*
X0334860Y0461040D01*
X0335120Y0461180D01*
X0335410Y0461280D01*
X0335700Y0461350D01*
X0336000Y0461380D01*
X0336310Y0461370D01*
X0336610Y0461320D01*
X0336900Y0461230D01*
X0337170Y0461110D01*
X0337430Y0460960D01*
X0337670Y0460770D01*
X0337880Y0460550D01*
X0338060Y0460310D01*
X0338210Y0460040D01*
X0338320Y0459760D01*
X0338400Y0459470D01*
X0338440Y0459170D01*
X0338440Y0458870D01*
X0338400Y0458570D01*
X0338320Y0458280D01*
X0338210Y0458000D01*
X0338060Y0457730D01*
X0337880Y0457490D01*
X0337670Y0457270D01*
X0337430Y0457080D01*
X0337170Y0456930D01*
X0336900Y0456810D01*
X0336610Y0456720D01*
X0336310Y0456670D01*
X0336000Y0456660D01*
X0335700Y0456690D01*
X0335410Y0456760D01*
X0335120Y0456860D01*
X0334860Y0457000D01*
X0334610Y0457170D01*
X0334380Y0457380D01*
X0334190Y0457610D01*
X0334020Y0457860D01*
X0333890Y0458130D01*
X0333800Y0458420D01*
X0333740Y0458720D01*
X0333720Y0459020D01*
X0340720Y0459020D02*
X0340740Y0459320D01*
X0340800Y0459620D01*
X0340890Y0459910D01*
X0341020Y0460180D01*
X0341190Y0460430D01*
X0341380Y0460660D01*
X0341610Y0460870D01*
X0341860Y0461040D01*
X0342120Y0461180D01*
X0342410Y0461280D01*
X0342700Y0461350D01*
X0343000Y0461380D01*
X0343310Y0461370D01*
X0343610Y0461320D01*
X0343900Y0461230D01*
X0344170Y0461110D01*
X0344430Y0460960D01*
X0344670Y0460770D01*
X0344880Y0460550D01*
X0345060Y0460310D01*
X0345210Y0460040D01*
X0345320Y0459760D01*
X0345400Y0459470D01*
X0345440Y0459170D01*
X0345440Y0458870D01*
X0345400Y0458570D01*
X0345320Y0458280D01*
X0345210Y0458000D01*
X0345060Y0457730D01*
X0344880Y0457490D01*
X0344670Y0457270D01*
X0344430Y0457080D01*
X0344170Y0456930D01*
X0343900Y0456810D01*
X0343610Y0456720D01*
X0343310Y0456670D01*
X0343000Y0456660D01*
X0342700Y0456690D01*
X0342410Y0456760D01*
X0342120Y0456860D01*
X0341860Y0457000D01*
X0341610Y0457170D01*
X0341380Y0457380D01*
X0341190Y0457610D01*
X0341020Y0457860D01*
X0340890Y0458130D01*
X0340800Y0458420D01*
X0340740Y0458720D01*
X0340720Y0459020D01*
X0347720Y0459020D02*
X0347740Y0459320D01*
X0347800Y0459620D01*
X0347890Y0459910D01*
X0348020Y0460180D01*
X0348190Y0460430D01*
X0348380Y0460660D01*
X0348610Y0460870D01*
X0348860Y0461040D01*
X0349120Y0461180D01*
X0349410Y0461280D01*
X0349700Y0461350D01*
X0350000Y0461380D01*
X0350310Y0461370D01*
X0350610Y0461320D01*
X0350900Y0461230D01*
X0351170Y0461110D01*
X0351430Y0460960D01*
X0351670Y0460770D01*
X0351880Y0460550D01*
X0352060Y0460310D01*
X0352210Y0460040D01*
X0352320Y0459760D01*
X0352400Y0459470D01*
X0352440Y0459170D01*
X0352440Y0458870D01*
X0352400Y0458570D01*
X0352320Y0458280D01*
X0352210Y0458000D01*
X0352060Y0457730D01*
X0351880Y0457490D01*
X0351670Y0457270D01*
X0351430Y0457080D01*
X0351170Y0456930D01*
X0350900Y0456810D01*
X0350610Y0456720D01*
X0350310Y0456670D01*
X0350000Y0456660D01*
X0349700Y0456690D01*
X0349410Y0456760D01*
X0349120Y0456860D01*
X0348860Y0457000D01*
X0348610Y0457170D01*
X0348380Y0457380D01*
X0348190Y0457610D01*
X0348020Y0457860D01*
X0347890Y0458130D01*
X0347800Y0458420D01*
X0347740Y0458720D01*
X0347720Y0459020D01*
X0580720Y0339170D02*
G75*
%LPD*%
D40*
X0580720Y0340170D02*
X0580720Y0415130D01*
X0813930Y0415130D01*
X0813930Y0339170D01*
X0580720Y0340170D01*
X0100960Y0657010D02*
G75*
%LPD*%
D40*
X0100960Y0658010D02*
X0100960Y0732970D01*
X0334170Y0732970D01*
X0334170Y0657010D01*
X0100960Y0658010D01*
X0580720Y0420130D02*
G75*
%LPD*%
D40*
X0655680Y0420130D02*
X0580720Y0420130D01*
X0580720Y0653340D01*
X0656680Y0653340D01*
X0655680Y0420130D01*
X0644530Y0020000D02*
G75*
%LPD*%
D40*
X0644530Y0020000D02*
X0644530Y0234960D01*
X0893230Y0234960D01*
X0893230Y0020000D01*
X0644530Y0020000D01*
X0658280Y0055000D02*
X0658300Y0055500D01*
X0658360Y0055990D01*
X0658460Y0056480D01*
X0658590Y0056950D01*
X0658770Y0057420D01*
X0658980Y0057870D01*
X0659220Y0058300D01*
X0659500Y0058710D01*
X0659810Y0059100D01*
X0660150Y0059460D01*
X0660520Y0059800D01*
X0660920Y0060100D01*
X0661330Y0060370D01*
X0661770Y0060610D01*
X0662220Y0060810D01*
X0662690Y0060970D01*
X0663170Y0061100D01*
X0663660Y0061190D01*
X0664160Y0061240D01*
X0664650Y0061250D01*
X0665150Y0061220D01*
X0665640Y0061150D01*
X0666130Y0061040D01*
X0666600Y0060900D01*
X0667060Y0060710D01*
X0667510Y0060490D01*
X0667940Y0060240D01*
X0668340Y0059950D01*
X0668720Y0059630D01*
X0669080Y0059290D01*
X0669410Y0058910D01*
X0669700Y0058510D01*
X0669960Y0058090D01*
X0670190Y0057650D01*
X0670380Y0057190D01*
X0670540Y0056720D01*
X0670660Y0056230D01*
X0670740Y0055740D01*
X0670780Y0055250D01*
X0670780Y0054750D01*
X0670740Y0054260D01*
X0670660Y0053770D01*
X0670540Y0053280D01*
X0670380Y0052810D01*
X0670190Y0052350D01*
X0669960Y0051910D01*
X0669700Y0051490D01*
X0669410Y0051090D01*
X0669080Y0050710D01*
X0668720Y0050370D01*
X0668340Y0050050D01*
X0667940Y0049760D01*
X0667510Y0049510D01*
X0667060Y0049290D01*
X0666600Y0049100D01*
X0666130Y0048960D01*
X0665640Y0048850D01*
X0665150Y0048780D01*
X0664650Y0048750D01*
X0664160Y0048760D01*
X0663660Y0048810D01*
X0663170Y0048900D01*
X0662690Y0049030D01*
X0662220Y0049190D01*
X0661770Y0049390D01*
X0661330Y0049630D01*
X0660920Y0049900D01*
X0660520Y0050200D01*
X0660150Y0050540D01*
X0659810Y0050900D01*
X0659500Y0051290D01*
X0659220Y0051700D01*
X0658980Y0052130D01*
X0658770Y0052580D01*
X0658590Y0053050D01*
X0658460Y0053520D01*
X0658360Y0054010D01*
X0658300Y0054500D01*
X0658280Y0055000D01*
X0342510Y0568240D02*
G75*
%LPD*%
D40*
X0342510Y0569240D02*
X0342510Y0644200D01*
X0575720Y0644200D01*
X0575720Y0568240D01*
X0342510Y0569240D01*
X0898230Y0020000D02*
G75*
%LPD*%
D40*
X0898230Y0020000D02*
X0898230Y0234960D01*
X1146930Y0234960D01*
X1146930Y0020000D01*
X0898230Y0020000D01*
X0911980Y0055000D02*
X0912000Y0055500D01*
X0912060Y0055990D01*
X0912160Y0056480D01*
X0912290Y0056950D01*
X0912470Y0057420D01*
X0912680Y0057870D01*
X0912920Y0058300D01*
X0913200Y0058710D01*
X0913510Y0059100D01*
X0913850Y0059460D01*
X0914220Y0059800D01*
X0914620Y0060100D01*
X0915030Y0060370D01*
X0915470Y0060610D01*
X0915920Y0060810D01*
X0916390Y0060970D01*
X0916870Y0061100D01*
X0917360Y0061190D01*
X0917860Y0061240D01*
X0918350Y0061250D01*
X0918850Y0061220D01*
X0919340Y0061150D01*
X0919830Y0061040D01*
X0920300Y0060900D01*
X0920760Y0060710D01*
X0921210Y0060490D01*
X0921640Y0060240D01*
X0922040Y0059950D01*
X0922420Y0059630D01*
X0922780Y0059290D01*
X0923110Y0058910D01*
X0923400Y0058510D01*
X0923660Y0058090D01*
X0923890Y0057650D01*
X0924080Y0057190D01*
X0924240Y0056720D01*
X0924360Y0056230D01*
X0924440Y0055740D01*
X0924480Y0055250D01*
X0924480Y0054750D01*
X0924440Y0054260D01*
X0924360Y0053770D01*
X0924240Y0053280D01*
X0924080Y0052810D01*
X0923890Y0052350D01*
X0923660Y0051910D01*
X0923400Y0051490D01*
X0923110Y0051090D01*
X0922780Y0050710D01*
X0922420Y0050370D01*
X0922040Y0050050D01*
X0921640Y0049760D01*
X0921210Y0049510D01*
X0920760Y0049290D01*
X0920300Y0049100D01*
X0919830Y0048960D01*
X0919340Y0048850D01*
X0918850Y0048780D01*
X0918350Y0048750D01*
X0917860Y0048760D01*
X0917360Y0048810D01*
X0916870Y0048900D01*
X0916390Y0049030D01*
X0915920Y0049190D01*
X0915470Y0049390D01*
X0915030Y0049630D01*
X0914620Y0049900D01*
X0914220Y0050200D01*
X0913850Y0050540D01*
X0913510Y0050900D01*
X0913200Y0051290D01*
X0912920Y0051700D01*
X0912680Y0052130D01*
X0912470Y0052580D01*
X0912290Y0053050D01*
X0912160Y0053520D01*
X0912060Y0054010D01*
X0912000Y0054500D01*
X0911980Y0055000D01*
X0661680Y0420130D02*
G75*
%LPD*%
D40*
X0736640Y0420130D02*
X0661680Y0420130D01*
X0661680Y0653340D01*
X0737640Y0653340D01*
X0736640Y0420130D01*
X0342510Y0649200D02*
G75*
%LPD*%
D40*
X0342510Y0650200D02*
X0342510Y0725160D01*
X0575720Y0725160D01*
X0575720Y0649200D01*
X0342510Y0650200D01*
X0742640Y0420130D02*
G75*
%LPD*%
D40*
X0817600Y0420130D02*
X0742640Y0420130D01*
X0742640Y0653340D01*
X0818600Y0653340D01*
X0817600Y0420130D01*
X1151930Y0020000D02*
G75*
%LPD*%
D40*
X1226890Y0020000D02*
X1151930Y0020000D01*
X1151930Y0253210D01*
X1227890Y0253210D01*
X1226890Y0020000D01*
X1070970Y0239960D02*
G75*
%LPD*%
D40*
X1145930Y0239960D02*
X1070970Y0239960D01*
X1070970Y0473170D01*
X1146930Y0473170D01*
X1145930Y0239960D01*
X0801780Y0239960D02*
G75*
%LPD*%
D40*
X0801780Y0240960D02*
X0801780Y0315920D01*
X1034990Y0315920D01*
X1034990Y0239960D01*
X0801780Y0240960D01*
X0851010Y0320920D02*
G75*
%LPD*%
D40*
X1065970Y0320920D02*
X0851010Y0320920D01*
X0851010Y0569620D01*
X1065970Y0569620D01*
X1065970Y0320920D01*
X1030970Y0334670D02*
X1030470Y0334690D01*
X1029980Y0334750D01*
X1029490Y0334850D01*
X1029020Y0334980D01*
X1028550Y0335160D01*
X1028100Y0335370D01*
X1027670Y0335610D01*
X1027260Y0335890D01*
X1026870Y0336200D01*
X1026510Y0336540D01*
X1026170Y0336910D01*
X1025870Y0337310D01*
X1025600Y0337720D01*
X1025360Y0338160D01*
X1025160Y0338610D01*
X1025000Y0339080D01*
X1024870Y0339560D01*
X1024780Y0340050D01*
X1024730Y0340550D01*
X1024720Y0341040D01*
X1024750Y0341540D01*
X1024820Y0342030D01*
X1024930Y0342520D01*
X1025070Y0342990D01*
X1025260Y0343450D01*
X1025480Y0343900D01*
X1025730Y0344330D01*
X1026020Y0344730D01*
X1026340Y0345110D01*
X1026680Y0345470D01*
X1027060Y0345800D01*
X1027460Y0346090D01*
X1027880Y0346350D01*
X1028320Y0346580D01*
X1028780Y0346770D01*
X1029250Y0346930D01*
X1029740Y0347050D01*
X1030230Y0347130D01*
X1030720Y0347170D01*
X1031220Y0347170D01*
X1031710Y0347130D01*
X1032200Y0347050D01*
X1032690Y0346930D01*
X1033160Y0346770D01*
X1033620Y0346580D01*
X1034060Y0346350D01*
X1034480Y0346090D01*
X1034880Y0345800D01*
X1035260Y0345470D01*
X1035600Y0345110D01*
X1035920Y0344730D01*
X1036210Y0344330D01*
X1036460Y0343900D01*
X1036680Y0343450D01*
X1036870Y0342990D01*
X1037010Y0342520D01*
X1037120Y0342030D01*
X1037190Y0341540D01*
X1037220Y0341040D01*
X1037210Y0340550D01*
X1037160Y0340050D01*
X1037070Y0339560D01*
X1036940Y0339080D01*
X1036780Y0338610D01*
X1036580Y0338160D01*
X1036340Y0337720D01*
X1036070Y0337310D01*
X1035770Y0336910D01*
X1035430Y0336540D01*
X1035070Y0336200D01*
X1034680Y0335890D01*
X1034270Y0335610D01*
X1033840Y0335370D01*
X1033390Y0335160D01*
X1032920Y0334980D01*
X1032450Y0334850D01*
X1031960Y0334750D01*
X1031470Y0334690D01*
X1030970Y0334670D01*
X1151930Y0258210D02*
G75*
%LPD*%
D40*
X1226890Y0258210D02*
X1151930Y0258210D01*
X1151930Y0491420D01*
X1227890Y0491420D01*
X1226890Y0258210D01*
X1070970Y0478170D02*
G75*
%LPD*%
D40*
X1145930Y0478170D02*
X1070970Y0478170D01*
X1070970Y0711380D01*
X1146930Y0711380D01*
X1145930Y0478170D01*
X0832760Y0574620D02*
G75*
%LPD*%
D40*
X0832760Y0575620D02*
X0832760Y0650580D01*
X1065970Y0650580D01*
X1065970Y0574620D01*
X0832760Y0575620D01*
X0823600Y0655580D02*
G75*
%LPD*%
D40*
X0823600Y0656580D02*
X0823600Y0731540D01*
X1056810Y0731540D01*
X1056810Y0655580D01*
X0823600Y0656580D01*
X0580720Y0658340D02*
G75*
%LPD*%
D40*
X0580720Y0659340D02*
X0580720Y0734300D01*
X0813930Y0734300D01*
X0813930Y0658340D01*
X0580720Y0659340D01*
X1151930Y0496420D02*
G75*
%LPD*%
D40*
X1226890Y0496420D02*
X1151930Y0496420D01*
X1151930Y0729630D01*
X1227890Y0729630D01*
X1226890Y0496420D01*
M02*
