G75*
G70*
%OFA0B0*%
%FSLAX25Y25*%
%IPPOS*%
%LPD*%
%AMOC8*
5,1,8,0,0,1.08239X$1,22.5*
%
%ADD14C,0.05520*%
%ADD16C,0.13300*%
%ADD25C,0.06000*%
%ADD30R,0.07890X0.07100*%
%ADD36R,0.06740X0.06740*%
%ADD38OC8,0.06000*%
%ADD42R,0.07100X0.07890*%
%ADD43C,0.04340*%
%ADD45C,0.03950*%
%ADD48R,0.07100X0.07900*%
%ADD60R,0.07900X0.07100*%
%ADD64R,0.14190X0.08280*%
%ADD65C,0.03160*%
%ADD72OC8,0.12610*%
%ADD76C,0.06350*%
%ADD82OC8,0.19800*%
%ADD83C,0.07890*%
%ADD85OC8,0.06800*%
%ADD92C,0.06800*%
%ADD94R,0.07890X0.06310*%
%ADD96R,0.08280X0.14190*%
%ADD97R,0.06310X0.07890*%
X0020000Y0020000D02*
G75*
%LPD*%
D25*
X0092000Y0047400D02*
X0092000Y0052600D01*
X0102000Y0052600D02*
X0102000Y0047400D01*
X0112000Y0047400D02*
X0112000Y0052600D01*
X0122000Y0052600D02*
X0122000Y0047400D01*
X0132000Y0047400D02*
X0132000Y0052600D01*
X0142000Y0052600D02*
X0142000Y0047400D01*
X0152000Y0047400D02*
X0152000Y0052600D01*
X0162000Y0052600D02*
X0162000Y0047400D01*
X0162000Y0077400D02*
X0162000Y0082600D01*
X0152000Y0082600D02*
X0152000Y0077400D01*
X0142000Y0077400D02*
X0142000Y0082600D01*
X0132000Y0082600D02*
X0132000Y0077400D01*
X0122000Y0077400D02*
X0122000Y0082600D01*
X0112000Y0082600D02*
X0112000Y0077400D01*
X0102000Y0077400D02*
X0102000Y0082600D01*
X0092000Y0082600D02*
X0092000Y0077400D01*
D38*
X0027000Y0030000D03*
X0037000Y0030000D03*
X0057000Y0030000D03*
X0067000Y0030000D03*
X0087000Y0030000D03*
X0097000Y0030000D03*
X0117000Y0030000D03*
X0127000Y0030000D03*
X0147000Y0030000D03*
X0157000Y0030000D03*
X0177000Y0030000D03*
X0187000Y0030000D03*
X0207000Y0030000D03*
X0217000Y0030000D03*
X0237000Y0030000D03*
X0247000Y0030000D03*
X0204500Y0050000D03*
X0194500Y0050000D03*
X0184500Y0050000D03*
X0174500Y0050000D03*
X0174500Y0080000D03*
X0184500Y0080000D03*
X0194500Y0080000D03*
X0204500Y0080000D03*
X0077000Y0077500D03*
X0067000Y0077500D03*
X0057000Y0077500D03*
X0047000Y0077500D03*
X0047000Y0047500D03*
X0057000Y0047500D03*
X0067000Y0047500D03*
X0077000Y0047500D03*
D92*
X0038000Y0051000D02*
X0032000Y0051000D01*
X0032000Y0041000D02*
X0038000Y0041000D01*
X0038000Y0061000D02*
X0032000Y0061000D01*
X0032000Y0071000D02*
X0038000Y0071000D01*
X0038000Y0081000D02*
X0032000Y0081000D01*
X0215000Y0082000D02*
X0221000Y0082000D01*
X0221000Y0072000D02*
X0215000Y0072000D01*
X0215000Y0062000D02*
X0221000Y0062000D01*
X0221000Y0052000D02*
X0215000Y0052000D01*
X0215000Y0042000D02*
X0221000Y0042000D01*
X0258210Y0020000D02*
G75*
%LPD*%
D16*
X0278210Y0055000D03*
D92*
X0319310Y0112200D03*
X0337110Y0112200D03*
X0337110Y0137800D03*
X0337110Y0147200D03*
X0349310Y0147200D03*
X0367110Y0147200D03*
X0384310Y0142800D03*
X0402110Y0142800D03*
X0402110Y0117200D03*
X0384310Y0117200D03*
X0367110Y0172800D03*
X0349310Y0172800D03*
X0337110Y0172800D03*
X0337110Y0182200D03*
X0319310Y0182200D03*
X0319310Y0172800D03*
X0307110Y0172800D03*
X0289310Y0172800D03*
X0268210Y0170000D03*
X0268210Y0180000D03*
X0268210Y0190000D03*
X0268210Y0160000D03*
X0268210Y0150000D03*
X0268210Y0140000D03*
X0289310Y0147200D03*
X0307110Y0147200D03*
X0319310Y0147200D03*
X0319310Y0137800D03*
X0319310Y0207800D03*
X0337110Y0207800D03*
D85*
X0428760Y0139800D03*
X0438760Y0139800D03*
X0438760Y0129800D03*
X0438760Y0119800D03*
X0428760Y0119800D03*
X0428760Y0129800D03*
D25*
X0428210Y0102600D02*
X0428210Y0097400D01*
X0418210Y0097400D02*
X0418210Y0102600D01*
X0408210Y0102600D02*
X0408210Y0097400D01*
X0398210Y0097400D02*
X0398210Y0102600D01*
X0388210Y0102600D02*
X0388210Y0097400D01*
X0378210Y0097400D02*
X0378210Y0102600D01*
X0368210Y0102600D02*
X0368210Y0097400D01*
X0358210Y0097400D02*
X0358210Y0102600D01*
X0348210Y0102600D02*
X0348210Y0097400D01*
X0338210Y0097400D02*
X0338210Y0102600D01*
X0328210Y0102600D02*
X0328210Y0097400D01*
X0318210Y0097400D02*
X0318210Y0102600D01*
X0308210Y0102600D02*
X0308210Y0097400D01*
X0298210Y0097400D02*
X0298210Y0102600D01*
X0298210Y0072600D02*
X0298210Y0067400D01*
X0308210Y0067400D02*
X0308210Y0072600D01*
X0318210Y0072600D02*
X0318210Y0067400D01*
X0328210Y0067400D02*
X0328210Y0072600D01*
X0338210Y0072600D02*
X0338210Y0067400D01*
X0348210Y0067400D02*
X0348210Y0072600D01*
X0358210Y0072600D02*
X0358210Y0067400D01*
X0368210Y0067400D02*
X0368210Y0072600D01*
X0378210Y0072600D02*
X0378210Y0067400D01*
X0388210Y0067400D02*
X0388210Y0072600D01*
X0398210Y0072600D02*
X0398210Y0067400D01*
X0408210Y0067400D02*
X0408210Y0072600D01*
X0418210Y0072600D02*
X0418210Y0067400D01*
X0428210Y0067400D02*
X0428210Y0072600D01*
X0450610Y0160000D02*
X0455810Y0160000D01*
X0455810Y0170000D02*
X0450610Y0170000D01*
X0450610Y0180000D02*
X0455810Y0180000D01*
X0455810Y0190000D02*
X0450610Y0190000D01*
X0450610Y0200000D02*
X0455810Y0200000D01*
X0395810Y0200000D02*
X0390610Y0200000D01*
X0390610Y0190000D02*
X0395810Y0190000D01*
X0395810Y0180000D02*
X0390610Y0180000D01*
X0390610Y0170000D02*
X0395810Y0170000D01*
X0395810Y0160000D02*
X0390610Y0160000D01*
D92*
X0273210Y0033000D02*
X0273210Y0027000D01*
X0283210Y0027000D02*
X0283210Y0033000D01*
X0308210Y0033000D02*
X0308210Y0027000D01*
X0318210Y0027000D02*
X0318210Y0033000D01*
X0328210Y0033000D02*
X0328210Y0027000D01*
X0338210Y0027000D02*
X0338210Y0033000D01*
X0348210Y0033000D02*
X0348210Y0027000D01*
X0358210Y0027000D02*
X0358210Y0033000D01*
X0378210Y0033000D02*
X0378210Y0027000D01*
X0388210Y0027000D02*
X0388210Y0033000D01*
X0398210Y0033000D02*
X0398210Y0027000D01*
X0408210Y0027000D02*
X0408210Y0033000D01*
X0418210Y0033000D02*
X0418210Y0027000D01*
X0428210Y0027000D02*
X0428210Y0033000D01*
X0490210Y0155000D02*
X0496210Y0155000D01*
X0496210Y0165000D02*
X0490210Y0165000D01*
X0490210Y0175000D02*
X0496210Y0175000D01*
X0496210Y0185000D02*
X0490210Y0185000D01*
X0490210Y0195000D02*
X0496210Y0195000D01*
X0496210Y0205000D02*
X0490210Y0205000D01*
X0428210Y0217000D02*
X0428210Y0223000D01*
X0418210Y0223000D02*
X0418210Y0217000D01*
X0408210Y0217000D02*
X0408210Y0223000D01*
X0398210Y0223000D02*
X0398210Y0217000D01*
X0388210Y0217000D02*
X0388210Y0223000D01*
X0378210Y0223000D02*
X0378210Y0217000D01*
X0368210Y0217000D02*
X0368210Y0223000D01*
X0358210Y0223000D02*
X0358210Y0217000D01*
X0342210Y0217000D02*
X0342210Y0223000D01*
X0332210Y0223000D02*
X0332210Y0217000D01*
X0322210Y0217000D02*
X0322210Y0223000D01*
X0312210Y0223000D02*
X0312210Y0217000D01*
X0302210Y0217000D02*
X0302210Y0223000D01*
X0292210Y0223000D02*
X0292210Y0217000D01*
X0282210Y0217000D02*
X0282210Y0223000D01*
X0272210Y0223000D02*
X0272210Y0217000D01*
D36*
X0495770Y0119840D03*
X0495770Y0110000D03*
X0495770Y0100160D03*
X0495770Y0064840D03*
X0495770Y0055000D03*
X0495770Y0045160D03*
D72*
X0468210Y0037680D03*
X0468210Y0072320D03*
X0468210Y0092680D03*
X0468210Y0127320D03*
X0511910Y0020000D02*
G75*
%LPD*%
D25*
X0583910Y0047400D02*
X0583910Y0052600D01*
X0593910Y0052600D02*
X0593910Y0047400D01*
X0603910Y0047400D02*
X0603910Y0052600D01*
X0613910Y0052600D02*
X0613910Y0047400D01*
X0623910Y0047400D02*
X0623910Y0052600D01*
X0633910Y0052600D02*
X0633910Y0047400D01*
X0643910Y0047400D02*
X0643910Y0052600D01*
X0653910Y0052600D02*
X0653910Y0047400D01*
X0653910Y0077400D02*
X0653910Y0082600D01*
X0643910Y0082600D02*
X0643910Y0077400D01*
X0633910Y0077400D02*
X0633910Y0082600D01*
X0623910Y0082600D02*
X0623910Y0077400D01*
X0613910Y0077400D02*
X0613910Y0082600D01*
X0603910Y0082600D02*
X0603910Y0077400D01*
X0593910Y0077400D02*
X0593910Y0082600D01*
X0583910Y0082600D02*
X0583910Y0077400D01*
D38*
X0518910Y0030000D03*
X0528910Y0030000D03*
X0548910Y0030000D03*
X0558910Y0030000D03*
X0578910Y0030000D03*
X0588910Y0030000D03*
X0608910Y0030000D03*
X0618910Y0030000D03*
X0638910Y0030000D03*
X0648910Y0030000D03*
X0668910Y0030000D03*
X0678910Y0030000D03*
X0698910Y0030000D03*
X0708910Y0030000D03*
X0728910Y0030000D03*
X0738910Y0030000D03*
X0696410Y0050000D03*
X0686410Y0050000D03*
X0676410Y0050000D03*
X0666410Y0050000D03*
X0666410Y0080000D03*
X0676410Y0080000D03*
X0686410Y0080000D03*
X0696410Y0080000D03*
X0568910Y0077500D03*
X0558910Y0077500D03*
X0548910Y0077500D03*
X0538910Y0077500D03*
X0538910Y0047500D03*
X0548910Y0047500D03*
X0558910Y0047500D03*
X0568910Y0047500D03*
D92*
X0529910Y0051000D02*
X0523910Y0051000D01*
X0523910Y0041000D02*
X0529910Y0041000D01*
X0529910Y0061000D02*
X0523910Y0061000D01*
X0523910Y0071000D02*
X0529910Y0071000D01*
X0529910Y0081000D02*
X0523910Y0081000D01*
X0706910Y0082000D02*
X0712910Y0082000D01*
X0712910Y0072000D02*
X0706910Y0072000D01*
X0706910Y0062000D02*
X0712910Y0062000D01*
X0712910Y0052000D02*
X0706910Y0052000D01*
X0706910Y0042000D02*
X0712910Y0042000D01*
X0511910Y0094960D02*
G75*
%LPD*%
D25*
X0583910Y0122360D02*
X0583910Y0127560D01*
X0593910Y0127560D02*
X0593910Y0122360D01*
X0603910Y0122360D02*
X0603910Y0127560D01*
X0613910Y0127560D02*
X0613910Y0122360D01*
X0623910Y0122360D02*
X0623910Y0127560D01*
X0633910Y0127560D02*
X0633910Y0122360D01*
X0643910Y0122360D02*
X0643910Y0127560D01*
X0653910Y0127560D02*
X0653910Y0122360D01*
X0653910Y0152360D02*
X0653910Y0157560D01*
X0643910Y0157560D02*
X0643910Y0152360D01*
X0633910Y0152360D02*
X0633910Y0157560D01*
X0623910Y0157560D02*
X0623910Y0152360D01*
X0613910Y0152360D02*
X0613910Y0157560D01*
X0603910Y0157560D02*
X0603910Y0152360D01*
X0593910Y0152360D02*
X0593910Y0157560D01*
X0583910Y0157560D02*
X0583910Y0152360D01*
D38*
X0518910Y0104960D03*
X0528910Y0104960D03*
X0548910Y0104960D03*
X0558910Y0104960D03*
X0578910Y0104960D03*
X0588910Y0104960D03*
X0608910Y0104960D03*
X0618910Y0104960D03*
X0638910Y0104960D03*
X0648910Y0104960D03*
X0668910Y0104960D03*
X0678910Y0104960D03*
X0698910Y0104960D03*
X0708910Y0104960D03*
X0728910Y0104960D03*
X0738910Y0104960D03*
X0696410Y0124960D03*
X0686410Y0124960D03*
X0676410Y0124960D03*
X0666410Y0124960D03*
X0666410Y0154960D03*
X0676410Y0154960D03*
X0686410Y0154960D03*
X0696410Y0154960D03*
X0568910Y0152460D03*
X0558910Y0152460D03*
X0548910Y0152460D03*
X0538910Y0152460D03*
X0538910Y0122460D03*
X0548910Y0122460D03*
X0558910Y0122460D03*
X0568910Y0122460D03*
D92*
X0529910Y0125960D02*
X0523910Y0125960D01*
X0523910Y0115960D02*
X0529910Y0115960D01*
X0529910Y0135960D02*
X0523910Y0135960D01*
X0523910Y0145960D02*
X0529910Y0145960D01*
X0529910Y0155960D02*
X0523910Y0155960D01*
X0706910Y0156960D02*
X0712910Y0156960D01*
X0712910Y0146960D02*
X0706910Y0146960D01*
X0706910Y0136960D02*
X0712910Y0136960D01*
X0712910Y0126960D02*
X0706910Y0126960D01*
X0706910Y0116960D02*
X0712910Y0116960D01*
X0750120Y0020000D02*
G75*
%LPD*%
D14*
X0875320Y0024180D03*
X0875320Y0031180D03*
X0875320Y0038180D03*
X0875320Y0045180D03*
X0875320Y0052180D03*
X0875320Y0059180D03*
X0875320Y0066180D03*
X0875320Y0073180D03*
X0875320Y0080180D03*
X0875320Y0087180D03*
X0837320Y0135180D03*
X0830320Y0135180D03*
X0823320Y0135180D03*
X0816320Y0135180D03*
X0809320Y0135180D03*
X0802320Y0135180D03*
X0795320Y0135180D03*
X0788320Y0135180D03*
X0781320Y0135180D03*
X0774320Y0135180D03*
X0767320Y0135180D03*
X0760320Y0135180D03*
X0753320Y0135180D03*
X0875320Y0201180D03*
X0875320Y0208180D03*
X0875320Y0215180D03*
X0875320Y0222180D03*
X0875320Y0229180D03*
X0875320Y0236180D03*
D45*
X0875320Y0190180D03*
X0875320Y0180180D03*
X0875320Y0170180D03*
X0875320Y0160180D03*
X0875320Y0150180D03*
X0875320Y0120180D03*
X0875320Y0110180D03*
X0875320Y0100180D03*
D65*
X0875320Y0130180D03*
X0875320Y0140180D03*
D85*
X0862820Y0211180D03*
X0852820Y0211180D03*
X0852820Y0221180D03*
X0862820Y0221180D03*
X0862820Y0231180D03*
X0852820Y0231180D03*
X1043680Y0149030D03*
X1053680Y0149030D03*
X1053680Y0139030D03*
X1043680Y0139030D03*
X1043680Y0129030D03*
X1053680Y0129030D03*
D92*
X1025250Y0121830D02*
X1021650Y0121830D01*
X0999650Y0121830D02*
X0996050Y0121830D01*
X0996050Y0139630D02*
X0999650Y0139630D01*
X1021650Y0139630D02*
X1025250Y0139630D01*
X1023080Y0217530D02*
X1023080Y0221130D01*
X1023070Y0227530D02*
X1023070Y0231130D01*
X1013070Y0231130D02*
X1013070Y0227530D01*
X1013080Y0221130D02*
X1013080Y0217530D01*
X1003080Y0217530D02*
X1003080Y0221130D01*
X1003070Y0227530D02*
X1003070Y0231130D01*
X0993070Y0231130D02*
X0993070Y0227530D01*
X0993080Y0221130D02*
X0993080Y0217530D01*
X0983080Y0217530D02*
X0983080Y0221130D01*
X0973080Y0221130D02*
X0973080Y0217530D01*
X0973070Y0227530D02*
X0973070Y0231130D01*
X0983070Y0231130D02*
X0983070Y0227530D01*
X0956280Y0221130D02*
X0956280Y0217530D01*
X0946280Y0217530D02*
X0946280Y0221130D01*
X0943070Y0227530D02*
X0943070Y0231130D01*
X0933070Y0231130D02*
X0933070Y0227530D01*
X0936280Y0221130D02*
X0936280Y0217530D01*
X0926280Y0217530D02*
X0926280Y0221130D01*
X0923070Y0227530D02*
X0923070Y0231130D01*
X0913070Y0231130D02*
X0913070Y0227530D01*
X0916280Y0221130D02*
X0916280Y0217530D01*
X0906280Y0217530D02*
X0906280Y0221130D01*
X0903070Y0227530D02*
X0903070Y0231130D01*
X0893070Y0231130D02*
X0893070Y0227530D01*
X0896280Y0221130D02*
X0896280Y0217530D01*
X0886280Y0217530D02*
X0886280Y0221130D01*
X0883070Y0227530D02*
X0883070Y0231130D01*
X0883520Y0195180D02*
X0887120Y0195180D01*
X0887120Y0185180D02*
X0883520Y0185180D01*
X0883520Y0175180D02*
X0887120Y0175180D01*
X0887120Y0165180D02*
X0883520Y0165180D01*
X0883520Y0155180D02*
X0887120Y0155180D01*
X0887120Y0145180D02*
X0883520Y0145180D01*
X0866120Y0145180D02*
X0862520Y0145180D01*
X0862520Y0155180D02*
X0866120Y0155180D01*
X0866120Y0165180D02*
X0862520Y0165180D01*
X0862520Y0175180D02*
X0866120Y0175180D01*
X0866120Y0185180D02*
X0862520Y0185180D01*
X0862520Y0195180D02*
X0866120Y0195180D01*
X0849570Y0145130D02*
X0845970Y0145130D01*
X0845970Y0135130D02*
X0849570Y0135130D01*
X0849570Y0125130D02*
X0845970Y0125130D01*
X0862520Y0125180D02*
X0866120Y0125180D01*
X0866120Y0115180D02*
X0862520Y0115180D01*
X0862520Y0105180D02*
X0866120Y0105180D01*
X0866120Y0095180D02*
X0862520Y0095180D01*
X0883520Y0095180D02*
X0887120Y0095180D01*
X0887120Y0105180D02*
X0883520Y0105180D01*
X0883520Y0115180D02*
X0887120Y0115180D01*
X0887120Y0125180D02*
X0883520Y0125180D01*
X0922160Y0040830D02*
X0922160Y0037230D01*
X0922170Y0030830D02*
X0922170Y0027230D01*
X0932170Y0027230D02*
X0932170Y0030830D01*
X0932160Y0037230D02*
X0932160Y0040830D01*
X0942160Y0040830D02*
X0942160Y0037230D01*
X0942170Y0030830D02*
X0942170Y0027230D01*
X0952170Y0027230D02*
X0952170Y0030830D01*
X0952160Y0037230D02*
X0952160Y0040830D01*
X0962160Y0040830D02*
X0962160Y0037230D01*
X0972160Y0037230D02*
X0972160Y0040830D01*
X0972170Y0030830D02*
X0972170Y0027230D01*
X0962170Y0027230D02*
X0962170Y0030830D01*
X0991870Y0031030D02*
X0991870Y0027430D01*
X1001870Y0027430D02*
X1001870Y0031030D01*
X1001880Y0037430D02*
X1001880Y0041030D01*
X0991880Y0041030D02*
X0991880Y0037430D01*
X1011880Y0037430D02*
X1011880Y0041030D01*
X1021880Y0041030D02*
X1021880Y0037430D01*
X1031880Y0037430D02*
X1031880Y0041030D01*
X1041880Y0041030D02*
X1041880Y0037430D01*
X1041870Y0031030D02*
X1041870Y0027430D01*
X1031870Y0027430D02*
X1031870Y0031030D01*
X1021870Y0031030D02*
X1021870Y0027430D01*
X1011870Y0027430D02*
X1011870Y0031030D01*
X1033080Y0217530D02*
X1033080Y0221130D01*
X1033070Y0227530D02*
X1033070Y0231130D01*
X1043070Y0231130D02*
X1043070Y0227530D01*
X1043080Y0221130D02*
X1043080Y0217530D01*
X0953070Y0227530D02*
X0953070Y0231130D01*
D25*
X0836880Y0233680D02*
X0833760Y0233680D01*
X0833760Y0223680D02*
X0836880Y0223680D01*
X0836880Y0213680D02*
X0833760Y0213680D01*
X0833760Y0203680D02*
X0836880Y0203680D01*
X0836880Y0193680D02*
X0833760Y0193680D01*
X0833760Y0183680D02*
X0836880Y0183680D01*
X0836880Y0173680D02*
X0833760Y0173680D01*
X0833760Y0163680D02*
X0836880Y0163680D01*
X0836880Y0153680D02*
X0833760Y0153680D01*
X0833760Y0143680D02*
X0836880Y0143680D01*
X0806880Y0143680D02*
X0803760Y0143680D01*
X0803760Y0153680D02*
X0806880Y0153680D01*
X0806880Y0163680D02*
X0803760Y0163680D01*
X0803760Y0173680D02*
X0806880Y0173680D01*
X0806880Y0183680D02*
X0803760Y0183680D01*
X0803760Y0193680D02*
X0806880Y0193680D01*
X0806880Y0203680D02*
X0803760Y0203680D01*
X0803760Y0213680D02*
X0806880Y0213680D01*
X0806880Y0223680D02*
X0803760Y0223680D01*
X0803760Y0233680D02*
X0806880Y0233680D01*
X0915200Y0103000D02*
X0915200Y0099880D01*
X0925200Y0099880D02*
X0925200Y0103000D01*
X0935200Y0103000D02*
X0935200Y0099880D01*
X0945200Y0099880D02*
X0945200Y0103000D01*
X0955200Y0103000D02*
X0955200Y0099880D01*
X0965200Y0099880D02*
X0965200Y0103000D01*
X0975200Y0103000D02*
X0975200Y0099880D01*
X0985200Y0099880D02*
X0985200Y0103000D01*
X0995200Y0103000D02*
X0995200Y0099880D01*
X1005200Y0099880D02*
X1005200Y0103000D01*
X1015200Y0103000D02*
X1015200Y0099880D01*
X1025200Y0099880D02*
X1025200Y0103000D01*
X1035200Y0103000D02*
X1035200Y0099880D01*
X1045200Y0099880D02*
X1045200Y0103000D01*
X1045200Y0073000D02*
X1045200Y0069880D01*
X1035200Y0069880D02*
X1035200Y0073000D01*
X1025200Y0073000D02*
X1025200Y0069880D01*
X1015200Y0069880D02*
X1015200Y0073000D01*
X1005200Y0073000D02*
X1005200Y0069880D01*
X0995200Y0069880D02*
X0995200Y0073000D01*
X0985200Y0073000D02*
X0985200Y0069880D01*
X0975200Y0069880D02*
X0975200Y0073000D01*
X0965200Y0073000D02*
X0965200Y0069880D01*
X0955200Y0069880D02*
X0955200Y0073000D01*
X0945200Y0073000D02*
X0945200Y0069880D01*
X0935200Y0069880D02*
X0935200Y0073000D01*
X0925200Y0073000D02*
X0925200Y0069880D01*
X0915200Y0069880D02*
X0915200Y0073000D01*
D30*
X0848180Y0104730D03*
X0848180Y0115750D03*
X0820840Y0151200D03*
X0820840Y0162230D03*
D64*
X0820530Y0175040D03*
X0820530Y0190400D03*
D25*
X0782320Y0174680D03*
X0782320Y0155680D03*
X0963280Y0142050D03*
X0963280Y0123050D03*
D83*
X0840130Y0073270D03*
X0800130Y0073270D03*
D42*
X0853810Y0083180D03*
X0864830Y0083180D03*
X0990820Y0086500D03*
X1001840Y0086500D03*
D82*
X0778210Y0042620D03*
X0790010Y0062320D03*
X0766410Y0062320D03*
D60*
X0754820Y0211080D03*
X0754820Y0222280D03*
D94*
X0790820Y0221990D03*
X0790820Y0210370D03*
X0790820Y0196990D03*
X0790820Y0235370D03*
D48*
X0843620Y0199480D03*
X0854820Y0199480D03*
X0854820Y0183980D03*
X0843620Y0183980D03*
D43*
X0767820Y0208020D03*
X0767820Y0225340D03*
D76*
X0962320Y0087180D03*
X1053320Y0058180D03*
X0511910Y0169920D02*
G75*
%LPD*%
D25*
X0554470Y0241920D02*
X0549270Y0241920D01*
X0549270Y0251920D02*
X0554470Y0251920D01*
X0554470Y0261920D02*
X0549270Y0261920D01*
X0549270Y0271920D02*
X0554470Y0271920D01*
X0554470Y0281920D02*
X0549270Y0281920D01*
X0549270Y0291920D02*
X0554470Y0291920D01*
X0554470Y0301920D02*
X0549270Y0301920D01*
X0549270Y0311920D02*
X0554470Y0311920D01*
X0524470Y0311920D02*
X0519270Y0311920D01*
X0519270Y0301920D02*
X0524470Y0301920D01*
X0524470Y0291920D02*
X0519270Y0291920D01*
X0519270Y0281920D02*
X0524470Y0281920D01*
X0524470Y0271920D02*
X0519270Y0271920D01*
X0519270Y0261920D02*
X0524470Y0261920D01*
X0524470Y0251920D02*
X0519270Y0251920D01*
X0519270Y0241920D02*
X0524470Y0241920D01*
D38*
X0571870Y0176920D03*
X0571870Y0186920D03*
X0571870Y0206920D03*
X0571870Y0216920D03*
X0571870Y0236920D03*
X0571870Y0246920D03*
X0571870Y0266920D03*
X0571870Y0276920D03*
X0571870Y0296920D03*
X0571870Y0306920D03*
X0571870Y0326920D03*
X0571870Y0336920D03*
X0571870Y0356920D03*
X0571870Y0366920D03*
X0571870Y0386920D03*
X0571870Y0396920D03*
X0551870Y0354420D03*
X0551870Y0344420D03*
X0551870Y0334420D03*
X0551870Y0324420D03*
X0521870Y0324420D03*
X0521870Y0334420D03*
X0521870Y0344420D03*
X0521870Y0354420D03*
X0524370Y0226920D03*
X0524370Y0216920D03*
X0524370Y0206920D03*
X0524370Y0196920D03*
X0554370Y0196920D03*
X0554370Y0206920D03*
X0554370Y0216920D03*
X0554370Y0226920D03*
D92*
X0550870Y0187920D02*
X0550870Y0181920D01*
X0560870Y0181920D02*
X0560870Y0187920D01*
X0540870Y0187920D02*
X0540870Y0181920D01*
X0530870Y0181920D02*
X0530870Y0187920D01*
X0520870Y0187920D02*
X0520870Y0181920D01*
X0519870Y0364920D02*
X0519870Y0370920D01*
X0529870Y0370920D02*
X0529870Y0364920D01*
X0539870Y0364920D02*
X0539870Y0370920D01*
X0549870Y0370920D02*
X0549870Y0364920D01*
X0559870Y0364920D02*
X0559870Y0370920D01*
X0586870Y0169920D02*
G75*
%LPD*%
D25*
X0629430Y0241920D02*
X0624230Y0241920D01*
X0624230Y0251920D02*
X0629430Y0251920D01*
X0629430Y0261920D02*
X0624230Y0261920D01*
X0624230Y0271920D02*
X0629430Y0271920D01*
X0629430Y0281920D02*
X0624230Y0281920D01*
X0624230Y0291920D02*
X0629430Y0291920D01*
X0629430Y0301920D02*
X0624230Y0301920D01*
X0624230Y0311920D02*
X0629430Y0311920D01*
X0599430Y0311920D02*
X0594230Y0311920D01*
X0594230Y0301920D02*
X0599430Y0301920D01*
X0599430Y0291920D02*
X0594230Y0291920D01*
X0594230Y0281920D02*
X0599430Y0281920D01*
X0599430Y0271920D02*
X0594230Y0271920D01*
X0594230Y0261920D02*
X0599430Y0261920D01*
X0599430Y0251920D02*
X0594230Y0251920D01*
X0594230Y0241920D02*
X0599430Y0241920D01*
D38*
X0646830Y0176920D03*
X0646830Y0186920D03*
X0646830Y0206920D03*
X0646830Y0216920D03*
X0646830Y0236920D03*
X0646830Y0246920D03*
X0646830Y0266920D03*
X0646830Y0276920D03*
X0646830Y0296920D03*
X0646830Y0306920D03*
X0646830Y0326920D03*
X0646830Y0336920D03*
X0646830Y0356920D03*
X0646830Y0366920D03*
X0646830Y0386920D03*
X0646830Y0396920D03*
X0626830Y0354420D03*
X0626830Y0344420D03*
X0626830Y0334420D03*
X0626830Y0324420D03*
X0596830Y0324420D03*
X0596830Y0334420D03*
X0596830Y0344420D03*
X0596830Y0354420D03*
X0599330Y0226920D03*
X0599330Y0216920D03*
X0599330Y0206920D03*
X0599330Y0196920D03*
X0629330Y0196920D03*
X0629330Y0206920D03*
X0629330Y0216920D03*
X0629330Y0226920D03*
D92*
X0625830Y0187920D02*
X0625830Y0181920D01*
X0635830Y0181920D02*
X0635830Y0187920D01*
X0615830Y0187920D02*
X0615830Y0181920D01*
X0605830Y0181920D02*
X0605830Y0187920D01*
X0595830Y0187920D02*
X0595830Y0181920D01*
X0594830Y0364920D02*
X0594830Y0370920D01*
X0604830Y0370920D02*
X0604830Y0364920D01*
X0614830Y0364920D02*
X0614830Y0370920D01*
X0624830Y0370920D02*
X0624830Y0364920D01*
X0634830Y0364920D02*
X0634830Y0370920D01*
X0273700Y0239960D02*
G75*
%LPD*%
D25*
X0345700Y0267360D02*
X0345700Y0272560D01*
X0355700Y0272560D02*
X0355700Y0267360D01*
X0365700Y0267360D02*
X0365700Y0272560D01*
X0375700Y0272560D02*
X0375700Y0267360D01*
X0385700Y0267360D02*
X0385700Y0272560D01*
X0395700Y0272560D02*
X0395700Y0267360D01*
X0405700Y0267360D02*
X0405700Y0272560D01*
X0415700Y0272560D02*
X0415700Y0267360D01*
X0415700Y0297360D02*
X0415700Y0302560D01*
X0405700Y0302560D02*
X0405700Y0297360D01*
X0395700Y0297360D02*
X0395700Y0302560D01*
X0385700Y0302560D02*
X0385700Y0297360D01*
X0375700Y0297360D02*
X0375700Y0302560D01*
X0365700Y0302560D02*
X0365700Y0297360D01*
X0355700Y0297360D02*
X0355700Y0302560D01*
X0345700Y0302560D02*
X0345700Y0297360D01*
D38*
X0280700Y0249960D03*
X0290700Y0249960D03*
X0310700Y0249960D03*
X0320700Y0249960D03*
X0340700Y0249960D03*
X0350700Y0249960D03*
X0370700Y0249960D03*
X0380700Y0249960D03*
X0400700Y0249960D03*
X0410700Y0249960D03*
X0430700Y0249960D03*
X0440700Y0249960D03*
X0460700Y0249960D03*
X0470700Y0249960D03*
X0490700Y0249960D03*
X0500700Y0249960D03*
X0458200Y0269960D03*
X0448200Y0269960D03*
X0438200Y0269960D03*
X0428200Y0269960D03*
X0428200Y0299960D03*
X0438200Y0299960D03*
X0448200Y0299960D03*
X0458200Y0299960D03*
X0330700Y0297460D03*
X0320700Y0297460D03*
X0310700Y0297460D03*
X0300700Y0297460D03*
X0300700Y0267460D03*
X0310700Y0267460D03*
X0320700Y0267460D03*
X0330700Y0267460D03*
D92*
X0291700Y0270960D02*
X0285700Y0270960D01*
X0285700Y0260960D02*
X0291700Y0260960D01*
X0291700Y0280960D02*
X0285700Y0280960D01*
X0285700Y0290960D02*
X0291700Y0290960D01*
X0291700Y0300960D02*
X0285700Y0300960D01*
X0468700Y0301960D02*
X0474700Y0301960D01*
X0474700Y0291960D02*
X0468700Y0291960D01*
X0468700Y0281960D02*
X0474700Y0281960D01*
X0474700Y0271960D02*
X0468700Y0271960D01*
X0468700Y0261960D02*
X0474700Y0261960D01*
X0183250Y0094960D02*
G75*
%LPD*%
D25*
X0225810Y0166960D02*
X0220610Y0166960D01*
X0220610Y0176960D02*
X0225810Y0176960D01*
X0225810Y0186960D02*
X0220610Y0186960D01*
X0220610Y0196960D02*
X0225810Y0196960D01*
X0225810Y0206960D02*
X0220610Y0206960D01*
X0220610Y0216960D02*
X0225810Y0216960D01*
X0225810Y0226960D02*
X0220610Y0226960D01*
X0220610Y0236960D02*
X0225810Y0236960D01*
X0195810Y0236960D02*
X0190610Y0236960D01*
X0190610Y0226960D02*
X0195810Y0226960D01*
X0195810Y0216960D02*
X0190610Y0216960D01*
X0190610Y0206960D02*
X0195810Y0206960D01*
X0195810Y0196960D02*
X0190610Y0196960D01*
X0190610Y0186960D02*
X0195810Y0186960D01*
X0195810Y0176960D02*
X0190610Y0176960D01*
X0190610Y0166960D02*
X0195810Y0166960D01*
D38*
X0243210Y0101960D03*
X0243210Y0111960D03*
X0243210Y0131960D03*
X0243210Y0141960D03*
X0243210Y0161960D03*
X0243210Y0171960D03*
X0243210Y0191960D03*
X0243210Y0201960D03*
X0243210Y0221960D03*
X0243210Y0231960D03*
X0243210Y0251960D03*
X0243210Y0261960D03*
X0243210Y0281960D03*
X0243210Y0291960D03*
X0243210Y0311960D03*
X0243210Y0321960D03*
X0223210Y0279460D03*
X0223210Y0269460D03*
X0223210Y0259460D03*
X0223210Y0249460D03*
X0193210Y0249460D03*
X0193210Y0259460D03*
X0193210Y0269460D03*
X0193210Y0279460D03*
X0195710Y0151960D03*
X0195710Y0141960D03*
X0195710Y0131960D03*
X0195710Y0121960D03*
X0225710Y0121960D03*
X0225710Y0131960D03*
X0225710Y0141960D03*
X0225710Y0151960D03*
D92*
X0222210Y0112960D02*
X0222210Y0106960D01*
X0232210Y0106960D02*
X0232210Y0112960D01*
X0212210Y0112960D02*
X0212210Y0106960D01*
X0202210Y0106960D02*
X0202210Y0112960D01*
X0192210Y0112960D02*
X0192210Y0106960D01*
X0191210Y0289960D02*
X0191210Y0295960D01*
X0201210Y0295960D02*
X0201210Y0289960D01*
X0211210Y0289960D02*
X0211210Y0295960D01*
X0221210Y0295960D02*
X0221210Y0289960D01*
X0231210Y0289960D02*
X0231210Y0295960D01*
X1067960Y0020000D02*
G75*
%LPD*%
D25*
X1139960Y0047400D02*
X1139960Y0052600D01*
X1149960Y0052600D02*
X1149960Y0047400D01*
X1159960Y0047400D02*
X1159960Y0052600D01*
X1169960Y0052600D02*
X1169960Y0047400D01*
X1179960Y0047400D02*
X1179960Y0052600D01*
X1189960Y0052600D02*
X1189960Y0047400D01*
X1199960Y0047400D02*
X1199960Y0052600D01*
X1209960Y0052600D02*
X1209960Y0047400D01*
X1209960Y0077400D02*
X1209960Y0082600D01*
X1199960Y0082600D02*
X1199960Y0077400D01*
X1189960Y0077400D02*
X1189960Y0082600D01*
X1179960Y0082600D02*
X1179960Y0077400D01*
X1169960Y0077400D02*
X1169960Y0082600D01*
X1159960Y0082600D02*
X1159960Y0077400D01*
X1149960Y0077400D02*
X1149960Y0082600D01*
X1139960Y0082600D02*
X1139960Y0077400D01*
D38*
X1074960Y0030000D03*
X1084960Y0030000D03*
X1104960Y0030000D03*
X1114960Y0030000D03*
X1134960Y0030000D03*
X1144960Y0030000D03*
X1164960Y0030000D03*
X1174960Y0030000D03*
X1194960Y0030000D03*
X1204960Y0030000D03*
X1224960Y0030000D03*
X1234960Y0030000D03*
X1254960Y0030000D03*
X1264960Y0030000D03*
X1284960Y0030000D03*
X1294960Y0030000D03*
X1252460Y0050000D03*
X1242460Y0050000D03*
X1232460Y0050000D03*
X1222460Y0050000D03*
X1222460Y0080000D03*
X1232460Y0080000D03*
X1242460Y0080000D03*
X1252460Y0080000D03*
X1124960Y0077500D03*
X1114960Y0077500D03*
X1104960Y0077500D03*
X1094960Y0077500D03*
X1094960Y0047500D03*
X1104960Y0047500D03*
X1114960Y0047500D03*
X1124960Y0047500D03*
D92*
X1085960Y0051000D02*
X1079960Y0051000D01*
X1079960Y0041000D02*
X1085960Y0041000D01*
X1085960Y0061000D02*
X1079960Y0061000D01*
X1079960Y0071000D02*
X1085960Y0071000D01*
X1085960Y0081000D02*
X1079960Y0081000D01*
X1262960Y0082000D02*
X1268960Y0082000D01*
X1268960Y0072000D02*
X1262960Y0072000D01*
X1262960Y0062000D02*
X1268960Y0062000D01*
X1268960Y0052000D02*
X1262960Y0052000D01*
X1262960Y0042000D02*
X1268960Y0042000D01*
X0273700Y0314920D02*
G75*
%LPD*%
D25*
X0345700Y0342320D02*
X0345700Y0347520D01*
X0355700Y0347520D02*
X0355700Y0342320D01*
X0365700Y0342320D02*
X0365700Y0347520D01*
X0375700Y0347520D02*
X0375700Y0342320D01*
X0385700Y0342320D02*
X0385700Y0347520D01*
X0395700Y0347520D02*
X0395700Y0342320D01*
X0405700Y0342320D02*
X0405700Y0347520D01*
X0415700Y0347520D02*
X0415700Y0342320D01*
X0415700Y0372320D02*
X0415700Y0377520D01*
X0405700Y0377520D02*
X0405700Y0372320D01*
X0395700Y0372320D02*
X0395700Y0377520D01*
X0385700Y0377520D02*
X0385700Y0372320D01*
X0375700Y0372320D02*
X0375700Y0377520D01*
X0365700Y0377520D02*
X0365700Y0372320D01*
X0355700Y0372320D02*
X0355700Y0377520D01*
X0345700Y0377520D02*
X0345700Y0372320D01*
D38*
X0280700Y0324920D03*
X0290700Y0324920D03*
X0310700Y0324920D03*
X0320700Y0324920D03*
X0340700Y0324920D03*
X0350700Y0324920D03*
X0370700Y0324920D03*
X0380700Y0324920D03*
X0400700Y0324920D03*
X0410700Y0324920D03*
X0430700Y0324920D03*
X0440700Y0324920D03*
X0460700Y0324920D03*
X0470700Y0324920D03*
X0490700Y0324920D03*
X0500700Y0324920D03*
X0458200Y0344920D03*
X0448200Y0344920D03*
X0438200Y0344920D03*
X0428200Y0344920D03*
X0428200Y0374920D03*
X0438200Y0374920D03*
X0448200Y0374920D03*
X0458200Y0374920D03*
X0330700Y0372420D03*
X0320700Y0372420D03*
X0310700Y0372420D03*
X0300700Y0372420D03*
X0300700Y0342420D03*
X0310700Y0342420D03*
X0320700Y0342420D03*
X0330700Y0342420D03*
D92*
X0291700Y0345920D02*
X0285700Y0345920D01*
X0285700Y0335920D02*
X0291700Y0335920D01*
X0291700Y0355920D02*
X0285700Y0355920D01*
X0285700Y0365920D02*
X0291700Y0365920D01*
X0291700Y0375920D02*
X0285700Y0375920D01*
X0468700Y0376920D02*
X0474700Y0376920D01*
X0474700Y0366920D02*
X0468700Y0366920D01*
X0468700Y0356920D02*
X0474700Y0356920D01*
X0474700Y0346920D02*
X0468700Y0346920D01*
X0468700Y0336920D02*
X0474700Y0336920D01*
X1067960Y0094960D02*
G75*
%LPD*%
D25*
X1110520Y0166960D02*
X1105320Y0166960D01*
X1105320Y0176960D02*
X1110520Y0176960D01*
X1110520Y0186960D02*
X1105320Y0186960D01*
X1105320Y0196960D02*
X1110520Y0196960D01*
X1110520Y0206960D02*
X1105320Y0206960D01*
X1105320Y0216960D02*
X1110520Y0216960D01*
X1110520Y0226960D02*
X1105320Y0226960D01*
X1105320Y0236960D02*
X1110520Y0236960D01*
X1080520Y0236960D02*
X1075320Y0236960D01*
X1075320Y0226960D02*
X1080520Y0226960D01*
X1080520Y0216960D02*
X1075320Y0216960D01*
X1075320Y0206960D02*
X1080520Y0206960D01*
X1080520Y0196960D02*
X1075320Y0196960D01*
X1075320Y0186960D02*
X1080520Y0186960D01*
X1080520Y0176960D02*
X1075320Y0176960D01*
X1075320Y0166960D02*
X1080520Y0166960D01*
D38*
X1127920Y0101960D03*
X1127920Y0111960D03*
X1127920Y0131960D03*
X1127920Y0141960D03*
X1127920Y0161960D03*
X1127920Y0171960D03*
X1127920Y0191960D03*
X1127920Y0201960D03*
X1127920Y0221960D03*
X1127920Y0231960D03*
X1127920Y0251960D03*
X1127920Y0261960D03*
X1127920Y0281960D03*
X1127920Y0291960D03*
X1127920Y0311960D03*
X1127920Y0321960D03*
X1107920Y0279460D03*
X1107920Y0269460D03*
X1107920Y0259460D03*
X1107920Y0249460D03*
X1077920Y0249460D03*
X1077920Y0259460D03*
X1077920Y0269460D03*
X1077920Y0279460D03*
X1080420Y0151960D03*
X1080420Y0141960D03*
X1080420Y0131960D03*
X1080420Y0121960D03*
X1110420Y0121960D03*
X1110420Y0131960D03*
X1110420Y0141960D03*
X1110420Y0151960D03*
D92*
X1106920Y0112960D02*
X1106920Y0106960D01*
X1116920Y0106960D02*
X1116920Y0112960D01*
X1096920Y0112960D02*
X1096920Y0106960D01*
X1086920Y0106960D02*
X1086920Y0112960D01*
X1076920Y0112960D02*
X1076920Y0106960D01*
X1075920Y0289960D02*
X1075920Y0295960D01*
X1085920Y0295960D02*
X1085920Y0289960D01*
X1095920Y0289960D02*
X1095920Y0295960D01*
X1105920Y0295960D02*
X1105920Y0289960D01*
X1115920Y0289960D02*
X1115920Y0295960D01*
X0661830Y0169920D02*
G75*
%LPD*%
D25*
X0704390Y0241920D02*
X0699190Y0241920D01*
X0699190Y0251920D02*
X0704390Y0251920D01*
X0704390Y0261920D02*
X0699190Y0261920D01*
X0699190Y0271920D02*
X0704390Y0271920D01*
X0704390Y0281920D02*
X0699190Y0281920D01*
X0699190Y0291920D02*
X0704390Y0291920D01*
X0704390Y0301920D02*
X0699190Y0301920D01*
X0699190Y0311920D02*
X0704390Y0311920D01*
X0674390Y0311920D02*
X0669190Y0311920D01*
X0669190Y0301920D02*
X0674390Y0301920D01*
X0674390Y0291920D02*
X0669190Y0291920D01*
X0669190Y0281920D02*
X0674390Y0281920D01*
X0674390Y0271920D02*
X0669190Y0271920D01*
X0669190Y0261920D02*
X0674390Y0261920D01*
X0674390Y0251920D02*
X0669190Y0251920D01*
X0669190Y0241920D02*
X0674390Y0241920D01*
D38*
X0721790Y0176920D03*
X0721790Y0186920D03*
X0721790Y0206920D03*
X0721790Y0216920D03*
X0721790Y0236920D03*
X0721790Y0246920D03*
X0721790Y0266920D03*
X0721790Y0276920D03*
X0721790Y0296920D03*
X0721790Y0306920D03*
X0721790Y0326920D03*
X0721790Y0336920D03*
X0721790Y0356920D03*
X0721790Y0366920D03*
X0721790Y0386920D03*
X0721790Y0396920D03*
X0701790Y0354420D03*
X0701790Y0344420D03*
X0701790Y0334420D03*
X0701790Y0324420D03*
X0671790Y0324420D03*
X0671790Y0334420D03*
X0671790Y0344420D03*
X0671790Y0354420D03*
X0674290Y0226920D03*
X0674290Y0216920D03*
X0674290Y0206920D03*
X0674290Y0196920D03*
X0704290Y0196920D03*
X0704290Y0206920D03*
X0704290Y0216920D03*
X0704290Y0226920D03*
D92*
X0700790Y0187920D02*
X0700790Y0181920D01*
X0710790Y0181920D02*
X0710790Y0187920D01*
X0690790Y0187920D02*
X0690790Y0181920D01*
X0680790Y0181920D02*
X0680790Y0187920D01*
X0670790Y0187920D02*
X0670790Y0181920D01*
X0669790Y0364920D02*
X0669790Y0370920D01*
X0679790Y0370920D02*
X0679790Y0364920D01*
X0689790Y0364920D02*
X0689790Y0370920D01*
X0699790Y0370920D02*
X0699790Y0364920D01*
X0709790Y0364920D02*
X0709790Y0370920D01*
X0258210Y0389880D02*
G75*
%LPD*%
D16*
X0278210Y0424880D03*
D92*
X0319310Y0482080D03*
X0337110Y0482080D03*
X0337110Y0507680D03*
X0337110Y0517080D03*
X0349310Y0517080D03*
X0367110Y0517080D03*
X0384310Y0512680D03*
X0402110Y0512680D03*
X0402110Y0487080D03*
X0384310Y0487080D03*
X0367110Y0542680D03*
X0349310Y0542680D03*
X0337110Y0542680D03*
X0337110Y0552080D03*
X0319310Y0552080D03*
X0319310Y0542680D03*
X0307110Y0542680D03*
X0289310Y0542680D03*
X0268210Y0539880D03*
X0268210Y0549880D03*
X0268210Y0559880D03*
X0268210Y0529880D03*
X0268210Y0519880D03*
X0268210Y0509880D03*
X0289310Y0517080D03*
X0307110Y0517080D03*
X0319310Y0517080D03*
X0319310Y0507680D03*
X0319310Y0577680D03*
X0337110Y0577680D03*
D85*
X0428760Y0509680D03*
X0438760Y0509680D03*
X0438760Y0499680D03*
X0438760Y0489680D03*
X0428760Y0489680D03*
X0428760Y0499680D03*
D25*
X0428210Y0472480D02*
X0428210Y0467280D01*
X0418210Y0467280D02*
X0418210Y0472480D01*
X0408210Y0472480D02*
X0408210Y0467280D01*
X0398210Y0467280D02*
X0398210Y0472480D01*
X0388210Y0472480D02*
X0388210Y0467280D01*
X0378210Y0467280D02*
X0378210Y0472480D01*
X0368210Y0472480D02*
X0368210Y0467280D01*
X0358210Y0467280D02*
X0358210Y0472480D01*
X0348210Y0472480D02*
X0348210Y0467280D01*
X0338210Y0467280D02*
X0338210Y0472480D01*
X0328210Y0472480D02*
X0328210Y0467280D01*
X0318210Y0467280D02*
X0318210Y0472480D01*
X0308210Y0472480D02*
X0308210Y0467280D01*
X0298210Y0467280D02*
X0298210Y0472480D01*
X0298210Y0442480D02*
X0298210Y0437280D01*
X0308210Y0437280D02*
X0308210Y0442480D01*
X0318210Y0442480D02*
X0318210Y0437280D01*
X0328210Y0437280D02*
X0328210Y0442480D01*
X0338210Y0442480D02*
X0338210Y0437280D01*
X0348210Y0437280D02*
X0348210Y0442480D01*
X0358210Y0442480D02*
X0358210Y0437280D01*
X0368210Y0437280D02*
X0368210Y0442480D01*
X0378210Y0442480D02*
X0378210Y0437280D01*
X0388210Y0437280D02*
X0388210Y0442480D01*
X0398210Y0442480D02*
X0398210Y0437280D01*
X0408210Y0437280D02*
X0408210Y0442480D01*
X0418210Y0442480D02*
X0418210Y0437280D01*
X0428210Y0437280D02*
X0428210Y0442480D01*
X0450610Y0529880D02*
X0455810Y0529880D01*
X0455810Y0539880D02*
X0450610Y0539880D01*
X0450610Y0549880D02*
X0455810Y0549880D01*
X0455810Y0559880D02*
X0450610Y0559880D01*
X0450610Y0569880D02*
X0455810Y0569880D01*
X0395810Y0569880D02*
X0390610Y0569880D01*
X0390610Y0559880D02*
X0395810Y0559880D01*
X0395810Y0549880D02*
X0390610Y0549880D01*
X0390610Y0539880D02*
X0395810Y0539880D01*
X0395810Y0529880D02*
X0390610Y0529880D01*
D92*
X0273210Y0402880D02*
X0273210Y0396880D01*
X0283210Y0396880D02*
X0283210Y0402880D01*
X0308210Y0402880D02*
X0308210Y0396880D01*
X0318210Y0396880D02*
X0318210Y0402880D01*
X0328210Y0402880D02*
X0328210Y0396880D01*
X0338210Y0396880D02*
X0338210Y0402880D01*
X0348210Y0402880D02*
X0348210Y0396880D01*
X0358210Y0396880D02*
X0358210Y0402880D01*
X0378210Y0402880D02*
X0378210Y0396880D01*
X0388210Y0396880D02*
X0388210Y0402880D01*
X0398210Y0402880D02*
X0398210Y0396880D01*
X0408210Y0396880D02*
X0408210Y0402880D01*
X0418210Y0402880D02*
X0418210Y0396880D01*
X0428210Y0396880D02*
X0428210Y0402880D01*
X0490210Y0524880D02*
X0496210Y0524880D01*
X0496210Y0534880D02*
X0490210Y0534880D01*
X0490210Y0544880D02*
X0496210Y0544880D01*
X0496210Y0554880D02*
X0490210Y0554880D01*
X0490210Y0564880D02*
X0496210Y0564880D01*
X0496210Y0574880D02*
X0490210Y0574880D01*
X0428210Y0586880D02*
X0428210Y0592880D01*
X0418210Y0592880D02*
X0418210Y0586880D01*
X0408210Y0586880D02*
X0408210Y0592880D01*
X0398210Y0592880D02*
X0398210Y0586880D01*
X0388210Y0586880D02*
X0388210Y0592880D01*
X0378210Y0592880D02*
X0378210Y0586880D01*
X0368210Y0586880D02*
X0368210Y0592880D01*
X0358210Y0592880D02*
X0358210Y0586880D01*
X0342210Y0586880D02*
X0342210Y0592880D01*
X0332210Y0592880D02*
X0332210Y0586880D01*
X0322210Y0586880D02*
X0322210Y0592880D01*
X0312210Y0592880D02*
X0312210Y0586880D01*
X0302210Y0586880D02*
X0302210Y0592880D01*
X0292210Y0592880D02*
X0292210Y0586880D01*
X0282210Y0586880D02*
X0282210Y0592880D01*
X0272210Y0592880D02*
X0272210Y0586880D01*
D36*
X0495770Y0489720D03*
X0495770Y0479880D03*
X0495770Y0470040D03*
X0495770Y0434720D03*
X0495770Y0424880D03*
X0495770Y0415040D03*
D72*
X0468210Y0407560D03*
X0468210Y0442200D03*
X0468210Y0462560D03*
X0468210Y0497200D03*
X0993000Y0244400D02*
G75*
%LPD*%
D25*
X1035560Y0316400D02*
X1030360Y0316400D01*
X1030360Y0326400D02*
X1035560Y0326400D01*
X1035560Y0336400D02*
X1030360Y0336400D01*
X1030360Y0346400D02*
X1035560Y0346400D01*
X1035560Y0356400D02*
X1030360Y0356400D01*
X1030360Y0366400D02*
X1035560Y0366400D01*
X1035560Y0376400D02*
X1030360Y0376400D01*
X1030360Y0386400D02*
X1035560Y0386400D01*
X1005560Y0386400D02*
X1000360Y0386400D01*
X1000360Y0376400D02*
X1005560Y0376400D01*
X1005560Y0366400D02*
X1000360Y0366400D01*
X1000360Y0356400D02*
X1005560Y0356400D01*
X1005560Y0346400D02*
X1000360Y0346400D01*
X1000360Y0336400D02*
X1005560Y0336400D01*
X1005560Y0326400D02*
X1000360Y0326400D01*
X1000360Y0316400D02*
X1005560Y0316400D01*
D38*
X1052960Y0251400D03*
X1052960Y0261400D03*
X1052960Y0281400D03*
X1052960Y0291400D03*
X1052960Y0311400D03*
X1052960Y0321400D03*
X1052960Y0341400D03*
X1052960Y0351400D03*
X1052960Y0371400D03*
X1052960Y0381400D03*
X1052960Y0401400D03*
X1052960Y0411400D03*
X1052960Y0431400D03*
X1052960Y0441400D03*
X1052960Y0461400D03*
X1052960Y0471400D03*
X1032960Y0428900D03*
X1032960Y0418900D03*
X1032960Y0408900D03*
X1032960Y0398900D03*
X1002960Y0398900D03*
X1002960Y0408900D03*
X1002960Y0418900D03*
X1002960Y0428900D03*
X1005460Y0301400D03*
X1005460Y0291400D03*
X1005460Y0281400D03*
X1005460Y0271400D03*
X1035460Y0271400D03*
X1035460Y0281400D03*
X1035460Y0291400D03*
X1035460Y0301400D03*
D92*
X1031960Y0262400D02*
X1031960Y0256400D01*
X1041960Y0256400D02*
X1041960Y0262400D01*
X1021960Y0262400D02*
X1021960Y0256400D01*
X1011960Y0256400D02*
X1011960Y0262400D01*
X1001960Y0262400D02*
X1001960Y0256400D01*
X1000960Y0439400D02*
X1000960Y0445400D01*
X1010960Y0445400D02*
X1010960Y0439400D01*
X1020960Y0439400D02*
X1020960Y0445400D01*
X1030960Y0445400D02*
X1030960Y0439400D01*
X1040960Y0439400D02*
X1040960Y0445400D01*
X0038250Y0333170D02*
G75*
%LPD*%
D16*
X0218210Y0353170D03*
D92*
X0161010Y0394270D03*
X0161010Y0412070D03*
X0135410Y0412070D03*
X0126010Y0412070D03*
X0126010Y0424270D03*
X0126010Y0442070D03*
X0130410Y0459270D03*
X0130410Y0477070D03*
X0156010Y0477070D03*
X0156010Y0459270D03*
X0100410Y0442070D03*
X0100410Y0424270D03*
X0100410Y0412070D03*
X0091010Y0412070D03*
X0091010Y0394270D03*
X0100410Y0394270D03*
X0100410Y0382070D03*
X0100410Y0364270D03*
X0103210Y0343170D03*
X0093210Y0343170D03*
X0083210Y0343170D03*
X0113210Y0343170D03*
X0123210Y0343170D03*
X0133210Y0343170D03*
X0126010Y0364270D03*
X0126010Y0382070D03*
X0126010Y0394270D03*
X0135410Y0394270D03*
X0065410Y0394270D03*
X0065410Y0412070D03*
D85*
X0133410Y0503720D03*
X0133410Y0513720D03*
X0143410Y0513720D03*
X0153410Y0513720D03*
X0153410Y0503720D03*
X0143410Y0503720D03*
D25*
X0170610Y0503170D02*
X0175810Y0503170D01*
X0175810Y0493170D02*
X0170610Y0493170D01*
X0170610Y0483170D02*
X0175810Y0483170D01*
X0175810Y0473170D02*
X0170610Y0473170D01*
X0170610Y0463170D02*
X0175810Y0463170D01*
X0175810Y0453170D02*
X0170610Y0453170D01*
X0170610Y0443170D02*
X0175810Y0443170D01*
X0175810Y0433170D02*
X0170610Y0433170D01*
X0170610Y0423170D02*
X0175810Y0423170D01*
X0175810Y0413170D02*
X0170610Y0413170D01*
X0170610Y0403170D02*
X0175810Y0403170D01*
X0175810Y0393170D02*
X0170610Y0393170D01*
X0170610Y0383170D02*
X0175810Y0383170D01*
X0175810Y0373170D02*
X0170610Y0373170D01*
X0200610Y0373170D02*
X0205810Y0373170D01*
X0205810Y0383170D02*
X0200610Y0383170D01*
X0200610Y0393170D02*
X0205810Y0393170D01*
X0205810Y0403170D02*
X0200610Y0403170D01*
X0200610Y0413170D02*
X0205810Y0413170D01*
X0205810Y0423170D02*
X0200610Y0423170D01*
X0200610Y0433170D02*
X0205810Y0433170D01*
X0205810Y0443170D02*
X0200610Y0443170D01*
X0200610Y0453170D02*
X0205810Y0453170D01*
X0205810Y0463170D02*
X0200610Y0463170D01*
X0200610Y0473170D02*
X0205810Y0473170D01*
X0205810Y0483170D02*
X0200610Y0483170D01*
X0200610Y0493170D02*
X0205810Y0493170D01*
X0205810Y0503170D02*
X0200610Y0503170D01*
X0113210Y0525570D02*
X0113210Y0530770D01*
X0103210Y0530770D02*
X0103210Y0525570D01*
X0093210Y0525570D02*
X0093210Y0530770D01*
X0083210Y0530770D02*
X0083210Y0525570D01*
X0073210Y0525570D02*
X0073210Y0530770D01*
X0073210Y0470770D02*
X0073210Y0465570D01*
X0083210Y0465570D02*
X0083210Y0470770D01*
X0093210Y0470770D02*
X0093210Y0465570D01*
X0103210Y0465570D02*
X0103210Y0470770D01*
X0113210Y0470770D02*
X0113210Y0465570D01*
D92*
X0240210Y0348170D02*
X0246210Y0348170D01*
X0246210Y0358170D02*
X0240210Y0358170D01*
X0240210Y0383170D02*
X0246210Y0383170D01*
X0246210Y0393170D02*
X0240210Y0393170D01*
X0240210Y0403170D02*
X0246210Y0403170D01*
X0246210Y0413170D02*
X0240210Y0413170D01*
X0240210Y0423170D02*
X0246210Y0423170D01*
X0246210Y0433170D02*
X0240210Y0433170D01*
X0240210Y0453170D02*
X0246210Y0453170D01*
X0246210Y0463170D02*
X0240210Y0463170D01*
X0240210Y0473170D02*
X0246210Y0473170D01*
X0246210Y0483170D02*
X0240210Y0483170D01*
X0240210Y0493170D02*
X0246210Y0493170D01*
X0246210Y0503170D02*
X0240210Y0503170D01*
X0118210Y0565170D02*
X0118210Y0571170D01*
X0108210Y0571170D02*
X0108210Y0565170D01*
X0098210Y0565170D02*
X0098210Y0571170D01*
X0088210Y0571170D02*
X0088210Y0565170D01*
X0078210Y0565170D02*
X0078210Y0571170D01*
X0068210Y0571170D02*
X0068210Y0565170D01*
X0056210Y0503170D02*
X0050210Y0503170D01*
X0050210Y0493170D02*
X0056210Y0493170D01*
X0056210Y0483170D02*
X0050210Y0483170D01*
X0050210Y0473170D02*
X0056210Y0473170D01*
X0056210Y0463170D02*
X0050210Y0463170D01*
X0050210Y0453170D02*
X0056210Y0453170D01*
X0056210Y0443170D02*
X0050210Y0443170D01*
X0050210Y0433170D02*
X0056210Y0433170D01*
X0056210Y0417170D02*
X0050210Y0417170D01*
X0050210Y0407170D02*
X0056210Y0407170D01*
X0056210Y0397170D02*
X0050210Y0397170D01*
X0050210Y0387170D02*
X0056210Y0387170D01*
X0056210Y0377170D02*
X0050210Y0377170D01*
X0050210Y0367170D02*
X0056210Y0367170D01*
X0056210Y0357170D02*
X0050210Y0357170D01*
X0050210Y0347170D02*
X0056210Y0347170D01*
D36*
X0153370Y0570730D03*
X0163210Y0570730D03*
X0173050Y0570730D03*
X0208370Y0570730D03*
X0218210Y0570730D03*
X0228050Y0570730D03*
D72*
X0235530Y0543170D03*
X0200890Y0543170D03*
X0180530Y0543170D03*
X0145890Y0543170D03*
X0108290Y0094960D02*
G75*
%LPD*%
D25*
X0150850Y0166960D02*
X0145650Y0166960D01*
X0145650Y0176960D02*
X0150850Y0176960D01*
X0150850Y0186960D02*
X0145650Y0186960D01*
X0145650Y0196960D02*
X0150850Y0196960D01*
X0150850Y0206960D02*
X0145650Y0206960D01*
X0145650Y0216960D02*
X0150850Y0216960D01*
X0150850Y0226960D02*
X0145650Y0226960D01*
X0145650Y0236960D02*
X0150850Y0236960D01*
X0120850Y0236960D02*
X0115650Y0236960D01*
X0115650Y0226960D02*
X0120850Y0226960D01*
X0120850Y0216960D02*
X0115650Y0216960D01*
X0115650Y0206960D02*
X0120850Y0206960D01*
X0120850Y0196960D02*
X0115650Y0196960D01*
X0115650Y0186960D02*
X0120850Y0186960D01*
X0120850Y0176960D02*
X0115650Y0176960D01*
X0115650Y0166960D02*
X0120850Y0166960D01*
D38*
X0168250Y0101960D03*
X0168250Y0111960D03*
X0168250Y0131960D03*
X0168250Y0141960D03*
X0168250Y0161960D03*
X0168250Y0171960D03*
X0168250Y0191960D03*
X0168250Y0201960D03*
X0168250Y0221960D03*
X0168250Y0231960D03*
X0168250Y0251960D03*
X0168250Y0261960D03*
X0168250Y0281960D03*
X0168250Y0291960D03*
X0168250Y0311960D03*
X0168250Y0321960D03*
X0148250Y0279460D03*
X0148250Y0269460D03*
X0148250Y0259460D03*
X0148250Y0249460D03*
X0118250Y0249460D03*
X0118250Y0259460D03*
X0118250Y0269460D03*
X0118250Y0279460D03*
X0120750Y0151960D03*
X0120750Y0141960D03*
X0120750Y0131960D03*
X0120750Y0121960D03*
X0150750Y0121960D03*
X0150750Y0131960D03*
X0150750Y0141960D03*
X0150750Y0151960D03*
D92*
X0147250Y0112960D02*
X0147250Y0106960D01*
X0157250Y0106960D02*
X0157250Y0112960D01*
X0137250Y0112960D02*
X0137250Y0106960D01*
X0127250Y0106960D02*
X0127250Y0112960D01*
X0117250Y0112960D02*
X0117250Y0106960D01*
X0116250Y0289960D02*
X0116250Y0295960D01*
X0126250Y0295960D02*
X0126250Y0289960D01*
X0136250Y0289960D02*
X0136250Y0295960D01*
X0146250Y0295960D02*
X0146250Y0289960D01*
X0156250Y0289960D02*
X0156250Y0295960D01*
X0511910Y0408130D02*
G75*
%LPD*%
D25*
X0554470Y0480130D02*
X0549270Y0480130D01*
X0549270Y0490130D02*
X0554470Y0490130D01*
X0554470Y0500130D02*
X0549270Y0500130D01*
X0549270Y0510130D02*
X0554470Y0510130D01*
X0554470Y0520130D02*
X0549270Y0520130D01*
X0549270Y0530130D02*
X0554470Y0530130D01*
X0554470Y0540130D02*
X0549270Y0540130D01*
X0549270Y0550130D02*
X0554470Y0550130D01*
X0524470Y0550130D02*
X0519270Y0550130D01*
X0519270Y0540130D02*
X0524470Y0540130D01*
X0524470Y0530130D02*
X0519270Y0530130D01*
X0519270Y0520130D02*
X0524470Y0520130D01*
X0524470Y0510130D02*
X0519270Y0510130D01*
X0519270Y0500130D02*
X0524470Y0500130D01*
X0524470Y0490130D02*
X0519270Y0490130D01*
X0519270Y0480130D02*
X0524470Y0480130D01*
D38*
X0571870Y0415130D03*
X0571870Y0425130D03*
X0571870Y0445130D03*
X0571870Y0455130D03*
X0571870Y0475130D03*
X0571870Y0485130D03*
X0571870Y0505130D03*
X0571870Y0515130D03*
X0571870Y0535130D03*
X0571870Y0545130D03*
X0571870Y0565130D03*
X0571870Y0575130D03*
X0571870Y0595130D03*
X0571870Y0605130D03*
X0571870Y0625130D03*
X0571870Y0635130D03*
X0551870Y0592630D03*
X0551870Y0582630D03*
X0551870Y0572630D03*
X0551870Y0562630D03*
X0521870Y0562630D03*
X0521870Y0572630D03*
X0521870Y0582630D03*
X0521870Y0592630D03*
X0524370Y0465130D03*
X0524370Y0455130D03*
X0524370Y0445130D03*
X0524370Y0435130D03*
X0554370Y0435130D03*
X0554370Y0445130D03*
X0554370Y0455130D03*
X0554370Y0465130D03*
D92*
X0550870Y0426130D02*
X0550870Y0420130D01*
X0560870Y0420130D02*
X0560870Y0426130D01*
X0540870Y0426130D02*
X0540870Y0420130D01*
X0530870Y0420130D02*
X0530870Y0426130D01*
X0520870Y0426130D02*
X0520870Y0420130D01*
X0519870Y0603130D02*
X0519870Y0609130D01*
X0529870Y0609130D02*
X0529870Y0603130D01*
X0539870Y0603130D02*
X0539870Y0609130D01*
X0549870Y0609130D02*
X0549870Y0603130D01*
X0559870Y0603130D02*
X0559870Y0609130D01*
X0020000Y0094960D02*
G75*
%LPD*%
D25*
X0062560Y0166960D02*
X0057360Y0166960D01*
X0057360Y0176960D02*
X0062560Y0176960D01*
X0062560Y0186960D02*
X0057360Y0186960D01*
X0057360Y0196960D02*
X0062560Y0196960D01*
X0062560Y0206960D02*
X0057360Y0206960D01*
X0057360Y0216960D02*
X0062560Y0216960D01*
X0062560Y0226960D02*
X0057360Y0226960D01*
X0057360Y0236960D02*
X0062560Y0236960D01*
X0032560Y0236960D02*
X0027360Y0236960D01*
X0027360Y0226960D02*
X0032560Y0226960D01*
X0032560Y0216960D02*
X0027360Y0216960D01*
X0027360Y0206960D02*
X0032560Y0206960D01*
X0032560Y0196960D02*
X0027360Y0196960D01*
X0027360Y0186960D02*
X0032560Y0186960D01*
X0032560Y0176960D02*
X0027360Y0176960D01*
X0027360Y0166960D02*
X0032560Y0166960D01*
D38*
X0079960Y0101960D03*
X0079960Y0111960D03*
X0079960Y0131960D03*
X0079960Y0141960D03*
X0079960Y0161960D03*
X0079960Y0171960D03*
X0079960Y0191960D03*
X0079960Y0201960D03*
X0079960Y0221960D03*
X0079960Y0231960D03*
X0079960Y0251960D03*
X0079960Y0261960D03*
X0079960Y0281960D03*
X0079960Y0291960D03*
X0079960Y0311960D03*
X0079960Y0321960D03*
X0059960Y0279460D03*
X0059960Y0269460D03*
X0059960Y0259460D03*
X0059960Y0249460D03*
X0029960Y0249460D03*
X0029960Y0259460D03*
X0029960Y0269460D03*
X0029960Y0279460D03*
X0032460Y0151960D03*
X0032460Y0141960D03*
X0032460Y0131960D03*
X0032460Y0121960D03*
X0062460Y0121960D03*
X0062460Y0131960D03*
X0062460Y0141960D03*
X0062460Y0151960D03*
D92*
X0058960Y0112960D02*
X0058960Y0106960D01*
X0068960Y0106960D02*
X0068960Y0112960D01*
X0048960Y0112960D02*
X0048960Y0106960D01*
X0038960Y0106960D02*
X0038960Y0112960D01*
X0028960Y0112960D02*
X0028960Y0106960D01*
X0027960Y0289960D02*
X0027960Y0295960D01*
X0037960Y0295960D02*
X0037960Y0289960D01*
X0047960Y0289960D02*
X0047960Y0295960D01*
X0057960Y0295960D02*
X0057960Y0289960D01*
X0067960Y0289960D02*
X0067960Y0295960D01*
X0020000Y0586870D02*
G75*
%LPD*%
D25*
X0092000Y0614270D02*
X0092000Y0619470D01*
X0102000Y0619470D02*
X0102000Y0614270D01*
X0112000Y0614270D02*
X0112000Y0619470D01*
X0122000Y0619470D02*
X0122000Y0614270D01*
X0132000Y0614270D02*
X0132000Y0619470D01*
X0142000Y0619470D02*
X0142000Y0614270D01*
X0152000Y0614270D02*
X0152000Y0619470D01*
X0162000Y0619470D02*
X0162000Y0614270D01*
X0162000Y0644270D02*
X0162000Y0649470D01*
X0152000Y0649470D02*
X0152000Y0644270D01*
X0142000Y0644270D02*
X0142000Y0649470D01*
X0132000Y0649470D02*
X0132000Y0644270D01*
X0122000Y0644270D02*
X0122000Y0649470D01*
X0112000Y0649470D02*
X0112000Y0644270D01*
X0102000Y0644270D02*
X0102000Y0649470D01*
X0092000Y0649470D02*
X0092000Y0644270D01*
D38*
X0027000Y0596870D03*
X0037000Y0596870D03*
X0057000Y0596870D03*
X0067000Y0596870D03*
X0087000Y0596870D03*
X0097000Y0596870D03*
X0117000Y0596870D03*
X0127000Y0596870D03*
X0147000Y0596870D03*
X0157000Y0596870D03*
X0177000Y0596870D03*
X0187000Y0596870D03*
X0207000Y0596870D03*
X0217000Y0596870D03*
X0237000Y0596870D03*
X0247000Y0596870D03*
X0204500Y0616870D03*
X0194500Y0616870D03*
X0184500Y0616870D03*
X0174500Y0616870D03*
X0174500Y0646870D03*
X0184500Y0646870D03*
X0194500Y0646870D03*
X0204500Y0646870D03*
X0077000Y0644370D03*
X0067000Y0644370D03*
X0057000Y0644370D03*
X0047000Y0644370D03*
X0047000Y0614370D03*
X0057000Y0614370D03*
X0067000Y0614370D03*
X0077000Y0614370D03*
D92*
X0038000Y0617870D02*
X0032000Y0617870D01*
X0032000Y0607870D02*
X0038000Y0607870D01*
X0038000Y0627870D02*
X0032000Y0627870D01*
X0032000Y0637870D02*
X0038000Y0637870D01*
X0038000Y0647870D02*
X0032000Y0647870D01*
X0215000Y0648870D02*
X0221000Y0648870D01*
X0221000Y0638870D02*
X0215000Y0638870D01*
X0215000Y0628870D02*
X0221000Y0628870D01*
X0221000Y0618870D02*
X0215000Y0618870D01*
X0215000Y0608870D02*
X0221000Y0608870D01*
X0258210Y0609840D02*
G75*
%LPD*%
D25*
X0330210Y0637240D02*
X0330210Y0642440D01*
X0340210Y0642440D02*
X0340210Y0637240D01*
X0350210Y0637240D02*
X0350210Y0642440D01*
X0360210Y0642440D02*
X0360210Y0637240D01*
X0370210Y0637240D02*
X0370210Y0642440D01*
X0380210Y0642440D02*
X0380210Y0637240D01*
X0390210Y0637240D02*
X0390210Y0642440D01*
X0400210Y0642440D02*
X0400210Y0637240D01*
X0400210Y0667240D02*
X0400210Y0672440D01*
X0390210Y0672440D02*
X0390210Y0667240D01*
X0380210Y0667240D02*
X0380210Y0672440D01*
X0370210Y0672440D02*
X0370210Y0667240D01*
X0360210Y0667240D02*
X0360210Y0672440D01*
X0350210Y0672440D02*
X0350210Y0667240D01*
X0340210Y0667240D02*
X0340210Y0672440D01*
X0330210Y0672440D02*
X0330210Y0667240D01*
D38*
X0265210Y0619840D03*
X0275210Y0619840D03*
X0295210Y0619840D03*
X0305210Y0619840D03*
X0325210Y0619840D03*
X0335210Y0619840D03*
X0355210Y0619840D03*
X0365210Y0619840D03*
X0385210Y0619840D03*
X0395210Y0619840D03*
X0415210Y0619840D03*
X0425210Y0619840D03*
X0445210Y0619840D03*
X0455210Y0619840D03*
X0475210Y0619840D03*
X0485210Y0619840D03*
X0442710Y0639840D03*
X0432710Y0639840D03*
X0422710Y0639840D03*
X0412710Y0639840D03*
X0412710Y0669840D03*
X0422710Y0669840D03*
X0432710Y0669840D03*
X0442710Y0669840D03*
X0315210Y0667340D03*
X0305210Y0667340D03*
X0295210Y0667340D03*
X0285210Y0667340D03*
X0285210Y0637340D03*
X0295210Y0637340D03*
X0305210Y0637340D03*
X0315210Y0637340D03*
D92*
X0276210Y0640840D02*
X0270210Y0640840D01*
X0270210Y0630840D02*
X0276210Y0630840D01*
X0276210Y0650840D02*
X0270210Y0650840D01*
X0270210Y0660840D02*
X0276210Y0660840D01*
X0276210Y0670840D02*
X0270210Y0670840D01*
X0453210Y0671840D02*
X0459210Y0671840D01*
X0459210Y0661840D02*
X0453210Y0661840D01*
X0453210Y0651840D02*
X0459210Y0651840D01*
X0459210Y0641840D02*
X0453210Y0641840D01*
X0453210Y0631840D02*
X0459210Y0631840D01*
X1067960Y0333170D02*
G75*
%LPD*%
D14*
X1283180Y0458370D03*
X1276180Y0458370D03*
X1269180Y0458370D03*
X1262180Y0458370D03*
X1255180Y0458370D03*
X1248180Y0458370D03*
X1241180Y0458370D03*
X1234180Y0458370D03*
X1227180Y0458370D03*
X1220180Y0458370D03*
X1172180Y0420370D03*
X1172180Y0413370D03*
X1172180Y0406370D03*
X1172180Y0399370D03*
X1172180Y0392370D03*
X1172180Y0385370D03*
X1172180Y0378370D03*
X1172180Y0371370D03*
X1172180Y0364370D03*
X1172180Y0357370D03*
X1172180Y0350370D03*
X1172180Y0343370D03*
X1172180Y0336370D03*
X1106180Y0458370D03*
X1099180Y0458370D03*
X1092180Y0458370D03*
X1085180Y0458370D03*
X1078180Y0458370D03*
X1071180Y0458370D03*
D45*
X1117180Y0458370D03*
X1127180Y0458370D03*
X1137180Y0458370D03*
X1147180Y0458370D03*
X1157180Y0458370D03*
X1187180Y0458370D03*
X1197180Y0458370D03*
X1207180Y0458370D03*
D65*
X1177180Y0458370D03*
X1167180Y0458370D03*
D85*
X1096180Y0445870D03*
X1096180Y0435870D03*
X1086180Y0435870D03*
X1086180Y0445870D03*
X1076180Y0445870D03*
X1076180Y0435870D03*
X1158330Y0626730D03*
X1158330Y0636730D03*
X1168330Y0636730D03*
X1168330Y0626730D03*
X1178330Y0626730D03*
X1178330Y0636730D03*
D92*
X1185530Y0608300D02*
X1185530Y0604700D01*
X1185530Y0582700D02*
X1185530Y0579100D01*
X1167730Y0579100D02*
X1167730Y0582700D01*
X1167730Y0604700D02*
X1167730Y0608300D01*
X1089830Y0606130D02*
X1086230Y0606130D01*
X1079830Y0606120D02*
X1076230Y0606120D01*
X1076230Y0596120D02*
X1079830Y0596120D01*
X1086230Y0596130D02*
X1089830Y0596130D01*
X1089830Y0586130D02*
X1086230Y0586130D01*
X1079830Y0586120D02*
X1076230Y0586120D01*
X1076230Y0576120D02*
X1079830Y0576120D01*
X1086230Y0576130D02*
X1089830Y0576130D01*
X1089830Y0566130D02*
X1086230Y0566130D01*
X1086230Y0556130D02*
X1089830Y0556130D01*
X1079830Y0556120D02*
X1076230Y0556120D01*
X1076230Y0566120D02*
X1079830Y0566120D01*
X1086230Y0539330D02*
X1089830Y0539330D01*
X1089830Y0529330D02*
X1086230Y0529330D01*
X1079830Y0526120D02*
X1076230Y0526120D01*
X1076230Y0516120D02*
X1079830Y0516120D01*
X1086230Y0519330D02*
X1089830Y0519330D01*
X1089830Y0509330D02*
X1086230Y0509330D01*
X1079830Y0506120D02*
X1076230Y0506120D01*
X1076230Y0496120D02*
X1079830Y0496120D01*
X1086230Y0499330D02*
X1089830Y0499330D01*
X1089830Y0489330D02*
X1086230Y0489330D01*
X1079830Y0486120D02*
X1076230Y0486120D01*
X1076230Y0476120D02*
X1079830Y0476120D01*
X1086230Y0479330D02*
X1089830Y0479330D01*
X1089830Y0469330D02*
X1086230Y0469330D01*
X1079830Y0466120D02*
X1076230Y0466120D01*
X1112180Y0466570D02*
X1112180Y0470170D01*
X1122180Y0470170D02*
X1122180Y0466570D01*
X1132180Y0466570D02*
X1132180Y0470170D01*
X1142180Y0470170D02*
X1142180Y0466570D01*
X1152180Y0466570D02*
X1152180Y0470170D01*
X1162180Y0470170D02*
X1162180Y0466570D01*
X1162180Y0449170D02*
X1162180Y0445570D01*
X1152180Y0445570D02*
X1152180Y0449170D01*
X1142180Y0449170D02*
X1142180Y0445570D01*
X1132180Y0445570D02*
X1132180Y0449170D01*
X1122180Y0449170D02*
X1122180Y0445570D01*
X1112180Y0445570D02*
X1112180Y0449170D01*
X1162230Y0432620D02*
X1162230Y0429020D01*
X1172230Y0429020D02*
X1172230Y0432620D01*
X1182230Y0432620D02*
X1182230Y0429020D01*
X1182180Y0445570D02*
X1182180Y0449170D01*
X1192180Y0449170D02*
X1192180Y0445570D01*
X1202180Y0445570D02*
X1202180Y0449170D01*
X1212180Y0449170D02*
X1212180Y0445570D01*
X1212180Y0466570D02*
X1212180Y0470170D01*
X1202180Y0470170D02*
X1202180Y0466570D01*
X1192180Y0466570D02*
X1192180Y0470170D01*
X1182180Y0470170D02*
X1182180Y0466570D01*
X1266530Y0505210D02*
X1270130Y0505210D01*
X1276530Y0505220D02*
X1280130Y0505220D01*
X1280130Y0515220D02*
X1276530Y0515220D01*
X1270130Y0515210D02*
X1266530Y0515210D01*
X1266530Y0525210D02*
X1270130Y0525210D01*
X1276530Y0525220D02*
X1280130Y0525220D01*
X1280130Y0535220D02*
X1276530Y0535220D01*
X1270130Y0535210D02*
X1266530Y0535210D01*
X1266530Y0545210D02*
X1270130Y0545210D01*
X1270130Y0555210D02*
X1266530Y0555210D01*
X1276530Y0555220D02*
X1280130Y0555220D01*
X1280130Y0545220D02*
X1276530Y0545220D01*
X1276330Y0574920D02*
X1279930Y0574920D01*
X1279930Y0584920D02*
X1276330Y0584920D01*
X1269930Y0584930D02*
X1266330Y0584930D01*
X1266330Y0574930D02*
X1269930Y0574930D01*
X1269930Y0594930D02*
X1266330Y0594930D01*
X1266330Y0604930D02*
X1269930Y0604930D01*
X1269930Y0614930D02*
X1266330Y0614930D01*
X1266330Y0624930D02*
X1269930Y0624930D01*
X1276330Y0624920D02*
X1279930Y0624920D01*
X1279930Y0614920D02*
X1276330Y0614920D01*
X1276330Y0604920D02*
X1279930Y0604920D01*
X1279930Y0594920D02*
X1276330Y0594920D01*
X1089830Y0616130D02*
X1086230Y0616130D01*
X1079830Y0616120D02*
X1076230Y0616120D01*
X1076230Y0626120D02*
X1079830Y0626120D01*
X1086230Y0626130D02*
X1089830Y0626130D01*
X1079830Y0536120D02*
X1076230Y0536120D01*
D25*
X1073680Y0419930D02*
X1073680Y0416810D01*
X1083680Y0416810D02*
X1083680Y0419930D01*
X1093680Y0419930D02*
X1093680Y0416810D01*
X1103680Y0416810D02*
X1103680Y0419930D01*
X1113680Y0419930D02*
X1113680Y0416810D01*
X1123680Y0416810D02*
X1123680Y0419930D01*
X1133680Y0419930D02*
X1133680Y0416810D01*
X1143680Y0416810D02*
X1143680Y0419930D01*
X1153680Y0419930D02*
X1153680Y0416810D01*
X1163680Y0416810D02*
X1163680Y0419930D01*
X1163680Y0389930D02*
X1163680Y0386810D01*
X1153680Y0386810D02*
X1153680Y0389930D01*
X1143680Y0389930D02*
X1143680Y0386810D01*
X1133680Y0386810D02*
X1133680Y0389930D01*
X1123680Y0389930D02*
X1123680Y0386810D01*
X1113680Y0386810D02*
X1113680Y0389930D01*
X1103680Y0389930D02*
X1103680Y0386810D01*
X1093680Y0386810D02*
X1093680Y0389930D01*
X1083680Y0389930D02*
X1083680Y0386810D01*
X1073680Y0386810D02*
X1073680Y0389930D01*
X1204360Y0498250D02*
X1207480Y0498250D01*
X1207480Y0508250D02*
X1204360Y0508250D01*
X1204360Y0518250D02*
X1207480Y0518250D01*
X1207480Y0528250D02*
X1204360Y0528250D01*
X1204360Y0538250D02*
X1207480Y0538250D01*
X1207480Y0548250D02*
X1204360Y0548250D01*
X1204360Y0558250D02*
X1207480Y0558250D01*
X1207480Y0568250D02*
X1204360Y0568250D01*
X1204360Y0578250D02*
X1207480Y0578250D01*
X1207480Y0588250D02*
X1204360Y0588250D01*
X1204360Y0598250D02*
X1207480Y0598250D01*
X1207480Y0608250D02*
X1204360Y0608250D01*
X1204360Y0618250D02*
X1207480Y0618250D01*
X1207480Y0628250D02*
X1204360Y0628250D01*
X1234360Y0628250D02*
X1237480Y0628250D01*
X1237480Y0618250D02*
X1234360Y0618250D01*
X1234360Y0608250D02*
X1237480Y0608250D01*
X1237480Y0598250D02*
X1234360Y0598250D01*
X1234360Y0588250D02*
X1237480Y0588250D01*
X1237480Y0578250D02*
X1234360Y0578250D01*
X1234360Y0568250D02*
X1237480Y0568250D01*
X1237480Y0558250D02*
X1234360Y0558250D01*
X1234360Y0548250D02*
X1237480Y0548250D01*
X1237480Y0538250D02*
X1234360Y0538250D01*
X1234360Y0528250D02*
X1237480Y0528250D01*
X1237480Y0518250D02*
X1234360Y0518250D01*
X1234360Y0508250D02*
X1237480Y0508250D01*
X1237480Y0498250D02*
X1234360Y0498250D01*
D42*
X1202630Y0431230D03*
X1191610Y0431230D03*
X1156160Y0403890D03*
X1145130Y0403890D03*
D96*
X1132320Y0403580D03*
X1116960Y0403580D03*
D25*
X1132680Y0365370D03*
X1151680Y0365370D03*
X1165310Y0546330D03*
X1184310Y0546330D03*
D83*
X1234090Y0423180D03*
X1234090Y0383180D03*
D30*
X1224180Y0436860D03*
X1224180Y0447880D03*
X1220860Y0573870D03*
X1220860Y0584890D03*
D82*
X1264740Y0361260D03*
X1245040Y0373060D03*
X1245040Y0349460D03*
D48*
X1096280Y0337870D03*
X1085080Y0337870D03*
D97*
X1085370Y0373870D03*
X1096990Y0373870D03*
X1110370Y0373870D03*
X1071990Y0373870D03*
D60*
X1107880Y0426670D03*
X1107880Y0437870D03*
X1123380Y0437870D03*
X1123380Y0426670D03*
D43*
X1099340Y0350870D03*
X1082020Y0350870D03*
D76*
X1220180Y0545370D03*
X1249180Y0636370D03*
X0496420Y0646340D02*
G75*
%LPD*%
D25*
X0568420Y0673740D02*
X0568420Y0678940D01*
X0578420Y0678940D02*
X0578420Y0673740D01*
X0588420Y0673740D02*
X0588420Y0678940D01*
X0598420Y0678940D02*
X0598420Y0673740D01*
X0608420Y0673740D02*
X0608420Y0678940D01*
X0618420Y0678940D02*
X0618420Y0673740D01*
X0628420Y0673740D02*
X0628420Y0678940D01*
X0638420Y0678940D02*
X0638420Y0673740D01*
X0638420Y0703740D02*
X0638420Y0708940D01*
X0628420Y0708940D02*
X0628420Y0703740D01*
X0618420Y0703740D02*
X0618420Y0708940D01*
X0608420Y0708940D02*
X0608420Y0703740D01*
X0598420Y0703740D02*
X0598420Y0708940D01*
X0588420Y0708940D02*
X0588420Y0703740D01*
X0578420Y0703740D02*
X0578420Y0708940D01*
X0568420Y0708940D02*
X0568420Y0703740D01*
D38*
X0503420Y0656340D03*
X0513420Y0656340D03*
X0533420Y0656340D03*
X0543420Y0656340D03*
X0563420Y0656340D03*
X0573420Y0656340D03*
X0593420Y0656340D03*
X0603420Y0656340D03*
X0623420Y0656340D03*
X0633420Y0656340D03*
X0653420Y0656340D03*
X0663420Y0656340D03*
X0683420Y0656340D03*
X0693420Y0656340D03*
X0713420Y0656340D03*
X0723420Y0656340D03*
X0680920Y0676340D03*
X0670920Y0676340D03*
X0660920Y0676340D03*
X0650920Y0676340D03*
X0650920Y0706340D03*
X0660920Y0706340D03*
X0670920Y0706340D03*
X0680920Y0706340D03*
X0553420Y0703840D03*
X0543420Y0703840D03*
X0533420Y0703840D03*
X0523420Y0703840D03*
X0523420Y0673840D03*
X0533420Y0673840D03*
X0543420Y0673840D03*
X0553420Y0673840D03*
D92*
X0514420Y0677340D02*
X0508420Y0677340D01*
X0508420Y0667340D02*
X0514420Y0667340D01*
X0514420Y0687340D02*
X0508420Y0687340D01*
X0508420Y0697340D02*
X0514420Y0697340D01*
X0514420Y0707340D02*
X0508420Y0707340D01*
X0691420Y0708340D02*
X0697420Y0708340D01*
X0697420Y0698340D02*
X0691420Y0698340D01*
X0691420Y0688340D02*
X0697420Y0688340D01*
X0697420Y0678340D02*
X0691420Y0678340D01*
X0691420Y0668340D02*
X0697420Y0668340D01*
X0736790Y0244400D02*
G75*
%LPD*%
D25*
X0779350Y0316400D02*
X0774150Y0316400D01*
X0774150Y0326400D02*
X0779350Y0326400D01*
X0779350Y0336400D02*
X0774150Y0336400D01*
X0774150Y0346400D02*
X0779350Y0346400D01*
X0779350Y0356400D02*
X0774150Y0356400D01*
X0774150Y0366400D02*
X0779350Y0366400D01*
X0779350Y0376400D02*
X0774150Y0376400D01*
X0774150Y0386400D02*
X0779350Y0386400D01*
X0749350Y0386400D02*
X0744150Y0386400D01*
X0744150Y0376400D02*
X0749350Y0376400D01*
X0749350Y0366400D02*
X0744150Y0366400D01*
X0744150Y0356400D02*
X0749350Y0356400D01*
X0749350Y0346400D02*
X0744150Y0346400D01*
X0744150Y0336400D02*
X0749350Y0336400D01*
X0749350Y0326400D02*
X0744150Y0326400D01*
X0744150Y0316400D02*
X0749350Y0316400D01*
D38*
X0796750Y0251400D03*
X0796750Y0261400D03*
X0796750Y0281400D03*
X0796750Y0291400D03*
X0796750Y0311400D03*
X0796750Y0321400D03*
X0796750Y0341400D03*
X0796750Y0351400D03*
X0796750Y0371400D03*
X0796750Y0381400D03*
X0796750Y0401400D03*
X0796750Y0411400D03*
X0796750Y0431400D03*
X0796750Y0441400D03*
X0796750Y0461400D03*
X0796750Y0471400D03*
X0776750Y0428900D03*
X0776750Y0418900D03*
X0776750Y0408900D03*
X0776750Y0398900D03*
X0746750Y0398900D03*
X0746750Y0408900D03*
X0746750Y0418900D03*
X0746750Y0428900D03*
X0749250Y0301400D03*
X0749250Y0291400D03*
X0749250Y0281400D03*
X0749250Y0271400D03*
X0779250Y0271400D03*
X0779250Y0281400D03*
X0779250Y0291400D03*
X0779250Y0301400D03*
D92*
X0775750Y0262400D02*
X0775750Y0256400D01*
X0785750Y0256400D02*
X0785750Y0262400D01*
X0765750Y0262400D02*
X0765750Y0256400D01*
X0755750Y0256400D02*
X0755750Y0262400D01*
X0745750Y0262400D02*
X0745750Y0256400D01*
X0744750Y0439400D02*
X0744750Y0445400D01*
X0754750Y0445400D02*
X0754750Y0439400D01*
X0764750Y0439400D02*
X0764750Y0445400D01*
X0774750Y0445400D02*
X0774750Y0439400D01*
X0784750Y0439400D02*
X0784750Y0445400D01*
X1142920Y0094960D02*
G75*
%LPD*%
D25*
X1185480Y0166960D02*
X1180280Y0166960D01*
X1180280Y0176960D02*
X1185480Y0176960D01*
X1185480Y0186960D02*
X1180280Y0186960D01*
X1180280Y0196960D02*
X1185480Y0196960D01*
X1185480Y0206960D02*
X1180280Y0206960D01*
X1180280Y0216960D02*
X1185480Y0216960D01*
X1185480Y0226960D02*
X1180280Y0226960D01*
X1180280Y0236960D02*
X1185480Y0236960D01*
X1155480Y0236960D02*
X1150280Y0236960D01*
X1150280Y0226960D02*
X1155480Y0226960D01*
X1155480Y0216960D02*
X1150280Y0216960D01*
X1150280Y0206960D02*
X1155480Y0206960D01*
X1155480Y0196960D02*
X1150280Y0196960D01*
X1150280Y0186960D02*
X1155480Y0186960D01*
X1155480Y0176960D02*
X1150280Y0176960D01*
X1150280Y0166960D02*
X1155480Y0166960D01*
D38*
X1202880Y0101960D03*
X1202880Y0111960D03*
X1202880Y0131960D03*
X1202880Y0141960D03*
X1202880Y0161960D03*
X1202880Y0171960D03*
X1202880Y0191960D03*
X1202880Y0201960D03*
X1202880Y0221960D03*
X1202880Y0231960D03*
X1202880Y0251960D03*
X1202880Y0261960D03*
X1202880Y0281960D03*
X1202880Y0291960D03*
X1202880Y0311960D03*
X1202880Y0321960D03*
X1182880Y0279460D03*
X1182880Y0269460D03*
X1182880Y0259460D03*
X1182880Y0249460D03*
X1152880Y0249460D03*
X1152880Y0259460D03*
X1152880Y0269460D03*
X1152880Y0279460D03*
X1155380Y0151960D03*
X1155380Y0141960D03*
X1155380Y0131960D03*
X1155380Y0121960D03*
X1185380Y0121960D03*
X1185380Y0131960D03*
X1185380Y0141960D03*
X1185380Y0151960D03*
D92*
X1181880Y0112960D02*
X1181880Y0106960D01*
X1191880Y0106960D02*
X1191880Y0112960D01*
X1171880Y0112960D02*
X1171880Y0106960D01*
X1161880Y0106960D02*
X1161880Y0112960D01*
X1151880Y0112960D02*
X1151880Y0106960D01*
X1150880Y0289960D02*
X1150880Y0295960D01*
X1160880Y0295960D02*
X1160880Y0289960D01*
X1170880Y0289960D02*
X1170880Y0295960D01*
X1180880Y0295960D02*
X1180880Y0289960D01*
X1190880Y0289960D02*
X1190880Y0295960D01*
X0258210Y0684800D02*
G75*
%LPD*%
D25*
X0330210Y0712200D02*
X0330210Y0717400D01*
X0340210Y0717400D02*
X0340210Y0712200D01*
X0350210Y0712200D02*
X0350210Y0717400D01*
X0360210Y0717400D02*
X0360210Y0712200D01*
X0370210Y0712200D02*
X0370210Y0717400D01*
X0380210Y0717400D02*
X0380210Y0712200D01*
X0390210Y0712200D02*
X0390210Y0717400D01*
X0400210Y0717400D02*
X0400210Y0712200D01*
X0400210Y0742200D02*
X0400210Y0747400D01*
X0390210Y0747400D02*
X0390210Y0742200D01*
X0380210Y0742200D02*
X0380210Y0747400D01*
X0370210Y0747400D02*
X0370210Y0742200D01*
X0360210Y0742200D02*
X0360210Y0747400D01*
X0350210Y0747400D02*
X0350210Y0742200D01*
X0340210Y0742200D02*
X0340210Y0747400D01*
X0330210Y0747400D02*
X0330210Y0742200D01*
D38*
X0265210Y0694800D03*
X0275210Y0694800D03*
X0295210Y0694800D03*
X0305210Y0694800D03*
X0325210Y0694800D03*
X0335210Y0694800D03*
X0355210Y0694800D03*
X0365210Y0694800D03*
X0385210Y0694800D03*
X0395210Y0694800D03*
X0415210Y0694800D03*
X0425210Y0694800D03*
X0445210Y0694800D03*
X0455210Y0694800D03*
X0475210Y0694800D03*
X0485210Y0694800D03*
X0442710Y0714800D03*
X0432710Y0714800D03*
X0422710Y0714800D03*
X0412710Y0714800D03*
X0412710Y0744800D03*
X0422710Y0744800D03*
X0432710Y0744800D03*
X0442710Y0744800D03*
X0315210Y0742300D03*
X0305210Y0742300D03*
X0295210Y0742300D03*
X0285210Y0742300D03*
X0285210Y0712300D03*
X0295210Y0712300D03*
X0305210Y0712300D03*
X0315210Y0712300D03*
D92*
X0276210Y0715800D02*
X0270210Y0715800D01*
X0270210Y0705800D02*
X0276210Y0705800D01*
X0276210Y0725800D02*
X0270210Y0725800D01*
X0270210Y0735800D02*
X0276210Y0735800D01*
X0276210Y0745800D02*
X0270210Y0745800D01*
X0453210Y0746800D02*
X0459210Y0746800D01*
X0459210Y0736800D02*
X0453210Y0736800D01*
X0453210Y0726800D02*
X0459210Y0726800D01*
X0459210Y0716800D02*
X0453210Y0716800D01*
X0453210Y0706800D02*
X0459210Y0706800D01*
X0496420Y0721300D02*
G75*
%LPD*%
D25*
X0568420Y0748700D02*
X0568420Y0753900D01*
X0578420Y0753900D02*
X0578420Y0748700D01*
X0588420Y0748700D02*
X0588420Y0753900D01*
X0598420Y0753900D02*
X0598420Y0748700D01*
X0608420Y0748700D02*
X0608420Y0753900D01*
X0618420Y0753900D02*
X0618420Y0748700D01*
X0628420Y0748700D02*
X0628420Y0753900D01*
X0638420Y0753900D02*
X0638420Y0748700D01*
X0638420Y0778700D02*
X0638420Y0783900D01*
X0628420Y0783900D02*
X0628420Y0778700D01*
X0618420Y0778700D02*
X0618420Y0783900D01*
X0608420Y0783900D02*
X0608420Y0778700D01*
X0598420Y0778700D02*
X0598420Y0783900D01*
X0588420Y0783900D02*
X0588420Y0778700D01*
X0578420Y0778700D02*
X0578420Y0783900D01*
X0568420Y0783900D02*
X0568420Y0778700D01*
D38*
X0503420Y0731300D03*
X0513420Y0731300D03*
X0533420Y0731300D03*
X0543420Y0731300D03*
X0563420Y0731300D03*
X0573420Y0731300D03*
X0593420Y0731300D03*
X0603420Y0731300D03*
X0623420Y0731300D03*
X0633420Y0731300D03*
X0653420Y0731300D03*
X0663420Y0731300D03*
X0683420Y0731300D03*
X0693420Y0731300D03*
X0713420Y0731300D03*
X0723420Y0731300D03*
X0680920Y0751300D03*
X0670920Y0751300D03*
X0660920Y0751300D03*
X0650920Y0751300D03*
X0650920Y0781300D03*
X0660920Y0781300D03*
X0670920Y0781300D03*
X0680920Y0781300D03*
X0553420Y0778800D03*
X0543420Y0778800D03*
X0533420Y0778800D03*
X0523420Y0778800D03*
X0523420Y0748800D03*
X0533420Y0748800D03*
X0543420Y0748800D03*
X0553420Y0748800D03*
D92*
X0514420Y0752300D02*
X0508420Y0752300D01*
X0508420Y0742300D02*
X0514420Y0742300D01*
X0514420Y0762300D02*
X0508420Y0762300D01*
X0508420Y0772300D02*
X0514420Y0772300D01*
X0514420Y0782300D02*
X0508420Y0782300D01*
X0691420Y0783300D02*
X0697420Y0783300D01*
X0697420Y0773300D02*
X0691420Y0773300D01*
X0691420Y0763300D02*
X0697420Y0763300D01*
X0697420Y0753300D02*
X0691420Y0753300D01*
X0691420Y0743300D02*
X0697420Y0743300D01*
X0020000Y0684800D02*
G75*
%LPD*%
D25*
X0092000Y0712200D02*
X0092000Y0717400D01*
X0102000Y0717400D02*
X0102000Y0712200D01*
X0112000Y0712200D02*
X0112000Y0717400D01*
X0122000Y0717400D02*
X0122000Y0712200D01*
X0132000Y0712200D02*
X0132000Y0717400D01*
X0142000Y0717400D02*
X0142000Y0712200D01*
X0152000Y0712200D02*
X0152000Y0717400D01*
X0162000Y0717400D02*
X0162000Y0712200D01*
X0162000Y0742200D02*
X0162000Y0747400D01*
X0152000Y0747400D02*
X0152000Y0742200D01*
X0142000Y0742200D02*
X0142000Y0747400D01*
X0132000Y0747400D02*
X0132000Y0742200D01*
X0122000Y0742200D02*
X0122000Y0747400D01*
X0112000Y0747400D02*
X0112000Y0742200D01*
X0102000Y0742200D02*
X0102000Y0747400D01*
X0092000Y0747400D02*
X0092000Y0742200D01*
D38*
X0027000Y0694800D03*
X0037000Y0694800D03*
X0057000Y0694800D03*
X0067000Y0694800D03*
X0087000Y0694800D03*
X0097000Y0694800D03*
X0117000Y0694800D03*
X0127000Y0694800D03*
X0147000Y0694800D03*
X0157000Y0694800D03*
X0177000Y0694800D03*
X0187000Y0694800D03*
X0207000Y0694800D03*
X0217000Y0694800D03*
X0237000Y0694800D03*
X0247000Y0694800D03*
X0204500Y0714800D03*
X0194500Y0714800D03*
X0184500Y0714800D03*
X0174500Y0714800D03*
X0174500Y0744800D03*
X0184500Y0744800D03*
X0194500Y0744800D03*
X0204500Y0744800D03*
X0077000Y0742300D03*
X0067000Y0742300D03*
X0057000Y0742300D03*
X0047000Y0742300D03*
X0047000Y0712300D03*
X0057000Y0712300D03*
X0067000Y0712300D03*
X0077000Y0712300D03*
D92*
X0038000Y0715800D02*
X0032000Y0715800D01*
X0032000Y0705800D02*
X0038000Y0705800D01*
X0038000Y0725800D02*
X0032000Y0725800D01*
X0032000Y0735800D02*
X0038000Y0735800D01*
X0038000Y0745800D02*
X0032000Y0745800D01*
X0215000Y0746800D02*
X0221000Y0746800D01*
X0221000Y0736800D02*
X0215000Y0736800D01*
X0215000Y0726800D02*
X0221000Y0726800D01*
X0221000Y0716800D02*
X0215000Y0716800D01*
X0215000Y0706800D02*
X0221000Y0706800D01*
X0811750Y0244400D02*
G75*
%LPD*%
D25*
X0854310Y0316400D02*
X0849110Y0316400D01*
X0849110Y0326400D02*
X0854310Y0326400D01*
X0854310Y0336400D02*
X0849110Y0336400D01*
X0849110Y0346400D02*
X0854310Y0346400D01*
X0854310Y0356400D02*
X0849110Y0356400D01*
X0849110Y0366400D02*
X0854310Y0366400D01*
X0854310Y0376400D02*
X0849110Y0376400D01*
X0849110Y0386400D02*
X0854310Y0386400D01*
X0824310Y0386400D02*
X0819110Y0386400D01*
X0819110Y0376400D02*
X0824310Y0376400D01*
X0824310Y0366400D02*
X0819110Y0366400D01*
X0819110Y0356400D02*
X0824310Y0356400D01*
X0824310Y0346400D02*
X0819110Y0346400D01*
X0819110Y0336400D02*
X0824310Y0336400D01*
X0824310Y0326400D02*
X0819110Y0326400D01*
X0819110Y0316400D02*
X0824310Y0316400D01*
D38*
X0871710Y0251400D03*
X0871710Y0261400D03*
X0871710Y0281400D03*
X0871710Y0291400D03*
X0871710Y0311400D03*
X0871710Y0321400D03*
X0871710Y0341400D03*
X0871710Y0351400D03*
X0871710Y0371400D03*
X0871710Y0381400D03*
X0871710Y0401400D03*
X0871710Y0411400D03*
X0871710Y0431400D03*
X0871710Y0441400D03*
X0871710Y0461400D03*
X0871710Y0471400D03*
X0851710Y0428900D03*
X0851710Y0418900D03*
X0851710Y0408900D03*
X0851710Y0398900D03*
X0821710Y0398900D03*
X0821710Y0408900D03*
X0821710Y0418900D03*
X0821710Y0428900D03*
X0824210Y0301400D03*
X0824210Y0291400D03*
X0824210Y0281400D03*
X0824210Y0271400D03*
X0854210Y0271400D03*
X0854210Y0281400D03*
X0854210Y0291400D03*
X0854210Y0301400D03*
D92*
X0850710Y0262400D02*
X0850710Y0256400D01*
X0860710Y0256400D02*
X0860710Y0262400D01*
X0840710Y0262400D02*
X0840710Y0256400D01*
X0830710Y0256400D02*
X0830710Y0262400D01*
X0820710Y0262400D02*
X0820710Y0256400D01*
X0819710Y0439400D02*
X0819710Y0445400D01*
X0829710Y0445400D02*
X0829710Y0439400D01*
X0839710Y0439400D02*
X0839710Y0445400D01*
X0849710Y0445400D02*
X0849710Y0439400D01*
X0859710Y0439400D02*
X0859710Y0445400D01*
X0586870Y0408130D02*
G75*
%LPD*%
D25*
X0629430Y0480130D02*
X0624230Y0480130D01*
X0624230Y0490130D02*
X0629430Y0490130D01*
X0629430Y0500130D02*
X0624230Y0500130D01*
X0624230Y0510130D02*
X0629430Y0510130D01*
X0629430Y0520130D02*
X0624230Y0520130D01*
X0624230Y0530130D02*
X0629430Y0530130D01*
X0629430Y0540130D02*
X0624230Y0540130D01*
X0624230Y0550130D02*
X0629430Y0550130D01*
X0599430Y0550130D02*
X0594230Y0550130D01*
X0594230Y0540130D02*
X0599430Y0540130D01*
X0599430Y0530130D02*
X0594230Y0530130D01*
X0594230Y0520130D02*
X0599430Y0520130D01*
X0599430Y0510130D02*
X0594230Y0510130D01*
X0594230Y0500130D02*
X0599430Y0500130D01*
X0599430Y0490130D02*
X0594230Y0490130D01*
X0594230Y0480130D02*
X0599430Y0480130D01*
D38*
X0646830Y0415130D03*
X0646830Y0425130D03*
X0646830Y0445130D03*
X0646830Y0455130D03*
X0646830Y0475130D03*
X0646830Y0485130D03*
X0646830Y0505130D03*
X0646830Y0515130D03*
X0646830Y0535130D03*
X0646830Y0545130D03*
X0646830Y0565130D03*
X0646830Y0575130D03*
X0646830Y0595130D03*
X0646830Y0605130D03*
X0646830Y0625130D03*
X0646830Y0635130D03*
X0626830Y0592630D03*
X0626830Y0582630D03*
X0626830Y0572630D03*
X0626830Y0562630D03*
X0596830Y0562630D03*
X0596830Y0572630D03*
X0596830Y0582630D03*
X0596830Y0592630D03*
X0599330Y0465130D03*
X0599330Y0455130D03*
X0599330Y0445130D03*
X0599330Y0435130D03*
X0629330Y0435130D03*
X0629330Y0445130D03*
X0629330Y0455130D03*
X0629330Y0465130D03*
D92*
X0625830Y0426130D02*
X0625830Y0420130D01*
X0635830Y0420130D02*
X0635830Y0426130D01*
X0615830Y0426130D02*
X0615830Y0420130D01*
X0605830Y0420130D02*
X0605830Y0426130D01*
X0595830Y0426130D02*
X0595830Y0420130D01*
X0594830Y0603130D02*
X0594830Y0609130D01*
X0604830Y0609130D02*
X0604830Y0603130D01*
X0614830Y0603130D02*
X0614830Y0609130D01*
X0624830Y0609130D02*
X0624830Y0603130D01*
X0634830Y0603130D02*
X0634830Y0609130D01*
X0829750Y0482610D02*
G75*
%LPD*%
D25*
X0901750Y0510010D02*
X0901750Y0515210D01*
X0911750Y0515210D02*
X0911750Y0510010D01*
X0921750Y0510010D02*
X0921750Y0515210D01*
X0931750Y0515210D02*
X0931750Y0510010D01*
X0941750Y0510010D02*
X0941750Y0515210D01*
X0951750Y0515210D02*
X0951750Y0510010D01*
X0961750Y0510010D02*
X0961750Y0515210D01*
X0971750Y0515210D02*
X0971750Y0510010D01*
X0971750Y0540010D02*
X0971750Y0545210D01*
X0961750Y0545210D02*
X0961750Y0540010D01*
X0951750Y0540010D02*
X0951750Y0545210D01*
X0941750Y0545210D02*
X0941750Y0540010D01*
X0931750Y0540010D02*
X0931750Y0545210D01*
X0921750Y0545210D02*
X0921750Y0540010D01*
X0911750Y0540010D02*
X0911750Y0545210D01*
X0901750Y0545210D02*
X0901750Y0540010D01*
D38*
X0836750Y0492610D03*
X0846750Y0492610D03*
X0866750Y0492610D03*
X0876750Y0492610D03*
X0896750Y0492610D03*
X0906750Y0492610D03*
X0926750Y0492610D03*
X0936750Y0492610D03*
X0956750Y0492610D03*
X0966750Y0492610D03*
X0986750Y0492610D03*
X0996750Y0492610D03*
X1016750Y0492610D03*
X1026750Y0492610D03*
X1046750Y0492610D03*
X1056750Y0492610D03*
X1014250Y0512610D03*
X1004250Y0512610D03*
X0994250Y0512610D03*
X0984250Y0512610D03*
X0984250Y0542610D03*
X0994250Y0542610D03*
X1004250Y0542610D03*
X1014250Y0542610D03*
X0886750Y0540110D03*
X0876750Y0540110D03*
X0866750Y0540110D03*
X0856750Y0540110D03*
X0856750Y0510110D03*
X0866750Y0510110D03*
X0876750Y0510110D03*
X0886750Y0510110D03*
D92*
X0847750Y0513610D02*
X0841750Y0513610D01*
X0841750Y0503610D02*
X0847750Y0503610D01*
X0847750Y0523610D02*
X0841750Y0523610D01*
X0841750Y0533610D02*
X0847750Y0533610D01*
X0847750Y0543610D02*
X0841750Y0543610D01*
X1024750Y0544610D02*
X1030750Y0544610D01*
X1030750Y0534610D02*
X1024750Y0534610D01*
X1024750Y0524610D02*
X1030750Y0524610D01*
X1030750Y0514610D02*
X1024750Y0514610D01*
X1024750Y0504610D02*
X1030750Y0504610D01*
X0829750Y0557570D02*
G75*
%LPD*%
D25*
X0901750Y0584970D02*
X0901750Y0590170D01*
X0911750Y0590170D02*
X0911750Y0584970D01*
X0921750Y0584970D02*
X0921750Y0590170D01*
X0931750Y0590170D02*
X0931750Y0584970D01*
X0941750Y0584970D02*
X0941750Y0590170D01*
X0951750Y0590170D02*
X0951750Y0584970D01*
X0961750Y0584970D02*
X0961750Y0590170D01*
X0971750Y0590170D02*
X0971750Y0584970D01*
X0971750Y0614970D02*
X0971750Y0620170D01*
X0961750Y0620170D02*
X0961750Y0614970D01*
X0951750Y0614970D02*
X0951750Y0620170D01*
X0941750Y0620170D02*
X0941750Y0614970D01*
X0931750Y0614970D02*
X0931750Y0620170D01*
X0921750Y0620170D02*
X0921750Y0614970D01*
X0911750Y0614970D02*
X0911750Y0620170D01*
X0901750Y0620170D02*
X0901750Y0614970D01*
D38*
X0836750Y0567570D03*
X0846750Y0567570D03*
X0866750Y0567570D03*
X0876750Y0567570D03*
X0896750Y0567570D03*
X0906750Y0567570D03*
X0926750Y0567570D03*
X0936750Y0567570D03*
X0956750Y0567570D03*
X0966750Y0567570D03*
X0986750Y0567570D03*
X0996750Y0567570D03*
X1016750Y0567570D03*
X1026750Y0567570D03*
X1046750Y0567570D03*
X1056750Y0567570D03*
X1014250Y0587570D03*
X1004250Y0587570D03*
X0994250Y0587570D03*
X0984250Y0587570D03*
X0984250Y0617570D03*
X0994250Y0617570D03*
X1004250Y0617570D03*
X1014250Y0617570D03*
X0886750Y0615070D03*
X0876750Y0615070D03*
X0866750Y0615070D03*
X0856750Y0615070D03*
X0856750Y0585070D03*
X0866750Y0585070D03*
X0876750Y0585070D03*
X0886750Y0585070D03*
D92*
X0847750Y0588570D02*
X0841750Y0588570D01*
X0841750Y0578570D02*
X0847750Y0578570D01*
X0847750Y0598570D02*
X0841750Y0598570D01*
X0841750Y0608570D02*
X0847750Y0608570D01*
X0847750Y0618570D02*
X0841750Y0618570D01*
X1024750Y0619570D02*
X1030750Y0619570D01*
X1030750Y0609570D02*
X1024750Y0609570D01*
X1024750Y0599570D02*
X1030750Y0599570D01*
X1030750Y0589570D02*
X1024750Y0589570D01*
X1024750Y0579570D02*
X1030750Y0579570D01*
X0829750Y0632530D02*
G75*
%LPD*%
D25*
X0901750Y0659930D02*
X0901750Y0665130D01*
X0911750Y0665130D02*
X0911750Y0659930D01*
X0921750Y0659930D02*
X0921750Y0665130D01*
X0931750Y0665130D02*
X0931750Y0659930D01*
X0941750Y0659930D02*
X0941750Y0665130D01*
X0951750Y0665130D02*
X0951750Y0659930D01*
X0961750Y0659930D02*
X0961750Y0665130D01*
X0971750Y0665130D02*
X0971750Y0659930D01*
X0971750Y0689930D02*
X0971750Y0695130D01*
X0961750Y0695130D02*
X0961750Y0689930D01*
X0951750Y0689930D02*
X0951750Y0695130D01*
X0941750Y0695130D02*
X0941750Y0689930D01*
X0931750Y0689930D02*
X0931750Y0695130D01*
X0921750Y0695130D02*
X0921750Y0689930D01*
X0911750Y0689930D02*
X0911750Y0695130D01*
X0901750Y0695130D02*
X0901750Y0689930D01*
D38*
X0836750Y0642530D03*
X0846750Y0642530D03*
X0866750Y0642530D03*
X0876750Y0642530D03*
X0896750Y0642530D03*
X0906750Y0642530D03*
X0926750Y0642530D03*
X0936750Y0642530D03*
X0956750Y0642530D03*
X0966750Y0642530D03*
X0986750Y0642530D03*
X0996750Y0642530D03*
X1016750Y0642530D03*
X1026750Y0642530D03*
X1046750Y0642530D03*
X1056750Y0642530D03*
X1014250Y0662530D03*
X1004250Y0662530D03*
X0994250Y0662530D03*
X0984250Y0662530D03*
X0984250Y0692530D03*
X0994250Y0692530D03*
X1004250Y0692530D03*
X1014250Y0692530D03*
X0886750Y0690030D03*
X0876750Y0690030D03*
X0866750Y0690030D03*
X0856750Y0690030D03*
X0856750Y0660030D03*
X0866750Y0660030D03*
X0876750Y0660030D03*
X0886750Y0660030D03*
D92*
X0847750Y0663530D02*
X0841750Y0663530D01*
X0841750Y0653530D02*
X0847750Y0653530D01*
X0847750Y0673530D02*
X0841750Y0673530D01*
X0841750Y0683530D02*
X0847750Y0683530D01*
X0847750Y0693530D02*
X0841750Y0693530D01*
X1024750Y0694530D02*
X1030750Y0694530D01*
X1030750Y0684530D02*
X1024750Y0684530D01*
X1024750Y0674530D02*
X1030750Y0674530D01*
X1030750Y0664530D02*
X1024750Y0664530D01*
X1024750Y0654530D02*
X1030750Y0654530D01*
X1067960Y0651010D02*
G75*
%LPD*%
D25*
X1139960Y0678410D02*
X1139960Y0683610D01*
X1149960Y0683610D02*
X1149960Y0678410D01*
X1159960Y0678410D02*
X1159960Y0683610D01*
X1169960Y0683610D02*
X1169960Y0678410D01*
X1179960Y0678410D02*
X1179960Y0683610D01*
X1189960Y0683610D02*
X1189960Y0678410D01*
X1199960Y0678410D02*
X1199960Y0683610D01*
X1209960Y0683610D02*
X1209960Y0678410D01*
X1209960Y0708410D02*
X1209960Y0713610D01*
X1199960Y0713610D02*
X1199960Y0708410D01*
X1189960Y0708410D02*
X1189960Y0713610D01*
X1179960Y0713610D02*
X1179960Y0708410D01*
X1169960Y0708410D02*
X1169960Y0713610D01*
X1159960Y0713610D02*
X1159960Y0708410D01*
X1149960Y0708410D02*
X1149960Y0713610D01*
X1139960Y0713610D02*
X1139960Y0708410D01*
D38*
X1074960Y0661010D03*
X1084960Y0661010D03*
X1104960Y0661010D03*
X1114960Y0661010D03*
X1134960Y0661010D03*
X1144960Y0661010D03*
X1164960Y0661010D03*
X1174960Y0661010D03*
X1194960Y0661010D03*
X1204960Y0661010D03*
X1224960Y0661010D03*
X1234960Y0661010D03*
X1254960Y0661010D03*
X1264960Y0661010D03*
X1284960Y0661010D03*
X1294960Y0661010D03*
X1252460Y0681010D03*
X1242460Y0681010D03*
X1232460Y0681010D03*
X1222460Y0681010D03*
X1222460Y0711010D03*
X1232460Y0711010D03*
X1242460Y0711010D03*
X1252460Y0711010D03*
X1124960Y0708510D03*
X1114960Y0708510D03*
X1104960Y0708510D03*
X1094960Y0708510D03*
X1094960Y0678510D03*
X1104960Y0678510D03*
X1114960Y0678510D03*
X1124960Y0678510D03*
D92*
X1085960Y0682010D02*
X1079960Y0682010D01*
X1079960Y0672010D02*
X1085960Y0672010D01*
X1085960Y0692010D02*
X1079960Y0692010D01*
X1079960Y0702010D02*
X1085960Y0702010D01*
X1085960Y0712010D02*
X1079960Y0712010D01*
X1262960Y0713010D02*
X1268960Y0713010D01*
X1268960Y0703010D02*
X1262960Y0703010D01*
X1262960Y0693010D02*
X1268960Y0693010D01*
X1268960Y0683010D02*
X1262960Y0683010D01*
X1262960Y0673010D02*
X1268960Y0673010D01*
X0918040Y0244400D02*
G75*
%LPD*%
D25*
X0960600Y0316400D02*
X0955400Y0316400D01*
X0955400Y0326400D02*
X0960600Y0326400D01*
X0960600Y0336400D02*
X0955400Y0336400D01*
X0955400Y0346400D02*
X0960600Y0346400D01*
X0960600Y0356400D02*
X0955400Y0356400D01*
X0955400Y0366400D02*
X0960600Y0366400D01*
X0960600Y0376400D02*
X0955400Y0376400D01*
X0955400Y0386400D02*
X0960600Y0386400D01*
X0930600Y0386400D02*
X0925400Y0386400D01*
X0925400Y0376400D02*
X0930600Y0376400D01*
X0930600Y0366400D02*
X0925400Y0366400D01*
X0925400Y0356400D02*
X0930600Y0356400D01*
X0930600Y0346400D02*
X0925400Y0346400D01*
X0925400Y0336400D02*
X0930600Y0336400D01*
X0930600Y0326400D02*
X0925400Y0326400D01*
X0925400Y0316400D02*
X0930600Y0316400D01*
D38*
X0978000Y0251400D03*
X0978000Y0261400D03*
X0978000Y0281400D03*
X0978000Y0291400D03*
X0978000Y0311400D03*
X0978000Y0321400D03*
X0978000Y0341400D03*
X0978000Y0351400D03*
X0978000Y0371400D03*
X0978000Y0381400D03*
X0978000Y0401400D03*
X0978000Y0411400D03*
X0978000Y0431400D03*
X0978000Y0441400D03*
X0978000Y0461400D03*
X0978000Y0471400D03*
X0958000Y0428900D03*
X0958000Y0418900D03*
X0958000Y0408900D03*
X0958000Y0398900D03*
X0928000Y0398900D03*
X0928000Y0408900D03*
X0928000Y0418900D03*
X0928000Y0428900D03*
X0930500Y0301400D03*
X0930500Y0291400D03*
X0930500Y0281400D03*
X0930500Y0271400D03*
X0960500Y0271400D03*
X0960500Y0281400D03*
X0960500Y0291400D03*
X0960500Y0301400D03*
D92*
X0957000Y0262400D02*
X0957000Y0256400D01*
X0967000Y0256400D02*
X0967000Y0262400D01*
X0947000Y0262400D02*
X0947000Y0256400D01*
X0937000Y0256400D02*
X0937000Y0262400D01*
X0927000Y0262400D02*
X0927000Y0256400D01*
X0926000Y0439400D02*
X0926000Y0445400D01*
X0936000Y0445400D02*
X0936000Y0439400D01*
X0946000Y0439400D02*
X0946000Y0445400D01*
X0956000Y0445400D02*
X0956000Y0439400D01*
X0966000Y0439400D02*
X0966000Y0445400D01*
X0829750Y0707490D02*
G75*
%LPD*%
D25*
X0901750Y0734890D02*
X0901750Y0740090D01*
X0911750Y0740090D02*
X0911750Y0734890D01*
X0921750Y0734890D02*
X0921750Y0740090D01*
X0931750Y0740090D02*
X0931750Y0734890D01*
X0941750Y0734890D02*
X0941750Y0740090D01*
X0951750Y0740090D02*
X0951750Y0734890D01*
X0961750Y0734890D02*
X0961750Y0740090D01*
X0971750Y0740090D02*
X0971750Y0734890D01*
X0971750Y0764890D02*
X0971750Y0770090D01*
X0961750Y0770090D02*
X0961750Y0764890D01*
X0951750Y0764890D02*
X0951750Y0770090D01*
X0941750Y0770090D02*
X0941750Y0764890D01*
X0931750Y0764890D02*
X0931750Y0770090D01*
X0921750Y0770090D02*
X0921750Y0764890D01*
X0911750Y0764890D02*
X0911750Y0770090D01*
X0901750Y0770090D02*
X0901750Y0764890D01*
D38*
X0836750Y0717490D03*
X0846750Y0717490D03*
X0866750Y0717490D03*
X0876750Y0717490D03*
X0896750Y0717490D03*
X0906750Y0717490D03*
X0926750Y0717490D03*
X0936750Y0717490D03*
X0956750Y0717490D03*
X0966750Y0717490D03*
X0986750Y0717490D03*
X0996750Y0717490D03*
X1016750Y0717490D03*
X1026750Y0717490D03*
X1046750Y0717490D03*
X1056750Y0717490D03*
X1014250Y0737490D03*
X1004250Y0737490D03*
X0994250Y0737490D03*
X0984250Y0737490D03*
X0984250Y0767490D03*
X0994250Y0767490D03*
X1004250Y0767490D03*
X1014250Y0767490D03*
X0886750Y0764990D03*
X0876750Y0764990D03*
X0866750Y0764990D03*
X0856750Y0764990D03*
X0856750Y0734990D03*
X0866750Y0734990D03*
X0876750Y0734990D03*
X0886750Y0734990D03*
D92*
X0847750Y0738490D02*
X0841750Y0738490D01*
X0841750Y0728490D02*
X0847750Y0728490D01*
X0847750Y0748490D02*
X0841750Y0748490D01*
X0841750Y0758490D02*
X0847750Y0758490D01*
X0847750Y0768490D02*
X0841750Y0768490D01*
X1024750Y0769490D02*
X1030750Y0769490D01*
X1030750Y0759490D02*
X1024750Y0759490D01*
X1024750Y0749490D02*
X1030750Y0749490D01*
X1030750Y0739490D02*
X1024750Y0739490D01*
X1024750Y0729490D02*
X1030750Y0729490D01*
X1217880Y0094960D02*
G75*
%LPD*%
D25*
X1260440Y0166960D02*
X1255240Y0166960D01*
X1255240Y0176960D02*
X1260440Y0176960D01*
X1260440Y0186960D02*
X1255240Y0186960D01*
X1255240Y0196960D02*
X1260440Y0196960D01*
X1260440Y0206960D02*
X1255240Y0206960D01*
X1255240Y0216960D02*
X1260440Y0216960D01*
X1260440Y0226960D02*
X1255240Y0226960D01*
X1255240Y0236960D02*
X1260440Y0236960D01*
X1230440Y0236960D02*
X1225240Y0236960D01*
X1225240Y0226960D02*
X1230440Y0226960D01*
X1230440Y0216960D02*
X1225240Y0216960D01*
X1225240Y0206960D02*
X1230440Y0206960D01*
X1230440Y0196960D02*
X1225240Y0196960D01*
X1225240Y0186960D02*
X1230440Y0186960D01*
X1230440Y0176960D02*
X1225240Y0176960D01*
X1225240Y0166960D02*
X1230440Y0166960D01*
D38*
X1277840Y0101960D03*
X1277840Y0111960D03*
X1277840Y0131960D03*
X1277840Y0141960D03*
X1277840Y0161960D03*
X1277840Y0171960D03*
X1277840Y0191960D03*
X1277840Y0201960D03*
X1277840Y0221960D03*
X1277840Y0231960D03*
X1277840Y0251960D03*
X1277840Y0261960D03*
X1277840Y0281960D03*
X1277840Y0291960D03*
X1277840Y0311960D03*
X1277840Y0321960D03*
X1257840Y0279460D03*
X1257840Y0269460D03*
X1257840Y0259460D03*
X1257840Y0249460D03*
X1227840Y0249460D03*
X1227840Y0259460D03*
X1227840Y0269460D03*
X1227840Y0279460D03*
X1230340Y0151960D03*
X1230340Y0141960D03*
X1230340Y0131960D03*
X1230340Y0121960D03*
X1260340Y0121960D03*
X1260340Y0131960D03*
X1260340Y0141960D03*
X1260340Y0151960D03*
D92*
X1256840Y0112960D02*
X1256840Y0106960D01*
X1266840Y0106960D02*
X1266840Y0112960D01*
X1246840Y0112960D02*
X1246840Y0106960D01*
X1236840Y0106960D02*
X1236840Y0112960D01*
X1226840Y0112960D02*
X1226840Y0106960D01*
X1225840Y0289960D02*
X1225840Y0295960D01*
X1235840Y0295960D02*
X1235840Y0289960D01*
X1245840Y0289960D02*
X1245840Y0295960D01*
X1255840Y0295960D02*
X1255840Y0289960D01*
X1265840Y0289960D02*
X1265840Y0295960D01*
X1067960Y0725970D02*
G75*
%LPD*%
D25*
X1139960Y0753370D02*
X1139960Y0758570D01*
X1149960Y0758570D02*
X1149960Y0753370D01*
X1159960Y0753370D02*
X1159960Y0758570D01*
X1169960Y0758570D02*
X1169960Y0753370D01*
X1179960Y0753370D02*
X1179960Y0758570D01*
X1189960Y0758570D02*
X1189960Y0753370D01*
X1199960Y0753370D02*
X1199960Y0758570D01*
X1209960Y0758570D02*
X1209960Y0753370D01*
X1209960Y0783370D02*
X1209960Y0788570D01*
X1199960Y0788570D02*
X1199960Y0783370D01*
X1189960Y0783370D02*
X1189960Y0788570D01*
X1179960Y0788570D02*
X1179960Y0783370D01*
X1169960Y0783370D02*
X1169960Y0788570D01*
X1159960Y0788570D02*
X1159960Y0783370D01*
X1149960Y0783370D02*
X1149960Y0788570D01*
X1139960Y0788570D02*
X1139960Y0783370D01*
D38*
X1074960Y0735970D03*
X1084960Y0735970D03*
X1104960Y0735970D03*
X1114960Y0735970D03*
X1134960Y0735970D03*
X1144960Y0735970D03*
X1164960Y0735970D03*
X1174960Y0735970D03*
X1194960Y0735970D03*
X1204960Y0735970D03*
X1224960Y0735970D03*
X1234960Y0735970D03*
X1254960Y0735970D03*
X1264960Y0735970D03*
X1284960Y0735970D03*
X1294960Y0735970D03*
X1252460Y0755970D03*
X1242460Y0755970D03*
X1232460Y0755970D03*
X1222460Y0755970D03*
X1222460Y0785970D03*
X1232460Y0785970D03*
X1242460Y0785970D03*
X1252460Y0785970D03*
X1124960Y0783470D03*
X1114960Y0783470D03*
X1104960Y0783470D03*
X1094960Y0783470D03*
X1094960Y0753470D03*
X1104960Y0753470D03*
X1114960Y0753470D03*
X1124960Y0753470D03*
D92*
X1085960Y0756970D02*
X1079960Y0756970D01*
X1079960Y0746970D02*
X1085960Y0746970D01*
X1085960Y0766970D02*
X1079960Y0766970D01*
X1079960Y0776970D02*
X1085960Y0776970D01*
X1085960Y0786970D02*
X1079960Y0786970D01*
X1262960Y0787970D02*
X1268960Y0787970D01*
X1268960Y0777970D02*
X1262960Y0777970D01*
X1262960Y0767970D02*
X1268960Y0767970D01*
X1268960Y0757970D02*
X1262960Y0757970D01*
X1262960Y0747970D02*
X1268960Y0747970D01*
X0661830Y0408130D02*
G75*
%LPD*%
D25*
X0704390Y0480130D02*
X0699190Y0480130D01*
X0699190Y0490130D02*
X0704390Y0490130D01*
X0704390Y0500130D02*
X0699190Y0500130D01*
X0699190Y0510130D02*
X0704390Y0510130D01*
X0704390Y0520130D02*
X0699190Y0520130D01*
X0699190Y0530130D02*
X0704390Y0530130D01*
X0704390Y0540130D02*
X0699190Y0540130D01*
X0699190Y0550130D02*
X0704390Y0550130D01*
X0674390Y0550130D02*
X0669190Y0550130D01*
X0669190Y0540130D02*
X0674390Y0540130D01*
X0674390Y0530130D02*
X0669190Y0530130D01*
X0669190Y0520130D02*
X0674390Y0520130D01*
X0674390Y0510130D02*
X0669190Y0510130D01*
X0669190Y0500130D02*
X0674390Y0500130D01*
X0674390Y0490130D02*
X0669190Y0490130D01*
X0669190Y0480130D02*
X0674390Y0480130D01*
D38*
X0721790Y0415130D03*
X0721790Y0425130D03*
X0721790Y0445130D03*
X0721790Y0455130D03*
X0721790Y0475130D03*
X0721790Y0485130D03*
X0721790Y0505130D03*
X0721790Y0515130D03*
X0721790Y0535130D03*
X0721790Y0545130D03*
X0721790Y0565130D03*
X0721790Y0575130D03*
X0721790Y0595130D03*
X0721790Y0605130D03*
X0721790Y0625130D03*
X0721790Y0635130D03*
X0701790Y0592630D03*
X0701790Y0582630D03*
X0701790Y0572630D03*
X0701790Y0562630D03*
X0671790Y0562630D03*
X0671790Y0572630D03*
X0671790Y0582630D03*
X0671790Y0592630D03*
X0674290Y0465130D03*
X0674290Y0455130D03*
X0674290Y0445130D03*
X0674290Y0435130D03*
X0704290Y0435130D03*
X0704290Y0445130D03*
X0704290Y0455130D03*
X0704290Y0465130D03*
D92*
X0700790Y0426130D02*
X0700790Y0420130D01*
X0710790Y0420130D02*
X0710790Y0426130D01*
X0690790Y0426130D02*
X0690790Y0420130D01*
X0680790Y0420130D02*
X0680790Y0426130D01*
X0670790Y0426130D02*
X0670790Y0420130D01*
X0669790Y0603130D02*
X0669790Y0609130D01*
X0679790Y0609130D02*
X0679790Y0603130D01*
X0689790Y0603130D02*
X0689790Y0609130D01*
X0699790Y0609130D02*
X0699790Y0603130D01*
X0709790Y0603130D02*
X0709790Y0609130D01*
X0736790Y0482610D02*
G75*
%LPD*%
D25*
X0779350Y0554610D02*
X0774150Y0554610D01*
X0774150Y0564610D02*
X0779350Y0564610D01*
X0779350Y0574610D02*
X0774150Y0574610D01*
X0774150Y0584610D02*
X0779350Y0584610D01*
X0779350Y0594610D02*
X0774150Y0594610D01*
X0774150Y0604610D02*
X0779350Y0604610D01*
X0779350Y0614610D02*
X0774150Y0614610D01*
X0774150Y0624610D02*
X0779350Y0624610D01*
X0749350Y0624610D02*
X0744150Y0624610D01*
X0744150Y0614610D02*
X0749350Y0614610D01*
X0749350Y0604610D02*
X0744150Y0604610D01*
X0744150Y0594610D02*
X0749350Y0594610D01*
X0749350Y0584610D02*
X0744150Y0584610D01*
X0744150Y0574610D02*
X0749350Y0574610D01*
X0749350Y0564610D02*
X0744150Y0564610D01*
X0744150Y0554610D02*
X0749350Y0554610D01*
D38*
X0796750Y0489610D03*
X0796750Y0499610D03*
X0796750Y0519610D03*
X0796750Y0529610D03*
X0796750Y0549610D03*
X0796750Y0559610D03*
X0796750Y0579610D03*
X0796750Y0589610D03*
X0796750Y0609610D03*
X0796750Y0619610D03*
X0796750Y0639610D03*
X0796750Y0649610D03*
X0796750Y0669610D03*
X0796750Y0679610D03*
X0796750Y0699610D03*
X0796750Y0709610D03*
X0776750Y0667110D03*
X0776750Y0657110D03*
X0776750Y0647110D03*
X0776750Y0637110D03*
X0746750Y0637110D03*
X0746750Y0647110D03*
X0746750Y0657110D03*
X0746750Y0667110D03*
X0749250Y0539610D03*
X0749250Y0529610D03*
X0749250Y0519610D03*
X0749250Y0509610D03*
X0779250Y0509610D03*
X0779250Y0519610D03*
X0779250Y0529610D03*
X0779250Y0539610D03*
D92*
X0775750Y0500610D02*
X0775750Y0494610D01*
X0785750Y0494610D02*
X0785750Y0500610D01*
X0765750Y0500610D02*
X0765750Y0494610D01*
X0755750Y0494610D02*
X0755750Y0500610D01*
X0745750Y0500610D02*
X0745750Y0494610D01*
X0744750Y0677610D02*
X0744750Y0683610D01*
X0754750Y0683610D02*
X0754750Y0677610D01*
X0764750Y0677610D02*
X0764750Y0683610D01*
X0774750Y0683610D02*
X0774750Y0677610D01*
X0784750Y0677610D02*
X0784750Y0683610D01*
M02*
