G75*
G70*
%OFA0B0*%
%FSLAX25Y25*%
%IPPOS*%
%LPD*%
%AMOC8*
5,1,8,0,0,1.08239X$1,22.5*
%
%ADD34R,0.06200X0.02400*%
%ADD56C,0.00400*%
%ADD78C,0.00600*%
%ADD80C,0.00800*%
%ADD95R,0.02400X0.06200*%
X0020000Y0020000D02*
G75*
%LPD*%
D78*
X0030790Y0110600D02*
X0024390Y0110600D01*
X0024390Y0107390D01*
X0025450Y0106330D01*
X0027590Y0106330D01*
X0028660Y0107390D01*
X0028660Y0110600D01*
X0028660Y0112770D02*
X0028660Y0115980D01*
X0027590Y0117040D01*
X0026520Y0115980D01*
X0026520Y0112770D01*
X0025450Y0112770D02*
X0028660Y0112770D01*
X0028660Y0119200D02*
X0027590Y0120270D01*
X0023320Y0120270D01*
X0024390Y0121340D02*
X0024390Y0119200D01*
X0024390Y0115980D02*
X0024390Y0113840D01*
X0025450Y0112770D01*
X0025450Y0104150D02*
X0027590Y0104150D01*
X0028660Y0103080D01*
X0028660Y0100950D01*
X0026520Y0099880D02*
X0026520Y0104150D01*
X0025450Y0104150D02*
X0024390Y0103080D01*
X0024390Y0100950D01*
X0025450Y0099880D01*
X0026520Y0099880D01*
X0025450Y0123510D02*
X0025450Y0127780D01*
X0024390Y0129960D02*
X0028660Y0134230D01*
X0028660Y0136390D02*
X0028660Y0138530D01*
X0028660Y0137460D02*
X0024390Y0137460D01*
X0024390Y0138530D01*
X0024390Y0140700D02*
X0024390Y0141760D01*
X0026520Y0143900D01*
X0025450Y0146070D02*
X0028660Y0146070D01*
X0028660Y0143900D02*
X0024390Y0143900D01*
X0025450Y0146070D02*
X0024390Y0147140D01*
X0024390Y0149280D01*
X0025450Y0150340D01*
X0024390Y0152500D02*
X0024390Y0154640D01*
X0023320Y0153570D02*
X0027590Y0153570D01*
X0028660Y0152500D01*
X0028660Y0150340D02*
X0022250Y0150340D01*
X0022250Y0137460D02*
X0021180Y0137460D01*
X0024390Y0134230D02*
X0028660Y0129960D01*
X0020000Y0258210D02*
G75*
%LPD*%
D78*
X0030790Y0348810D02*
X0024390Y0348810D01*
X0024390Y0345600D01*
X0025450Y0344540D01*
X0027590Y0344540D01*
X0028660Y0345600D01*
X0028660Y0348810D01*
X0028660Y0350980D02*
X0028660Y0354190D01*
X0027590Y0355250D01*
X0026520Y0354190D01*
X0026520Y0350980D01*
X0025450Y0350980D02*
X0028660Y0350980D01*
X0028660Y0357410D02*
X0027590Y0358480D01*
X0023320Y0358480D01*
X0024390Y0359550D02*
X0024390Y0357410D01*
X0024390Y0354190D02*
X0024390Y0352050D01*
X0025450Y0350980D01*
X0025450Y0342360D02*
X0027590Y0342360D01*
X0028660Y0341290D01*
X0028660Y0339160D01*
X0026520Y0338090D02*
X0026520Y0342360D01*
X0025450Y0342360D02*
X0024390Y0341290D01*
X0024390Y0339160D01*
X0025450Y0338090D01*
X0026520Y0338090D01*
X0025450Y0361720D02*
X0025450Y0365990D01*
X0024390Y0368170D02*
X0028660Y0372440D01*
X0028660Y0374600D02*
X0028660Y0376740D01*
X0028660Y0375670D02*
X0024390Y0375670D01*
X0024390Y0376740D01*
X0024390Y0378910D02*
X0024390Y0379970D01*
X0026520Y0382110D01*
X0025450Y0384280D02*
X0028660Y0384280D01*
X0028660Y0382110D02*
X0024390Y0382110D01*
X0025450Y0384280D02*
X0024390Y0385350D01*
X0024390Y0387490D01*
X0025450Y0388550D01*
X0024390Y0390710D02*
X0024390Y0392850D01*
X0023320Y0391780D02*
X0027590Y0391780D01*
X0028660Y0390710D01*
X0028660Y0388550D02*
X0022250Y0388550D01*
X0022250Y0375670D02*
X0021180Y0375670D01*
X0024390Y0372440D02*
X0028660Y0368170D01*
X0100960Y0020000D02*
G75*
%LPD*%
D56*
X0263650Y0123720D02*
X0266710Y0126790D01*
X0267480Y0126790D01*
X0267480Y0128330D02*
X0267480Y0131400D01*
X0267480Y0129860D02*
X0262880Y0129860D01*
X0264410Y0131400D01*
X0263650Y0132930D02*
X0262880Y0133700D01*
X0262880Y0135230D01*
X0263650Y0136000D01*
X0266710Y0136000D01*
X0267480Y0135230D01*
X0267480Y0133700D01*
X0266710Y0132930D01*
X0262880Y0126790D02*
X0262880Y0123720D01*
X0263650Y0123720D01*
X0255810Y0244100D02*
X0255810Y0247170D01*
X0255810Y0245640D02*
X0251210Y0245640D01*
X0252740Y0247170D01*
X0251210Y0250240D02*
X0255810Y0250240D01*
X0255810Y0248710D02*
X0255810Y0251780D01*
X0255050Y0253310D02*
X0255810Y0254080D01*
X0255810Y0255610D01*
X0255050Y0256380D01*
X0251980Y0256380D01*
X0251210Y0255610D01*
X0251210Y0254080D01*
X0251980Y0253310D01*
X0252740Y0251780D02*
X0251210Y0250240D01*
X0165680Y0122610D02*
X0161080Y0122610D01*
X0161080Y0120310D01*
X0161850Y0119540D01*
X0163380Y0119540D01*
X0164150Y0120310D01*
X0164150Y0122610D01*
X0164150Y0121070D02*
X0165680Y0119540D01*
X0164910Y0118000D02*
X0165680Y0117240D01*
X0165680Y0115700D01*
X0164910Y0114940D01*
X0164150Y0114940D01*
X0163380Y0115700D01*
X0163380Y0118000D01*
X0164910Y0118000D01*
X0163380Y0118000D02*
X0161850Y0116470D01*
X0161080Y0114940D01*
X0151180Y0115240D02*
X0150410Y0116000D01*
X0151180Y0115240D02*
X0151180Y0113700D01*
X0150410Y0112940D01*
X0149650Y0112940D01*
X0148880Y0113700D01*
X0148880Y0114470D01*
X0148880Y0113700D02*
X0148110Y0112940D01*
X0147350Y0112940D01*
X0146580Y0113700D01*
X0146580Y0115240D01*
X0147350Y0116000D01*
X0146580Y0119070D02*
X0151180Y0119070D01*
X0151180Y0117540D02*
X0151180Y0120610D01*
X0151180Y0122140D02*
X0149650Y0123680D01*
X0149650Y0122910D02*
X0149650Y0125210D01*
X0151180Y0125210D02*
X0146580Y0125210D01*
X0146580Y0122910D01*
X0147350Y0122140D01*
X0148880Y0122140D01*
X0149650Y0122910D01*
X0148110Y0120610D02*
X0146580Y0119070D01*
X0145690Y0070000D02*
X0143390Y0070000D01*
X0142620Y0069240D01*
X0142620Y0066170D01*
X0143390Y0065400D01*
X0145690Y0065400D01*
X0145690Y0070000D01*
X0141090Y0069240D02*
X0140320Y0070000D01*
X0138780Y0070000D01*
X0138020Y0069240D01*
X0138020Y0068470D01*
X0138780Y0067700D01*
X0138020Y0066930D01*
X0138020Y0066170D01*
X0138780Y0065400D01*
X0140320Y0065400D01*
X0141090Y0066170D01*
X0139550Y0067700D02*
X0138780Y0067700D01*
X0110480Y0065400D02*
X0108180Y0065400D01*
X0107410Y0066170D01*
X0107410Y0069240D01*
X0108180Y0070000D01*
X0110480Y0070000D01*
X0110480Y0065400D01*
X0105880Y0065400D02*
X0102810Y0068470D01*
X0102810Y0069240D01*
X0103580Y0070000D01*
X0105110Y0070000D01*
X0105880Y0069240D01*
X0105880Y0065400D02*
X0102810Y0065400D01*
X0109380Y0028000D02*
X0113980Y0028000D01*
X0112450Y0028000D02*
X0112450Y0025700D01*
X0111680Y0024930D01*
X0110150Y0024930D01*
X0109380Y0025700D01*
X0109380Y0028000D01*
X0112450Y0026470D02*
X0113980Y0024930D01*
X0113210Y0023400D02*
X0113980Y0022630D01*
X0113980Y0021100D01*
X0113210Y0020330D01*
X0111680Y0020330D01*
X0110910Y0021100D01*
X0110910Y0021860D01*
X0111680Y0023400D01*
X0109380Y0023400D01*
X0109380Y0020330D01*
D95*
X0113880Y0060700D03*
X0134480Y0060700D03*
D80*
X0135210Y0060700D02*
X0139150Y0063060D01*
X0139150Y0058340D01*
X0135210Y0060700D01*
X0113150Y0060700D02*
X0109210Y0058340D01*
X0109210Y0063060D01*
X0113150Y0060700D01*
X0020000Y0496420D02*
G75*
%LPD*%
D78*
X0030790Y0587020D02*
X0024390Y0587020D01*
X0024390Y0583810D01*
X0025450Y0582750D01*
X0027590Y0582750D01*
X0028660Y0583810D01*
X0028660Y0587020D01*
X0028660Y0589190D02*
X0028660Y0592400D01*
X0027590Y0593460D01*
X0026520Y0592400D01*
X0026520Y0589190D01*
X0025450Y0589190D02*
X0028660Y0589190D01*
X0028660Y0595620D02*
X0027590Y0596690D01*
X0023320Y0596690D01*
X0024390Y0597760D02*
X0024390Y0595620D01*
X0024390Y0592400D02*
X0024390Y0590260D01*
X0025450Y0589190D01*
X0025450Y0580570D02*
X0027590Y0580570D01*
X0028660Y0579500D01*
X0028660Y0577370D01*
X0026520Y0576300D02*
X0026520Y0580570D01*
X0025450Y0580570D02*
X0024390Y0579500D01*
X0024390Y0577370D01*
X0025450Y0576300D01*
X0026520Y0576300D01*
X0025450Y0599930D02*
X0025450Y0604200D01*
X0024390Y0606380D02*
X0028660Y0610650D01*
X0028660Y0612810D02*
X0028660Y0614950D01*
X0028660Y0613880D02*
X0024390Y0613880D01*
X0024390Y0614950D01*
X0024390Y0617120D02*
X0024390Y0618180D01*
X0026520Y0620320D01*
X0025450Y0622490D02*
X0028660Y0622490D01*
X0028660Y0620320D02*
X0024390Y0620320D01*
X0025450Y0622490D02*
X0024390Y0623560D01*
X0024390Y0625700D01*
X0025450Y0626760D01*
X0024390Y0628920D02*
X0024390Y0631060D01*
X0023320Y0629990D02*
X0027590Y0629990D01*
X0028660Y0628920D01*
X0028660Y0626760D02*
X0022250Y0626760D01*
X0022250Y0613880D02*
X0021180Y0613880D01*
X0024390Y0610650D02*
X0028660Y0606380D01*
X0325360Y0020000D02*
G75*
%LPD*%
D78*
X0415960Y0085170D02*
X0415960Y0091570D01*
X0412750Y0091570D01*
X0411690Y0090510D01*
X0411690Y0088370D01*
X0412750Y0087300D01*
X0415960Y0087300D01*
X0418130Y0087300D02*
X0421340Y0087300D01*
X0422400Y0088370D01*
X0421340Y0089440D01*
X0418130Y0089440D01*
X0418130Y0090510D02*
X0418130Y0087300D01*
X0424560Y0087300D02*
X0425630Y0088370D01*
X0425630Y0092640D01*
X0426700Y0091570D02*
X0424560Y0091570D01*
X0421340Y0091570D02*
X0419200Y0091570D01*
X0418130Y0090510D01*
X0409510Y0090510D02*
X0409510Y0088370D01*
X0408440Y0087300D01*
X0406310Y0087300D01*
X0405240Y0089440D02*
X0409510Y0089440D01*
X0409510Y0090510D02*
X0408440Y0091570D01*
X0406310Y0091570D01*
X0405240Y0090510D01*
X0405240Y0089440D01*
X0428870Y0090510D02*
X0433140Y0090510D01*
X0435320Y0091570D02*
X0439590Y0087300D01*
X0441750Y0087300D02*
X0443890Y0087300D01*
X0442820Y0087300D02*
X0442820Y0091570D01*
X0443890Y0091570D01*
X0446060Y0091570D02*
X0447120Y0091570D01*
X0449260Y0089440D01*
X0451430Y0090510D02*
X0451430Y0087300D01*
X0449260Y0087300D02*
X0449260Y0091570D01*
X0451430Y0090510D02*
X0452500Y0091570D01*
X0454640Y0091570D01*
X0455700Y0090510D01*
X0457860Y0091570D02*
X0460000Y0091570D01*
X0458930Y0092640D02*
X0458930Y0088370D01*
X0457860Y0087300D01*
X0455700Y0087300D02*
X0455700Y0093710D01*
X0442820Y0093710D02*
X0442820Y0094780D01*
X0439590Y0091570D02*
X0435320Y0087300D01*
X0325360Y0100960D02*
G75*
%LPD*%
D78*
X0415960Y0166130D02*
X0415960Y0172530D01*
X0412750Y0172530D01*
X0411690Y0171470D01*
X0411690Y0169330D01*
X0412750Y0168260D01*
X0415960Y0168260D01*
X0418130Y0168260D02*
X0421340Y0168260D01*
X0422400Y0169330D01*
X0421340Y0170400D01*
X0418130Y0170400D01*
X0418130Y0171470D02*
X0418130Y0168260D01*
X0424560Y0168260D02*
X0425630Y0169330D01*
X0425630Y0173600D01*
X0426700Y0172530D02*
X0424560Y0172530D01*
X0421340Y0172530D02*
X0419200Y0172530D01*
X0418130Y0171470D01*
X0409510Y0171470D02*
X0409510Y0169330D01*
X0408440Y0168260D01*
X0406310Y0168260D01*
X0405240Y0170400D02*
X0409510Y0170400D01*
X0409510Y0171470D02*
X0408440Y0172530D01*
X0406310Y0172530D01*
X0405240Y0171470D01*
X0405240Y0170400D01*
X0428870Y0171470D02*
X0433140Y0171470D01*
X0435320Y0172530D02*
X0439590Y0168260D01*
X0441750Y0168260D02*
X0443890Y0168260D01*
X0442820Y0168260D02*
X0442820Y0172530D01*
X0443890Y0172530D01*
X0446060Y0172530D02*
X0447120Y0172530D01*
X0449260Y0170400D01*
X0451430Y0171470D02*
X0451430Y0168260D01*
X0449260Y0168260D02*
X0449260Y0172530D01*
X0451430Y0171470D02*
X0452500Y0172530D01*
X0454640Y0172530D01*
X0455700Y0171470D01*
X0457860Y0172530D02*
X0460000Y0172530D01*
X0458930Y0173600D02*
X0458930Y0169330D01*
X0457860Y0168260D01*
X0455700Y0168260D02*
X0455700Y0174670D01*
X0442820Y0174670D02*
X0442820Y0175740D01*
X0439590Y0172530D02*
X0435320Y0168260D01*
X0563570Y0020000D02*
G75*
%LPD*%
D78*
X0574360Y0110600D02*
X0567960Y0110600D01*
X0567960Y0107390D01*
X0569020Y0106330D01*
X0571160Y0106330D01*
X0572230Y0107390D01*
X0572230Y0110600D01*
X0572230Y0112770D02*
X0572230Y0115980D01*
X0571160Y0117040D01*
X0570090Y0115980D01*
X0570090Y0112770D01*
X0569020Y0112770D02*
X0572230Y0112770D01*
X0572230Y0119200D02*
X0571160Y0120270D01*
X0566890Y0120270D01*
X0567960Y0121340D02*
X0567960Y0119200D01*
X0567960Y0115980D02*
X0567960Y0113840D01*
X0569020Y0112770D01*
X0569020Y0104150D02*
X0571160Y0104150D01*
X0572230Y0103080D01*
X0572230Y0100950D01*
X0570090Y0099880D02*
X0570090Y0104150D01*
X0569020Y0104150D02*
X0567960Y0103080D01*
X0567960Y0100950D01*
X0569020Y0099880D01*
X0570090Y0099880D01*
X0569020Y0123510D02*
X0569020Y0127780D01*
X0567960Y0129960D02*
X0572230Y0134230D01*
X0572230Y0136390D02*
X0572230Y0138530D01*
X0572230Y0137460D02*
X0567960Y0137460D01*
X0567960Y0138530D01*
X0567960Y0140700D02*
X0567960Y0141760D01*
X0570090Y0143900D01*
X0569020Y0146070D02*
X0572230Y0146070D01*
X0572230Y0143900D02*
X0567960Y0143900D01*
X0569020Y0146070D02*
X0567960Y0147140D01*
X0567960Y0149280D01*
X0569020Y0150340D01*
X0567960Y0152500D02*
X0567960Y0154640D01*
X0566890Y0153570D02*
X0571160Y0153570D01*
X0572230Y0152500D01*
X0572230Y0150340D02*
X0565820Y0150340D01*
X0565820Y0137460D02*
X0564750Y0137460D01*
X0567960Y0134230D02*
X0572230Y0129960D01*
X0325360Y0181920D02*
G75*
%LPD*%
D78*
X0415960Y0247090D02*
X0415960Y0253490D01*
X0412750Y0253490D01*
X0411690Y0252430D01*
X0411690Y0250290D01*
X0412750Y0249220D01*
X0415960Y0249220D01*
X0418130Y0249220D02*
X0421340Y0249220D01*
X0422400Y0250290D01*
X0421340Y0251360D01*
X0418130Y0251360D01*
X0418130Y0252430D02*
X0418130Y0249220D01*
X0424560Y0249220D02*
X0425630Y0250290D01*
X0425630Y0254560D01*
X0426700Y0253490D02*
X0424560Y0253490D01*
X0421340Y0253490D02*
X0419200Y0253490D01*
X0418130Y0252430D01*
X0409510Y0252430D02*
X0409510Y0250290D01*
X0408440Y0249220D01*
X0406310Y0249220D01*
X0405240Y0251360D02*
X0409510Y0251360D01*
X0409510Y0252430D02*
X0408440Y0253490D01*
X0406310Y0253490D01*
X0405240Y0252430D01*
X0405240Y0251360D01*
X0428870Y0252430D02*
X0433140Y0252430D01*
X0435320Y0253490D02*
X0439590Y0249220D01*
X0441750Y0249220D02*
X0443890Y0249220D01*
X0442820Y0249220D02*
X0442820Y0253490D01*
X0443890Y0253490D01*
X0446060Y0253490D02*
X0447120Y0253490D01*
X0449260Y0251360D01*
X0451430Y0252430D02*
X0451430Y0249220D01*
X0449260Y0249220D02*
X0449260Y0253490D01*
X0451430Y0252430D02*
X0452500Y0253490D01*
X0454640Y0253490D01*
X0455700Y0252430D01*
X0457860Y0253490D02*
X0460000Y0253490D01*
X0458930Y0254560D02*
X0458930Y0250290D01*
X0457860Y0249220D01*
X0455700Y0249220D02*
X0455700Y0255630D01*
X0442820Y0255630D02*
X0442820Y0256700D01*
X0439590Y0253490D02*
X0435320Y0249220D01*
X0325360Y0262880D02*
G75*
%LPD*%
D78*
X0415960Y0328050D02*
X0415960Y0334450D01*
X0412750Y0334450D01*
X0411690Y0333390D01*
X0411690Y0331250D01*
X0412750Y0330180D01*
X0415960Y0330180D01*
X0418130Y0330180D02*
X0421340Y0330180D01*
X0422400Y0331250D01*
X0421340Y0332320D01*
X0418130Y0332320D01*
X0418130Y0333390D02*
X0418130Y0330180D01*
X0424560Y0330180D02*
X0425630Y0331250D01*
X0425630Y0335520D01*
X0426700Y0334450D02*
X0424560Y0334450D01*
X0421340Y0334450D02*
X0419200Y0334450D01*
X0418130Y0333390D01*
X0409510Y0333390D02*
X0409510Y0331250D01*
X0408440Y0330180D01*
X0406310Y0330180D01*
X0405240Y0332320D02*
X0409510Y0332320D01*
X0409510Y0333390D02*
X0408440Y0334450D01*
X0406310Y0334450D01*
X0405240Y0333390D01*
X0405240Y0332320D01*
X0428870Y0333390D02*
X0433140Y0333390D01*
X0435320Y0334450D02*
X0439590Y0330180D01*
X0441750Y0330180D02*
X0443890Y0330180D01*
X0442820Y0330180D02*
X0442820Y0334450D01*
X0443890Y0334450D01*
X0446060Y0334450D02*
X0447120Y0334450D01*
X0449260Y0332320D01*
X0451430Y0333390D02*
X0451430Y0330180D01*
X0449260Y0330180D02*
X0449260Y0334450D01*
X0451430Y0333390D02*
X0452500Y0334450D01*
X0454640Y0334450D01*
X0455700Y0333390D01*
X0457860Y0334450D02*
X0460000Y0334450D01*
X0458930Y0335520D02*
X0458930Y0331250D01*
X0457860Y0330180D01*
X0455700Y0330180D02*
X0455700Y0336590D01*
X0442820Y0336590D02*
X0442820Y0337660D01*
X0439590Y0334450D02*
X0435320Y0330180D01*
X0100960Y0337840D02*
G75*
%LPD*%
D78*
X0111750Y0428440D02*
X0105350Y0428440D01*
X0105350Y0425230D01*
X0106410Y0424170D01*
X0108550Y0424170D01*
X0109620Y0425230D01*
X0109620Y0428440D01*
X0109620Y0430610D02*
X0109620Y0433820D01*
X0108550Y0434880D01*
X0107480Y0433820D01*
X0107480Y0430610D01*
X0106410Y0430610D02*
X0109620Y0430610D01*
X0109620Y0437040D02*
X0108550Y0438110D01*
X0104280Y0438110D01*
X0105350Y0439180D02*
X0105350Y0437040D01*
X0105350Y0433820D02*
X0105350Y0431680D01*
X0106410Y0430610D01*
X0106410Y0421990D02*
X0108550Y0421990D01*
X0109620Y0420920D01*
X0109620Y0418790D01*
X0107480Y0417720D02*
X0107480Y0421990D01*
X0106410Y0421990D02*
X0105350Y0420920D01*
X0105350Y0418790D01*
X0106410Y0417720D01*
X0107480Y0417720D01*
X0106410Y0441350D02*
X0106410Y0445620D01*
X0105350Y0447800D02*
X0109620Y0452070D01*
X0109620Y0454230D02*
X0109620Y0456370D01*
X0109620Y0455300D02*
X0105350Y0455300D01*
X0105350Y0456370D01*
X0105350Y0458540D02*
X0105350Y0459600D01*
X0107480Y0461740D01*
X0106410Y0463910D02*
X0109620Y0463910D01*
X0109620Y0461740D02*
X0105350Y0461740D01*
X0106410Y0463910D02*
X0105350Y0464980D01*
X0105350Y0467120D01*
X0106410Y0468180D01*
X0105350Y0470340D02*
X0105350Y0472480D01*
X0104280Y0471410D02*
X0108550Y0471410D01*
X0109620Y0470340D01*
X0109620Y0468180D02*
X0103210Y0468180D01*
X0103210Y0455300D02*
X0102140Y0455300D01*
X0105350Y0452070D02*
X0109620Y0447800D01*
X0181920Y0337840D02*
G75*
%LPD*%
D78*
X0192710Y0428440D02*
X0186310Y0428440D01*
X0186310Y0425230D01*
X0187370Y0424170D01*
X0189510Y0424170D01*
X0190580Y0425230D01*
X0190580Y0428440D01*
X0190580Y0430610D02*
X0190580Y0433820D01*
X0189510Y0434880D01*
X0188440Y0433820D01*
X0188440Y0430610D01*
X0187370Y0430610D02*
X0190580Y0430610D01*
X0190580Y0437040D02*
X0189510Y0438110D01*
X0185240Y0438110D01*
X0186310Y0439180D02*
X0186310Y0437040D01*
X0186310Y0433820D02*
X0186310Y0431680D01*
X0187370Y0430610D01*
X0187370Y0421990D02*
X0189510Y0421990D01*
X0190580Y0420920D01*
X0190580Y0418790D01*
X0188440Y0417720D02*
X0188440Y0421990D01*
X0187370Y0421990D02*
X0186310Y0420920D01*
X0186310Y0418790D01*
X0187370Y0417720D01*
X0188440Y0417720D01*
X0187370Y0441350D02*
X0187370Y0445620D01*
X0186310Y0447800D02*
X0190580Y0452070D01*
X0190580Y0454230D02*
X0190580Y0456370D01*
X0190580Y0455300D02*
X0186310Y0455300D01*
X0186310Y0456370D01*
X0186310Y0458540D02*
X0186310Y0459600D01*
X0188440Y0461740D01*
X0187370Y0463910D02*
X0190580Y0463910D01*
X0190580Y0461740D02*
X0186310Y0461740D01*
X0187370Y0463910D02*
X0186310Y0464980D01*
X0186310Y0467120D01*
X0187370Y0468180D01*
X0186310Y0470340D02*
X0186310Y0472480D01*
X0185240Y0471410D02*
X0189510Y0471410D01*
X0190580Y0470340D01*
X0190580Y0468180D02*
X0184170Y0468180D01*
X0184170Y0455300D02*
X0183100Y0455300D01*
X0186310Y0452070D02*
X0190580Y0447800D01*
X0100960Y0576050D02*
G75*
%LPD*%
D78*
X0191560Y0641220D02*
X0191560Y0647620D01*
X0188350Y0647620D01*
X0187290Y0646560D01*
X0187290Y0644420D01*
X0188350Y0643350D01*
X0191560Y0643350D01*
X0193730Y0643350D02*
X0196940Y0643350D01*
X0198000Y0644420D01*
X0196940Y0645490D01*
X0193730Y0645490D01*
X0193730Y0646560D02*
X0193730Y0643350D01*
X0200160Y0643350D02*
X0201230Y0644420D01*
X0201230Y0648690D01*
X0202300Y0647620D02*
X0200160Y0647620D01*
X0196940Y0647620D02*
X0194800Y0647620D01*
X0193730Y0646560D01*
X0185110Y0646560D02*
X0185110Y0644420D01*
X0184040Y0643350D01*
X0181910Y0643350D01*
X0180840Y0645490D02*
X0185110Y0645490D01*
X0185110Y0646560D02*
X0184040Y0647620D01*
X0181910Y0647620D01*
X0180840Y0646560D01*
X0180840Y0645490D01*
X0204470Y0646560D02*
X0208740Y0646560D01*
X0210920Y0647620D02*
X0215190Y0643350D01*
X0217350Y0643350D02*
X0219490Y0643350D01*
X0218420Y0643350D02*
X0218420Y0647620D01*
X0219490Y0647620D01*
X0221660Y0647620D02*
X0222720Y0647620D01*
X0224860Y0645490D01*
X0227030Y0646560D02*
X0227030Y0643350D01*
X0224860Y0643350D02*
X0224860Y0647620D01*
X0227030Y0646560D02*
X0228100Y0647620D01*
X0230240Y0647620D01*
X0231300Y0646560D01*
X0233460Y0647620D02*
X0235600Y0647620D01*
X0234530Y0648690D02*
X0234530Y0644420D01*
X0233460Y0643350D01*
X0231300Y0643350D02*
X0231300Y0649760D01*
X0218420Y0649760D02*
X0218420Y0650830D01*
X0215190Y0647620D02*
X0210920Y0643350D01*
X0563570Y0258210D02*
G75*
%LPD*%
D78*
X0654170Y0323380D02*
X0654170Y0329780D01*
X0650960Y0329780D01*
X0649900Y0328720D01*
X0649900Y0326580D01*
X0650960Y0325510D01*
X0654170Y0325510D01*
X0656340Y0325510D02*
X0659550Y0325510D01*
X0660610Y0326580D01*
X0659550Y0327650D01*
X0656340Y0327650D01*
X0656340Y0328720D02*
X0656340Y0325510D01*
X0662770Y0325510D02*
X0663840Y0326580D01*
X0663840Y0330850D01*
X0664910Y0329780D02*
X0662770Y0329780D01*
X0659550Y0329780D02*
X0657410Y0329780D01*
X0656340Y0328720D01*
X0647720Y0328720D02*
X0647720Y0326580D01*
X0646650Y0325510D01*
X0644520Y0325510D01*
X0643450Y0327650D02*
X0647720Y0327650D01*
X0647720Y0328720D02*
X0646650Y0329780D01*
X0644520Y0329780D01*
X0643450Y0328720D01*
X0643450Y0327650D01*
X0667080Y0328720D02*
X0671350Y0328720D01*
X0673530Y0329780D02*
X0677800Y0325510D01*
X0679960Y0325510D02*
X0682100Y0325510D01*
X0681030Y0325510D02*
X0681030Y0329780D01*
X0682100Y0329780D01*
X0684270Y0329780D02*
X0685330Y0329780D01*
X0687470Y0327650D01*
X0689640Y0328720D02*
X0689640Y0325510D01*
X0687470Y0325510D02*
X0687470Y0329780D01*
X0689640Y0328720D02*
X0690710Y0329780D01*
X0692850Y0329780D01*
X0693910Y0328720D01*
X0696070Y0329780D02*
X0698210Y0329780D01*
X0697140Y0330850D02*
X0697140Y0326580D01*
X0696070Y0325510D01*
X0693910Y0325510D02*
X0693910Y0331920D01*
X0681030Y0331920D02*
X0681030Y0332990D01*
X0677800Y0329780D02*
X0673530Y0325510D01*
X0262880Y0343840D02*
G75*
%LPD*%
D56*
X0366600Y0400550D02*
X0369670Y0397490D01*
X0369670Y0396720D01*
X0371210Y0396720D02*
X0374280Y0396720D01*
X0372740Y0396720D02*
X0372740Y0401320D01*
X0374280Y0399790D01*
X0375810Y0400550D02*
X0376580Y0401320D01*
X0378110Y0401320D01*
X0378880Y0400550D01*
X0378880Y0397490D01*
X0378110Y0396720D01*
X0376580Y0396720D01*
X0375810Y0397490D01*
X0369670Y0401320D02*
X0366600Y0401320D01*
X0366600Y0400550D01*
X0486980Y0408390D02*
X0490050Y0408390D01*
X0488520Y0408390D02*
X0488520Y0412990D01*
X0490050Y0411460D01*
X0493120Y0412990D02*
X0493120Y0408390D01*
X0491590Y0408390D02*
X0494660Y0408390D01*
X0496190Y0409150D02*
X0496960Y0408390D01*
X0498490Y0408390D01*
X0499260Y0409150D01*
X0499260Y0412220D01*
X0498490Y0412990D01*
X0496960Y0412990D01*
X0496190Y0412220D01*
X0494660Y0411460D02*
X0493120Y0412990D01*
X0365490Y0498520D02*
X0365490Y0503120D01*
X0363190Y0503120D01*
X0362420Y0502350D01*
X0362420Y0500820D01*
X0363190Y0500050D01*
X0365490Y0500050D01*
X0363950Y0500050D02*
X0362420Y0498520D01*
X0360880Y0499290D02*
X0360120Y0498520D01*
X0358580Y0498520D01*
X0357820Y0499290D01*
X0357820Y0500050D01*
X0358580Y0500820D01*
X0360880Y0500820D01*
X0360880Y0499290D01*
X0360880Y0500820D02*
X0359350Y0502350D01*
X0357820Y0503120D01*
X0358120Y0513020D02*
X0358880Y0513790D01*
X0358120Y0513020D02*
X0356580Y0513020D01*
X0355820Y0513790D01*
X0355820Y0514550D01*
X0356580Y0515320D01*
X0357350Y0515320D01*
X0356580Y0515320D02*
X0355820Y0516090D01*
X0355820Y0516850D01*
X0356580Y0517620D01*
X0358120Y0517620D01*
X0358880Y0516850D01*
X0361950Y0517620D02*
X0361950Y0513020D01*
X0360420Y0513020D02*
X0363490Y0513020D01*
X0365020Y0513020D02*
X0366560Y0514550D01*
X0365790Y0514550D02*
X0368090Y0514550D01*
X0368090Y0513020D02*
X0368090Y0517620D01*
X0365790Y0517620D01*
X0365020Y0516850D01*
X0365020Y0515320D01*
X0365790Y0514550D01*
X0363490Y0516090D02*
X0361950Y0517620D01*
X0312880Y0518510D02*
X0312880Y0520810D01*
X0312120Y0521580D01*
X0309050Y0521580D01*
X0308280Y0520810D01*
X0308280Y0518510D01*
X0312880Y0518510D01*
X0312120Y0523110D02*
X0312880Y0523880D01*
X0312880Y0525420D01*
X0312120Y0526180D01*
X0311350Y0526180D01*
X0310580Y0525420D01*
X0309810Y0526180D01*
X0309050Y0526180D01*
X0308280Y0525420D01*
X0308280Y0523880D01*
X0309050Y0523110D01*
X0310580Y0524650D02*
X0310580Y0525420D01*
X0308280Y0553720D02*
X0308280Y0556020D01*
X0309050Y0556790D01*
X0312120Y0556790D01*
X0312880Y0556020D01*
X0312880Y0553720D01*
X0308280Y0553720D01*
X0308280Y0558320D02*
X0311350Y0561390D01*
X0312120Y0561390D01*
X0312880Y0560620D01*
X0312880Y0559090D01*
X0312120Y0558320D01*
X0308280Y0558320D02*
X0308280Y0561390D01*
X0270880Y0554820D02*
X0270880Y0550220D01*
X0270880Y0551750D02*
X0268580Y0551750D01*
X0267810Y0552520D01*
X0267810Y0554050D01*
X0268580Y0554820D01*
X0270880Y0554820D01*
X0269350Y0551750D02*
X0267810Y0550220D01*
X0266280Y0550990D02*
X0265510Y0550220D01*
X0263980Y0550220D01*
X0263210Y0550990D01*
X0263210Y0552520D01*
X0263980Y0553290D01*
X0264740Y0553290D01*
X0266280Y0552520D01*
X0266280Y0554820D01*
X0263210Y0554820D01*
D34*
X0303580Y0550320D03*
X0303580Y0529720D03*
D80*
X0303580Y0528990D02*
X0305940Y0525050D01*
X0301220Y0525050D01*
X0303580Y0528990D01*
X0303580Y0551050D02*
X0301220Y0554990D01*
X0305940Y0554990D01*
X0303580Y0551050D01*
X0580720Y0339170D02*
G75*
%LPD*%
D78*
X0671320Y0404340D02*
X0671320Y0410740D01*
X0668110Y0410740D01*
X0667050Y0409680D01*
X0667050Y0407540D01*
X0668110Y0406470D01*
X0671320Y0406470D01*
X0673490Y0406470D02*
X0676700Y0406470D01*
X0677760Y0407540D01*
X0676700Y0408610D01*
X0673490Y0408610D01*
X0673490Y0409680D02*
X0673490Y0406470D01*
X0679920Y0406470D02*
X0680990Y0407540D01*
X0680990Y0411810D01*
X0682060Y0410740D02*
X0679920Y0410740D01*
X0676700Y0410740D02*
X0674560Y0410740D01*
X0673490Y0409680D01*
X0664870Y0409680D02*
X0664870Y0407540D01*
X0663800Y0406470D01*
X0661670Y0406470D01*
X0660600Y0408610D02*
X0664870Y0408610D01*
X0664870Y0409680D02*
X0663800Y0410740D01*
X0661670Y0410740D01*
X0660600Y0409680D01*
X0660600Y0408610D01*
X0684230Y0409680D02*
X0688500Y0409680D01*
X0690680Y0410740D02*
X0694950Y0406470D01*
X0697110Y0406470D02*
X0699250Y0406470D01*
X0698180Y0406470D02*
X0698180Y0410740D01*
X0699250Y0410740D01*
X0701420Y0410740D02*
X0702480Y0410740D01*
X0704620Y0408610D01*
X0706790Y0409680D02*
X0706790Y0406470D01*
X0704620Y0406470D02*
X0704620Y0410740D01*
X0706790Y0409680D02*
X0707860Y0410740D01*
X0710000Y0410740D01*
X0711060Y0409680D01*
X0713220Y0410740D02*
X0715360Y0410740D01*
X0714290Y0411810D02*
X0714290Y0407540D01*
X0713220Y0406470D01*
X0711060Y0406470D02*
X0711060Y0412880D01*
X0698180Y0412880D02*
X0698180Y0413950D01*
X0694950Y0410740D02*
X0690680Y0406470D01*
X0100960Y0657010D02*
G75*
%LPD*%
D78*
X0191560Y0722180D02*
X0191560Y0728580D01*
X0188350Y0728580D01*
X0187290Y0727520D01*
X0187290Y0725380D01*
X0188350Y0724310D01*
X0191560Y0724310D01*
X0193730Y0724310D02*
X0196940Y0724310D01*
X0198000Y0725380D01*
X0196940Y0726450D01*
X0193730Y0726450D01*
X0193730Y0727520D02*
X0193730Y0724310D01*
X0200160Y0724310D02*
X0201230Y0725380D01*
X0201230Y0729650D01*
X0202300Y0728580D02*
X0200160Y0728580D01*
X0196940Y0728580D02*
X0194800Y0728580D01*
X0193730Y0727520D01*
X0185110Y0727520D02*
X0185110Y0725380D01*
X0184040Y0724310D01*
X0181910Y0724310D01*
X0180840Y0726450D02*
X0185110Y0726450D01*
X0185110Y0727520D02*
X0184040Y0728580D01*
X0181910Y0728580D01*
X0180840Y0727520D01*
X0180840Y0726450D01*
X0204470Y0727520D02*
X0208740Y0727520D01*
X0210920Y0728580D02*
X0215190Y0724310D01*
X0217350Y0724310D02*
X0219490Y0724310D01*
X0218420Y0724310D02*
X0218420Y0728580D01*
X0219490Y0728580D01*
X0221660Y0728580D02*
X0222720Y0728580D01*
X0224860Y0726450D01*
X0227030Y0727520D02*
X0227030Y0724310D01*
X0224860Y0724310D02*
X0224860Y0728580D01*
X0227030Y0727520D02*
X0228100Y0728580D01*
X0230240Y0728580D01*
X0231300Y0727520D01*
X0233460Y0728580D02*
X0235600Y0728580D01*
X0234530Y0729650D02*
X0234530Y0725380D01*
X0233460Y0724310D01*
X0231300Y0724310D02*
X0231300Y0730720D01*
X0218420Y0730720D02*
X0218420Y0731790D01*
X0215190Y0728580D02*
X0210920Y0724310D01*
X0580720Y0420130D02*
G75*
%LPD*%
D78*
X0591510Y0510730D02*
X0585110Y0510730D01*
X0585110Y0507520D01*
X0586170Y0506460D01*
X0588310Y0506460D01*
X0589380Y0507520D01*
X0589380Y0510730D01*
X0589380Y0512900D02*
X0589380Y0516110D01*
X0588310Y0517170D01*
X0587240Y0516110D01*
X0587240Y0512900D01*
X0586170Y0512900D02*
X0589380Y0512900D01*
X0589380Y0519330D02*
X0588310Y0520400D01*
X0584040Y0520400D01*
X0585110Y0521470D02*
X0585110Y0519330D01*
X0585110Y0516110D02*
X0585110Y0513970D01*
X0586170Y0512900D01*
X0586170Y0504280D02*
X0588310Y0504280D01*
X0589380Y0503210D01*
X0589380Y0501080D01*
X0587240Y0500010D02*
X0587240Y0504280D01*
X0586170Y0504280D02*
X0585110Y0503210D01*
X0585110Y0501080D01*
X0586170Y0500010D01*
X0587240Y0500010D01*
X0586170Y0523640D02*
X0586170Y0527910D01*
X0585110Y0530090D02*
X0589380Y0534360D01*
X0589380Y0536520D02*
X0589380Y0538660D01*
X0589380Y0537590D02*
X0585110Y0537590D01*
X0585110Y0538660D01*
X0585110Y0540830D02*
X0585110Y0541890D01*
X0587240Y0544030D01*
X0586170Y0546200D02*
X0589380Y0546200D01*
X0589380Y0544030D02*
X0585110Y0544030D01*
X0586170Y0546200D02*
X0585110Y0547270D01*
X0585110Y0549410D01*
X0586170Y0550470D01*
X0585110Y0552630D02*
X0585110Y0554770D01*
X0584040Y0553700D02*
X0588310Y0553700D01*
X0589380Y0552630D01*
X0589380Y0550470D02*
X0582970Y0550470D01*
X0582970Y0537590D02*
X0581900Y0537590D01*
X0585110Y0534360D02*
X0589380Y0530090D01*
X0644530Y0020000D02*
G75*
%LPD*%
X0342510Y0568240D02*
G75*
%LPD*%
D78*
X0433110Y0633410D02*
X0433110Y0639810D01*
X0429900Y0639810D01*
X0428840Y0638750D01*
X0428840Y0636610D01*
X0429900Y0635540D01*
X0433110Y0635540D01*
X0435280Y0635540D02*
X0438490Y0635540D01*
X0439550Y0636610D01*
X0438490Y0637680D01*
X0435280Y0637680D01*
X0435280Y0638750D02*
X0435280Y0635540D01*
X0441710Y0635540D02*
X0442780Y0636610D01*
X0442780Y0640880D01*
X0443850Y0639810D02*
X0441710Y0639810D01*
X0438490Y0639810D02*
X0436350Y0639810D01*
X0435280Y0638750D01*
X0426660Y0638750D02*
X0426660Y0636610D01*
X0425590Y0635540D01*
X0423460Y0635540D01*
X0422390Y0637680D02*
X0426660Y0637680D01*
X0426660Y0638750D02*
X0425590Y0639810D01*
X0423460Y0639810D01*
X0422390Y0638750D01*
X0422390Y0637680D01*
X0446020Y0638750D02*
X0450290Y0638750D01*
X0452470Y0639810D02*
X0456740Y0635540D01*
X0458900Y0635540D02*
X0461040Y0635540D01*
X0459970Y0635540D02*
X0459970Y0639810D01*
X0461040Y0639810D01*
X0463210Y0639810D02*
X0464270Y0639810D01*
X0466410Y0637680D01*
X0468580Y0638750D02*
X0468580Y0635540D01*
X0466410Y0635540D02*
X0466410Y0639810D01*
X0468580Y0638750D02*
X0469650Y0639810D01*
X0471790Y0639810D01*
X0472850Y0638750D01*
X0475010Y0639810D02*
X0477150Y0639810D01*
X0476080Y0640880D02*
X0476080Y0636610D01*
X0475010Y0635540D01*
X0472850Y0635540D02*
X0472850Y0641950D01*
X0459970Y0641950D02*
X0459970Y0643020D01*
X0456740Y0639810D02*
X0452470Y0635540D01*
X0898230Y0020000D02*
G75*
%LPD*%
X0661680Y0420130D02*
G75*
%LPD*%
D78*
X0672470Y0510730D02*
X0666070Y0510730D01*
X0666070Y0507520D01*
X0667130Y0506460D01*
X0669270Y0506460D01*
X0670340Y0507520D01*
X0670340Y0510730D01*
X0670340Y0512900D02*
X0670340Y0516110D01*
X0669270Y0517170D01*
X0668200Y0516110D01*
X0668200Y0512900D01*
X0667130Y0512900D02*
X0670340Y0512900D01*
X0670340Y0519330D02*
X0669270Y0520400D01*
X0665000Y0520400D01*
X0666070Y0521470D02*
X0666070Y0519330D01*
X0666070Y0516110D02*
X0666070Y0513970D01*
X0667130Y0512900D01*
X0667130Y0504280D02*
X0669270Y0504280D01*
X0670340Y0503210D01*
X0670340Y0501080D01*
X0668200Y0500010D02*
X0668200Y0504280D01*
X0667130Y0504280D02*
X0666070Y0503210D01*
X0666070Y0501080D01*
X0667130Y0500010D01*
X0668200Y0500010D01*
X0667130Y0523640D02*
X0667130Y0527910D01*
X0666070Y0530090D02*
X0670340Y0534360D01*
X0670340Y0536520D02*
X0670340Y0538660D01*
X0670340Y0537590D02*
X0666070Y0537590D01*
X0666070Y0538660D01*
X0666070Y0540830D02*
X0666070Y0541890D01*
X0668200Y0544030D01*
X0667130Y0546200D02*
X0670340Y0546200D01*
X0670340Y0544030D02*
X0666070Y0544030D01*
X0667130Y0546200D02*
X0666070Y0547270D01*
X0666070Y0549410D01*
X0667130Y0550470D01*
X0666070Y0552630D02*
X0666070Y0554770D01*
X0665000Y0553700D02*
X0669270Y0553700D01*
X0670340Y0552630D01*
X0670340Y0550470D02*
X0663930Y0550470D01*
X0663930Y0537590D02*
X0662860Y0537590D01*
X0666070Y0534360D02*
X0670340Y0530090D01*
X0342510Y0649200D02*
G75*
%LPD*%
D78*
X0433110Y0714370D02*
X0433110Y0720770D01*
X0429900Y0720770D01*
X0428840Y0719710D01*
X0428840Y0717570D01*
X0429900Y0716500D01*
X0433110Y0716500D01*
X0435280Y0716500D02*
X0438490Y0716500D01*
X0439550Y0717570D01*
X0438490Y0718640D01*
X0435280Y0718640D01*
X0435280Y0719710D02*
X0435280Y0716500D01*
X0441710Y0716500D02*
X0442780Y0717570D01*
X0442780Y0721840D01*
X0443850Y0720770D02*
X0441710Y0720770D01*
X0438490Y0720770D02*
X0436350Y0720770D01*
X0435280Y0719710D01*
X0426660Y0719710D02*
X0426660Y0717570D01*
X0425590Y0716500D01*
X0423460Y0716500D01*
X0422390Y0718640D02*
X0426660Y0718640D01*
X0426660Y0719710D02*
X0425590Y0720770D01*
X0423460Y0720770D01*
X0422390Y0719710D01*
X0422390Y0718640D01*
X0446020Y0719710D02*
X0450290Y0719710D01*
X0452470Y0720770D02*
X0456740Y0716500D01*
X0458900Y0716500D02*
X0461040Y0716500D01*
X0459970Y0716500D02*
X0459970Y0720770D01*
X0461040Y0720770D01*
X0463210Y0720770D02*
X0464270Y0720770D01*
X0466410Y0718640D01*
X0468580Y0719710D02*
X0468580Y0716500D01*
X0466410Y0716500D02*
X0466410Y0720770D01*
X0468580Y0719710D02*
X0469650Y0720770D01*
X0471790Y0720770D01*
X0472850Y0719710D01*
X0475010Y0720770D02*
X0477150Y0720770D01*
X0476080Y0721840D02*
X0476080Y0717570D01*
X0475010Y0716500D01*
X0472850Y0716500D02*
X0472850Y0722910D01*
X0459970Y0722910D02*
X0459970Y0723980D01*
X0456740Y0720770D02*
X0452470Y0716500D01*
X0742640Y0420130D02*
G75*
%LPD*%
D78*
X0753430Y0510730D02*
X0747030Y0510730D01*
X0747030Y0507520D01*
X0748090Y0506460D01*
X0750230Y0506460D01*
X0751300Y0507520D01*
X0751300Y0510730D01*
X0751300Y0512900D02*
X0751300Y0516110D01*
X0750230Y0517170D01*
X0749160Y0516110D01*
X0749160Y0512900D01*
X0748090Y0512900D02*
X0751300Y0512900D01*
X0751300Y0519330D02*
X0750230Y0520400D01*
X0745960Y0520400D01*
X0747030Y0521470D02*
X0747030Y0519330D01*
X0747030Y0516110D02*
X0747030Y0513970D01*
X0748090Y0512900D01*
X0748090Y0504280D02*
X0750230Y0504280D01*
X0751300Y0503210D01*
X0751300Y0501080D01*
X0749160Y0500010D02*
X0749160Y0504280D01*
X0748090Y0504280D02*
X0747030Y0503210D01*
X0747030Y0501080D01*
X0748090Y0500010D01*
X0749160Y0500010D01*
X0748090Y0523640D02*
X0748090Y0527910D01*
X0747030Y0530090D02*
X0751300Y0534360D01*
X0751300Y0536520D02*
X0751300Y0538660D01*
X0751300Y0537590D02*
X0747030Y0537590D01*
X0747030Y0538660D01*
X0747030Y0540830D02*
X0747030Y0541890D01*
X0749160Y0544030D01*
X0748090Y0546200D02*
X0751300Y0546200D01*
X0751300Y0544030D02*
X0747030Y0544030D01*
X0748090Y0546200D02*
X0747030Y0547270D01*
X0747030Y0549410D01*
X0748090Y0550470D01*
X0747030Y0552630D02*
X0747030Y0554770D01*
X0745960Y0553700D02*
X0750230Y0553700D01*
X0751300Y0552630D01*
X0751300Y0550470D02*
X0744890Y0550470D01*
X0744890Y0537590D02*
X0743820Y0537590D01*
X0747030Y0534360D02*
X0751300Y0530090D01*
X1151930Y0020000D02*
G75*
%LPD*%
D78*
X1162720Y0110600D02*
X1156320Y0110600D01*
X1156320Y0107390D01*
X1157380Y0106330D01*
X1159520Y0106330D01*
X1160590Y0107390D01*
X1160590Y0110600D01*
X1160590Y0112770D02*
X1160590Y0115980D01*
X1159520Y0117040D01*
X1158450Y0115980D01*
X1158450Y0112770D01*
X1157380Y0112770D02*
X1160590Y0112770D01*
X1160590Y0119200D02*
X1159520Y0120270D01*
X1155250Y0120270D01*
X1156320Y0121340D02*
X1156320Y0119200D01*
X1156320Y0115980D02*
X1156320Y0113840D01*
X1157380Y0112770D01*
X1157380Y0104150D02*
X1159520Y0104150D01*
X1160590Y0103080D01*
X1160590Y0100950D01*
X1158450Y0099880D02*
X1158450Y0104150D01*
X1157380Y0104150D02*
X1156320Y0103080D01*
X1156320Y0100950D01*
X1157380Y0099880D01*
X1158450Y0099880D01*
X1157380Y0123510D02*
X1157380Y0127780D01*
X1156320Y0129960D02*
X1160590Y0134230D01*
X1160590Y0136390D02*
X1160590Y0138530D01*
X1160590Y0137460D02*
X1156320Y0137460D01*
X1156320Y0138530D01*
X1156320Y0140700D02*
X1156320Y0141760D01*
X1158450Y0143900D01*
X1157380Y0146070D02*
X1160590Y0146070D01*
X1160590Y0143900D02*
X1156320Y0143900D01*
X1157380Y0146070D02*
X1156320Y0147140D01*
X1156320Y0149280D01*
X1157380Y0150340D01*
X1156320Y0152500D02*
X1156320Y0154640D01*
X1155250Y0153570D02*
X1159520Y0153570D01*
X1160590Y0152500D01*
X1160590Y0150340D02*
X1154180Y0150340D01*
X1154180Y0137460D02*
X1153110Y0137460D01*
X1156320Y0134230D02*
X1160590Y0129960D01*
X1070970Y0239960D02*
G75*
%LPD*%
D78*
X1081760Y0330560D02*
X1075360Y0330560D01*
X1075360Y0327350D01*
X1076420Y0326290D01*
X1078560Y0326290D01*
X1079630Y0327350D01*
X1079630Y0330560D01*
X1079630Y0332730D02*
X1079630Y0335940D01*
X1078560Y0337000D01*
X1077490Y0335940D01*
X1077490Y0332730D01*
X1076420Y0332730D02*
X1079630Y0332730D01*
X1079630Y0339160D02*
X1078560Y0340230D01*
X1074290Y0340230D01*
X1075360Y0341300D02*
X1075360Y0339160D01*
X1075360Y0335940D02*
X1075360Y0333800D01*
X1076420Y0332730D01*
X1076420Y0324110D02*
X1078560Y0324110D01*
X1079630Y0323040D01*
X1079630Y0320910D01*
X1077490Y0319840D02*
X1077490Y0324110D01*
X1076420Y0324110D02*
X1075360Y0323040D01*
X1075360Y0320910D01*
X1076420Y0319840D01*
X1077490Y0319840D01*
X1076420Y0343470D02*
X1076420Y0347740D01*
X1075360Y0349920D02*
X1079630Y0354190D01*
X1079630Y0356350D02*
X1079630Y0358490D01*
X1079630Y0357420D02*
X1075360Y0357420D01*
X1075360Y0358490D01*
X1075360Y0360660D02*
X1075360Y0361720D01*
X1077490Y0363860D01*
X1076420Y0366030D02*
X1079630Y0366030D01*
X1079630Y0363860D02*
X1075360Y0363860D01*
X1076420Y0366030D02*
X1075360Y0367100D01*
X1075360Y0369240D01*
X1076420Y0370300D01*
X1075360Y0372460D02*
X1075360Y0374600D01*
X1074290Y0373530D02*
X1078560Y0373530D01*
X1079630Y0372460D01*
X1079630Y0370300D02*
X1073220Y0370300D01*
X1073220Y0357420D02*
X1072150Y0357420D01*
X1075360Y0354190D02*
X1079630Y0349920D01*
X0801780Y0239960D02*
G75*
%LPD*%
D78*
X0892380Y0305130D02*
X0892380Y0311530D01*
X0889170Y0311530D01*
X0888110Y0310470D01*
X0888110Y0308330D01*
X0889170Y0307260D01*
X0892380Y0307260D01*
X0894550Y0307260D02*
X0897760Y0307260D01*
X0898820Y0308330D01*
X0897760Y0309400D01*
X0894550Y0309400D01*
X0894550Y0310470D02*
X0894550Y0307260D01*
X0900980Y0307260D02*
X0902050Y0308330D01*
X0902050Y0312600D01*
X0903120Y0311530D02*
X0900980Y0311530D01*
X0897760Y0311530D02*
X0895620Y0311530D01*
X0894550Y0310470D01*
X0885930Y0310470D02*
X0885930Y0308330D01*
X0884860Y0307260D01*
X0882730Y0307260D01*
X0881660Y0309400D02*
X0885930Y0309400D01*
X0885930Y0310470D02*
X0884860Y0311530D01*
X0882730Y0311530D01*
X0881660Y0310470D01*
X0881660Y0309400D01*
X0905290Y0310470D02*
X0909560Y0310470D01*
X0911740Y0311530D02*
X0916010Y0307260D01*
X0918170Y0307260D02*
X0920310Y0307260D01*
X0919240Y0307260D02*
X0919240Y0311530D01*
X0920310Y0311530D01*
X0922480Y0311530D02*
X0923540Y0311530D01*
X0925680Y0309400D01*
X0927850Y0310470D02*
X0927850Y0307260D01*
X0925680Y0307260D02*
X0925680Y0311530D01*
X0927850Y0310470D02*
X0928920Y0311530D01*
X0931060Y0311530D01*
X0932120Y0310470D01*
X0934280Y0311530D02*
X0936420Y0311530D01*
X0935350Y0312600D02*
X0935350Y0308330D01*
X0934280Y0307260D01*
X0932120Y0307260D02*
X0932120Y0313670D01*
X0919240Y0313670D02*
X0919240Y0314740D01*
X0916010Y0311530D02*
X0911740Y0307260D01*
X0851010Y0320920D02*
G75*
%LPD*%
X1151930Y0258210D02*
G75*
%LPD*%
D78*
X1162720Y0348810D02*
X1156320Y0348810D01*
X1156320Y0345600D01*
X1157380Y0344540D01*
X1159520Y0344540D01*
X1160590Y0345600D01*
X1160590Y0348810D01*
X1160590Y0350980D02*
X1160590Y0354190D01*
X1159520Y0355250D01*
X1158450Y0354190D01*
X1158450Y0350980D01*
X1157380Y0350980D02*
X1160590Y0350980D01*
X1160590Y0357410D02*
X1159520Y0358480D01*
X1155250Y0358480D01*
X1156320Y0359550D02*
X1156320Y0357410D01*
X1156320Y0354190D02*
X1156320Y0352050D01*
X1157380Y0350980D01*
X1157380Y0342360D02*
X1159520Y0342360D01*
X1160590Y0341290D01*
X1160590Y0339160D01*
X1158450Y0338090D02*
X1158450Y0342360D01*
X1157380Y0342360D02*
X1156320Y0341290D01*
X1156320Y0339160D01*
X1157380Y0338090D01*
X1158450Y0338090D01*
X1157380Y0361720D02*
X1157380Y0365990D01*
X1156320Y0368170D02*
X1160590Y0372440D01*
X1160590Y0374600D02*
X1160590Y0376740D01*
X1160590Y0375670D02*
X1156320Y0375670D01*
X1156320Y0376740D01*
X1156320Y0378910D02*
X1156320Y0379970D01*
X1158450Y0382110D01*
X1157380Y0384280D02*
X1160590Y0384280D01*
X1160590Y0382110D02*
X1156320Y0382110D01*
X1157380Y0384280D02*
X1156320Y0385350D01*
X1156320Y0387490D01*
X1157380Y0388550D01*
X1156320Y0390710D02*
X1156320Y0392850D01*
X1155250Y0391780D02*
X1159520Y0391780D01*
X1160590Y0390710D01*
X1160590Y0388550D02*
X1154180Y0388550D01*
X1154180Y0375670D02*
X1153110Y0375670D01*
X1156320Y0372440D02*
X1160590Y0368170D01*
X1070970Y0478170D02*
G75*
%LPD*%
D78*
X1081760Y0568770D02*
X1075360Y0568770D01*
X1075360Y0565560D01*
X1076420Y0564500D01*
X1078560Y0564500D01*
X1079630Y0565560D01*
X1079630Y0568770D01*
X1079630Y0570940D02*
X1079630Y0574150D01*
X1078560Y0575210D01*
X1077490Y0574150D01*
X1077490Y0570940D01*
X1076420Y0570940D02*
X1079630Y0570940D01*
X1079630Y0577370D02*
X1078560Y0578440D01*
X1074290Y0578440D01*
X1075360Y0579510D02*
X1075360Y0577370D01*
X1075360Y0574150D02*
X1075360Y0572010D01*
X1076420Y0570940D01*
X1076420Y0562320D02*
X1078560Y0562320D01*
X1079630Y0561250D01*
X1079630Y0559120D01*
X1077490Y0558050D02*
X1077490Y0562320D01*
X1076420Y0562320D02*
X1075360Y0561250D01*
X1075360Y0559120D01*
X1076420Y0558050D01*
X1077490Y0558050D01*
X1076420Y0581680D02*
X1076420Y0585950D01*
X1075360Y0588130D02*
X1079630Y0592400D01*
X1079630Y0594560D02*
X1079630Y0596700D01*
X1079630Y0595630D02*
X1075360Y0595630D01*
X1075360Y0596700D01*
X1075360Y0598870D02*
X1075360Y0599930D01*
X1077490Y0602070D01*
X1076420Y0604240D02*
X1079630Y0604240D01*
X1079630Y0602070D02*
X1075360Y0602070D01*
X1076420Y0604240D02*
X1075360Y0605310D01*
X1075360Y0607450D01*
X1076420Y0608510D01*
X1075360Y0610670D02*
X1075360Y0612810D01*
X1074290Y0611740D02*
X1078560Y0611740D01*
X1079630Y0610670D01*
X1079630Y0608510D02*
X1073220Y0608510D01*
X1073220Y0595630D02*
X1072150Y0595630D01*
X1075360Y0592400D02*
X1079630Y0588130D01*
X0832760Y0574620D02*
G75*
%LPD*%
D78*
X0923360Y0639790D02*
X0923360Y0646190D01*
X0920150Y0646190D01*
X0919090Y0645130D01*
X0919090Y0642990D01*
X0920150Y0641920D01*
X0923360Y0641920D01*
X0925530Y0641920D02*
X0928740Y0641920D01*
X0929800Y0642990D01*
X0928740Y0644060D01*
X0925530Y0644060D01*
X0925530Y0645130D02*
X0925530Y0641920D01*
X0931960Y0641920D02*
X0933030Y0642990D01*
X0933030Y0647260D01*
X0934100Y0646190D02*
X0931960Y0646190D01*
X0928740Y0646190D02*
X0926600Y0646190D01*
X0925530Y0645130D01*
X0916910Y0645130D02*
X0916910Y0642990D01*
X0915840Y0641920D01*
X0913710Y0641920D01*
X0912640Y0644060D02*
X0916910Y0644060D01*
X0916910Y0645130D02*
X0915840Y0646190D01*
X0913710Y0646190D01*
X0912640Y0645130D01*
X0912640Y0644060D01*
X0936270Y0645130D02*
X0940540Y0645130D01*
X0942720Y0646190D02*
X0946990Y0641920D01*
X0949150Y0641920D02*
X0951290Y0641920D01*
X0950220Y0641920D02*
X0950220Y0646190D01*
X0951290Y0646190D01*
X0953460Y0646190D02*
X0954520Y0646190D01*
X0956660Y0644060D01*
X0958830Y0645130D02*
X0958830Y0641920D01*
X0956660Y0641920D02*
X0956660Y0646190D01*
X0958830Y0645130D02*
X0959900Y0646190D01*
X0962040Y0646190D01*
X0963100Y0645130D01*
X0965260Y0646190D02*
X0967400Y0646190D01*
X0966330Y0647260D02*
X0966330Y0642990D01*
X0965260Y0641920D01*
X0963100Y0641920D02*
X0963100Y0648330D01*
X0950220Y0648330D02*
X0950220Y0649400D01*
X0946990Y0646190D02*
X0942720Y0641920D01*
X0823600Y0655580D02*
G75*
%LPD*%
D78*
X0914200Y0720750D02*
X0914200Y0727150D01*
X0910990Y0727150D01*
X0909930Y0726090D01*
X0909930Y0723950D01*
X0910990Y0722880D01*
X0914200Y0722880D01*
X0916370Y0722880D02*
X0919580Y0722880D01*
X0920640Y0723950D01*
X0919580Y0725020D01*
X0916370Y0725020D01*
X0916370Y0726090D02*
X0916370Y0722880D01*
X0922800Y0722880D02*
X0923870Y0723950D01*
X0923870Y0728220D01*
X0924940Y0727150D02*
X0922800Y0727150D01*
X0919580Y0727150D02*
X0917440Y0727150D01*
X0916370Y0726090D01*
X0907750Y0726090D02*
X0907750Y0723950D01*
X0906680Y0722880D01*
X0904550Y0722880D01*
X0903480Y0725020D02*
X0907750Y0725020D01*
X0907750Y0726090D02*
X0906680Y0727150D01*
X0904550Y0727150D01*
X0903480Y0726090D01*
X0903480Y0725020D01*
X0927110Y0726090D02*
X0931380Y0726090D01*
X0933560Y0727150D02*
X0937830Y0722880D01*
X0939990Y0722880D02*
X0942130Y0722880D01*
X0941060Y0722880D02*
X0941060Y0727150D01*
X0942130Y0727150D01*
X0944300Y0727150D02*
X0945360Y0727150D01*
X0947500Y0725020D01*
X0949670Y0726090D02*
X0949670Y0722880D01*
X0947500Y0722880D02*
X0947500Y0727150D01*
X0949670Y0726090D02*
X0950740Y0727150D01*
X0952880Y0727150D01*
X0953940Y0726090D01*
X0956100Y0727150D02*
X0958240Y0727150D01*
X0957170Y0728220D02*
X0957170Y0723950D01*
X0956100Y0722880D01*
X0953940Y0722880D02*
X0953940Y0729290D01*
X0941060Y0729290D02*
X0941060Y0730360D01*
X0937830Y0727150D02*
X0933560Y0722880D01*
X0580720Y0658340D02*
G75*
%LPD*%
D78*
X0671320Y0723510D02*
X0671320Y0729910D01*
X0668110Y0729910D01*
X0667050Y0728850D01*
X0667050Y0726710D01*
X0668110Y0725640D01*
X0671320Y0725640D01*
X0673490Y0725640D02*
X0676700Y0725640D01*
X0677760Y0726710D01*
X0676700Y0727780D01*
X0673490Y0727780D01*
X0673490Y0728850D02*
X0673490Y0725640D01*
X0679920Y0725640D02*
X0680990Y0726710D01*
X0680990Y0730980D01*
X0682060Y0729910D02*
X0679920Y0729910D01*
X0676700Y0729910D02*
X0674560Y0729910D01*
X0673490Y0728850D01*
X0664870Y0728850D02*
X0664870Y0726710D01*
X0663800Y0725640D01*
X0661670Y0725640D01*
X0660600Y0727780D02*
X0664870Y0727780D01*
X0664870Y0728850D02*
X0663800Y0729910D01*
X0661670Y0729910D01*
X0660600Y0728850D01*
X0660600Y0727780D01*
X0684230Y0728850D02*
X0688500Y0728850D01*
X0690680Y0729910D02*
X0694950Y0725640D01*
X0697110Y0725640D02*
X0699250Y0725640D01*
X0698180Y0725640D02*
X0698180Y0729910D01*
X0699250Y0729910D01*
X0701420Y0729910D02*
X0702480Y0729910D01*
X0704620Y0727780D01*
X0706790Y0728850D02*
X0706790Y0725640D01*
X0704620Y0725640D02*
X0704620Y0729910D01*
X0706790Y0728850D02*
X0707860Y0729910D01*
X0710000Y0729910D01*
X0711060Y0728850D01*
X0713220Y0729910D02*
X0715360Y0729910D01*
X0714290Y0730980D02*
X0714290Y0726710D01*
X0713220Y0725640D01*
X0711060Y0725640D02*
X0711060Y0732050D01*
X0698180Y0732050D02*
X0698180Y0733120D01*
X0694950Y0729910D02*
X0690680Y0725640D01*
X1151930Y0496420D02*
G75*
%LPD*%
D78*
X1162720Y0587020D02*
X1156320Y0587020D01*
X1156320Y0583810D01*
X1157380Y0582750D01*
X1159520Y0582750D01*
X1160590Y0583810D01*
X1160590Y0587020D01*
X1160590Y0589190D02*
X1160590Y0592400D01*
X1159520Y0593460D01*
X1158450Y0592400D01*
X1158450Y0589190D01*
X1157380Y0589190D02*
X1160590Y0589190D01*
X1160590Y0595620D02*
X1159520Y0596690D01*
X1155250Y0596690D01*
X1156320Y0597760D02*
X1156320Y0595620D01*
X1156320Y0592400D02*
X1156320Y0590260D01*
X1157380Y0589190D01*
X1157380Y0580570D02*
X1159520Y0580570D01*
X1160590Y0579500D01*
X1160590Y0577370D01*
X1158450Y0576300D02*
X1158450Y0580570D01*
X1157380Y0580570D02*
X1156320Y0579500D01*
X1156320Y0577370D01*
X1157380Y0576300D01*
X1158450Y0576300D01*
X1157380Y0599930D02*
X1157380Y0604200D01*
X1156320Y0606380D02*
X1160590Y0610650D01*
X1160590Y0612810D02*
X1160590Y0614950D01*
X1160590Y0613880D02*
X1156320Y0613880D01*
X1156320Y0614950D01*
X1156320Y0617120D02*
X1156320Y0618180D01*
X1158450Y0620320D01*
X1157380Y0622490D02*
X1160590Y0622490D01*
X1160590Y0620320D02*
X1156320Y0620320D01*
X1157380Y0622490D02*
X1156320Y0623560D01*
X1156320Y0625700D01*
X1157380Y0626760D01*
X1156320Y0628920D02*
X1156320Y0631060D01*
X1155250Y0629990D02*
X1159520Y0629990D01*
X1160590Y0628920D01*
X1160590Y0626760D02*
X1154180Y0626760D01*
X1154180Y0613880D02*
X1153110Y0613880D01*
X1156320Y0610650D02*
X1160590Y0606380D01*
M02*
