%
T01C0.021650
X51162Y2618
X53862Y2618
X56662Y2618
X59862Y2618
X64162Y3118
X58462Y6718
X58462Y8518
X61012Y8318
X59442Y10568
X59447Y11478
X58162Y11518
X57662Y11518
X57162Y11518
X57162Y12018
X57662Y12018
X58162Y12018
X58162Y12518
X57662Y12518
X57162Y12518
X56662Y12518
X56162Y12518
X55662Y12518
X55162Y12518
X54662Y12518
X54162Y12518
X53662Y12518
X53162Y12518
X52662Y12518
X52162Y12518
X51662Y12518
X51162Y12518
X50662Y12518
X50162Y12518
X50162Y11118
X50662Y11118
X51162Y11118
X51662Y11118
X52162Y11118
X52662Y11118
X53162Y11118
X52162Y10118
X51662Y10118
X51162Y10118
X50662Y10118
X50162Y10118
X50162Y9618
X50662Y9618
X51162Y9618
X51662Y9618
X52162Y9618
X52162Y9118
X51662Y9118
X51162Y9118
X50662Y9118
X50162Y9118
X55662Y11018
X55662Y11518
X55662Y12018
X56162Y12018
X56662Y12018
X56662Y11518
X56162Y11518
X56162Y11018
X56662Y11018
X57162Y11018
X57662Y11018
X58162Y11018
X60362Y13518
X60962Y13518
X61562Y13518
X62162Y13518
X56702Y14233
X54202Y15533
X52862Y14518
X52862Y18518
X56662Y21118
X60162Y19918
X60162Y18418
X65762Y18518
X70962Y23418
X78998Y20482
X79762Y17618
X79862Y11118
X79662Y4818
X51362Y23518
X48524Y11616
X48524Y14316
X48524Y17116
X48524Y20316
X48024Y24616
X44424Y18916
X42624Y18916
X42824Y21466
X40574Y19896
X39664Y19901
X39624Y18616
X39624Y18116
X39624Y17616
X39124Y17616
X39124Y18116
X39124Y18616
X38624Y18616
X38624Y18116
X38624Y17616
X38624Y17116
X38624Y16616
X38624Y16116
X38624Y15616
X38624Y15116
X38624Y14616
X38624Y14116
X38624Y13616
X38624Y13116
X38624Y12616
X38624Y12116
X38624Y11616
X38624Y11116
X38624Y10616
X40024Y10616
X40024Y11116
X40024Y11616
X40024Y12116
X40024Y12616
X40024Y13116
X40024Y13616
X41024Y12616
X41024Y12116
X41024Y11616
X41024Y11116
X41024Y10616
X41524Y10616
X41524Y11116
X41524Y11616
X41524Y12116
X41524Y12616
X42024Y12616
X42024Y12116
X42024Y11616
X42024Y11116
X42024Y10616
X40124Y16116
X39624Y16116
X39124Y16116
X39124Y16616
X39124Y17116
X39624Y17116
X39624Y16616
X40124Y16616
X40124Y17116
X40124Y17616
X40124Y18116
X40124Y18616
X37624Y20816
X37624Y21416
X37624Y22016
X37624Y22616
X36909Y17156
X35609Y14656
X36624Y13316
X32624Y13316
X30024Y17116
X31224Y20616
X32724Y20616
X32624Y26216
X27724Y31416
X30660Y39452
X33524Y40216
X40024Y40316
X46324Y40116
X27624Y11816
X48524Y43400
X48524Y46100
X48524Y48900
X48524Y52100
X48024Y56400
X44424Y50700
X42624Y50700
X42824Y53250
X40574Y51680
X39664Y51685
X39624Y50400
X39624Y49900
X39624Y49400
X39124Y49400
X39124Y49900
X39124Y50400
X38624Y50400
X38624Y49900
X38624Y49400
X38624Y48900
X38624Y48400
X38624Y47900
X38624Y47400
X38624Y46900
X38624Y46400
X38624Y45900
X38624Y45400
X38624Y44900
X38624Y44400
X38624Y43900
X38624Y43400
X38624Y42900
X38624Y42400
X40024Y42400
X40024Y42900
X40024Y43400
X40024Y43900
X40024Y44400
X40024Y44900
X40024Y45400
X41024Y44400
X41024Y43900
X41024Y43400
X41024Y42900
X41024Y42400
X41524Y42400
X41524Y42900
X41524Y43400
X41524Y43900
X41524Y44400
X42024Y44400
X42024Y43900
X42024Y43400
X42024Y42900
X42024Y42400
X40124Y47900
X39624Y47900
X39124Y47900
X39124Y48400
X39124Y48900
X39624Y48900
X39624Y48400
X40124Y48400
X40124Y48900
X40124Y49400
X40124Y49900
X40124Y50400
X37624Y52600
X37624Y53200
X37624Y53800
X37624Y54400
X36909Y48940
X35609Y46440
X36624Y45100
X32624Y45100
X30024Y48900
X31224Y52400
X32724Y52400
X32624Y58000
X27724Y63200
X30660Y71236
X33524Y72000
X40024Y72100
X46324Y71900
X27624Y43600
T02C0.024000
X9200Y6800
X10400Y6800
X19700Y3600
X20100Y4100
X33021Y6800
X34221Y6800
X43521Y3600
X43921Y4100
X50862Y21918
X50862Y21218
X54362Y20918
X54362Y21918
X62162Y19518
X62162Y18518
X62162Y17518
X62162Y16518
X62162Y15518
X62162Y14518
X62162Y14018
X62162Y13018
X62162Y12518
X62162Y11518
X62162Y10518
X62162Y9518
X65462Y12018
X66162Y12918
X66062Y13818
X65762Y14918
X67762Y14518
X68762Y15518
X69662Y16518
X69662Y17518
X67762Y18618
X67162Y19118
X67562Y17918
X64362Y17518
X60062Y15318
X59162Y15818
X68662Y9318
X68462Y8018
X66062Y6018
X74262Y17818
X74262Y18718
X74262Y19618
X74262Y20418
X74262Y21118
X77262Y19618
X78462Y18718
X77162Y17818
X9200Y14896
X10400Y14896
X19700Y11696
X20100Y12196
X29224Y11316
X29924Y11316
X30224Y14816
X29224Y14816
X31624Y22616
X32624Y22616
X33624Y22616
X34624Y22616
X35624Y22616
X36624Y22616
X37124Y22616
X38124Y22616
X38624Y22616
X39624Y22616
X40624Y22616
X41624Y22616
X39124Y25916
X38224Y26616
X37324Y26516
X36224Y26216
X36624Y28216
X35624Y29216
X34624Y30116
X33624Y30116
X32524Y28216
X32024Y27616
X33224Y28016
X33624Y24816
X35824Y20516
X35324Y19616
X41824Y29116
X43124Y28916
X45124Y26516
X33324Y34716
X32424Y34716
X31524Y34716
X30724Y34716
X30024Y34716
X31524Y37716
X32424Y38916
X33324Y37616
X4796Y25392
X4796Y26592
X7996Y35892
X7496Y36292
X63858Y27580
X60658Y25900
X60658Y30700
X60018Y31900
X61218Y33260
X57298Y31260
X56738Y35580
X55538Y36620
X53298Y41020
X61458Y39820
X62018Y47340
X78838Y29240
X80038Y29240
X89338Y26040
X89738Y26540
X4796Y49213
X4796Y50413
X7996Y59713
X7496Y60113
X29224Y43100
X29924Y43100
X30224Y46600
X29224Y46600
X31624Y54400
X32624Y54400
X33624Y54400
X34624Y54400
X35624Y54400
X36624Y54400
X37124Y54400
X38124Y54400
X38624Y54400
X39624Y54400
X40624Y54400
X41624Y54400
X39124Y57700
X38224Y58400
X37324Y58300
X36224Y58000
X36624Y60000
X35624Y61000
X34624Y61900
X33624Y61900
X32524Y60000
X32024Y59400
X33224Y59800
X33624Y56600
X35824Y52300
X35324Y51400
X41824Y60900
X43124Y60700
X45124Y58300
X33324Y66500
X32424Y66500
X31524Y66500
X30724Y66500
X30024Y66500
X31524Y69500
X32424Y70700
X33324Y69400
X84566Y9280
X82886Y12480
X87686Y12480
X88886Y13120
X90246Y11920
X88246Y15840
X92566Y16400
X93606Y17600
X98006Y19840
X96806Y11680
X104326Y11120
X12892Y25392
X12892Y26592
X16092Y35892
X15592Y36292
X21902Y25392
X21902Y26592
X25102Y35892
X24602Y36292
X21902Y49213
X21902Y50413
X25102Y59713
X24602Y60113
X78838Y37336
X80038Y37336
X89338Y34136
X89738Y34636
X109592Y9200
X109592Y10400
X112792Y19700
X112292Y20100
X56842Y54610
X58042Y54610
X67342Y51410
X67742Y51910
X101496Y31196
X101496Y32396
X104696Y41696
X104196Y42096
X9200Y70634
X10400Y70634
X19700Y67434
X20100Y67934
X56842Y62706
X58042Y62706
X67342Y59506
X67742Y60006
X56842Y70802
X58042Y70802
X67342Y67602
X67742Y68102
X78838Y45432
X80038Y45432
X89338Y42232
X89738Y42732
X13806Y49213
X13806Y50413
X17006Y59713
X16506Y60113
X87679Y51868
X84479Y50188
X84479Y54988
X83839Y56188
X85039Y57548
X81119Y55548
X80559Y59868
X79359Y60908
X77119Y65308
X85279Y64108
X85839Y71628
X98255Y55017
X98255Y56217
X101455Y65517
X100955Y65917
X106351Y55017
X106351Y56217
X109551Y65517
X109051Y65917
T03C0.033450
X2700Y3000
X3700Y3000
X5700Y3000
X6700Y3000
X8700Y3000
X9700Y3000
X11700Y3000
X12700Y3000
X14700Y3000
X15700Y3000
X17700Y3000
X18700Y3000
X20700Y3000
X21700Y3000
X23700Y3000
X24700Y3000
X20450Y5000
X19450Y5000
X18450Y5000
X17450Y5000
X16200Y5000
X15200Y5000
X14200Y5000
X13200Y5000
X12200Y5000
X11200Y5000
X10200Y5000
X9200Y5000
X7700Y4750
X6700Y4750
X5700Y4750
X4700Y4750
X4700Y7750
X5700Y7750
X6700Y7750
X7700Y7750
X9200Y8000
X10200Y8000
X11200Y8000
X12200Y8000
X13200Y8000
X14200Y8000
X15200Y8000
X16200Y8000
X17450Y8000
X18450Y8000
X19450Y8000
X20450Y8000
X26521Y3000
X27521Y3000
X29521Y3000
X30521Y3000
X32521Y3000
X33521Y3000
X35521Y3000
X36521Y3000
X38521Y3000
X39521Y3000
X41521Y3000
X42521Y3000
X44521Y3000
X45521Y3000
X47521Y3000
X48521Y3000
X44271Y5000
X43271Y5000
X42271Y5000
X41271Y5000
X40021Y5000
X39021Y5000
X38021Y5000
X37021Y5000
X36021Y5000
X35021Y5000
X34021Y5000
X33021Y5000
X31521Y4750
X30521Y4750
X29521Y4750
X28521Y4750
X28521Y7750
X29521Y7750
X30521Y7750
X31521Y7750
X33021Y8000
X34021Y8000
X35021Y8000
X36021Y8000
X37021Y8000
X38021Y8000
X39021Y8000
X40021Y8000
X41271Y8000
X42271Y8000
X43271Y8000
X44271Y8000
X51412Y20802
X51412Y22534
X79150Y7144
X78150Y7144
X77150Y7144
X76150Y7144
X75150Y7144
X74150Y7144
X73150Y7144
X72150Y7144
X71150Y7144
X70150Y7144
X69150Y7144
X68150Y7144
X67150Y7144
X66150Y7144
X66150Y10144
X67150Y10144
X68150Y10144
X69150Y10144
X70150Y10144
X71150Y10144
X72150Y10144
X73150Y10144
X74150Y10144
X75150Y10144
X76150Y10144
X77150Y10144
X78150Y10144
X79150Y10144
X70958Y12305
X70958Y14205
X58162Y14368
X58162Y15368
X58162Y16368
X58162Y17368
X58162Y18368
X58162Y19368
X58162Y20368
X58162Y21368
X58162Y22368
X58162Y23368
X55162Y23368
X55162Y22368
X55162Y21368
X55162Y20368
X55162Y19368
X55162Y18368
X55162Y17368
X55162Y16368
X55162Y15368
X55162Y14368
X52862Y15568
X52862Y17468
X70862Y8718
X62162Y10018
X62162Y11018
X62162Y12018
X62162Y15018
X62162Y16018
X62162Y17018
X62162Y18018
X62162Y19018
X79962Y5818
X2700Y11096
X3700Y11096
X5700Y11096
X6700Y11096
X8700Y11096
X9700Y11096
X11700Y11096
X12700Y11096
X14700Y11096
X15700Y11096
X17700Y11096
X18700Y11096
X20700Y11096
X21700Y11096
X23700Y11096
X24700Y11096
X20450Y13096
X19450Y13096
X18450Y13096
X17450Y13096
X16200Y13096
X15200Y13096
X14200Y13096
X13200Y13096
X12200Y13096
X11200Y13096
X10200Y13096
X9200Y13096
X7700Y12846
X6700Y12846
X5700Y12846
X4700Y12846
X4700Y15846
X5700Y15846
X6700Y15846
X7700Y15846
X9200Y16096
X10200Y16096
X11200Y16096
X12200Y16096
X13200Y16096
X14200Y16096
X15200Y16096
X16200Y16096
X17450Y16096
X18450Y16096
X19450Y16096
X20450Y16096
X30340Y11866
X28608Y11866
X43998Y39604
X43998Y38604
X43998Y37604
X43998Y36604
X43998Y35604
X43998Y34604
X43998Y33604
X43998Y32604
X43998Y31604
X43998Y30604
X43998Y29604
X43998Y28604
X43998Y27604
X43998Y26604
X40998Y26604
X40998Y27604
X40998Y28604
X40998Y29604
X40998Y30604
X40998Y31604
X40998Y32604
X40998Y33604
X40998Y34604
X40998Y35604
X40998Y36604
X40998Y37604
X40998Y38604
X40998Y39604
X38837Y31412
X36937Y31412
X36774Y18616
X35774Y18616
X34774Y18616
X33774Y18616
X32774Y18616
X31774Y18616
X30774Y18616
X29774Y18616
X28774Y18616
X27774Y18616
X27774Y15616
X28774Y15616
X29774Y15616
X30774Y15616
X31774Y15616
X32774Y15616
X33774Y15616
X34774Y15616
X35774Y15616
X36774Y15616
X35574Y13316
X33674Y13316
X42424Y31316
X41124Y22616
X40124Y22616
X39124Y22616
X36124Y22616
X35124Y22616
X34124Y22616
X33124Y22616
X32124Y22616
X45324Y40416
X8596Y18892
X8596Y19892
X8596Y21892
X8596Y22892
X8596Y24892
X8596Y25892
X8596Y27892
X8596Y28892
X8596Y30892
X8596Y31892
X8596Y33892
X8596Y34892
X8596Y36892
X8596Y37892
X8596Y39892
X8596Y40892
X6596Y36642
X6596Y35642
X6596Y34642
X6596Y33642
X6596Y32392
X6596Y31392
X6596Y30392
X6596Y29392
X6596Y28392
X6596Y27392
X6596Y26392
X6596Y25392
X6846Y23892
X6846Y22892
X6846Y21892
X6846Y20892
X3846Y20892
X3846Y21892
X3846Y22892
X3846Y23892
X3596Y25392
X3596Y26392
X3596Y27392
X3596Y28392
X3596Y29392
X3596Y30392
X3596Y31392
X3596Y32392
X3596Y33642
X3596Y34642
X3596Y35642
X3596Y36642
X57138Y43940
X56138Y43940
X55138Y43940
X54138Y43940
X53138Y43940
X53138Y37940
X54138Y37940
X55138Y37940
X56138Y37940
X57138Y37940
X63138Y38440
X63138Y39440
X63138Y40440
X63138Y41440
X66138Y41440
X66138Y40440
X66138Y39440
X66138Y38440
X66138Y37440
X66138Y36440
X66138Y35440
X66138Y34440
X66138Y33440
X66138Y32440
X66138Y31440
X66138Y30440
X66138Y29440
X66138Y28440
X63138Y28440
X63138Y29440
X63138Y30440
X63138Y31440
X63138Y32440
X63138Y33440
X63138Y34440
X63138Y35440
X63138Y36440
X63138Y37440
X72338Y25440
X73338Y25440
X75338Y25440
X76338Y25440
X78338Y25440
X79338Y25440
X81338Y25440
X82338Y25440
X84338Y25440
X85338Y25440
X87338Y25440
X88338Y25440
X90338Y25440
X91338Y25440
X93338Y25440
X94338Y25440
X90088Y27440
X89088Y27440
X88088Y27440
X87088Y27440
X85838Y27440
X84838Y27440
X83838Y27440
X82838Y27440
X81838Y27440
X80838Y27440
X79838Y27440
X78838Y27440
X77338Y27190
X76338Y27190
X75338Y27190
X74338Y27190
X74338Y30190
X75338Y30190
X76338Y30190
X77338Y30190
X78838Y30440
X79838Y30440
X80838Y30440
X81838Y30440
X82838Y30440
X83838Y30440
X84838Y30440
X85838Y30440
X87088Y30440
X88088Y30440
X89088Y30440
X90088Y30440
X8596Y42713
X8596Y43713
X8596Y45713
X8596Y46713
X8596Y48713
X8596Y49713
X8596Y51713
X8596Y52713
X8596Y54713
X8596Y55713
X8596Y57713
X8596Y58713
X8596Y60713
X8596Y61713
X8596Y63713
X8596Y64713
X6596Y60463
X6596Y59463
X6596Y58463
X6596Y57463
X6596Y56213
X6596Y55213
X6596Y54213
X6596Y53213
X6596Y52213
X6596Y51213
X6596Y50213
X6596Y49213
X6846Y47713
X6846Y46713
X6846Y45713
X6846Y44713
X3846Y44713
X3846Y45713
X3846Y46713
X3846Y47713
X3596Y49213
X3596Y50213
X3596Y51213
X3596Y52213
X3596Y53213
X3596Y54213
X3596Y55213
X3596Y56213
X3596Y57463
X3596Y58463
X3596Y59463
X3596Y60463
X30340Y43650
X28608Y43650
X43998Y71388
X43998Y70388
X43998Y69388
X43998Y68388
X43998Y67388
X43998Y66388
X43998Y65388
X43998Y64388
X43998Y63388
X43998Y62388
X43998Y61388
X43998Y60388
X43998Y59388
X43998Y58388
X40998Y58388
X40998Y59388
X40998Y60388
X40998Y61388
X40998Y62388
X40998Y63388
X40998Y64388
X40998Y65388
X40998Y66388
X40998Y67388
X40998Y68388
X40998Y69388
X40998Y70388
X40998Y71388
X38837Y63196
X36937Y63196
X36774Y50400
X35774Y50400
X34774Y50400
X33774Y50400
X32774Y50400
X31774Y50400
X30774Y50400
X29774Y50400
X28774Y50400
X27774Y50400
X27774Y47400
X28774Y47400
X29774Y47400
X30774Y47400
X31774Y47400
X32774Y47400
X33774Y47400
X34774Y47400
X35774Y47400
X36774Y47400
X35574Y45100
X33674Y45100
X42424Y63100
X41124Y54400
X40124Y54400
X39124Y54400
X36124Y54400
X35124Y54400
X34124Y54400
X33124Y54400
X32124Y54400
X45324Y72200
X100926Y16000
X100926Y17000
X100926Y18000
X100926Y19000
X100926Y20000
X94926Y20000
X94926Y19000
X94926Y18000
X94926Y17000
X94926Y16000
X95426Y10000
X96426Y10000
X97426Y10000
X98426Y10000
X98426Y7000
X97426Y7000
X96426Y7000
X95426Y7000
X94426Y7000
X93426Y7000
X92426Y7000
X91426Y7000
X90426Y7000
X89426Y7000
X88426Y7000
X87426Y7000
X86426Y7000
X85426Y7000
X85426Y10000
X86426Y10000
X87426Y10000
X88426Y10000
X89426Y10000
X90426Y10000
X91426Y10000
X92426Y10000
X93426Y10000
X94426Y10000
X16692Y18892
X16692Y19892
X16692Y21892
X16692Y22892
X16692Y24892
X16692Y25892
X16692Y27892
X16692Y28892
X16692Y30892
X16692Y31892
X16692Y33892
X16692Y34892
X16692Y36892
X16692Y37892
X16692Y39892
X16692Y40892
X14692Y36642
X14692Y35642
X14692Y34642
X14692Y33642
X14692Y32392
X14692Y31392
X14692Y30392
X14692Y29392
X14692Y28392
X14692Y27392
X14692Y26392
X14692Y25392
X14942Y23892
X14942Y22892
X14942Y21892
X14942Y20892
X11942Y20892
X11942Y21892
X11942Y22892
X11942Y23892
X11692Y25392
X11692Y26392
X11692Y27392
X11692Y28392
X11692Y29392
X11692Y30392
X11692Y31392
X11692Y32392
X11692Y33642
X11692Y34642
X11692Y35642
X11692Y36642
X25702Y18892
X25702Y19892
X25702Y21892
X25702Y22892
X25702Y24892
X25702Y25892
X25702Y27892
X25702Y28892
X25702Y30892
X25702Y31892
X25702Y33892
X25702Y34892
X25702Y36892
X25702Y37892
X25702Y39892
X25702Y40892
X23702Y36642
X23702Y35642
X23702Y34642
X23702Y33642
X23702Y32392
X23702Y31392
X23702Y30392
X23702Y29392
X23702Y28392
X23702Y27392
X23702Y26392
X23702Y25392
X23952Y23892
X23952Y22892
X23952Y21892
X23952Y20892
X20952Y20892
X20952Y21892
X20952Y22892
X20952Y23892
X20702Y25392
X20702Y26392
X20702Y27392
X20702Y28392
X20702Y29392
X20702Y30392
X20702Y31392
X20702Y32392
X20702Y33642
X20702Y34642
X20702Y35642
X20702Y36642
X25702Y42713
X25702Y43713
X25702Y45713
X25702Y46713
X25702Y48713
X25702Y49713
X25702Y51713
X25702Y52713
X25702Y54713
X25702Y55713
X25702Y57713
X25702Y58713
X25702Y60713
X25702Y61713
X25702Y63713
X25702Y64713
X23702Y60463
X23702Y59463
X23702Y58463
X23702Y57463
X23702Y56213
X23702Y55213
X23702Y54213
X23702Y53213
X23702Y52213
X23702Y51213
X23702Y50213
X23702Y49213
X23952Y47713
X23952Y46713
X23952Y45713
X23952Y44713
X20952Y44713
X20952Y45713
X20952Y46713
X20952Y47713
X20702Y49213
X20702Y50213
X20702Y51213
X20702Y52213
X20702Y53213
X20702Y54213
X20702Y55213
X20702Y56213
X20702Y57463
X20702Y58463
X20702Y59463
X20702Y60463
X72338Y33536
X73338Y33536
X75338Y33536
X76338Y33536
X78338Y33536
X79338Y33536
X81338Y33536
X82338Y33536
X84338Y33536
X85338Y33536
X87338Y33536
X88338Y33536
X90338Y33536
X91338Y33536
X93338Y33536
X94338Y33536
X90088Y35536
X89088Y35536
X88088Y35536
X87088Y35536
X85838Y35536
X84838Y35536
X83838Y35536
X82838Y35536
X81838Y35536
X80838Y35536
X79838Y35536
X78838Y35536
X77338Y35286
X76338Y35286
X75338Y35286
X74338Y35286
X74338Y38286
X75338Y38286
X76338Y38286
X77338Y38286
X78838Y38536
X79838Y38536
X80838Y38536
X81838Y38536
X82838Y38536
X83838Y38536
X84838Y38536
X85838Y38536
X87088Y38536
X88088Y38536
X89088Y38536
X90088Y38536
X113392Y2700
X113392Y3700
X113392Y5700
X113392Y6700
X113392Y8700
X113392Y9700
X113392Y11700
X113392Y12700
X113392Y14700
X113392Y15700
X113392Y17700
X113392Y18700
X113392Y20700
X113392Y21700
X113392Y23700
X113392Y24700
X111392Y20450
X111392Y19450
X111392Y18450
X111392Y17450
X111392Y16200
X111392Y15200
X111392Y14200
X111392Y13200
X111392Y12200
X111392Y11200
X111392Y10200
X111392Y9200
X111642Y7700
X111642Y6700
X111642Y5700
X111642Y4700
X108642Y4700
X108642Y5700
X108642Y6700
X108642Y7700
X108392Y9200
X108392Y10200
X108392Y11200
X108392Y12200
X108392Y13200
X108392Y14200
X108392Y15200
X108392Y16200
X108392Y17450
X108392Y18450
X108392Y19450
X108392Y20450
X50342Y50810
X51342Y50810
X53342Y50810
X54342Y50810
X56342Y50810
X57342Y50810
X59342Y50810
X60342Y50810
X62342Y50810
X63342Y50810
X65342Y50810
X66342Y50810
X68342Y50810
X69342Y50810
X71342Y50810
X72342Y50810
X68092Y52810
X67092Y52810
X66092Y52810
X65092Y52810
X63842Y52810
X62842Y52810
X61842Y52810
X60842Y52810
X59842Y52810
X58842Y52810
X57842Y52810
X56842Y52810
X55342Y52560
X54342Y52560
X53342Y52560
X52342Y52560
X52342Y55560
X53342Y55560
X54342Y55560
X55342Y55560
X56842Y55810
X57842Y55810
X58842Y55810
X59842Y55810
X60842Y55810
X61842Y55810
X62842Y55810
X63842Y55810
X65092Y55810
X66092Y55810
X67092Y55810
X68092Y55810
X105296Y24696
X105296Y25696
X105296Y27696
X105296Y28696
X105296Y30696
X105296Y31696
X105296Y33696
X105296Y34696
X105296Y36696
X105296Y37696
X105296Y39696
X105296Y40696
X105296Y42696
X105296Y43696
X105296Y45696
X105296Y46696
X103296Y42446
X103296Y41446
X103296Y40446
X103296Y39446
X103296Y38196
X103296Y37196
X103296Y36196
X103296Y35196
X103296Y34196
X103296Y33196
X103296Y32196
X103296Y31196
X103546Y29696
X103546Y28696
X103546Y27696
X103546Y26696
X100546Y26696
X100546Y27696
X100546Y28696
X100546Y29696
X100296Y31196
X100296Y32196
X100296Y33196
X100296Y34196
X100296Y35196
X100296Y36196
X100296Y37196
X100296Y38196
X100296Y39446
X100296Y40446
X100296Y41446
X100296Y42446
X2700Y66834
X3700Y66834
X5700Y66834
X6700Y66834
X8700Y66834
X9700Y66834
X11700Y66834
X12700Y66834
X14700Y66834
X15700Y66834
X17700Y66834
X18700Y66834
X20700Y66834
X21700Y66834
X23700Y66834
X24700Y66834
X20450Y68834
X19450Y68834
X18450Y68834
X17450Y68834
X16200Y68834
X15200Y68834
X14200Y68834
X13200Y68834
X12200Y68834
X11200Y68834
X10200Y68834
X9200Y68834
X7700Y68584
X6700Y68584
X5700Y68584
X4700Y68584
X4700Y71584
X5700Y71584
X6700Y71584
X7700Y71584
X9200Y71834
X10200Y71834
X11200Y71834
X12200Y71834
X13200Y71834
X14200Y71834
X15200Y71834
X16200Y71834
X17450Y71834
X18450Y71834
X19450Y71834
X20450Y71834
X50342Y58906
X51342Y58906
X53342Y58906
X54342Y58906
X56342Y58906
X57342Y58906
X59342Y58906
X60342Y58906
X62342Y58906
X63342Y58906
X65342Y58906
X66342Y58906
X68342Y58906
X69342Y58906
X71342Y58906
X72342Y58906
X68092Y60906
X67092Y60906
X66092Y60906
X65092Y60906
X63842Y60906
X62842Y60906
X61842Y60906
X60842Y60906
X59842Y60906
X58842Y60906
X57842Y60906
X56842Y60906
X55342Y60656
X54342Y60656
X53342Y60656
X52342Y60656
X52342Y63656
X53342Y63656
X54342Y63656
X55342Y63656
X56842Y63906
X57842Y63906
X58842Y63906
X59842Y63906
X60842Y63906
X61842Y63906
X62842Y63906
X63842Y63906
X65092Y63906
X66092Y63906
X67092Y63906
X68092Y63906
X50342Y67002
X51342Y67002
X53342Y67002
X54342Y67002
X56342Y67002
X57342Y67002
X59342Y67002
X60342Y67002
X62342Y67002
X63342Y67002
X65342Y67002
X66342Y67002
X68342Y67002
X69342Y67002
X71342Y67002
X72342Y67002
X68092Y69002
X67092Y69002
X66092Y69002
X65092Y69002
X63842Y69002
X62842Y69002
X61842Y69002
X60842Y69002
X59842Y69002
X58842Y69002
X57842Y69002
X56842Y69002
X55342Y68752
X54342Y68752
X53342Y68752
X52342Y68752
X52342Y71752
X53342Y71752
X54342Y71752
X55342Y71752
X56842Y72002
X57842Y72002
X58842Y72002
X59842Y72002
X60842Y72002
X61842Y72002
X62842Y72002
X63842Y72002
X65092Y72002
X66092Y72002
X67092Y72002
X68092Y72002
X72338Y41632
X73338Y41632
X75338Y41632
X76338Y41632
X78338Y41632
X79338Y41632
X81338Y41632
X82338Y41632
X84338Y41632
X85338Y41632
X87338Y41632
X88338Y41632
X90338Y41632
X91338Y41632
X93338Y41632
X94338Y41632
X90088Y43632
X89088Y43632
X88088Y43632
X87088Y43632
X85838Y43632
X84838Y43632
X83838Y43632
X82838Y43632
X81838Y43632
X80838Y43632
X79838Y43632
X78838Y43632
X77338Y43382
X76338Y43382
X75338Y43382
X74338Y43382
X74338Y46382
X75338Y46382
X76338Y46382
X77338Y46382
X78838Y46632
X79838Y46632
X80838Y46632
X81838Y46632
X82838Y46632
X83838Y46632
X84838Y46632
X85838Y46632
X87088Y46632
X88088Y46632
X89088Y46632
X90088Y46632
X17606Y42713
X17606Y43713
X17606Y45713
X17606Y46713
X17606Y48713
X17606Y49713
X17606Y51713
X17606Y52713
X17606Y54713
X17606Y55713
X17606Y57713
X17606Y58713
X17606Y60713
X17606Y61713
X17606Y63713
X17606Y64713
X15606Y60463
X15606Y59463
X15606Y58463
X15606Y57463
X15606Y56213
X15606Y55213
X15606Y54213
X15606Y53213
X15606Y52213
X15606Y51213
X15606Y50213
X15606Y49213
X15856Y47713
X15856Y46713
X15856Y45713
X15856Y44713
X12856Y44713
X12856Y45713
X12856Y46713
X12856Y47713
X12606Y49213
X12606Y50213
X12606Y51213
X12606Y52213
X12606Y53213
X12606Y54213
X12606Y55213
X12606Y56213
X12606Y57463
X12606Y58463
X12606Y59463
X12606Y60463
X80959Y68228
X79959Y68228
X78959Y68228
X77959Y68228
X76959Y68228
X76959Y62228
X77959Y62228
X78959Y62228
X79959Y62228
X80959Y62228
X86959Y62728
X86959Y63728
X86959Y64728
X86959Y65728
X89959Y65728
X89959Y64728
X89959Y63728
X89959Y62728
X89959Y61728
X89959Y60728
X89959Y59728
X89959Y58728
X89959Y57728
X89959Y56728
X89959Y55728
X89959Y54728
X89959Y53728
X89959Y52728
X86959Y52728
X86959Y53728
X86959Y54728
X86959Y55728
X86959Y56728
X86959Y57728
X86959Y58728
X86959Y59728
X86959Y60728
X86959Y61728
X102055Y48517
X102055Y49517
X102055Y51517
X102055Y52517
X102055Y54517
X102055Y55517
X102055Y57517
X102055Y58517
X102055Y60517
X102055Y61517
X102055Y63517
X102055Y64517
X102055Y66517
X102055Y67517
X102055Y69517
X102055Y70517
X100055Y66267
X100055Y65267
X100055Y64267
X100055Y63267
X100055Y62017
X100055Y61017
X100055Y60017
X100055Y59017
X100055Y58017
X100055Y57017
X100055Y56017
X100055Y55017
X100305Y53517
X100305Y52517
X100305Y51517
X100305Y50517
X97305Y50517
X97305Y51517
X97305Y52517
X97305Y53517
X97055Y55017
X97055Y56017
X97055Y57017
X97055Y58017
X97055Y59017
X97055Y60017
X97055Y61017
X97055Y62017
X97055Y63267
X97055Y64267
X97055Y65267
X97055Y66267
X110151Y48517
X110151Y49517
X110151Y51517
X110151Y52517
X110151Y54517
X110151Y55517
X110151Y57517
X110151Y58517
X110151Y60517
X110151Y61517
X110151Y63517
X110151Y64517
X110151Y66517
X110151Y67517
X110151Y69517
X110151Y70517
X108151Y66267
X108151Y65267
X108151Y64267
X108151Y63267
X108151Y62017
X108151Y61017
X108151Y60017
X108151Y59017
X108151Y58017
X108151Y57017
X108151Y56017
X108151Y55017
X108401Y53517
X108401Y52517
X108401Y51517
X108401Y50517
X105401Y50517
X105401Y51517
X105401Y52517
X105401Y53517
X105151Y55017
X105151Y56017
X105151Y57017
X105151Y58017
X105151Y59017
X105151Y60017
X105151Y61017
X105151Y62017
X105151Y63267
X105151Y64267
X105151Y65267
X105151Y66267
T04C0.039700
X21700Y8000
X21700Y7000
X21700Y6000
X21700Y5000
X21700Y4000
X21700Y9000
X3450Y9000
X3450Y8000
X3450Y7000
X3450Y6000
X3450Y5000
X3450Y4000
X45521Y8000
X45521Y7000
X45521Y6000
X45521Y5000
X45521Y4000
X45521Y9000
X27271Y9000
X27271Y8000
X27271Y7000
X27271Y6000
X27271Y5000
X27271Y4000
X59912Y22118
X60912Y22118
X60912Y21118
X59912Y21118
X61062Y19518
X61062Y18518
X61062Y17518
X61062Y16518
X61062Y15518
X61062Y14518
X59407Y14513
X59407Y13513
X59407Y12513
X61062Y12518
X61062Y11518
X61062Y10518
X61062Y9518
X63162Y9518
X63162Y10518
X63162Y11518
X63162Y12518
X63162Y14518
X63162Y15518
X63162Y16518
X63162Y17518
X63162Y18518
X63162Y19518
X63258Y21933
X64258Y21933
X65258Y21933
X66258Y21933
X67258Y21933
X68258Y21933
X69258Y21933
X70258Y21933
X69937Y22933
X68937Y22933
X67937Y22933
X66937Y22933
X65937Y22933
X64937Y22933
X63937Y22933
X62937Y22933
X60912Y23118
X59912Y23118
X71937Y22933
X72937Y22933
X73937Y22933
X74937Y22933
X75937Y22933
X76937Y22933
X77937Y22933
X78937Y22933
X78938Y21933
X77938Y21933
X76938Y21933
X75938Y21933
X74938Y21933
X73938Y21933
X72938Y21933
X71938Y21933
X78998Y14903
X79998Y14903
X79998Y13903
X78998Y13903
X78998Y12903
X79998Y12903
X76975Y12183
X76975Y13963
X74415Y13963
X74415Y12183
X74818Y3923
X73818Y3923
X73817Y2923
X74817Y2923
X75817Y2923
X76817Y2923
X77817Y2923
X78817Y2923
X78818Y3923
X77818Y3923
X76818Y3923
X75818Y3923
X71846Y3903
X70846Y3903
X69846Y3903
X68846Y3903
X67846Y3903
X66846Y3903
X66847Y2903
X67847Y2903
X68847Y2903
X69847Y2903
X70847Y2903
X71847Y2903
X21700Y16096
X21700Y15096
X21700Y14096
X21700Y13096
X21700Y12096
X21700Y17096
X3450Y17096
X3450Y16096
X3450Y15096
X3450Y14096
X3450Y13096
X3450Y12096
X29024Y20366
X29024Y21366
X30024Y21366
X30024Y20366
X31624Y21516
X32624Y21516
X33624Y21516
X34624Y21516
X35624Y21516
X36624Y21516
X36629Y19861
X37629Y19861
X38629Y19861
X38624Y21516
X39624Y21516
X40624Y21516
X41624Y21516
X41624Y23616
X40624Y23616
X39624Y23616
X38624Y23616
X36624Y23616
X35624Y23616
X34624Y23616
X33624Y23616
X32624Y23616
X31624Y23616
X29209Y23712
X29209Y24712
X29209Y25712
X29209Y26712
X29209Y27712
X29209Y28712
X29209Y29712
X29209Y30712
X28209Y30391
X28209Y29391
X28209Y28391
X28209Y27391
X28209Y26391
X28209Y25391
X28209Y24391
X28209Y23391
X28024Y21366
X28024Y20366
X28209Y32391
X28209Y33391
X28209Y34391
X28209Y35391
X28209Y36391
X28209Y37391
X28209Y38391
X28209Y39391
X29209Y39392
X29209Y38392
X29209Y37392
X29209Y36392
X29209Y35392
X29209Y34392
X29209Y33392
X29209Y32392
X36239Y39452
X36239Y40452
X37239Y40452
X37239Y39452
X38239Y39452
X38239Y40452
X38959Y37429
X37179Y37429
X37179Y34869
X38959Y34869
X47219Y35272
X47219Y34272
X48219Y34271
X48219Y35271
X48219Y36271
X48219Y37271
X48219Y38271
X48219Y39271
X47219Y39272
X47219Y38272
X47219Y37272
X47219Y36272
X47239Y32300
X47239Y31300
X47239Y30300
X47239Y29300
X47239Y28300
X47239Y27300
X48239Y27301
X48239Y28301
X48239Y29301
X48239Y30301
X48239Y31301
X48239Y32301
X3596Y37892
X4596Y37892
X5596Y37892
X6596Y37892
X7596Y37892
X2596Y37892
X2596Y19642
X3596Y19642
X4596Y19642
X5596Y19642
X6596Y19642
X7596Y19642
X70138Y25940
X70138Y26940
X70138Y29440
X70138Y30440
X70138Y31440
X70138Y32440
X70138Y33440
X70138Y34440
X70138Y36440
X70138Y37440
X70138Y38440
X70138Y39440
X70138Y40440
X70138Y41440
X61918Y32330
X61918Y30550
X59358Y30550
X58418Y30550
X58418Y29330
X58418Y27550
X58138Y25440
X57138Y25440
X56138Y25440
X55138Y25440
X54138Y25440
X55858Y27550
X55858Y29330
X55858Y30550
X54918Y30550
X54918Y32330
X55858Y32330
X55858Y33550
X55858Y35330
X58418Y35330
X58858Y37050
X58858Y38830
X59158Y41495
X59158Y42495
X60158Y42495
X61158Y42495
X61158Y41495
X60158Y41495
X61418Y38830
X61418Y37050
X58418Y33550
X58418Y32330
X59358Y32330
X59138Y25440
X52358Y30550
X51138Y30840
X51138Y31840
X51138Y32840
X52358Y32330
X51138Y34440
X51138Y35440
X51138Y36440
X51138Y37440
X51138Y38440
X51138Y39440
X51138Y40440
X51138Y41440
X52638Y47940
X53638Y47940
X54638Y47940
X55638Y47940
X56638Y47940
X57638Y47940
X51138Y29840
X51138Y28840
X51138Y27840
X51138Y26840
X51138Y25840
X63122Y48196
X62138Y48196
X61154Y48196
X66654Y48196
X67638Y48196
X68622Y48196
X91338Y30440
X91338Y29440
X91338Y28440
X91338Y27440
X91338Y26440
X91338Y31440
X73088Y31440
X73088Y30440
X73088Y29440
X73088Y28440
X73088Y27440
X73088Y26440
X3596Y61713
X4596Y61713
X5596Y61713
X6596Y61713
X7596Y61713
X2596Y61713
X2596Y43463
X3596Y43463
X4596Y43463
X5596Y43463
X6596Y43463
X7596Y43463
X29024Y52150
X29024Y53150
X30024Y53150
X30024Y52150
X31624Y53300
X32624Y53300
X33624Y53300
X34624Y53300
X35624Y53300
X36624Y53300
X36629Y51645
X37629Y51645
X38629Y51645
X38624Y53300
X39624Y53300
X40624Y53300
X41624Y53300
X41624Y55400
X40624Y55400
X39624Y55400
X38624Y55400
X36624Y55400
X35624Y55400
X34624Y55400
X33624Y55400
X32624Y55400
X31624Y55400
X29209Y55496
X29209Y56496
X29209Y57496
X29209Y58496
X29209Y59496
X29209Y60496
X29209Y61496
X29209Y62496
X28209Y62175
X28209Y61175
X28209Y60175
X28209Y59175
X28209Y58175
X28209Y57175
X28209Y56175
X28209Y55175
X28024Y53150
X28024Y52150
X28209Y64175
X28209Y65175
X28209Y66175
X28209Y67175
X28209Y68175
X28209Y69175
X28209Y70175
X28209Y71175
X29209Y71176
X29209Y70176
X29209Y69176
X29209Y68176
X29209Y67176
X29209Y66176
X29209Y65176
X29209Y64176
X36239Y71236
X36239Y72236
X37239Y72236
X37239Y71236
X38239Y71236
X38239Y72236
X38959Y69213
X37179Y69213
X37179Y66653
X38959Y66653
X47219Y67056
X47219Y66056
X48219Y66055
X48219Y67055
X48219Y68055
X48219Y69055
X48219Y70055
X48219Y71055
X47219Y71056
X47219Y70056
X47219Y69056
X47219Y68056
X47239Y64084
X47239Y63084
X47239Y62084
X47239Y61084
X47239Y60084
X47239Y59084
X48239Y59085
X48239Y60085
X48239Y61085
X48239Y62085
X48239Y63085
X48239Y64085
X82926Y3000
X83926Y3000
X86426Y3000
X87426Y3000
X88426Y3000
X89426Y3000
X90426Y3000
X91426Y3000
X93426Y3000
X94426Y3000
X95426Y3000
X96426Y3000
X97426Y3000
X98426Y3000
X89316Y11220
X87536Y11220
X87536Y13780
X87536Y14720
X86316Y14720
X84536Y14720
X82426Y15000
X82426Y16000
X82426Y17000
X82426Y18000
X82426Y19000
X84536Y17280
X86316Y17280
X87536Y17280
X87536Y18220
X89316Y18220
X89316Y17280
X90536Y17280
X92316Y17280
X92316Y14720
X94036Y14280
X95816Y14280
X98481Y13980
X99481Y13980
X99481Y12980
X99481Y11980
X98481Y11980
X98481Y12980
X95816Y11720
X94036Y11720
X90536Y14720
X89316Y14720
X89316Y13780
X82426Y14000
X87536Y20780
X87826Y22000
X88826Y22000
X89826Y22000
X89316Y20780
X91426Y22000
X92426Y22000
X93426Y22000
X94426Y22000
X95426Y22000
X96426Y22000
X97426Y22000
X98426Y22000
X104926Y20500
X104926Y19500
X104926Y18500
X104926Y17500
X104926Y16500
X104926Y15500
X86826Y22000
X85826Y22000
X84826Y22000
X83826Y22000
X82826Y22000
X105182Y10016
X105182Y11000
X105182Y11984
X105182Y6484
X105182Y5500
X105182Y4516
X11692Y37892
X12692Y37892
X13692Y37892
X14692Y37892
X15692Y37892
X10692Y37892
X10692Y19642
X11692Y19642
X12692Y19642
X13692Y19642
X14692Y19642
X15692Y19642
X20702Y37892
X21702Y37892
X22702Y37892
X23702Y37892
X24702Y37892
X19702Y37892
X19702Y19642
X20702Y19642
X21702Y19642
X22702Y19642
X23702Y19642
X24702Y19642
X20702Y61713
X21702Y61713
X22702Y61713
X23702Y61713
X24702Y61713
X19702Y61713
X19702Y43463
X20702Y43463
X21702Y43463
X22702Y43463
X23702Y43463
X24702Y43463
X91338Y38536
X91338Y37536
X91338Y36536
X91338Y35536
X91338Y34536
X91338Y39536
X73088Y39536
X73088Y38536
X73088Y37536
X73088Y36536
X73088Y35536
X73088Y34536
X108392Y21700
X109392Y21700
X110392Y21700
X111392Y21700
X112392Y21700
X107392Y21700
X107392Y3450
X108392Y3450
X109392Y3450
X110392Y3450
X111392Y3450
X112392Y3450
X69342Y55810
X69342Y54810
X69342Y53810
X69342Y52810
X69342Y51810
X69342Y56810
X51092Y56810
X51092Y55810
X51092Y54810
X51092Y53810
X51092Y52810
X51092Y51810
X100296Y43696
X101296Y43696
X102296Y43696
X103296Y43696
X104296Y43696
X99296Y43696
X99296Y25446
X100296Y25446
X101296Y25446
X102296Y25446
X103296Y25446
X104296Y25446
X21700Y71834
X21700Y70834
X21700Y69834
X21700Y68834
X21700Y67834
X21700Y72834
X3450Y72834
X3450Y71834
X3450Y70834
X3450Y69834
X3450Y68834
X3450Y67834
X69342Y63906
X69342Y62906
X69342Y61906
X69342Y60906
X69342Y59906
X69342Y64906
X51092Y64906
X51092Y63906
X51092Y62906
X51092Y61906
X51092Y60906
X51092Y59906
X69342Y72002
X69342Y71002
X69342Y70002
X69342Y69002
X69342Y68002
X69342Y73002
X51092Y73002
X51092Y72002
X51092Y71002
X51092Y70002
X51092Y69002
X51092Y68002
X91338Y46632
X91338Y45632
X91338Y44632
X91338Y43632
X91338Y42632
X91338Y47632
X73088Y47632
X73088Y46632
X73088Y45632
X73088Y44632
X73088Y43632
X73088Y42632
X12606Y61713
X13606Y61713
X14606Y61713
X15606Y61713
X16606Y61713
X11606Y61713
X11606Y43463
X12606Y43463
X13606Y43463
X14606Y43463
X15606Y43463
X16606Y43463
X93959Y50228
X93959Y51228
X93959Y53728
X93959Y54728
X93959Y55728
X93959Y56728
X93959Y57728
X93959Y58728
X93959Y60728
X93959Y61728
X93959Y62728
X93959Y63728
X93959Y64728
X93959Y65728
X85739Y56618
X85739Y54838
X83179Y54838
X82239Y54838
X82239Y53618
X82239Y51838
X81959Y49728
X80959Y49728
X79959Y49728
X78959Y49728
X77959Y49728
X79679Y51838
X79679Y53618
X79679Y54838
X78739Y54838
X78739Y56618
X79679Y56618
X79679Y57838
X79679Y59618
X82239Y59618
X82679Y61338
X82679Y63118
X82979Y65783
X82979Y66783
X83979Y66783
X84979Y66783
X84979Y65783
X83979Y65783
X85239Y63118
X85239Y61338
X82239Y57838
X82239Y56618
X83179Y56618
X82959Y49728
X76179Y54838
X74959Y55128
X74959Y56128
X74959Y57128
X76179Y56618
X74959Y58728
X74959Y59728
X74959Y60728
X74959Y61728
X74959Y62728
X74959Y63728
X74959Y64728
X74959Y65728
X76459Y72228
X77459Y72228
X78459Y72228
X79459Y72228
X80459Y72228
X81459Y72228
X74959Y54128
X74959Y53128
X74959Y52128
X74959Y51128
X74959Y50128
X86943Y72484
X85959Y72484
X84975Y72484
X90475Y72484
X91459Y72484
X92443Y72484
X97055Y67517
X98055Y67517
X99055Y67517
X100055Y67517
X101055Y67517
X96055Y67517
X96055Y49267
X97055Y49267
X98055Y49267
X99055Y49267
X100055Y49267
X101055Y49267
X105151Y67517
X106151Y67517
X107151Y67517
X108151Y67517
X109151Y67517
X104151Y67517
X104151Y49267
X105151Y49267
X106151Y49267
X107151Y49267
X108151Y49267
X109151Y49267
T05C0.047200
X62162Y3118
X62162Y3818
X62162Y4518
X62162Y5218
X62162Y5918
X62162Y6618
X62162Y7318
X62162Y8018
X62162Y8718
X58643Y7327
X54643Y7327
X62162Y2418
X58362Y13518
X57662Y13518
X56962Y13518
X56262Y13518
X55562Y13518
X54862Y13518
X54162Y13518
X53462Y13518
X52762Y13518
X52062Y13518
X51362Y13518
X50662Y13518
X49962Y13518
X62162Y20118
X62162Y20818
X62162Y21518
X62162Y22218
X62162Y22918
X62162Y23618
X48024Y22616
X47324Y22616
X46624Y22616
X45924Y22616
X45224Y22616
X44524Y22616
X43824Y22616
X43124Y22616
X42424Y22616
X43815Y19097
X43815Y15097
X48724Y22616
X37624Y18816
X37624Y18116
X37624Y17416
X37624Y16716
X37624Y16016
X37624Y15316
X37624Y14616
X37624Y13916
X37624Y13216
X37624Y12516
X37624Y11816
X37624Y11116
X37624Y10416
X31024Y22616
X30324Y22616
X29624Y22616
X28924Y22616
X28224Y22616
X27524Y22616
X48024Y54400
X47324Y54400
X46624Y54400
X45924Y54400
X45224Y54400
X44524Y54400
X43824Y54400
X43124Y54400
X42424Y54400
X43815Y50881
X43815Y46881
X48724Y54400
X37624Y50600
X37624Y49900
X37624Y49200
X37624Y48500
X37624Y47800
X37624Y47100
X37624Y46400
X37624Y45700
X37624Y45000
X37624Y44300
X37624Y43600
X37624Y42900
X37624Y42200
X31024Y54400
X30324Y54400
X29624Y54400
X28924Y54400
X28224Y54400
X27524Y54400
T06C0.078700
X60406Y45440
X63870Y45440
X65906Y45440
X69370Y45440
X102426Y12732
X102426Y9268
X102426Y7232
X102426Y3768
X84227Y69728
X87691Y69728
X89727Y69728
X93191Y69728
T07C0.125000
X67638Y26440
X83426Y5500
X91459Y50728
T08C0.130000
X53631Y6232
X51271Y6232
X52451Y4262
X44910Y14085
X44910Y11725
X46880Y12905
X44910Y45869
X44910Y43509
X46880Y44689
M30
