%
T01C0.021650
X76532Y2618
X79232Y2618
X82032Y2618
X85232Y2618
X89532Y3118
X83832Y6718
X83832Y8518
X86382Y8318
X84812Y10568
X84817Y11478
X83532Y11518
X83032Y11518
X82532Y11518
X82532Y12018
X83032Y12018
X83532Y12018
X83532Y12518
X83032Y12518
X82532Y12518
X82032Y12518
X81532Y12518
X81032Y12518
X80532Y12518
X80032Y12518
X79532Y12518
X79032Y12518
X78532Y12518
X78032Y12518
X77532Y12518
X77032Y12518
X76532Y12518
X76032Y12518
X75532Y12518
X75532Y11118
X76032Y11118
X76532Y11118
X77032Y11118
X77532Y11118
X78032Y11118
X78532Y11118
X77532Y10118
X77032Y10118
X76532Y10118
X76032Y10118
X75532Y10118
X75532Y9618
X76032Y9618
X76532Y9618
X77032Y9618
X77532Y9618
X77532Y9118
X77032Y9118
X76532Y9118
X76032Y9118
X75532Y9118
X81032Y11018
X81032Y11518
X81032Y12018
X81532Y12018
X82032Y12018
X82032Y11518
X81532Y11518
X81532Y11018
X82032Y11018
X82532Y11018
X83032Y11018
X83532Y11018
X85732Y13518
X86332Y13518
X86932Y13518
X87532Y13518
X82072Y14233
X79572Y15533
X78232Y14518
X78232Y18518
X77232Y18718
X76732Y21618
X76732Y23518
X85532Y19918
X85532Y18418
X91132Y18518
X96332Y23418
X104368Y20482
X105132Y17618
X105232Y11118
X105032Y4818
X128118Y34837
X128118Y37537
X128118Y40337
X128118Y43537
X127618Y47837
X124018Y42137
X122218Y42137
X122418Y44687
X120168Y43117
X119258Y43122
X119218Y41837
X119218Y41337
X119218Y40837
X118718Y40837
X118718Y41337
X118718Y41837
X118218Y41837
X118218Y41337
X118218Y40837
X118218Y40337
X118218Y39837
X118218Y39337
X118218Y38837
X118218Y38337
X118218Y37837
X118218Y37337
X118218Y36837
X118218Y36337
X118218Y35837
X118218Y35337
X118218Y34837
X118218Y34337
X118218Y33837
X119618Y33837
X119618Y34337
X119618Y34837
X119618Y35337
X119618Y35837
X119618Y36337
X119618Y36837
X120618Y35837
X120618Y35337
X120618Y34837
X120618Y34337
X120618Y33837
X121118Y33837
X121118Y34337
X121118Y34837
X121118Y35337
X121118Y35837
X121618Y35837
X121618Y35337
X121618Y34837
X121618Y34337
X121618Y33837
X119718Y39337
X119218Y39337
X118718Y39337
X118718Y39837
X118718Y40337
X119218Y40337
X119218Y39837
X119718Y39837
X119718Y40337
X119718Y40837
X119718Y41337
X119718Y41837
X117218Y44037
X117218Y44637
X117218Y45237
X117218Y45837
X116503Y40377
X115203Y37877
X116218Y36537
X112218Y36537
X112018Y35537
X109118Y35037
X107218Y35037
X110818Y43837
X112318Y43837
X112218Y49437
X107318Y54637
X110254Y62673
X113118Y63437
X119618Y63537
X125918Y63337
T02C0.024000
X9200Y6800
X10400Y6800
X19700Y3600
X20100Y4100
X28961Y9280
X27281Y12480
X32081Y12480
X33281Y13120
X34641Y11920
X32641Y15840
X36961Y16400
X38001Y17600
X42401Y19840
X41201Y11680
X48721Y11120
X58391Y6800
X59591Y6800
X68891Y3600
X69291Y4100
X58391Y14296
X59591Y14296
X68891Y11096
X69291Y11596
X93832Y8018
X94032Y9318
X90832Y12018
X91532Y12918
X91432Y13818
X91132Y14918
X93132Y14518
X94132Y15518
X95032Y16518
X95032Y17518
X93132Y18618
X92532Y19118
X92932Y17918
X89732Y17518
X87532Y17518
X87532Y18518
X87532Y19518
X87532Y16518
X87532Y15518
X87532Y14518
X87532Y14018
X87532Y13018
X87532Y12518
X87532Y11518
X87532Y10518
X87532Y9518
X91432Y6018
X85432Y15318
X84532Y15818
X79732Y20918
X79732Y21918
X99632Y21118
X99632Y20418
X99632Y19618
X99632Y18718
X99632Y17818
X102532Y17818
X103832Y18718
X102632Y19618
X53387Y24192
X53387Y25392
X56587Y34692
X56087Y35092
X60883Y24192
X60883Y25392
X64083Y34692
X63583Y35092
X34570Y28796
X35770Y28796
X45070Y25596
X45470Y26096
X20521Y16696
X20521Y17896
X23721Y27196
X23221Y27596
X113996Y6800
X115196Y6800
X124496Y3600
X124896Y4100
X34570Y36292
X35770Y36292
X45070Y33092
X45470Y33592
X108992Y16696
X108992Y17896
X112192Y27196
X111692Y27596
X68379Y24192
X68379Y25392
X71579Y34692
X71079Y35092
X28961Y46268
X27281Y49468
X32081Y49468
X33281Y50108
X34641Y48908
X32641Y52828
X36961Y53388
X38001Y54588
X42401Y56828
X41201Y48668
X48721Y48108
X101496Y31640
X101496Y32840
X104696Y42140
X104196Y42540
X18041Y36457
X14841Y34777
X14841Y39577
X14201Y40777
X15401Y42137
X11481Y40137
X10921Y44457
X9721Y45497
X7481Y49897
X15641Y48697
X16201Y56217
X13025Y16696
X13025Y17896
X16225Y27196
X15725Y27596
X53387Y48013
X53387Y49213
X56587Y58513
X56087Y58913
X4196Y16696
X4196Y17896
X7396Y27196
X6896Y27596
X9200Y63487
X10400Y63487
X19700Y60287
X20100Y60787
X33021Y65784
X34221Y65784
X43521Y62584
X43921Y63084
X122718Y52137
X121418Y52337
X118718Y49137
X117818Y49837
X116918Y49737
X115818Y49437
X116218Y51437
X115218Y52437
X114218Y53337
X113218Y53337
X112118Y51437
X111618Y50837
X112818Y51237
X113218Y48037
X113218Y45837
X112218Y45837
X111218Y45837
X114218Y45837
X115218Y45837
X116218Y45837
X116718Y45837
X117718Y45837
X118218Y45837
X119218Y45837
X120218Y45837
X121218Y45837
X124718Y49737
X115418Y43737
X114918Y42837
X109818Y38037
X108818Y38037
X109618Y57937
X110318Y57937
X111118Y57937
X112018Y57937
X112918Y57937
X112918Y60837
X112018Y62137
X111118Y60937
X56842Y69434
X58042Y69434
X67342Y66234
X67742Y66734
X75875Y31640
X75875Y32840
X79075Y42140
X78575Y42540
X116488Y16696
X116488Y17896
X119688Y27196
X119188Y27596
X33021Y73280
X34221Y73280
X43521Y70080
X43921Y70580
X56842Y76930
X58042Y76930
X67342Y73730
X67742Y74230
X9200Y73280
X10400Y73280
X19700Y70080
X20100Y70580
X83371Y31640
X83371Y32840
X86571Y42140
X86071Y42540
X60883Y48013
X60883Y49213
X64083Y58513
X63583Y58913
X90175Y53061
X91375Y53061
X100675Y49861
X101075Y50361
X90175Y60557
X91375Y60557
X100675Y57357
X101075Y57857
X90175Y68053
X91375Y68053
X100675Y64853
X101075Y65353
X113996Y69901
X115196Y69901
X124496Y66701
X124896Y67201
X94000Y31640
X94000Y32840
X97200Y42140
X96700Y42540
X90175Y75549
X91375Y75549
X100675Y72349
X101075Y72849
X123984Y16696
X123984Y17896
X127184Y27196
X126684Y27596
X113996Y77397
X115196Y77397
X124496Y74197
X124896Y74697
X68379Y48013
X68379Y49213
X71579Y58513
X71079Y58913
X75875Y55461
X75875Y56661
X79075Y65961
X78575Y66361
T03C0.033450
X2700Y3000
X3700Y3000
X5700Y3000
X6700Y3000
X8700Y3000
X9700Y3000
X11700Y3000
X12700Y3000
X14700Y3000
X15700Y3000
X17700Y3000
X18700Y3000
X20700Y3000
X21700Y3000
X23700Y3000
X24700Y3000
X20450Y5000
X19450Y5000
X18450Y5000
X17450Y5000
X16200Y5000
X15200Y5000
X14200Y5000
X13200Y5000
X12200Y5000
X11200Y5000
X10200Y5000
X9200Y5000
X7700Y4750
X6700Y4750
X5700Y4750
X4700Y4750
X4700Y7750
X5700Y7750
X6700Y7750
X7700Y7750
X9200Y8000
X10200Y8000
X11200Y8000
X12200Y8000
X13200Y8000
X14200Y8000
X15200Y8000
X16200Y8000
X17450Y8000
X18450Y8000
X19450Y8000
X20450Y8000
X45321Y16000
X45321Y17000
X45321Y18000
X45321Y19000
X45321Y20000
X39321Y20000
X39321Y19000
X39321Y18000
X39321Y17000
X39321Y16000
X39821Y10000
X40821Y10000
X41821Y10000
X42821Y10000
X42821Y7000
X41821Y7000
X40821Y7000
X39821Y7000
X38821Y7000
X37821Y7000
X36821Y7000
X35821Y7000
X34821Y7000
X33821Y7000
X32821Y7000
X31821Y7000
X30821Y7000
X29821Y7000
X29821Y10000
X30821Y10000
X31821Y10000
X32821Y10000
X33821Y10000
X34821Y10000
X35821Y10000
X36821Y10000
X37821Y10000
X38821Y10000
X51891Y3000
X52891Y3000
X54891Y3000
X55891Y3000
X57891Y3000
X58891Y3000
X60891Y3000
X61891Y3000
X63891Y3000
X64891Y3000
X66891Y3000
X67891Y3000
X69891Y3000
X70891Y3000
X72891Y3000
X73891Y3000
X69641Y5000
X68641Y5000
X67641Y5000
X66641Y5000
X65391Y5000
X64391Y5000
X63391Y5000
X62391Y5000
X61391Y5000
X60391Y5000
X59391Y5000
X58391Y5000
X56891Y4750
X55891Y4750
X54891Y4750
X53891Y4750
X53891Y7750
X54891Y7750
X55891Y7750
X56891Y7750
X58391Y8000
X59391Y8000
X60391Y8000
X61391Y8000
X62391Y8000
X63391Y8000
X64391Y8000
X65391Y8000
X66641Y8000
X67641Y8000
X68641Y8000
X69641Y8000
X51891Y10496
X52891Y10496
X54891Y10496
X55891Y10496
X57891Y10496
X58891Y10496
X60891Y10496
X61891Y10496
X63891Y10496
X64891Y10496
X66891Y10496
X67891Y10496
X69891Y10496
X70891Y10496
X72891Y10496
X73891Y10496
X69641Y12496
X68641Y12496
X67641Y12496
X66641Y12496
X65391Y12496
X64391Y12496
X63391Y12496
X62391Y12496
X61391Y12496
X60391Y12496
X59391Y12496
X58391Y12496
X56891Y12246
X55891Y12246
X54891Y12246
X53891Y12246
X53891Y15246
X54891Y15246
X55891Y15246
X56891Y15246
X58391Y15496
X59391Y15496
X60391Y15496
X61391Y15496
X62391Y15496
X63391Y15496
X64391Y15496
X65391Y15496
X66641Y15496
X67641Y15496
X68641Y15496
X69641Y15496
X76782Y20802
X76782Y22534
X104520Y7144
X103520Y7144
X102520Y7144
X101520Y7144
X100520Y7144
X99520Y7144
X98520Y7144
X97520Y7144
X96520Y7144
X95520Y7144
X94520Y7144
X93520Y7144
X92520Y7144
X91520Y7144
X91520Y10144
X92520Y10144
X93520Y10144
X94520Y10144
X95520Y10144
X96520Y10144
X97520Y10144
X98520Y10144
X99520Y10144
X100520Y10144
X101520Y10144
X102520Y10144
X103520Y10144
X104520Y10144
X96328Y12305
X96328Y14205
X83532Y14368
X83532Y15368
X83532Y16368
X83532Y17368
X83532Y18368
X83532Y19368
X83532Y20368
X83532Y21368
X83532Y22368
X83532Y23368
X80532Y23368
X80532Y22368
X80532Y21368
X80532Y20368
X80532Y19368
X80532Y18368
X80532Y17368
X80532Y16368
X80532Y15368
X80532Y14368
X78232Y15568
X78232Y17468
X87532Y19018
X87532Y18018
X87532Y17018
X87532Y16018
X87532Y15018
X87532Y12018
X87532Y11018
X87532Y10018
X96232Y8718
X105332Y5818
X57187Y17692
X57187Y18692
X57187Y20692
X57187Y21692
X57187Y23692
X57187Y24692
X57187Y26692
X57187Y27692
X57187Y29692
X57187Y30692
X57187Y32692
X57187Y33692
X57187Y35692
X57187Y36692
X57187Y38692
X57187Y39692
X55187Y35442
X55187Y34442
X55187Y33442
X55187Y32442
X55187Y31192
X55187Y30192
X55187Y29192
X55187Y28192
X55187Y27192
X55187Y26192
X55187Y25192
X55187Y24192
X55437Y22692
X55437Y21692
X55437Y20692
X55437Y19692
X52437Y19692
X52437Y20692
X52437Y21692
X52437Y22692
X52187Y24192
X52187Y25192
X52187Y26192
X52187Y27192
X52187Y28192
X52187Y29192
X52187Y30192
X52187Y31192
X52187Y32442
X52187Y33442
X52187Y34442
X52187Y35442
X64683Y17692
X64683Y18692
X64683Y20692
X64683Y21692
X64683Y23692
X64683Y24692
X64683Y26692
X64683Y27692
X64683Y29692
X64683Y30692
X64683Y32692
X64683Y33692
X64683Y35692
X64683Y36692
X64683Y38692
X64683Y39692
X62683Y35442
X62683Y34442
X62683Y33442
X62683Y32442
X62683Y31192
X62683Y30192
X62683Y29192
X62683Y28192
X62683Y27192
X62683Y26192
X62683Y25192
X62683Y24192
X62933Y22692
X62933Y21692
X62933Y20692
X62933Y19692
X59933Y19692
X59933Y20692
X59933Y21692
X59933Y22692
X59683Y24192
X59683Y25192
X59683Y26192
X59683Y27192
X59683Y28192
X59683Y29192
X59683Y30192
X59683Y31192
X59683Y32442
X59683Y33442
X59683Y34442
X59683Y35442
X28070Y24996
X29070Y24996
X31070Y24996
X32070Y24996
X34070Y24996
X35070Y24996
X37070Y24996
X38070Y24996
X40070Y24996
X41070Y24996
X43070Y24996
X44070Y24996
X46070Y24996
X47070Y24996
X49070Y24996
X50070Y24996
X45820Y26996
X44820Y26996
X43820Y26996
X42820Y26996
X41570Y26996
X40570Y26996
X39570Y26996
X38570Y26996
X37570Y26996
X36570Y26996
X35570Y26996
X34570Y26996
X33070Y26746
X32070Y26746
X31070Y26746
X30070Y26746
X30070Y29746
X31070Y29746
X32070Y29746
X33070Y29746
X34570Y29996
X35570Y29996
X36570Y29996
X37570Y29996
X38570Y29996
X39570Y29996
X40570Y29996
X41570Y29996
X42820Y29996
X43820Y29996
X44820Y29996
X45820Y29996
X24321Y10196
X24321Y11196
X24321Y13196
X24321Y14196
X24321Y16196
X24321Y17196
X24321Y19196
X24321Y20196
X24321Y22196
X24321Y23196
X24321Y25196
X24321Y26196
X24321Y28196
X24321Y29196
X24321Y31196
X24321Y32196
X22321Y27946
X22321Y26946
X22321Y25946
X22321Y24946
X22321Y23696
X22321Y22696
X22321Y21696
X22321Y20696
X22321Y19696
X22321Y18696
X22321Y17696
X22321Y16696
X22571Y15196
X22571Y14196
X22571Y13196
X22571Y12196
X19571Y12196
X19571Y13196
X19571Y14196
X19571Y15196
X19321Y16696
X19321Y17696
X19321Y18696
X19321Y19696
X19321Y20696
X19321Y21696
X19321Y22696
X19321Y23696
X19321Y24946
X19321Y25946
X19321Y26946
X19321Y27946
X107496Y3000
X108496Y3000
X110496Y3000
X111496Y3000
X113496Y3000
X114496Y3000
X116496Y3000
X117496Y3000
X119496Y3000
X120496Y3000
X122496Y3000
X123496Y3000
X125496Y3000
X126496Y3000
X128496Y3000
X129496Y3000
X125246Y5000
X124246Y5000
X123246Y5000
X122246Y5000
X120996Y5000
X119996Y5000
X118996Y5000
X117996Y5000
X116996Y5000
X115996Y5000
X114996Y5000
X113996Y5000
X112496Y4750
X111496Y4750
X110496Y4750
X109496Y4750
X109496Y7750
X110496Y7750
X111496Y7750
X112496Y7750
X113996Y8000
X114996Y8000
X115996Y8000
X116996Y8000
X117996Y8000
X118996Y8000
X119996Y8000
X120996Y8000
X122246Y8000
X123246Y8000
X124246Y8000
X125246Y8000
X28070Y32492
X29070Y32492
X31070Y32492
X32070Y32492
X34070Y32492
X35070Y32492
X37070Y32492
X38070Y32492
X40070Y32492
X41070Y32492
X43070Y32492
X44070Y32492
X46070Y32492
X47070Y32492
X49070Y32492
X50070Y32492
X45820Y34492
X44820Y34492
X43820Y34492
X42820Y34492
X41570Y34492
X40570Y34492
X39570Y34492
X38570Y34492
X37570Y34492
X36570Y34492
X35570Y34492
X34570Y34492
X33070Y34242
X32070Y34242
X31070Y34242
X30070Y34242
X30070Y37242
X31070Y37242
X32070Y37242
X33070Y37242
X34570Y37492
X35570Y37492
X36570Y37492
X37570Y37492
X38570Y37492
X39570Y37492
X40570Y37492
X41570Y37492
X42820Y37492
X43820Y37492
X44820Y37492
X45820Y37492
X112792Y10196
X112792Y11196
X112792Y13196
X112792Y14196
X112792Y16196
X112792Y17196
X112792Y19196
X112792Y20196
X112792Y22196
X112792Y23196
X112792Y25196
X112792Y26196
X112792Y28196
X112792Y29196
X112792Y31196
X112792Y32196
X110792Y27946
X110792Y26946
X110792Y25946
X110792Y24946
X110792Y23696
X110792Y22696
X110792Y21696
X110792Y20696
X110792Y19696
X110792Y18696
X110792Y17696
X110792Y16696
X111042Y15196
X111042Y14196
X111042Y13196
X111042Y12196
X108042Y12196
X108042Y13196
X108042Y14196
X108042Y15196
X107792Y16696
X107792Y17696
X107792Y18696
X107792Y19696
X107792Y20696
X107792Y21696
X107792Y22696
X107792Y23696
X107792Y24946
X107792Y25946
X107792Y26946
X107792Y27946
X72179Y17692
X72179Y18692
X72179Y20692
X72179Y21692
X72179Y23692
X72179Y24692
X72179Y26692
X72179Y27692
X72179Y29692
X72179Y30692
X72179Y32692
X72179Y33692
X72179Y35692
X72179Y36692
X72179Y38692
X72179Y39692
X70179Y35442
X70179Y34442
X70179Y33442
X70179Y32442
X70179Y31192
X70179Y30192
X70179Y29192
X70179Y28192
X70179Y27192
X70179Y26192
X70179Y25192
X70179Y24192
X70429Y22692
X70429Y21692
X70429Y20692
X70429Y19692
X67429Y19692
X67429Y20692
X67429Y21692
X67429Y22692
X67179Y24192
X67179Y25192
X67179Y26192
X67179Y27192
X67179Y28192
X67179Y29192
X67179Y30192
X67179Y31192
X67179Y32442
X67179Y33442
X67179Y34442
X67179Y35442
X45321Y52988
X45321Y53988
X45321Y54988
X45321Y55988
X45321Y56988
X39321Y56988
X39321Y55988
X39321Y54988
X39321Y53988
X39321Y52988
X39821Y46988
X40821Y46988
X41821Y46988
X42821Y46988
X42821Y43988
X41821Y43988
X40821Y43988
X39821Y43988
X38821Y43988
X37821Y43988
X36821Y43988
X35821Y43988
X34821Y43988
X33821Y43988
X32821Y43988
X31821Y43988
X30821Y43988
X29821Y43988
X29821Y46988
X30821Y46988
X31821Y46988
X32821Y46988
X33821Y46988
X34821Y46988
X35821Y46988
X36821Y46988
X37821Y46988
X38821Y46988
X105296Y25140
X105296Y26140
X105296Y28140
X105296Y29140
X105296Y31140
X105296Y32140
X105296Y34140
X105296Y35140
X105296Y37140
X105296Y38140
X105296Y40140
X105296Y41140
X105296Y43140
X105296Y44140
X105296Y46140
X105296Y47140
X103296Y42890
X103296Y41890
X103296Y40890
X103296Y39890
X103296Y38640
X103296Y37640
X103296Y36640
X103296Y35640
X103296Y34640
X103296Y33640
X103296Y32640
X103296Y31640
X103546Y30140
X103546Y29140
X103546Y28140
X103546Y27140
X100546Y27140
X100546Y28140
X100546Y29140
X100546Y30140
X100296Y31640
X100296Y32640
X100296Y33640
X100296Y34640
X100296Y35640
X100296Y36640
X100296Y37640
X100296Y38640
X100296Y39890
X100296Y40890
X100296Y41890
X100296Y42890
X11321Y52817
X10321Y52817
X9321Y52817
X8321Y52817
X7321Y52817
X7321Y46817
X8321Y46817
X9321Y46817
X10321Y46817
X11321Y46817
X17321Y47317
X17321Y48317
X17321Y49317
X17321Y50317
X20321Y50317
X20321Y49317
X20321Y48317
X20321Y47317
X20321Y46317
X20321Y45317
X20321Y44317
X20321Y43317
X20321Y42317
X20321Y41317
X20321Y40317
X20321Y39317
X20321Y38317
X20321Y37317
X17321Y37317
X17321Y38317
X17321Y39317
X17321Y40317
X17321Y41317
X17321Y42317
X17321Y43317
X17321Y44317
X17321Y45317
X17321Y46317
X16825Y10196
X16825Y11196
X16825Y13196
X16825Y14196
X16825Y16196
X16825Y17196
X16825Y19196
X16825Y20196
X16825Y22196
X16825Y23196
X16825Y25196
X16825Y26196
X16825Y28196
X16825Y29196
X16825Y31196
X16825Y32196
X14825Y27946
X14825Y26946
X14825Y25946
X14825Y24946
X14825Y23696
X14825Y22696
X14825Y21696
X14825Y20696
X14825Y19696
X14825Y18696
X14825Y17696
X14825Y16696
X15075Y15196
X15075Y14196
X15075Y13196
X15075Y12196
X12075Y12196
X12075Y13196
X12075Y14196
X12075Y15196
X11825Y16696
X11825Y17696
X11825Y18696
X11825Y19696
X11825Y20696
X11825Y21696
X11825Y22696
X11825Y23696
X11825Y24946
X11825Y25946
X11825Y26946
X11825Y27946
X57187Y41513
X57187Y42513
X57187Y44513
X57187Y45513
X57187Y47513
X57187Y48513
X57187Y50513
X57187Y51513
X57187Y53513
X57187Y54513
X57187Y56513
X57187Y57513
X57187Y59513
X57187Y60513
X57187Y62513
X57187Y63513
X55187Y59263
X55187Y58263
X55187Y57263
X55187Y56263
X55187Y55013
X55187Y54013
X55187Y53013
X55187Y52013
X55187Y51013
X55187Y50013
X55187Y49013
X55187Y48013
X55437Y46513
X55437Y45513
X55437Y44513
X55437Y43513
X52437Y43513
X52437Y44513
X52437Y45513
X52437Y46513
X52187Y48013
X52187Y49013
X52187Y50013
X52187Y51013
X52187Y52013
X52187Y53013
X52187Y54013
X52187Y55013
X52187Y56263
X52187Y57263
X52187Y58263
X52187Y59263
X7996Y10196
X7996Y11196
X7996Y13196
X7996Y14196
X7996Y16196
X7996Y17196
X7996Y19196
X7996Y20196
X7996Y22196
X7996Y23196
X7996Y25196
X7996Y26196
X7996Y28196
X7996Y29196
X7996Y31196
X7996Y32196
X5996Y27946
X5996Y26946
X5996Y25946
X5996Y24946
X5996Y23696
X5996Y22696
X5996Y21696
X5996Y20696
X5996Y19696
X5996Y18696
X5996Y17696
X5996Y16696
X6246Y15196
X6246Y14196
X6246Y13196
X6246Y12196
X3246Y12196
X3246Y13196
X3246Y14196
X3246Y15196
X2996Y16696
X2996Y17696
X2996Y18696
X2996Y19696
X2996Y20696
X2996Y21696
X2996Y22696
X2996Y23696
X2996Y24946
X2996Y25946
X2996Y26946
X2996Y27946
X2700Y59687
X3700Y59687
X5700Y59687
X6700Y59687
X8700Y59687
X9700Y59687
X11700Y59687
X12700Y59687
X14700Y59687
X15700Y59687
X17700Y59687
X18700Y59687
X20700Y59687
X21700Y59687
X23700Y59687
X24700Y59687
X20450Y61687
X19450Y61687
X18450Y61687
X17450Y61687
X16200Y61687
X15200Y61687
X14200Y61687
X13200Y61687
X12200Y61687
X11200Y61687
X10200Y61687
X9200Y61687
X7700Y61437
X6700Y61437
X5700Y61437
X4700Y61437
X4700Y64437
X5700Y64437
X6700Y64437
X7700Y64437
X9200Y64687
X10200Y64687
X11200Y64687
X12200Y64687
X13200Y64687
X14200Y64687
X15200Y64687
X16200Y64687
X17450Y64687
X18450Y64687
X19450Y64687
X20450Y64687
X26521Y61984
X27521Y61984
X29521Y61984
X30521Y61984
X32521Y61984
X33521Y61984
X35521Y61984
X36521Y61984
X38521Y61984
X39521Y61984
X41521Y61984
X42521Y61984
X44521Y61984
X45521Y61984
X47521Y61984
X48521Y61984
X44271Y63984
X43271Y63984
X42271Y63984
X41271Y63984
X40021Y63984
X39021Y63984
X38021Y63984
X37021Y63984
X36021Y63984
X35021Y63984
X34021Y63984
X33021Y63984
X31521Y63734
X30521Y63734
X29521Y63734
X28521Y63734
X28521Y66734
X29521Y66734
X30521Y66734
X31521Y66734
X33021Y66984
X34021Y66984
X35021Y66984
X36021Y66984
X37021Y66984
X38021Y66984
X39021Y66984
X40021Y66984
X41271Y66984
X42271Y66984
X43271Y66984
X44271Y66984
X109934Y35087
X108202Y35087
X123592Y62825
X123592Y61825
X123592Y60825
X123592Y59825
X123592Y58825
X123592Y57825
X123592Y56825
X123592Y55825
X123592Y54825
X123592Y53825
X123592Y52825
X123592Y51825
X123592Y50825
X123592Y49825
X120592Y49825
X120592Y50825
X120592Y51825
X120592Y52825
X120592Y53825
X120592Y54825
X120592Y55825
X120592Y56825
X120592Y57825
X120592Y58825
X120592Y59825
X120592Y60825
X120592Y61825
X120592Y62825
X118431Y54633
X116531Y54633
X116368Y41837
X115368Y41837
X114368Y41837
X113368Y41837
X112368Y41837
X111368Y41837
X110368Y41837
X109368Y41837
X108368Y41837
X107368Y41837
X107368Y38837
X108368Y38837
X109368Y38837
X110368Y38837
X111368Y38837
X112368Y38837
X113368Y38837
X114368Y38837
X115368Y38837
X116368Y38837
X115168Y36537
X113268Y36537
X111718Y45837
X112718Y45837
X113718Y45837
X114718Y45837
X115718Y45837
X118718Y45837
X119718Y45837
X120718Y45837
X122018Y54537
X124918Y63637
X50342Y65634
X51342Y65634
X53342Y65634
X54342Y65634
X56342Y65634
X57342Y65634
X59342Y65634
X60342Y65634
X62342Y65634
X63342Y65634
X65342Y65634
X66342Y65634
X68342Y65634
X69342Y65634
X71342Y65634
X72342Y65634
X68092Y67634
X67092Y67634
X66092Y67634
X65092Y67634
X63842Y67634
X62842Y67634
X61842Y67634
X60842Y67634
X59842Y67634
X58842Y67634
X57842Y67634
X56842Y67634
X55342Y67384
X54342Y67384
X53342Y67384
X52342Y67384
X52342Y70384
X53342Y70384
X54342Y70384
X55342Y70384
X56842Y70634
X57842Y70634
X58842Y70634
X59842Y70634
X60842Y70634
X61842Y70634
X62842Y70634
X63842Y70634
X65092Y70634
X66092Y70634
X67092Y70634
X68092Y70634
X79675Y25140
X79675Y26140
X79675Y28140
X79675Y29140
X79675Y31140
X79675Y32140
X79675Y34140
X79675Y35140
X79675Y37140
X79675Y38140
X79675Y40140
X79675Y41140
X79675Y43140
X79675Y44140
X79675Y46140
X79675Y47140
X77675Y42890
X77675Y41890
X77675Y40890
X77675Y39890
X77675Y38640
X77675Y37640
X77675Y36640
X77675Y35640
X77675Y34640
X77675Y33640
X77675Y32640
X77675Y31640
X77925Y30140
X77925Y29140
X77925Y28140
X77925Y27140
X74925Y27140
X74925Y28140
X74925Y29140
X74925Y30140
X74675Y31640
X74675Y32640
X74675Y33640
X74675Y34640
X74675Y35640
X74675Y36640
X74675Y37640
X74675Y38640
X74675Y39890
X74675Y40890
X74675Y41890
X74675Y42890
X120288Y10196
X120288Y11196
X120288Y13196
X120288Y14196
X120288Y16196
X120288Y17196
X120288Y19196
X120288Y20196
X120288Y22196
X120288Y23196
X120288Y25196
X120288Y26196
X120288Y28196
X120288Y29196
X120288Y31196
X120288Y32196
X118288Y27946
X118288Y26946
X118288Y25946
X118288Y24946
X118288Y23696
X118288Y22696
X118288Y21696
X118288Y20696
X118288Y19696
X118288Y18696
X118288Y17696
X118288Y16696
X118538Y15196
X118538Y14196
X118538Y13196
X118538Y12196
X115538Y12196
X115538Y13196
X115538Y14196
X115538Y15196
X115288Y16696
X115288Y17696
X115288Y18696
X115288Y19696
X115288Y20696
X115288Y21696
X115288Y22696
X115288Y23696
X115288Y24946
X115288Y25946
X115288Y26946
X115288Y27946
X26521Y69480
X27521Y69480
X29521Y69480
X30521Y69480
X32521Y69480
X33521Y69480
X35521Y69480
X36521Y69480
X38521Y69480
X39521Y69480
X41521Y69480
X42521Y69480
X44521Y69480
X45521Y69480
X47521Y69480
X48521Y69480
X44271Y71480
X43271Y71480
X42271Y71480
X41271Y71480
X40021Y71480
X39021Y71480
X38021Y71480
X37021Y71480
X36021Y71480
X35021Y71480
X34021Y71480
X33021Y71480
X31521Y71230
X30521Y71230
X29521Y71230
X28521Y71230
X28521Y74230
X29521Y74230
X30521Y74230
X31521Y74230
X33021Y74480
X34021Y74480
X35021Y74480
X36021Y74480
X37021Y74480
X38021Y74480
X39021Y74480
X40021Y74480
X41271Y74480
X42271Y74480
X43271Y74480
X44271Y74480
X50342Y73130
X51342Y73130
X53342Y73130
X54342Y73130
X56342Y73130
X57342Y73130
X59342Y73130
X60342Y73130
X62342Y73130
X63342Y73130
X65342Y73130
X66342Y73130
X68342Y73130
X69342Y73130
X71342Y73130
X72342Y73130
X68092Y75130
X67092Y75130
X66092Y75130
X65092Y75130
X63842Y75130
X62842Y75130
X61842Y75130
X60842Y75130
X59842Y75130
X58842Y75130
X57842Y75130
X56842Y75130
X55342Y74880
X54342Y74880
X53342Y74880
X52342Y74880
X52342Y77880
X53342Y77880
X54342Y77880
X55342Y77880
X56842Y78130
X57842Y78130
X58842Y78130
X59842Y78130
X60842Y78130
X61842Y78130
X62842Y78130
X63842Y78130
X65092Y78130
X66092Y78130
X67092Y78130
X68092Y78130
X2700Y69480
X3700Y69480
X5700Y69480
X6700Y69480
X8700Y69480
X9700Y69480
X11700Y69480
X12700Y69480
X14700Y69480
X15700Y69480
X17700Y69480
X18700Y69480
X20700Y69480
X21700Y69480
X23700Y69480
X24700Y69480
X20450Y71480
X19450Y71480
X18450Y71480
X17450Y71480
X16200Y71480
X15200Y71480
X14200Y71480
X13200Y71480
X12200Y71480
X11200Y71480
X10200Y71480
X9200Y71480
X7700Y71230
X6700Y71230
X5700Y71230
X4700Y71230
X4700Y74230
X5700Y74230
X6700Y74230
X7700Y74230
X9200Y74480
X10200Y74480
X11200Y74480
X12200Y74480
X13200Y74480
X14200Y74480
X15200Y74480
X16200Y74480
X17450Y74480
X18450Y74480
X19450Y74480
X20450Y74480
X87171Y25140
X87171Y26140
X87171Y28140
X87171Y29140
X87171Y31140
X87171Y32140
X87171Y34140
X87171Y35140
X87171Y37140
X87171Y38140
X87171Y40140
X87171Y41140
X87171Y43140
X87171Y44140
X87171Y46140
X87171Y47140
X85171Y42890
X85171Y41890
X85171Y40890
X85171Y39890
X85171Y38640
X85171Y37640
X85171Y36640
X85171Y35640
X85171Y34640
X85171Y33640
X85171Y32640
X85171Y31640
X85421Y30140
X85421Y29140
X85421Y28140
X85421Y27140
X82421Y27140
X82421Y28140
X82421Y29140
X82421Y30140
X82171Y31640
X82171Y32640
X82171Y33640
X82171Y34640
X82171Y35640
X82171Y36640
X82171Y37640
X82171Y38640
X82171Y39890
X82171Y40890
X82171Y41890
X82171Y42890
X64683Y41513
X64683Y42513
X64683Y44513
X64683Y45513
X64683Y47513
X64683Y48513
X64683Y50513
X64683Y51513
X64683Y53513
X64683Y54513
X64683Y56513
X64683Y57513
X64683Y59513
X64683Y60513
X64683Y62513
X64683Y63513
X62683Y59263
X62683Y58263
X62683Y57263
X62683Y56263
X62683Y55013
X62683Y54013
X62683Y53013
X62683Y52013
X62683Y51013
X62683Y50013
X62683Y49013
X62683Y48013
X62933Y46513
X62933Y45513
X62933Y44513
X62933Y43513
X59933Y43513
X59933Y44513
X59933Y45513
X59933Y46513
X59683Y48013
X59683Y49013
X59683Y50013
X59683Y51013
X59683Y52013
X59683Y53013
X59683Y54013
X59683Y55013
X59683Y56263
X59683Y57263
X59683Y58263
X59683Y59263
X83675Y49261
X84675Y49261
X86675Y49261
X87675Y49261
X89675Y49261
X90675Y49261
X92675Y49261
X93675Y49261
X95675Y49261
X96675Y49261
X98675Y49261
X99675Y49261
X101675Y49261
X102675Y49261
X104675Y49261
X105675Y49261
X101425Y51261
X100425Y51261
X99425Y51261
X98425Y51261
X97175Y51261
X96175Y51261
X95175Y51261
X94175Y51261
X93175Y51261
X92175Y51261
X91175Y51261
X90175Y51261
X88675Y51011
X87675Y51011
X86675Y51011
X85675Y51011
X85675Y54011
X86675Y54011
X87675Y54011
X88675Y54011
X90175Y54261
X91175Y54261
X92175Y54261
X93175Y54261
X94175Y54261
X95175Y54261
X96175Y54261
X97175Y54261
X98425Y54261
X99425Y54261
X100425Y54261
X101425Y54261
X83675Y56757
X84675Y56757
X86675Y56757
X87675Y56757
X89675Y56757
X90675Y56757
X92675Y56757
X93675Y56757
X95675Y56757
X96675Y56757
X98675Y56757
X99675Y56757
X101675Y56757
X102675Y56757
X104675Y56757
X105675Y56757
X101425Y58757
X100425Y58757
X99425Y58757
X98425Y58757
X97175Y58757
X96175Y58757
X95175Y58757
X94175Y58757
X93175Y58757
X92175Y58757
X91175Y58757
X90175Y58757
X88675Y58507
X87675Y58507
X86675Y58507
X85675Y58507
X85675Y61507
X86675Y61507
X87675Y61507
X88675Y61507
X90175Y61757
X91175Y61757
X92175Y61757
X93175Y61757
X94175Y61757
X95175Y61757
X96175Y61757
X97175Y61757
X98425Y61757
X99425Y61757
X100425Y61757
X101425Y61757
X83675Y64253
X84675Y64253
X86675Y64253
X87675Y64253
X89675Y64253
X90675Y64253
X92675Y64253
X93675Y64253
X95675Y64253
X96675Y64253
X98675Y64253
X99675Y64253
X101675Y64253
X102675Y64253
X104675Y64253
X105675Y64253
X101425Y66253
X100425Y66253
X99425Y66253
X98425Y66253
X97175Y66253
X96175Y66253
X95175Y66253
X94175Y66253
X93175Y66253
X92175Y66253
X91175Y66253
X90175Y66253
X88675Y66003
X87675Y66003
X86675Y66003
X85675Y66003
X85675Y69003
X86675Y69003
X87675Y69003
X88675Y69003
X90175Y69253
X91175Y69253
X92175Y69253
X93175Y69253
X94175Y69253
X95175Y69253
X96175Y69253
X97175Y69253
X98425Y69253
X99425Y69253
X100425Y69253
X101425Y69253
X107496Y66101
X108496Y66101
X110496Y66101
X111496Y66101
X113496Y66101
X114496Y66101
X116496Y66101
X117496Y66101
X119496Y66101
X120496Y66101
X122496Y66101
X123496Y66101
X125496Y66101
X126496Y66101
X128496Y66101
X129496Y66101
X125246Y68101
X124246Y68101
X123246Y68101
X122246Y68101
X120996Y68101
X119996Y68101
X118996Y68101
X117996Y68101
X116996Y68101
X115996Y68101
X114996Y68101
X113996Y68101
X112496Y67851
X111496Y67851
X110496Y67851
X109496Y67851
X109496Y70851
X110496Y70851
X111496Y70851
X112496Y70851
X113996Y71101
X114996Y71101
X115996Y71101
X116996Y71101
X117996Y71101
X118996Y71101
X119996Y71101
X120996Y71101
X122246Y71101
X123246Y71101
X124246Y71101
X125246Y71101
X97800Y25140
X97800Y26140
X97800Y28140
X97800Y29140
X97800Y31140
X97800Y32140
X97800Y34140
X97800Y35140
X97800Y37140
X97800Y38140
X97800Y40140
X97800Y41140
X97800Y43140
X97800Y44140
X97800Y46140
X97800Y47140
X95800Y42890
X95800Y41890
X95800Y40890
X95800Y39890
X95800Y38640
X95800Y37640
X95800Y36640
X95800Y35640
X95800Y34640
X95800Y33640
X95800Y32640
X95800Y31640
X96050Y30140
X96050Y29140
X96050Y28140
X96050Y27140
X93050Y27140
X93050Y28140
X93050Y29140
X93050Y30140
X92800Y31640
X92800Y32640
X92800Y33640
X92800Y34640
X92800Y35640
X92800Y36640
X92800Y37640
X92800Y38640
X92800Y39890
X92800Y40890
X92800Y41890
X92800Y42890
X83675Y71749
X84675Y71749
X86675Y71749
X87675Y71749
X89675Y71749
X90675Y71749
X92675Y71749
X93675Y71749
X95675Y71749
X96675Y71749
X98675Y71749
X99675Y71749
X101675Y71749
X102675Y71749
X104675Y71749
X105675Y71749
X101425Y73749
X100425Y73749
X99425Y73749
X98425Y73749
X97175Y73749
X96175Y73749
X95175Y73749
X94175Y73749
X93175Y73749
X92175Y73749
X91175Y73749
X90175Y73749
X88675Y73499
X87675Y73499
X86675Y73499
X85675Y73499
X85675Y76499
X86675Y76499
X87675Y76499
X88675Y76499
X90175Y76749
X91175Y76749
X92175Y76749
X93175Y76749
X94175Y76749
X95175Y76749
X96175Y76749
X97175Y76749
X98425Y76749
X99425Y76749
X100425Y76749
X101425Y76749
X127784Y10196
X127784Y11196
X127784Y13196
X127784Y14196
X127784Y16196
X127784Y17196
X127784Y19196
X127784Y20196
X127784Y22196
X127784Y23196
X127784Y25196
X127784Y26196
X127784Y28196
X127784Y29196
X127784Y31196
X127784Y32196
X125784Y27946
X125784Y26946
X125784Y25946
X125784Y24946
X125784Y23696
X125784Y22696
X125784Y21696
X125784Y20696
X125784Y19696
X125784Y18696
X125784Y17696
X125784Y16696
X126034Y15196
X126034Y14196
X126034Y13196
X126034Y12196
X123034Y12196
X123034Y13196
X123034Y14196
X123034Y15196
X122784Y16696
X122784Y17696
X122784Y18696
X122784Y19696
X122784Y20696
X122784Y21696
X122784Y22696
X122784Y23696
X122784Y24946
X122784Y25946
X122784Y26946
X122784Y27946
X107496Y73597
X108496Y73597
X110496Y73597
X111496Y73597
X113496Y73597
X114496Y73597
X116496Y73597
X117496Y73597
X119496Y73597
X120496Y73597
X122496Y73597
X123496Y73597
X125496Y73597
X126496Y73597
X128496Y73597
X129496Y73597
X125246Y75597
X124246Y75597
X123246Y75597
X122246Y75597
X120996Y75597
X119996Y75597
X118996Y75597
X117996Y75597
X116996Y75597
X115996Y75597
X114996Y75597
X113996Y75597
X112496Y75347
X111496Y75347
X110496Y75347
X109496Y75347
X109496Y78347
X110496Y78347
X111496Y78347
X112496Y78347
X113996Y78597
X114996Y78597
X115996Y78597
X116996Y78597
X117996Y78597
X118996Y78597
X119996Y78597
X120996Y78597
X122246Y78597
X123246Y78597
X124246Y78597
X125246Y78597
X72179Y41513
X72179Y42513
X72179Y44513
X72179Y45513
X72179Y47513
X72179Y48513
X72179Y50513
X72179Y51513
X72179Y53513
X72179Y54513
X72179Y56513
X72179Y57513
X72179Y59513
X72179Y60513
X72179Y62513
X72179Y63513
X70179Y59263
X70179Y58263
X70179Y57263
X70179Y56263
X70179Y55013
X70179Y54013
X70179Y53013
X70179Y52013
X70179Y51013
X70179Y50013
X70179Y49013
X70179Y48013
X70429Y46513
X70429Y45513
X70429Y44513
X70429Y43513
X67429Y43513
X67429Y44513
X67429Y45513
X67429Y46513
X67179Y48013
X67179Y49013
X67179Y50013
X67179Y51013
X67179Y52013
X67179Y53013
X67179Y54013
X67179Y55013
X67179Y56263
X67179Y57263
X67179Y58263
X67179Y59263
X79675Y48961
X79675Y49961
X79675Y51961
X79675Y52961
X79675Y54961
X79675Y55961
X79675Y57961
X79675Y58961
X79675Y60961
X79675Y61961
X79675Y63961
X79675Y64961
X79675Y66961
X79675Y67961
X79675Y69961
X79675Y70961
X77675Y66711
X77675Y65711
X77675Y64711
X77675Y63711
X77675Y62461
X77675Y61461
X77675Y60461
X77675Y59461
X77675Y58461
X77675Y57461
X77675Y56461
X77675Y55461
X77925Y53961
X77925Y52961
X77925Y51961
X77925Y50961
X74925Y50961
X74925Y51961
X74925Y52961
X74925Y53961
X74675Y55461
X74675Y56461
X74675Y57461
X74675Y58461
X74675Y59461
X74675Y60461
X74675Y61461
X74675Y62461
X74675Y63711
X74675Y64711
X74675Y65711
X74675Y66711
T04C0.039700
X21800Y8200
X21800Y7200
X21800Y6200
X21800Y5200
X21800Y4200
X3500Y4100
X3500Y5100
X3500Y6100
X3500Y7100
X3500Y8100
X27321Y3000
X28321Y3000
X30821Y3000
X31821Y3000
X32821Y3000
X33821Y3000
X34821Y3000
X35821Y3000
X37821Y3000
X38821Y3000
X39821Y3000
X40821Y3000
X41821Y3000
X42821Y3000
X33711Y11220
X31931Y11220
X31931Y13780
X31931Y14720
X30711Y14720
X28931Y14720
X26821Y15000
X26821Y16000
X26821Y17000
X26821Y18000
X26821Y19000
X28931Y17280
X30711Y17280
X31931Y17280
X31931Y18220
X33711Y18220
X33711Y17280
X34931Y17280
X36711Y17280
X36711Y14720
X38431Y14280
X40211Y14280
X42876Y13980
X43876Y13980
X43876Y12980
X43876Y11980
X42876Y11980
X42876Y12980
X40211Y11720
X38431Y11720
X34931Y14720
X33711Y14720
X33711Y13780
X26821Y14000
X31931Y20780
X32221Y22000
X33221Y22000
X34221Y22000
X33711Y20780
X35821Y22000
X36821Y22000
X37821Y22000
X38821Y22000
X39821Y22000
X40821Y22000
X41821Y22000
X42821Y22000
X49321Y20500
X49321Y19500
X49321Y18500
X49321Y17500
X49321Y16500
X49321Y15500
X31221Y22000
X30221Y22000
X29221Y22000
X28221Y22000
X27221Y22000
X49577Y10016
X49577Y11000
X49577Y11984
X49577Y6484
X49577Y5500
X49577Y4516
X70991Y8200
X70991Y7200
X70991Y6200
X70991Y5200
X70991Y4200
X52691Y4100
X52691Y5100
X52691Y6100
X52691Y7100
X52691Y8100
X70991Y15696
X70991Y14696
X70991Y13696
X70991Y12696
X70991Y11696
X52691Y11596
X52691Y12596
X52691Y13596
X52691Y14596
X52691Y15596
X85282Y22118
X86282Y22118
X86282Y21118
X85282Y21118
X86432Y19518
X86432Y18518
X86432Y17518
X86432Y16518
X86432Y15518
X86432Y14518
X84777Y14513
X84777Y13513
X84777Y12513
X86432Y12518
X86432Y11518
X86432Y10518
X86432Y9518
X88532Y9518
X88532Y10518
X88532Y11518
X88532Y12518
X88532Y14518
X88532Y15518
X88532Y16518
X88532Y17518
X88532Y18518
X88532Y19518
X88628Y21933
X89628Y21933
X90628Y21933
X91628Y21933
X92628Y21933
X93628Y21933
X94628Y21933
X95628Y21933
X95307Y22933
X94307Y22933
X93307Y22933
X92307Y22933
X91307Y22933
X90307Y22933
X89307Y22933
X88307Y22933
X86282Y23118
X85282Y23118
X97307Y22933
X98307Y22933
X99307Y22933
X100307Y22933
X101307Y22933
X102307Y22933
X103307Y22933
X104307Y22933
X104308Y21933
X103308Y21933
X102308Y21933
X101308Y21933
X100308Y21933
X99308Y21933
X98308Y21933
X97308Y21933
X104368Y14903
X105368Y14903
X105368Y13903
X104368Y13903
X104368Y12903
X105368Y12903
X102345Y12183
X102345Y13963
X99785Y13963
X99785Y12183
X100188Y3923
X99188Y3923
X99187Y2923
X100187Y2923
X101187Y2923
X102187Y2923
X103187Y2923
X104187Y2923
X104188Y3923
X103188Y3923
X102188Y3923
X101188Y3923
X97216Y3903
X96216Y3903
X95216Y3903
X94216Y3903
X93216Y3903
X92216Y3903
X92217Y2903
X93217Y2903
X94217Y2903
X95217Y2903
X96217Y2903
X97217Y2903
X51987Y36792
X52987Y36792
X53987Y36792
X54987Y36792
X55987Y36792
X56087Y18492
X55087Y18492
X54087Y18492
X53087Y18492
X52087Y18492
X59483Y36792
X60483Y36792
X61483Y36792
X62483Y36792
X63483Y36792
X63583Y18492
X62583Y18492
X61583Y18492
X60583Y18492
X59583Y18492
X47170Y30196
X47170Y29196
X47170Y28196
X47170Y27196
X47170Y26196
X28870Y26096
X28870Y27096
X28870Y28096
X28870Y29096
X28870Y30096
X19121Y29296
X20121Y29296
X21121Y29296
X22121Y29296
X23121Y29296
X23221Y10996
X22221Y10996
X21221Y10996
X20221Y10996
X19221Y10996
X126596Y8200
X126596Y7200
X126596Y6200
X126596Y5200
X126596Y4200
X108296Y4100
X108296Y5100
X108296Y6100
X108296Y7100
X108296Y8100
X47170Y37692
X47170Y36692
X47170Y35692
X47170Y34692
X47170Y33692
X28870Y33592
X28870Y34592
X28870Y35592
X28870Y36592
X28870Y37592
X107592Y29296
X108592Y29296
X109592Y29296
X110592Y29296
X111592Y29296
X111692Y10996
X110692Y10996
X109692Y10996
X108692Y10996
X107692Y10996
X66979Y36792
X67979Y36792
X68979Y36792
X69979Y36792
X70979Y36792
X71079Y18492
X70079Y18492
X69079Y18492
X68079Y18492
X67079Y18492
X27321Y39988
X28321Y39988
X30821Y39988
X31821Y39988
X32821Y39988
X33821Y39988
X34821Y39988
X35821Y39988
X37821Y39988
X38821Y39988
X39821Y39988
X40821Y39988
X41821Y39988
X42821Y39988
X33711Y48208
X31931Y48208
X31931Y50768
X31931Y51708
X30711Y51708
X28931Y51708
X26821Y51988
X26821Y52988
X26821Y53988
X26821Y54988
X26821Y55988
X28931Y54268
X30711Y54268
X31931Y54268
X31931Y55208
X33711Y55208
X33711Y54268
X34931Y54268
X36711Y54268
X36711Y51708
X38431Y51268
X40211Y51268
X42876Y50968
X43876Y50968
X43876Y49968
X43876Y48968
X42876Y48968
X42876Y49968
X40211Y48708
X38431Y48708
X34931Y51708
X33711Y51708
X33711Y50768
X26821Y50988
X31931Y57768
X32221Y58988
X33221Y58988
X34221Y58988
X33711Y57768
X35821Y58988
X36821Y58988
X37821Y58988
X38821Y58988
X39821Y58988
X40821Y58988
X41821Y58988
X42821Y58988
X49321Y57488
X49321Y56488
X49321Y55488
X49321Y54488
X49321Y53488
X49321Y52488
X31221Y58988
X30221Y58988
X29221Y58988
X28221Y58988
X27221Y58988
X49577Y47004
X49577Y47988
X49577Y48972
X49577Y43472
X49577Y42488
X49577Y41504
X100096Y44240
X101096Y44240
X102096Y44240
X103096Y44240
X104096Y44240
X104196Y25940
X103196Y25940
X102196Y25940
X101196Y25940
X100196Y25940
X24321Y34817
X24321Y35817
X24321Y38317
X24321Y39317
X24321Y40317
X24321Y41317
X24321Y42317
X24321Y43317
X24321Y45317
X24321Y46317
X24321Y47317
X24321Y48317
X24321Y49317
X24321Y50317
X16101Y41207
X16101Y39427
X13541Y39427
X12601Y39427
X12601Y38207
X12601Y36427
X12321Y34317
X11321Y34317
X10321Y34317
X9321Y34317
X8321Y34317
X10041Y36427
X10041Y38207
X10041Y39427
X9101Y39427
X9101Y41207
X10041Y41207
X10041Y42427
X10041Y44207
X12601Y44207
X13041Y45927
X13041Y47707
X13341Y50372
X13341Y51372
X14341Y51372
X15341Y51372
X15341Y50372
X14341Y50372
X15601Y47707
X15601Y45927
X12601Y42427
X12601Y41207
X13541Y41207
X13321Y34317
X6541Y39427
X5321Y39717
X5321Y40717
X5321Y41717
X6541Y41207
X5321Y43317
X5321Y44317
X5321Y45317
X5321Y46317
X5321Y47317
X5321Y48317
X5321Y49317
X5321Y50317
X6821Y56817
X7821Y56817
X8821Y56817
X9821Y56817
X10821Y56817
X11821Y56817
X5321Y38717
X5321Y37717
X5321Y36717
X5321Y35717
X5321Y34717
X17305Y57073
X16321Y57073
X15337Y57073
X20837Y57073
X21821Y57073
X22805Y57073
X11625Y29296
X12625Y29296
X13625Y29296
X14625Y29296
X15625Y29296
X15725Y10996
X14725Y10996
X13725Y10996
X12725Y10996
X11725Y10996
X51987Y60613
X52987Y60613
X53987Y60613
X54987Y60613
X55987Y60613
X56087Y42313
X55087Y42313
X54087Y42313
X53087Y42313
X52087Y42313
X2796Y29296
X3796Y29296
X4796Y29296
X5796Y29296
X6796Y29296
X6896Y10996
X5896Y10996
X4896Y10996
X3896Y10996
X2896Y10996
X21800Y64887
X21800Y63887
X21800Y62887
X21800Y61887
X21800Y60887
X3500Y60787
X3500Y61787
X3500Y62787
X3500Y63787
X3500Y64787
X45621Y67184
X45621Y66184
X45621Y65184
X45621Y64184
X45621Y63184
X27321Y63084
X27321Y64084
X27321Y65084
X27321Y66084
X27321Y67084
X108618Y43587
X108618Y44587
X109618Y44587
X109618Y43587
X111218Y44737
X112218Y44737
X113218Y44737
X114218Y44737
X115218Y44737
X116218Y44737
X116223Y43082
X117223Y43082
X118223Y43082
X118218Y44737
X119218Y44737
X120218Y44737
X121218Y44737
X121218Y46837
X120218Y46837
X119218Y46837
X118218Y46837
X116218Y46837
X115218Y46837
X114218Y46837
X113218Y46837
X112218Y46837
X111218Y46837
X108803Y46933
X108803Y47933
X108803Y48933
X108803Y49933
X108803Y50933
X108803Y51933
X108803Y52933
X108803Y53933
X107803Y53612
X107803Y52612
X107803Y51612
X107803Y50612
X107803Y49612
X107803Y48612
X107803Y47612
X107803Y46612
X107618Y44587
X107618Y43587
X107803Y55612
X107803Y56612
X107803Y57612
X107803Y58612
X107803Y59612
X107803Y60612
X107803Y61612
X107803Y62612
X108803Y62613
X108803Y61613
X108803Y60613
X108803Y59613
X108803Y58613
X108803Y57613
X108803Y56613
X108803Y55613
X115833Y62673
X115833Y63673
X116833Y63673
X116833Y62673
X117833Y62673
X117833Y63673
X118553Y60650
X116773Y60650
X116773Y58090
X118553Y58090
X126813Y58493
X126813Y57493
X127813Y57492
X127813Y58492
X127813Y59492
X127813Y60492
X127813Y61492
X127813Y62492
X126813Y62493
X126813Y61493
X126813Y60493
X126813Y59493
X126833Y55521
X126833Y54521
X126833Y53521
X126833Y52521
X126833Y51521
X126833Y50521
X127833Y50522
X127833Y51522
X127833Y52522
X127833Y53522
X127833Y54522
X127833Y55522
X69442Y70834
X69442Y69834
X69442Y68834
X69442Y67834
X69442Y66834
X51142Y66734
X51142Y67734
X51142Y68734
X51142Y69734
X51142Y70734
X74475Y44240
X75475Y44240
X76475Y44240
X77475Y44240
X78475Y44240
X78575Y25940
X77575Y25940
X76575Y25940
X75575Y25940
X74575Y25940
X115088Y29296
X116088Y29296
X117088Y29296
X118088Y29296
X119088Y29296
X119188Y10996
X118188Y10996
X117188Y10996
X116188Y10996
X115188Y10996
X45621Y74680
X45621Y73680
X45621Y72680
X45621Y71680
X45621Y70680
X27321Y70580
X27321Y71580
X27321Y72580
X27321Y73580
X27321Y74580
X69442Y78330
X69442Y77330
X69442Y76330
X69442Y75330
X69442Y74330
X51142Y74230
X51142Y75230
X51142Y76230
X51142Y77230
X51142Y78230
X21800Y74680
X21800Y73680
X21800Y72680
X21800Y71680
X21800Y70680
X3500Y70580
X3500Y71580
X3500Y72580
X3500Y73580
X3500Y74580
X81971Y44240
X82971Y44240
X83971Y44240
X84971Y44240
X85971Y44240
X86071Y25940
X85071Y25940
X84071Y25940
X83071Y25940
X82071Y25940
X59483Y60613
X60483Y60613
X61483Y60613
X62483Y60613
X63483Y60613
X63583Y42313
X62583Y42313
X61583Y42313
X60583Y42313
X59583Y42313
X102775Y54461
X102775Y53461
X102775Y52461
X102775Y51461
X102775Y50461
X84475Y50361
X84475Y51361
X84475Y52361
X84475Y53361
X84475Y54361
X102775Y61957
X102775Y60957
X102775Y59957
X102775Y58957
X102775Y57957
X84475Y57857
X84475Y58857
X84475Y59857
X84475Y60857
X84475Y61857
X102775Y69453
X102775Y68453
X102775Y67453
X102775Y66453
X102775Y65453
X84475Y65353
X84475Y66353
X84475Y67353
X84475Y68353
X84475Y69353
X126596Y71301
X126596Y70301
X126596Y69301
X126596Y68301
X126596Y67301
X108296Y67201
X108296Y68201
X108296Y69201
X108296Y70201
X108296Y71201
X92600Y44240
X93600Y44240
X94600Y44240
X95600Y44240
X96600Y44240
X96700Y25940
X95700Y25940
X94700Y25940
X93700Y25940
X92700Y25940
X102775Y76949
X102775Y75949
X102775Y74949
X102775Y73949
X102775Y72949
X84475Y72849
X84475Y73849
X84475Y74849
X84475Y75849
X84475Y76849
X122584Y29296
X123584Y29296
X124584Y29296
X125584Y29296
X126584Y29296
X126684Y10996
X125684Y10996
X124684Y10996
X123684Y10996
X122684Y10996
X126596Y78797
X126596Y77797
X126596Y76797
X126596Y75797
X126596Y74797
X108296Y74697
X108296Y75697
X108296Y76697
X108296Y77697
X108296Y78697
X66979Y60613
X67979Y60613
X68979Y60613
X69979Y60613
X70979Y60613
X71079Y42313
X70079Y42313
X69079Y42313
X68079Y42313
X67079Y42313
X74475Y68061
X75475Y68061
X76475Y68061
X77475Y68061
X78475Y68061
X78575Y49761
X77575Y49761
X76575Y49761
X75575Y49761
X74575Y49761
T05C0.047200
X87532Y3118
X87532Y3818
X87532Y4518
X87532Y5218
X87532Y5918
X87532Y6618
X87532Y7318
X87532Y8018
X87532Y8718
X84013Y7327
X80013Y7327
X87532Y2418
X83732Y13518
X83032Y13518
X82332Y13518
X81632Y13518
X80932Y13518
X80232Y13518
X79532Y13518
X78832Y13518
X78132Y13518
X77432Y13518
X76732Y13518
X76032Y13518
X75332Y13518
X87532Y20118
X87532Y20818
X87532Y21518
X87532Y22218
X87532Y22918
X87532Y23618
X127618Y45837
X126918Y45837
X126218Y45837
X125518Y45837
X124818Y45837
X124118Y45837
X123418Y45837
X122718Y45837
X122018Y45837
X123409Y42318
X123409Y38318
X128318Y45837
X117218Y42037
X117218Y41337
X117218Y40637
X117218Y39937
X117218Y39237
X117218Y38537
X117218Y37837
X117218Y37137
X117218Y36437
X117218Y35737
X117218Y35037
X117218Y34337
X117218Y33637
X110618Y45837
X109918Y45837
X109218Y45837
X108518Y45837
X107818Y45837
X107118Y45837
T06C0.078700
X46821Y12732
X46821Y9268
X46821Y7232
X46821Y3768
X46821Y49720
X46821Y46256
X46821Y44220
X46821Y40756
X14589Y54317
X18053Y54317
X20089Y54317
X23553Y54317
T07C0.125000
X27821Y5500
X27821Y42488
X21821Y35317
T08C0.130000
X79001Y6232
X76641Y6232
X77821Y4262
X124504Y37306
X124504Y34946
X126474Y36126
M30
