G75*
G70*
%OFA0B0*%
%FSLAX25Y25*%
%IPPOS*%
%LPD*%
%AMOC8*
5,1,8,0,0,1.08239X$1,22.5*
%
%ADD34R,0.06200X0.02400*%
%ADD56C,0.00400*%
%ADD78C,0.00600*%
%ADD80C,0.00800*%
%ADD95R,0.02400X0.06200*%
X0020000Y0020000D02*
G75*
%LPD*%
D78*
X0110600Y0085170D02*
X0110600Y0091570D01*
X0107390Y0091570D01*
X0106330Y0090510D01*
X0106330Y0088370D01*
X0107390Y0087300D01*
X0110600Y0087300D01*
X0112770Y0087300D02*
X0115980Y0087300D01*
X0117040Y0088370D01*
X0115980Y0089440D01*
X0112770Y0089440D01*
X0112770Y0090510D02*
X0112770Y0087300D01*
X0119200Y0087300D02*
X0120270Y0088370D01*
X0120270Y0092640D01*
X0121340Y0091570D02*
X0119200Y0091570D01*
X0115980Y0091570D02*
X0113840Y0091570D01*
X0112770Y0090510D01*
X0104150Y0090510D02*
X0104150Y0088370D01*
X0103080Y0087300D01*
X0100950Y0087300D01*
X0099880Y0089440D02*
X0104150Y0089440D01*
X0104150Y0090510D02*
X0103080Y0091570D01*
X0100950Y0091570D01*
X0099880Y0090510D01*
X0099880Y0089440D01*
X0123510Y0090510D02*
X0127780Y0090510D01*
X0129960Y0091570D02*
X0134230Y0087300D01*
X0136390Y0087300D02*
X0138530Y0087300D01*
X0137460Y0087300D02*
X0137460Y0091570D01*
X0138530Y0091570D01*
X0140700Y0091570D02*
X0141760Y0091570D01*
X0143900Y0089440D01*
X0146070Y0090510D02*
X0146070Y0087300D01*
X0143900Y0087300D02*
X0143900Y0091570D01*
X0146070Y0090510D02*
X0147140Y0091570D01*
X0149280Y0091570D01*
X0150340Y0090510D01*
X0152500Y0091570D02*
X0154640Y0091570D01*
X0153570Y0092640D02*
X0153570Y0088370D01*
X0152500Y0087300D01*
X0150340Y0087300D02*
X0150340Y0093710D01*
X0137460Y0093710D02*
X0137460Y0094780D01*
X0134230Y0091570D02*
X0129960Y0087300D01*
X0258210Y0020000D02*
G75*
%LPD*%
D78*
X0348810Y0085170D02*
X0348810Y0091570D01*
X0345600Y0091570D01*
X0344540Y0090510D01*
X0344540Y0088370D01*
X0345600Y0087300D01*
X0348810Y0087300D01*
X0350980Y0087300D02*
X0354190Y0087300D01*
X0355250Y0088370D01*
X0354190Y0089440D01*
X0350980Y0089440D01*
X0350980Y0090510D02*
X0350980Y0087300D01*
X0357410Y0087300D02*
X0358480Y0088370D01*
X0358480Y0092640D01*
X0359550Y0091570D02*
X0357410Y0091570D01*
X0354190Y0091570D02*
X0352050Y0091570D01*
X0350980Y0090510D01*
X0342360Y0090510D02*
X0342360Y0088370D01*
X0341290Y0087300D01*
X0339160Y0087300D01*
X0338090Y0089440D02*
X0342360Y0089440D01*
X0342360Y0090510D02*
X0341290Y0091570D01*
X0339160Y0091570D01*
X0338090Y0090510D01*
X0338090Y0089440D01*
X0361720Y0090510D02*
X0365990Y0090510D01*
X0368170Y0091570D02*
X0372440Y0087300D01*
X0374600Y0087300D02*
X0376740Y0087300D01*
X0375670Y0087300D02*
X0375670Y0091570D01*
X0376740Y0091570D01*
X0378910Y0091570D02*
X0379970Y0091570D01*
X0382110Y0089440D01*
X0384280Y0090510D02*
X0384280Y0087300D01*
X0382110Y0087300D02*
X0382110Y0091570D01*
X0384280Y0090510D02*
X0385350Y0091570D01*
X0387490Y0091570D01*
X0388550Y0090510D01*
X0390710Y0091570D02*
X0392850Y0091570D01*
X0391780Y0092640D02*
X0391780Y0088370D01*
X0390710Y0087300D01*
X0388550Y0087300D02*
X0388550Y0093710D01*
X0375670Y0093710D02*
X0375670Y0094780D01*
X0372440Y0091570D02*
X0368170Y0087300D01*
X0496420Y0020000D02*
G75*
%LPD*%
D56*
X0600140Y0076710D02*
X0603210Y0073650D01*
X0603210Y0072880D01*
X0604750Y0072880D02*
X0607820Y0072880D01*
X0606280Y0072880D02*
X0606280Y0077480D01*
X0607820Y0075950D01*
X0609350Y0076710D02*
X0610120Y0077480D01*
X0611650Y0077480D01*
X0612420Y0076710D01*
X0612420Y0073650D01*
X0611650Y0072880D01*
X0610120Y0072880D01*
X0609350Y0073650D01*
X0603210Y0077480D02*
X0600140Y0077480D01*
X0600140Y0076710D01*
X0720520Y0084550D02*
X0723590Y0084550D01*
X0722060Y0084550D02*
X0722060Y0089150D01*
X0723590Y0087620D01*
X0726660Y0089150D02*
X0726660Y0084550D01*
X0725130Y0084550D02*
X0728200Y0084550D01*
X0729730Y0085310D02*
X0730500Y0084550D01*
X0732030Y0084550D01*
X0732800Y0085310D01*
X0732800Y0088380D01*
X0732030Y0089150D01*
X0730500Y0089150D01*
X0729730Y0088380D01*
X0728200Y0087620D02*
X0726660Y0089150D01*
X0599030Y0174680D02*
X0599030Y0179280D01*
X0596730Y0179280D01*
X0595960Y0178510D01*
X0595960Y0176980D01*
X0596730Y0176210D01*
X0599030Y0176210D01*
X0597490Y0176210D02*
X0595960Y0174680D01*
X0594420Y0175450D02*
X0593660Y0174680D01*
X0592120Y0174680D01*
X0591360Y0175450D01*
X0591360Y0176210D01*
X0592120Y0176980D01*
X0594420Y0176980D01*
X0594420Y0175450D01*
X0594420Y0176980D02*
X0592890Y0178510D01*
X0591360Y0179280D01*
X0591660Y0189180D02*
X0592420Y0189950D01*
X0591660Y0189180D02*
X0590120Y0189180D01*
X0589360Y0189950D01*
X0589360Y0190710D01*
X0590120Y0191480D01*
X0590890Y0191480D01*
X0590120Y0191480D02*
X0589360Y0192250D01*
X0589360Y0193010D01*
X0590120Y0193780D01*
X0591660Y0193780D01*
X0592420Y0193010D01*
X0595490Y0193780D02*
X0595490Y0189180D01*
X0593960Y0189180D02*
X0597030Y0189180D01*
X0598560Y0189180D02*
X0600100Y0190710D01*
X0599330Y0190710D02*
X0601630Y0190710D01*
X0601630Y0189180D02*
X0601630Y0193780D01*
X0599330Y0193780D01*
X0598560Y0193010D01*
X0598560Y0191480D01*
X0599330Y0190710D01*
X0597030Y0192250D02*
X0595490Y0193780D01*
X0546420Y0194670D02*
X0546420Y0196970D01*
X0545660Y0197740D01*
X0542590Y0197740D01*
X0541820Y0196970D01*
X0541820Y0194670D01*
X0546420Y0194670D01*
X0545660Y0199270D02*
X0546420Y0200040D01*
X0546420Y0201580D01*
X0545660Y0202340D01*
X0544890Y0202340D01*
X0544120Y0201580D01*
X0543350Y0202340D01*
X0542590Y0202340D01*
X0541820Y0201580D01*
X0541820Y0200040D01*
X0542590Y0199270D01*
X0544120Y0200810D02*
X0544120Y0201580D01*
X0506630Y0203380D02*
X0506630Y0207980D01*
X0504330Y0207980D01*
X0503560Y0207210D01*
X0503560Y0205680D01*
X0504330Y0204910D01*
X0506630Y0204910D01*
X0505090Y0204910D02*
X0503560Y0203380D01*
X0502020Y0204150D02*
X0501260Y0203380D01*
X0499720Y0203380D01*
X0498960Y0204150D01*
X0498960Y0205680D01*
X0499720Y0206450D01*
X0500490Y0206450D01*
X0502020Y0205680D01*
X0502020Y0207980D01*
X0498960Y0207980D01*
X0541820Y0229880D02*
X0541820Y0232180D01*
X0542590Y0232950D01*
X0545660Y0232950D01*
X0546420Y0232180D01*
X0546420Y0229880D01*
X0541820Y0229880D01*
X0541820Y0234480D02*
X0544890Y0237550D01*
X0545660Y0237550D01*
X0546420Y0236780D01*
X0546420Y0235250D01*
X0545660Y0234480D01*
X0541820Y0234480D02*
X0541820Y0237550D01*
D34*
X0537120Y0226480D03*
X0537120Y0205880D03*
D80*
X0537120Y0205150D02*
X0539480Y0201210D01*
X0534760Y0201210D01*
X0537120Y0205150D01*
X0537120Y0227210D02*
X0534760Y0231150D01*
X0539480Y0231150D01*
X0537120Y0227210D01*
X0020000Y0100960D02*
G75*
%LPD*%
D78*
X0110600Y0166130D02*
X0110600Y0172530D01*
X0107390Y0172530D01*
X0106330Y0171470D01*
X0106330Y0169330D01*
X0107390Y0168260D01*
X0110600Y0168260D01*
X0112770Y0168260D02*
X0115980Y0168260D01*
X0117040Y0169330D01*
X0115980Y0170400D01*
X0112770Y0170400D01*
X0112770Y0171470D02*
X0112770Y0168260D01*
X0119200Y0168260D02*
X0120270Y0169330D01*
X0120270Y0173600D01*
X0121340Y0172530D02*
X0119200Y0172530D01*
X0115980Y0172530D02*
X0113840Y0172530D01*
X0112770Y0171470D01*
X0104150Y0171470D02*
X0104150Y0169330D01*
X0103080Y0168260D01*
X0100950Y0168260D01*
X0099880Y0170400D02*
X0104150Y0170400D01*
X0104150Y0171470D02*
X0103080Y0172530D01*
X0100950Y0172530D01*
X0099880Y0171470D01*
X0099880Y0170400D01*
X0123510Y0171470D02*
X0127780Y0171470D01*
X0129960Y0172530D02*
X0134230Y0168260D01*
X0136390Y0168260D02*
X0138530Y0168260D01*
X0137460Y0168260D02*
X0137460Y0172530D01*
X0138530Y0172530D01*
X0140700Y0172530D02*
X0141760Y0172530D01*
X0143900Y0170400D01*
X0146070Y0171470D02*
X0146070Y0168260D01*
X0143900Y0168260D02*
X0143900Y0172530D01*
X0146070Y0171470D02*
X0147140Y0172530D01*
X0149280Y0172530D01*
X0150340Y0171470D01*
X0152500Y0172530D02*
X0154640Y0172530D01*
X0153570Y0173600D02*
X0153570Y0169330D01*
X0152500Y0168260D01*
X0150340Y0168260D02*
X0150340Y0174670D01*
X0137460Y0174670D02*
X0137460Y0175740D01*
X0134230Y0172530D02*
X0129960Y0168260D01*
X0272020Y0100960D02*
G75*
%LPD*%
D56*
X0434710Y0204680D02*
X0437770Y0207750D01*
X0438540Y0207750D01*
X0438540Y0209290D02*
X0438540Y0212360D01*
X0438540Y0210820D02*
X0433940Y0210820D01*
X0435470Y0212360D01*
X0434710Y0213890D02*
X0433940Y0214660D01*
X0433940Y0216190D01*
X0434710Y0216960D01*
X0437770Y0216960D01*
X0438540Y0216190D01*
X0438540Y0214660D01*
X0437770Y0213890D01*
X0433940Y0207750D02*
X0433940Y0204680D01*
X0434710Y0204680D01*
X0426870Y0325060D02*
X0426870Y0328130D01*
X0426870Y0326600D02*
X0422270Y0326600D01*
X0423800Y0328130D01*
X0422270Y0331200D02*
X0426870Y0331200D01*
X0426870Y0329670D02*
X0426870Y0332740D01*
X0426110Y0334270D02*
X0426870Y0335040D01*
X0426870Y0336570D01*
X0426110Y0337340D01*
X0423040Y0337340D01*
X0422270Y0336570D01*
X0422270Y0335040D01*
X0423040Y0334270D01*
X0423800Y0332740D02*
X0422270Y0331200D01*
X0336740Y0203570D02*
X0332140Y0203570D01*
X0332140Y0201270D01*
X0332910Y0200500D01*
X0334440Y0200500D01*
X0335210Y0201270D01*
X0335210Y0203570D01*
X0335210Y0202030D02*
X0336740Y0200500D01*
X0335970Y0198960D02*
X0336740Y0198200D01*
X0336740Y0196660D01*
X0335970Y0195900D01*
X0335210Y0195900D01*
X0334440Y0196660D01*
X0334440Y0198960D01*
X0335970Y0198960D01*
X0334440Y0198960D02*
X0332910Y0197430D01*
X0332140Y0195900D01*
X0322240Y0196200D02*
X0321470Y0196960D01*
X0322240Y0196200D02*
X0322240Y0194660D01*
X0321470Y0193900D01*
X0320710Y0193900D01*
X0319940Y0194660D01*
X0319940Y0195430D01*
X0319940Y0194660D02*
X0319170Y0193900D01*
X0318410Y0193900D01*
X0317640Y0194660D01*
X0317640Y0196200D01*
X0318410Y0196960D01*
X0317640Y0200030D02*
X0322240Y0200030D01*
X0322240Y0198500D02*
X0322240Y0201570D01*
X0322240Y0203100D02*
X0320710Y0204640D01*
X0320710Y0203870D02*
X0320710Y0206170D01*
X0322240Y0206170D02*
X0317640Y0206170D01*
X0317640Y0203870D01*
X0318410Y0203100D01*
X0319940Y0203100D01*
X0320710Y0203870D01*
X0319170Y0201570D02*
X0317640Y0200030D01*
X0316750Y0150960D02*
X0314450Y0150960D01*
X0313680Y0150200D01*
X0313680Y0147130D01*
X0314450Y0146360D01*
X0316750Y0146360D01*
X0316750Y0150960D01*
X0312150Y0150200D02*
X0311380Y0150960D01*
X0309840Y0150960D01*
X0309080Y0150200D01*
X0309080Y0149430D01*
X0309840Y0148660D01*
X0309080Y0147890D01*
X0309080Y0147130D01*
X0309840Y0146360D01*
X0311380Y0146360D01*
X0312150Y0147130D01*
X0310610Y0148660D02*
X0309840Y0148660D01*
X0308040Y0111170D02*
X0303440Y0111170D01*
X0303440Y0108870D01*
X0304210Y0108100D01*
X0305740Y0108100D01*
X0306510Y0108870D01*
X0306510Y0111170D01*
X0306510Y0109630D02*
X0308040Y0108100D01*
X0307270Y0106560D02*
X0308040Y0105800D01*
X0308040Y0104260D01*
X0307270Y0103500D01*
X0305740Y0103500D01*
X0304970Y0104260D01*
X0304970Y0105030D01*
X0305740Y0106560D01*
X0303440Y0106560D01*
X0303440Y0103500D01*
X0281540Y0146360D02*
X0279240Y0146360D01*
X0278470Y0147130D01*
X0278470Y0150200D01*
X0279240Y0150960D01*
X0281540Y0150960D01*
X0281540Y0146360D01*
X0276940Y0146360D02*
X0273870Y0149430D01*
X0273870Y0150200D01*
X0274640Y0150960D01*
X0276170Y0150960D01*
X0276940Y0150200D01*
X0276940Y0146360D02*
X0273870Y0146360D01*
D95*
X0284940Y0141660D03*
X0305540Y0141660D03*
D80*
X0306270Y0141660D02*
X0310210Y0144020D01*
X0310210Y0139300D01*
X0306270Y0141660D01*
X0284210Y0141660D02*
X0280270Y0139300D01*
X0280270Y0144020D01*
X0284210Y0141660D01*
X0020000Y0181920D02*
G75*
%LPD*%
D78*
X0030790Y0272520D02*
X0024390Y0272520D01*
X0024390Y0269310D01*
X0025450Y0268250D01*
X0027590Y0268250D01*
X0028660Y0269310D01*
X0028660Y0272520D01*
X0028660Y0274690D02*
X0028660Y0277900D01*
X0027590Y0278960D01*
X0026520Y0277900D01*
X0026520Y0274690D01*
X0025450Y0274690D02*
X0028660Y0274690D01*
X0028660Y0281120D02*
X0027590Y0282190D01*
X0023320Y0282190D01*
X0024390Y0283260D02*
X0024390Y0281120D01*
X0024390Y0277900D02*
X0024390Y0275760D01*
X0025450Y0274690D01*
X0025450Y0266070D02*
X0027590Y0266070D01*
X0028660Y0265000D01*
X0028660Y0262870D01*
X0026520Y0261800D02*
X0026520Y0266070D01*
X0025450Y0266070D02*
X0024390Y0265000D01*
X0024390Y0262870D01*
X0025450Y0261800D01*
X0026520Y0261800D01*
X0025450Y0285430D02*
X0025450Y0289700D01*
X0024390Y0291880D02*
X0028660Y0296150D01*
X0028660Y0298310D02*
X0028660Y0300450D01*
X0028660Y0299380D02*
X0024390Y0299380D01*
X0024390Y0300450D01*
X0024390Y0302620D02*
X0024390Y0303680D01*
X0026520Y0305820D01*
X0025450Y0307990D02*
X0028660Y0307990D01*
X0028660Y0305820D02*
X0024390Y0305820D01*
X0025450Y0307990D02*
X0024390Y0309060D01*
X0024390Y0311200D01*
X0025450Y0312260D01*
X0024390Y0314420D02*
X0024390Y0316560D01*
X0023320Y0315490D02*
X0027590Y0315490D01*
X0028660Y0314420D01*
X0028660Y0312260D02*
X0022250Y0312260D01*
X0022250Y0299380D02*
X0021180Y0299380D01*
X0024390Y0296150D02*
X0028660Y0291880D01*
X0496420Y0244400D02*
G75*
%LPD*%
X0716380Y0244400D02*
G75*
%LPD*%
D78*
X0806980Y0309570D02*
X0806980Y0315970D01*
X0803770Y0315970D01*
X0802710Y0314910D01*
X0802710Y0312770D01*
X0803770Y0311700D01*
X0806980Y0311700D01*
X0809150Y0311700D02*
X0812360Y0311700D01*
X0813420Y0312770D01*
X0812360Y0313840D01*
X0809150Y0313840D01*
X0809150Y0314910D02*
X0809150Y0311700D01*
X0815580Y0311700D02*
X0816650Y0312770D01*
X0816650Y0317040D01*
X0817720Y0315970D02*
X0815580Y0315970D01*
X0812360Y0315970D02*
X0810220Y0315970D01*
X0809150Y0314910D01*
X0800530Y0314910D02*
X0800530Y0312770D01*
X0799460Y0311700D01*
X0797330Y0311700D01*
X0796260Y0313840D02*
X0800530Y0313840D01*
X0800530Y0314910D02*
X0799460Y0315970D01*
X0797330Y0315970D01*
X0796260Y0314910D01*
X0796260Y0313840D01*
X0819890Y0314910D02*
X0824160Y0314910D01*
X0826340Y0315970D02*
X0830610Y0311700D01*
X0832770Y0311700D02*
X0834910Y0311700D01*
X0833840Y0311700D02*
X0833840Y0315970D01*
X0834910Y0315970D01*
X0837080Y0315970D02*
X0838140Y0315970D01*
X0840280Y0313840D01*
X0842450Y0314910D02*
X0842450Y0311700D01*
X0840280Y0311700D02*
X0840280Y0315970D01*
X0842450Y0314910D02*
X0843520Y0315970D01*
X0845660Y0315970D01*
X0846720Y0314910D01*
X0848880Y0315970D02*
X0851020Y0315970D01*
X0849950Y0317040D02*
X0849950Y0312770D01*
X0848880Y0311700D01*
X0846720Y0311700D02*
X0846720Y0318110D01*
X0833840Y0318110D02*
X0833840Y0319180D01*
X0830610Y0315970D02*
X0826340Y0311700D01*
X0020000Y0420130D02*
G75*
%LPD*%
D78*
X0030790Y0510730D02*
X0024390Y0510730D01*
X0024390Y0507520D01*
X0025450Y0506460D01*
X0027590Y0506460D01*
X0028660Y0507520D01*
X0028660Y0510730D01*
X0028660Y0512900D02*
X0028660Y0516110D01*
X0027590Y0517170D01*
X0026520Y0516110D01*
X0026520Y0512900D01*
X0025450Y0512900D02*
X0028660Y0512900D01*
X0028660Y0519330D02*
X0027590Y0520400D01*
X0023320Y0520400D01*
X0024390Y0521470D02*
X0024390Y0519330D01*
X0024390Y0516110D02*
X0024390Y0513970D01*
X0025450Y0512900D01*
X0025450Y0504280D02*
X0027590Y0504280D01*
X0028660Y0503210D01*
X0028660Y0501080D01*
X0026520Y0500010D02*
X0026520Y0504280D01*
X0025450Y0504280D02*
X0024390Y0503210D01*
X0024390Y0501080D01*
X0025450Y0500010D01*
X0026520Y0500010D01*
X0025450Y0523640D02*
X0025450Y0527910D01*
X0024390Y0530090D02*
X0028660Y0534360D01*
X0028660Y0536520D02*
X0028660Y0538660D01*
X0028660Y0537590D02*
X0024390Y0537590D01*
X0024390Y0538660D01*
X0024390Y0540830D02*
X0024390Y0541890D01*
X0026520Y0544030D01*
X0025450Y0546200D02*
X0028660Y0546200D01*
X0028660Y0544030D02*
X0024390Y0544030D01*
X0025450Y0546200D02*
X0024390Y0547270D01*
X0024390Y0549410D01*
X0025450Y0550470D01*
X0024390Y0552630D02*
X0024390Y0554770D01*
X0023320Y0553700D02*
X0027590Y0553700D01*
X0028660Y0552630D01*
X0028660Y0550470D02*
X0022250Y0550470D01*
X0022250Y0537590D02*
X0021180Y0537590D01*
X0024390Y0534360D02*
X0028660Y0530090D01*
X0272020Y0418800D02*
G75*
%LPD*%
D56*
X0434710Y0522520D02*
X0437770Y0525590D01*
X0438540Y0525590D01*
X0438540Y0527130D02*
X0438540Y0530200D01*
X0438540Y0528660D02*
X0433940Y0528660D01*
X0435470Y0530200D01*
X0434710Y0531730D02*
X0433940Y0532500D01*
X0433940Y0534030D01*
X0434710Y0534800D01*
X0437770Y0534800D01*
X0438540Y0534030D01*
X0438540Y0532500D01*
X0437770Y0531730D01*
X0433940Y0525590D02*
X0433940Y0522520D01*
X0434710Y0522520D01*
X0426870Y0642900D02*
X0426870Y0645970D01*
X0426870Y0644440D02*
X0422270Y0644440D01*
X0423800Y0645970D01*
X0422270Y0649040D02*
X0426870Y0649040D01*
X0426870Y0647510D02*
X0426870Y0650580D01*
X0426110Y0652110D02*
X0426870Y0652880D01*
X0426870Y0654410D01*
X0426110Y0655180D01*
X0423040Y0655180D01*
X0422270Y0654410D01*
X0422270Y0652880D01*
X0423040Y0652110D01*
X0423800Y0650580D02*
X0422270Y0649040D01*
X0336740Y0521410D02*
X0332140Y0521410D01*
X0332140Y0519110D01*
X0332910Y0518340D01*
X0334440Y0518340D01*
X0335210Y0519110D01*
X0335210Y0521410D01*
X0335210Y0519870D02*
X0336740Y0518340D01*
X0335970Y0516800D02*
X0336740Y0516040D01*
X0336740Y0514500D01*
X0335970Y0513740D01*
X0335210Y0513740D01*
X0334440Y0514500D01*
X0334440Y0516800D01*
X0335970Y0516800D01*
X0334440Y0516800D02*
X0332910Y0515270D01*
X0332140Y0513740D01*
X0322240Y0514040D02*
X0321470Y0514800D01*
X0322240Y0514040D02*
X0322240Y0512500D01*
X0321470Y0511740D01*
X0320710Y0511740D01*
X0319940Y0512500D01*
X0319940Y0513270D01*
X0319940Y0512500D02*
X0319170Y0511740D01*
X0318410Y0511740D01*
X0317640Y0512500D01*
X0317640Y0514040D01*
X0318410Y0514800D01*
X0317640Y0517870D02*
X0322240Y0517870D01*
X0322240Y0516340D02*
X0322240Y0519410D01*
X0322240Y0520940D02*
X0320710Y0522480D01*
X0320710Y0521710D02*
X0320710Y0524010D01*
X0322240Y0524010D02*
X0317640Y0524010D01*
X0317640Y0521710D01*
X0318410Y0520940D01*
X0319940Y0520940D01*
X0320710Y0521710D01*
X0319170Y0519410D02*
X0317640Y0517870D01*
X0316750Y0468800D02*
X0314450Y0468800D01*
X0313680Y0468040D01*
X0313680Y0464970D01*
X0314450Y0464200D01*
X0316750Y0464200D01*
X0316750Y0468800D01*
X0312150Y0468040D02*
X0311380Y0468800D01*
X0309840Y0468800D01*
X0309080Y0468040D01*
X0309080Y0467270D01*
X0309840Y0466500D01*
X0309080Y0465730D01*
X0309080Y0464970D01*
X0309840Y0464200D01*
X0311380Y0464200D01*
X0312150Y0464970D01*
X0310610Y0466500D02*
X0309840Y0466500D01*
X0308040Y0429010D02*
X0303440Y0429010D01*
X0303440Y0426710D01*
X0304210Y0425940D01*
X0305740Y0425940D01*
X0306510Y0426710D01*
X0306510Y0429010D01*
X0306510Y0427470D02*
X0308040Y0425940D01*
X0307270Y0424400D02*
X0308040Y0423640D01*
X0308040Y0422100D01*
X0307270Y0421340D01*
X0305740Y0421340D01*
X0304970Y0422100D01*
X0304970Y0422870D01*
X0305740Y0424400D01*
X0303440Y0424400D01*
X0303440Y0421340D01*
X0281540Y0464200D02*
X0279240Y0464200D01*
X0278470Y0464970D01*
X0278470Y0468040D01*
X0279240Y0468800D01*
X0281540Y0468800D01*
X0281540Y0464200D01*
X0276940Y0464200D02*
X0273870Y0467270D01*
X0273870Y0468040D01*
X0274640Y0468800D01*
X0276170Y0468800D01*
X0276940Y0468040D01*
X0276940Y0464200D02*
X0273870Y0464200D01*
D95*
X0284940Y0459500D03*
X0305540Y0459500D03*
D80*
X0306270Y0459500D02*
X0310210Y0461860D01*
X0310210Y0457140D01*
X0306270Y0459500D01*
X0284210Y0459500D02*
X0280270Y0457140D01*
X0280270Y0461860D01*
X0284210Y0459500D01*
X0814260Y0020000D02*
G75*
%LPD*%
X0100960Y0181920D02*
G75*
%LPD*%
D78*
X0111750Y0272520D02*
X0105350Y0272520D01*
X0105350Y0269310D01*
X0106410Y0268250D01*
X0108550Y0268250D01*
X0109620Y0269310D01*
X0109620Y0272520D01*
X0109620Y0274690D02*
X0109620Y0277900D01*
X0108550Y0278960D01*
X0107480Y0277900D01*
X0107480Y0274690D01*
X0106410Y0274690D02*
X0109620Y0274690D01*
X0109620Y0281120D02*
X0108550Y0282190D01*
X0104280Y0282190D01*
X0105350Y0283260D02*
X0105350Y0281120D01*
X0105350Y0277900D02*
X0105350Y0275760D01*
X0106410Y0274690D01*
X0106410Y0266070D02*
X0108550Y0266070D01*
X0109620Y0265000D01*
X0109620Y0262870D01*
X0107480Y0261800D02*
X0107480Y0266070D01*
X0106410Y0266070D02*
X0105350Y0265000D01*
X0105350Y0262870D01*
X0106410Y0261800D01*
X0107480Y0261800D01*
X0106410Y0285430D02*
X0106410Y0289700D01*
X0105350Y0291880D02*
X0109620Y0296150D01*
X0109620Y0298310D02*
X0109620Y0300450D01*
X0109620Y0299380D02*
X0105350Y0299380D01*
X0105350Y0300450D01*
X0105350Y0302620D02*
X0105350Y0303680D01*
X0107480Y0305820D01*
X0106410Y0307990D02*
X0109620Y0307990D01*
X0109620Y0305820D02*
X0105350Y0305820D01*
X0106410Y0307990D02*
X0105350Y0309060D01*
X0105350Y0311200D01*
X0106410Y0312260D01*
X0105350Y0314420D02*
X0105350Y0316560D01*
X0104280Y0315490D02*
X0108550Y0315490D01*
X0109620Y0314420D01*
X0109620Y0312260D02*
X0103210Y0312260D01*
X0103210Y0299380D02*
X0102140Y0299380D01*
X0105350Y0296150D02*
X0109620Y0291880D01*
X0191060Y0181920D02*
G75*
%LPD*%
D78*
X0201850Y0272520D02*
X0195450Y0272520D01*
X0195450Y0269310D01*
X0196510Y0268250D01*
X0198650Y0268250D01*
X0199720Y0269310D01*
X0199720Y0272520D01*
X0199720Y0274690D02*
X0199720Y0277900D01*
X0198650Y0278960D01*
X0197580Y0277900D01*
X0197580Y0274690D01*
X0196510Y0274690D02*
X0199720Y0274690D01*
X0199720Y0281120D02*
X0198650Y0282190D01*
X0194380Y0282190D01*
X0195450Y0283260D02*
X0195450Y0281120D01*
X0195450Y0277900D02*
X0195450Y0275760D01*
X0196510Y0274690D01*
X0196510Y0266070D02*
X0198650Y0266070D01*
X0199720Y0265000D01*
X0199720Y0262870D01*
X0197580Y0261800D02*
X0197580Y0266070D01*
X0196510Y0266070D02*
X0195450Y0265000D01*
X0195450Y0262870D01*
X0196510Y0261800D01*
X0197580Y0261800D01*
X0196510Y0285430D02*
X0196510Y0289700D01*
X0195450Y0291880D02*
X0199720Y0296150D01*
X0199720Y0298310D02*
X0199720Y0300450D01*
X0199720Y0299380D02*
X0195450Y0299380D01*
X0195450Y0300450D01*
X0195450Y0302620D02*
X0195450Y0303680D01*
X0197580Y0305820D01*
X0196510Y0307990D02*
X0199720Y0307990D01*
X0199720Y0305820D02*
X0195450Y0305820D01*
X0196510Y0307990D02*
X0195450Y0309060D01*
X0195450Y0311200D01*
X0196510Y0312260D01*
X0195450Y0314420D02*
X0195450Y0316560D01*
X0194380Y0315490D02*
X0198650Y0315490D01*
X0199720Y0314420D01*
X0199720Y0312260D02*
X0193310Y0312260D01*
X0193310Y0299380D02*
X0192240Y0299380D01*
X0195450Y0296150D02*
X0199720Y0291880D01*
X0191060Y0420130D02*
G75*
%LPD*%
D78*
X0201850Y0510730D02*
X0195450Y0510730D01*
X0195450Y0507520D01*
X0196510Y0506460D01*
X0198650Y0506460D01*
X0199720Y0507520D01*
X0199720Y0510730D01*
X0199720Y0512900D02*
X0199720Y0516110D01*
X0198650Y0517170D01*
X0197580Y0516110D01*
X0197580Y0512900D01*
X0196510Y0512900D02*
X0199720Y0512900D01*
X0199720Y0519330D02*
X0198650Y0520400D01*
X0194380Y0520400D01*
X0195450Y0521470D02*
X0195450Y0519330D01*
X0195450Y0516110D02*
X0195450Y0513970D01*
X0196510Y0512900D01*
X0196510Y0504280D02*
X0198650Y0504280D01*
X0199720Y0503210D01*
X0199720Y0501080D01*
X0197580Y0500010D02*
X0197580Y0504280D01*
X0196510Y0504280D02*
X0195450Y0503210D01*
X0195450Y0501080D01*
X0196510Y0500010D01*
X0197580Y0500010D01*
X0196510Y0523640D02*
X0196510Y0527910D01*
X0195450Y0530090D02*
X0199720Y0534360D01*
X0199720Y0536520D02*
X0199720Y0538660D01*
X0199720Y0537590D02*
X0195450Y0537590D01*
X0195450Y0538660D01*
X0195450Y0540830D02*
X0195450Y0541890D01*
X0197580Y0544030D01*
X0196510Y0546200D02*
X0199720Y0546200D01*
X0199720Y0544030D02*
X0195450Y0544030D01*
X0196510Y0546200D02*
X0195450Y0547270D01*
X0195450Y0549410D01*
X0196510Y0550470D01*
X0195450Y0552630D02*
X0195450Y0554770D01*
X0194380Y0553700D02*
X0198650Y0553700D01*
X0199720Y0552630D01*
X0199720Y0550470D02*
X0193310Y0550470D01*
X0193310Y0537590D02*
X0192240Y0537590D01*
X0195450Y0534360D02*
X0199720Y0530090D01*
X0716380Y0325360D02*
G75*
%LPD*%
D78*
X0806980Y0390530D02*
X0806980Y0396930D01*
X0803770Y0396930D01*
X0802710Y0395870D01*
X0802710Y0393730D01*
X0803770Y0392660D01*
X0806980Y0392660D01*
X0809150Y0392660D02*
X0812360Y0392660D01*
X0813420Y0393730D01*
X0812360Y0394800D01*
X0809150Y0394800D01*
X0809150Y0395870D02*
X0809150Y0392660D01*
X0815580Y0392660D02*
X0816650Y0393730D01*
X0816650Y0398000D01*
X0817720Y0396930D02*
X0815580Y0396930D01*
X0812360Y0396930D02*
X0810220Y0396930D01*
X0809150Y0395870D01*
X0800530Y0395870D02*
X0800530Y0393730D01*
X0799460Y0392660D01*
X0797330Y0392660D01*
X0796260Y0394800D02*
X0800530Y0394800D01*
X0800530Y0395870D02*
X0799460Y0396930D01*
X0797330Y0396930D01*
X0796260Y0395870D01*
X0796260Y0394800D01*
X0819890Y0395870D02*
X0824160Y0395870D01*
X0826340Y0396930D02*
X0830610Y0392660D01*
X0832770Y0392660D02*
X0834910Y0392660D01*
X0833840Y0392660D02*
X0833840Y0396930D01*
X0834910Y0396930D01*
X0837080Y0396930D02*
X0838140Y0396930D01*
X0840280Y0394800D01*
X0842450Y0395870D02*
X0842450Y0392660D01*
X0840280Y0392660D02*
X0840280Y0396930D01*
X0842450Y0395870D02*
X0843520Y0396930D01*
X0845660Y0396930D01*
X0846720Y0395870D01*
X0848880Y0396930D02*
X0851020Y0396930D01*
X0849950Y0398000D02*
X0849950Y0393730D01*
X0848880Y0392660D01*
X0846720Y0392660D02*
X0846720Y0399070D01*
X0833840Y0399070D02*
X0833840Y0400140D01*
X0830610Y0396930D02*
X0826340Y0392660D01*
X1067960Y0020000D02*
G75*
%LPD*%
D78*
X1078750Y0110600D02*
X1072350Y0110600D01*
X1072350Y0107390D01*
X1073410Y0106330D01*
X1075550Y0106330D01*
X1076620Y0107390D01*
X1076620Y0110600D01*
X1076620Y0112770D02*
X1076620Y0115980D01*
X1075550Y0117040D01*
X1074480Y0115980D01*
X1074480Y0112770D01*
X1073410Y0112770D02*
X1076620Y0112770D01*
X1076620Y0119200D02*
X1075550Y0120270D01*
X1071280Y0120270D01*
X1072350Y0121340D02*
X1072350Y0119200D01*
X1072350Y0115980D02*
X1072350Y0113840D01*
X1073410Y0112770D01*
X1073410Y0104150D02*
X1075550Y0104150D01*
X1076620Y0103080D01*
X1076620Y0100950D01*
X1074480Y0099880D02*
X1074480Y0104150D01*
X1073410Y0104150D02*
X1072350Y0103080D01*
X1072350Y0100950D01*
X1073410Y0099880D01*
X1074480Y0099880D01*
X1073410Y0123510D02*
X1073410Y0127780D01*
X1072350Y0129960D02*
X1076620Y0134230D01*
X1076620Y0136390D02*
X1076620Y0138530D01*
X1076620Y0137460D02*
X1072350Y0137460D01*
X1072350Y0138530D01*
X1072350Y0140700D02*
X1072350Y0141760D01*
X1074480Y0143900D01*
X1073410Y0146070D02*
X1076620Y0146070D01*
X1076620Y0143900D02*
X1072350Y0143900D01*
X1073410Y0146070D02*
X1072350Y0147140D01*
X1072350Y0149280D01*
X1073410Y0150340D01*
X1072350Y0152500D02*
X1072350Y0154640D01*
X1071280Y0153570D02*
X1075550Y0153570D01*
X1076620Y0152500D01*
X1076620Y0150340D02*
X1070210Y0150340D01*
X1070210Y0137460D02*
X1069140Y0137460D01*
X1072350Y0134230D02*
X1076620Y0129960D01*
X0496420Y0498100D02*
G75*
%LPD*%
D78*
X0587020Y0563270D02*
X0587020Y0569670D01*
X0583810Y0569670D01*
X0582750Y0568610D01*
X0582750Y0566470D01*
X0583810Y0565400D01*
X0587020Y0565400D01*
X0589190Y0565400D02*
X0592400Y0565400D01*
X0593460Y0566470D01*
X0592400Y0567540D01*
X0589190Y0567540D01*
X0589190Y0568610D02*
X0589190Y0565400D01*
X0595620Y0565400D02*
X0596690Y0566470D01*
X0596690Y0570740D01*
X0597760Y0569670D02*
X0595620Y0569670D01*
X0592400Y0569670D02*
X0590260Y0569670D01*
X0589190Y0568610D01*
X0580570Y0568610D02*
X0580570Y0566470D01*
X0579500Y0565400D01*
X0577370Y0565400D01*
X0576300Y0567540D02*
X0580570Y0567540D01*
X0580570Y0568610D02*
X0579500Y0569670D01*
X0577370Y0569670D01*
X0576300Y0568610D01*
X0576300Y0567540D01*
X0599930Y0568610D02*
X0604200Y0568610D01*
X0606380Y0569670D02*
X0610650Y0565400D01*
X0612810Y0565400D02*
X0614950Y0565400D01*
X0613880Y0565400D02*
X0613880Y0569670D01*
X0614950Y0569670D01*
X0617120Y0569670D02*
X0618180Y0569670D01*
X0620320Y0567540D01*
X0622490Y0568610D02*
X0622490Y0565400D01*
X0620320Y0565400D02*
X0620320Y0569670D01*
X0622490Y0568610D02*
X0623560Y0569670D01*
X0625700Y0569670D01*
X0626760Y0568610D01*
X0628920Y0569670D02*
X0631060Y0569670D01*
X0629990Y0570740D02*
X0629990Y0566470D01*
X0628920Y0565400D01*
X0626760Y0565400D02*
X0626760Y0571810D01*
X0613880Y0571810D02*
X0613880Y0572880D01*
X0610650Y0569670D02*
X0606380Y0565400D01*
X0987000Y0239960D02*
G75*
%LPD*%
D78*
X0997790Y0330560D02*
X0991390Y0330560D01*
X0991390Y0327350D01*
X0992450Y0326290D01*
X0994590Y0326290D01*
X0995660Y0327350D01*
X0995660Y0330560D01*
X0995660Y0332730D02*
X0995660Y0335940D01*
X0994590Y0337000D01*
X0993520Y0335940D01*
X0993520Y0332730D01*
X0992450Y0332730D02*
X0995660Y0332730D01*
X0995660Y0339160D02*
X0994590Y0340230D01*
X0990320Y0340230D01*
X0991390Y0341300D02*
X0991390Y0339160D01*
X0991390Y0335940D02*
X0991390Y0333800D01*
X0992450Y0332730D01*
X0992450Y0324110D02*
X0994590Y0324110D01*
X0995660Y0323040D01*
X0995660Y0320910D01*
X0993520Y0319840D02*
X0993520Y0324110D01*
X0992450Y0324110D02*
X0991390Y0323040D01*
X0991390Y0320910D01*
X0992450Y0319840D01*
X0993520Y0319840D01*
X0992450Y0343470D02*
X0992450Y0347740D01*
X0991390Y0349920D02*
X0995660Y0354190D01*
X0995660Y0356350D02*
X0995660Y0358490D01*
X0995660Y0357420D02*
X0991390Y0357420D01*
X0991390Y0358490D01*
X0991390Y0360660D02*
X0991390Y0361720D01*
X0993520Y0363860D01*
X0992450Y0366030D02*
X0995660Y0366030D01*
X0995660Y0363860D02*
X0991390Y0363860D01*
X0992450Y0366030D02*
X0991390Y0367100D01*
X0991390Y0369240D01*
X0992450Y0370300D01*
X0991390Y0372460D02*
X0991390Y0374600D01*
X0990320Y0373530D02*
X0994590Y0373530D01*
X0995660Y0372460D01*
X0995660Y0370300D02*
X0989250Y0370300D01*
X0989250Y0357420D02*
X0988180Y0357420D01*
X0991390Y0354190D02*
X0995660Y0349920D01*
X0020000Y0658340D02*
G75*
%LPD*%
D78*
X0110600Y0723510D02*
X0110600Y0729910D01*
X0107390Y0729910D01*
X0106330Y0728850D01*
X0106330Y0726710D01*
X0107390Y0725640D01*
X0110600Y0725640D01*
X0112770Y0725640D02*
X0115980Y0725640D01*
X0117040Y0726710D01*
X0115980Y0727780D01*
X0112770Y0727780D01*
X0112770Y0728850D02*
X0112770Y0725640D01*
X0119200Y0725640D02*
X0120270Y0726710D01*
X0120270Y0730980D01*
X0121340Y0729910D02*
X0119200Y0729910D01*
X0115980Y0729910D02*
X0113840Y0729910D01*
X0112770Y0728850D01*
X0104150Y0728850D02*
X0104150Y0726710D01*
X0103080Y0725640D01*
X0100950Y0725640D01*
X0099880Y0727780D02*
X0104150Y0727780D01*
X0104150Y0728850D02*
X0103080Y0729910D01*
X0100950Y0729910D01*
X0099880Y0728850D01*
X0099880Y0727780D01*
X0123510Y0728850D02*
X0127780Y0728850D01*
X0129960Y0729910D02*
X0134230Y0725640D01*
X0136390Y0725640D02*
X0138530Y0725640D01*
X0137460Y0725640D02*
X0137460Y0729910D01*
X0138530Y0729910D01*
X0140700Y0729910D02*
X0141760Y0729910D01*
X0143900Y0727780D01*
X0146070Y0728850D02*
X0146070Y0725640D01*
X0143900Y0725640D02*
X0143900Y0729910D01*
X0146070Y0728850D02*
X0147140Y0729910D01*
X0149280Y0729910D01*
X0150340Y0728850D01*
X0152500Y0729910D02*
X0154640Y0729910D01*
X0153570Y0730980D02*
X0153570Y0726710D01*
X0152500Y0725640D01*
X0150340Y0725640D02*
X0150340Y0732050D01*
X0137460Y0732050D02*
X0137460Y0733120D01*
X0134230Y0729910D02*
X0129960Y0725640D01*
X0496420Y0579060D02*
G75*
%LPD*%
D78*
X0587020Y0644230D02*
X0587020Y0650630D01*
X0583810Y0650630D01*
X0582750Y0649570D01*
X0582750Y0647430D01*
X0583810Y0646360D01*
X0587020Y0646360D01*
X0589190Y0646360D02*
X0592400Y0646360D01*
X0593460Y0647430D01*
X0592400Y0648500D01*
X0589190Y0648500D01*
X0589190Y0649570D02*
X0589190Y0646360D01*
X0595620Y0646360D02*
X0596690Y0647430D01*
X0596690Y0651700D01*
X0597760Y0650630D02*
X0595620Y0650630D01*
X0592400Y0650630D02*
X0590260Y0650630D01*
X0589190Y0649570D01*
X0580570Y0649570D02*
X0580570Y0647430D01*
X0579500Y0646360D01*
X0577370Y0646360D01*
X0576300Y0648500D02*
X0580570Y0648500D01*
X0580570Y0649570D02*
X0579500Y0650630D01*
X0577370Y0650630D01*
X0576300Y0649570D01*
X0576300Y0648500D01*
X0599930Y0649570D02*
X0604200Y0649570D01*
X0606380Y0650630D02*
X0610650Y0646360D01*
X0612810Y0646360D02*
X0614950Y0646360D01*
X0613880Y0646360D02*
X0613880Y0650630D01*
X0614950Y0650630D01*
X0617120Y0650630D02*
X0618180Y0650630D01*
X0620320Y0648500D01*
X0622490Y0649570D02*
X0622490Y0646360D01*
X0620320Y0646360D02*
X0620320Y0650630D01*
X0622490Y0649570D02*
X0623560Y0650630D01*
X0625700Y0650630D01*
X0626760Y0649570D01*
X0628920Y0650630D02*
X0631060Y0650630D01*
X0629990Y0651700D02*
X0629990Y0647430D01*
X0628920Y0646360D01*
X0626760Y0646360D02*
X0626760Y0652770D01*
X0613880Y0652770D02*
X0613880Y0653840D01*
X0610650Y0650630D02*
X0606380Y0646360D01*
X0496420Y0660020D02*
G75*
%LPD*%
D78*
X0587020Y0725190D02*
X0587020Y0731590D01*
X0583810Y0731590D01*
X0582750Y0730530D01*
X0582750Y0728390D01*
X0583810Y0727320D01*
X0587020Y0727320D01*
X0589190Y0727320D02*
X0592400Y0727320D01*
X0593460Y0728390D01*
X0592400Y0729460D01*
X0589190Y0729460D01*
X0589190Y0730530D02*
X0589190Y0727320D01*
X0595620Y0727320D02*
X0596690Y0728390D01*
X0596690Y0732660D01*
X0597760Y0731590D02*
X0595620Y0731590D01*
X0592400Y0731590D02*
X0590260Y0731590D01*
X0589190Y0730530D01*
X0580570Y0730530D02*
X0580570Y0728390D01*
X0579500Y0727320D01*
X0577370Y0727320D01*
X0576300Y0729460D02*
X0580570Y0729460D01*
X0580570Y0730530D02*
X0579500Y0731590D01*
X0577370Y0731590D01*
X0576300Y0730530D01*
X0576300Y0729460D01*
X0599930Y0730530D02*
X0604200Y0730530D01*
X0606380Y0731590D02*
X0610650Y0727320D01*
X0612810Y0727320D02*
X0614950Y0727320D01*
X0613880Y0727320D02*
X0613880Y0731590D01*
X0614950Y0731590D01*
X0617120Y0731590D02*
X0618180Y0731590D01*
X0620320Y0729460D01*
X0622490Y0730530D02*
X0622490Y0727320D01*
X0620320Y0727320D02*
X0620320Y0731590D01*
X0622490Y0730530D02*
X0623560Y0731590D01*
X0625700Y0731590D01*
X0626760Y0730530D01*
X0628920Y0731590D02*
X0631060Y0731590D01*
X0629990Y0732660D02*
X0629990Y0728390D01*
X0628920Y0727320D01*
X0626760Y0727320D02*
X0626760Y0733730D01*
X0613880Y0733730D02*
X0613880Y0734800D01*
X0610650Y0731590D02*
X0606380Y0727320D01*
X0716380Y0406320D02*
G75*
%LPD*%
D78*
X0806980Y0471490D02*
X0806980Y0477890D01*
X0803770Y0477890D01*
X0802710Y0476830D01*
X0802710Y0474690D01*
X0803770Y0473620D01*
X0806980Y0473620D01*
X0809150Y0473620D02*
X0812360Y0473620D01*
X0813420Y0474690D01*
X0812360Y0475760D01*
X0809150Y0475760D01*
X0809150Y0476830D02*
X0809150Y0473620D01*
X0815580Y0473620D02*
X0816650Y0474690D01*
X0816650Y0478960D01*
X0817720Y0477890D02*
X0815580Y0477890D01*
X0812360Y0477890D02*
X0810220Y0477890D01*
X0809150Y0476830D01*
X0800530Y0476830D02*
X0800530Y0474690D01*
X0799460Y0473620D01*
X0797330Y0473620D01*
X0796260Y0475760D02*
X0800530Y0475760D01*
X0800530Y0476830D02*
X0799460Y0477890D01*
X0797330Y0477890D01*
X0796260Y0476830D01*
X0796260Y0475760D01*
X0819890Y0476830D02*
X0824160Y0476830D01*
X0826340Y0477890D02*
X0830610Y0473620D01*
X0832770Y0473620D02*
X0834910Y0473620D01*
X0833840Y0473620D02*
X0833840Y0477890D01*
X0834910Y0477890D01*
X0837080Y0477890D02*
X0838140Y0477890D01*
X0840280Y0475760D01*
X0842450Y0476830D02*
X0842450Y0473620D01*
X0840280Y0473620D02*
X0840280Y0477890D01*
X0842450Y0476830D02*
X0843520Y0477890D01*
X0845660Y0477890D01*
X0846720Y0476830D01*
X0848880Y0477890D02*
X0851020Y0477890D01*
X0849950Y0478960D02*
X0849950Y0474690D01*
X0848880Y0473620D01*
X0846720Y0473620D02*
X0846720Y0480030D01*
X0833840Y0480030D02*
X0833840Y0481100D01*
X0830610Y0477890D02*
X0826340Y0473620D01*
X0110100Y0420130D02*
G75*
%LPD*%
D78*
X0120890Y0510730D02*
X0114490Y0510730D01*
X0114490Y0507520D01*
X0115550Y0506460D01*
X0117690Y0506460D01*
X0118760Y0507520D01*
X0118760Y0510730D01*
X0118760Y0512900D02*
X0118760Y0516110D01*
X0117690Y0517170D01*
X0116620Y0516110D01*
X0116620Y0512900D01*
X0115550Y0512900D02*
X0118760Y0512900D01*
X0118760Y0519330D02*
X0117690Y0520400D01*
X0113420Y0520400D01*
X0114490Y0521470D02*
X0114490Y0519330D01*
X0114490Y0516110D02*
X0114490Y0513970D01*
X0115550Y0512900D01*
X0115550Y0504280D02*
X0117690Y0504280D01*
X0118760Y0503210D01*
X0118760Y0501080D01*
X0116620Y0500010D02*
X0116620Y0504280D01*
X0115550Y0504280D02*
X0114490Y0503210D01*
X0114490Y0501080D01*
X0115550Y0500010D01*
X0116620Y0500010D01*
X0115550Y0523640D02*
X0115550Y0527910D01*
X0114490Y0530090D02*
X0118760Y0534360D01*
X0118760Y0536520D02*
X0118760Y0538660D01*
X0118760Y0537590D02*
X0114490Y0537590D01*
X0114490Y0538660D01*
X0114490Y0540830D02*
X0114490Y0541890D01*
X0116620Y0544030D01*
X0115550Y0546200D02*
X0118760Y0546200D01*
X0118760Y0544030D02*
X0114490Y0544030D01*
X0115550Y0546200D02*
X0114490Y0547270D01*
X0114490Y0549410D01*
X0115550Y0550470D01*
X0114490Y0552630D02*
X0114490Y0554770D01*
X0113420Y0553700D02*
X0117690Y0553700D01*
X0118760Y0552630D01*
X0118760Y0550470D02*
X0112350Y0550470D01*
X0112350Y0537590D02*
X0111280Y0537590D01*
X0114490Y0534360D02*
X0118760Y0530090D01*
X0734630Y0487280D02*
G75*
%LPD*%
X0954590Y0478170D02*
G75*
%LPD*%
D78*
X0965380Y0568770D02*
X0958980Y0568770D01*
X0958980Y0565560D01*
X0960040Y0564500D01*
X0962180Y0564500D01*
X0963250Y0565560D01*
X0963250Y0568770D01*
X0963250Y0570940D02*
X0963250Y0574150D01*
X0962180Y0575210D01*
X0961110Y0574150D01*
X0961110Y0570940D01*
X0960040Y0570940D02*
X0963250Y0570940D01*
X0963250Y0577370D02*
X0962180Y0578440D01*
X0957910Y0578440D01*
X0958980Y0579510D02*
X0958980Y0577370D01*
X0958980Y0574150D02*
X0958980Y0572010D01*
X0960040Y0570940D01*
X0960040Y0562320D02*
X0962180Y0562320D01*
X0963250Y0561250D01*
X0963250Y0559120D01*
X0961110Y0558050D02*
X0961110Y0562320D01*
X0960040Y0562320D02*
X0958980Y0561250D01*
X0958980Y0559120D01*
X0960040Y0558050D01*
X0961110Y0558050D01*
X0960040Y0581680D02*
X0960040Y0585950D01*
X0958980Y0588130D02*
X0963250Y0592400D01*
X0963250Y0594560D02*
X0963250Y0596700D01*
X0963250Y0595630D02*
X0958980Y0595630D01*
X0958980Y0596700D01*
X0958980Y0598870D02*
X0958980Y0599930D01*
X0961110Y0602070D01*
X0960040Y0604240D02*
X0963250Y0604240D01*
X0963250Y0602070D02*
X0958980Y0602070D01*
X0960040Y0604240D02*
X0958980Y0605310D01*
X0958980Y0607450D01*
X0960040Y0608510D01*
X0958980Y0610670D02*
X0958980Y0612810D01*
X0957910Y0611740D02*
X0962180Y0611740D01*
X0963250Y0610670D01*
X0963250Y0608510D02*
X0956840Y0608510D01*
X0956840Y0595630D02*
X0955770Y0595630D01*
X0958980Y0592400D02*
X0963250Y0588130D01*
X1035550Y0478170D02*
G75*
%LPD*%
D78*
X1046340Y0568770D02*
X1039940Y0568770D01*
X1039940Y0565560D01*
X1041000Y0564500D01*
X1043140Y0564500D01*
X1044210Y0565560D01*
X1044210Y0568770D01*
X1044210Y0570940D02*
X1044210Y0574150D01*
X1043140Y0575210D01*
X1042070Y0574150D01*
X1042070Y0570940D01*
X1041000Y0570940D02*
X1044210Y0570940D01*
X1044210Y0577370D02*
X1043140Y0578440D01*
X1038870Y0578440D01*
X1039940Y0579510D02*
X1039940Y0577370D01*
X1039940Y0574150D02*
X1039940Y0572010D01*
X1041000Y0570940D01*
X1041000Y0562320D02*
X1043140Y0562320D01*
X1044210Y0561250D01*
X1044210Y0559120D01*
X1042070Y0558050D02*
X1042070Y0562320D01*
X1041000Y0562320D02*
X1039940Y0561250D01*
X1039940Y0559120D01*
X1041000Y0558050D01*
X1042070Y0558050D01*
X1041000Y0581680D02*
X1041000Y0585950D01*
X1039940Y0588130D02*
X1044210Y0592400D01*
X1044210Y0594560D02*
X1044210Y0596700D01*
X1044210Y0595630D02*
X1039940Y0595630D01*
X1039940Y0596700D01*
X1039940Y0598870D02*
X1039940Y0599930D01*
X1042070Y0602070D01*
X1041000Y0604240D02*
X1044210Y0604240D01*
X1044210Y0602070D02*
X1039940Y0602070D01*
X1041000Y0604240D02*
X1039940Y0605310D01*
X1039940Y0607450D01*
X1041000Y0608510D01*
X1039940Y0610670D02*
X1039940Y0612810D01*
X1038870Y0611740D02*
X1043140Y0611740D01*
X1044210Y0610670D01*
X1044210Y0608510D02*
X1037800Y0608510D01*
X1037800Y0595630D02*
X1036730Y0595630D01*
X1039940Y0592400D02*
X1044210Y0588130D01*
M02*
