G75*
G70*
%OFA0B0*%
%FSLAX25Y25*%
%IPPOS*%
%LPD*%
%AMOC8*
5,1,8,0,0,1.08239X$1,22.5*
%
%ADD14C,0.05520*%
%ADD16C,0.13300*%
%ADD25C,0.06000*%
%ADD30R,0.07890X0.07100*%
%ADD36R,0.06740X0.06740*%
%ADD38OC8,0.06000*%
%ADD42R,0.07100X0.07890*%
%ADD43C,0.04340*%
%ADD45C,0.03950*%
%ADD48R,0.07100X0.07900*%
%ADD60R,0.07900X0.07100*%
%ADD64R,0.14190X0.08280*%
%ADD65C,0.03160*%
%ADD72OC8,0.12610*%
%ADD76C,0.06350*%
%ADD82OC8,0.19800*%
%ADD83C,0.07890*%
%ADD85OC8,0.06800*%
%ADD92C,0.06800*%
%ADD94R,0.07890X0.06310*%
%ADD96R,0.08280X0.14190*%
%ADD97R,0.06310X0.07890*%
X0020000Y0020000D02*
G75*
%LPD*%
D25*
X0068560Y0092000D02*
X0063360Y0092000D01*
X0063360Y0102000D02*
X0068560Y0102000D01*
X0068560Y0112000D02*
X0063360Y0112000D01*
X0063360Y0122000D02*
X0068560Y0122000D01*
X0068560Y0132000D02*
X0063360Y0132000D01*
X0063360Y0142000D02*
X0068560Y0142000D01*
X0068560Y0152000D02*
X0063360Y0152000D01*
X0063360Y0162000D02*
X0068560Y0162000D01*
X0038560Y0162000D02*
X0033360Y0162000D01*
X0033360Y0152000D02*
X0038560Y0152000D01*
X0038560Y0142000D02*
X0033360Y0142000D01*
X0033360Y0132000D02*
X0038560Y0132000D01*
X0038560Y0122000D02*
X0033360Y0122000D01*
X0033360Y0112000D02*
X0038560Y0112000D01*
X0038560Y0102000D02*
X0033360Y0102000D01*
X0033360Y0092000D02*
X0038560Y0092000D01*
D92*
X0035960Y0037500D02*
X0035960Y0031500D01*
X0045960Y0031500D02*
X0045960Y0037500D01*
X0055960Y0037500D02*
X0055960Y0031500D01*
X0065960Y0031500D02*
X0065960Y0037500D01*
X0075960Y0037500D02*
X0075960Y0031500D01*
X0025960Y0031500D02*
X0025960Y0037500D01*
X0025960Y0214000D02*
X0025960Y0220000D01*
X0035960Y0220000D02*
X0035960Y0214000D01*
X0045960Y0214000D02*
X0045960Y0220000D01*
X0055960Y0220000D02*
X0055960Y0214000D01*
X0065960Y0214000D02*
X0065960Y0220000D01*
X0075960Y0220000D02*
X0075960Y0214000D01*
D38*
X0085960Y0027000D03*
X0085960Y0037000D03*
X0085960Y0057000D03*
X0085960Y0067000D03*
X0085960Y0087000D03*
X0085960Y0097000D03*
X0085960Y0117000D03*
X0085960Y0127000D03*
X0085960Y0147000D03*
X0085960Y0157000D03*
X0085960Y0177000D03*
X0085960Y0187000D03*
X0085960Y0207000D03*
X0085960Y0217000D03*
X0085960Y0237000D03*
X0085960Y0247000D03*
X0065960Y0204500D03*
X0065960Y0194500D03*
X0065960Y0184500D03*
X0065960Y0174500D03*
X0035960Y0174500D03*
X0035960Y0184500D03*
X0035960Y0194500D03*
X0035960Y0204500D03*
X0038460Y0077000D03*
X0038460Y0067000D03*
X0038460Y0057000D03*
X0038460Y0047000D03*
X0068460Y0047000D03*
X0068460Y0057000D03*
X0068460Y0067000D03*
X0068460Y0077000D03*
X0100960Y0020000D02*
G75*
%LPD*%
D25*
X0172960Y0047400D02*
X0172960Y0052600D01*
X0182960Y0052600D02*
X0182960Y0047400D01*
X0192960Y0047400D02*
X0192960Y0052600D01*
X0202960Y0052600D02*
X0202960Y0047400D01*
X0212960Y0047400D02*
X0212960Y0052600D01*
X0222960Y0052600D02*
X0222960Y0047400D01*
X0232960Y0047400D02*
X0232960Y0052600D01*
X0242960Y0052600D02*
X0242960Y0047400D01*
X0242960Y0077400D02*
X0242960Y0082600D01*
X0232960Y0082600D02*
X0232960Y0077400D01*
X0222960Y0077400D02*
X0222960Y0082600D01*
X0212960Y0082600D02*
X0212960Y0077400D01*
X0202960Y0077400D02*
X0202960Y0082600D01*
X0192960Y0082600D02*
X0192960Y0077400D01*
X0182960Y0077400D02*
X0182960Y0082600D01*
X0172960Y0082600D02*
X0172960Y0077400D01*
D92*
X0118460Y0080000D02*
X0112460Y0080000D01*
X0112460Y0070000D02*
X0118460Y0070000D01*
X0118460Y0060000D02*
X0112460Y0060000D01*
X0112460Y0050000D02*
X0118460Y0050000D01*
X0118460Y0040000D02*
X0112460Y0040000D01*
X0112460Y0090000D02*
X0118460Y0090000D01*
X0294960Y0090000D02*
X0300960Y0090000D01*
X0300960Y0080000D02*
X0294960Y0080000D01*
X0294960Y0070000D02*
X0300960Y0070000D01*
X0300960Y0060000D02*
X0294960Y0060000D01*
X0294960Y0050000D02*
X0300960Y0050000D01*
X0300960Y0040000D02*
X0294960Y0040000D01*
D38*
X0107960Y0030000D03*
X0117960Y0030000D03*
X0137960Y0030000D03*
X0147960Y0030000D03*
X0167960Y0030000D03*
X0177960Y0030000D03*
X0197960Y0030000D03*
X0207960Y0030000D03*
X0227960Y0030000D03*
X0237960Y0030000D03*
X0257960Y0030000D03*
X0267960Y0030000D03*
X0287960Y0030000D03*
X0297960Y0030000D03*
X0317960Y0030000D03*
X0327960Y0030000D03*
X0285460Y0050000D03*
X0275460Y0050000D03*
X0265460Y0050000D03*
X0255460Y0050000D03*
X0255460Y0080000D03*
X0265460Y0080000D03*
X0275460Y0080000D03*
X0285460Y0080000D03*
X0157960Y0077500D03*
X0147960Y0077500D03*
X0137960Y0077500D03*
X0127960Y0077500D03*
X0127960Y0047500D03*
X0137960Y0047500D03*
X0147960Y0047500D03*
X0157960Y0047500D03*
X0020000Y0258210D02*
G75*
%LPD*%
D25*
X0092000Y0285610D02*
X0092000Y0290810D01*
X0102000Y0290810D02*
X0102000Y0285610D01*
X0112000Y0285610D02*
X0112000Y0290810D01*
X0122000Y0290810D02*
X0122000Y0285610D01*
X0132000Y0285610D02*
X0132000Y0290810D01*
X0142000Y0290810D02*
X0142000Y0285610D01*
X0152000Y0285610D02*
X0152000Y0290810D01*
X0162000Y0290810D02*
X0162000Y0285610D01*
X0162000Y0315610D02*
X0162000Y0320810D01*
X0152000Y0320810D02*
X0152000Y0315610D01*
X0142000Y0315610D02*
X0142000Y0320810D01*
X0132000Y0320810D02*
X0132000Y0315610D01*
X0122000Y0315610D02*
X0122000Y0320810D01*
X0112000Y0320810D02*
X0112000Y0315610D01*
X0102000Y0315610D02*
X0102000Y0320810D01*
X0092000Y0320810D02*
X0092000Y0315610D01*
D92*
X0037500Y0318210D02*
X0031500Y0318210D01*
X0031500Y0308210D02*
X0037500Y0308210D01*
X0037500Y0298210D02*
X0031500Y0298210D01*
X0031500Y0288210D02*
X0037500Y0288210D01*
X0037500Y0278210D02*
X0031500Y0278210D01*
X0031500Y0328210D02*
X0037500Y0328210D01*
X0214000Y0328210D02*
X0220000Y0328210D01*
X0220000Y0318210D02*
X0214000Y0318210D01*
X0214000Y0308210D02*
X0220000Y0308210D01*
X0220000Y0298210D02*
X0214000Y0298210D01*
X0214000Y0288210D02*
X0220000Y0288210D01*
X0220000Y0278210D02*
X0214000Y0278210D01*
D38*
X0027000Y0268210D03*
X0037000Y0268210D03*
X0057000Y0268210D03*
X0067000Y0268210D03*
X0087000Y0268210D03*
X0097000Y0268210D03*
X0117000Y0268210D03*
X0127000Y0268210D03*
X0147000Y0268210D03*
X0157000Y0268210D03*
X0177000Y0268210D03*
X0187000Y0268210D03*
X0207000Y0268210D03*
X0217000Y0268210D03*
X0237000Y0268210D03*
X0247000Y0268210D03*
X0204500Y0288210D03*
X0194500Y0288210D03*
X0184500Y0288210D03*
X0174500Y0288210D03*
X0174500Y0318210D03*
X0184500Y0318210D03*
X0194500Y0318210D03*
X0204500Y0318210D03*
X0077000Y0315710D03*
X0067000Y0315710D03*
X0057000Y0315710D03*
X0047000Y0315710D03*
X0047000Y0285710D03*
X0057000Y0285710D03*
X0067000Y0285710D03*
X0077000Y0285710D03*
X0339170Y0020000D02*
G75*
%LPD*%
D16*
X0519130Y0040000D03*
D92*
X0461930Y0081100D03*
X0461930Y0098900D03*
X0436330Y0098900D03*
X0426930Y0098900D03*
X0426930Y0111100D03*
X0426930Y0128900D03*
X0431330Y0146100D03*
X0431330Y0163900D03*
X0456930Y0163900D03*
X0456930Y0146100D03*
X0401330Y0128900D03*
X0401330Y0111100D03*
X0401330Y0098900D03*
X0391930Y0098900D03*
X0391930Y0081100D03*
X0401330Y0081100D03*
X0401330Y0068900D03*
X0401330Y0051100D03*
X0404130Y0030000D03*
X0394130Y0030000D03*
X0384130Y0030000D03*
X0414130Y0030000D03*
X0424130Y0030000D03*
X0434130Y0030000D03*
X0426930Y0051100D03*
X0426930Y0068900D03*
X0426930Y0081100D03*
X0436330Y0081100D03*
X0366330Y0081100D03*
X0366330Y0098900D03*
D85*
X0434330Y0190550D03*
X0434330Y0200550D03*
X0444330Y0200550D03*
X0454330Y0200550D03*
X0454330Y0190550D03*
X0444330Y0190550D03*
D25*
X0471530Y0190000D02*
X0476730Y0190000D01*
X0476730Y0180000D02*
X0471530Y0180000D01*
X0471530Y0170000D02*
X0476730Y0170000D01*
X0476730Y0160000D02*
X0471530Y0160000D01*
X0471530Y0150000D02*
X0476730Y0150000D01*
X0476730Y0140000D02*
X0471530Y0140000D01*
X0471530Y0130000D02*
X0476730Y0130000D01*
X0476730Y0120000D02*
X0471530Y0120000D01*
X0471530Y0110000D02*
X0476730Y0110000D01*
X0476730Y0100000D02*
X0471530Y0100000D01*
X0471530Y0090000D02*
X0476730Y0090000D01*
X0476730Y0080000D02*
X0471530Y0080000D01*
X0471530Y0070000D02*
X0476730Y0070000D01*
X0476730Y0060000D02*
X0471530Y0060000D01*
X0501530Y0060000D02*
X0506730Y0060000D01*
X0506730Y0070000D02*
X0501530Y0070000D01*
X0501530Y0080000D02*
X0506730Y0080000D01*
X0506730Y0090000D02*
X0501530Y0090000D01*
X0501530Y0100000D02*
X0506730Y0100000D01*
X0506730Y0110000D02*
X0501530Y0110000D01*
X0501530Y0120000D02*
X0506730Y0120000D01*
X0506730Y0130000D02*
X0501530Y0130000D01*
X0501530Y0140000D02*
X0506730Y0140000D01*
X0506730Y0150000D02*
X0501530Y0150000D01*
X0501530Y0160000D02*
X0506730Y0160000D01*
X0506730Y0170000D02*
X0501530Y0170000D01*
X0501530Y0180000D02*
X0506730Y0180000D01*
X0506730Y0190000D02*
X0501530Y0190000D01*
X0414130Y0212400D02*
X0414130Y0217600D01*
X0404130Y0217600D02*
X0404130Y0212400D01*
X0394130Y0212400D02*
X0394130Y0217600D01*
X0384130Y0217600D02*
X0384130Y0212400D01*
X0374130Y0212400D02*
X0374130Y0217600D01*
X0374130Y0157600D02*
X0374130Y0152400D01*
X0384130Y0152400D02*
X0384130Y0157600D01*
X0394130Y0157600D02*
X0394130Y0152400D01*
X0404130Y0152400D02*
X0404130Y0157600D01*
X0414130Y0157600D02*
X0414130Y0152400D01*
D92*
X0541130Y0035000D02*
X0547130Y0035000D01*
X0547130Y0045000D02*
X0541130Y0045000D01*
X0541130Y0070000D02*
X0547130Y0070000D01*
X0547130Y0080000D02*
X0541130Y0080000D01*
X0541130Y0090000D02*
X0547130Y0090000D01*
X0547130Y0100000D02*
X0541130Y0100000D01*
X0541130Y0110000D02*
X0547130Y0110000D01*
X0547130Y0120000D02*
X0541130Y0120000D01*
X0541130Y0140000D02*
X0547130Y0140000D01*
X0547130Y0150000D02*
X0541130Y0150000D01*
X0541130Y0160000D02*
X0547130Y0160000D01*
X0547130Y0170000D02*
X0541130Y0170000D01*
X0541130Y0180000D02*
X0547130Y0180000D01*
X0547130Y0190000D02*
X0541130Y0190000D01*
X0419130Y0252000D02*
X0419130Y0258000D01*
X0409130Y0258000D02*
X0409130Y0252000D01*
X0399130Y0252000D02*
X0399130Y0258000D01*
X0389130Y0258000D02*
X0389130Y0252000D01*
X0379130Y0252000D02*
X0379130Y0258000D01*
X0369130Y0258000D02*
X0369130Y0252000D01*
X0357130Y0190000D02*
X0351130Y0190000D01*
X0351130Y0180000D02*
X0357130Y0180000D01*
X0357130Y0170000D02*
X0351130Y0170000D01*
X0351130Y0160000D02*
X0357130Y0160000D01*
X0357130Y0150000D02*
X0351130Y0150000D01*
X0351130Y0140000D02*
X0357130Y0140000D01*
X0357130Y0130000D02*
X0351130Y0130000D01*
X0351130Y0120000D02*
X0357130Y0120000D01*
X0357130Y0104000D02*
X0351130Y0104000D01*
X0351130Y0094000D02*
X0357130Y0094000D01*
X0357130Y0084000D02*
X0351130Y0084000D01*
X0351130Y0074000D02*
X0357130Y0074000D01*
X0357130Y0064000D02*
X0351130Y0064000D01*
X0351130Y0054000D02*
X0357130Y0054000D01*
X0357130Y0044000D02*
X0351130Y0044000D01*
X0351130Y0034000D02*
X0357130Y0034000D01*
D36*
X0454290Y0257560D03*
X0464130Y0257560D03*
X0473970Y0257560D03*
X0509290Y0257560D03*
X0519130Y0257560D03*
X0528970Y0257560D03*
D72*
X0536450Y0230000D03*
X0501810Y0230000D03*
X0481450Y0230000D03*
X0446810Y0230000D03*
X0100960Y0100960D02*
G75*
%LPD*%
D25*
X0172960Y0128360D02*
X0172960Y0133560D01*
X0182960Y0133560D02*
X0182960Y0128360D01*
X0192960Y0128360D02*
X0192960Y0133560D01*
X0202960Y0133560D02*
X0202960Y0128360D01*
X0212960Y0128360D02*
X0212960Y0133560D01*
X0222960Y0133560D02*
X0222960Y0128360D01*
X0232960Y0128360D02*
X0232960Y0133560D01*
X0242960Y0133560D02*
X0242960Y0128360D01*
X0242960Y0158360D02*
X0242960Y0163560D01*
X0232960Y0163560D02*
X0232960Y0158360D01*
X0222960Y0158360D02*
X0222960Y0163560D01*
X0212960Y0163560D02*
X0212960Y0158360D01*
X0202960Y0158360D02*
X0202960Y0163560D01*
X0192960Y0163560D02*
X0192960Y0158360D01*
X0182960Y0158360D02*
X0182960Y0163560D01*
X0172960Y0163560D02*
X0172960Y0158360D01*
D92*
X0118460Y0160960D02*
X0112460Y0160960D01*
X0112460Y0150960D02*
X0118460Y0150960D01*
X0118460Y0140960D02*
X0112460Y0140960D01*
X0112460Y0130960D02*
X0118460Y0130960D01*
X0118460Y0120960D02*
X0112460Y0120960D01*
X0112460Y0170960D02*
X0118460Y0170960D01*
X0294960Y0170960D02*
X0300960Y0170960D01*
X0300960Y0160960D02*
X0294960Y0160960D01*
X0294960Y0150960D02*
X0300960Y0150960D01*
X0300960Y0140960D02*
X0294960Y0140960D01*
X0294960Y0130960D02*
X0300960Y0130960D01*
X0300960Y0120960D02*
X0294960Y0120960D01*
D38*
X0107960Y0110960D03*
X0117960Y0110960D03*
X0137960Y0110960D03*
X0147960Y0110960D03*
X0167960Y0110960D03*
X0177960Y0110960D03*
X0197960Y0110960D03*
X0207960Y0110960D03*
X0227960Y0110960D03*
X0237960Y0110960D03*
X0257960Y0110960D03*
X0267960Y0110960D03*
X0287960Y0110960D03*
X0297960Y0110960D03*
X0317960Y0110960D03*
X0327960Y0110960D03*
X0285460Y0130960D03*
X0275460Y0130960D03*
X0265460Y0130960D03*
X0255460Y0130960D03*
X0255460Y0160960D03*
X0265460Y0160960D03*
X0275460Y0160960D03*
X0285460Y0160960D03*
X0157960Y0158460D03*
X0147960Y0158460D03*
X0137960Y0158460D03*
X0127960Y0158460D03*
X0127960Y0128460D03*
X0137960Y0128460D03*
X0147960Y0128460D03*
X0157960Y0128460D03*
X0020000Y0339170D02*
G75*
%LPD*%
D25*
X0092000Y0366570D02*
X0092000Y0371770D01*
X0102000Y0371770D02*
X0102000Y0366570D01*
X0112000Y0366570D02*
X0112000Y0371770D01*
X0122000Y0371770D02*
X0122000Y0366570D01*
X0132000Y0366570D02*
X0132000Y0371770D01*
X0142000Y0371770D02*
X0142000Y0366570D01*
X0152000Y0366570D02*
X0152000Y0371770D01*
X0162000Y0371770D02*
X0162000Y0366570D01*
X0162000Y0396570D02*
X0162000Y0401770D01*
X0152000Y0401770D02*
X0152000Y0396570D01*
X0142000Y0396570D02*
X0142000Y0401770D01*
X0132000Y0401770D02*
X0132000Y0396570D01*
X0122000Y0396570D02*
X0122000Y0401770D01*
X0112000Y0401770D02*
X0112000Y0396570D01*
X0102000Y0396570D02*
X0102000Y0401770D01*
X0092000Y0401770D02*
X0092000Y0396570D01*
D92*
X0037500Y0399170D02*
X0031500Y0399170D01*
X0031500Y0389170D02*
X0037500Y0389170D01*
X0037500Y0379170D02*
X0031500Y0379170D01*
X0031500Y0369170D02*
X0037500Y0369170D01*
X0037500Y0359170D02*
X0031500Y0359170D01*
X0031500Y0409170D02*
X0037500Y0409170D01*
X0214000Y0409170D02*
X0220000Y0409170D01*
X0220000Y0399170D02*
X0214000Y0399170D01*
X0214000Y0389170D02*
X0220000Y0389170D01*
X0220000Y0379170D02*
X0214000Y0379170D01*
X0214000Y0369170D02*
X0220000Y0369170D01*
X0220000Y0359170D02*
X0214000Y0359170D01*
D38*
X0027000Y0349170D03*
X0037000Y0349170D03*
X0057000Y0349170D03*
X0067000Y0349170D03*
X0087000Y0349170D03*
X0097000Y0349170D03*
X0117000Y0349170D03*
X0127000Y0349170D03*
X0147000Y0349170D03*
X0157000Y0349170D03*
X0177000Y0349170D03*
X0187000Y0349170D03*
X0207000Y0349170D03*
X0217000Y0349170D03*
X0237000Y0349170D03*
X0247000Y0349170D03*
X0204500Y0369170D03*
X0194500Y0369170D03*
X0184500Y0369170D03*
X0174500Y0369170D03*
X0174500Y0399170D03*
X0184500Y0399170D03*
X0194500Y0399170D03*
X0204500Y0399170D03*
X0077000Y0396670D03*
X0067000Y0396670D03*
X0057000Y0396670D03*
X0047000Y0396670D03*
X0047000Y0366670D03*
X0057000Y0366670D03*
X0067000Y0366670D03*
X0077000Y0366670D03*
X0020000Y0420130D02*
G75*
%LPD*%
D25*
X0092000Y0447530D02*
X0092000Y0452730D01*
X0102000Y0452730D02*
X0102000Y0447530D01*
X0112000Y0447530D02*
X0112000Y0452730D01*
X0122000Y0452730D02*
X0122000Y0447530D01*
X0132000Y0447530D02*
X0132000Y0452730D01*
X0142000Y0452730D02*
X0142000Y0447530D01*
X0152000Y0447530D02*
X0152000Y0452730D01*
X0162000Y0452730D02*
X0162000Y0447530D01*
X0162000Y0477530D02*
X0162000Y0482730D01*
X0152000Y0482730D02*
X0152000Y0477530D01*
X0142000Y0477530D02*
X0142000Y0482730D01*
X0132000Y0482730D02*
X0132000Y0477530D01*
X0122000Y0477530D02*
X0122000Y0482730D01*
X0112000Y0482730D02*
X0112000Y0477530D01*
X0102000Y0477530D02*
X0102000Y0482730D01*
X0092000Y0482730D02*
X0092000Y0477530D01*
D92*
X0037500Y0480130D02*
X0031500Y0480130D01*
X0031500Y0470130D02*
X0037500Y0470130D01*
X0037500Y0460130D02*
X0031500Y0460130D01*
X0031500Y0450130D02*
X0037500Y0450130D01*
X0037500Y0440130D02*
X0031500Y0440130D01*
X0031500Y0490130D02*
X0037500Y0490130D01*
X0214000Y0490130D02*
X0220000Y0490130D01*
X0220000Y0480130D02*
X0214000Y0480130D01*
X0214000Y0470130D02*
X0220000Y0470130D01*
X0220000Y0460130D02*
X0214000Y0460130D01*
X0214000Y0450130D02*
X0220000Y0450130D01*
X0220000Y0440130D02*
X0214000Y0440130D01*
D38*
X0027000Y0430130D03*
X0037000Y0430130D03*
X0057000Y0430130D03*
X0067000Y0430130D03*
X0087000Y0430130D03*
X0097000Y0430130D03*
X0117000Y0430130D03*
X0127000Y0430130D03*
X0147000Y0430130D03*
X0157000Y0430130D03*
X0177000Y0430130D03*
X0187000Y0430130D03*
X0207000Y0430130D03*
X0217000Y0430130D03*
X0237000Y0430130D03*
X0247000Y0430130D03*
X0204500Y0450130D03*
X0194500Y0450130D03*
X0184500Y0450130D03*
X0174500Y0450130D03*
X0174500Y0480130D03*
X0184500Y0480130D03*
X0194500Y0480130D03*
X0204500Y0480130D03*
X0077000Y0477630D03*
X0067000Y0477630D03*
X0057000Y0477630D03*
X0047000Y0477630D03*
X0047000Y0447630D03*
X0057000Y0447630D03*
X0067000Y0447630D03*
X0077000Y0447630D03*
X0020000Y0501090D02*
G75*
%LPD*%
D25*
X0092000Y0528490D02*
X0092000Y0533690D01*
X0102000Y0533690D02*
X0102000Y0528490D01*
X0112000Y0528490D02*
X0112000Y0533690D01*
X0122000Y0533690D02*
X0122000Y0528490D01*
X0132000Y0528490D02*
X0132000Y0533690D01*
X0142000Y0533690D02*
X0142000Y0528490D01*
X0152000Y0528490D02*
X0152000Y0533690D01*
X0162000Y0533690D02*
X0162000Y0528490D01*
X0162000Y0558490D02*
X0162000Y0563690D01*
X0152000Y0563690D02*
X0152000Y0558490D01*
X0142000Y0558490D02*
X0142000Y0563690D01*
X0132000Y0563690D02*
X0132000Y0558490D01*
X0122000Y0558490D02*
X0122000Y0563690D01*
X0112000Y0563690D02*
X0112000Y0558490D01*
X0102000Y0558490D02*
X0102000Y0563690D01*
X0092000Y0563690D02*
X0092000Y0558490D01*
D92*
X0037500Y0561090D02*
X0031500Y0561090D01*
X0031500Y0551090D02*
X0037500Y0551090D01*
X0037500Y0541090D02*
X0031500Y0541090D01*
X0031500Y0531090D02*
X0037500Y0531090D01*
X0037500Y0521090D02*
X0031500Y0521090D01*
X0031500Y0571090D02*
X0037500Y0571090D01*
X0214000Y0571090D02*
X0220000Y0571090D01*
X0220000Y0561090D02*
X0214000Y0561090D01*
X0214000Y0551090D02*
X0220000Y0551090D01*
X0220000Y0541090D02*
X0214000Y0541090D01*
X0214000Y0531090D02*
X0220000Y0531090D01*
X0220000Y0521090D02*
X0214000Y0521090D01*
D38*
X0027000Y0511090D03*
X0037000Y0511090D03*
X0057000Y0511090D03*
X0067000Y0511090D03*
X0087000Y0511090D03*
X0097000Y0511090D03*
X0117000Y0511090D03*
X0127000Y0511090D03*
X0147000Y0511090D03*
X0157000Y0511090D03*
X0177000Y0511090D03*
X0187000Y0511090D03*
X0207000Y0511090D03*
X0217000Y0511090D03*
X0237000Y0511090D03*
X0247000Y0511090D03*
X0204500Y0531090D03*
X0194500Y0531090D03*
X0184500Y0531090D03*
X0174500Y0531090D03*
X0174500Y0561090D03*
X0184500Y0561090D03*
X0194500Y0561090D03*
X0204500Y0561090D03*
X0077000Y0558590D03*
X0067000Y0558590D03*
X0057000Y0558590D03*
X0047000Y0558590D03*
X0047000Y0528590D03*
X0057000Y0528590D03*
X0067000Y0528590D03*
X0077000Y0528590D03*
X0020000Y0582050D02*
G75*
%LPD*%
D25*
X0092000Y0609450D02*
X0092000Y0614650D01*
X0102000Y0614650D02*
X0102000Y0609450D01*
X0112000Y0609450D02*
X0112000Y0614650D01*
X0122000Y0614650D02*
X0122000Y0609450D01*
X0132000Y0609450D02*
X0132000Y0614650D01*
X0142000Y0614650D02*
X0142000Y0609450D01*
X0152000Y0609450D02*
X0152000Y0614650D01*
X0162000Y0614650D02*
X0162000Y0609450D01*
X0162000Y0639450D02*
X0162000Y0644650D01*
X0152000Y0644650D02*
X0152000Y0639450D01*
X0142000Y0639450D02*
X0142000Y0644650D01*
X0132000Y0644650D02*
X0132000Y0639450D01*
X0122000Y0639450D02*
X0122000Y0644650D01*
X0112000Y0644650D02*
X0112000Y0639450D01*
X0102000Y0639450D02*
X0102000Y0644650D01*
X0092000Y0644650D02*
X0092000Y0639450D01*
D92*
X0037500Y0642050D02*
X0031500Y0642050D01*
X0031500Y0632050D02*
X0037500Y0632050D01*
X0037500Y0622050D02*
X0031500Y0622050D01*
X0031500Y0612050D02*
X0037500Y0612050D01*
X0037500Y0602050D02*
X0031500Y0602050D01*
X0031500Y0652050D02*
X0037500Y0652050D01*
X0214000Y0652050D02*
X0220000Y0652050D01*
X0220000Y0642050D02*
X0214000Y0642050D01*
X0214000Y0632050D02*
X0220000Y0632050D01*
X0220000Y0622050D02*
X0214000Y0622050D01*
X0214000Y0612050D02*
X0220000Y0612050D01*
X0220000Y0602050D02*
X0214000Y0602050D01*
D38*
X0027000Y0592050D03*
X0037000Y0592050D03*
X0057000Y0592050D03*
X0067000Y0592050D03*
X0087000Y0592050D03*
X0097000Y0592050D03*
X0117000Y0592050D03*
X0127000Y0592050D03*
X0147000Y0592050D03*
X0157000Y0592050D03*
X0177000Y0592050D03*
X0187000Y0592050D03*
X0207000Y0592050D03*
X0217000Y0592050D03*
X0237000Y0592050D03*
X0247000Y0592050D03*
X0204500Y0612050D03*
X0194500Y0612050D03*
X0184500Y0612050D03*
X0174500Y0612050D03*
X0174500Y0642050D03*
X0184500Y0642050D03*
X0194500Y0642050D03*
X0204500Y0642050D03*
X0077000Y0639550D03*
X0067000Y0639550D03*
X0057000Y0639550D03*
X0047000Y0639550D03*
X0047000Y0609550D03*
X0057000Y0609550D03*
X0067000Y0609550D03*
X0077000Y0609550D03*
X0559130Y0020000D02*
G75*
%LPD*%
D16*
X0739090Y0040000D03*
D92*
X0681890Y0081100D03*
X0681890Y0098900D03*
X0656290Y0098900D03*
X0646890Y0098900D03*
X0646890Y0111100D03*
X0646890Y0128900D03*
X0651290Y0146100D03*
X0651290Y0163900D03*
X0676890Y0163900D03*
X0676890Y0146100D03*
X0621290Y0128900D03*
X0621290Y0111100D03*
X0621290Y0098900D03*
X0611890Y0098900D03*
X0611890Y0081100D03*
X0621290Y0081100D03*
X0621290Y0068900D03*
X0621290Y0051100D03*
X0624090Y0030000D03*
X0614090Y0030000D03*
X0604090Y0030000D03*
X0634090Y0030000D03*
X0644090Y0030000D03*
X0654090Y0030000D03*
X0646890Y0051100D03*
X0646890Y0068900D03*
X0646890Y0081100D03*
X0656290Y0081100D03*
X0586290Y0081100D03*
X0586290Y0098900D03*
D85*
X0654290Y0190550D03*
X0654290Y0200550D03*
X0664290Y0200550D03*
X0674290Y0200550D03*
X0674290Y0190550D03*
X0664290Y0190550D03*
D25*
X0691490Y0190000D02*
X0696690Y0190000D01*
X0696690Y0180000D02*
X0691490Y0180000D01*
X0691490Y0170000D02*
X0696690Y0170000D01*
X0696690Y0160000D02*
X0691490Y0160000D01*
X0691490Y0150000D02*
X0696690Y0150000D01*
X0696690Y0140000D02*
X0691490Y0140000D01*
X0691490Y0130000D02*
X0696690Y0130000D01*
X0696690Y0120000D02*
X0691490Y0120000D01*
X0691490Y0110000D02*
X0696690Y0110000D01*
X0696690Y0100000D02*
X0691490Y0100000D01*
X0691490Y0090000D02*
X0696690Y0090000D01*
X0696690Y0080000D02*
X0691490Y0080000D01*
X0691490Y0070000D02*
X0696690Y0070000D01*
X0696690Y0060000D02*
X0691490Y0060000D01*
X0721490Y0060000D02*
X0726690Y0060000D01*
X0726690Y0070000D02*
X0721490Y0070000D01*
X0721490Y0080000D02*
X0726690Y0080000D01*
X0726690Y0090000D02*
X0721490Y0090000D01*
X0721490Y0100000D02*
X0726690Y0100000D01*
X0726690Y0110000D02*
X0721490Y0110000D01*
X0721490Y0120000D02*
X0726690Y0120000D01*
X0726690Y0130000D02*
X0721490Y0130000D01*
X0721490Y0140000D02*
X0726690Y0140000D01*
X0726690Y0150000D02*
X0721490Y0150000D01*
X0721490Y0160000D02*
X0726690Y0160000D01*
X0726690Y0170000D02*
X0721490Y0170000D01*
X0721490Y0180000D02*
X0726690Y0180000D01*
X0726690Y0190000D02*
X0721490Y0190000D01*
X0634090Y0212400D02*
X0634090Y0217600D01*
X0624090Y0217600D02*
X0624090Y0212400D01*
X0614090Y0212400D02*
X0614090Y0217600D01*
X0604090Y0217600D02*
X0604090Y0212400D01*
X0594090Y0212400D02*
X0594090Y0217600D01*
X0594090Y0157600D02*
X0594090Y0152400D01*
X0604090Y0152400D02*
X0604090Y0157600D01*
X0614090Y0157600D02*
X0614090Y0152400D01*
X0624090Y0152400D02*
X0624090Y0157600D01*
X0634090Y0157600D02*
X0634090Y0152400D01*
D92*
X0761090Y0035000D02*
X0767090Y0035000D01*
X0767090Y0045000D02*
X0761090Y0045000D01*
X0761090Y0070000D02*
X0767090Y0070000D01*
X0767090Y0080000D02*
X0761090Y0080000D01*
X0761090Y0090000D02*
X0767090Y0090000D01*
X0767090Y0100000D02*
X0761090Y0100000D01*
X0761090Y0110000D02*
X0767090Y0110000D01*
X0767090Y0120000D02*
X0761090Y0120000D01*
X0761090Y0140000D02*
X0767090Y0140000D01*
X0767090Y0150000D02*
X0761090Y0150000D01*
X0761090Y0160000D02*
X0767090Y0160000D01*
X0767090Y0170000D02*
X0761090Y0170000D01*
X0761090Y0180000D02*
X0767090Y0180000D01*
X0767090Y0190000D02*
X0761090Y0190000D01*
X0639090Y0252000D02*
X0639090Y0258000D01*
X0629090Y0258000D02*
X0629090Y0252000D01*
X0619090Y0252000D02*
X0619090Y0258000D01*
X0609090Y0258000D02*
X0609090Y0252000D01*
X0599090Y0252000D02*
X0599090Y0258000D01*
X0589090Y0258000D02*
X0589090Y0252000D01*
X0577090Y0190000D02*
X0571090Y0190000D01*
X0571090Y0180000D02*
X0577090Y0180000D01*
X0577090Y0170000D02*
X0571090Y0170000D01*
X0571090Y0160000D02*
X0577090Y0160000D01*
X0577090Y0150000D02*
X0571090Y0150000D01*
X0571090Y0140000D02*
X0577090Y0140000D01*
X0577090Y0130000D02*
X0571090Y0130000D01*
X0571090Y0120000D02*
X0577090Y0120000D01*
X0577090Y0104000D02*
X0571090Y0104000D01*
X0571090Y0094000D02*
X0577090Y0094000D01*
X0577090Y0084000D02*
X0571090Y0084000D01*
X0571090Y0074000D02*
X0577090Y0074000D01*
X0577090Y0064000D02*
X0571090Y0064000D01*
X0571090Y0054000D02*
X0577090Y0054000D01*
X0577090Y0044000D02*
X0571090Y0044000D01*
X0571090Y0034000D02*
X0577090Y0034000D01*
D36*
X0674250Y0257560D03*
X0684090Y0257560D03*
X0693930Y0257560D03*
X0729250Y0257560D03*
X0739090Y0257560D03*
X0748930Y0257560D03*
D72*
X0756410Y0230000D03*
X0721770Y0230000D03*
X0701410Y0230000D03*
X0666770Y0230000D03*
X0779090Y0020000D02*
G75*
%LPD*%
D14*
X0994310Y0145200D03*
X0987310Y0145200D03*
X0980310Y0145200D03*
X0973310Y0145200D03*
X0966310Y0145200D03*
X0959310Y0145200D03*
X0952310Y0145200D03*
X0945310Y0145200D03*
X0938310Y0145200D03*
X0931310Y0145200D03*
X0883310Y0107200D03*
X0883310Y0100200D03*
X0883310Y0093200D03*
X0883310Y0086200D03*
X0883310Y0079200D03*
X0883310Y0072200D03*
X0883310Y0065200D03*
X0883310Y0058200D03*
X0883310Y0051200D03*
X0883310Y0044200D03*
X0883310Y0037200D03*
X0883310Y0030200D03*
X0883310Y0023200D03*
X0817310Y0145200D03*
X0810310Y0145200D03*
X0803310Y0145200D03*
X0796310Y0145200D03*
X0789310Y0145200D03*
X0782310Y0145200D03*
D45*
X0828310Y0145200D03*
X0838310Y0145200D03*
X0848310Y0145200D03*
X0858310Y0145200D03*
X0868310Y0145200D03*
X0898310Y0145200D03*
X0908310Y0145200D03*
X0918310Y0145200D03*
D65*
X0888310Y0145200D03*
X0878310Y0145200D03*
D85*
X0807310Y0132700D03*
X0807310Y0122700D03*
X0797310Y0122700D03*
X0797310Y0132700D03*
X0787310Y0132700D03*
X0787310Y0122700D03*
X0869460Y0313560D03*
X0869460Y0323560D03*
X0879460Y0323560D03*
X0879460Y0313560D03*
X0889460Y0313560D03*
X0889460Y0323560D03*
D92*
X0896660Y0295130D02*
X0896660Y0291530D01*
X0896660Y0269530D02*
X0896660Y0265930D01*
X0878860Y0265930D02*
X0878860Y0269530D01*
X0878860Y0291530D02*
X0878860Y0295130D01*
X0800960Y0292960D02*
X0797360Y0292960D01*
X0790960Y0292950D02*
X0787360Y0292950D01*
X0787360Y0282950D02*
X0790960Y0282950D01*
X0797360Y0282960D02*
X0800960Y0282960D01*
X0800960Y0272960D02*
X0797360Y0272960D01*
X0790960Y0272950D02*
X0787360Y0272950D01*
X0787360Y0262950D02*
X0790960Y0262950D01*
X0797360Y0262960D02*
X0800960Y0262960D01*
X0800960Y0252960D02*
X0797360Y0252960D01*
X0797360Y0242960D02*
X0800960Y0242960D01*
X0790960Y0242950D02*
X0787360Y0242950D01*
X0787360Y0252950D02*
X0790960Y0252950D01*
X0797360Y0226160D02*
X0800960Y0226160D01*
X0800960Y0216160D02*
X0797360Y0216160D01*
X0790960Y0212950D02*
X0787360Y0212950D01*
X0787360Y0202950D02*
X0790960Y0202950D01*
X0797360Y0206160D02*
X0800960Y0206160D01*
X0800960Y0196160D02*
X0797360Y0196160D01*
X0790960Y0192950D02*
X0787360Y0192950D01*
X0787360Y0182950D02*
X0790960Y0182950D01*
X0797360Y0186160D02*
X0800960Y0186160D01*
X0800960Y0176160D02*
X0797360Y0176160D01*
X0790960Y0172950D02*
X0787360Y0172950D01*
X0787360Y0162950D02*
X0790960Y0162950D01*
X0797360Y0166160D02*
X0800960Y0166160D01*
X0800960Y0156160D02*
X0797360Y0156160D01*
X0790960Y0152950D02*
X0787360Y0152950D01*
X0823310Y0153400D02*
X0823310Y0157000D01*
X0833310Y0157000D02*
X0833310Y0153400D01*
X0843310Y0153400D02*
X0843310Y0157000D01*
X0853310Y0157000D02*
X0853310Y0153400D01*
X0863310Y0153400D02*
X0863310Y0157000D01*
X0873310Y0157000D02*
X0873310Y0153400D01*
X0873310Y0136000D02*
X0873310Y0132400D01*
X0863310Y0132400D02*
X0863310Y0136000D01*
X0853310Y0136000D02*
X0853310Y0132400D01*
X0843310Y0132400D02*
X0843310Y0136000D01*
X0833310Y0136000D02*
X0833310Y0132400D01*
X0823310Y0132400D02*
X0823310Y0136000D01*
X0873360Y0119450D02*
X0873360Y0115850D01*
X0883360Y0115850D02*
X0883360Y0119450D01*
X0893360Y0119450D02*
X0893360Y0115850D01*
X0893310Y0132400D02*
X0893310Y0136000D01*
X0903310Y0136000D02*
X0903310Y0132400D01*
X0913310Y0132400D02*
X0913310Y0136000D01*
X0923310Y0136000D02*
X0923310Y0132400D01*
X0923310Y0153400D02*
X0923310Y0157000D01*
X0913310Y0157000D02*
X0913310Y0153400D01*
X0903310Y0153400D02*
X0903310Y0157000D01*
X0893310Y0157000D02*
X0893310Y0153400D01*
X0977660Y0192040D02*
X0981260Y0192040D01*
X0987660Y0192050D02*
X0991260Y0192050D01*
X0991260Y0202050D02*
X0987660Y0202050D01*
X0981260Y0202040D02*
X0977660Y0202040D01*
X0977660Y0212040D02*
X0981260Y0212040D01*
X0987660Y0212050D02*
X0991260Y0212050D01*
X0991260Y0222050D02*
X0987660Y0222050D01*
X0981260Y0222040D02*
X0977660Y0222040D01*
X0977660Y0232040D02*
X0981260Y0232040D01*
X0981260Y0242040D02*
X0977660Y0242040D01*
X0987660Y0242050D02*
X0991260Y0242050D01*
X0991260Y0232050D02*
X0987660Y0232050D01*
X0987460Y0261750D02*
X0991060Y0261750D01*
X0991060Y0271750D02*
X0987460Y0271750D01*
X0981060Y0271760D02*
X0977460Y0271760D01*
X0977460Y0261760D02*
X0981060Y0261760D01*
X0981060Y0281760D02*
X0977460Y0281760D01*
X0977460Y0291760D02*
X0981060Y0291760D01*
X0981060Y0301760D02*
X0977460Y0301760D01*
X0977460Y0311760D02*
X0981060Y0311760D01*
X0987460Y0311750D02*
X0991060Y0311750D01*
X0991060Y0301750D02*
X0987460Y0301750D01*
X0987460Y0291750D02*
X0991060Y0291750D01*
X0991060Y0281750D02*
X0987460Y0281750D01*
X0800960Y0302960D02*
X0797360Y0302960D01*
X0790960Y0302950D02*
X0787360Y0302950D01*
X0787360Y0312950D02*
X0790960Y0312950D01*
X0797360Y0312960D02*
X0800960Y0312960D01*
X0790960Y0222950D02*
X0787360Y0222950D01*
D25*
X0784810Y0106760D02*
X0784810Y0103640D01*
X0794810Y0103640D02*
X0794810Y0106760D01*
X0804810Y0106760D02*
X0804810Y0103640D01*
X0814810Y0103640D02*
X0814810Y0106760D01*
X0824810Y0106760D02*
X0824810Y0103640D01*
X0834810Y0103640D02*
X0834810Y0106760D01*
X0844810Y0106760D02*
X0844810Y0103640D01*
X0854810Y0103640D02*
X0854810Y0106760D01*
X0864810Y0106760D02*
X0864810Y0103640D01*
X0874810Y0103640D02*
X0874810Y0106760D01*
X0874810Y0076760D02*
X0874810Y0073640D01*
X0864810Y0073640D02*
X0864810Y0076760D01*
X0854810Y0076760D02*
X0854810Y0073640D01*
X0844810Y0073640D02*
X0844810Y0076760D01*
X0834810Y0076760D02*
X0834810Y0073640D01*
X0824810Y0073640D02*
X0824810Y0076760D01*
X0814810Y0076760D02*
X0814810Y0073640D01*
X0804810Y0073640D02*
X0804810Y0076760D01*
X0794810Y0076760D02*
X0794810Y0073640D01*
X0784810Y0073640D02*
X0784810Y0076760D01*
X0915490Y0185080D02*
X0918610Y0185080D01*
X0918610Y0195080D02*
X0915490Y0195080D01*
X0915490Y0205080D02*
X0918610Y0205080D01*
X0918610Y0215080D02*
X0915490Y0215080D01*
X0915490Y0225080D02*
X0918610Y0225080D01*
X0918610Y0235080D02*
X0915490Y0235080D01*
X0915490Y0245080D02*
X0918610Y0245080D01*
X0918610Y0255080D02*
X0915490Y0255080D01*
X0915490Y0265080D02*
X0918610Y0265080D01*
X0918610Y0275080D02*
X0915490Y0275080D01*
X0915490Y0285080D02*
X0918610Y0285080D01*
X0918610Y0295080D02*
X0915490Y0295080D01*
X0915490Y0305080D02*
X0918610Y0305080D01*
X0918610Y0315080D02*
X0915490Y0315080D01*
X0945490Y0315080D02*
X0948610Y0315080D01*
X0948610Y0305080D02*
X0945490Y0305080D01*
X0945490Y0295080D02*
X0948610Y0295080D01*
X0948610Y0285080D02*
X0945490Y0285080D01*
X0945490Y0275080D02*
X0948610Y0275080D01*
X0948610Y0265080D02*
X0945490Y0265080D01*
X0945490Y0255080D02*
X0948610Y0255080D01*
X0948610Y0245080D02*
X0945490Y0245080D01*
X0945490Y0235080D02*
X0948610Y0235080D01*
X0948610Y0225080D02*
X0945490Y0225080D01*
X0945490Y0215080D02*
X0948610Y0215080D01*
X0948610Y0205080D02*
X0945490Y0205080D01*
X0945490Y0195080D02*
X0948610Y0195080D01*
X0948610Y0185080D02*
X0945490Y0185080D01*
D42*
X0913760Y0118060D03*
X0902740Y0118060D03*
X0867290Y0090720D03*
X0856260Y0090720D03*
D96*
X0840450Y0090410D03*
X0825090Y0090410D03*
D25*
X0843810Y0052200D03*
X0862810Y0052200D03*
X0876440Y0233160D03*
X0895440Y0233160D03*
D83*
X0945220Y0110010D03*
X0945220Y0070010D03*
D30*
X0935310Y0123690D03*
X0935310Y0134710D03*
X0931990Y0260700D03*
X0931990Y0271720D03*
D82*
X0975870Y0048090D03*
X0956170Y0059890D03*
X0956170Y0036290D03*
D48*
X0806410Y0024700D03*
X0795210Y0024700D03*
D97*
X0796500Y0060700D03*
X0808120Y0060700D03*
X0821500Y0060700D03*
X0783120Y0060700D03*
D60*
X0819010Y0113500D03*
X0819010Y0124700D03*
X0834510Y0124700D03*
X0834510Y0113500D03*
D43*
X0810470Y0037700D03*
X0793150Y0037700D03*
D76*
X0931310Y0232200D03*
X0960310Y0323200D03*
X1003490Y0020000D02*
G75*
%LPD*%
D25*
X1052050Y0092000D02*
X1046850Y0092000D01*
X1046850Y0102000D02*
X1052050Y0102000D01*
X1052050Y0112000D02*
X1046850Y0112000D01*
X1046850Y0122000D02*
X1052050Y0122000D01*
X1052050Y0132000D02*
X1046850Y0132000D01*
X1046850Y0142000D02*
X1052050Y0142000D01*
X1052050Y0152000D02*
X1046850Y0152000D01*
X1046850Y0162000D02*
X1052050Y0162000D01*
X1022050Y0162000D02*
X1016850Y0162000D01*
X1016850Y0152000D02*
X1022050Y0152000D01*
X1022050Y0142000D02*
X1016850Y0142000D01*
X1016850Y0132000D02*
X1022050Y0132000D01*
X1022050Y0122000D02*
X1016850Y0122000D01*
X1016850Y0112000D02*
X1022050Y0112000D01*
X1022050Y0102000D02*
X1016850Y0102000D01*
X1016850Y0092000D02*
X1022050Y0092000D01*
D92*
X1019450Y0037500D02*
X1019450Y0031500D01*
X1029450Y0031500D02*
X1029450Y0037500D01*
X1039450Y0037500D02*
X1039450Y0031500D01*
X1049450Y0031500D02*
X1049450Y0037500D01*
X1059450Y0037500D02*
X1059450Y0031500D01*
X1009450Y0031500D02*
X1009450Y0037500D01*
X1009450Y0214000D02*
X1009450Y0220000D01*
X1019450Y0220000D02*
X1019450Y0214000D01*
X1029450Y0214000D02*
X1029450Y0220000D01*
X1039450Y0220000D02*
X1039450Y0214000D01*
X1049450Y0214000D02*
X1049450Y0220000D01*
X1059450Y0220000D02*
X1059450Y0214000D01*
D38*
X1069450Y0027000D03*
X1069450Y0037000D03*
X1069450Y0057000D03*
X1069450Y0067000D03*
X1069450Y0087000D03*
X1069450Y0097000D03*
X1069450Y0117000D03*
X1069450Y0127000D03*
X1069450Y0147000D03*
X1069450Y0157000D03*
X1069450Y0177000D03*
X1069450Y0187000D03*
X1069450Y0207000D03*
X1069450Y0217000D03*
X1069450Y0237000D03*
X1069450Y0247000D03*
X1049450Y0204500D03*
X1049450Y0194500D03*
X1049450Y0184500D03*
X1049450Y0174500D03*
X1019450Y0174500D03*
X1019450Y0184500D03*
X1019450Y0194500D03*
X1019450Y0204500D03*
X1021950Y0077000D03*
X1021950Y0067000D03*
X1021950Y0057000D03*
X1021950Y0047000D03*
X1051950Y0047000D03*
X1051950Y0057000D03*
X1051950Y0067000D03*
X1051950Y0077000D03*
X1003490Y0258210D02*
G75*
%LPD*%
D25*
X1075490Y0285610D02*
X1075490Y0290810D01*
X1085490Y0290810D02*
X1085490Y0285610D01*
X1095490Y0285610D02*
X1095490Y0290810D01*
X1105490Y0290810D02*
X1105490Y0285610D01*
X1115490Y0285610D02*
X1115490Y0290810D01*
X1125490Y0290810D02*
X1125490Y0285610D01*
X1135490Y0285610D02*
X1135490Y0290810D01*
X1145490Y0290810D02*
X1145490Y0285610D01*
X1145490Y0315610D02*
X1145490Y0320810D01*
X1135490Y0320810D02*
X1135490Y0315610D01*
X1125490Y0315610D02*
X1125490Y0320810D01*
X1115490Y0320810D02*
X1115490Y0315610D01*
X1105490Y0315610D02*
X1105490Y0320810D01*
X1095490Y0320810D02*
X1095490Y0315610D01*
X1085490Y0315610D02*
X1085490Y0320810D01*
X1075490Y0320810D02*
X1075490Y0315610D01*
D92*
X1020990Y0318210D02*
X1014990Y0318210D01*
X1014990Y0308210D02*
X1020990Y0308210D01*
X1020990Y0298210D02*
X1014990Y0298210D01*
X1014990Y0288210D02*
X1020990Y0288210D01*
X1020990Y0278210D02*
X1014990Y0278210D01*
X1014990Y0328210D02*
X1020990Y0328210D01*
X1197490Y0328210D02*
X1203490Y0328210D01*
X1203490Y0318210D02*
X1197490Y0318210D01*
X1197490Y0308210D02*
X1203490Y0308210D01*
X1203490Y0298210D02*
X1197490Y0298210D01*
X1197490Y0288210D02*
X1203490Y0288210D01*
X1203490Y0278210D02*
X1197490Y0278210D01*
D38*
X1010490Y0268210D03*
X1020490Y0268210D03*
X1040490Y0268210D03*
X1050490Y0268210D03*
X1070490Y0268210D03*
X1080490Y0268210D03*
X1100490Y0268210D03*
X1110490Y0268210D03*
X1130490Y0268210D03*
X1140490Y0268210D03*
X1160490Y0268210D03*
X1170490Y0268210D03*
X1190490Y0268210D03*
X1200490Y0268210D03*
X1220490Y0268210D03*
X1230490Y0268210D03*
X1187990Y0288210D03*
X1177990Y0288210D03*
X1167990Y0288210D03*
X1157990Y0288210D03*
X1157990Y0318210D03*
X1167990Y0318210D03*
X1177990Y0318210D03*
X1187990Y0318210D03*
X1060490Y0315710D03*
X1050490Y0315710D03*
X1040490Y0315710D03*
X1030490Y0315710D03*
X1030490Y0285710D03*
X1040490Y0285710D03*
X1050490Y0285710D03*
X1060490Y0285710D03*
X0020000Y0663010D02*
G75*
%LPD*%
D25*
X0092000Y0690410D02*
X0092000Y0695610D01*
X0102000Y0695610D02*
X0102000Y0690410D01*
X0112000Y0690410D02*
X0112000Y0695610D01*
X0122000Y0695610D02*
X0122000Y0690410D01*
X0132000Y0690410D02*
X0132000Y0695610D01*
X0142000Y0695610D02*
X0142000Y0690410D01*
X0152000Y0690410D02*
X0152000Y0695610D01*
X0162000Y0695610D02*
X0162000Y0690410D01*
X0162000Y0720410D02*
X0162000Y0725610D01*
X0152000Y0725610D02*
X0152000Y0720410D01*
X0142000Y0720410D02*
X0142000Y0725610D01*
X0132000Y0725610D02*
X0132000Y0720410D01*
X0122000Y0720410D02*
X0122000Y0725610D01*
X0112000Y0725610D02*
X0112000Y0720410D01*
X0102000Y0720410D02*
X0102000Y0725610D01*
X0092000Y0725610D02*
X0092000Y0720410D01*
D92*
X0037500Y0723010D02*
X0031500Y0723010D01*
X0031500Y0713010D02*
X0037500Y0713010D01*
X0037500Y0703010D02*
X0031500Y0703010D01*
X0031500Y0693010D02*
X0037500Y0693010D01*
X0037500Y0683010D02*
X0031500Y0683010D01*
X0031500Y0733010D02*
X0037500Y0733010D01*
X0214000Y0733010D02*
X0220000Y0733010D01*
X0220000Y0723010D02*
X0214000Y0723010D01*
X0214000Y0713010D02*
X0220000Y0713010D01*
X0220000Y0703010D02*
X0214000Y0703010D01*
X0214000Y0693010D02*
X0220000Y0693010D01*
X0220000Y0683010D02*
X0214000Y0683010D01*
D38*
X0027000Y0673010D03*
X0037000Y0673010D03*
X0057000Y0673010D03*
X0067000Y0673010D03*
X0087000Y0673010D03*
X0097000Y0673010D03*
X0117000Y0673010D03*
X0127000Y0673010D03*
X0147000Y0673010D03*
X0157000Y0673010D03*
X0177000Y0673010D03*
X0187000Y0673010D03*
X0207000Y0673010D03*
X0217000Y0673010D03*
X0237000Y0673010D03*
X0247000Y0673010D03*
X0204500Y0693010D03*
X0194500Y0693010D03*
X0184500Y0693010D03*
X0174500Y0693010D03*
X0174500Y0723010D03*
X0184500Y0723010D03*
X0194500Y0723010D03*
X0204500Y0723010D03*
X0077000Y0720510D03*
X0067000Y0720510D03*
X0057000Y0720510D03*
X0047000Y0720510D03*
X0047000Y0690510D03*
X0057000Y0690510D03*
X0067000Y0690510D03*
X0077000Y0690510D03*
X0765280Y0337840D02*
G75*
%LPD*%
D25*
X0837280Y0365240D02*
X0837280Y0370440D01*
X0847280Y0370440D02*
X0847280Y0365240D01*
X0857280Y0365240D02*
X0857280Y0370440D01*
X0867280Y0370440D02*
X0867280Y0365240D01*
X0877280Y0365240D02*
X0877280Y0370440D01*
X0887280Y0370440D02*
X0887280Y0365240D01*
X0897280Y0365240D02*
X0897280Y0370440D01*
X0907280Y0370440D02*
X0907280Y0365240D01*
X0907280Y0395240D02*
X0907280Y0400440D01*
X0897280Y0400440D02*
X0897280Y0395240D01*
X0887280Y0395240D02*
X0887280Y0400440D01*
X0877280Y0400440D02*
X0877280Y0395240D01*
X0867280Y0395240D02*
X0867280Y0400440D01*
X0857280Y0400440D02*
X0857280Y0395240D01*
X0847280Y0395240D02*
X0847280Y0400440D01*
X0837280Y0400440D02*
X0837280Y0395240D01*
D92*
X0782780Y0397840D02*
X0776780Y0397840D01*
X0776780Y0387840D02*
X0782780Y0387840D01*
X0782780Y0377840D02*
X0776780Y0377840D01*
X0776780Y0367840D02*
X0782780Y0367840D01*
X0782780Y0357840D02*
X0776780Y0357840D01*
X0776780Y0407840D02*
X0782780Y0407840D01*
X0959280Y0407840D02*
X0965280Y0407840D01*
X0965280Y0397840D02*
X0959280Y0397840D01*
X0959280Y0387840D02*
X0965280Y0387840D01*
X0965280Y0377840D02*
X0959280Y0377840D01*
X0959280Y0367840D02*
X0965280Y0367840D01*
X0965280Y0357840D02*
X0959280Y0357840D01*
D38*
X0772280Y0347840D03*
X0782280Y0347840D03*
X0802280Y0347840D03*
X0812280Y0347840D03*
X0832280Y0347840D03*
X0842280Y0347840D03*
X0862280Y0347840D03*
X0872280Y0347840D03*
X0892280Y0347840D03*
X0902280Y0347840D03*
X0922280Y0347840D03*
X0932280Y0347840D03*
X0952280Y0347840D03*
X0962280Y0347840D03*
X0982280Y0347840D03*
X0992280Y0347840D03*
X0949780Y0367840D03*
X0939780Y0367840D03*
X0929780Y0367840D03*
X0919780Y0367840D03*
X0919780Y0397840D03*
X0929780Y0397840D03*
X0939780Y0397840D03*
X0949780Y0397840D03*
X0822280Y0395340D03*
X0812280Y0395340D03*
X0802280Y0395340D03*
X0792280Y0395340D03*
X0792280Y0365340D03*
X0802280Y0365340D03*
X0812280Y0365340D03*
X0822280Y0365340D03*
X1003490Y0339170D02*
G75*
%LPD*%
D16*
X1183450Y0359170D03*
D92*
X1126250Y0400270D03*
X1126250Y0418070D03*
X1100650Y0418070D03*
X1091250Y0418070D03*
X1091250Y0430270D03*
X1091250Y0448070D03*
X1095650Y0465270D03*
X1095650Y0483070D03*
X1121250Y0483070D03*
X1121250Y0465270D03*
X1065650Y0448070D03*
X1065650Y0430270D03*
X1065650Y0418070D03*
X1056250Y0418070D03*
X1056250Y0400270D03*
X1065650Y0400270D03*
X1065650Y0388070D03*
X1065650Y0370270D03*
X1068450Y0349170D03*
X1058450Y0349170D03*
X1048450Y0349170D03*
X1078450Y0349170D03*
X1088450Y0349170D03*
X1098450Y0349170D03*
X1091250Y0370270D03*
X1091250Y0388070D03*
X1091250Y0400270D03*
X1100650Y0400270D03*
X1030650Y0400270D03*
X1030650Y0418070D03*
D85*
X1098650Y0509720D03*
X1098650Y0519720D03*
X1108650Y0519720D03*
X1118650Y0519720D03*
X1118650Y0509720D03*
X1108650Y0509720D03*
D25*
X1135850Y0509170D02*
X1141050Y0509170D01*
X1141050Y0499170D02*
X1135850Y0499170D01*
X1135850Y0489170D02*
X1141050Y0489170D01*
X1141050Y0479170D02*
X1135850Y0479170D01*
X1135850Y0469170D02*
X1141050Y0469170D01*
X1141050Y0459170D02*
X1135850Y0459170D01*
X1135850Y0449170D02*
X1141050Y0449170D01*
X1141050Y0439170D02*
X1135850Y0439170D01*
X1135850Y0429170D02*
X1141050Y0429170D01*
X1141050Y0419170D02*
X1135850Y0419170D01*
X1135850Y0409170D02*
X1141050Y0409170D01*
X1141050Y0399170D02*
X1135850Y0399170D01*
X1135850Y0389170D02*
X1141050Y0389170D01*
X1141050Y0379170D02*
X1135850Y0379170D01*
X1165850Y0379170D02*
X1171050Y0379170D01*
X1171050Y0389170D02*
X1165850Y0389170D01*
X1165850Y0399170D02*
X1171050Y0399170D01*
X1171050Y0409170D02*
X1165850Y0409170D01*
X1165850Y0419170D02*
X1171050Y0419170D01*
X1171050Y0429170D02*
X1165850Y0429170D01*
X1165850Y0439170D02*
X1171050Y0439170D01*
X1171050Y0449170D02*
X1165850Y0449170D01*
X1165850Y0459170D02*
X1171050Y0459170D01*
X1171050Y0469170D02*
X1165850Y0469170D01*
X1165850Y0479170D02*
X1171050Y0479170D01*
X1171050Y0489170D02*
X1165850Y0489170D01*
X1165850Y0499170D02*
X1171050Y0499170D01*
X1171050Y0509170D02*
X1165850Y0509170D01*
X1078450Y0531570D02*
X1078450Y0536770D01*
X1068450Y0536770D02*
X1068450Y0531570D01*
X1058450Y0531570D02*
X1058450Y0536770D01*
X1048450Y0536770D02*
X1048450Y0531570D01*
X1038450Y0531570D02*
X1038450Y0536770D01*
X1038450Y0476770D02*
X1038450Y0471570D01*
X1048450Y0471570D02*
X1048450Y0476770D01*
X1058450Y0476770D02*
X1058450Y0471570D01*
X1068450Y0471570D02*
X1068450Y0476770D01*
X1078450Y0476770D02*
X1078450Y0471570D01*
D92*
X1205450Y0354170D02*
X1211450Y0354170D01*
X1211450Y0364170D02*
X1205450Y0364170D01*
X1205450Y0389170D02*
X1211450Y0389170D01*
X1211450Y0399170D02*
X1205450Y0399170D01*
X1205450Y0409170D02*
X1211450Y0409170D01*
X1211450Y0419170D02*
X1205450Y0419170D01*
X1205450Y0429170D02*
X1211450Y0429170D01*
X1211450Y0439170D02*
X1205450Y0439170D01*
X1205450Y0459170D02*
X1211450Y0459170D01*
X1211450Y0469170D02*
X1205450Y0469170D01*
X1205450Y0479170D02*
X1211450Y0479170D01*
X1211450Y0489170D02*
X1205450Y0489170D01*
X1205450Y0499170D02*
X1211450Y0499170D01*
X1211450Y0509170D02*
X1205450Y0509170D01*
X1083450Y0571170D02*
X1083450Y0577170D01*
X1073450Y0577170D02*
X1073450Y0571170D01*
X1063450Y0571170D02*
X1063450Y0577170D01*
X1053450Y0577170D02*
X1053450Y0571170D01*
X1043450Y0571170D02*
X1043450Y0577170D01*
X1033450Y0577170D02*
X1033450Y0571170D01*
X1021450Y0509170D02*
X1015450Y0509170D01*
X1015450Y0499170D02*
X1021450Y0499170D01*
X1021450Y0489170D02*
X1015450Y0489170D01*
X1015450Y0479170D02*
X1021450Y0479170D01*
X1021450Y0469170D02*
X1015450Y0469170D01*
X1015450Y0459170D02*
X1021450Y0459170D01*
X1021450Y0449170D02*
X1015450Y0449170D01*
X1015450Y0439170D02*
X1021450Y0439170D01*
X1021450Y0423170D02*
X1015450Y0423170D01*
X1015450Y0413170D02*
X1021450Y0413170D01*
X1021450Y0403170D02*
X1015450Y0403170D01*
X1015450Y0393170D02*
X1021450Y0393170D01*
X1021450Y0383170D02*
X1015450Y0383170D01*
X1015450Y0373170D02*
X1021450Y0373170D01*
X1021450Y0363170D02*
X1015450Y0363170D01*
X1015450Y0353170D02*
X1021450Y0353170D01*
D36*
X1118610Y0576730D03*
X1128450Y0576730D03*
X1138290Y0576730D03*
X1173610Y0576730D03*
X1183450Y0576730D03*
X1193290Y0576730D03*
D72*
X1200770Y0549170D03*
X1166130Y0549170D03*
X1145770Y0549170D03*
X1111130Y0549170D03*
X0684320Y0273700D02*
G75*
%LPD*%
D25*
X0732880Y0345700D02*
X0727680Y0345700D01*
X0727680Y0355700D02*
X0732880Y0355700D01*
X0732880Y0365700D02*
X0727680Y0365700D01*
X0727680Y0375700D02*
X0732880Y0375700D01*
X0732880Y0385700D02*
X0727680Y0385700D01*
X0727680Y0395700D02*
X0732880Y0395700D01*
X0732880Y0405700D02*
X0727680Y0405700D01*
X0727680Y0415700D02*
X0732880Y0415700D01*
X0702880Y0415700D02*
X0697680Y0415700D01*
X0697680Y0405700D02*
X0702880Y0405700D01*
X0702880Y0395700D02*
X0697680Y0395700D01*
X0697680Y0385700D02*
X0702880Y0385700D01*
X0702880Y0375700D02*
X0697680Y0375700D01*
X0697680Y0365700D02*
X0702880Y0365700D01*
X0702880Y0355700D02*
X0697680Y0355700D01*
X0697680Y0345700D02*
X0702880Y0345700D01*
D92*
X0700280Y0291200D02*
X0700280Y0285200D01*
X0710280Y0285200D02*
X0710280Y0291200D01*
X0720280Y0291200D02*
X0720280Y0285200D01*
X0730280Y0285200D02*
X0730280Y0291200D01*
X0740280Y0291200D02*
X0740280Y0285200D01*
X0690280Y0285200D02*
X0690280Y0291200D01*
X0690280Y0467700D02*
X0690280Y0473700D01*
X0700280Y0473700D02*
X0700280Y0467700D01*
X0710280Y0467700D02*
X0710280Y0473700D01*
X0720280Y0473700D02*
X0720280Y0467700D01*
X0730280Y0467700D02*
X0730280Y0473700D01*
X0740280Y0473700D02*
X0740280Y0467700D01*
D38*
X0750280Y0280700D03*
X0750280Y0290700D03*
X0750280Y0310700D03*
X0750280Y0320700D03*
X0750280Y0340700D03*
X0750280Y0350700D03*
X0750280Y0370700D03*
X0750280Y0380700D03*
X0750280Y0400700D03*
X0750280Y0410700D03*
X0750280Y0430700D03*
X0750280Y0440700D03*
X0750280Y0460700D03*
X0750280Y0470700D03*
X0750280Y0490700D03*
X0750280Y0500700D03*
X0730280Y0458200D03*
X0730280Y0448200D03*
X0730280Y0438200D03*
X0730280Y0428200D03*
X0700280Y0428200D03*
X0700280Y0438200D03*
X0700280Y0448200D03*
X0700280Y0458200D03*
X0702780Y0330700D03*
X0702780Y0320700D03*
X0702780Y0310700D03*
X0702780Y0300700D03*
X0732780Y0300700D03*
X0732780Y0310700D03*
X0732780Y0320700D03*
X0732780Y0330700D03*
X0258210Y0181920D02*
G75*
%LPD*%
D25*
X0306770Y0253920D02*
X0301570Y0253920D01*
X0301570Y0263920D02*
X0306770Y0263920D01*
X0306770Y0273920D02*
X0301570Y0273920D01*
X0301570Y0283920D02*
X0306770Y0283920D01*
X0306770Y0293920D02*
X0301570Y0293920D01*
X0301570Y0303920D02*
X0306770Y0303920D01*
X0306770Y0313920D02*
X0301570Y0313920D01*
X0301570Y0323920D02*
X0306770Y0323920D01*
X0276770Y0323920D02*
X0271570Y0323920D01*
X0271570Y0313920D02*
X0276770Y0313920D01*
X0276770Y0303920D02*
X0271570Y0303920D01*
X0271570Y0293920D02*
X0276770Y0293920D01*
X0276770Y0283920D02*
X0271570Y0283920D01*
X0271570Y0273920D02*
X0276770Y0273920D01*
X0276770Y0263920D02*
X0271570Y0263920D01*
X0271570Y0253920D02*
X0276770Y0253920D01*
D92*
X0274170Y0199420D02*
X0274170Y0193420D01*
X0284170Y0193420D02*
X0284170Y0199420D01*
X0294170Y0199420D02*
X0294170Y0193420D01*
X0304170Y0193420D02*
X0304170Y0199420D01*
X0314170Y0199420D02*
X0314170Y0193420D01*
X0264170Y0193420D02*
X0264170Y0199420D01*
X0264170Y0375920D02*
X0264170Y0381920D01*
X0274170Y0381920D02*
X0274170Y0375920D01*
X0284170Y0375920D02*
X0284170Y0381920D01*
X0294170Y0381920D02*
X0294170Y0375920D01*
X0304170Y0375920D02*
X0304170Y0381920D01*
X0314170Y0381920D02*
X0314170Y0375920D01*
D38*
X0324170Y0188920D03*
X0324170Y0198920D03*
X0324170Y0218920D03*
X0324170Y0228920D03*
X0324170Y0248920D03*
X0324170Y0258920D03*
X0324170Y0278920D03*
X0324170Y0288920D03*
X0324170Y0308920D03*
X0324170Y0318920D03*
X0324170Y0338920D03*
X0324170Y0348920D03*
X0324170Y0368920D03*
X0324170Y0378920D03*
X0324170Y0398920D03*
X0324170Y0408920D03*
X0304170Y0366420D03*
X0304170Y0356420D03*
X0304170Y0346420D03*
X0304170Y0336420D03*
X0274170Y0336420D03*
X0274170Y0346420D03*
X0274170Y0356420D03*
X0274170Y0366420D03*
X0276670Y0238920D03*
X0276670Y0228920D03*
X0276670Y0218920D03*
X0276670Y0208920D03*
X0306670Y0208920D03*
X0306670Y0218920D03*
X0306670Y0228920D03*
X0306670Y0238920D03*
X0339170Y0273700D02*
G75*
%LPD*%
D14*
X0464370Y0277880D03*
X0464370Y0284880D03*
X0464370Y0291880D03*
X0464370Y0298880D03*
X0464370Y0305880D03*
X0464370Y0312880D03*
X0464370Y0319880D03*
X0464370Y0326880D03*
X0464370Y0333880D03*
X0464370Y0340880D03*
X0426370Y0388880D03*
X0419370Y0388880D03*
X0412370Y0388880D03*
X0405370Y0388880D03*
X0398370Y0388880D03*
X0391370Y0388880D03*
X0384370Y0388880D03*
X0377370Y0388880D03*
X0370370Y0388880D03*
X0363370Y0388880D03*
X0356370Y0388880D03*
X0349370Y0388880D03*
X0342370Y0388880D03*
X0464370Y0454880D03*
X0464370Y0461880D03*
X0464370Y0468880D03*
X0464370Y0475880D03*
X0464370Y0482880D03*
X0464370Y0489880D03*
D45*
X0464370Y0443880D03*
X0464370Y0433880D03*
X0464370Y0423880D03*
X0464370Y0413880D03*
X0464370Y0403880D03*
X0464370Y0373880D03*
X0464370Y0363880D03*
X0464370Y0353880D03*
D65*
X0464370Y0383880D03*
X0464370Y0393880D03*
D85*
X0451870Y0464880D03*
X0441870Y0464880D03*
X0441870Y0474880D03*
X0451870Y0474880D03*
X0451870Y0484880D03*
X0441870Y0484880D03*
X0632730Y0402730D03*
X0642730Y0402730D03*
X0642730Y0392730D03*
X0632730Y0392730D03*
X0632730Y0382730D03*
X0642730Y0382730D03*
D92*
X0614300Y0375530D02*
X0610700Y0375530D01*
X0588700Y0375530D02*
X0585100Y0375530D01*
X0585100Y0393330D02*
X0588700Y0393330D01*
X0610700Y0393330D02*
X0614300Y0393330D01*
X0612130Y0471230D02*
X0612130Y0474830D01*
X0612120Y0481230D02*
X0612120Y0484830D01*
X0602120Y0484830D02*
X0602120Y0481230D01*
X0602130Y0474830D02*
X0602130Y0471230D01*
X0592130Y0471230D02*
X0592130Y0474830D01*
X0592120Y0481230D02*
X0592120Y0484830D01*
X0582120Y0484830D02*
X0582120Y0481230D01*
X0582130Y0474830D02*
X0582130Y0471230D01*
X0572130Y0471230D02*
X0572130Y0474830D01*
X0562130Y0474830D02*
X0562130Y0471230D01*
X0562120Y0481230D02*
X0562120Y0484830D01*
X0572120Y0484830D02*
X0572120Y0481230D01*
X0545330Y0474830D02*
X0545330Y0471230D01*
X0535330Y0471230D02*
X0535330Y0474830D01*
X0532120Y0481230D02*
X0532120Y0484830D01*
X0522120Y0484830D02*
X0522120Y0481230D01*
X0525330Y0474830D02*
X0525330Y0471230D01*
X0515330Y0471230D02*
X0515330Y0474830D01*
X0512120Y0481230D02*
X0512120Y0484830D01*
X0502120Y0484830D02*
X0502120Y0481230D01*
X0505330Y0474830D02*
X0505330Y0471230D01*
X0495330Y0471230D02*
X0495330Y0474830D01*
X0492120Y0481230D02*
X0492120Y0484830D01*
X0482120Y0484830D02*
X0482120Y0481230D01*
X0485330Y0474830D02*
X0485330Y0471230D01*
X0475330Y0471230D02*
X0475330Y0474830D01*
X0472120Y0481230D02*
X0472120Y0484830D01*
X0472570Y0448880D02*
X0476170Y0448880D01*
X0476170Y0438880D02*
X0472570Y0438880D01*
X0472570Y0428880D02*
X0476170Y0428880D01*
X0476170Y0418880D02*
X0472570Y0418880D01*
X0472570Y0408880D02*
X0476170Y0408880D01*
X0476170Y0398880D02*
X0472570Y0398880D01*
X0455170Y0398880D02*
X0451570Y0398880D01*
X0451570Y0408880D02*
X0455170Y0408880D01*
X0455170Y0418880D02*
X0451570Y0418880D01*
X0451570Y0428880D02*
X0455170Y0428880D01*
X0455170Y0438880D02*
X0451570Y0438880D01*
X0451570Y0448880D02*
X0455170Y0448880D01*
X0438620Y0398830D02*
X0435020Y0398830D01*
X0435020Y0388830D02*
X0438620Y0388830D01*
X0438620Y0378830D02*
X0435020Y0378830D01*
X0451570Y0378880D02*
X0455170Y0378880D01*
X0455170Y0368880D02*
X0451570Y0368880D01*
X0451570Y0358880D02*
X0455170Y0358880D01*
X0455170Y0348880D02*
X0451570Y0348880D01*
X0472570Y0348880D02*
X0476170Y0348880D01*
X0476170Y0358880D02*
X0472570Y0358880D01*
X0472570Y0368880D02*
X0476170Y0368880D01*
X0476170Y0378880D02*
X0472570Y0378880D01*
X0511210Y0294530D02*
X0511210Y0290930D01*
X0511220Y0284530D02*
X0511220Y0280930D01*
X0521220Y0280930D02*
X0521220Y0284530D01*
X0521210Y0290930D02*
X0521210Y0294530D01*
X0531210Y0294530D02*
X0531210Y0290930D01*
X0531220Y0284530D02*
X0531220Y0280930D01*
X0541220Y0280930D02*
X0541220Y0284530D01*
X0541210Y0290930D02*
X0541210Y0294530D01*
X0551210Y0294530D02*
X0551210Y0290930D01*
X0561210Y0290930D02*
X0561210Y0294530D01*
X0561220Y0284530D02*
X0561220Y0280930D01*
X0551220Y0280930D02*
X0551220Y0284530D01*
X0580920Y0284730D02*
X0580920Y0281130D01*
X0590920Y0281130D02*
X0590920Y0284730D01*
X0590930Y0291130D02*
X0590930Y0294730D01*
X0580930Y0294730D02*
X0580930Y0291130D01*
X0600930Y0291130D02*
X0600930Y0294730D01*
X0610930Y0294730D02*
X0610930Y0291130D01*
X0620930Y0291130D02*
X0620930Y0294730D01*
X0630930Y0294730D02*
X0630930Y0291130D01*
X0630920Y0284730D02*
X0630920Y0281130D01*
X0620920Y0281130D02*
X0620920Y0284730D01*
X0610920Y0284730D02*
X0610920Y0281130D01*
X0600920Y0281130D02*
X0600920Y0284730D01*
X0622130Y0471230D02*
X0622130Y0474830D01*
X0622120Y0481230D02*
X0622120Y0484830D01*
X0632120Y0484830D02*
X0632120Y0481230D01*
X0632130Y0474830D02*
X0632130Y0471230D01*
X0542120Y0481230D02*
X0542120Y0484830D01*
D25*
X0425930Y0487380D02*
X0422810Y0487380D01*
X0422810Y0477380D02*
X0425930Y0477380D01*
X0425930Y0467380D02*
X0422810Y0467380D01*
X0422810Y0457380D02*
X0425930Y0457380D01*
X0425930Y0447380D02*
X0422810Y0447380D01*
X0422810Y0437380D02*
X0425930Y0437380D01*
X0425930Y0427380D02*
X0422810Y0427380D01*
X0422810Y0417380D02*
X0425930Y0417380D01*
X0425930Y0407380D02*
X0422810Y0407380D01*
X0422810Y0397380D02*
X0425930Y0397380D01*
X0395930Y0397380D02*
X0392810Y0397380D01*
X0392810Y0407380D02*
X0395930Y0407380D01*
X0395930Y0417380D02*
X0392810Y0417380D01*
X0392810Y0427380D02*
X0395930Y0427380D01*
X0395930Y0437380D02*
X0392810Y0437380D01*
X0392810Y0447380D02*
X0395930Y0447380D01*
X0395930Y0457380D02*
X0392810Y0457380D01*
X0392810Y0467380D02*
X0395930Y0467380D01*
X0395930Y0477380D02*
X0392810Y0477380D01*
X0392810Y0487380D02*
X0395930Y0487380D01*
X0504250Y0356700D02*
X0504250Y0353580D01*
X0514250Y0353580D02*
X0514250Y0356700D01*
X0524250Y0356700D02*
X0524250Y0353580D01*
X0534250Y0353580D02*
X0534250Y0356700D01*
X0544250Y0356700D02*
X0544250Y0353580D01*
X0554250Y0353580D02*
X0554250Y0356700D01*
X0564250Y0356700D02*
X0564250Y0353580D01*
X0574250Y0353580D02*
X0574250Y0356700D01*
X0584250Y0356700D02*
X0584250Y0353580D01*
X0594250Y0353580D02*
X0594250Y0356700D01*
X0604250Y0356700D02*
X0604250Y0353580D01*
X0614250Y0353580D02*
X0614250Y0356700D01*
X0624250Y0356700D02*
X0624250Y0353580D01*
X0634250Y0353580D02*
X0634250Y0356700D01*
X0634250Y0326700D02*
X0634250Y0323580D01*
X0624250Y0323580D02*
X0624250Y0326700D01*
X0614250Y0326700D02*
X0614250Y0323580D01*
X0604250Y0323580D02*
X0604250Y0326700D01*
X0594250Y0326700D02*
X0594250Y0323580D01*
X0584250Y0323580D02*
X0584250Y0326700D01*
X0574250Y0326700D02*
X0574250Y0323580D01*
X0564250Y0323580D02*
X0564250Y0326700D01*
X0554250Y0326700D02*
X0554250Y0323580D01*
X0544250Y0323580D02*
X0544250Y0326700D01*
X0534250Y0326700D02*
X0534250Y0323580D01*
X0524250Y0323580D02*
X0524250Y0326700D01*
X0514250Y0326700D02*
X0514250Y0323580D01*
X0504250Y0323580D02*
X0504250Y0326700D01*
D30*
X0437230Y0358430D03*
X0437230Y0369450D03*
X0409890Y0404900D03*
X0409890Y0415930D03*
D64*
X0409580Y0431740D03*
X0409580Y0447100D03*
D25*
X0371370Y0428380D03*
X0371370Y0409380D03*
X0552330Y0395750D03*
X0552330Y0376750D03*
D83*
X0429180Y0326970D03*
X0389180Y0326970D03*
D42*
X0442860Y0336880D03*
X0453880Y0336880D03*
X0579870Y0340200D03*
X0590890Y0340200D03*
D82*
X0367260Y0296320D03*
X0379060Y0316020D03*
X0355460Y0316020D03*
D60*
X0343870Y0465780D03*
X0343870Y0476980D03*
D94*
X0379870Y0475690D03*
X0379870Y0464070D03*
X0379870Y0450690D03*
X0379870Y0489070D03*
D48*
X0432670Y0453180D03*
X0443870Y0453180D03*
X0443870Y0437680D03*
X0432670Y0437680D03*
D43*
X0356870Y0461720D03*
X0356870Y0479040D03*
D76*
X0551370Y0340880D03*
X0642370Y0311880D03*
X0765280Y0418800D02*
G75*
%LPD*%
D25*
X0837280Y0446200D02*
X0837280Y0451400D01*
X0847280Y0451400D02*
X0847280Y0446200D01*
X0857280Y0446200D02*
X0857280Y0451400D01*
X0867280Y0451400D02*
X0867280Y0446200D01*
X0877280Y0446200D02*
X0877280Y0451400D01*
X0887280Y0451400D02*
X0887280Y0446200D01*
X0897280Y0446200D02*
X0897280Y0451400D01*
X0907280Y0451400D02*
X0907280Y0446200D01*
X0907280Y0476200D02*
X0907280Y0481400D01*
X0897280Y0481400D02*
X0897280Y0476200D01*
X0887280Y0476200D02*
X0887280Y0481400D01*
X0877280Y0481400D02*
X0877280Y0476200D01*
X0867280Y0476200D02*
X0867280Y0481400D01*
X0857280Y0481400D02*
X0857280Y0476200D01*
X0847280Y0476200D02*
X0847280Y0481400D01*
X0837280Y0481400D02*
X0837280Y0476200D01*
D92*
X0782780Y0478800D02*
X0776780Y0478800D01*
X0776780Y0468800D02*
X0782780Y0468800D01*
X0782780Y0458800D02*
X0776780Y0458800D01*
X0776780Y0448800D02*
X0782780Y0448800D01*
X0782780Y0438800D02*
X0776780Y0438800D01*
X0776780Y0488800D02*
X0782780Y0488800D01*
X0959280Y0488800D02*
X0965280Y0488800D01*
X0965280Y0478800D02*
X0959280Y0478800D01*
X0959280Y0468800D02*
X0965280Y0468800D01*
X0965280Y0458800D02*
X0959280Y0458800D01*
X0959280Y0448800D02*
X0965280Y0448800D01*
X0965280Y0438800D02*
X0959280Y0438800D01*
D38*
X0772280Y0428800D03*
X0782280Y0428800D03*
X0802280Y0428800D03*
X0812280Y0428800D03*
X0832280Y0428800D03*
X0842280Y0428800D03*
X0862280Y0428800D03*
X0872280Y0428800D03*
X0892280Y0428800D03*
X0902280Y0428800D03*
X0922280Y0428800D03*
X0932280Y0428800D03*
X0952280Y0428800D03*
X0962280Y0428800D03*
X0982280Y0428800D03*
X0992280Y0428800D03*
X0949780Y0448800D03*
X0939780Y0448800D03*
X0929780Y0448800D03*
X0919780Y0448800D03*
X0919780Y0478800D03*
X0929780Y0478800D03*
X0939780Y0478800D03*
X0949780Y0478800D03*
X0822280Y0476300D03*
X0812280Y0476300D03*
X0802280Y0476300D03*
X0792280Y0476300D03*
X0792280Y0446300D03*
X0802280Y0446300D03*
X0812280Y0446300D03*
X0822280Y0446300D03*
X0765280Y0499760D02*
G75*
%LPD*%
D25*
X0837280Y0527160D02*
X0837280Y0532360D01*
X0847280Y0532360D02*
X0847280Y0527160D01*
X0857280Y0527160D02*
X0857280Y0532360D01*
X0867280Y0532360D02*
X0867280Y0527160D01*
X0877280Y0527160D02*
X0877280Y0532360D01*
X0887280Y0532360D02*
X0887280Y0527160D01*
X0897280Y0527160D02*
X0897280Y0532360D01*
X0907280Y0532360D02*
X0907280Y0527160D01*
X0907280Y0557160D02*
X0907280Y0562360D01*
X0897280Y0562360D02*
X0897280Y0557160D01*
X0887280Y0557160D02*
X0887280Y0562360D01*
X0877280Y0562360D02*
X0877280Y0557160D01*
X0867280Y0557160D02*
X0867280Y0562360D01*
X0857280Y0562360D02*
X0857280Y0557160D01*
X0847280Y0557160D02*
X0847280Y0562360D01*
X0837280Y0562360D02*
X0837280Y0557160D01*
D92*
X0782780Y0559760D02*
X0776780Y0559760D01*
X0776780Y0549760D02*
X0782780Y0549760D01*
X0782780Y0539760D02*
X0776780Y0539760D01*
X0776780Y0529760D02*
X0782780Y0529760D01*
X0782780Y0519760D02*
X0776780Y0519760D01*
X0776780Y0569760D02*
X0782780Y0569760D01*
X0959280Y0569760D02*
X0965280Y0569760D01*
X0965280Y0559760D02*
X0959280Y0559760D01*
X0959280Y0549760D02*
X0965280Y0549760D01*
X0965280Y0539760D02*
X0959280Y0539760D01*
X0959280Y0529760D02*
X0965280Y0529760D01*
X0965280Y0519760D02*
X0959280Y0519760D01*
D38*
X0772280Y0509760D03*
X0782280Y0509760D03*
X0802280Y0509760D03*
X0812280Y0509760D03*
X0832280Y0509760D03*
X0842280Y0509760D03*
X0862280Y0509760D03*
X0872280Y0509760D03*
X0892280Y0509760D03*
X0902280Y0509760D03*
X0922280Y0509760D03*
X0932280Y0509760D03*
X0952280Y0509760D03*
X0962280Y0509760D03*
X0982280Y0509760D03*
X0992280Y0509760D03*
X0949780Y0529760D03*
X0939780Y0529760D03*
X0929780Y0529760D03*
X0919780Y0529760D03*
X0919780Y0559760D03*
X0929780Y0559760D03*
X0939780Y0559760D03*
X0949780Y0559760D03*
X0822280Y0557260D03*
X0812280Y0557260D03*
X0802280Y0557260D03*
X0792280Y0557260D03*
X0792280Y0527260D03*
X0802280Y0527260D03*
X0812280Y0527260D03*
X0822280Y0527260D03*
X0258210Y0420130D02*
G75*
%LPD*%
D25*
X0306770Y0492130D02*
X0301570Y0492130D01*
X0301570Y0502130D02*
X0306770Y0502130D01*
X0306770Y0512130D02*
X0301570Y0512130D01*
X0301570Y0522130D02*
X0306770Y0522130D01*
X0306770Y0532130D02*
X0301570Y0532130D01*
X0301570Y0542130D02*
X0306770Y0542130D01*
X0306770Y0552130D02*
X0301570Y0552130D01*
X0301570Y0562130D02*
X0306770Y0562130D01*
X0276770Y0562130D02*
X0271570Y0562130D01*
X0271570Y0552130D02*
X0276770Y0552130D01*
X0276770Y0542130D02*
X0271570Y0542130D01*
X0271570Y0532130D02*
X0276770Y0532130D01*
X0276770Y0522130D02*
X0271570Y0522130D01*
X0271570Y0512130D02*
X0276770Y0512130D01*
X0276770Y0502130D02*
X0271570Y0502130D01*
X0271570Y0492130D02*
X0276770Y0492130D01*
D92*
X0274170Y0437630D02*
X0274170Y0431630D01*
X0284170Y0431630D02*
X0284170Y0437630D01*
X0294170Y0437630D02*
X0294170Y0431630D01*
X0304170Y0431630D02*
X0304170Y0437630D01*
X0314170Y0437630D02*
X0314170Y0431630D01*
X0264170Y0431630D02*
X0264170Y0437630D01*
X0264170Y0614130D02*
X0264170Y0620130D01*
X0274170Y0620130D02*
X0274170Y0614130D01*
X0284170Y0614130D02*
X0284170Y0620130D01*
X0294170Y0620130D02*
X0294170Y0614130D01*
X0304170Y0614130D02*
X0304170Y0620130D01*
X0314170Y0620130D02*
X0314170Y0614130D01*
D38*
X0324170Y0427130D03*
X0324170Y0437130D03*
X0324170Y0457130D03*
X0324170Y0467130D03*
X0324170Y0487130D03*
X0324170Y0497130D03*
X0324170Y0517130D03*
X0324170Y0527130D03*
X0324170Y0547130D03*
X0324170Y0557130D03*
X0324170Y0577130D03*
X0324170Y0587130D03*
X0324170Y0607130D03*
X0324170Y0617130D03*
X0324170Y0637130D03*
X0324170Y0647130D03*
X0304170Y0604630D03*
X0304170Y0594630D03*
X0304170Y0584630D03*
X0304170Y0574630D03*
X0274170Y0574630D03*
X0274170Y0584630D03*
X0274170Y0594630D03*
X0274170Y0604630D03*
X0276670Y0477130D03*
X0276670Y0467130D03*
X0276670Y0457130D03*
X0276670Y0447130D03*
X0306670Y0447130D03*
X0306670Y0457130D03*
X0306670Y0467130D03*
X0306670Y0477130D03*
X0339170Y0498100D02*
G75*
%LPD*%
D25*
X0411170Y0525500D02*
X0411170Y0530700D01*
X0421170Y0530700D02*
X0421170Y0525500D01*
X0431170Y0525500D02*
X0431170Y0530700D01*
X0441170Y0530700D02*
X0441170Y0525500D01*
X0451170Y0525500D02*
X0451170Y0530700D01*
X0461170Y0530700D02*
X0461170Y0525500D01*
X0471170Y0525500D02*
X0471170Y0530700D01*
X0481170Y0530700D02*
X0481170Y0525500D01*
X0481170Y0555500D02*
X0481170Y0560700D01*
X0471170Y0560700D02*
X0471170Y0555500D01*
X0461170Y0555500D02*
X0461170Y0560700D01*
X0451170Y0560700D02*
X0451170Y0555500D01*
X0441170Y0555500D02*
X0441170Y0560700D01*
X0431170Y0560700D02*
X0431170Y0555500D01*
X0421170Y0555500D02*
X0421170Y0560700D01*
X0411170Y0560700D02*
X0411170Y0555500D01*
D92*
X0356670Y0558100D02*
X0350670Y0558100D01*
X0350670Y0548100D02*
X0356670Y0548100D01*
X0356670Y0538100D02*
X0350670Y0538100D01*
X0350670Y0528100D02*
X0356670Y0528100D01*
X0356670Y0518100D02*
X0350670Y0518100D01*
X0350670Y0568100D02*
X0356670Y0568100D01*
X0533170Y0568100D02*
X0539170Y0568100D01*
X0539170Y0558100D02*
X0533170Y0558100D01*
X0533170Y0548100D02*
X0539170Y0548100D01*
X0539170Y0538100D02*
X0533170Y0538100D01*
X0533170Y0528100D02*
X0539170Y0528100D01*
X0539170Y0518100D02*
X0533170Y0518100D01*
D38*
X0346170Y0508100D03*
X0356170Y0508100D03*
X0376170Y0508100D03*
X0386170Y0508100D03*
X0406170Y0508100D03*
X0416170Y0508100D03*
X0436170Y0508100D03*
X0446170Y0508100D03*
X0466170Y0508100D03*
X0476170Y0508100D03*
X0496170Y0508100D03*
X0506170Y0508100D03*
X0526170Y0508100D03*
X0536170Y0508100D03*
X0556170Y0508100D03*
X0566170Y0508100D03*
X0523670Y0528100D03*
X0513670Y0528100D03*
X0503670Y0528100D03*
X0493670Y0528100D03*
X0493670Y0558100D03*
X0503670Y0558100D03*
X0513670Y0558100D03*
X0523670Y0558100D03*
X0396170Y0555600D03*
X0386170Y0555600D03*
X0376170Y0555600D03*
X0366170Y0555600D03*
X0366170Y0525600D03*
X0376170Y0525600D03*
X0386170Y0525600D03*
X0396170Y0525600D03*
X0765280Y0580720D02*
G75*
%LPD*%
D25*
X0837280Y0608120D02*
X0837280Y0613320D01*
X0847280Y0613320D02*
X0847280Y0608120D01*
X0857280Y0608120D02*
X0857280Y0613320D01*
X0867280Y0613320D02*
X0867280Y0608120D01*
X0877280Y0608120D02*
X0877280Y0613320D01*
X0887280Y0613320D02*
X0887280Y0608120D01*
X0897280Y0608120D02*
X0897280Y0613320D01*
X0907280Y0613320D02*
X0907280Y0608120D01*
X0907280Y0638120D02*
X0907280Y0643320D01*
X0897280Y0643320D02*
X0897280Y0638120D01*
X0887280Y0638120D02*
X0887280Y0643320D01*
X0877280Y0643320D02*
X0877280Y0638120D01*
X0867280Y0638120D02*
X0867280Y0643320D01*
X0857280Y0643320D02*
X0857280Y0638120D01*
X0847280Y0638120D02*
X0847280Y0643320D01*
X0837280Y0643320D02*
X0837280Y0638120D01*
D92*
X0782780Y0640720D02*
X0776780Y0640720D01*
X0776780Y0630720D02*
X0782780Y0630720D01*
X0782780Y0620720D02*
X0776780Y0620720D01*
X0776780Y0610720D02*
X0782780Y0610720D01*
X0782780Y0600720D02*
X0776780Y0600720D01*
X0776780Y0650720D02*
X0782780Y0650720D01*
X0959280Y0650720D02*
X0965280Y0650720D01*
X0965280Y0640720D02*
X0959280Y0640720D01*
X0959280Y0630720D02*
X0965280Y0630720D01*
X0965280Y0620720D02*
X0959280Y0620720D01*
X0959280Y0610720D02*
X0965280Y0610720D01*
X0965280Y0600720D02*
X0959280Y0600720D01*
D38*
X0772280Y0590720D03*
X0782280Y0590720D03*
X0802280Y0590720D03*
X0812280Y0590720D03*
X0832280Y0590720D03*
X0842280Y0590720D03*
X0862280Y0590720D03*
X0872280Y0590720D03*
X0892280Y0590720D03*
X0902280Y0590720D03*
X0922280Y0590720D03*
X0932280Y0590720D03*
X0952280Y0590720D03*
X0962280Y0590720D03*
X0982280Y0590720D03*
X0992280Y0590720D03*
X0949780Y0610720D03*
X0939780Y0610720D03*
X0929780Y0610720D03*
X0919780Y0610720D03*
X0919780Y0640720D03*
X0929780Y0640720D03*
X0939780Y0640720D03*
X0949780Y0640720D03*
X0822280Y0638220D03*
X0812280Y0638220D03*
X0802280Y0638220D03*
X0792280Y0638220D03*
X0792280Y0608220D03*
X0802280Y0608220D03*
X0812280Y0608220D03*
X0822280Y0608220D03*
X0339170Y0579060D02*
G75*
%LPD*%
D25*
X0411170Y0606460D02*
X0411170Y0611660D01*
X0421170Y0611660D02*
X0421170Y0606460D01*
X0431170Y0606460D02*
X0431170Y0611660D01*
X0441170Y0611660D02*
X0441170Y0606460D01*
X0451170Y0606460D02*
X0451170Y0611660D01*
X0461170Y0611660D02*
X0461170Y0606460D01*
X0471170Y0606460D02*
X0471170Y0611660D01*
X0481170Y0611660D02*
X0481170Y0606460D01*
X0481170Y0636460D02*
X0481170Y0641660D01*
X0471170Y0641660D02*
X0471170Y0636460D01*
X0461170Y0636460D02*
X0461170Y0641660D01*
X0451170Y0641660D02*
X0451170Y0636460D01*
X0441170Y0636460D02*
X0441170Y0641660D01*
X0431170Y0641660D02*
X0431170Y0636460D01*
X0421170Y0636460D02*
X0421170Y0641660D01*
X0411170Y0641660D02*
X0411170Y0636460D01*
D92*
X0356670Y0639060D02*
X0350670Y0639060D01*
X0350670Y0629060D02*
X0356670Y0629060D01*
X0356670Y0619060D02*
X0350670Y0619060D01*
X0350670Y0609060D02*
X0356670Y0609060D01*
X0356670Y0599060D02*
X0350670Y0599060D01*
X0350670Y0649060D02*
X0356670Y0649060D01*
X0533170Y0649060D02*
X0539170Y0649060D01*
X0539170Y0639060D02*
X0533170Y0639060D01*
X0533170Y0629060D02*
X0539170Y0629060D01*
X0539170Y0619060D02*
X0533170Y0619060D01*
X0533170Y0609060D02*
X0539170Y0609060D01*
X0539170Y0599060D02*
X0533170Y0599060D01*
D38*
X0346170Y0589060D03*
X0356170Y0589060D03*
X0376170Y0589060D03*
X0386170Y0589060D03*
X0406170Y0589060D03*
X0416170Y0589060D03*
X0436170Y0589060D03*
X0446170Y0589060D03*
X0466170Y0589060D03*
X0476170Y0589060D03*
X0496170Y0589060D03*
X0506170Y0589060D03*
X0526170Y0589060D03*
X0536170Y0589060D03*
X0556170Y0589060D03*
X0566170Y0589060D03*
X0523670Y0609060D03*
X0513670Y0609060D03*
X0503670Y0609060D03*
X0493670Y0609060D03*
X0493670Y0639060D03*
X0503670Y0639060D03*
X0513670Y0639060D03*
X0523670Y0639060D03*
X0396170Y0636560D03*
X0386170Y0636560D03*
X0376170Y0636560D03*
X0366170Y0636560D03*
X0366170Y0606560D03*
X0376170Y0606560D03*
X0386170Y0606560D03*
X0396170Y0606560D03*
X0603360Y0498100D02*
G75*
%LPD*%
D25*
X0651920Y0570100D02*
X0646720Y0570100D01*
X0646720Y0580100D02*
X0651920Y0580100D01*
X0651920Y0590100D02*
X0646720Y0590100D01*
X0646720Y0600100D02*
X0651920Y0600100D01*
X0651920Y0610100D02*
X0646720Y0610100D01*
X0646720Y0620100D02*
X0651920Y0620100D01*
X0651920Y0630100D02*
X0646720Y0630100D01*
X0646720Y0640100D02*
X0651920Y0640100D01*
X0621920Y0640100D02*
X0616720Y0640100D01*
X0616720Y0630100D02*
X0621920Y0630100D01*
X0621920Y0620100D02*
X0616720Y0620100D01*
X0616720Y0610100D02*
X0621920Y0610100D01*
X0621920Y0600100D02*
X0616720Y0600100D01*
X0616720Y0590100D02*
X0621920Y0590100D01*
X0621920Y0580100D02*
X0616720Y0580100D01*
X0616720Y0570100D02*
X0621920Y0570100D01*
D92*
X0619320Y0515600D02*
X0619320Y0509600D01*
X0629320Y0509600D02*
X0629320Y0515600D01*
X0639320Y0515600D02*
X0639320Y0509600D01*
X0649320Y0509600D02*
X0649320Y0515600D01*
X0659320Y0515600D02*
X0659320Y0509600D01*
X0609320Y0509600D02*
X0609320Y0515600D01*
X0609320Y0692100D02*
X0609320Y0698100D01*
X0619320Y0698100D02*
X0619320Y0692100D01*
X0629320Y0692100D02*
X0629320Y0698100D01*
X0639320Y0698100D02*
X0639320Y0692100D01*
X0649320Y0692100D02*
X0649320Y0698100D01*
X0659320Y0698100D02*
X0659320Y0692100D01*
D38*
X0669320Y0505100D03*
X0669320Y0515100D03*
X0669320Y0535100D03*
X0669320Y0545100D03*
X0669320Y0565100D03*
X0669320Y0575100D03*
X0669320Y0595100D03*
X0669320Y0605100D03*
X0669320Y0625100D03*
X0669320Y0635100D03*
X0669320Y0655100D03*
X0669320Y0665100D03*
X0669320Y0685100D03*
X0669320Y0695100D03*
X0669320Y0715100D03*
X0669320Y0725100D03*
X0649320Y0682600D03*
X0649320Y0672600D03*
X0649320Y0662600D03*
X0649320Y0652600D03*
X0619320Y0652600D03*
X0619320Y0662600D03*
X0619320Y0672600D03*
X0619320Y0682600D03*
X0621820Y0555100D03*
X0621820Y0545100D03*
X0621820Y0535100D03*
X0621820Y0525100D03*
X0651820Y0525100D03*
X0651820Y0535100D03*
X0651820Y0545100D03*
X0651820Y0555100D03*
X1003490Y0592870D02*
G75*
%LPD*%
D25*
X1075490Y0620270D02*
X1075490Y0625470D01*
X1085490Y0625470D02*
X1085490Y0620270D01*
X1095490Y0620270D02*
X1095490Y0625470D01*
X1105490Y0625470D02*
X1105490Y0620270D01*
X1115490Y0620270D02*
X1115490Y0625470D01*
X1125490Y0625470D02*
X1125490Y0620270D01*
X1135490Y0620270D02*
X1135490Y0625470D01*
X1145490Y0625470D02*
X1145490Y0620270D01*
X1145490Y0650270D02*
X1145490Y0655470D01*
X1135490Y0655470D02*
X1135490Y0650270D01*
X1125490Y0650270D02*
X1125490Y0655470D01*
X1115490Y0655470D02*
X1115490Y0650270D01*
X1105490Y0650270D02*
X1105490Y0655470D01*
X1095490Y0655470D02*
X1095490Y0650270D01*
X1085490Y0650270D02*
X1085490Y0655470D01*
X1075490Y0655470D02*
X1075490Y0650270D01*
D92*
X1020990Y0652870D02*
X1014990Y0652870D01*
X1014990Y0642870D02*
X1020990Y0642870D01*
X1020990Y0632870D02*
X1014990Y0632870D01*
X1014990Y0622870D02*
X1020990Y0622870D01*
X1020990Y0612870D02*
X1014990Y0612870D01*
X1014990Y0662870D02*
X1020990Y0662870D01*
X1197490Y0662870D02*
X1203490Y0662870D01*
X1203490Y0652870D02*
X1197490Y0652870D01*
X1197490Y0642870D02*
X1203490Y0642870D01*
X1203490Y0632870D02*
X1197490Y0632870D01*
X1197490Y0622870D02*
X1203490Y0622870D01*
X1203490Y0612870D02*
X1197490Y0612870D01*
D38*
X1010490Y0602870D03*
X1020490Y0602870D03*
X1040490Y0602870D03*
X1050490Y0602870D03*
X1070490Y0602870D03*
X1080490Y0602870D03*
X1100490Y0602870D03*
X1110490Y0602870D03*
X1130490Y0602870D03*
X1140490Y0602870D03*
X1160490Y0602870D03*
X1170490Y0602870D03*
X1190490Y0602870D03*
X1200490Y0602870D03*
X1220490Y0602870D03*
X1230490Y0602870D03*
X1187990Y0622870D03*
X1177990Y0622870D03*
X1167990Y0622870D03*
X1157990Y0622870D03*
X1157990Y0652870D03*
X1167990Y0652870D03*
X1177990Y0652870D03*
X1187990Y0652870D03*
X1060490Y0650370D03*
X1050490Y0650370D03*
X1040490Y0650370D03*
X1030490Y0650370D03*
X1030490Y0620370D03*
X1040490Y0620370D03*
X1050490Y0620370D03*
X1060490Y0620370D03*
X0765280Y0661680D02*
G75*
%LPD*%
D25*
X0837280Y0689080D02*
X0837280Y0694280D01*
X0847280Y0694280D02*
X0847280Y0689080D01*
X0857280Y0689080D02*
X0857280Y0694280D01*
X0867280Y0694280D02*
X0867280Y0689080D01*
X0877280Y0689080D02*
X0877280Y0694280D01*
X0887280Y0694280D02*
X0887280Y0689080D01*
X0897280Y0689080D02*
X0897280Y0694280D01*
X0907280Y0694280D02*
X0907280Y0689080D01*
X0907280Y0719080D02*
X0907280Y0724280D01*
X0897280Y0724280D02*
X0897280Y0719080D01*
X0887280Y0719080D02*
X0887280Y0724280D01*
X0877280Y0724280D02*
X0877280Y0719080D01*
X0867280Y0719080D02*
X0867280Y0724280D01*
X0857280Y0724280D02*
X0857280Y0719080D01*
X0847280Y0719080D02*
X0847280Y0724280D01*
X0837280Y0724280D02*
X0837280Y0719080D01*
D92*
X0782780Y0721680D02*
X0776780Y0721680D01*
X0776780Y0711680D02*
X0782780Y0711680D01*
X0782780Y0701680D02*
X0776780Y0701680D01*
X0776780Y0691680D02*
X0782780Y0691680D01*
X0782780Y0681680D02*
X0776780Y0681680D01*
X0776780Y0731680D02*
X0782780Y0731680D01*
X0959280Y0731680D02*
X0965280Y0731680D01*
X0965280Y0721680D02*
X0959280Y0721680D01*
X0959280Y0711680D02*
X0965280Y0711680D01*
X0965280Y0701680D02*
X0959280Y0701680D01*
X0959280Y0691680D02*
X0965280Y0691680D01*
X0965280Y0681680D02*
X0959280Y0681680D01*
D38*
X0772280Y0671680D03*
X0782280Y0671680D03*
X0802280Y0671680D03*
X0812280Y0671680D03*
X0832280Y0671680D03*
X0842280Y0671680D03*
X0862280Y0671680D03*
X0872280Y0671680D03*
X0892280Y0671680D03*
X0902280Y0671680D03*
X0922280Y0671680D03*
X0932280Y0671680D03*
X0952280Y0671680D03*
X0962280Y0671680D03*
X0982280Y0671680D03*
X0992280Y0671680D03*
X0949780Y0691680D03*
X0939780Y0691680D03*
X0929780Y0691680D03*
X0919780Y0691680D03*
X0919780Y0721680D03*
X0929780Y0721680D03*
X0939780Y0721680D03*
X0949780Y0721680D03*
X0822280Y0719180D03*
X0812280Y0719180D03*
X0802280Y0719180D03*
X0792280Y0719180D03*
X0792280Y0689180D03*
X0802280Y0689180D03*
X0812280Y0689180D03*
X0822280Y0689180D03*
X1084450Y0020000D02*
G75*
%LPD*%
D25*
X1133010Y0092000D02*
X1127810Y0092000D01*
X1127810Y0102000D02*
X1133010Y0102000D01*
X1133010Y0112000D02*
X1127810Y0112000D01*
X1127810Y0122000D02*
X1133010Y0122000D01*
X1133010Y0132000D02*
X1127810Y0132000D01*
X1127810Y0142000D02*
X1133010Y0142000D01*
X1133010Y0152000D02*
X1127810Y0152000D01*
X1127810Y0162000D02*
X1133010Y0162000D01*
X1103010Y0162000D02*
X1097810Y0162000D01*
X1097810Y0152000D02*
X1103010Y0152000D01*
X1103010Y0142000D02*
X1097810Y0142000D01*
X1097810Y0132000D02*
X1103010Y0132000D01*
X1103010Y0122000D02*
X1097810Y0122000D01*
X1097810Y0112000D02*
X1103010Y0112000D01*
X1103010Y0102000D02*
X1097810Y0102000D01*
X1097810Y0092000D02*
X1103010Y0092000D01*
D92*
X1100410Y0037500D02*
X1100410Y0031500D01*
X1110410Y0031500D02*
X1110410Y0037500D01*
X1120410Y0037500D02*
X1120410Y0031500D01*
X1130410Y0031500D02*
X1130410Y0037500D01*
X1140410Y0037500D02*
X1140410Y0031500D01*
X1090410Y0031500D02*
X1090410Y0037500D01*
X1090410Y0214000D02*
X1090410Y0220000D01*
X1100410Y0220000D02*
X1100410Y0214000D01*
X1110410Y0214000D02*
X1110410Y0220000D01*
X1120410Y0220000D02*
X1120410Y0214000D01*
X1130410Y0214000D02*
X1130410Y0220000D01*
X1140410Y0220000D02*
X1140410Y0214000D01*
D38*
X1150410Y0027000D03*
X1150410Y0037000D03*
X1150410Y0057000D03*
X1150410Y0067000D03*
X1150410Y0087000D03*
X1150410Y0097000D03*
X1150410Y0117000D03*
X1150410Y0127000D03*
X1150410Y0147000D03*
X1150410Y0157000D03*
X1150410Y0177000D03*
X1150410Y0187000D03*
X1150410Y0207000D03*
X1150410Y0217000D03*
X1150410Y0237000D03*
X1150410Y0247000D03*
X1130410Y0204500D03*
X1130410Y0194500D03*
X1130410Y0184500D03*
X1130410Y0174500D03*
X1100410Y0174500D03*
X1100410Y0184500D03*
X1100410Y0194500D03*
X1100410Y0204500D03*
X1102910Y0077000D03*
X1102910Y0067000D03*
X1102910Y0057000D03*
X1102910Y0047000D03*
X1132910Y0047000D03*
X1132910Y0057000D03*
X1132910Y0067000D03*
X1132910Y0077000D03*
X1003490Y0673830D02*
G75*
%LPD*%
D25*
X1075490Y0701230D02*
X1075490Y0706430D01*
X1085490Y0706430D02*
X1085490Y0701230D01*
X1095490Y0701230D02*
X1095490Y0706430D01*
X1105490Y0706430D02*
X1105490Y0701230D01*
X1115490Y0701230D02*
X1115490Y0706430D01*
X1125490Y0706430D02*
X1125490Y0701230D01*
X1135490Y0701230D02*
X1135490Y0706430D01*
X1145490Y0706430D02*
X1145490Y0701230D01*
X1145490Y0731230D02*
X1145490Y0736430D01*
X1135490Y0736430D02*
X1135490Y0731230D01*
X1125490Y0731230D02*
X1125490Y0736430D01*
X1115490Y0736430D02*
X1115490Y0731230D01*
X1105490Y0731230D02*
X1105490Y0736430D01*
X1095490Y0736430D02*
X1095490Y0731230D01*
X1085490Y0731230D02*
X1085490Y0736430D01*
X1075490Y0736430D02*
X1075490Y0731230D01*
D92*
X1020990Y0733830D02*
X1014990Y0733830D01*
X1014990Y0723830D02*
X1020990Y0723830D01*
X1020990Y0713830D02*
X1014990Y0713830D01*
X1014990Y0703830D02*
X1020990Y0703830D01*
X1020990Y0693830D02*
X1014990Y0693830D01*
X1014990Y0743830D02*
X1020990Y0743830D01*
X1197490Y0743830D02*
X1203490Y0743830D01*
X1203490Y0733830D02*
X1197490Y0733830D01*
X1197490Y0723830D02*
X1203490Y0723830D01*
X1203490Y0713830D02*
X1197490Y0713830D01*
X1197490Y0703830D02*
X1203490Y0703830D01*
X1203490Y0693830D02*
X1197490Y0693830D01*
D38*
X1010490Y0683830D03*
X1020490Y0683830D03*
X1040490Y0683830D03*
X1050490Y0683830D03*
X1070490Y0683830D03*
X1080490Y0683830D03*
X1100490Y0683830D03*
X1110490Y0683830D03*
X1130490Y0683830D03*
X1140490Y0683830D03*
X1160490Y0683830D03*
X1170490Y0683830D03*
X1190490Y0683830D03*
X1200490Y0683830D03*
X1220490Y0683830D03*
X1230490Y0683830D03*
X1187990Y0703830D03*
X1177990Y0703830D03*
X1167990Y0703830D03*
X1157990Y0703830D03*
X1157990Y0733830D03*
X1167990Y0733830D03*
X1177990Y0733830D03*
X1187990Y0733830D03*
X1060490Y0731330D03*
X1050490Y0731330D03*
X1040490Y0731330D03*
X1030490Y0731330D03*
X1030490Y0701330D03*
X1040490Y0701330D03*
X1050490Y0701330D03*
X1060490Y0701330D03*
X0365150Y0660020D02*
G75*
%LPD*%
D25*
X0437150Y0687420D02*
X0437150Y0692620D01*
X0447150Y0692620D02*
X0447150Y0687420D01*
X0457150Y0687420D02*
X0457150Y0692620D01*
X0467150Y0692620D02*
X0467150Y0687420D01*
X0477150Y0687420D02*
X0477150Y0692620D01*
X0487150Y0692620D02*
X0487150Y0687420D01*
X0497150Y0687420D02*
X0497150Y0692620D01*
X0507150Y0692620D02*
X0507150Y0687420D01*
X0507150Y0717420D02*
X0507150Y0722620D01*
X0497150Y0722620D02*
X0497150Y0717420D01*
X0487150Y0717420D02*
X0487150Y0722620D01*
X0477150Y0722620D02*
X0477150Y0717420D01*
X0467150Y0717420D02*
X0467150Y0722620D01*
X0457150Y0722620D02*
X0457150Y0717420D01*
X0447150Y0717420D02*
X0447150Y0722620D01*
X0437150Y0722620D02*
X0437150Y0717420D01*
D92*
X0382650Y0720020D02*
X0376650Y0720020D01*
X0376650Y0710020D02*
X0382650Y0710020D01*
X0382650Y0700020D02*
X0376650Y0700020D01*
X0376650Y0690020D02*
X0382650Y0690020D01*
X0382650Y0680020D02*
X0376650Y0680020D01*
X0376650Y0730020D02*
X0382650Y0730020D01*
X0559150Y0730020D02*
X0565150Y0730020D01*
X0565150Y0720020D02*
X0559150Y0720020D01*
X0559150Y0710020D02*
X0565150Y0710020D01*
X0565150Y0700020D02*
X0559150Y0700020D01*
X0559150Y0690020D02*
X0565150Y0690020D01*
X0565150Y0680020D02*
X0559150Y0680020D01*
D38*
X0372150Y0670020D03*
X0382150Y0670020D03*
X0402150Y0670020D03*
X0412150Y0670020D03*
X0432150Y0670020D03*
X0442150Y0670020D03*
X0462150Y0670020D03*
X0472150Y0670020D03*
X0492150Y0670020D03*
X0502150Y0670020D03*
X0522150Y0670020D03*
X0532150Y0670020D03*
X0552150Y0670020D03*
X0562150Y0670020D03*
X0582150Y0670020D03*
X0592150Y0670020D03*
X0549650Y0690020D03*
X0539650Y0690020D03*
X0529650Y0690020D03*
X0519650Y0690020D03*
X0519650Y0720020D03*
X0529650Y0720020D03*
X0539650Y0720020D03*
X0549650Y0720020D03*
X0422150Y0717520D03*
X0412150Y0717520D03*
X0402150Y0717520D03*
X0392150Y0717520D03*
X0392150Y0687520D03*
X0402150Y0687520D03*
X0412150Y0687520D03*
X0422150Y0687520D03*
X0684320Y0511910D02*
G75*
%LPD*%
D25*
X0732880Y0583910D02*
X0727680Y0583910D01*
X0727680Y0593910D02*
X0732880Y0593910D01*
X0732880Y0603910D02*
X0727680Y0603910D01*
X0727680Y0613910D02*
X0732880Y0613910D01*
X0732880Y0623910D02*
X0727680Y0623910D01*
X0727680Y0633910D02*
X0732880Y0633910D01*
X0732880Y0643910D02*
X0727680Y0643910D01*
X0727680Y0653910D02*
X0732880Y0653910D01*
X0702880Y0653910D02*
X0697680Y0653910D01*
X0697680Y0643910D02*
X0702880Y0643910D01*
X0702880Y0633910D02*
X0697680Y0633910D01*
X0697680Y0623910D02*
X0702880Y0623910D01*
X0702880Y0613910D02*
X0697680Y0613910D01*
X0697680Y0603910D02*
X0702880Y0603910D01*
X0702880Y0593910D02*
X0697680Y0593910D01*
X0697680Y0583910D02*
X0702880Y0583910D01*
D92*
X0700280Y0529410D02*
X0700280Y0523410D01*
X0710280Y0523410D02*
X0710280Y0529410D01*
X0720280Y0529410D02*
X0720280Y0523410D01*
X0730280Y0523410D02*
X0730280Y0529410D01*
X0740280Y0529410D02*
X0740280Y0523410D01*
X0690280Y0523410D02*
X0690280Y0529410D01*
X0690280Y0705910D02*
X0690280Y0711910D01*
X0700280Y0711910D02*
X0700280Y0705910D01*
X0710280Y0705910D02*
X0710280Y0711910D01*
X0720280Y0711910D02*
X0720280Y0705910D01*
X0730280Y0705910D02*
X0730280Y0711910D01*
X0740280Y0711910D02*
X0740280Y0705910D01*
D38*
X0750280Y0518910D03*
X0750280Y0528910D03*
X0750280Y0548910D03*
X0750280Y0558910D03*
X0750280Y0578910D03*
X0750280Y0588910D03*
X0750280Y0608910D03*
X0750280Y0618910D03*
X0750280Y0638910D03*
X0750280Y0648910D03*
X0750280Y0668910D03*
X0750280Y0678910D03*
X0750280Y0698910D03*
X0750280Y0708910D03*
X0750280Y0728910D03*
X0750280Y0738910D03*
X0730280Y0696410D03*
X0730280Y0686410D03*
X0730280Y0676410D03*
X0730280Y0666410D03*
X0700280Y0666410D03*
X0700280Y0676410D03*
X0700280Y0686410D03*
X0700280Y0696410D03*
X0702780Y0568910D03*
X0702780Y0558910D03*
X0702780Y0548910D03*
X0702780Y0538910D03*
X0732780Y0538910D03*
X0732780Y0548910D03*
X0732780Y0558910D03*
X0732780Y0568910D03*
X1165410Y0020000D02*
G75*
%LPD*%
D25*
X1213970Y0092000D02*
X1208770Y0092000D01*
X1208770Y0102000D02*
X1213970Y0102000D01*
X1213970Y0112000D02*
X1208770Y0112000D01*
X1208770Y0122000D02*
X1213970Y0122000D01*
X1213970Y0132000D02*
X1208770Y0132000D01*
X1208770Y0142000D02*
X1213970Y0142000D01*
X1213970Y0152000D02*
X1208770Y0152000D01*
X1208770Y0162000D02*
X1213970Y0162000D01*
X1183970Y0162000D02*
X1178770Y0162000D01*
X1178770Y0152000D02*
X1183970Y0152000D01*
X1183970Y0142000D02*
X1178770Y0142000D01*
X1178770Y0132000D02*
X1183970Y0132000D01*
X1183970Y0122000D02*
X1178770Y0122000D01*
X1178770Y0112000D02*
X1183970Y0112000D01*
X1183970Y0102000D02*
X1178770Y0102000D01*
X1178770Y0092000D02*
X1183970Y0092000D01*
D92*
X1181370Y0037500D02*
X1181370Y0031500D01*
X1191370Y0031500D02*
X1191370Y0037500D01*
X1201370Y0037500D02*
X1201370Y0031500D01*
X1211370Y0031500D02*
X1211370Y0037500D01*
X1221370Y0037500D02*
X1221370Y0031500D01*
X1171370Y0031500D02*
X1171370Y0037500D01*
X1171370Y0214000D02*
X1171370Y0220000D01*
X1181370Y0220000D02*
X1181370Y0214000D01*
X1191370Y0214000D02*
X1191370Y0220000D01*
X1201370Y0220000D02*
X1201370Y0214000D01*
X1211370Y0214000D02*
X1211370Y0220000D01*
X1221370Y0220000D02*
X1221370Y0214000D01*
D38*
X1231370Y0027000D03*
X1231370Y0037000D03*
X1231370Y0057000D03*
X1231370Y0067000D03*
X1231370Y0087000D03*
X1231370Y0097000D03*
X1231370Y0117000D03*
X1231370Y0127000D03*
X1231370Y0147000D03*
X1231370Y0157000D03*
X1231370Y0177000D03*
X1231370Y0187000D03*
X1231370Y0207000D03*
X1231370Y0217000D03*
X1231370Y0237000D03*
X1231370Y0247000D03*
X1211370Y0204500D03*
X1211370Y0194500D03*
X1211370Y0184500D03*
X1211370Y0174500D03*
X1181370Y0174500D03*
X1181370Y0184500D03*
X1181370Y0194500D03*
X1181370Y0204500D03*
X1183870Y0077000D03*
X1183870Y0067000D03*
X1183870Y0057000D03*
X1183870Y0047000D03*
X1213870Y0047000D03*
X1213870Y0057000D03*
X1213870Y0067000D03*
X1213870Y0077000D03*
M02*
