G75*
G70*
%OFA0B0*%
%FSLAX25Y25*%
%IPPOS*%
%LPD*%
%AMOC8*
5,1,8,0,0,1.08239X$1,22.5*
%
%ADD34R,0.06200X0.02400*%
%ADD56C,0.00400*%
%ADD78C,0.00600*%
%ADD80C,0.00800*%
%ADD95R,0.02400X0.06200*%
X0020000Y0020000D02*
G75*
%LPD*%
D78*
X0030790Y0110600D02*
X0024390Y0110600D01*
X0024390Y0107390D01*
X0025450Y0106330D01*
X0027590Y0106330D01*
X0028660Y0107390D01*
X0028660Y0110600D01*
X0028660Y0112770D02*
X0028660Y0115980D01*
X0027590Y0117040D01*
X0026520Y0115980D01*
X0026520Y0112770D01*
X0025450Y0112770D02*
X0028660Y0112770D01*
X0028660Y0119200D02*
X0027590Y0120270D01*
X0023320Y0120270D01*
X0024390Y0121340D02*
X0024390Y0119200D01*
X0024390Y0115980D02*
X0024390Y0113840D01*
X0025450Y0112770D01*
X0025450Y0104150D02*
X0027590Y0104150D01*
X0028660Y0103080D01*
X0028660Y0100950D01*
X0026520Y0099880D02*
X0026520Y0104150D01*
X0025450Y0104150D02*
X0024390Y0103080D01*
X0024390Y0100950D01*
X0025450Y0099880D01*
X0026520Y0099880D01*
X0025450Y0123510D02*
X0025450Y0127780D01*
X0024390Y0129960D02*
X0028660Y0134230D01*
X0028660Y0136390D02*
X0028660Y0138530D01*
X0028660Y0137460D02*
X0024390Y0137460D01*
X0024390Y0138530D01*
X0024390Y0140700D02*
X0024390Y0141760D01*
X0026520Y0143900D01*
X0025450Y0146070D02*
X0028660Y0146070D01*
X0028660Y0143900D02*
X0024390Y0143900D01*
X0025450Y0146070D02*
X0024390Y0147140D01*
X0024390Y0149280D01*
X0025450Y0150340D01*
X0024390Y0152500D02*
X0024390Y0154640D01*
X0023320Y0153570D02*
X0027590Y0153570D01*
X0028660Y0152500D01*
X0028660Y0150340D02*
X0022250Y0150340D01*
X0022250Y0137460D02*
X0021180Y0137460D01*
X0024390Y0134230D02*
X0028660Y0129960D01*
X0100960Y0020000D02*
G75*
%LPD*%
D78*
X0191560Y0085170D02*
X0191560Y0091570D01*
X0188350Y0091570D01*
X0187290Y0090510D01*
X0187290Y0088370D01*
X0188350Y0087300D01*
X0191560Y0087300D01*
X0193730Y0087300D02*
X0196940Y0087300D01*
X0198000Y0088370D01*
X0196940Y0089440D01*
X0193730Y0089440D01*
X0193730Y0090510D02*
X0193730Y0087300D01*
X0200160Y0087300D02*
X0201230Y0088370D01*
X0201230Y0092640D01*
X0202300Y0091570D02*
X0200160Y0091570D01*
X0196940Y0091570D02*
X0194800Y0091570D01*
X0193730Y0090510D01*
X0185110Y0090510D02*
X0185110Y0088370D01*
X0184040Y0087300D01*
X0181910Y0087300D01*
X0180840Y0089440D02*
X0185110Y0089440D01*
X0185110Y0090510D02*
X0184040Y0091570D01*
X0181910Y0091570D01*
X0180840Y0090510D01*
X0180840Y0089440D01*
X0204470Y0090510D02*
X0208740Y0090510D01*
X0210920Y0091570D02*
X0215190Y0087300D01*
X0217350Y0087300D02*
X0219490Y0087300D01*
X0218420Y0087300D02*
X0218420Y0091570D01*
X0219490Y0091570D01*
X0221660Y0091570D02*
X0222720Y0091570D01*
X0224860Y0089440D01*
X0227030Y0090510D02*
X0227030Y0087300D01*
X0224860Y0087300D02*
X0224860Y0091570D01*
X0227030Y0090510D02*
X0228100Y0091570D01*
X0230240Y0091570D01*
X0231300Y0090510D01*
X0233460Y0091570D02*
X0235600Y0091570D01*
X0234530Y0092640D02*
X0234530Y0088370D01*
X0233460Y0087300D01*
X0231300Y0087300D02*
X0231300Y0093710D01*
X0218420Y0093710D02*
X0218420Y0094780D01*
X0215190Y0091570D02*
X0210920Y0087300D01*
X0020000Y0258210D02*
G75*
%LPD*%
D78*
X0110600Y0323380D02*
X0110600Y0329780D01*
X0107390Y0329780D01*
X0106330Y0328720D01*
X0106330Y0326580D01*
X0107390Y0325510D01*
X0110600Y0325510D01*
X0112770Y0325510D02*
X0115980Y0325510D01*
X0117040Y0326580D01*
X0115980Y0327650D01*
X0112770Y0327650D01*
X0112770Y0328720D02*
X0112770Y0325510D01*
X0119200Y0325510D02*
X0120270Y0326580D01*
X0120270Y0330850D01*
X0121340Y0329780D02*
X0119200Y0329780D01*
X0115980Y0329780D02*
X0113840Y0329780D01*
X0112770Y0328720D01*
X0104150Y0328720D02*
X0104150Y0326580D01*
X0103080Y0325510D01*
X0100950Y0325510D01*
X0099880Y0327650D02*
X0104150Y0327650D01*
X0104150Y0328720D02*
X0103080Y0329780D01*
X0100950Y0329780D01*
X0099880Y0328720D01*
X0099880Y0327650D01*
X0123510Y0328720D02*
X0127780Y0328720D01*
X0129960Y0329780D02*
X0134230Y0325510D01*
X0136390Y0325510D02*
X0138530Y0325510D01*
X0137460Y0325510D02*
X0137460Y0329780D01*
X0138530Y0329780D01*
X0140700Y0329780D02*
X0141760Y0329780D01*
X0143900Y0327650D01*
X0146070Y0328720D02*
X0146070Y0325510D01*
X0143900Y0325510D02*
X0143900Y0329780D01*
X0146070Y0328720D02*
X0147140Y0329780D01*
X0149280Y0329780D01*
X0150340Y0328720D01*
X0152500Y0329780D02*
X0154640Y0329780D01*
X0153570Y0330850D02*
X0153570Y0326580D01*
X0152500Y0325510D01*
X0150340Y0325510D02*
X0150340Y0331920D01*
X0137460Y0331920D02*
X0137460Y0332990D01*
X0134230Y0329780D02*
X0129960Y0325510D01*
X0339170Y0020000D02*
G75*
%LPD*%
X0100960Y0100960D02*
G75*
%LPD*%
D78*
X0191560Y0166130D02*
X0191560Y0172530D01*
X0188350Y0172530D01*
X0187290Y0171470D01*
X0187290Y0169330D01*
X0188350Y0168260D01*
X0191560Y0168260D01*
X0193730Y0168260D02*
X0196940Y0168260D01*
X0198000Y0169330D01*
X0196940Y0170400D01*
X0193730Y0170400D01*
X0193730Y0171470D02*
X0193730Y0168260D01*
X0200160Y0168260D02*
X0201230Y0169330D01*
X0201230Y0173600D01*
X0202300Y0172530D02*
X0200160Y0172530D01*
X0196940Y0172530D02*
X0194800Y0172530D01*
X0193730Y0171470D01*
X0185110Y0171470D02*
X0185110Y0169330D01*
X0184040Y0168260D01*
X0181910Y0168260D01*
X0180840Y0170400D02*
X0185110Y0170400D01*
X0185110Y0171470D02*
X0184040Y0172530D01*
X0181910Y0172530D01*
X0180840Y0171470D01*
X0180840Y0170400D01*
X0204470Y0171470D02*
X0208740Y0171470D01*
X0210920Y0172530D02*
X0215190Y0168260D01*
X0217350Y0168260D02*
X0219490Y0168260D01*
X0218420Y0168260D02*
X0218420Y0172530D01*
X0219490Y0172530D01*
X0221660Y0172530D02*
X0222720Y0172530D01*
X0224860Y0170400D01*
X0227030Y0171470D02*
X0227030Y0168260D01*
X0224860Y0168260D02*
X0224860Y0172530D01*
X0227030Y0171470D02*
X0228100Y0172530D01*
X0230240Y0172530D01*
X0231300Y0171470D01*
X0233460Y0172530D02*
X0235600Y0172530D01*
X0234530Y0173600D02*
X0234530Y0169330D01*
X0233460Y0168260D01*
X0231300Y0168260D02*
X0231300Y0174670D01*
X0218420Y0174670D02*
X0218420Y0175740D01*
X0215190Y0172530D02*
X0210920Y0168260D01*
X0020000Y0339170D02*
G75*
%LPD*%
D78*
X0110600Y0404340D02*
X0110600Y0410740D01*
X0107390Y0410740D01*
X0106330Y0409680D01*
X0106330Y0407540D01*
X0107390Y0406470D01*
X0110600Y0406470D01*
X0112770Y0406470D02*
X0115980Y0406470D01*
X0117040Y0407540D01*
X0115980Y0408610D01*
X0112770Y0408610D01*
X0112770Y0409680D02*
X0112770Y0406470D01*
X0119200Y0406470D02*
X0120270Y0407540D01*
X0120270Y0411810D01*
X0121340Y0410740D02*
X0119200Y0410740D01*
X0115980Y0410740D02*
X0113840Y0410740D01*
X0112770Y0409680D01*
X0104150Y0409680D02*
X0104150Y0407540D01*
X0103080Y0406470D01*
X0100950Y0406470D01*
X0099880Y0408610D02*
X0104150Y0408610D01*
X0104150Y0409680D02*
X0103080Y0410740D01*
X0100950Y0410740D01*
X0099880Y0409680D01*
X0099880Y0408610D01*
X0123510Y0409680D02*
X0127780Y0409680D01*
X0129960Y0410740D02*
X0134230Y0406470D01*
X0136390Y0406470D02*
X0138530Y0406470D01*
X0137460Y0406470D02*
X0137460Y0410740D01*
X0138530Y0410740D01*
X0140700Y0410740D02*
X0141760Y0410740D01*
X0143900Y0408610D01*
X0146070Y0409680D02*
X0146070Y0406470D01*
X0143900Y0406470D02*
X0143900Y0410740D01*
X0146070Y0409680D02*
X0147140Y0410740D01*
X0149280Y0410740D01*
X0150340Y0409680D01*
X0152500Y0410740D02*
X0154640Y0410740D01*
X0153570Y0411810D02*
X0153570Y0407540D01*
X0152500Y0406470D01*
X0150340Y0406470D02*
X0150340Y0412880D01*
X0137460Y0412880D02*
X0137460Y0413950D01*
X0134230Y0410740D02*
X0129960Y0406470D01*
X0020000Y0420130D02*
G75*
%LPD*%
D78*
X0110600Y0485300D02*
X0110600Y0491700D01*
X0107390Y0491700D01*
X0106330Y0490640D01*
X0106330Y0488500D01*
X0107390Y0487430D01*
X0110600Y0487430D01*
X0112770Y0487430D02*
X0115980Y0487430D01*
X0117040Y0488500D01*
X0115980Y0489570D01*
X0112770Y0489570D01*
X0112770Y0490640D02*
X0112770Y0487430D01*
X0119200Y0487430D02*
X0120270Y0488500D01*
X0120270Y0492770D01*
X0121340Y0491700D02*
X0119200Y0491700D01*
X0115980Y0491700D02*
X0113840Y0491700D01*
X0112770Y0490640D01*
X0104150Y0490640D02*
X0104150Y0488500D01*
X0103080Y0487430D01*
X0100950Y0487430D01*
X0099880Y0489570D02*
X0104150Y0489570D01*
X0104150Y0490640D02*
X0103080Y0491700D01*
X0100950Y0491700D01*
X0099880Y0490640D01*
X0099880Y0489570D01*
X0123510Y0490640D02*
X0127780Y0490640D01*
X0129960Y0491700D02*
X0134230Y0487430D01*
X0136390Y0487430D02*
X0138530Y0487430D01*
X0137460Y0487430D02*
X0137460Y0491700D01*
X0138530Y0491700D01*
X0140700Y0491700D02*
X0141760Y0491700D01*
X0143900Y0489570D01*
X0146070Y0490640D02*
X0146070Y0487430D01*
X0143900Y0487430D02*
X0143900Y0491700D01*
X0146070Y0490640D02*
X0147140Y0491700D01*
X0149280Y0491700D01*
X0150340Y0490640D01*
X0152500Y0491700D02*
X0154640Y0491700D01*
X0153570Y0492770D02*
X0153570Y0488500D01*
X0152500Y0487430D01*
X0150340Y0487430D02*
X0150340Y0493840D01*
X0137460Y0493840D02*
X0137460Y0494910D01*
X0134230Y0491700D02*
X0129960Y0487430D01*
X0020000Y0501090D02*
G75*
%LPD*%
D78*
X0110600Y0566260D02*
X0110600Y0572660D01*
X0107390Y0572660D01*
X0106330Y0571600D01*
X0106330Y0569460D01*
X0107390Y0568390D01*
X0110600Y0568390D01*
X0112770Y0568390D02*
X0115980Y0568390D01*
X0117040Y0569460D01*
X0115980Y0570530D01*
X0112770Y0570530D01*
X0112770Y0571600D02*
X0112770Y0568390D01*
X0119200Y0568390D02*
X0120270Y0569460D01*
X0120270Y0573730D01*
X0121340Y0572660D02*
X0119200Y0572660D01*
X0115980Y0572660D02*
X0113840Y0572660D01*
X0112770Y0571600D01*
X0104150Y0571600D02*
X0104150Y0569460D01*
X0103080Y0568390D01*
X0100950Y0568390D01*
X0099880Y0570530D02*
X0104150Y0570530D01*
X0104150Y0571600D02*
X0103080Y0572660D01*
X0100950Y0572660D01*
X0099880Y0571600D01*
X0099880Y0570530D01*
X0123510Y0571600D02*
X0127780Y0571600D01*
X0129960Y0572660D02*
X0134230Y0568390D01*
X0136390Y0568390D02*
X0138530Y0568390D01*
X0137460Y0568390D02*
X0137460Y0572660D01*
X0138530Y0572660D01*
X0140700Y0572660D02*
X0141760Y0572660D01*
X0143900Y0570530D01*
X0146070Y0571600D02*
X0146070Y0568390D01*
X0143900Y0568390D02*
X0143900Y0572660D01*
X0146070Y0571600D02*
X0147140Y0572660D01*
X0149280Y0572660D01*
X0150340Y0571600D01*
X0152500Y0572660D02*
X0154640Y0572660D01*
X0153570Y0573730D02*
X0153570Y0569460D01*
X0152500Y0568390D01*
X0150340Y0568390D02*
X0150340Y0574800D01*
X0137460Y0574800D02*
X0137460Y0575870D01*
X0134230Y0572660D02*
X0129960Y0568390D01*
X0020000Y0582050D02*
G75*
%LPD*%
D78*
X0110600Y0647220D02*
X0110600Y0653620D01*
X0107390Y0653620D01*
X0106330Y0652560D01*
X0106330Y0650420D01*
X0107390Y0649350D01*
X0110600Y0649350D01*
X0112770Y0649350D02*
X0115980Y0649350D01*
X0117040Y0650420D01*
X0115980Y0651490D01*
X0112770Y0651490D01*
X0112770Y0652560D02*
X0112770Y0649350D01*
X0119200Y0649350D02*
X0120270Y0650420D01*
X0120270Y0654690D01*
X0121340Y0653620D02*
X0119200Y0653620D01*
X0115980Y0653620D02*
X0113840Y0653620D01*
X0112770Y0652560D01*
X0104150Y0652560D02*
X0104150Y0650420D01*
X0103080Y0649350D01*
X0100950Y0649350D01*
X0099880Y0651490D02*
X0104150Y0651490D01*
X0104150Y0652560D02*
X0103080Y0653620D01*
X0100950Y0653620D01*
X0099880Y0652560D01*
X0099880Y0651490D01*
X0123510Y0652560D02*
X0127780Y0652560D01*
X0129960Y0653620D02*
X0134230Y0649350D01*
X0136390Y0649350D02*
X0138530Y0649350D01*
X0137460Y0649350D02*
X0137460Y0653620D01*
X0138530Y0653620D01*
X0140700Y0653620D02*
X0141760Y0653620D01*
X0143900Y0651490D01*
X0146070Y0652560D02*
X0146070Y0649350D01*
X0143900Y0649350D02*
X0143900Y0653620D01*
X0146070Y0652560D02*
X0147140Y0653620D01*
X0149280Y0653620D01*
X0150340Y0652560D01*
X0152500Y0653620D02*
X0154640Y0653620D01*
X0153570Y0654690D02*
X0153570Y0650420D01*
X0152500Y0649350D01*
X0150340Y0649350D02*
X0150340Y0655760D01*
X0137460Y0655760D02*
X0137460Y0656830D01*
X0134230Y0653620D02*
X0129960Y0649350D01*
X0559130Y0020000D02*
G75*
%LPD*%
X0779090Y0020000D02*
G75*
%LPD*%
D56*
X0941780Y0123720D02*
X0944840Y0126790D01*
X0945610Y0126790D01*
X0945610Y0128330D02*
X0945610Y0131400D01*
X0945610Y0129860D02*
X0941010Y0129860D01*
X0942540Y0131400D01*
X0941780Y0132930D02*
X0941010Y0133700D01*
X0941010Y0135230D01*
X0941780Y0136000D01*
X0944840Y0136000D01*
X0945610Y0135230D01*
X0945610Y0133700D01*
X0944840Y0132930D01*
X0941010Y0126790D02*
X0941010Y0123720D01*
X0941780Y0123720D01*
X0933940Y0244100D02*
X0933940Y0247170D01*
X0933940Y0245640D02*
X0929340Y0245640D01*
X0930870Y0247170D01*
X0929340Y0250240D02*
X0933940Y0250240D01*
X0933940Y0248710D02*
X0933940Y0251780D01*
X0933180Y0253310D02*
X0933940Y0254080D01*
X0933940Y0255610D01*
X0933180Y0256380D01*
X0930110Y0256380D01*
X0929340Y0255610D01*
X0929340Y0254080D01*
X0930110Y0253310D01*
X0930870Y0251780D02*
X0929340Y0250240D01*
X0843810Y0122610D02*
X0839210Y0122610D01*
X0839210Y0120310D01*
X0839980Y0119540D01*
X0841510Y0119540D01*
X0842280Y0120310D01*
X0842280Y0122610D01*
X0842280Y0121070D02*
X0843810Y0119540D01*
X0843040Y0118000D02*
X0843810Y0117240D01*
X0843810Y0115700D01*
X0843040Y0114940D01*
X0842280Y0114940D01*
X0841510Y0115700D01*
X0841510Y0118000D01*
X0843040Y0118000D01*
X0841510Y0118000D02*
X0839980Y0116470D01*
X0839210Y0114940D01*
X0829310Y0115240D02*
X0828540Y0116000D01*
X0829310Y0115240D02*
X0829310Y0113700D01*
X0828540Y0112940D01*
X0827780Y0112940D01*
X0827010Y0113700D01*
X0827010Y0114470D01*
X0827010Y0113700D02*
X0826240Y0112940D01*
X0825480Y0112940D01*
X0824710Y0113700D01*
X0824710Y0115240D01*
X0825480Y0116000D01*
X0824710Y0119070D02*
X0829310Y0119070D01*
X0829310Y0117540D02*
X0829310Y0120610D01*
X0829310Y0122140D02*
X0827780Y0123680D01*
X0827780Y0122910D02*
X0827780Y0125210D01*
X0829310Y0125210D02*
X0824710Y0125210D01*
X0824710Y0122910D01*
X0825480Y0122140D01*
X0827010Y0122140D01*
X0827780Y0122910D01*
X0826240Y0120610D02*
X0824710Y0119070D01*
X0823820Y0070000D02*
X0821520Y0070000D01*
X0820750Y0069240D01*
X0820750Y0066170D01*
X0821520Y0065400D01*
X0823820Y0065400D01*
X0823820Y0070000D01*
X0819220Y0069240D02*
X0818450Y0070000D01*
X0816910Y0070000D01*
X0816150Y0069240D01*
X0816150Y0068470D01*
X0816910Y0067700D01*
X0816150Y0066930D01*
X0816150Y0066170D01*
X0816910Y0065400D01*
X0818450Y0065400D01*
X0819220Y0066170D01*
X0817680Y0067700D02*
X0816910Y0067700D01*
X0815110Y0030210D02*
X0810510Y0030210D01*
X0810510Y0027910D01*
X0811280Y0027140D01*
X0812810Y0027140D01*
X0813580Y0027910D01*
X0813580Y0030210D01*
X0813580Y0028670D02*
X0815110Y0027140D01*
X0814340Y0025600D02*
X0815110Y0024840D01*
X0815110Y0023300D01*
X0814340Y0022540D01*
X0812810Y0022540D01*
X0812040Y0023300D01*
X0812040Y0024070D01*
X0812810Y0025600D01*
X0810510Y0025600D01*
X0810510Y0022540D01*
X0788610Y0065400D02*
X0786310Y0065400D01*
X0785540Y0066170D01*
X0785540Y0069240D01*
X0786310Y0070000D01*
X0788610Y0070000D01*
X0788610Y0065400D01*
X0784010Y0065400D02*
X0780940Y0068470D01*
X0780940Y0069240D01*
X0781710Y0070000D01*
X0783240Y0070000D01*
X0784010Y0069240D01*
X0784010Y0065400D02*
X0780940Y0065400D01*
D95*
X0792010Y0060700D03*
X0812610Y0060700D03*
D80*
X0813340Y0060700D02*
X0817280Y0063060D01*
X0817280Y0058340D01*
X0813340Y0060700D01*
X0791280Y0060700D02*
X0787340Y0058340D01*
X0787340Y0063060D01*
X0791280Y0060700D01*
X1003490Y0020000D02*
G75*
%LPD*%
D78*
X1014280Y0110600D02*
X1007880Y0110600D01*
X1007880Y0107390D01*
X1008940Y0106330D01*
X1011080Y0106330D01*
X1012150Y0107390D01*
X1012150Y0110600D01*
X1012150Y0112770D02*
X1012150Y0115980D01*
X1011080Y0117040D01*
X1010010Y0115980D01*
X1010010Y0112770D01*
X1008940Y0112770D02*
X1012150Y0112770D01*
X1012150Y0119200D02*
X1011080Y0120270D01*
X1006810Y0120270D01*
X1007880Y0121340D02*
X1007880Y0119200D01*
X1007880Y0115980D02*
X1007880Y0113840D01*
X1008940Y0112770D01*
X1008940Y0104150D02*
X1011080Y0104150D01*
X1012150Y0103080D01*
X1012150Y0100950D01*
X1010010Y0099880D02*
X1010010Y0104150D01*
X1008940Y0104150D02*
X1007880Y0103080D01*
X1007880Y0100950D01*
X1008940Y0099880D01*
X1010010Y0099880D01*
X1008940Y0123510D02*
X1008940Y0127780D01*
X1007880Y0129960D02*
X1012150Y0134230D01*
X1012150Y0136390D02*
X1012150Y0138530D01*
X1012150Y0137460D02*
X1007880Y0137460D01*
X1007880Y0138530D01*
X1007880Y0140700D02*
X1007880Y0141760D01*
X1010010Y0143900D01*
X1008940Y0146070D02*
X1012150Y0146070D01*
X1012150Y0143900D02*
X1007880Y0143900D01*
X1008940Y0146070D02*
X1007880Y0147140D01*
X1007880Y0149280D01*
X1008940Y0150340D01*
X1007880Y0152500D02*
X1007880Y0154640D01*
X1006810Y0153570D02*
X1011080Y0153570D01*
X1012150Y0152500D01*
X1012150Y0150340D02*
X1005740Y0150340D01*
X1005740Y0137460D02*
X1004670Y0137460D01*
X1007880Y0134230D02*
X1012150Y0129960D01*
X1003490Y0258210D02*
G75*
%LPD*%
D78*
X1094090Y0323380D02*
X1094090Y0329780D01*
X1090880Y0329780D01*
X1089820Y0328720D01*
X1089820Y0326580D01*
X1090880Y0325510D01*
X1094090Y0325510D01*
X1096260Y0325510D02*
X1099470Y0325510D01*
X1100530Y0326580D01*
X1099470Y0327650D01*
X1096260Y0327650D01*
X1096260Y0328720D02*
X1096260Y0325510D01*
X1102690Y0325510D02*
X1103760Y0326580D01*
X1103760Y0330850D01*
X1104830Y0329780D02*
X1102690Y0329780D01*
X1099470Y0329780D02*
X1097330Y0329780D01*
X1096260Y0328720D01*
X1087640Y0328720D02*
X1087640Y0326580D01*
X1086570Y0325510D01*
X1084440Y0325510D01*
X1083370Y0327650D02*
X1087640Y0327650D01*
X1087640Y0328720D02*
X1086570Y0329780D01*
X1084440Y0329780D01*
X1083370Y0328720D01*
X1083370Y0327650D01*
X1107000Y0328720D02*
X1111270Y0328720D01*
X1113450Y0329780D02*
X1117720Y0325510D01*
X1119880Y0325510D02*
X1122020Y0325510D01*
X1120950Y0325510D02*
X1120950Y0329780D01*
X1122020Y0329780D01*
X1124190Y0329780D02*
X1125250Y0329780D01*
X1127390Y0327650D01*
X1129560Y0328720D02*
X1129560Y0325510D01*
X1127390Y0325510D02*
X1127390Y0329780D01*
X1129560Y0328720D02*
X1130630Y0329780D01*
X1132770Y0329780D01*
X1133830Y0328720D01*
X1135990Y0329780D02*
X1138130Y0329780D01*
X1137060Y0330850D02*
X1137060Y0326580D01*
X1135990Y0325510D01*
X1133830Y0325510D02*
X1133830Y0331920D01*
X1120950Y0331920D02*
X1120950Y0332990D01*
X1117720Y0329780D02*
X1113450Y0325510D01*
X0020000Y0663010D02*
G75*
%LPD*%
D78*
X0110600Y0728180D02*
X0110600Y0734580D01*
X0107390Y0734580D01*
X0106330Y0733520D01*
X0106330Y0731380D01*
X0107390Y0730310D01*
X0110600Y0730310D01*
X0112770Y0730310D02*
X0115980Y0730310D01*
X0117040Y0731380D01*
X0115980Y0732450D01*
X0112770Y0732450D01*
X0112770Y0733520D02*
X0112770Y0730310D01*
X0119200Y0730310D02*
X0120270Y0731380D01*
X0120270Y0735650D01*
X0121340Y0734580D02*
X0119200Y0734580D01*
X0115980Y0734580D02*
X0113840Y0734580D01*
X0112770Y0733520D01*
X0104150Y0733520D02*
X0104150Y0731380D01*
X0103080Y0730310D01*
X0100950Y0730310D01*
X0099880Y0732450D02*
X0104150Y0732450D01*
X0104150Y0733520D02*
X0103080Y0734580D01*
X0100950Y0734580D01*
X0099880Y0733520D01*
X0099880Y0732450D01*
X0123510Y0733520D02*
X0127780Y0733520D01*
X0129960Y0734580D02*
X0134230Y0730310D01*
X0136390Y0730310D02*
X0138530Y0730310D01*
X0137460Y0730310D02*
X0137460Y0734580D01*
X0138530Y0734580D01*
X0140700Y0734580D02*
X0141760Y0734580D01*
X0143900Y0732450D01*
X0146070Y0733520D02*
X0146070Y0730310D01*
X0143900Y0730310D02*
X0143900Y0734580D01*
X0146070Y0733520D02*
X0147140Y0734580D01*
X0149280Y0734580D01*
X0150340Y0733520D01*
X0152500Y0734580D02*
X0154640Y0734580D01*
X0153570Y0735650D02*
X0153570Y0731380D01*
X0152500Y0730310D01*
X0150340Y0730310D02*
X0150340Y0736720D01*
X0137460Y0736720D02*
X0137460Y0737790D01*
X0134230Y0734580D02*
X0129960Y0730310D01*
X0765280Y0337840D02*
G75*
%LPD*%
D78*
X0855880Y0403010D02*
X0855880Y0409410D01*
X0852670Y0409410D01*
X0851610Y0408350D01*
X0851610Y0406210D01*
X0852670Y0405140D01*
X0855880Y0405140D01*
X0858050Y0405140D02*
X0861260Y0405140D01*
X0862320Y0406210D01*
X0861260Y0407280D01*
X0858050Y0407280D01*
X0858050Y0408350D02*
X0858050Y0405140D01*
X0864480Y0405140D02*
X0865550Y0406210D01*
X0865550Y0410480D01*
X0866620Y0409410D02*
X0864480Y0409410D01*
X0861260Y0409410D02*
X0859120Y0409410D01*
X0858050Y0408350D01*
X0849430Y0408350D02*
X0849430Y0406210D01*
X0848360Y0405140D01*
X0846230Y0405140D01*
X0845160Y0407280D02*
X0849430Y0407280D01*
X0849430Y0408350D02*
X0848360Y0409410D01*
X0846230Y0409410D01*
X0845160Y0408350D01*
X0845160Y0407280D01*
X0868790Y0408350D02*
X0873060Y0408350D01*
X0875240Y0409410D02*
X0879510Y0405140D01*
X0881670Y0405140D02*
X0883810Y0405140D01*
X0882740Y0405140D02*
X0882740Y0409410D01*
X0883810Y0409410D01*
X0885980Y0409410D02*
X0887040Y0409410D01*
X0889180Y0407280D01*
X0891350Y0408350D02*
X0891350Y0405140D01*
X0889180Y0405140D02*
X0889180Y0409410D01*
X0891350Y0408350D02*
X0892420Y0409410D01*
X0894560Y0409410D01*
X0895620Y0408350D01*
X0897780Y0409410D02*
X0899920Y0409410D01*
X0898850Y0410480D02*
X0898850Y0406210D01*
X0897780Y0405140D01*
X0895620Y0405140D02*
X0895620Y0411550D01*
X0882740Y0411550D02*
X0882740Y0412620D01*
X0879510Y0409410D02*
X0875240Y0405140D01*
X1003490Y0339170D02*
G75*
%LPD*%
X0684320Y0273700D02*
G75*
%LPD*%
D78*
X0695110Y0364300D02*
X0688710Y0364300D01*
X0688710Y0361090D01*
X0689770Y0360030D01*
X0691910Y0360030D01*
X0692980Y0361090D01*
X0692980Y0364300D01*
X0692980Y0366470D02*
X0692980Y0369680D01*
X0691910Y0370740D01*
X0690840Y0369680D01*
X0690840Y0366470D01*
X0689770Y0366470D02*
X0692980Y0366470D01*
X0692980Y0372900D02*
X0691910Y0373970D01*
X0687640Y0373970D01*
X0688710Y0375040D02*
X0688710Y0372900D01*
X0688710Y0369680D02*
X0688710Y0367540D01*
X0689770Y0366470D01*
X0689770Y0357850D02*
X0691910Y0357850D01*
X0692980Y0356780D01*
X0692980Y0354650D01*
X0690840Y0353580D02*
X0690840Y0357850D01*
X0689770Y0357850D02*
X0688710Y0356780D01*
X0688710Y0354650D01*
X0689770Y0353580D01*
X0690840Y0353580D01*
X0689770Y0377210D02*
X0689770Y0381480D01*
X0688710Y0383660D02*
X0692980Y0387930D01*
X0692980Y0390090D02*
X0692980Y0392230D01*
X0692980Y0391160D02*
X0688710Y0391160D01*
X0688710Y0392230D01*
X0688710Y0394400D02*
X0688710Y0395460D01*
X0690840Y0397600D01*
X0689770Y0399770D02*
X0692980Y0399770D01*
X0692980Y0397600D02*
X0688710Y0397600D01*
X0689770Y0399770D02*
X0688710Y0400840D01*
X0688710Y0402980D01*
X0689770Y0404040D01*
X0688710Y0406200D02*
X0688710Y0408340D01*
X0687640Y0407270D02*
X0691910Y0407270D01*
X0692980Y0406200D01*
X0692980Y0404040D02*
X0686570Y0404040D01*
X0686570Y0391160D02*
X0685500Y0391160D01*
X0688710Y0387930D02*
X0692980Y0383660D01*
X0258210Y0181920D02*
G75*
%LPD*%
D78*
X0269000Y0272520D02*
X0262600Y0272520D01*
X0262600Y0269310D01*
X0263660Y0268250D01*
X0265800Y0268250D01*
X0266870Y0269310D01*
X0266870Y0272520D01*
X0266870Y0274690D02*
X0266870Y0277900D01*
X0265800Y0278960D01*
X0264730Y0277900D01*
X0264730Y0274690D01*
X0263660Y0274690D02*
X0266870Y0274690D01*
X0266870Y0281120D02*
X0265800Y0282190D01*
X0261530Y0282190D01*
X0262600Y0283260D02*
X0262600Y0281120D01*
X0262600Y0277900D02*
X0262600Y0275760D01*
X0263660Y0274690D01*
X0263660Y0266070D02*
X0265800Y0266070D01*
X0266870Y0265000D01*
X0266870Y0262870D01*
X0264730Y0261800D02*
X0264730Y0266070D01*
X0263660Y0266070D02*
X0262600Y0265000D01*
X0262600Y0262870D01*
X0263660Y0261800D01*
X0264730Y0261800D01*
X0263660Y0285430D02*
X0263660Y0289700D01*
X0262600Y0291880D02*
X0266870Y0296150D01*
X0266870Y0298310D02*
X0266870Y0300450D01*
X0266870Y0299380D02*
X0262600Y0299380D01*
X0262600Y0300450D01*
X0262600Y0302620D02*
X0262600Y0303680D01*
X0264730Y0305820D01*
X0263660Y0307990D02*
X0266870Y0307990D01*
X0266870Y0305820D02*
X0262600Y0305820D01*
X0263660Y0307990D02*
X0262600Y0309060D01*
X0262600Y0311200D01*
X0263660Y0312260D01*
X0262600Y0314420D02*
X0262600Y0316560D01*
X0261530Y0315490D02*
X0265800Y0315490D01*
X0266870Y0314420D01*
X0266870Y0312260D02*
X0260460Y0312260D01*
X0260460Y0299380D02*
X0259390Y0299380D01*
X0262600Y0296150D02*
X0266870Y0291880D01*
X0339170Y0273700D02*
G75*
%LPD*%
D56*
X0442890Y0330410D02*
X0445960Y0327350D01*
X0445960Y0326580D01*
X0447500Y0326580D02*
X0450570Y0326580D01*
X0449030Y0326580D02*
X0449030Y0331180D01*
X0450570Y0329650D01*
X0452100Y0330410D02*
X0452870Y0331180D01*
X0454400Y0331180D01*
X0455170Y0330410D01*
X0455170Y0327350D01*
X0454400Y0326580D01*
X0452870Y0326580D01*
X0452100Y0327350D01*
X0445960Y0331180D02*
X0442890Y0331180D01*
X0442890Y0330410D01*
X0563270Y0338250D02*
X0566340Y0338250D01*
X0564810Y0338250D02*
X0564810Y0342850D01*
X0566340Y0341320D01*
X0569410Y0342850D02*
X0569410Y0338250D01*
X0567880Y0338250D02*
X0570950Y0338250D01*
X0572480Y0339010D02*
X0573250Y0338250D01*
X0574780Y0338250D01*
X0575550Y0339010D01*
X0575550Y0342080D01*
X0574780Y0342850D01*
X0573250Y0342850D01*
X0572480Y0342080D01*
X0570950Y0341320D02*
X0569410Y0342850D01*
X0441780Y0428380D02*
X0441780Y0432980D01*
X0439480Y0432980D01*
X0438710Y0432210D01*
X0438710Y0430680D01*
X0439480Y0429910D01*
X0441780Y0429910D01*
X0440240Y0429910D02*
X0438710Y0428380D01*
X0437170Y0429150D02*
X0436410Y0428380D01*
X0434870Y0428380D01*
X0434110Y0429150D01*
X0434110Y0429910D01*
X0434870Y0430680D01*
X0437170Y0430680D01*
X0437170Y0429150D01*
X0437170Y0430680D02*
X0435640Y0432210D01*
X0434110Y0432980D01*
X0434410Y0442880D02*
X0435170Y0443650D01*
X0434410Y0442880D02*
X0432870Y0442880D01*
X0432110Y0443650D01*
X0432110Y0444410D01*
X0432870Y0445180D01*
X0433640Y0445180D01*
X0432870Y0445180D02*
X0432110Y0445950D01*
X0432110Y0446710D01*
X0432870Y0447480D01*
X0434410Y0447480D01*
X0435170Y0446710D01*
X0438240Y0447480D02*
X0438240Y0442880D01*
X0436710Y0442880D02*
X0439780Y0442880D01*
X0441310Y0442880D02*
X0442850Y0444410D01*
X0442080Y0444410D02*
X0444380Y0444410D01*
X0444380Y0442880D02*
X0444380Y0447480D01*
X0442080Y0447480D01*
X0441310Y0446710D01*
X0441310Y0445180D01*
X0442080Y0444410D01*
X0439780Y0445950D02*
X0438240Y0447480D01*
X0389170Y0448370D02*
X0389170Y0450670D01*
X0388410Y0451440D01*
X0385340Y0451440D01*
X0384570Y0450670D01*
X0384570Y0448370D01*
X0389170Y0448370D01*
X0388410Y0452970D02*
X0389170Y0453740D01*
X0389170Y0455280D01*
X0388410Y0456040D01*
X0387640Y0456040D01*
X0386870Y0455280D01*
X0386100Y0456040D01*
X0385340Y0456040D01*
X0384570Y0455280D01*
X0384570Y0453740D01*
X0385340Y0452970D01*
X0386870Y0454510D02*
X0386870Y0455280D01*
X0349380Y0457080D02*
X0349380Y0461680D01*
X0347080Y0461680D01*
X0346310Y0460910D01*
X0346310Y0459380D01*
X0347080Y0458610D01*
X0349380Y0458610D01*
X0347840Y0458610D02*
X0346310Y0457080D01*
X0344770Y0457850D02*
X0344010Y0457080D01*
X0342470Y0457080D01*
X0341710Y0457850D01*
X0341710Y0459380D01*
X0342470Y0460150D01*
X0343240Y0460150D01*
X0344770Y0459380D01*
X0344770Y0461680D01*
X0341710Y0461680D01*
X0384570Y0483580D02*
X0384570Y0485880D01*
X0385340Y0486650D01*
X0388410Y0486650D01*
X0389170Y0485880D01*
X0389170Y0483580D01*
X0384570Y0483580D01*
X0384570Y0488180D02*
X0387640Y0491250D01*
X0388410Y0491250D01*
X0389170Y0490480D01*
X0389170Y0488950D01*
X0388410Y0488180D01*
X0384570Y0488180D02*
X0384570Y0491250D01*
D34*
X0379870Y0480180D03*
X0379870Y0459580D03*
D80*
X0379870Y0458850D02*
X0382230Y0454910D01*
X0377510Y0454910D01*
X0379870Y0458850D01*
X0379870Y0480910D02*
X0377510Y0484850D01*
X0382230Y0484850D01*
X0379870Y0480910D01*
X0765280Y0418800D02*
G75*
%LPD*%
D78*
X0855880Y0483970D02*
X0855880Y0490370D01*
X0852670Y0490370D01*
X0851610Y0489310D01*
X0851610Y0487170D01*
X0852670Y0486100D01*
X0855880Y0486100D01*
X0858050Y0486100D02*
X0861260Y0486100D01*
X0862320Y0487170D01*
X0861260Y0488240D01*
X0858050Y0488240D01*
X0858050Y0489310D02*
X0858050Y0486100D01*
X0864480Y0486100D02*
X0865550Y0487170D01*
X0865550Y0491440D01*
X0866620Y0490370D02*
X0864480Y0490370D01*
X0861260Y0490370D02*
X0859120Y0490370D01*
X0858050Y0489310D01*
X0849430Y0489310D02*
X0849430Y0487170D01*
X0848360Y0486100D01*
X0846230Y0486100D01*
X0845160Y0488240D02*
X0849430Y0488240D01*
X0849430Y0489310D02*
X0848360Y0490370D01*
X0846230Y0490370D01*
X0845160Y0489310D01*
X0845160Y0488240D01*
X0868790Y0489310D02*
X0873060Y0489310D01*
X0875240Y0490370D02*
X0879510Y0486100D01*
X0881670Y0486100D02*
X0883810Y0486100D01*
X0882740Y0486100D02*
X0882740Y0490370D01*
X0883810Y0490370D01*
X0885980Y0490370D02*
X0887040Y0490370D01*
X0889180Y0488240D01*
X0891350Y0489310D02*
X0891350Y0486100D01*
X0889180Y0486100D02*
X0889180Y0490370D01*
X0891350Y0489310D02*
X0892420Y0490370D01*
X0894560Y0490370D01*
X0895620Y0489310D01*
X0897780Y0490370D02*
X0899920Y0490370D01*
X0898850Y0491440D02*
X0898850Y0487170D01*
X0897780Y0486100D01*
X0895620Y0486100D02*
X0895620Y0492510D01*
X0882740Y0492510D02*
X0882740Y0493580D01*
X0879510Y0490370D02*
X0875240Y0486100D01*
X0765280Y0499760D02*
G75*
%LPD*%
D78*
X0855880Y0564930D02*
X0855880Y0571330D01*
X0852670Y0571330D01*
X0851610Y0570270D01*
X0851610Y0568130D01*
X0852670Y0567060D01*
X0855880Y0567060D01*
X0858050Y0567060D02*
X0861260Y0567060D01*
X0862320Y0568130D01*
X0861260Y0569200D01*
X0858050Y0569200D01*
X0858050Y0570270D02*
X0858050Y0567060D01*
X0864480Y0567060D02*
X0865550Y0568130D01*
X0865550Y0572400D01*
X0866620Y0571330D02*
X0864480Y0571330D01*
X0861260Y0571330D02*
X0859120Y0571330D01*
X0858050Y0570270D01*
X0849430Y0570270D02*
X0849430Y0568130D01*
X0848360Y0567060D01*
X0846230Y0567060D01*
X0845160Y0569200D02*
X0849430Y0569200D01*
X0849430Y0570270D02*
X0848360Y0571330D01*
X0846230Y0571330D01*
X0845160Y0570270D01*
X0845160Y0569200D01*
X0868790Y0570270D02*
X0873060Y0570270D01*
X0875240Y0571330D02*
X0879510Y0567060D01*
X0881670Y0567060D02*
X0883810Y0567060D01*
X0882740Y0567060D02*
X0882740Y0571330D01*
X0883810Y0571330D01*
X0885980Y0571330D02*
X0887040Y0571330D01*
X0889180Y0569200D01*
X0891350Y0570270D02*
X0891350Y0567060D01*
X0889180Y0567060D02*
X0889180Y0571330D01*
X0891350Y0570270D02*
X0892420Y0571330D01*
X0894560Y0571330D01*
X0895620Y0570270D01*
X0897780Y0571330D02*
X0899920Y0571330D01*
X0898850Y0572400D02*
X0898850Y0568130D01*
X0897780Y0567060D01*
X0895620Y0567060D02*
X0895620Y0573470D01*
X0882740Y0573470D02*
X0882740Y0574540D01*
X0879510Y0571330D02*
X0875240Y0567060D01*
X0258210Y0420130D02*
G75*
%LPD*%
D78*
X0269000Y0510730D02*
X0262600Y0510730D01*
X0262600Y0507520D01*
X0263660Y0506460D01*
X0265800Y0506460D01*
X0266870Y0507520D01*
X0266870Y0510730D01*
X0266870Y0512900D02*
X0266870Y0516110D01*
X0265800Y0517170D01*
X0264730Y0516110D01*
X0264730Y0512900D01*
X0263660Y0512900D02*
X0266870Y0512900D01*
X0266870Y0519330D02*
X0265800Y0520400D01*
X0261530Y0520400D01*
X0262600Y0521470D02*
X0262600Y0519330D01*
X0262600Y0516110D02*
X0262600Y0513970D01*
X0263660Y0512900D01*
X0263660Y0504280D02*
X0265800Y0504280D01*
X0266870Y0503210D01*
X0266870Y0501080D01*
X0264730Y0500010D02*
X0264730Y0504280D01*
X0263660Y0504280D02*
X0262600Y0503210D01*
X0262600Y0501080D01*
X0263660Y0500010D01*
X0264730Y0500010D01*
X0263660Y0523640D02*
X0263660Y0527910D01*
X0262600Y0530090D02*
X0266870Y0534360D01*
X0266870Y0536520D02*
X0266870Y0538660D01*
X0266870Y0537590D02*
X0262600Y0537590D01*
X0262600Y0538660D01*
X0262600Y0540830D02*
X0262600Y0541890D01*
X0264730Y0544030D01*
X0263660Y0546200D02*
X0266870Y0546200D01*
X0266870Y0544030D02*
X0262600Y0544030D01*
X0263660Y0546200D02*
X0262600Y0547270D01*
X0262600Y0549410D01*
X0263660Y0550470D01*
X0262600Y0552630D02*
X0262600Y0554770D01*
X0261530Y0553700D02*
X0265800Y0553700D01*
X0266870Y0552630D01*
X0266870Y0550470D02*
X0260460Y0550470D01*
X0260460Y0537590D02*
X0259390Y0537590D01*
X0262600Y0534360D02*
X0266870Y0530090D01*
X0339170Y0498100D02*
G75*
%LPD*%
D78*
X0429770Y0563270D02*
X0429770Y0569670D01*
X0426560Y0569670D01*
X0425500Y0568610D01*
X0425500Y0566470D01*
X0426560Y0565400D01*
X0429770Y0565400D01*
X0431940Y0565400D02*
X0435150Y0565400D01*
X0436210Y0566470D01*
X0435150Y0567540D01*
X0431940Y0567540D01*
X0431940Y0568610D02*
X0431940Y0565400D01*
X0438370Y0565400D02*
X0439440Y0566470D01*
X0439440Y0570740D01*
X0440510Y0569670D02*
X0438370Y0569670D01*
X0435150Y0569670D02*
X0433010Y0569670D01*
X0431940Y0568610D01*
X0423320Y0568610D02*
X0423320Y0566470D01*
X0422250Y0565400D01*
X0420120Y0565400D01*
X0419050Y0567540D02*
X0423320Y0567540D01*
X0423320Y0568610D02*
X0422250Y0569670D01*
X0420120Y0569670D01*
X0419050Y0568610D01*
X0419050Y0567540D01*
X0442680Y0568610D02*
X0446950Y0568610D01*
X0449130Y0569670D02*
X0453400Y0565400D01*
X0455560Y0565400D02*
X0457700Y0565400D01*
X0456630Y0565400D02*
X0456630Y0569670D01*
X0457700Y0569670D01*
X0459870Y0569670D02*
X0460930Y0569670D01*
X0463070Y0567540D01*
X0465240Y0568610D02*
X0465240Y0565400D01*
X0463070Y0565400D02*
X0463070Y0569670D01*
X0465240Y0568610D02*
X0466310Y0569670D01*
X0468450Y0569670D01*
X0469510Y0568610D01*
X0471670Y0569670D02*
X0473810Y0569670D01*
X0472740Y0570740D02*
X0472740Y0566470D01*
X0471670Y0565400D01*
X0469510Y0565400D02*
X0469510Y0571810D01*
X0456630Y0571810D02*
X0456630Y0572880D01*
X0453400Y0569670D02*
X0449130Y0565400D01*
X0765280Y0580720D02*
G75*
%LPD*%
D78*
X0855880Y0645890D02*
X0855880Y0652290D01*
X0852670Y0652290D01*
X0851610Y0651230D01*
X0851610Y0649090D01*
X0852670Y0648020D01*
X0855880Y0648020D01*
X0858050Y0648020D02*
X0861260Y0648020D01*
X0862320Y0649090D01*
X0861260Y0650160D01*
X0858050Y0650160D01*
X0858050Y0651230D02*
X0858050Y0648020D01*
X0864480Y0648020D02*
X0865550Y0649090D01*
X0865550Y0653360D01*
X0866620Y0652290D02*
X0864480Y0652290D01*
X0861260Y0652290D02*
X0859120Y0652290D01*
X0858050Y0651230D01*
X0849430Y0651230D02*
X0849430Y0649090D01*
X0848360Y0648020D01*
X0846230Y0648020D01*
X0845160Y0650160D02*
X0849430Y0650160D01*
X0849430Y0651230D02*
X0848360Y0652290D01*
X0846230Y0652290D01*
X0845160Y0651230D01*
X0845160Y0650160D01*
X0868790Y0651230D02*
X0873060Y0651230D01*
X0875240Y0652290D02*
X0879510Y0648020D01*
X0881670Y0648020D02*
X0883810Y0648020D01*
X0882740Y0648020D02*
X0882740Y0652290D01*
X0883810Y0652290D01*
X0885980Y0652290D02*
X0887040Y0652290D01*
X0889180Y0650160D01*
X0891350Y0651230D02*
X0891350Y0648020D01*
X0889180Y0648020D02*
X0889180Y0652290D01*
X0891350Y0651230D02*
X0892420Y0652290D01*
X0894560Y0652290D01*
X0895620Y0651230D01*
X0897780Y0652290D02*
X0899920Y0652290D01*
X0898850Y0653360D02*
X0898850Y0649090D01*
X0897780Y0648020D01*
X0895620Y0648020D02*
X0895620Y0654430D01*
X0882740Y0654430D02*
X0882740Y0655500D01*
X0879510Y0652290D02*
X0875240Y0648020D01*
X0339170Y0579060D02*
G75*
%LPD*%
D78*
X0429770Y0644230D02*
X0429770Y0650630D01*
X0426560Y0650630D01*
X0425500Y0649570D01*
X0425500Y0647430D01*
X0426560Y0646360D01*
X0429770Y0646360D01*
X0431940Y0646360D02*
X0435150Y0646360D01*
X0436210Y0647430D01*
X0435150Y0648500D01*
X0431940Y0648500D01*
X0431940Y0649570D02*
X0431940Y0646360D01*
X0438370Y0646360D02*
X0439440Y0647430D01*
X0439440Y0651700D01*
X0440510Y0650630D02*
X0438370Y0650630D01*
X0435150Y0650630D02*
X0433010Y0650630D01*
X0431940Y0649570D01*
X0423320Y0649570D02*
X0423320Y0647430D01*
X0422250Y0646360D01*
X0420120Y0646360D01*
X0419050Y0648500D02*
X0423320Y0648500D01*
X0423320Y0649570D02*
X0422250Y0650630D01*
X0420120Y0650630D01*
X0419050Y0649570D01*
X0419050Y0648500D01*
X0442680Y0649570D02*
X0446950Y0649570D01*
X0449130Y0650630D02*
X0453400Y0646360D01*
X0455560Y0646360D02*
X0457700Y0646360D01*
X0456630Y0646360D02*
X0456630Y0650630D01*
X0457700Y0650630D01*
X0459870Y0650630D02*
X0460930Y0650630D01*
X0463070Y0648500D01*
X0465240Y0649570D02*
X0465240Y0646360D01*
X0463070Y0646360D02*
X0463070Y0650630D01*
X0465240Y0649570D02*
X0466310Y0650630D01*
X0468450Y0650630D01*
X0469510Y0649570D01*
X0471670Y0650630D02*
X0473810Y0650630D01*
X0472740Y0651700D02*
X0472740Y0647430D01*
X0471670Y0646360D01*
X0469510Y0646360D02*
X0469510Y0652770D01*
X0456630Y0652770D02*
X0456630Y0653840D01*
X0453400Y0650630D02*
X0449130Y0646360D01*
X0603360Y0498100D02*
G75*
%LPD*%
D78*
X0614150Y0588700D02*
X0607750Y0588700D01*
X0607750Y0585490D01*
X0608810Y0584430D01*
X0610950Y0584430D01*
X0612020Y0585490D01*
X0612020Y0588700D01*
X0612020Y0590870D02*
X0612020Y0594080D01*
X0610950Y0595140D01*
X0609880Y0594080D01*
X0609880Y0590870D01*
X0608810Y0590870D02*
X0612020Y0590870D01*
X0612020Y0597300D02*
X0610950Y0598370D01*
X0606680Y0598370D01*
X0607750Y0599440D02*
X0607750Y0597300D01*
X0607750Y0594080D02*
X0607750Y0591940D01*
X0608810Y0590870D01*
X0608810Y0582250D02*
X0610950Y0582250D01*
X0612020Y0581180D01*
X0612020Y0579050D01*
X0609880Y0577980D02*
X0609880Y0582250D01*
X0608810Y0582250D02*
X0607750Y0581180D01*
X0607750Y0579050D01*
X0608810Y0577980D01*
X0609880Y0577980D01*
X0608810Y0601610D02*
X0608810Y0605880D01*
X0607750Y0608060D02*
X0612020Y0612330D01*
X0612020Y0614490D02*
X0612020Y0616630D01*
X0612020Y0615560D02*
X0607750Y0615560D01*
X0607750Y0616630D01*
X0607750Y0618800D02*
X0607750Y0619860D01*
X0609880Y0622000D01*
X0608810Y0624170D02*
X0612020Y0624170D01*
X0612020Y0622000D02*
X0607750Y0622000D01*
X0608810Y0624170D02*
X0607750Y0625240D01*
X0607750Y0627380D01*
X0608810Y0628440D01*
X0607750Y0630600D02*
X0607750Y0632740D01*
X0606680Y0631670D02*
X0610950Y0631670D01*
X0612020Y0630600D01*
X0612020Y0628440D02*
X0605610Y0628440D01*
X0605610Y0615560D02*
X0604540Y0615560D01*
X0607750Y0612330D02*
X0612020Y0608060D01*
X1003490Y0592870D02*
G75*
%LPD*%
D78*
X1094090Y0658040D02*
X1094090Y0664440D01*
X1090880Y0664440D01*
X1089820Y0663380D01*
X1089820Y0661240D01*
X1090880Y0660170D01*
X1094090Y0660170D01*
X1096260Y0660170D02*
X1099470Y0660170D01*
X1100530Y0661240D01*
X1099470Y0662310D01*
X1096260Y0662310D01*
X1096260Y0663380D02*
X1096260Y0660170D01*
X1102690Y0660170D02*
X1103760Y0661240D01*
X1103760Y0665510D01*
X1104830Y0664440D02*
X1102690Y0664440D01*
X1099470Y0664440D02*
X1097330Y0664440D01*
X1096260Y0663380D01*
X1087640Y0663380D02*
X1087640Y0661240D01*
X1086570Y0660170D01*
X1084440Y0660170D01*
X1083370Y0662310D02*
X1087640Y0662310D01*
X1087640Y0663380D02*
X1086570Y0664440D01*
X1084440Y0664440D01*
X1083370Y0663380D01*
X1083370Y0662310D01*
X1107000Y0663380D02*
X1111270Y0663380D01*
X1113450Y0664440D02*
X1117720Y0660170D01*
X1119880Y0660170D02*
X1122020Y0660170D01*
X1120950Y0660170D02*
X1120950Y0664440D01*
X1122020Y0664440D01*
X1124190Y0664440D02*
X1125250Y0664440D01*
X1127390Y0662310D01*
X1129560Y0663380D02*
X1129560Y0660170D01*
X1127390Y0660170D02*
X1127390Y0664440D01*
X1129560Y0663380D02*
X1130630Y0664440D01*
X1132770Y0664440D01*
X1133830Y0663380D01*
X1135990Y0664440D02*
X1138130Y0664440D01*
X1137060Y0665510D02*
X1137060Y0661240D01*
X1135990Y0660170D01*
X1133830Y0660170D02*
X1133830Y0666580D01*
X1120950Y0666580D02*
X1120950Y0667650D01*
X1117720Y0664440D02*
X1113450Y0660170D01*
X0765280Y0661680D02*
G75*
%LPD*%
D78*
X0855880Y0726850D02*
X0855880Y0733250D01*
X0852670Y0733250D01*
X0851610Y0732190D01*
X0851610Y0730050D01*
X0852670Y0728980D01*
X0855880Y0728980D01*
X0858050Y0728980D02*
X0861260Y0728980D01*
X0862320Y0730050D01*
X0861260Y0731120D01*
X0858050Y0731120D01*
X0858050Y0732190D02*
X0858050Y0728980D01*
X0864480Y0728980D02*
X0865550Y0730050D01*
X0865550Y0734320D01*
X0866620Y0733250D02*
X0864480Y0733250D01*
X0861260Y0733250D02*
X0859120Y0733250D01*
X0858050Y0732190D01*
X0849430Y0732190D02*
X0849430Y0730050D01*
X0848360Y0728980D01*
X0846230Y0728980D01*
X0845160Y0731120D02*
X0849430Y0731120D01*
X0849430Y0732190D02*
X0848360Y0733250D01*
X0846230Y0733250D01*
X0845160Y0732190D01*
X0845160Y0731120D01*
X0868790Y0732190D02*
X0873060Y0732190D01*
X0875240Y0733250D02*
X0879510Y0728980D01*
X0881670Y0728980D02*
X0883810Y0728980D01*
X0882740Y0728980D02*
X0882740Y0733250D01*
X0883810Y0733250D01*
X0885980Y0733250D02*
X0887040Y0733250D01*
X0889180Y0731120D01*
X0891350Y0732190D02*
X0891350Y0728980D01*
X0889180Y0728980D02*
X0889180Y0733250D01*
X0891350Y0732190D02*
X0892420Y0733250D01*
X0894560Y0733250D01*
X0895620Y0732190D01*
X0897780Y0733250D02*
X0899920Y0733250D01*
X0898850Y0734320D02*
X0898850Y0730050D01*
X0897780Y0728980D01*
X0895620Y0728980D02*
X0895620Y0735390D01*
X0882740Y0735390D02*
X0882740Y0736460D01*
X0879510Y0733250D02*
X0875240Y0728980D01*
X1084450Y0020000D02*
G75*
%LPD*%
D78*
X1095240Y0110600D02*
X1088840Y0110600D01*
X1088840Y0107390D01*
X1089900Y0106330D01*
X1092040Y0106330D01*
X1093110Y0107390D01*
X1093110Y0110600D01*
X1093110Y0112770D02*
X1093110Y0115980D01*
X1092040Y0117040D01*
X1090970Y0115980D01*
X1090970Y0112770D01*
X1089900Y0112770D02*
X1093110Y0112770D01*
X1093110Y0119200D02*
X1092040Y0120270D01*
X1087770Y0120270D01*
X1088840Y0121340D02*
X1088840Y0119200D01*
X1088840Y0115980D02*
X1088840Y0113840D01*
X1089900Y0112770D01*
X1089900Y0104150D02*
X1092040Y0104150D01*
X1093110Y0103080D01*
X1093110Y0100950D01*
X1090970Y0099880D02*
X1090970Y0104150D01*
X1089900Y0104150D02*
X1088840Y0103080D01*
X1088840Y0100950D01*
X1089900Y0099880D01*
X1090970Y0099880D01*
X1089900Y0123510D02*
X1089900Y0127780D01*
X1088840Y0129960D02*
X1093110Y0134230D01*
X1093110Y0136390D02*
X1093110Y0138530D01*
X1093110Y0137460D02*
X1088840Y0137460D01*
X1088840Y0138530D01*
X1088840Y0140700D02*
X1088840Y0141760D01*
X1090970Y0143900D01*
X1089900Y0146070D02*
X1093110Y0146070D01*
X1093110Y0143900D02*
X1088840Y0143900D01*
X1089900Y0146070D02*
X1088840Y0147140D01*
X1088840Y0149280D01*
X1089900Y0150340D01*
X1088840Y0152500D02*
X1088840Y0154640D01*
X1087770Y0153570D02*
X1092040Y0153570D01*
X1093110Y0152500D01*
X1093110Y0150340D02*
X1086700Y0150340D01*
X1086700Y0137460D02*
X1085630Y0137460D01*
X1088840Y0134230D02*
X1093110Y0129960D01*
X1003490Y0673830D02*
G75*
%LPD*%
D78*
X1094090Y0739000D02*
X1094090Y0745400D01*
X1090880Y0745400D01*
X1089820Y0744340D01*
X1089820Y0742200D01*
X1090880Y0741130D01*
X1094090Y0741130D01*
X1096260Y0741130D02*
X1099470Y0741130D01*
X1100530Y0742200D01*
X1099470Y0743270D01*
X1096260Y0743270D01*
X1096260Y0744340D02*
X1096260Y0741130D01*
X1102690Y0741130D02*
X1103760Y0742200D01*
X1103760Y0746470D01*
X1104830Y0745400D02*
X1102690Y0745400D01*
X1099470Y0745400D02*
X1097330Y0745400D01*
X1096260Y0744340D01*
X1087640Y0744340D02*
X1087640Y0742200D01*
X1086570Y0741130D01*
X1084440Y0741130D01*
X1083370Y0743270D02*
X1087640Y0743270D01*
X1087640Y0744340D02*
X1086570Y0745400D01*
X1084440Y0745400D01*
X1083370Y0744340D01*
X1083370Y0743270D01*
X1107000Y0744340D02*
X1111270Y0744340D01*
X1113450Y0745400D02*
X1117720Y0741130D01*
X1119880Y0741130D02*
X1122020Y0741130D01*
X1120950Y0741130D02*
X1120950Y0745400D01*
X1122020Y0745400D01*
X1124190Y0745400D02*
X1125250Y0745400D01*
X1127390Y0743270D01*
X1129560Y0744340D02*
X1129560Y0741130D01*
X1127390Y0741130D02*
X1127390Y0745400D01*
X1129560Y0744340D02*
X1130630Y0745400D01*
X1132770Y0745400D01*
X1133830Y0744340D01*
X1135990Y0745400D02*
X1138130Y0745400D01*
X1137060Y0746470D02*
X1137060Y0742200D01*
X1135990Y0741130D01*
X1133830Y0741130D02*
X1133830Y0747540D01*
X1120950Y0747540D02*
X1120950Y0748610D01*
X1117720Y0745400D02*
X1113450Y0741130D01*
X0365150Y0660020D02*
G75*
%LPD*%
D78*
X0455750Y0725190D02*
X0455750Y0731590D01*
X0452540Y0731590D01*
X0451480Y0730530D01*
X0451480Y0728390D01*
X0452540Y0727320D01*
X0455750Y0727320D01*
X0457920Y0727320D02*
X0461130Y0727320D01*
X0462190Y0728390D01*
X0461130Y0729460D01*
X0457920Y0729460D01*
X0457920Y0730530D02*
X0457920Y0727320D01*
X0464350Y0727320D02*
X0465420Y0728390D01*
X0465420Y0732660D01*
X0466490Y0731590D02*
X0464350Y0731590D01*
X0461130Y0731590D02*
X0458990Y0731590D01*
X0457920Y0730530D01*
X0449300Y0730530D02*
X0449300Y0728390D01*
X0448230Y0727320D01*
X0446100Y0727320D01*
X0445030Y0729460D02*
X0449300Y0729460D01*
X0449300Y0730530D02*
X0448230Y0731590D01*
X0446100Y0731590D01*
X0445030Y0730530D01*
X0445030Y0729460D01*
X0468660Y0730530D02*
X0472930Y0730530D01*
X0475110Y0731590D02*
X0479380Y0727320D01*
X0481540Y0727320D02*
X0483680Y0727320D01*
X0482610Y0727320D02*
X0482610Y0731590D01*
X0483680Y0731590D01*
X0485850Y0731590D02*
X0486910Y0731590D01*
X0489050Y0729460D01*
X0491220Y0730530D02*
X0491220Y0727320D01*
X0489050Y0727320D02*
X0489050Y0731590D01*
X0491220Y0730530D02*
X0492290Y0731590D01*
X0494430Y0731590D01*
X0495490Y0730530D01*
X0497650Y0731590D02*
X0499790Y0731590D01*
X0498720Y0732660D02*
X0498720Y0728390D01*
X0497650Y0727320D01*
X0495490Y0727320D02*
X0495490Y0733730D01*
X0482610Y0733730D02*
X0482610Y0734800D01*
X0479380Y0731590D02*
X0475110Y0727320D01*
X0684320Y0511910D02*
G75*
%LPD*%
D78*
X0695110Y0602510D02*
X0688710Y0602510D01*
X0688710Y0599300D01*
X0689770Y0598240D01*
X0691910Y0598240D01*
X0692980Y0599300D01*
X0692980Y0602510D01*
X0692980Y0604680D02*
X0692980Y0607890D01*
X0691910Y0608950D01*
X0690840Y0607890D01*
X0690840Y0604680D01*
X0689770Y0604680D02*
X0692980Y0604680D01*
X0692980Y0611110D02*
X0691910Y0612180D01*
X0687640Y0612180D01*
X0688710Y0613250D02*
X0688710Y0611110D01*
X0688710Y0607890D02*
X0688710Y0605750D01*
X0689770Y0604680D01*
X0689770Y0596060D02*
X0691910Y0596060D01*
X0692980Y0594990D01*
X0692980Y0592860D01*
X0690840Y0591790D02*
X0690840Y0596060D01*
X0689770Y0596060D02*
X0688710Y0594990D01*
X0688710Y0592860D01*
X0689770Y0591790D01*
X0690840Y0591790D01*
X0689770Y0615420D02*
X0689770Y0619690D01*
X0688710Y0621870D02*
X0692980Y0626140D01*
X0692980Y0628300D02*
X0692980Y0630440D01*
X0692980Y0629370D02*
X0688710Y0629370D01*
X0688710Y0630440D01*
X0688710Y0632610D02*
X0688710Y0633670D01*
X0690840Y0635810D01*
X0689770Y0637980D02*
X0692980Y0637980D01*
X0692980Y0635810D02*
X0688710Y0635810D01*
X0689770Y0637980D02*
X0688710Y0639050D01*
X0688710Y0641190D01*
X0689770Y0642250D01*
X0688710Y0644410D02*
X0688710Y0646550D01*
X0687640Y0645480D02*
X0691910Y0645480D01*
X0692980Y0644410D01*
X0692980Y0642250D02*
X0686570Y0642250D01*
X0686570Y0629370D02*
X0685500Y0629370D01*
X0688710Y0626140D02*
X0692980Y0621870D01*
X1165410Y0020000D02*
G75*
%LPD*%
D78*
X1176200Y0110600D02*
X1169800Y0110600D01*
X1169800Y0107390D01*
X1170860Y0106330D01*
X1173000Y0106330D01*
X1174070Y0107390D01*
X1174070Y0110600D01*
X1174070Y0112770D02*
X1174070Y0115980D01*
X1173000Y0117040D01*
X1171930Y0115980D01*
X1171930Y0112770D01*
X1170860Y0112770D02*
X1174070Y0112770D01*
X1174070Y0119200D02*
X1173000Y0120270D01*
X1168730Y0120270D01*
X1169800Y0121340D02*
X1169800Y0119200D01*
X1169800Y0115980D02*
X1169800Y0113840D01*
X1170860Y0112770D01*
X1170860Y0104150D02*
X1173000Y0104150D01*
X1174070Y0103080D01*
X1174070Y0100950D01*
X1171930Y0099880D02*
X1171930Y0104150D01*
X1170860Y0104150D02*
X1169800Y0103080D01*
X1169800Y0100950D01*
X1170860Y0099880D01*
X1171930Y0099880D01*
X1170860Y0123510D02*
X1170860Y0127780D01*
X1169800Y0129960D02*
X1174070Y0134230D01*
X1174070Y0136390D02*
X1174070Y0138530D01*
X1174070Y0137460D02*
X1169800Y0137460D01*
X1169800Y0138530D01*
X1169800Y0140700D02*
X1169800Y0141760D01*
X1171930Y0143900D01*
X1170860Y0146070D02*
X1174070Y0146070D01*
X1174070Y0143900D02*
X1169800Y0143900D01*
X1170860Y0146070D02*
X1169800Y0147140D01*
X1169800Y0149280D01*
X1170860Y0150340D01*
X1169800Y0152500D02*
X1169800Y0154640D01*
X1168730Y0153570D02*
X1173000Y0153570D01*
X1174070Y0152500D01*
X1174070Y0150340D02*
X1167660Y0150340D01*
X1167660Y0137460D02*
X1166590Y0137460D01*
X1169800Y0134230D02*
X1174070Y0129960D01*
M02*
