%
T01C0.021650
X31418Y3520
X31418Y6220
X31418Y9020
X31418Y12220
X30918Y16520
X27318Y10820
X25518Y10820
X25718Y13370
X23468Y11800
X22558Y11805
X22518Y10520
X22518Y10020
X22518Y9520
X22018Y9520
X22018Y10020
X22018Y10520
X21518Y10520
X21518Y10020
X21518Y9520
X21518Y9020
X21518Y8520
X21518Y8020
X21518Y7520
X21518Y7020
X21518Y6520
X21518Y6020
X21518Y5520
X21518Y5020
X21518Y4520
X21518Y4020
X21518Y3520
X21518Y3020
X21518Y2520
X22918Y2520
X22918Y3020
X22918Y3520
X22918Y4020
X22918Y4520
X22918Y5020
X22918Y5520
X23918Y4520
X23918Y4020
X23918Y3520
X23918Y3020
X23918Y2520
X24418Y2520
X24418Y3020
X24418Y3520
X24418Y4020
X24418Y4520
X24918Y4520
X24918Y4020
X24918Y3520
X24918Y3020
X24918Y2520
X23018Y8020
X22518Y8020
X22018Y8020
X22018Y8520
X22018Y9020
X22518Y9020
X22518Y8520
X23018Y8520
X23018Y9020
X23018Y9520
X23018Y10020
X23018Y10520
X20518Y12720
X20518Y13320
X20518Y13920
X20518Y14520
X19803Y9060
X18503Y6560
X19518Y5220
X15518Y5220
X15318Y4220
X12418Y3720
X10518Y3720
X14118Y12520
X15618Y12520
X15518Y18120
X10618Y23320
X13554Y31356
X16418Y32120
X22918Y32220
X29218Y32020
X27808Y35002
X30508Y35002
X33308Y35002
X36508Y35002
X40808Y35502
X35108Y39102
X35108Y40902
X37658Y40702
X36088Y42952
X36093Y43862
X34808Y43902
X34308Y43902
X33808Y43902
X33808Y44402
X34308Y44402
X34808Y44402
X34808Y44902
X34308Y44902
X33808Y44902
X33308Y44902
X32808Y44902
X32308Y44902
X31808Y44902
X31308Y44902
X30808Y44902
X30308Y44902
X29808Y44902
X29308Y44902
X28808Y44902
X28308Y44902
X27808Y44902
X27308Y44902
X26808Y44902
X26808Y43502
X27308Y43502
X27808Y43502
X28308Y43502
X28808Y43502
X29308Y43502
X29808Y43502
X28808Y42502
X28308Y42502
X27808Y42502
X27308Y42502
X26808Y42502
X26808Y42002
X27308Y42002
X27808Y42002
X28308Y42002
X28808Y42002
X28808Y41502
X28308Y41502
X27808Y41502
X27308Y41502
X26808Y41502
X32308Y43402
X32308Y43902
X32308Y44402
X32808Y44402
X33308Y44402
X33308Y43902
X32808Y43902
X32808Y43402
X33308Y43402
X33808Y43402
X34308Y43402
X34808Y43402
X37008Y45902
X37608Y45902
X38208Y45902
X38808Y45902
X33348Y46617
X30848Y47917
X29508Y46902
X29508Y50902
X28508Y51102
X28008Y54002
X28008Y55902
X36808Y52302
X36808Y50802
X42408Y50902
X47608Y55802
X55644Y52866
X56408Y50002
X56508Y43502
X56308Y37202
T02C0.024000
X4796Y9200
X4796Y10400
X7996Y19700
X7496Y20100
X4796Y33021
X4796Y34221
X7996Y43521
X7496Y43921
X26018Y20820
X24718Y21020
X22018Y17820
X21118Y18520
X20218Y18420
X19118Y18120
X19518Y20120
X18518Y21120
X17518Y22020
X16518Y22020
X15418Y20120
X14918Y19520
X16118Y19920
X16518Y16720
X16518Y14520
X15518Y14520
X14518Y14520
X17518Y14520
X18518Y14520
X19518Y14520
X20018Y14520
X21018Y14520
X21518Y14520
X22518Y14520
X23518Y14520
X24518Y14520
X28018Y18420
X18718Y12420
X18218Y11520
X13118Y6720
X12118Y6720
X12918Y26620
X13618Y26620
X14418Y26620
X15318Y26620
X16218Y26620
X16218Y29520
X15318Y30820
X14418Y29620
X4796Y56842
X4796Y58042
X7996Y67342
X7496Y67742
X39736Y6800
X40936Y6800
X50236Y3600
X50636Y4100
X39736Y14896
X40936Y14896
X50236Y11696
X50636Y12196
X59153Y9200
X59153Y10400
X62353Y19700
X61853Y20100
X39736Y22992
X40936Y22992
X50236Y19792
X50636Y20292
X39736Y31088
X40936Y31088
X50236Y27888
X50636Y28388
X12892Y40984
X12892Y42184
X16092Y51484
X15592Y51884
X20988Y40984
X20988Y42184
X24188Y51484
X23688Y51884
X17296Y62405
X18496Y62405
X27796Y59205
X28196Y59705
X63557Y30621
X64757Y30621
X74057Y27421
X74457Y27921
X45108Y40402
X45308Y41702
X42108Y44402
X42808Y45302
X42708Y46202
X42408Y47302
X44408Y46902
X45408Y47902
X46308Y48902
X46308Y49902
X44408Y51002
X43808Y51502
X44208Y50302
X41008Y49902
X38808Y49902
X38808Y50902
X38808Y51902
X38808Y48902
X38808Y47902
X38808Y46902
X38808Y46402
X38808Y45402
X38808Y44902
X38808Y43902
X38808Y42902
X38808Y41902
X42708Y38402
X36708Y47702
X35808Y48202
X31008Y53302
X31008Y54302
X50908Y53502
X50908Y52802
X50908Y52002
X50908Y51102
X50908Y50202
X53808Y50202
X55108Y51102
X53908Y52002
X65272Y38717
X66472Y38717
X75772Y35517
X76172Y36017
X17296Y70501
X18496Y70501
X27796Y67301
X28196Y67801
X60868Y49213
X60868Y50413
X64068Y59713
X63568Y60113
X67593Y9280
X65913Y12480
X70713Y12480
X71913Y13120
X73273Y11920
X71273Y15840
X75593Y16400
X76633Y17600
X81033Y19840
X79833Y11680
X87353Y11120
X41451Y61624
X42651Y61624
X51951Y58424
X52351Y58924
X92963Y9280
X91283Y12480
X96083Y12480
X97283Y13120
X98643Y11920
X96643Y15840
X100963Y16400
X102003Y17600
X106403Y19840
X105203Y11680
X112723Y11120
X68964Y49213
X68964Y50413
X72164Y59713
X71664Y60113
X41451Y69720
X42651Y69720
X51951Y66520
X52351Y67020
X77060Y49213
X77060Y50413
X80260Y59713
X79760Y60113
X117989Y9200
X117989Y10400
X121189Y19700
X120689Y20100
X109893Y31196
X109893Y32396
X113093Y41696
X112593Y42096
X87378Y28796
X88578Y28796
X97878Y25596
X98278Y26096
X99317Y35232
X96117Y33552
X96117Y38352
X95477Y39552
X96677Y40912
X92757Y38912
X92197Y43232
X90997Y44272
X88757Y48672
X96917Y47472
X97477Y54992
X117989Y33021
X117989Y34221
X121189Y43521
X120689Y43921
X109893Y55017
X109893Y56217
X113093Y65517
X112593Y65917
X90476Y62262
X91676Y62262
X100976Y59062
X101376Y59562
X89560Y70358
X90760Y70358
X100060Y67158
X100460Y67658
X65272Y70634
X66472Y70634
X75772Y67434
X76172Y67934
X117989Y56842
X117989Y58042
X121189Y67342
X120689Y67742
T03C0.033450
X8596Y2700
X8596Y3700
X8596Y5700
X8596Y6700
X8596Y8700
X8596Y9700
X8596Y11700
X8596Y12700
X8596Y14700
X8596Y15700
X8596Y17700
X8596Y18700
X8596Y20700
X8596Y21700
X8596Y23700
X8596Y24700
X6596Y20450
X6596Y19450
X6596Y18450
X6596Y17450
X6596Y16200
X6596Y15200
X6596Y14200
X6596Y13200
X6596Y12200
X6596Y11200
X6596Y10200
X6596Y9200
X6846Y7700
X6846Y6700
X6846Y5700
X6846Y4700
X3846Y4700
X3846Y5700
X3846Y6700
X3846Y7700
X3596Y9200
X3596Y10200
X3596Y11200
X3596Y12200
X3596Y13200
X3596Y14200
X3596Y15200
X3596Y16200
X3596Y17450
X3596Y18450
X3596Y19450
X3596Y20450
X8596Y26521
X8596Y27521
X8596Y29521
X8596Y30521
X8596Y32521
X8596Y33521
X8596Y35521
X8596Y36521
X8596Y38521
X8596Y39521
X8596Y41521
X8596Y42521
X8596Y44521
X8596Y45521
X8596Y47521
X8596Y48521
X6596Y44271
X6596Y43271
X6596Y42271
X6596Y41271
X6596Y40021
X6596Y39021
X6596Y38021
X6596Y37021
X6596Y36021
X6596Y35021
X6596Y34021
X6596Y33021
X6846Y31521
X6846Y30521
X6846Y29521
X6846Y28521
X3846Y28521
X3846Y29521
X3846Y30521
X3846Y31521
X3596Y33021
X3596Y34021
X3596Y35021
X3596Y36021
X3596Y37021
X3596Y38021
X3596Y39021
X3596Y40021
X3596Y41271
X3596Y42271
X3596Y43271
X3596Y44271
X13234Y3770
X11502Y3770
X26892Y31508
X26892Y30508
X26892Y29508
X26892Y28508
X26892Y27508
X26892Y26508
X26892Y25508
X26892Y24508
X26892Y23508
X26892Y22508
X26892Y21508
X26892Y20508
X26892Y19508
X26892Y18508
X23892Y18508
X23892Y19508
X23892Y20508
X23892Y21508
X23892Y22508
X23892Y23508
X23892Y24508
X23892Y25508
X23892Y26508
X23892Y27508
X23892Y28508
X23892Y29508
X23892Y30508
X23892Y31508
X21731Y23316
X19831Y23316
X19668Y10520
X18668Y10520
X17668Y10520
X16668Y10520
X15668Y10520
X14668Y10520
X13668Y10520
X12668Y10520
X11668Y10520
X10668Y10520
X10668Y7520
X11668Y7520
X12668Y7520
X13668Y7520
X14668Y7520
X15668Y7520
X16668Y7520
X17668Y7520
X18668Y7520
X19668Y7520
X18468Y5220
X16568Y5220
X15018Y14520
X16018Y14520
X17018Y14520
X18018Y14520
X19018Y14520
X22018Y14520
X23018Y14520
X24018Y14520
X25318Y23220
X28218Y32320
X8596Y50342
X8596Y51342
X8596Y53342
X8596Y54342
X8596Y56342
X8596Y57342
X8596Y59342
X8596Y60342
X8596Y62342
X8596Y63342
X8596Y65342
X8596Y66342
X8596Y68342
X8596Y69342
X8596Y71342
X8596Y72342
X6596Y68092
X6596Y67092
X6596Y66092
X6596Y65092
X6596Y63842
X6596Y62842
X6596Y61842
X6596Y60842
X6596Y59842
X6596Y58842
X6596Y57842
X6596Y56842
X6846Y55342
X6846Y54342
X6846Y53342
X6846Y52342
X3846Y52342
X3846Y53342
X3846Y54342
X3846Y55342
X3596Y56842
X3596Y57842
X3596Y58842
X3596Y59842
X3596Y60842
X3596Y61842
X3596Y62842
X3596Y63842
X3596Y65092
X3596Y66092
X3596Y67092
X3596Y68092
X33236Y3000
X34236Y3000
X36236Y3000
X37236Y3000
X39236Y3000
X40236Y3000
X42236Y3000
X43236Y3000
X45236Y3000
X46236Y3000
X48236Y3000
X49236Y3000
X51236Y3000
X52236Y3000
X54236Y3000
X55236Y3000
X50986Y5000
X49986Y5000
X48986Y5000
X47986Y5000
X46736Y5000
X45736Y5000
X44736Y5000
X43736Y5000
X42736Y5000
X41736Y5000
X40736Y5000
X39736Y5000
X38236Y4750
X37236Y4750
X36236Y4750
X35236Y4750
X35236Y7750
X36236Y7750
X37236Y7750
X38236Y7750
X39736Y8000
X40736Y8000
X41736Y8000
X42736Y8000
X43736Y8000
X44736Y8000
X45736Y8000
X46736Y8000
X47986Y8000
X48986Y8000
X49986Y8000
X50986Y8000
X33236Y11096
X34236Y11096
X36236Y11096
X37236Y11096
X39236Y11096
X40236Y11096
X42236Y11096
X43236Y11096
X45236Y11096
X46236Y11096
X48236Y11096
X49236Y11096
X51236Y11096
X52236Y11096
X54236Y11096
X55236Y11096
X50986Y13096
X49986Y13096
X48986Y13096
X47986Y13096
X46736Y13096
X45736Y13096
X44736Y13096
X43736Y13096
X42736Y13096
X41736Y13096
X40736Y13096
X39736Y13096
X38236Y12846
X37236Y12846
X36236Y12846
X35236Y12846
X35236Y15846
X36236Y15846
X37236Y15846
X38236Y15846
X39736Y16096
X40736Y16096
X41736Y16096
X42736Y16096
X43736Y16096
X44736Y16096
X45736Y16096
X46736Y16096
X47986Y16096
X48986Y16096
X49986Y16096
X50986Y16096
X62953Y2700
X62953Y3700
X62953Y5700
X62953Y6700
X62953Y8700
X62953Y9700
X62953Y11700
X62953Y12700
X62953Y14700
X62953Y15700
X62953Y17700
X62953Y18700
X62953Y20700
X62953Y21700
X62953Y23700
X62953Y24700
X60953Y20450
X60953Y19450
X60953Y18450
X60953Y17450
X60953Y16200
X60953Y15200
X60953Y14200
X60953Y13200
X60953Y12200
X60953Y11200
X60953Y10200
X60953Y9200
X61203Y7700
X61203Y6700
X61203Y5700
X61203Y4700
X58203Y4700
X58203Y5700
X58203Y6700
X58203Y7700
X57953Y9200
X57953Y10200
X57953Y11200
X57953Y12200
X57953Y13200
X57953Y14200
X57953Y15200
X57953Y16200
X57953Y17450
X57953Y18450
X57953Y19450
X57953Y20450
X33236Y19192
X34236Y19192
X36236Y19192
X37236Y19192
X39236Y19192
X40236Y19192
X42236Y19192
X43236Y19192
X45236Y19192
X46236Y19192
X48236Y19192
X49236Y19192
X51236Y19192
X52236Y19192
X54236Y19192
X55236Y19192
X50986Y21192
X49986Y21192
X48986Y21192
X47986Y21192
X46736Y21192
X45736Y21192
X44736Y21192
X43736Y21192
X42736Y21192
X41736Y21192
X40736Y21192
X39736Y21192
X38236Y20942
X37236Y20942
X36236Y20942
X35236Y20942
X35236Y23942
X36236Y23942
X37236Y23942
X38236Y23942
X39736Y24192
X40736Y24192
X41736Y24192
X42736Y24192
X43736Y24192
X44736Y24192
X45736Y24192
X46736Y24192
X47986Y24192
X48986Y24192
X49986Y24192
X50986Y24192
X33236Y27288
X34236Y27288
X36236Y27288
X37236Y27288
X39236Y27288
X40236Y27288
X42236Y27288
X43236Y27288
X45236Y27288
X46236Y27288
X48236Y27288
X49236Y27288
X51236Y27288
X52236Y27288
X54236Y27288
X55236Y27288
X50986Y29288
X49986Y29288
X48986Y29288
X47986Y29288
X46736Y29288
X45736Y29288
X44736Y29288
X43736Y29288
X42736Y29288
X41736Y29288
X40736Y29288
X39736Y29288
X38236Y29038
X37236Y29038
X36236Y29038
X35236Y29038
X35236Y32038
X36236Y32038
X37236Y32038
X38236Y32038
X39736Y32288
X40736Y32288
X41736Y32288
X42736Y32288
X43736Y32288
X44736Y32288
X45736Y32288
X46736Y32288
X47986Y32288
X48986Y32288
X49986Y32288
X50986Y32288
X16692Y34484
X16692Y35484
X16692Y37484
X16692Y38484
X16692Y40484
X16692Y41484
X16692Y43484
X16692Y44484
X16692Y46484
X16692Y47484
X16692Y49484
X16692Y50484
X16692Y52484
X16692Y53484
X16692Y55484
X16692Y56484
X14692Y52234
X14692Y51234
X14692Y50234
X14692Y49234
X14692Y47984
X14692Y46984
X14692Y45984
X14692Y44984
X14692Y43984
X14692Y42984
X14692Y41984
X14692Y40984
X14942Y39484
X14942Y38484
X14942Y37484
X14942Y36484
X11942Y36484
X11942Y37484
X11942Y38484
X11942Y39484
X11692Y40984
X11692Y41984
X11692Y42984
X11692Y43984
X11692Y44984
X11692Y45984
X11692Y46984
X11692Y47984
X11692Y49234
X11692Y50234
X11692Y51234
X11692Y52234
X24788Y34484
X24788Y35484
X24788Y37484
X24788Y38484
X24788Y40484
X24788Y41484
X24788Y43484
X24788Y44484
X24788Y46484
X24788Y47484
X24788Y49484
X24788Y50484
X24788Y52484
X24788Y53484
X24788Y55484
X24788Y56484
X22788Y52234
X22788Y51234
X22788Y50234
X22788Y49234
X22788Y47984
X22788Y46984
X22788Y45984
X22788Y44984
X22788Y43984
X22788Y42984
X22788Y41984
X22788Y40984
X23038Y39484
X23038Y38484
X23038Y37484
X23038Y36484
X20038Y36484
X20038Y37484
X20038Y38484
X20038Y39484
X19788Y40984
X19788Y41984
X19788Y42984
X19788Y43984
X19788Y44984
X19788Y45984
X19788Y46984
X19788Y47984
X19788Y49234
X19788Y50234
X19788Y51234
X19788Y52234
X10796Y58605
X11796Y58605
X13796Y58605
X14796Y58605
X16796Y58605
X17796Y58605
X19796Y58605
X20796Y58605
X22796Y58605
X23796Y58605
X25796Y58605
X26796Y58605
X28796Y58605
X29796Y58605
X31796Y58605
X32796Y58605
X28546Y60605
X27546Y60605
X26546Y60605
X25546Y60605
X24296Y60605
X23296Y60605
X22296Y60605
X21296Y60605
X20296Y60605
X19296Y60605
X18296Y60605
X17296Y60605
X15796Y60355
X14796Y60355
X13796Y60355
X12796Y60355
X12796Y63355
X13796Y63355
X14796Y63355
X15796Y63355
X17296Y63605
X18296Y63605
X19296Y63605
X20296Y63605
X21296Y63605
X22296Y63605
X23296Y63605
X24296Y63605
X25546Y63605
X26546Y63605
X27546Y63605
X28546Y63605
X57057Y26821
X58057Y26821
X60057Y26821
X61057Y26821
X63057Y26821
X64057Y26821
X66057Y26821
X67057Y26821
X69057Y26821
X70057Y26821
X72057Y26821
X73057Y26821
X75057Y26821
X76057Y26821
X78057Y26821
X79057Y26821
X74807Y28821
X73807Y28821
X72807Y28821
X71807Y28821
X70557Y28821
X69557Y28821
X68557Y28821
X67557Y28821
X66557Y28821
X65557Y28821
X64557Y28821
X63557Y28821
X62057Y28571
X61057Y28571
X60057Y28571
X59057Y28571
X59057Y31571
X60057Y31571
X61057Y31571
X62057Y31571
X63557Y31821
X64557Y31821
X65557Y31821
X66557Y31821
X67557Y31821
X68557Y31821
X69557Y31821
X70557Y31821
X71807Y31821
X72807Y31821
X73807Y31821
X74807Y31821
X28058Y53186
X28058Y54918
X55796Y39528
X54796Y39528
X53796Y39528
X52796Y39528
X51796Y39528
X50796Y39528
X49796Y39528
X48796Y39528
X47796Y39528
X46796Y39528
X45796Y39528
X44796Y39528
X43796Y39528
X42796Y39528
X42796Y42528
X43796Y42528
X44796Y42528
X45796Y42528
X46796Y42528
X47796Y42528
X48796Y42528
X49796Y42528
X50796Y42528
X51796Y42528
X52796Y42528
X53796Y42528
X54796Y42528
X55796Y42528
X47604Y44689
X47604Y46589
X34808Y46752
X34808Y47752
X34808Y48752
X34808Y49752
X34808Y50752
X34808Y51752
X34808Y52752
X34808Y53752
X34808Y54752
X34808Y55752
X31808Y55752
X31808Y54752
X31808Y53752
X31808Y52752
X31808Y51752
X31808Y50752
X31808Y49752
X31808Y48752
X31808Y47752
X31808Y46752
X29508Y47952
X29508Y49852
X38808Y51402
X38808Y50402
X38808Y49402
X38808Y48402
X38808Y47402
X38808Y44402
X38808Y43402
X38808Y42402
X47508Y41102
X56608Y38202
X58772Y34917
X59772Y34917
X61772Y34917
X62772Y34917
X64772Y34917
X65772Y34917
X67772Y34917
X68772Y34917
X70772Y34917
X71772Y34917
X73772Y34917
X74772Y34917
X76772Y34917
X77772Y34917
X79772Y34917
X80772Y34917
X76522Y36917
X75522Y36917
X74522Y36917
X73522Y36917
X72272Y36917
X71272Y36917
X70272Y36917
X69272Y36917
X68272Y36917
X67272Y36917
X66272Y36917
X65272Y36917
X63772Y36667
X62772Y36667
X61772Y36667
X60772Y36667
X60772Y39667
X61772Y39667
X62772Y39667
X63772Y39667
X65272Y39917
X66272Y39917
X67272Y39917
X68272Y39917
X69272Y39917
X70272Y39917
X71272Y39917
X72272Y39917
X73522Y39917
X74522Y39917
X75522Y39917
X76522Y39917
X10796Y66701
X11796Y66701
X13796Y66701
X14796Y66701
X16796Y66701
X17796Y66701
X19796Y66701
X20796Y66701
X22796Y66701
X23796Y66701
X25796Y66701
X26796Y66701
X28796Y66701
X29796Y66701
X31796Y66701
X32796Y66701
X28546Y68701
X27546Y68701
X26546Y68701
X25546Y68701
X24296Y68701
X23296Y68701
X22296Y68701
X21296Y68701
X20296Y68701
X19296Y68701
X18296Y68701
X17296Y68701
X15796Y68451
X14796Y68451
X13796Y68451
X12796Y68451
X12796Y71451
X13796Y71451
X14796Y71451
X15796Y71451
X17296Y71701
X18296Y71701
X19296Y71701
X20296Y71701
X21296Y71701
X22296Y71701
X23296Y71701
X24296Y71701
X25546Y71701
X26546Y71701
X27546Y71701
X28546Y71701
X64668Y42713
X64668Y43713
X64668Y45713
X64668Y46713
X64668Y48713
X64668Y49713
X64668Y51713
X64668Y52713
X64668Y54713
X64668Y55713
X64668Y57713
X64668Y58713
X64668Y60713
X64668Y61713
X64668Y63713
X64668Y64713
X62668Y60463
X62668Y59463
X62668Y58463
X62668Y57463
X62668Y56213
X62668Y55213
X62668Y54213
X62668Y53213
X62668Y52213
X62668Y51213
X62668Y50213
X62668Y49213
X62918Y47713
X62918Y46713
X62918Y45713
X62918Y44713
X59918Y44713
X59918Y45713
X59918Y46713
X59918Y47713
X59668Y49213
X59668Y50213
X59668Y51213
X59668Y52213
X59668Y53213
X59668Y54213
X59668Y55213
X59668Y56213
X59668Y57463
X59668Y58463
X59668Y59463
X59668Y60463
X83953Y16000
X83953Y17000
X83953Y18000
X83953Y19000
X83953Y20000
X77953Y20000
X77953Y19000
X77953Y18000
X77953Y17000
X77953Y16000
X78453Y10000
X79453Y10000
X80453Y10000
X81453Y10000
X81453Y7000
X80453Y7000
X79453Y7000
X78453Y7000
X77453Y7000
X76453Y7000
X75453Y7000
X74453Y7000
X73453Y7000
X72453Y7000
X71453Y7000
X70453Y7000
X69453Y7000
X68453Y7000
X68453Y10000
X69453Y10000
X70453Y10000
X71453Y10000
X72453Y10000
X73453Y10000
X74453Y10000
X75453Y10000
X76453Y10000
X77453Y10000
X34951Y57824
X35951Y57824
X37951Y57824
X38951Y57824
X40951Y57824
X41951Y57824
X43951Y57824
X44951Y57824
X46951Y57824
X47951Y57824
X49951Y57824
X50951Y57824
X52951Y57824
X53951Y57824
X55951Y57824
X56951Y57824
X52701Y59824
X51701Y59824
X50701Y59824
X49701Y59824
X48451Y59824
X47451Y59824
X46451Y59824
X45451Y59824
X44451Y59824
X43451Y59824
X42451Y59824
X41451Y59824
X39951Y59574
X38951Y59574
X37951Y59574
X36951Y59574
X36951Y62574
X37951Y62574
X38951Y62574
X39951Y62574
X41451Y62824
X42451Y62824
X43451Y62824
X44451Y62824
X45451Y62824
X46451Y62824
X47451Y62824
X48451Y62824
X49701Y62824
X50701Y62824
X51701Y62824
X52701Y62824
X109323Y16000
X109323Y17000
X109323Y18000
X109323Y19000
X109323Y20000
X103323Y20000
X103323Y19000
X103323Y18000
X103323Y17000
X103323Y16000
X103823Y10000
X104823Y10000
X105823Y10000
X106823Y10000
X106823Y7000
X105823Y7000
X104823Y7000
X103823Y7000
X102823Y7000
X101823Y7000
X100823Y7000
X99823Y7000
X98823Y7000
X97823Y7000
X96823Y7000
X95823Y7000
X94823Y7000
X93823Y7000
X93823Y10000
X94823Y10000
X95823Y10000
X96823Y10000
X97823Y10000
X98823Y10000
X99823Y10000
X100823Y10000
X101823Y10000
X102823Y10000
X72764Y42713
X72764Y43713
X72764Y45713
X72764Y46713
X72764Y48713
X72764Y49713
X72764Y51713
X72764Y52713
X72764Y54713
X72764Y55713
X72764Y57713
X72764Y58713
X72764Y60713
X72764Y61713
X72764Y63713
X72764Y64713
X70764Y60463
X70764Y59463
X70764Y58463
X70764Y57463
X70764Y56213
X70764Y55213
X70764Y54213
X70764Y53213
X70764Y52213
X70764Y51213
X70764Y50213
X70764Y49213
X71014Y47713
X71014Y46713
X71014Y45713
X71014Y44713
X68014Y44713
X68014Y45713
X68014Y46713
X68014Y47713
X67764Y49213
X67764Y50213
X67764Y51213
X67764Y52213
X67764Y53213
X67764Y54213
X67764Y55213
X67764Y56213
X67764Y57463
X67764Y58463
X67764Y59463
X67764Y60463
X34951Y65920
X35951Y65920
X37951Y65920
X38951Y65920
X40951Y65920
X41951Y65920
X43951Y65920
X44951Y65920
X46951Y65920
X47951Y65920
X49951Y65920
X50951Y65920
X52951Y65920
X53951Y65920
X55951Y65920
X56951Y65920
X52701Y67920
X51701Y67920
X50701Y67920
X49701Y67920
X48451Y67920
X47451Y67920
X46451Y67920
X45451Y67920
X44451Y67920
X43451Y67920
X42451Y67920
X41451Y67920
X39951Y67670
X38951Y67670
X37951Y67670
X36951Y67670
X36951Y70670
X37951Y70670
X38951Y70670
X39951Y70670
X41451Y70920
X42451Y70920
X43451Y70920
X44451Y70920
X45451Y70920
X46451Y70920
X47451Y70920
X48451Y70920
X49701Y70920
X50701Y70920
X51701Y70920
X52701Y70920
X80860Y42713
X80860Y43713
X80860Y45713
X80860Y46713
X80860Y48713
X80860Y49713
X80860Y51713
X80860Y52713
X80860Y54713
X80860Y55713
X80860Y57713
X80860Y58713
X80860Y60713
X80860Y61713
X80860Y63713
X80860Y64713
X78860Y60463
X78860Y59463
X78860Y58463
X78860Y57463
X78860Y56213
X78860Y55213
X78860Y54213
X78860Y53213
X78860Y52213
X78860Y51213
X78860Y50213
X78860Y49213
X79110Y47713
X79110Y46713
X79110Y45713
X79110Y44713
X76110Y44713
X76110Y45713
X76110Y46713
X76110Y47713
X75860Y49213
X75860Y50213
X75860Y51213
X75860Y52213
X75860Y53213
X75860Y54213
X75860Y55213
X75860Y56213
X75860Y57463
X75860Y58463
X75860Y59463
X75860Y60463
X121789Y2700
X121789Y3700
X121789Y5700
X121789Y6700
X121789Y8700
X121789Y9700
X121789Y11700
X121789Y12700
X121789Y14700
X121789Y15700
X121789Y17700
X121789Y18700
X121789Y20700
X121789Y21700
X121789Y23700
X121789Y24700
X119789Y20450
X119789Y19450
X119789Y18450
X119789Y17450
X119789Y16200
X119789Y15200
X119789Y14200
X119789Y13200
X119789Y12200
X119789Y11200
X119789Y10200
X119789Y9200
X120039Y7700
X120039Y6700
X120039Y5700
X120039Y4700
X117039Y4700
X117039Y5700
X117039Y6700
X117039Y7700
X116789Y9200
X116789Y10200
X116789Y11200
X116789Y12200
X116789Y13200
X116789Y14200
X116789Y15200
X116789Y16200
X116789Y17450
X116789Y18450
X116789Y19450
X116789Y20450
X113693Y24696
X113693Y25696
X113693Y27696
X113693Y28696
X113693Y30696
X113693Y31696
X113693Y33696
X113693Y34696
X113693Y36696
X113693Y37696
X113693Y39696
X113693Y40696
X113693Y42696
X113693Y43696
X113693Y45696
X113693Y46696
X111693Y42446
X111693Y41446
X111693Y40446
X111693Y39446
X111693Y38196
X111693Y37196
X111693Y36196
X111693Y35196
X111693Y34196
X111693Y33196
X111693Y32196
X111693Y31196
X111943Y29696
X111943Y28696
X111943Y27696
X111943Y26696
X108943Y26696
X108943Y27696
X108943Y28696
X108943Y29696
X108693Y31196
X108693Y32196
X108693Y33196
X108693Y34196
X108693Y35196
X108693Y36196
X108693Y37196
X108693Y38196
X108693Y39446
X108693Y40446
X108693Y41446
X108693Y42446
X80878Y24996
X81878Y24996
X83878Y24996
X84878Y24996
X86878Y24996
X87878Y24996
X89878Y24996
X90878Y24996
X92878Y24996
X93878Y24996
X95878Y24996
X96878Y24996
X98878Y24996
X99878Y24996
X101878Y24996
X102878Y24996
X98628Y26996
X97628Y26996
X96628Y26996
X95628Y26996
X94378Y26996
X93378Y26996
X92378Y26996
X91378Y26996
X90378Y26996
X89378Y26996
X88378Y26996
X87378Y26996
X85878Y26746
X84878Y26746
X83878Y26746
X82878Y26746
X82878Y29746
X83878Y29746
X84878Y29746
X85878Y29746
X87378Y29996
X88378Y29996
X89378Y29996
X90378Y29996
X91378Y29996
X92378Y29996
X93378Y29996
X94378Y29996
X95628Y29996
X96628Y29996
X97628Y29996
X98628Y29996
X92597Y51592
X91597Y51592
X90597Y51592
X89597Y51592
X88597Y51592
X88597Y45592
X89597Y45592
X90597Y45592
X91597Y45592
X92597Y45592
X98597Y46092
X98597Y47092
X98597Y48092
X98597Y49092
X101597Y49092
X101597Y48092
X101597Y47092
X101597Y46092
X101597Y45092
X101597Y44092
X101597Y43092
X101597Y42092
X101597Y41092
X101597Y40092
X101597Y39092
X101597Y38092
X101597Y37092
X101597Y36092
X98597Y36092
X98597Y37092
X98597Y38092
X98597Y39092
X98597Y40092
X98597Y41092
X98597Y42092
X98597Y43092
X98597Y44092
X98597Y45092
X121789Y26521
X121789Y27521
X121789Y29521
X121789Y30521
X121789Y32521
X121789Y33521
X121789Y35521
X121789Y36521
X121789Y38521
X121789Y39521
X121789Y41521
X121789Y42521
X121789Y44521
X121789Y45521
X121789Y47521
X121789Y48521
X119789Y44271
X119789Y43271
X119789Y42271
X119789Y41271
X119789Y40021
X119789Y39021
X119789Y38021
X119789Y37021
X119789Y36021
X119789Y35021
X119789Y34021
X119789Y33021
X120039Y31521
X120039Y30521
X120039Y29521
X120039Y28521
X117039Y28521
X117039Y29521
X117039Y30521
X117039Y31521
X116789Y33021
X116789Y34021
X116789Y35021
X116789Y36021
X116789Y37021
X116789Y38021
X116789Y39021
X116789Y40021
X116789Y41271
X116789Y42271
X116789Y43271
X116789Y44271
X113693Y48517
X113693Y49517
X113693Y51517
X113693Y52517
X113693Y54517
X113693Y55517
X113693Y57517
X113693Y58517
X113693Y60517
X113693Y61517
X113693Y63517
X113693Y64517
X113693Y66517
X113693Y67517
X113693Y69517
X113693Y70517
X111693Y66267
X111693Y65267
X111693Y64267
X111693Y63267
X111693Y62017
X111693Y61017
X111693Y60017
X111693Y59017
X111693Y58017
X111693Y57017
X111693Y56017
X111693Y55017
X111943Y53517
X111943Y52517
X111943Y51517
X111943Y50517
X108943Y50517
X108943Y51517
X108943Y52517
X108943Y53517
X108693Y55017
X108693Y56017
X108693Y57017
X108693Y58017
X108693Y59017
X108693Y60017
X108693Y61017
X108693Y62017
X108693Y63267
X108693Y64267
X108693Y65267
X108693Y66267
X83976Y58462
X84976Y58462
X86976Y58462
X87976Y58462
X89976Y58462
X90976Y58462
X92976Y58462
X93976Y58462
X95976Y58462
X96976Y58462
X98976Y58462
X99976Y58462
X101976Y58462
X102976Y58462
X104976Y58462
X105976Y58462
X101726Y60462
X100726Y60462
X99726Y60462
X98726Y60462
X97476Y60462
X96476Y60462
X95476Y60462
X94476Y60462
X93476Y60462
X92476Y60462
X91476Y60462
X90476Y60462
X88976Y60212
X87976Y60212
X86976Y60212
X85976Y60212
X85976Y63212
X86976Y63212
X87976Y63212
X88976Y63212
X90476Y63462
X91476Y63462
X92476Y63462
X93476Y63462
X94476Y63462
X95476Y63462
X96476Y63462
X97476Y63462
X98726Y63462
X99726Y63462
X100726Y63462
X101726Y63462
X83060Y66558
X84060Y66558
X86060Y66558
X87060Y66558
X89060Y66558
X90060Y66558
X92060Y66558
X93060Y66558
X95060Y66558
X96060Y66558
X98060Y66558
X99060Y66558
X101060Y66558
X102060Y66558
X104060Y66558
X105060Y66558
X100810Y68558
X99810Y68558
X98810Y68558
X97810Y68558
X96560Y68558
X95560Y68558
X94560Y68558
X93560Y68558
X92560Y68558
X91560Y68558
X90560Y68558
X89560Y68558
X88060Y68308
X87060Y68308
X86060Y68308
X85060Y68308
X85060Y71308
X86060Y71308
X87060Y71308
X88060Y71308
X89560Y71558
X90560Y71558
X91560Y71558
X92560Y71558
X93560Y71558
X94560Y71558
X95560Y71558
X96560Y71558
X97810Y71558
X98810Y71558
X99810Y71558
X100810Y71558
X58772Y66834
X59772Y66834
X61772Y66834
X62772Y66834
X64772Y66834
X65772Y66834
X67772Y66834
X68772Y66834
X70772Y66834
X71772Y66834
X73772Y66834
X74772Y66834
X76772Y66834
X77772Y66834
X79772Y66834
X80772Y66834
X76522Y68834
X75522Y68834
X74522Y68834
X73522Y68834
X72272Y68834
X71272Y68834
X70272Y68834
X69272Y68834
X68272Y68834
X67272Y68834
X66272Y68834
X65272Y68834
X63772Y68584
X62772Y68584
X61772Y68584
X60772Y68584
X60772Y71584
X61772Y71584
X62772Y71584
X63772Y71584
X65272Y71834
X66272Y71834
X67272Y71834
X68272Y71834
X69272Y71834
X70272Y71834
X71272Y71834
X72272Y71834
X73522Y71834
X74522Y71834
X75522Y71834
X76522Y71834
X121789Y50342
X121789Y51342
X121789Y53342
X121789Y54342
X121789Y56342
X121789Y57342
X121789Y59342
X121789Y60342
X121789Y62342
X121789Y63342
X121789Y65342
X121789Y66342
X121789Y68342
X121789Y69342
X121789Y71342
X121789Y72342
X119789Y68092
X119789Y67092
X119789Y66092
X119789Y65092
X119789Y63842
X119789Y62842
X119789Y61842
X119789Y60842
X119789Y59842
X119789Y58842
X119789Y57842
X119789Y56842
X120039Y55342
X120039Y54342
X120039Y53342
X120039Y52342
X117039Y52342
X117039Y53342
X117039Y54342
X117039Y55342
X116789Y56842
X116789Y57842
X116789Y58842
X116789Y59842
X116789Y60842
X116789Y61842
X116789Y62842
X116789Y63842
X116789Y65092
X116789Y66092
X116789Y67092
X116789Y68092
T04C0.039700
X3596Y21700
X4596Y21700
X5596Y21700
X6596Y21700
X7596Y21700
X2596Y21700
X2596Y3450
X3596Y3450
X4596Y3450
X5596Y3450
X6596Y3450
X7596Y3450
X3596Y45521
X4596Y45521
X5596Y45521
X6596Y45521
X7596Y45521
X2596Y45521
X2596Y27271
X3596Y27271
X4596Y27271
X5596Y27271
X6596Y27271
X7596Y27271
X11918Y12270
X11918Y13270
X12918Y13270
X12918Y12270
X14518Y13420
X15518Y13420
X16518Y13420
X17518Y13420
X18518Y13420
X19518Y13420
X19523Y11765
X20523Y11765
X21523Y11765
X21518Y13420
X22518Y13420
X23518Y13420
X24518Y13420
X24518Y15520
X23518Y15520
X22518Y15520
X21518Y15520
X19518Y15520
X18518Y15520
X17518Y15520
X16518Y15520
X15518Y15520
X14518Y15520
X12103Y15616
X12103Y16616
X12103Y17616
X12103Y18616
X12103Y19616
X12103Y20616
X12103Y21616
X12103Y22616
X11103Y22295
X11103Y21295
X11103Y20295
X11103Y19295
X11103Y18295
X11103Y17295
X11103Y16295
X11103Y15295
X10918Y13270
X10918Y12270
X11103Y24295
X11103Y25295
X11103Y26295
X11103Y27295
X11103Y28295
X11103Y29295
X11103Y30295
X11103Y31295
X12103Y31296
X12103Y30296
X12103Y29296
X12103Y28296
X12103Y27296
X12103Y26296
X12103Y25296
X12103Y24296
X19133Y31356
X19133Y32356
X20133Y32356
X20133Y31356
X21133Y31356
X21133Y32356
X21853Y29333
X20073Y29333
X20073Y26773
X21853Y26773
X30113Y27176
X30113Y26176
X31113Y26175
X31113Y27175
X31113Y28175
X31113Y29175
X31113Y30175
X31113Y31175
X30113Y31176
X30113Y30176
X30113Y29176
X30113Y28176
X30133Y24204
X30133Y23204
X30133Y22204
X30133Y21204
X30133Y20204
X30133Y19204
X31133Y19205
X31133Y20205
X31133Y21205
X31133Y22205
X31133Y23205
X31133Y24205
X3596Y69342
X4596Y69342
X5596Y69342
X6596Y69342
X7596Y69342
X2596Y69342
X2596Y51092
X3596Y51092
X4596Y51092
X5596Y51092
X6596Y51092
X7596Y51092
X52236Y8000
X52236Y7000
X52236Y6000
X52236Y5000
X52236Y4000
X52236Y9000
X33986Y9000
X33986Y8000
X33986Y7000
X33986Y6000
X33986Y5000
X33986Y4000
X52236Y16096
X52236Y15096
X52236Y14096
X52236Y13096
X52236Y12096
X52236Y17096
X33986Y17096
X33986Y16096
X33986Y15096
X33986Y14096
X33986Y13096
X33986Y12096
X57953Y21700
X58953Y21700
X59953Y21700
X60953Y21700
X61953Y21700
X56953Y21700
X56953Y3450
X57953Y3450
X58953Y3450
X59953Y3450
X60953Y3450
X61953Y3450
X52236Y24192
X52236Y23192
X52236Y22192
X52236Y21192
X52236Y20192
X52236Y25192
X33986Y25192
X33986Y24192
X33986Y23192
X33986Y22192
X33986Y21192
X33986Y20192
X52236Y32288
X52236Y31288
X52236Y30288
X52236Y29288
X52236Y28288
X52236Y33288
X33986Y33288
X33986Y32288
X33986Y31288
X33986Y30288
X33986Y29288
X33986Y28288
X11692Y53484
X12692Y53484
X13692Y53484
X14692Y53484
X15692Y53484
X10692Y53484
X10692Y35234
X11692Y35234
X12692Y35234
X13692Y35234
X14692Y35234
X15692Y35234
X19788Y53484
X20788Y53484
X21788Y53484
X22788Y53484
X23788Y53484
X18788Y53484
X18788Y35234
X19788Y35234
X20788Y35234
X21788Y35234
X22788Y35234
X23788Y35234
X29796Y63605
X29796Y62605
X29796Y61605
X29796Y60605
X29796Y59605
X29796Y64605
X11546Y64605
X11546Y63605
X11546Y62605
X11546Y61605
X11546Y60605
X11546Y59605
X76057Y31821
X76057Y30821
X76057Y29821
X76057Y28821
X76057Y27821
X76057Y32821
X57807Y32821
X57807Y31821
X57807Y30821
X57807Y29821
X57807Y28821
X57807Y27821
X36558Y54502
X37558Y54502
X37558Y53502
X36558Y53502
X37708Y51902
X37708Y50902
X37708Y49902
X37708Y48902
X37708Y47902
X37708Y46902
X36053Y46897
X36053Y45897
X36053Y44897
X37708Y44902
X37708Y43902
X37708Y42902
X37708Y41902
X39808Y41902
X39808Y42902
X39808Y43902
X39808Y44902
X39808Y46902
X39808Y47902
X39808Y48902
X39808Y49902
X39808Y50902
X39808Y51902
X39904Y54317
X40904Y54317
X41904Y54317
X42904Y54317
X43904Y54317
X44904Y54317
X45904Y54317
X46904Y54317
X46583Y55317
X45583Y55317
X44583Y55317
X43583Y55317
X42583Y55317
X41583Y55317
X40583Y55317
X39583Y55317
X37558Y55502
X36558Y55502
X48583Y55317
X49583Y55317
X50583Y55317
X51583Y55317
X52583Y55317
X53583Y55317
X54583Y55317
X55583Y55317
X55584Y54317
X54584Y54317
X53584Y54317
X52584Y54317
X51584Y54317
X50584Y54317
X49584Y54317
X48584Y54317
X55644Y47287
X56644Y47287
X56644Y46287
X55644Y46287
X55644Y45287
X56644Y45287
X53621Y44567
X53621Y46347
X51061Y46347
X51061Y44567
X51464Y36307
X50464Y36307
X50463Y35307
X51463Y35307
X52463Y35307
X53463Y35307
X54463Y35307
X55463Y35307
X55464Y36307
X54464Y36307
X53464Y36307
X52464Y36307
X48492Y36287
X47492Y36287
X46492Y36287
X45492Y36287
X44492Y36287
X43492Y36287
X43493Y35287
X44493Y35287
X45493Y35287
X46493Y35287
X47493Y35287
X48493Y35287
X77772Y39917
X77772Y38917
X77772Y37917
X77772Y36917
X77772Y35917
X77772Y40917
X59522Y40917
X59522Y39917
X59522Y38917
X59522Y37917
X59522Y36917
X59522Y35917
X29796Y71701
X29796Y70701
X29796Y69701
X29796Y68701
X29796Y67701
X29796Y72701
X11546Y72701
X11546Y71701
X11546Y70701
X11546Y69701
X11546Y68701
X11546Y67701
X59668Y61713
X60668Y61713
X61668Y61713
X62668Y61713
X63668Y61713
X58668Y61713
X58668Y43463
X59668Y43463
X60668Y43463
X61668Y43463
X62668Y43463
X63668Y43463
X65953Y3000
X66953Y3000
X69453Y3000
X70453Y3000
X71453Y3000
X72453Y3000
X73453Y3000
X74453Y3000
X76453Y3000
X77453Y3000
X78453Y3000
X79453Y3000
X80453Y3000
X81453Y3000
X72343Y11220
X70563Y11220
X70563Y13780
X70563Y14720
X69343Y14720
X67563Y14720
X65453Y15000
X65453Y16000
X65453Y17000
X65453Y18000
X65453Y19000
X67563Y17280
X69343Y17280
X70563Y17280
X70563Y18220
X72343Y18220
X72343Y17280
X73563Y17280
X75343Y17280
X75343Y14720
X77063Y14280
X78843Y14280
X81508Y13980
X82508Y13980
X82508Y12980
X82508Y11980
X81508Y11980
X81508Y12980
X78843Y11720
X77063Y11720
X73563Y14720
X72343Y14720
X72343Y13780
X65453Y14000
X70563Y20780
X70853Y22000
X71853Y22000
X72853Y22000
X72343Y20780
X74453Y22000
X75453Y22000
X76453Y22000
X77453Y22000
X78453Y22000
X79453Y22000
X80453Y22000
X81453Y22000
X87953Y20500
X87953Y19500
X87953Y18500
X87953Y17500
X87953Y16500
X87953Y15500
X69853Y22000
X68853Y22000
X67853Y22000
X66853Y22000
X65853Y22000
X88209Y10016
X88209Y11000
X88209Y11984
X88209Y6484
X88209Y5500
X88209Y4516
X53951Y62824
X53951Y61824
X53951Y60824
X53951Y59824
X53951Y58824
X53951Y63824
X35701Y63824
X35701Y62824
X35701Y61824
X35701Y60824
X35701Y59824
X35701Y58824
X91323Y3000
X92323Y3000
X94823Y3000
X95823Y3000
X96823Y3000
X97823Y3000
X98823Y3000
X99823Y3000
X101823Y3000
X102823Y3000
X103823Y3000
X104823Y3000
X105823Y3000
X106823Y3000
X97713Y11220
X95933Y11220
X95933Y13780
X95933Y14720
X94713Y14720
X92933Y14720
X90823Y15000
X90823Y16000
X90823Y17000
X90823Y18000
X90823Y19000
X92933Y17280
X94713Y17280
X95933Y17280
X95933Y18220
X97713Y18220
X97713Y17280
X98933Y17280
X100713Y17280
X100713Y14720
X102433Y14280
X104213Y14280
X106878Y13980
X107878Y13980
X107878Y12980
X107878Y11980
X106878Y11980
X106878Y12980
X104213Y11720
X102433Y11720
X98933Y14720
X97713Y14720
X97713Y13780
X90823Y14000
X95933Y20780
X96223Y22000
X97223Y22000
X98223Y22000
X97713Y20780
X99823Y22000
X100823Y22000
X101823Y22000
X102823Y22000
X103823Y22000
X104823Y22000
X105823Y22000
X106823Y22000
X113323Y20500
X113323Y19500
X113323Y18500
X113323Y17500
X113323Y16500
X113323Y15500
X95223Y22000
X94223Y22000
X93223Y22000
X92223Y22000
X91223Y22000
X113579Y10016
X113579Y11000
X113579Y11984
X113579Y6484
X113579Y5500
X113579Y4516
X67764Y61713
X68764Y61713
X69764Y61713
X70764Y61713
X71764Y61713
X66764Y61713
X66764Y43463
X67764Y43463
X68764Y43463
X69764Y43463
X70764Y43463
X71764Y43463
X53951Y70920
X53951Y69920
X53951Y68920
X53951Y67920
X53951Y66920
X53951Y71920
X35701Y71920
X35701Y70920
X35701Y69920
X35701Y68920
X35701Y67920
X35701Y66920
X75860Y61713
X76860Y61713
X77860Y61713
X78860Y61713
X79860Y61713
X74860Y61713
X74860Y43463
X75860Y43463
X76860Y43463
X77860Y43463
X78860Y43463
X79860Y43463
X116789Y21700
X117789Y21700
X118789Y21700
X119789Y21700
X120789Y21700
X115789Y21700
X115789Y3450
X116789Y3450
X117789Y3450
X118789Y3450
X119789Y3450
X120789Y3450
X108693Y43696
X109693Y43696
X110693Y43696
X111693Y43696
X112693Y43696
X107693Y43696
X107693Y25446
X108693Y25446
X109693Y25446
X110693Y25446
X111693Y25446
X112693Y25446
X99878Y29996
X99878Y28996
X99878Y27996
X99878Y26996
X99878Y25996
X99878Y30996
X81628Y30996
X81628Y29996
X81628Y28996
X81628Y27996
X81628Y26996
X81628Y25996
X105597Y33592
X105597Y34592
X105597Y37092
X105597Y38092
X105597Y39092
X105597Y40092
X105597Y41092
X105597Y42092
X105597Y44092
X105597Y45092
X105597Y46092
X105597Y47092
X105597Y48092
X105597Y49092
X97377Y39982
X97377Y38202
X94817Y38202
X93877Y38202
X93877Y36982
X93877Y35202
X93597Y33092
X92597Y33092
X91597Y33092
X90597Y33092
X89597Y33092
X91317Y35202
X91317Y36982
X91317Y38202
X90377Y38202
X90377Y39982
X91317Y39982
X91317Y41202
X91317Y42982
X93877Y42982
X94317Y44702
X94317Y46482
X94617Y49147
X94617Y50147
X95617Y50147
X96617Y50147
X96617Y49147
X95617Y49147
X96877Y46482
X96877Y44702
X93877Y41202
X93877Y39982
X94817Y39982
X94597Y33092
X87817Y38202
X86597Y38492
X86597Y39492
X86597Y40492
X87817Y39982
X86597Y42092
X86597Y43092
X86597Y44092
X86597Y45092
X86597Y46092
X86597Y47092
X86597Y48092
X86597Y49092
X88097Y55592
X89097Y55592
X90097Y55592
X91097Y55592
X92097Y55592
X93097Y55592
X86597Y37492
X86597Y36492
X86597Y35492
X86597Y34492
X86597Y33492
X98581Y55848
X97597Y55848
X96613Y55848
X102113Y55848
X103097Y55848
X104081Y55848
X116789Y45521
X117789Y45521
X118789Y45521
X119789Y45521
X120789Y45521
X115789Y45521
X115789Y27271
X116789Y27271
X117789Y27271
X118789Y27271
X119789Y27271
X120789Y27271
X108693Y67517
X109693Y67517
X110693Y67517
X111693Y67517
X112693Y67517
X107693Y67517
X107693Y49267
X108693Y49267
X109693Y49267
X110693Y49267
X111693Y49267
X112693Y49267
X102976Y63462
X102976Y62462
X102976Y61462
X102976Y60462
X102976Y59462
X102976Y64462
X84726Y64462
X84726Y63462
X84726Y62462
X84726Y61462
X84726Y60462
X84726Y59462
X102060Y71558
X102060Y70558
X102060Y69558
X102060Y68558
X102060Y67558
X102060Y72558
X83810Y72558
X83810Y71558
X83810Y70558
X83810Y69558
X83810Y68558
X83810Y67558
X77772Y71834
X77772Y70834
X77772Y69834
X77772Y68834
X77772Y67834
X77772Y72834
X59522Y72834
X59522Y71834
X59522Y70834
X59522Y69834
X59522Y68834
X59522Y67834
X116789Y69342
X117789Y69342
X118789Y69342
X119789Y69342
X120789Y69342
X115789Y69342
X115789Y51092
X116789Y51092
X117789Y51092
X118789Y51092
X119789Y51092
X120789Y51092
T05C0.047200
X30918Y14520
X30218Y14520
X29518Y14520
X28818Y14520
X28118Y14520
X27418Y14520
X26718Y14520
X26018Y14520
X25318Y14520
X26709Y11001
X26709Y7001
X31618Y14520
X20518Y10720
X20518Y10020
X20518Y9320
X20518Y8620
X20518Y7920
X20518Y7220
X20518Y6520
X20518Y5820
X20518Y5120
X20518Y4420
X20518Y3720
X20518Y3020
X20518Y2320
X13918Y14520
X13218Y14520
X12518Y14520
X11818Y14520
X11118Y14520
X10418Y14520
X38808Y35502
X38808Y36202
X38808Y36902
X38808Y37602
X38808Y38302
X38808Y39002
X38808Y39702
X38808Y40402
X38808Y41102
X35289Y39711
X31289Y39711
X38808Y34802
X35008Y45902
X34308Y45902
X33608Y45902
X32908Y45902
X32208Y45902
X31508Y45902
X30808Y45902
X30108Y45902
X29408Y45902
X28708Y45902
X28008Y45902
X27308Y45902
X26608Y45902
X38808Y52502
X38808Y53202
X38808Y53902
X38808Y54602
X38808Y55302
X38808Y56002
T06C0.078700
X85453Y12732
X85453Y9268
X85453Y7232
X85453Y3768
X110823Y12732
X110823Y9268
X110823Y7232
X110823Y3768
X95865Y53092
X99329Y53092
X101365Y53092
X104829Y53092
T07C0.125000
X66453Y5500
X91823Y5500
X103097Y34092
T08C0.130000
X27804Y5989
X27804Y3629
X29774Y4809
X30277Y38616
X27917Y38616
X29097Y36646
M30
